<?xml version="1.0" standalone="no"?>
<!DOCTYPE svg PUBLIC "-//W3C//DTD SVG 20010904//EN"
 "http://www.w3.org/TR/2001/REC-SVG-20010904/DTD/svg10.dtd">
<svg version="1.0" xmlns="http://www.w3.org/2000/svg"
 width="521.000000pt" height="521.000000pt" viewBox="0 0 521.000000 521.000000"
 preserveAspectRatio="xMidYMid meet">
<metadata>
Created by potrace 1.11, written by Peter Selinger 2001-2013
</metadata>
<g transform="translate(0.000000,521.000000) scale(0.100000,-0.100000)"
fill="#000000" stroke="none">
<path d="M2888 4965 c-2 -1 -41 -5 -88 -9 -100 -7 -125 -10 -205 -25 -56 -9
-72 -13 -135 -26 -14 -3 -36 -7 -49 -10 -31 -6 -283 -77 -426 -120 -181 -55
-678 -217 -720 -235 -11 -5 -90 -32 -175 -61 -85 -29 -209 -72 -274 -96 -66
-23 -124 -43 -129 -43 -24 0 142 176 263 279 88 75 33 79 -120 9 -191 -87
-314 -168 -445 -290 -130 -122 -176 -193 -230 -360 -26 -77 -51 -165 -56 -196
-6 -30 -29 -112 -50 -181 -53 -166 -58 -213 -27 -270 33 -62 90 -90 174 -87
58 3 84 14 376 159 173 87 316 157 320 157 3 0 48 20 99 44 407 191 1069 482
1254 550 55 20 107 40 115 43 18 7 7 4 145 47 314 98 416 52 305 -136 -118
-201 -643 -924 -685 -944 -31 -15 -237 -125 -260 -139 -11 -7 -54 -30 -95 -52
-212 -113 -275 -156 -360 -243 -93 -95 -132 -178 -136 -289 -4 -94 11 -161 56
-252 l27 -55 -204 -255 c-112 -140 -212 -263 -221 -274 -9 -11 -71 -88 -137
-170 -65 -83 -122 -152 -125 -155 -3 -3 -30 -36 -60 -75 -30 -38 -61 -77 -67
-85 -245 -301 -274 -348 -274 -447 -1 -103 35 -147 121 -146 116 2 253 95 496
339 139 140 167 182 182 275 8 53 22 74 273 404 145 192 267 353 270 358 4 5
62 -28 130 -75 68 -47 315 -212 549 -368 234 -157 427 -288 428 -292 2 -4 8
-8 12 -8 5 0 82 -50 172 -110 90 -61 170 -115 178 -120 8 -6 88 -60 178 -120
90 -61 167 -110 172 -110 5 0 10 -3 12 -7 3 -8 113 -84 132 -92 5 -2 109 -69
230 -149 329 -216 365 -233 411 -194 21 18 33 41 58 107 15 42 17 233 3 305
-41 205 -167 337 -588 622 -193 130 -519 351 -708 479 -85 58 -343 232 -572
388 l-418 283 15 26 c47 85 284 417 305 428 14 8 88 44 165 80 312 146 513
245 1235 607 730 366 756 378 790 368 122 -37 205 -4 340 131 68 68 176 209
263 340 102 156 124 221 88 257 -28 28 -65 21 -191 -37 -72 -32 -329 -161
-405 -202 -33 -18 -89 -49 -125 -68 -36 -19 -101 -53 -145 -77 -162 -87 -203
-109 -325 -173 -69 -36 -192 -101 -275 -144 -325 -171 -1067 -539 -1060 -526
5 7 135 204 290 438 155 234 291 441 301 460 29 55 23 157 -14 245 -107 255
-183 345 -309 365 -24 4 -44 6 -45 5z"/>
</g>
</svg>
