<?xml version="1.0" standalone="no"?>
<!DOCTYPE svg PUBLIC "-//W3C//DTD SVG 1.1//EN" "http://www.w3.org/Graphics/SVG/1.1/DTD/svg11.dtd" >
<svg xmlns="http://www.w3.org/2000/svg" xmlns:xlink="http://www.w3.org/1999/xlink" version="1.1">
<metadata>
Created by FontForge 20170731 at Thu Jun  8 06:36:59 2017
 By Aleksey,,,
Copyright (c) 2008 by TypeTogether. All rights reserved.
</metadata>
<defs>
<font id="Athelas-BoldItalic" horiz-adv-x="730" >
  <font-face 
    font-family="Athelas"
    font-weight="700"
    font-style="italic"
    font-stretch="normal"
    units-per-em="1000"
    panose-1="2 0 8 3 0 0 0 9 0 3"
    ascent="800"
    descent="-200"
    x-height="435"
    cap-height="657"
    bbox="-502 -426 1720 1125"
    underline-thickness="50"
    underline-position="-200"
    slope="-11"
    unicode-range="U+000D-FE48"
  />
<missing-glyph horiz-adv-x="500" 
 />
    <glyph glyph-name="ff" unicode="ff" horiz-adv-x="565" 
d="M325 387h-129l-49 -283q-24 -137 -74 -219.5t-117 -121.5q-11 -6 -24.5 -10.5t-30.5 -4.5q-11 0 -26.5 3t-27.5 8q5 17 11.5 43t8.5 48l22 7q13 -17 25 -28.5t30 -11.5q26 0 44.5 57t38.5 163l59 350h-76q2 16 8 29.5t20 13.5h55l11 68q7 42 29 78t52.5 62.5t66.5 41
t71 14.5q20 0 50 -9.5t59 -27.5q30 26 64.5 40.5t66.5 14.5q14 0 30.5 -4.5t30.5 -12.5q-7 -14 -13 -34t-10 -43l-20 -6q-9 14 -25 28.5t-33 14.5q-11 0 -21 -8t-19 -29t-17.5 -57.5t-18.5 -94.5l-6 -36h108q-5 -12 -8.5 -28t-5.5 -29q-23 5 -52 7.5t-49 3.5l-48 -280
q-24 -137 -74 -219.5t-117 -121.5q-11 -6 -24.5 -10.5t-30.5 -4.5q-11 0 -26.5 3t-27.5 8q5 17 11.5 43t8.5 48l22 7q13 -17 25 -28.5t30 -11.5q26 0 44.5 57t38.5 163zM332 430l15 85q7 42 30 78q-20 20 -43 32t-47 12q-13 0 -23 -5t-19.5 -22.5t-18 -51.5t-18.5 -92
l-6 -36h130z" />
    <glyph glyph-name="fi" unicode="fi" horiz-adv-x="496" 
d="M370 91q-3 -14 -2.5 -20.5t8.5 -6.5q6 0 14.5 3.5t16.5 8t15 8t11 3.5q8 0 12.5 -8.5t5.5 -16.5q-16 -11 -37.5 -24t-44 -24t-44 -18.5t-37.5 -7.5q-17 0 -28.5 7t-11.5 24q0 6 1 11.5t2 9.5l68 321q1 5 -0.5 9.5t-8.5 5.5q-11 1 -26.5 2.5t-32 2.5t-32 2t-24.5 1
l-48 -280q-24 -137 -74 -219.5t-117 -121.5q-11 -6 -24.5 -10.5t-30.5 -4.5q-11 0 -26.5 3t-27.5 8q5 17 11.5 43t8.5 48l22 7q13 -17 25 -28.5t30 -11.5q26 0 44.5 57t38.5 163l59 350h-76q2 16 8 29.5t20 13.5h55l15 85q7 42 31.5 78.5t56.5 62.5t68.5 41t69.5 15
q32 0 67.5 -12t60.5 -46q-19 -11 -35.5 -25.5t-28.5 -31.5l-18 2q-16 32 -38.5 45.5t-42.5 13.5q-15 0 -27.5 -8.5t-23.5 -30t-20.5 -58.5t-19.5 -95l-6 -36h120q36 0 55 4t36 4q8 0 15 -4t7 -14q0 -3 -0.5 -8t-1.5 -10z" />
    <glyph glyph-name="fl" unicode="fl" horiz-adv-x="505" 
d="M86 387h-76q2 16 8 29.5t20 13.5h55l15 85q7 42 29.5 78.5t53 62.5t65.5 41t68 15q7 0 19 -1.5t26.5 -5t30 -9t30.5 -13.5q9 3 19.5 7.5t24.5 9.5q19 -8 19 -27q0 -4 -1 -9.5t-2 -9.5l-110 -563q-3 -14 -2.5 -20.5t8.5 -6.5q6 0 14.5 3.5t16.5 8t15 8t11 3.5
q8 0 12.5 -8.5t5.5 -16.5q-16 -11 -37.5 -24t-44 -24t-44 -18.5t-37.5 -7.5q-17 0 -28.5 7t-11.5 24q0 6 1 11.5t2 9.5l97 480q5 27 8 52.5t4 43.5q-14 17 -39 28t-42 11q-13 0 -23.5 -8t-20 -29t-18.5 -57.5t-19 -94.5l-6 -36h98q-5 -12 -8.5 -28t-5.5 -29q-23 5 -47 7.5
t-44 3.5l-48 -280q-24 -137 -74 -219.5t-117 -121.5q-11 -6 -24.5 -10.5t-30.5 -4.5q-11 0 -26.5 3t-27.5 8q5 17 11.5 43t8.5 48l22 7q13 -17 25 -28.5t30 -11.5q26 0 44.5 57t38.5 163z" />
    <glyph glyph-name=".notdef" horiz-adv-x="500" 
 />
    <glyph glyph-name=".null" horiz-adv-x="0" 
 />
    <glyph glyph-name="nonmarkingreturn" unicode="&#xd;" horiz-adv-x="500" 
 />
    <glyph glyph-name="space" unicode=" " horiz-adv-x="210" 
 />
    <glyph glyph-name="exclam" unicode="!" horiz-adv-x="251" 
d="M118 648q16 6 36.5 10t34.5 4q37 0 50 -14.5t5 -36.5q-31 -86 -66 -200.5t-58 -243.5q-17 -3 -26.5 -2t-14 5t-5 9.5t-0.5 10.5zM14 50q0 29 20 51t50 22q32 0 48.5 -18.5t16.5 -44.5q0 -30 -21 -51t-49 -21q-35 0 -50 18t-15 44z" />
    <glyph glyph-name="quotedbl" unicode="&#x22;" horiz-adv-x="327" 
d="M75 631q23 11 41 15t32 4q25 0 33.5 -6t8.5 -16q0 -4 -1.5 -8.5t-6.5 -14.5q-10 -19 -18.5 -37.5t-16.5 -39t-17 -44.5t-19 -53q-33 0 -42.5 9.5t-7.5 24.5zM222 631q23 11 41 15t32 4q25 0 33.5 -6t8.5 -16q0 -4 -1.5 -8.5t-6.5 -14.5q-10 -19 -18.5 -37.5t-16.5 -39
t-17 -44.5t-19 -53q-33 0 -42.5 9.5t-7.5 24.5z" />
    <glyph glyph-name="numbersign" unicode="#" horiz-adv-x="542" 
d="M53 289q-1 29 7 46t28 17h73l29 109q35 -1 46.5 -8t11.5 -17q0 -4 -1 -7l-21 -77h107l29 109q35 -1 46.5 -8t11.5 -17q0 -4 -1 -7l-21 -77h80q1 -27 -6.5 -45t-26.5 -18h-64l-32 -120h93q2 -29 -6 -46t-27 -17h-77l-31 -118q-35 3 -46.5 10t-11.5 15v2q0 2 1 4l23 87
h-107l-31 -118q-35 3 -46.5 10t-11.5 15v2q0 2 1 4l23 87h-78q-2 27 6.5 45t28.5 18h60l32 120h-91zM177 169h107l32 120h-107z" />
    <glyph glyph-name="dollar" unicode="$" horiz-adv-x="514" 
d="M168 7q-55 4 -98.5 19t-59.5 26q5 41 7 86.5t0 81.5l14 4t12 2q16 0 20.5 -6.5t6.5 -20.5q9 -63 32 -100.5t75 -44.5l45 228q-21 16 -44 33.5t-42.5 39t-32 48t-12.5 59.5q0 28 11 58.5t35 56.5t62 43t92 18l15 78q49 -10 43 -36l-9 -45q43 -5 78 -17.5t63 -27.5
q-5 -33 -7 -58t-1 -59q-5 -3 -12 -5.5t-16 -1.5q-12 2 -16.5 7.5t-6.5 14.5q-6 44 -30 70t-60 34l-40 -206l12 -9q22 -17 45 -35.5t41.5 -40.5t30 -49t11.5 -60q0 -77 -52.5 -127.5t-161.5 -56.5l-15 -80q-23 6 -34.5 13.5t-8.5 21.5zM321 159q0 32 -15.5 54t-39.5 42
l-39 -200q39 6 66.5 30.5t27.5 73.5zM194 503q0 -27 15 -49t38 -42l35 183q-40 -3 -64 -26.5t-24 -65.5z" />
    <glyph glyph-name="percent" unicode="%" horiz-adv-x="779" 
d="M389 112q0 56 15.5 101.5t41.5 77.5t61.5 49t74.5 17q64 0 93 -32.5t29 -91.5q0 -47 -14 -91t-39.5 -78t-61 -55t-79.5 -21q-32 0 -55 9.5t-37.5 26t-21.5 39.5t-7 49zM572 314q-21 0 -37.5 -17.5t-28 -47t-17.5 -67.5t-6 -78q0 -35 7 -54.5t30 -19.5q22 0 39 20t28.5 51
t17 69t5.5 73q0 71 -38 71zM154 -1q-11 -14 -30.5 -13.5t-39.5 15.5l489 639q18 25 64 -10zM30 405q0 56 15.5 101.5t41.5 77.5t61.5 49t74.5 17q64 0 93 -32.5t29 -91.5q0 -47 -14 -91t-39.5 -78t-61 -55t-79.5 -21q-32 0 -55 9.5t-37.5 26t-21.5 39.5t-7 49zM213 607
q-21 0 -37.5 -17.5t-28 -47t-17.5 -67.5t-6 -78q0 -35 7 -54.5t30 -19.5q22 0 39 20t28.5 51t17 69t5.5 73q0 71 -38 71z" />
    <glyph glyph-name="ampersand" unicode="&#x26;" horiz-adv-x="796" 
d="M325 243q6 28 22 50t37 37.5t45 23.5t47 8q30 0 51 -5t41 -12q21 -8 44 -17t46 -9q18 0 22.5 8.5t4.5 21.5q0 9 -4 22t-4 21q0 12 10 17.5t27 5.5q20 0 36 -10.5t26 -21.5q-17 -64 -50.5 -92t-88.5 -28q-9 0 -21.5 1t-20.5 3q8 -16 12.5 -33t4.5 -38q0 -28 -13.5 -64
t-48 -68t-94 -54t-151.5 -22q-46 0 -94.5 9.5t-88.5 32t-66 60t-26 94.5q0 32 11 61t33.5 52.5t56 40.5t78.5 24q-52 20 -78 53.5t-26 71.5q0 44 21 75t53.5 50.5t72 28.5t76.5 9q66 0 116.5 -17t79.5 -40q10 -8 2.5 -26t-33.5 -33q-17 -10 -34 -8t-31 19q-27 30 -51.5 46
t-59.5 16q-14 0 -29.5 -5t-29 -18.5t-22.5 -37t-9 -59.5q0 -15 4 -33t16.5 -35t37 -31t65.5 -21l-8 -37q-27 3 -35.5 3.5t-13.5 0.5q-38 0 -63.5 -11t-41.5 -29t-22.5 -41.5t-6.5 -48.5q0 -42 13.5 -74t37.5 -53.5t57.5 -32.5t73.5 -11q105 0 158.5 46t53.5 119
q0 23 -6 43.5t-20 37.5q-13 9 -36 16.5t-42 7.5q-13 0 -21.5 -7.5t-8.5 -28.5q0 -8 2.5 -15.5t2.5 -11.5q0 -25 -44 -25q-17 0 -33.5 8.5t-21.5 19.5z" />
    <glyph glyph-name="quotesingle" unicode="'" horiz-adv-x="180" 
d="M75 631q23 11 41 15t32 4q25 0 33.5 -6t8.5 -16q0 -4 -1.5 -8.5t-6.5 -14.5q-10 -19 -18.5 -37.5t-16.5 -39t-17 -44.5t-19 -53q-33 0 -42.5 9.5t-7.5 24.5z" />
    <glyph glyph-name="parenleft" unicode="(" horiz-adv-x="321" 
d="M211 -124q11 -18 4 -29.5t-20 -16.5q-78 74 -122.5 159t-44.5 176q0 152 81 283t233 234q20 -12 19 -23.5t-12 -21.5q-109 -96 -159.5 -212.5t-50.5 -245.5q0 -34 2 -70t9.5 -74.5t22 -78t38.5 -80.5z" />
    <glyph glyph-name="parenright" unicode=")" horiz-adv-x="334" 
d="M90 636q-11 18 -4 29.5t20 16.5q78 -74 122.5 -159t44.5 -176q0 -152 -81 -283t-233 -234q-20 12 -19 23.5t12 21.5q109 96 159.5 212.5t50.5 245.5q0 34 -2.5 70t-10 74.5t-21.5 78t-38 80.5z" />
    <glyph glyph-name="asterisk" unicode="*" horiz-adv-x="334" 
d="M225 532q20 11 40 29.5t48 48.5l14 -2q8 -14 18.5 -27t15.5 -27q3 -8 3 -13q0 -14 -23 -19.5t-72 -8.5q-7 -1 -14.5 -1.5t-15.5 -0.5q-4 0 -9 6t-5 15zM211 491q1 -20 5.5 -45.5t18.5 -69.5l-8 -11q-14 0 -27.5 -1.5t-26.5 -1.5q-17 0 -24 3.5t-7 16.5q0 14 11.5 40
t33.5 67q2 5 13 5q6 0 11 -3zM203 541q-2 29 -8.5 58t-15.5 58l8 10q14 0 27.5 2t27.5 2q30 0 30 -21q0 -11 -9.5 -34t-34.5 -73q-4 -4 -14 -4q-8 0 -11 2zM229 508q10 -6 30 -13q15 -5 35 -11t46 -12l5 -13q-5 -11 -11 -23.5t-11 -23.5q-7 -14 -12.5 -17.5t-11.5 -3.5
q-14 0 -32 24t-49 72q0 1 -0.5 1.5t-0.5 1.5q0 5 3 10t9 8zM184 526q-26 14 -55 21.5t-56 14.5l-5 13q5 7 11 22.5t13 27.5q10 18 23 18q5 0 11.5 -4t15.5 -15t21.5 -29.5t30.5 -47.5q1 -1 1 -4q0 -4 -2.5 -9t-8.5 -8zM189 501q-28 -17 -45.5 -34.5t-42.5 -43.5l-13 2
q-3 8 -9.5 17t-12.5 18t-10.5 17.5t-4.5 14.5q0 9 11 15q13 7 40.5 9.5t73.5 4.5q4 0 8.5 -5.5t4.5 -14.5z" />
    <glyph glyph-name="plus" unicode="+" horiz-adv-x="494" 
d="M6 195q5 35 18 50.5t39 15.5h122v137q0 7 2 14t9.5 12.5t22 9t38.5 4.5v-177h185q-5 -35 -18 -50.5t-39 -15.5h-128v-156q0 -21 -14.5 -28.5t-57.5 -11.5v196h-179z" />
    <glyph glyph-name="comma" unicode="," horiz-adv-x="227" 
d="M-8 -142q-8 5 -15 12t-7 15q0 10 15 22q33 26 44 47t11 39q0 12 -7 20t-16 15t-16 14t-7 18q0 28 69 65q35 -19 56 -44t21 -54q0 -16 -7 -35.5t-24.5 -41.5t-46 -45t-70.5 -47z" />
    <glyph glyph-name="hyphen" unicode="-" horiz-adv-x="309" 
d="M11 210q2 38 16 54.5t40 16.5h210q-3 -39 -16 -55t-40 -16h-210z" />
    <glyph glyph-name="period" unicode="." horiz-adv-x="206" 
d="M-10 50q0 29 20 51t50 22q32 0 48.5 -18.5t16.5 -44.5q0 -30 -21 -51t-49 -21q-35 0 -50 18t-15 44z" />
    <glyph glyph-name="slash" unicode="/" horiz-adv-x="301" 
d="M42 0q-5 -13 -11.5 -22t-26.5 -9q-11 0 -23 3.5t-26 8.5l306 686q5 11 12 20t24 9q13 0 24.5 -3t24.5 -8z" />
    <glyph glyph-name="zero" unicode="0" horiz-adv-x="536" 
d="M203 -12q-100 0 -151.5 52t-51.5 138q0 60 23.5 114t64 94.5t94 64.5t114.5 24q94 0 147 -47.5t53 -135.5q0 -60 -22.5 -115t-61.5 -97t-92.5 -67t-116.5 -25zM288 430q-31 0 -59.5 -18.5t-50.5 -52t-35 -81.5t-13 -107q0 -73 23 -105.5t59 -32.5q35 0 63.5 22.5t49 60
t32 86t11.5 101.5q0 67 -22.5 97t-57.5 30z" />
    <glyph glyph-name="one" unicode="1" horiz-adv-x="372" 
d="M53 469q35 -4 74 -6t76 -2q10 0 28 0.5t38.5 1.5l41 2t37.5 3q10 -37 -16 -41q-24 -3 -38.5 -6.5t-22 -9t-11 -13.5t-5.5 -20l-57 -300q-4 -21 7.5 -30t50.5 -15q22 -3 26.5 -10.5t-2.5 -29.5q-38 3 -79 5t-73 2q-11 0 -28.5 -0.5t-38 -1.5t-41.5 -2.5t-37 -2.5
q-4 14 -1.5 25.5t20.5 14.5q22 3 35.5 8t21.5 11t11.5 13.5t5.5 16.5l56 295q2 10 2 18t-5.5 14t-18.5 10.5t-36 6.5q-20 2 -22.5 13.5t1.5 29.5z" />
    <glyph glyph-name="two" unicode="2" horiz-adv-x="460" 
d="M20 366q53 56 108 83t120 27q41 0 69.5 -10t46.5 -26.5t26 -38t8 -43.5q0 -34 -16.5 -65t-50 -63.5t-85.5 -70t-123 -83.5h158q20 0 36 7.5t32 33.5q5 9 10 15t16 6q9 0 18 -2.5t17 -5.5q-12 -23 -25 -57.5t-21 -61.5q-3 -9 -8.5 -12t-14.5 -3q-19 0 -48 2t-67 2h-256
l3 21q108 79 168 131.5t89.5 87t36 57t6.5 43.5q0 29 -20 49t-56 20q-28 0 -56 -12t-65 -42q-8 -7 -14 -9t-11 -2q-11 0 -18.5 7t-12.5 15z" />
    <glyph glyph-name="three" unicode="3" horiz-adv-x="418" 
d="M35 177q39 17 75 34t64 38t44.5 47t16.5 61q0 22 -14 36.5t-38 14.5q-23 0 -45.5 -10t-55.5 -33q-5 -4 -11 -6.5t-12 -2.5q-11 0 -19 5.5t-12 13.5q18 15 41 33t50 33t57 25t62 10q59 0 93 -24.5t34 -71.5q0 -27 -11.5 -49t-30.5 -40.5t-43.5 -34.5t-50.5 -30
q58 -15 85.5 -48t27.5 -72q0 -63 -39.5 -110.5t-99.5 -82t-130.5 -57t-132.5 -34.5q-9 13 -9 26q0 14 24 20q41 11 84.5 27.5t79.5 42.5t59 63t23 89q0 34 -16 53.5t-44 19.5q-15 0 -42.5 -6.5t-70.5 -23.5z" />
    <glyph glyph-name="four" unicode="4" horiz-adv-x="472" 
d="M275 318l-221 -250h169zM180 -159l32 159h-251q-4 19 -1.5 28.5t13.5 22.5l348 393q9 11 18 14.5t23 3.5h51l-75 -394h84l-11 -68h-85l-31 -159h-115z" />
    <glyph glyph-name="five" unicode="5" horiz-adv-x="410" 
d="M382 405q-4 -16 -14.5 -26t-39.5 -10h-198l-45 -135q28 11 58 16.5t57 5.5q69 0 110 -33.5t41 -89.5q0 -44 -19 -81.5t-51.5 -69t-74.5 -57.5t-88.5 -47t-94 -37.5t-89.5 -28.5q-5 8 -8.5 15.5t-3.5 12.5q0 10 19 16q41 14 89 36.5t89.5 54.5t69 74.5t27.5 96.5
q0 35 -19 56t-61 21q-49 0 -120 -23l75 290h304z" />
    <glyph glyph-name="six" unicode="6" horiz-adv-x="501" 
d="M241 349q-30 0 -48.5 -16.5t-29 -41.5t-14 -54t-3.5 -53q0 -66 17.5 -110t51.5 -44q21 0 40 13t34 38t24 60.5t9 80.5q0 60 -22 93.5t-59 33.5zM477 610q-54 -20 -100 -42.5t-84 -50.5t-67.5 -63.5t-50.5 -82.5q19 12 49.5 22.5t65.5 10.5q32 0 60.5 -9.5t50 -30.5
t34 -53t12.5 -77q0 -44 -17 -87.5t-48 -79t-75 -57.5t-98 -22q-57 0 -94 19t-58.5 50t-30 70.5t-8.5 80.5q0 80 33.5 152t93.5 130t144.5 100t186.5 62q23 -33 1 -42z" />
    <glyph glyph-name="seven" unicode="7" horiz-adv-x="447" 
d="M467 441q-72 -84 -124.5 -160t-89 -145.5t-59.5 -132t-37 -118.5q-5 -23 -7 -37.5t-2 -22.5q-26 -2 -55.5 -5.5t-58.5 -11.5q-13 8 -17 16t3 28q18 49 46.5 110t69 128.5t92.5 138.5t117 140h-216q-20 0 -32 -10t-28 -40q-3 -5 -6.5 -8.5t-14.5 -3.5q-14 0 -28 8
q13 32 21 65t13 65q2 9 7 15t17 6q17 0 41.5 -2t77.5 -2h270v-21z" />
    <glyph glyph-name="eight" unicode="8" horiz-adv-x="482" 
d="M192 495q0 -37 17.5 -64.5t56.5 -59.5q48 32 65 65.5t17 71.5q0 40 -20.5 63t-53.5 23q-38 0 -60 -29t-22 -70zM442 515q0 -44 -33.5 -88t-104.5 -81q35 -28 58.5 -48.5t38 -39t20.5 -37t6 -42.5q0 -50 -23.5 -86t-59 -59.5t-77 -34.5t-78.5 -11q-88 0 -140 35.5
t-52 107.5q0 50 36.5 96.5t126.5 90.5q-29 22 -46 41.5t-27 37.5t-13 34.5t-3 33.5q0 28 13.5 58.5t40.5 55t66.5 40.5t92.5 16q76 0 117 -35t41 -89v4zM309 144q0 17 -4.5 32t-16.5 31.5t-34 37t-57 47.5q-45 -31 -70 -67t-25 -82q0 -32 8 -53.5t20.5 -34t29 -18t34.5 -5.5
q24 0 44.5 7.5t36.5 22t25 35t9 47.5z" />
    <glyph glyph-name="nine" unicode="9" horiz-adv-x="496" 
d="M223 115q30 0 48.5 16.5t29 41.5t14 54t3.5 53q0 66 -18.5 110t-56.5 44q-18 0 -36.5 -11.5t-32.5 -34.5t-23 -57t-9 -79q0 -60 22 -98.5t59 -38.5zM-13 -146q54 20 100 42.5t84 50.5t67.5 63.5t50.5 82.5q-19 -12 -48 -22.5t-67 -10.5q-33 0 -62 11t-50 33.5t-33 56.5
t-12 79q0 43 17 85.5t48 76t75 54t98 20.5q57 0 94 -19t58.5 -50t30 -70.5t8.5 -80.5q0 -80 -33.5 -152t-93.5 -130t-144.5 -100t-186.5 -62q-23 33 -1 42z" />
    <glyph glyph-name="colon" unicode=":" horiz-adv-x="206" 
d="M-12 50q0 29 20 51t50 22q32 0 48.5 -18.5t16.5 -44.5q0 -30 -21 -51t-49 -21q-35 0 -50 18t-15 44zM40 370q0 29 20 51t50 22q32 0 48.5 -18.5t16.5 -44.5q0 -30 -21 -51t-49 -21q-35 0 -50 18t-15 44z" />
    <glyph glyph-name="semicolon" unicode=";" horiz-adv-x="218" 
d="M-7 -142q-8 5 -15 12t-7 15q0 10 15 22q33 26 44 47t11 39q0 12 -7 20t-16 15t-16 14t-7 18q0 28 69 65q35 -19 56 -44t21 -54q0 -16 -7 -35.5t-24.5 -41.5t-46 -45t-70.5 -47zM55 370q0 29 20 51t50 22q32 0 48.5 -18.5t16.5 -44.5q0 -30 -21 -51t-49 -21q-35 0 -50 18
t-15 44z" />
    <glyph glyph-name="less" unicode="&#x3c;" horiz-adv-x="494" 
d="M464 36q-14 -28 -35 -38.5t-42 0.5l-355 191q-5 17 -3.5 28t19.5 21l382 199q12 -24 14 -46t-15 -31l-286 -148z" />
    <glyph glyph-name="equal" unicode="=" horiz-adv-x="494" 
d="M4 105q5 35 18 50.5t39 15.5h379q-5 -35 -18 -50.5t-39 -15.5h-379zM22 294q5 35 18 50.5t39 15.5h379q-5 -35 -18 -50.5t-39 -15.5h-379z" />
    <glyph glyph-name="greater" unicode="&#x3e;" horiz-adv-x="494" 
d="M335 209l-289 149q-17 9 -13.5 32t15.5 47l382 -199q18 -10 19.5 -21t-3.5 -28l-355 -191q-21 -11 -42 -0.5t-35 38.5z" />
    <glyph glyph-name="question" unicode="?" horiz-adv-x="359" 
d="M144 170q-42 48 -60.5 81t-18.5 60q0 22 7 39.5t22.5 34t41 34.5t62.5 42q17 11 34.5 21t32 21t23.5 23.5t9 28.5q0 24 -16 33.5t-36 9.5q-16 0 -36 -8t-46 -30q-10 -8 -16.5 -13t-18.5 -5q-10 0 -20.5 6t-19.5 13.5t-14.5 15.5t-5.5 13q0 7 4.5 11.5t12.5 11.5
q29 23 61.5 36t66.5 13q39 0 68 -13.5t48 -34t28.5 -44t9.5 -43.5q0 -46 -31.5 -78.5t-94.5 -71.5q-17 -10 -33.5 -20t-30 -21t-22 -23.5t-8.5 -28.5q0 -9 1 -17t4 -16.5t7 -18.5l10 -25q1 -3 2 -7.5t-1 -10t-8 -10.5t-18 -9zM56 50q0 29 20 51t50 22q32 0 48.5 -18.5
t16.5 -44.5q0 -30 -21 -51t-49 -21q-35 0 -50 18t-15 44z" />
    <glyph glyph-name="at" unicode="@" horiz-adv-x="818" 
d="M533 0q-39 0 -56 14t-17 49t15 97h-4q-21 -50 -44 -82t-47 -50.5t-49 -26t-49 -7.5q-16 0 -31.5 4.5t-27.5 15t-19 29t-7 47.5q0 85 26 150.5t66.5 110.5t89.5 68t95 23q38 0 71.5 -3.5t67.5 -9.5l-69 -351q-1 -5 -1 -12q0 -13 5.5 -17.5t13.5 -4.5q26 0 53 22.5
t48.5 61.5t35.5 91t14 110t-22 104t-59.5 78.5t-86.5 50t-104 17.5q-71 0 -136.5 -27t-116 -78.5t-80.5 -125t-30 -166.5q0 -74 25 -134.5t70 -104.5t106.5 -68t135.5 -24q60 0 117.5 11.5t106.5 35.5q8 4 14 4t13.5 -4.5t16.5 -16.5q-24 -18 -56 -32t-67.5 -23.5t-73 -14.5
t-74.5 -5q-93 0 -165.5 28.5t-123 79.5t-77 122t-26.5 157q0 90 35.5 168t95 135.5t138 90.5t165.5 33q70 0 127.5 -21.5t99 -61t64.5 -94.5t23 -122q0 -49 -13 -105t-41 -104t-73 -80t-108 -32zM504 384q-24 9 -44 9q-75 0 -115 -70.5t-40 -195.5q0 -26 7.5 -41t19.5 -15
q18 0 37.5 17t38.5 44t36.5 61t30.5 69t21 67t8 55z" />
    <glyph glyph-name="A" unicode="A" horiz-adv-x="587" 
d="M336 262l-36 229l-121 -229h157zM344 216h-190l-77 -141q-4 -7 -4 -15q0 -16 19.5 -24t46.5 -12q19 -3 19 -14q0 -7 -3 -17q-38 3 -67.5 5t-55.5 2q-19 0 -42.5 -1t-60.5 -6q-2 5 -3 9.5t-1 8.5q0 7 5.5 11.5t19.5 6.5q50 9 67 38l317 581q8 14 22 14q13 0 22 -7
l112 -586q4 -19 18.5 -28t34.5 -11q12 -2 17.5 -5t5.5 -14q0 -3 -0.5 -7.5t-1.5 -9.5q-26 2 -56 4t-64 2q-14 0 -31 -0.5t-35 -1.5t-35 -2.5t-31 -2.5q-3 9 -3 17q0 6 4 10.5t15 6.5q41 6 41 35q0 7 -1 10z" />
    <glyph glyph-name="B" unicode="B" horiz-adv-x="570" 
d="M245 362q82 0 119 43.5t37 113.5q0 43 -24.5 65.5t-79.5 22.5h-6zM188 65q-2 -13 2 -17.5t14 -4.5h12q40 0 74 8.5t59 27.5t39 50t14 76q0 55 -38 84t-108 29h-19zM171 577q3 19 -8.5 27.5t-44.5 10.5q-20 1 -20 15q0 4 1 9t3 11h245q52 0 86.5 -10t55.5 -27.5t29.5 -41
t8.5 -50.5q0 -52 -38.5 -99t-100.5 -73q62 -10 102 -42t40 -91q0 -49 -21.5 -88.5t-59 -68t-87 -44t-106.5 -15.5h-141q-20 0 -50.5 -1.5t-63.5 -5.5q-3 10 -3 18q0 13 17 17q28 5 41 15t17 28z" />
    <glyph glyph-name="C" unicode="C" horiz-adv-x="619" 
d="M325 -12q-83 0 -140.5 21t-94.5 58t-53.5 85.5t-16.5 104.5q0 71 25 143.5t74.5 130.5t124.5 94.5t176 36.5q52 0 101 -9t96 -24q-3 -29 -3 -58q0 -21 1.5 -40t3.5 -36q-9 -9 -27 -9q-22 0 -25 20q-13 63 -54.5 89t-99.5 26q-62 0 -110.5 -29t-82 -77.5t-51.5 -113
t-18 -136.5q0 -53 13 -96t37 -73.5t58.5 -47t76.5 -16.5q60 0 102 28t71 91q5 9 11 13.5t19 4.5q10 0 19 -4.5t12 -7.5q-13 -26 -26 -64t-22 -83q-24 -5 -51.5 -9t-54.5 -7t-50.5 -4.5t-40.5 -1.5z" />
    <glyph glyph-name="D" unicode="D" horiz-adv-x="728" 
d="M573 366q0 65 -16 111t-47.5 75t-77 42.5t-103.5 13.5h-35l-101 -536q-3 -17 0.5 -23t17.5 -6h43q64 0 121.5 18.5t101.5 57.5t70 100t26 147zM171 581q3 17 -7 27t-40 12q-18 1 -18 15q0 5 1 10t3 12q37 -3 70.5 -5t57.5 -2h138q71 0 131.5 -17t104.5 -51t68.5 -85.5
t24.5 -120.5q0 -84 -33 -153t-91 -118.5t-136.5 -77t-169.5 -27.5h-149q-21 0 -58 -2t-71 -5q-1 4 -2 8.5t-1 9.5q0 6 3 11t13 7q31 5 45 13.5t18 28.5z" />
    <glyph glyph-name="E" unicode="E" horiz-adv-x="565" 
d="M171 581q4 18 -5.5 26.5t-36.5 11.5q-22 3 -22 20q0 7 3 18q38 -3 73.5 -5t60.5 -2h187q39 0 59.5 3t32.5 3t16 -4t4 -15q0 -32 5 -63t12 -62q-5 -4 -13.5 -6.5t-15.5 -2.5q-11 0 -16 4.5t-7 11.5q-14 48 -38 68.5t-65 20.5h-111l-48 -254h116q23 0 33 14t17 38
q2 6 5.5 11t11.5 5t16 -2.5t14 -4.5q-6 -23 -10.5 -42.5t-8 -39.5t-6 -43t-4.5 -52q-10 -5 -26 -5q-14 0 -17 6t-2 13q3 25 -3.5 41.5t-30.5 16.5h-113l-47 -244q-2 -14 1.5 -18.5t17.5 -4.5h108q36 0 70.5 20t72.5 73q5 8 9 12t12 4q9 0 17.5 -5.5t14.5 -11.5l-10 -20
q-5 -10 -11 -22.5t-12 -29.5q-8 -20 -11.5 -35.5t-7.5 -23.5q-3 -7 -6.5 -8.5t-8.5 -1.5q-11 0 -19.5 1t-18.5 2t-22.5 2t-30.5 1h-234q-20 0 -55 -2t-68 -5q-5 10 -5 18t5.5 13t19.5 7q29 3 40 13t14 27z" />
    <glyph glyph-name="F" unicode="F" horiz-adv-x="538" 
d="M191 69q-2 -10 3 -16.5t13.5 -10.5t18.5 -6t19 -3q17 -2 23.5 -7t6.5 -12q0 -4 -1 -10t-2 -11q-18 1 -39.5 2.5t-41.5 2.5t-38.5 1.5t-30.5 0.5q-20 0 -54 -2t-67 -5q-2 5 -2.5 11t-0.5 10q0 9 8 12.5t20 5.5q19 3 31 11t16 28l98 510q4 18 -5.5 26.5t-36.5 11.5
q-22 3 -22 20q0 7 3 18q38 -3 73.5 -5t60.5 -2h187q39 0 59.5 3t32.5 3t16 -4t4 -15q0 -32 5 -63t12 -62q-5 -4 -13.5 -6.5t-15.5 -2.5q-11 0 -16 4.5t-7 11.5q-14 48 -38 68.5t-65 20.5h-111l-50 -264h116q23 0 33 14t17 38q2 6 5.5 11t11.5 5t16 -2.5t14 -4.5
q-6 -23 -10.5 -42.5t-8 -39.5t-6 -43t-4.5 -52q-10 -5 -26 -5q-14 0 -17 6t-2 13q3 25 -3.5 41.5t-30.5 16.5h-113z" />
    <glyph glyph-name="G" unicode="G" horiz-adv-x="671" 
d="M460 206q6 31 -41 37q-12 2 -16.5 6t-4.5 12q0 5 1 10t3 12q38 -3 70.5 -5t56.5 -2q20 0 51.5 2t64.5 5q3 -11 3 -18q0 -18 -22 -22q-23 -4 -34 -12.5t-15 -26.5l-36 -179q-3 -14 -12 -20t-29 -8q-43 -5 -90.5 -7t-93.5 -2q-78 0 -133.5 21.5t-91 58.5t-52.5 87t-17 107
q0 69 23.5 140t72.5 128.5t122.5 94t174.5 37.5q52 0 103 -9t98 -24q-2 -14 -2 -29v-29q0 -18 1 -36.5t3 -39.5q-9 -9 -27 -9q-22 0 -25 20q-13 61 -53 88t-96 27q-66 0 -115.5 -29.5t-82.5 -78.5t-49.5 -113.5t-16.5 -134.5q0 -106 48 -169.5t140 -63.5q26 0 51.5 1.5
t33.5 3.5z" />
    <glyph glyph-name="H" unicode="H" 
d="M538 580q4 18 -3.5 28t-36.5 13q-22 3 -22 16q0 7 5 20q37 -3 69 -5t55 -2q20 0 56 1.5t71 5.5q3 -11 3 -19t-4.5 -12t-18.5 -6q-28 -4 -39.5 -13t-15.5 -29l-96 -509q-4 -20 6 -27.5t37 -12.5q19 -4 19 -18q0 -8 -3 -18q-37 3 -73 5t-59 2q-20 0 -52.5 -2t-66.5 -5
q-3 10 -3 18t3.5 12t14.5 6q26 4 39 13.5t17 28.5l46 236h-249l-45 -238q-4 -20 7 -27.5t38 -12.5q19 -4 19 -18q0 -8 -3 -18q-37 3 -73 5t-59 2q-20 0 -52.5 -2t-66.5 -5q-3 10 -3 18t3.5 12t14.5 6q26 4 39 13.5t17 28.5l98 509q4 18 -3.5 28t-36.5 13q-22 3 -22 16
q0 7 5 20q37 -3 69 -5t55 -2q20 0 56 1.5t71 5.5q3 -11 3 -19t-4.5 -12t-18.5 -6q-28 -4 -39.5 -13t-15.5 -29l-44 -223h248z" />
    <glyph glyph-name="I" unicode="I" horiz-adv-x="370" 
d="M175 580q4 18 -3.5 28t-36.5 13q-22 3 -22 16q0 7 5 20q37 -3 69 -5t55 -2q20 0 56 1.5t71 5.5q3 -11 3 -19t-4.5 -12t-18.5 -6q-28 -4 -39.5 -13t-15.5 -29l-96 -509q-4 -20 6 -27.5t37 -12.5q19 -4 19 -18q0 -8 -3 -18q-37 3 -73 5t-59 2q-20 0 -52.5 -2t-66.5 -5
q-3 10 -3 18t3.5 12t14.5 6q26 4 39 13.5t17 28.5z" />
    <glyph glyph-name="J" unicode="J" horiz-adv-x="358" 
d="M216 202q-13 -68 -29 -117.5t-43 -91.5t-70.5 -81.5t-111.5 -87.5q-7 5 -12.5 10.5t-5.5 13.5q0 10 11 21q30 30 50.5 57.5t34.5 55t23 57.5t16 66l90 473q4 19 -4 29.5t-39 13.5q-26 2 -26 18q0 6 5 19q37 -4 74.5 -6t61.5 -2q20 0 52.5 2t66.5 5q3 -9 3 -17
q0 -9 -6.5 -14.5t-23.5 -7.5q-21 -3 -31 -11.5t-14 -27.5z" />
    <glyph glyph-name="K" unicode="K" horiz-adv-x="654" 
d="M265 334l2 9l244 226q14 12 14 27q0 8 -6 16.5t-23 10.5q-12 2 -16.5 5t-4.5 10q0 8 4 19q33 -4 56 -5.5t49 -1.5q24 0 49 1.5t52 5.5q3 -11 3 -18q0 -16 -21 -20t-37 -11.5t-34 -24.5l-228 -211l175 -304q11 -16 23.5 -26t34.5 -15q19 -3 19 -15q0 -5 -7 -19
q-30 4 -60 5.5t-48 1.5q-31 0 -46.5 14t-33.5 40zM171 580q4 18 -3.5 28t-36.5 13q-22 3 -22 16q0 7 5 20q37 -3 69 -5t55 -2q20 0 56 1.5t71 5.5q3 -11 3 -19t-4.5 -12t-18.5 -6q-28 -4 -39.5 -13t-15.5 -29l-96 -509q-4 -20 6 -27.5t37 -12.5q19 -4 19 -18q0 -8 -3 -18
q-37 3 -73 5t-59 2q-20 0 -52.5 -2t-66.5 -5q-3 10 -3 18t3.5 12t14.5 6q26 4 39 13.5t17 28.5z" />
    <glyph glyph-name="L" unicode="L" horiz-adv-x="556" 
d="M122 0q-21 0 -54.5 -2t-66.5 -5q-2 5 -3 9.5t-1 9.5q0 6 4 10.5t15 6.5q25 4 39 13t18 29l98 510q4 18 -8 27t-38 13q-19 3 -19 16q0 4 1 9t3 11q38 -4 74.5 -5.5t61.5 -1.5q28 0 69 2t75 5q2 -7 3 -11.5t1 -9.5q0 -15 -23 -18q-40 -5 -60 -15.5t-25 -38.5l-95 -498
q-2 -12 1.5 -17.5t19.5 -5.5h100q42 0 77.5 22.5t73.5 76.5q5 8 9 12t12 4q9 0 17.5 -5.5t14.5 -11.5q-5 -11 -11 -23q-5 -11 -11.5 -24.5t-12.5 -30.5q-8 -20 -11.5 -35.5t-7.5 -23.5q-3 -7 -6.5 -8.5t-8.5 -1.5q-11 0 -19.5 1t-18.5 2t-22.5 2t-30.5 1h-234v0z" />
    <glyph glyph-name="M" unicode="M" horiz-adv-x="874" 
d="M731 650q29 0 55.5 1.5t60.5 5.5q3 -11 3 -18q0 -16 -21 -20q-20 -5 -31 -11.5t-13 -23.5l-76 -514q-3 -19 8 -27.5t31 -12.5q11 -2 17 -6t6 -13q0 -7 -3 -17q-37 3 -72 4.5t-59 1.5q-21 0 -53 -2t-66 -5q-2 6 -3 10.5t-1 8.5q0 15 22 18q27 3 39.5 12.5t15.5 28.5
l63 410l-255 -471q-6 -11 -12.5 -16.5t-17.5 -5.5q-10 0 -16.5 2t-11.5 5l-118 509l-100 -428q-5 -20 7 -30.5t47 -15.5q15 -2 20.5 -6.5t5.5 -12.5q0 -6 -3 -18q-37 3 -62.5 5t-44.5 2q-17 0 -41.5 -1.5t-56.5 -5.5q-2 5 -3 9.5t-1 8.5q0 7 4.5 11t16.5 6q47 8 56 43
l122 515q3 11 -2.5 20t-30.5 14q-12 2 -16.5 6t-4.5 12q0 7 3 19q18 -2 34 -3.5t31.5 -2t32.5 -1t38 -0.5t29.5 -7.5t10.5 -19.5l103 -472l247 465q5 10 10 16.5t12 10.5t17 5.5t27 1.5z" />
    <glyph glyph-name="N" unicode="N" horiz-adv-x="710" 
d="M533 -3q-8 -4 -15 -6.5t-16 -2.5q-13 0 -18.5 4.5t-13.5 18.5l-262 493l-80 -428q-3 -17 8 -29.5t46 -17.5q15 -2 20.5 -6t5.5 -12q0 -6 -3 -18q-37 3 -62.5 5t-44.5 2q-17 0 -41.5 -1.5t-56.5 -5.5q-2 5 -3 9.5t-1 8.5q0 7 4.5 11t16.5 6q23 4 38 15t18 28l98 510
q2 13 -3.5 24t-30.5 16q-20 4 -20 16q0 4 1 8.5t3 11.5q26 -4 54 -5.5t56 -1.5q18 0 26.5 -4.5t14.5 -15.5l239 -469l78 413q3 17 -8 29.5t-46 17.5q-15 2 -20.5 6t-5.5 12q0 6 3 18q37 -3 62.5 -5t44.5 -2q17 0 41.5 1.5t56.5 5.5q2 -5 3 -9.5t1 -8.5q0 -7 -4.5 -11
t-16.5 -6q-23 -4 -38 -15t-18 -28z" />
    <glyph glyph-name="O" unicode="O" horiz-adv-x="668" 
d="M383 662q64 0 113 -20.5t82 -56t50 -84t17 -104.5q0 -91 -29 -166t-79.5 -129t-119.5 -84t-149 -30q-62 0 -109 22t-79 59t-48 86t-16 102q0 80 27.5 153.5t76.5 129.5t116 89t147 33zM293 33q58 0 100 31t69.5 81t40.5 112.5t13 126.5q0 110 -36 171.5t-104 61.5
q-60 0 -103.5 -30.5t-72 -80.5t-42 -115t-13.5 -135q0 -105 35.5 -164t112.5 -59z" />
    <glyph glyph-name="P" unicode="P" horiz-adv-x="552" 
d="M193 76q-4 -20 9.5 -29.5t48.5 -14.5q23 -4 23 -18q0 -4 -1 -9t-3 -12q-37 3 -75 5t-69 2q-21 0 -58.5 -2t-70.5 -5q-3 9 -3 17q0 9 5 14t19 7q25 4 38 12.5t17 27.5l98 510q4 18 -4.5 26.5t-40.5 11.5q-21 3 -21 17q0 8 5 21q38 -3 72.5 -5t59.5 -2h88q105 0 163 -43
t58 -114q0 -48 -19 -88.5t-54 -70t-85 -46t-113 -16.5h-23q3 17 10 30t27 14q64 2 96.5 45t32.5 122q0 25 -7 47.5t-21.5 40t-35.5 27.5t-49 10h-17z" />
    <glyph glyph-name="Q" unicode="Q" horiz-adv-x="667" 
d="M383 662q64 0 113 -20.5t82 -56t50 -84t17 -104.5q0 -76 -21.5 -142t-59.5 -118t-91 -87.5t-117 -50.5v-3q40 -11 65 -32.5t42 -41.5q15 -17 30.5 -32t34.5 -26t44 -17.5t59 -5.5q2 -3 2.5 -7t-4.5 -8q-11 -10 -38 -18.5t-55 -8.5q-37 0 -65 7.5t-50 21t-40 30.5t-34 37
q-31 38 -59.5 61.5t-74.5 36.5q-48 13 -84.5 38.5t-61.5 60t-38 76.5t-13 89q0 80 27.5 153.5t76.5 129.5t116 89t147 33zM293 33q58 0 100 31t69.5 81.5t40.5 113t13 125.5q0 109 -36 171t-104 62q-60 0 -103.5 -30.5t-72 -81t-42 -115.5t-13.5 -134q0 -105 35.5 -164
t112.5 -59z" />
    <glyph glyph-name="R" unicode="R" horiz-adv-x="608" 
d="M191 72q-3 -17 7 -26.5t38 -14.5q15 -3 20.5 -7.5t5.5 -12.5q0 -4 -1 -8.5t-2 -9.5q-38 3 -71.5 5t-61.5 2q-23 0 -61 -2t-71 -5q-3 9 -3 16q0 16 20 20q29 6 43.5 15t18.5 27l98 510q4 18 -4.5 26t-32.5 12q-26 4 -26 18q0 7 5 20q38 -4 73.5 -5.5t60.5 -1.5h80
q99 0 156 -41t57 -110q0 -30 -8.5 -58.5t-28.5 -53t-52 -44.5t-78 -32l138 -248q9 -17 23 -24t33 -12q14 -3 14 -14q0 -8 -6 -20q-12 1 -27 2.5t-30 2.5t-28.5 1.5t-22.5 0.5q-26 0 -43.5 12t-32.5 41l-139 255l7 24q154 6 154 164q0 22 -5.5 42.5t-18.5 36t-33 24.5t-49 9
h-14z" />
    <glyph glyph-name="S" unicode="S" horiz-adv-x="533" 
d="M106 477q0 42 18 76t47.5 58t67.5 37.5t79 13.5q56 0 100.5 -14t79.5 -31q-3 -24 -5 -45t-2 -41v-15.5t1 -15.5q-9 -7 -24 -7q-10 0 -17.5 4.5t-9.5 16.5q-9 53 -42.5 79.5t-83.5 26.5q-20 0 -39 -5.5t-34 -17t-24 -29t-9 -41.5q0 -21 9.5 -39t25 -34.5t35.5 -32.5
t41 -32q24 -19 48 -39t43 -44t31 -52t12 -63q0 -51 -21 -89t-55.5 -63.5t-79.5 -38t-93 -12.5q-30 0 -58.5 4t-52.5 10t-41.5 12.5t-26.5 12.5q3 29 5.5 61.5t2.5 62.5q0 12 -0.5 23t-1.5 21q6 2 13 4t16 2q14 0 18 -6.5t7 -19.5q11 -68 39.5 -104.5t87.5 -36.5q25 0 48 7.5
t41 22.5t29 37t11 51q0 25 -9.5 46t-25.5 39t-36.5 33.5t-41.5 31.5q-23 17 -45 34.5t-39.5 38.5t-28 46t-10.5 56z" />
    <glyph glyph-name="T" unicode="T" horiz-adv-x="652" 
d="M320 608h-71q-22 0 -38.5 -5.5t-30 -16.5t-26.5 -27.5t-29 -39.5q-6 -8 -13 -11t-15 -3t-14.5 3.5t-8.5 5.5q8 17 13.5 33.5l12.5 37.5q6 20 9 33t7 24q5 15 18 15t36.5 -3.5t71.5 -3.5h291q25 0 41.5 1t28 2t19.5 2t15 1q13 0 14 -12q2 -15 2 -27t3 -34q2 -17 5 -33.5
t8 -33.5q-5 -3 -11.5 -6.5t-16.5 -3.5q-16 0 -21 14q-16 47 -42 67.5t-70 20.5h-70l-100 -532q-4 -18 9 -28t46 -16q14 -2 19 -6.5t5 -12.5q0 -4 -1 -9t-3 -11q-37 3 -72 5t-71 2q-31 0 -69 -2t-71 -5q-2 5 -3 10t-1 10q0 16 17 19q35 5 54 15.5t23 30.5z" />
    <glyph glyph-name="U" unicode="U" 
d="M597 222q-12 -53 -32 -96t-52.5 -73.5t-79 -47.5t-110.5 -17q-109 0 -170 47.5t-61 136.5q0 13 1 26t4 27l68 352q4 18 -4.5 28.5t-37.5 13.5q-22 3 -22 18q0 7 5 20q38 -4 69.5 -5.5t55.5 -1.5q10 0 25.5 0.5t33 1t35.5 2t35 3.5q1 -5 1.5 -9t0.5 -8q0 -10 -5.5 -15
t-22.5 -7q-29 -4 -37.5 -12.5t-12.5 -26.5l-69 -347q-8 -40 -8 -69q0 -60 33 -91.5t112 -31.5q72 0 122.5 43t69.5 142l66 346q3 17 -6 31.5t-35 18.5q-15 2 -20.5 6t-5.5 12q0 6 3 18q37 -3 56 -5t38 -2q17 0 38.5 0.5t53.5 4.5q2 -5 3 -9.5t1 -8.5q0 -7 -4.5 -11t-16.5 -6
q-44 -7 -50 -41l-68 -357v0z" />
    <glyph glyph-name="V" unicode="V" horiz-adv-x="608" 
d="M533 573q13 23 0.5 34t-32.5 13t-20 18q0 8 4 19q33 -4 55.5 -5.5t42.5 -1.5q18 0 44 1.5t58 5.5q3 -12 3 -19q0 -8 -4.5 -12t-16.5 -6q-26 -4 -42 -11t-28 -27l-337 -590q-5 -2 -9.5 -3t-12.5 -1q-19 0 -22 18l-109 577q-3 17 -10.5 24t-32.5 12q-23 4 -23 19q0 7 3 19
q35 -4 69.5 -5.5t58.5 -1.5q21 0 55 1.5t68 5.5q2 -6 3 -11t1 -9q0 -16 -16 -17q-36 -5 -47 -14t-7 -33l70 -419z" />
    <glyph glyph-name="W" unicode="W" horiz-adv-x="960" 
d="M108 579q-4 19 -15.5 25t-37.5 11q-11 2 -14.5 7.5t-3.5 13.5q0 10 3 21q35 -5 70.5 -6t59.5 -1q21 0 59 2t72 5q3 -12 3 -19q0 -18 -18 -19q-34 -5 -43 -14t-5 -34l64 -387l239 474q5 2 13 3t13 1q14 0 18 -4.5t6 -12.5l76 -474l208 403q11 20 4 31.5t-39 14.5
q-19 1 -19 16q0 6 5 21q30 -4 58 -5.5t48 -1.5q18 0 34.5 1t50.5 4q3 -11 3 -18q0 -9 -6.5 -12.5t-20.5 -5.5q-26 -5 -36.5 -13.5t-18.5 -22.5l-313 -591q-5 -2 -10.5 -3t-11.5 -1q-14 0 -19 6t-7 19l-73 455l-244 -476q-5 -2 -10.5 -3t-11.5 -1q-13 0 -18 6t-8 20z" />
    <glyph glyph-name="X" unicode="X" horiz-adv-x="626" 
d="M114 86q-7 -8 -11 -14.5t-4 -14.5q0 -9 8.5 -15t31.5 -9q16 -2 23.5 -7t7.5 -16q0 -7 -3 -17q-36 3 -73 5t-57 2q-17 0 -43.5 -1.5t-57.5 -6.5q-3 10 -3 18t5 13.5t19 7.5q18 3 35 10.5t34 26.5l231 259l-123 250q-11 23 -21.5 29.5t-28.5 9.5q-25 4 -25 18q0 7 7 23
q14 -2 31.5 -3.5t35.5 -2t35 -1t30 -0.5q26 0 36.5 -11.5t18.5 -29.5l96 -211l150 168q11 13 11 24q0 25 -46 28q-24 1 -24 17q0 8 6 22q38 -3 70.5 -5t52.5 -2q16 0 41 2t59 6q1 -5 1.5 -9.5t0.5 -8.5q0 -9 -4.5 -14.5t-16.5 -7.5q-27 -5 -42.5 -14t-26.5 -22l-209 -229
l133 -274q12 -25 25.5 -36t38.5 -16q16 -3 16 -14q0 -7 -6 -20q-12 1 -28 2.5t-32 2.5t-30.5 1.5t-23.5 0.5q-24 0 -41.5 8t-31.5 37l-112 233z" />
    <glyph glyph-name="Y" unicode="Y" horiz-adv-x="558" 
d="M213 287l-110 297q-5 13 -14 21t-30 10q-12 1 -17 7t-5 15q0 8 3 19q36 -4 69 -5.5t58 -1.5q21 0 56.5 2t68.5 5q4 -11 4 -19q0 -17 -19 -18q-35 -5 -41 -16t2 -32l76 -229l170 231q12 17 2.5 31t-36.5 16q-21 1 -21 18q0 4 1 8.5t3 10.5q24 -4 52.5 -5.5t48.5 -1.5
q17 0 43 1.5t58 5.5q2 -6 3 -10t1 -8q0 -10 -7.5 -14.5t-22.5 -7.5q-19 -4 -31.5 -12t-23.5 -22l-214 -285l-44 -226q-4 -20 7.5 -29t35.5 -12q11 -2 16.5 -5.5t5.5 -12.5t-4 -20q-38 3 -74 5t-61 2q-10 0 -26 -0.5t-34 -1.5t-37 -2.5t-35 -2.5q-2 5 -3 9t-1 9q0 7 4.5 12
t16.5 7q56 9 64 44z" />
    <glyph glyph-name="Z" unicode="Z" horiz-adv-x="615" 
d="M-24 0q-2 5 -1 10.5t7 12.5l498 585h-217q-27 0 -47.5 -4t-38 -15t-32 -30t-29.5 -49q-5 -11 -11.5 -14.5t-18.5 -3.5q-8 0 -16.5 3t-11.5 6q15 38 26.5 73t16.5 58q3 13 8.5 18t19.5 5t24.5 -1t21.5 -1.5t25 -1.5t35 -1h401q2 -6 2 -12.5t-7 -14.5l-492 -580h216
q27 0 48 7.5t38.5 22.5t34 38t35.5 54q5 8 9 12t12 4q9 0 18 -4t15 -10q-17 -35 -28.5 -73.5t-21.5 -81.5q-2 -11 -7.5 -14.5t-10.5 -3.5q-21 0 -45 3t-59 3h-417z" />
    <glyph glyph-name="bracketleft" unicode="[" horiz-adv-x="308" 
d="M-7 -181l170 873h182q5 -22 -2 -30t-27 -10q-31 -2 -42 -10t-15 -26l-140 -720q-4 -20 4.5 -27.5t41.5 -10.5q23 -2 28 -10.5t0 -28.5h-200z" />
    <glyph glyph-name="backslash" unicode="\" horiz-adv-x="392" 
d="M65 686q3 1 13.5 2.5t21.5 1.5q40 0 48 -29l184 -691q-28 -5 -45 -5q-21 0 -27 8.5t-10 23.5z" />
    <glyph glyph-name="bracketright" unicode="]" horiz-adv-x="295" 
d="M285 692l-170 -873h-182q-5 22 2 30t27 10q31 2 42 10t15 26l140 720q4 20 -4.5 27.5t-41.5 10.5q-23 2 -28 10.5t0 28.5h200z" />
    <glyph glyph-name="asciicircum" unicode="^" horiz-adv-x="492" 
d="M74 100q-48 16 -63.5 26t-4.5 30l184 341q4 7 10 12t21 5q11 0 21 -2.5t19 -6.5l181 -347q8 -16 -5.5 -29t-64.5 -27l-149 290z" />
    <glyph glyph-name="underscore" unicode="_" horiz-adv-x="369" 
d="M-68 -121q4 31 11.5 39.5t22.5 8.5h335q-4 -31 -11.5 -39.5t-21.5 -8.5h-336v0z" />
    <glyph glyph-name="grave" unicode="`" horiz-adv-x="500" 
d="M313 528q9 -19 2 -26.5t-26 -12.5q-20 24 -33.5 40t-25.5 28t-24 22.5t-27 23.5q-11 10 -15.5 17.5t-4.5 15.5q0 11 9.5 18.5t23.5 11.5t28.5 5.5t25.5 1.5z" />
    <glyph glyph-name="a" unicode="a" horiz-adv-x="478" 
d="M276 156l-4 1q-47 -90 -98 -129.5t-90 -39.5q-18 0 -34.5 4.5t-29.5 16t-21 30.5t-8 48q0 85 28.5 151t71.5 111.5t93 69t93 23.5q32 0 65 -4t77 -13l-67 -338q-1 -5 -1.5 -8.5t-0.5 -5.5q0 -9 9 -9q6 0 14.5 3.5t16.5 8t15 8t11 3.5q8 0 12.5 -8.5t5.5 -16.5
q-16 -11 -37.5 -24t-44 -24t-44 -18.5t-37.5 -7.5q-17 0 -26 7t-9 24q0 11 5 28zM301 393q-8 2 -17.5 4t-17.5 2q-35 0 -64 -22t-50 -60t-32.5 -90t-11.5 -113q0 -27 4.5 -42t20.5 -15t35 16.5t38 44t36.5 62.5t31 72.5t21 74t6.5 66.5z" />
    <glyph glyph-name="b" unicode="b" horiz-adv-x="483" 
d="M146 -12q-42 0 -78.5 11t-57.5 22l96 499q5 21 7.5 46t2.5 42q0 11 -9 11q-10 0 -24.5 -2.5t-25.5 -2.5q-9 0 -12.5 8t-3.5 20q47 14 92.5 27.5t90.5 30.5q19 -8 19 -27q0 -4 -1 -9.5t-2 -9.5l-75 -356l4 -2q27 43 51.5 71.5t47.5 45t45 23t45 6.5q17 0 33 -6t29 -19.5
t20.5 -34t7.5 -49.5q0 -85 -29 -149.5t-74 -108t-98 -65.5t-101 -22zM123 43q6 -4 16.5 -6.5t20.5 -2.5q38 0 70 22t55 60.5t36 89.5t13 108q0 32 -9.5 45.5t-21.5 13.5q-19 0 -39.5 -17.5t-40.5 -46t-38 -64t-32 -72.5t-22 -71t-8 -59z" />
    <glyph glyph-name="c" unicode="c" horiz-adv-x="387" 
d="M238 404q-36 0 -60 -28t-38 -68t-19.5 -82.5t-5.5 -72.5q0 -47 18 -77t60 -30q18 0 34 4.5t28.5 11t22 13t15.5 10.5l6 4t8 2q10 0 14 -8.5t5 -16.5q-14 -12 -32.5 -26t-41 -25.5t-49 -19t-55.5 -7.5q-42 0 -70 13t-45.5 34.5t-25 49.5t-7.5 58q0 48 15.5 101t46 97
t76.5 72.5t106 28.5q33 0 65 -8.5t58 -22.5q-2 -6 -4.5 -18t-4.5 -26t-4 -28.5t-3 -26.5l-16 1q-11 1 -16 3.5t-8 12.5q-13 42 -28.5 58.5t-44.5 16.5z" />
    <glyph glyph-name="d" unicode="d" horiz-adv-x="480" 
d="M352 82q-1 -4 -1 -9q0 -9 9 -9q6 0 14.5 3.5t16.5 8t15 8t11 3.5q8 0 12.5 -8.5t5.5 -16.5q-16 -11 -37.5 -24t-44 -24t-44 -18.5t-37.5 -7.5q-17 0 -26 7t-9 24q0 11 5 28l35 109l-4 1q-42 -81 -90.5 -125t-96.5 -44q-16 0 -32.5 4.5t-30 16.5t-22.5 33t-9 54
q0 84 27.5 148.5t69 108.5t90.5 66.5t92 22.5q12 0 21 -0.5t22 -2.5l16 82q4 21 7 45.5t3 41.5q0 11 -9 11q-10 0 -24.5 -2.5t-25.5 -2.5q-9 0 -12.5 8t-3.5 20q47 14 91.5 27.5t89.5 30.5q19 -8 19 -27q0 -4 -1 -9.5t-2 -9.5zM302 393q-9 2 -19.5 4t-22.5 2
q-35 0 -63 -22.5t-48.5 -60.5t-31.5 -87t-11 -102q0 -41 7.5 -55.5t21.5 -14.5q15 0 33 16t36.5 43t35.5 61.5t30.5 72t22 74.5t9.5 69z" />
    <glyph glyph-name="e" unicode="e" horiz-adv-x="396" 
d="M366 348q0 -36 -18 -62.5t-51 -44t-79 -27.5t-102 -13q-1 -10 -1.5 -19t-0.5 -19q0 -22 3.5 -43t12.5 -37t24.5 -26t39.5 -10q18 0 43.5 7.5t54.5 26.5q9 6 14.5 10t12.5 4q10 0 13.5 -10.5t3.5 -14.5q-13 -12 -32.5 -26.5t-44 -26.5t-53 -20.5t-58.5 -8.5q-46 0 -75 15
t-45 39t-22 53t-6 57q0 54 17.5 106t50 93t77.5 66t100 25q51 0 86 -21.5t35 -72.5zM226 402q-19 0 -36 -13.5t-31 -36.5t-24 -52.5t-15 -62.5q40 4 67 15t43 26.5t23 35t7 40.5q0 23 -9.5 35.5t-24.5 12.5z" />
    <glyph glyph-name="f" unicode="f" horiz-adv-x="326" 
d="M86 387h-76q2 16 8 29.5t20 13.5h55l15 85q7 42 29.5 78.5t53 62.5t65.5 41t68 15q14 0 30.5 -4.5t30.5 -12.5q-7 -14 -13 -34t-10 -43l-20 -6q-9 14 -25 28.5t-33 14.5q-11 0 -21 -8t-19 -29t-17.5 -57.5t-18.5 -94.5l-6 -36h108q-5 -12 -8.5 -28t-5.5 -29
q-23 5 -52 7.5t-49 3.5l-48 -280q-24 -137 -74 -219.5t-117 -121.5q-11 -6 -24.5 -10.5t-30.5 -4.5q-11 0 -26.5 3t-27.5 8q5 17 11.5 43t8.5 48l22 7q12 -17 24.5 -30.5t30.5 -13.5q25 0 44 59.5t39 164.5z" />
    <glyph glyph-name="g" unicode="g" horiz-adv-x="461" 
d="M303 393q-8 3 -19.5 4.5t-21.5 1.5q-38 0 -66.5 -22.5t-47.5 -60.5t-28.5 -88t-9.5 -105q0 -32 6 -49t23 -17q14 0 32.5 17.5t37 46.5t36 65t31 73.5t21 72.5t6.5 61zM8 -130q16 -33 44.5 -55.5t60.5 -22.5q38 0 63 35.5t39 98.5l49 215l-3 2q-13 -31 -32 -59t-42 -49.5
t-48 -34t-50 -12.5q-18 0 -35.5 4.5t-31 16t-21.5 31.5t-8 51q0 81 26 146t66.5 110.5t90 70t97.5 24.5q21 0 38 -1t33.5 -3t35 -5t41.5 -8l-90 -464q-11 -56 -38 -96.5t-61.5 -66.5t-72 -38t-70.5 -12q-82 0 -131 23q7 18 14.5 42t10.5 51z" />
    <glyph glyph-name="h" unicode="h" horiz-adv-x="517" 
d="M325 296q4 17 6 29t2 21q0 20 -16 20q-11 0 -28.5 -15.5t-38.5 -40.5t-42.5 -56.5t-39.5 -64.5q-18 -32 -30.5 -76.5t-12.5 -79.5q0 -16 3 -29q-24 -3 -48.5 -7t-52.5 -12q-17 7 -17 18q0 5 1 10.5t2 8.5l99 498q5 21 7.5 46t2.5 42q0 11 -9 11q-10 0 -24.5 -2.5
t-25.5 -2.5q-9 0 -12.5 8t-3.5 20q47 14 92.5 27.5t90.5 30.5q19 -8 19 -27q0 -4 -1 -9.5t-2 -9.5l-87 -402l3 -1q22 36 46.5 70.5t51.5 61.5t56.5 43t61.5 16q27 0 47 -12.5t20 -45.5q0 -12 -1.5 -28.5t-5.5 -35.5l-48 -229q-3 -12 -3 -18q0 -9 9 -9q6 0 14.5 3.5t16.5 8
t15 8t11 3.5q8 0 12.5 -8.5t5.5 -16.5q-16 -11 -37.5 -24t-44 -24t-44 -18.5t-37.5 -7.5q-17 0 -28.5 7t-11.5 24q0 6 1 11.5t2 9.5z" />
    <glyph glyph-name="i" unicode="i" horiz-adv-x="263" 
d="M161 525q-27 0 -43 13.5t-16 36.5q0 31 24 53t57 22q29 0 42 -17.5t13 -35.5q0 -32 -22.5 -52t-54.5 -20zM137 91q-3 -12 -3 -18q0 -9 9 -9q6 0 14.5 3.5t16.5 8t15 8t11 3.5q8 0 12.5 -8.5t5.5 -16.5q-16 -11 -37.5 -24t-44 -24t-44 -18.5t-37.5 -7.5q-17 0 -28.5 7
t-11.5 24q0 6 1 11.5t2 9.5l64 305q3 15 -5 15q-3 0 -9 -2.5t-13.5 -5.5t-15 -5.5t-12.5 -2.5q-9 0 -13.5 9t-6.5 17q19 10 45.5 23t52 23.5t46.5 18t30 7.5q8 0 15 -4t7 -14q0 -3 -0.5 -8t-1.5 -10z" />
    <glyph glyph-name="j" unicode="j" horiz-adv-x="255" 
d="M-75 -215q19 17 31 33t19.5 33t12 35.5t9.5 41.5l84 409q1 3 2 9t1 8q0 6 -6 6q-3 0 -9 -2.5t-13.5 -5.5t-15 -5.5t-12.5 -2.5q-9 0 -13.5 9t-6.5 17q19 10 45.5 23t52 23.5t46.5 18t30 7.5q8 0 15 -4t7 -14q0 -3 -0.5 -8t-1.5 -10l-91 -452q-14 -71 -60.5 -120
t-110.5 -87q-10 3 -16.5 9t-6.5 14t8 15zM162 524q-27 0 -43 13.5t-16 36.5q0 31 24 53t57 22q29 0 42 -17.5t13 -35.5q0 -32 -22.5 -52t-54.5 -20z" />
    <glyph glyph-name="k" unicode="k" horiz-adv-x="458" 
d="M110 520q5 21 7.5 46t2.5 42q0 11 -9 11q-10 0 -24.5 -2.5t-25.5 -2.5q-9 0 -12.5 8t-3.5 20q47 14 91.5 27.5t89.5 30.5q19 -8 19 -27q0 -4 -1 -9.5t-2 -9.5l-83 -394l5 -1q40 54 73.5 89.5t62 56.5t52 29t43.5 8q14 0 24 -2t19 -4q-5 -13 -9.5 -35t-7.5 -45l-17 -6
q-7 10 -16.5 18t-25.5 8q-7 0 -19.5 -4.5t-29.5 -15.5t-38 -29.5t-44 -47.5q29 -63 53.5 -119t40.5 -84q11 -18 17 -21.5t13 -3.5q15 0 30.5 10.5t26.5 10.5q8 0 11.5 -6.5t5.5 -17.5q-17 -12 -35.5 -23t-37 -19.5t-35 -13t-28.5 -4.5q-15 0 -28 5.5t-23 24.5
q-7 13 -16.5 33.5t-21 44t-23 48.5t-21.5 46q-9 -17 -16 -38t-11.5 -42.5t-6.5 -41.5t-2 -35q0 -16 3 -29q-24 -3 -48.5 -7t-52.5 -12q-17 7 -17 18q0 5 1 10.5t2 8.5z" />
    <glyph glyph-name="l" unicode="l" horiz-adv-x="260" 
d="M135 91q-3 -12 -3 -18q0 -9 9 -9q6 0 14.5 3.5t16.5 8t15 8t11 3.5q8 0 12.5 -8.5t5.5 -16.5q-16 -11 -37.5 -24t-44 -24t-44 -18.5t-37.5 -7.5q-17 0 -28.5 7t-11.5 24q0 6 1 11.5t2 9.5l97 480q5 21 7.5 46t2.5 42q0 11 -9 11q-10 0 -24.5 -2.5t-25.5 -2.5
q-9 0 -12.5 8t-3.5 20q47 14 91.5 27.5t89.5 30.5q19 -8 19 -27q0 -4 -1 -9.5t-2 -9.5z" />
    <glyph glyph-name="m" unicode="m" horiz-adv-x="753" 
d="M414 189q-4 -7 -11.5 -23.5t-14.5 -38t-12 -46t-5 -48.5q0 -16 3 -29q-24 -3 -48.5 -7t-52.5 -12q-17 7 -17 18q0 5 1 10.5t2 8.5l56 274q4 17 6 29t2 21q0 20 -16 20q-11 0 -27 -15.5t-35 -40.5t-39 -56.5t-38 -64.5q-18 -32 -30.5 -76.5t-12.5 -79.5q0 -16 3 -29
q-24 -3 -48.5 -7t-52.5 -12q-17 7 -17 18q0 5 1 10.5t2 8.5l64 323q2 6 1 10.5t-5 4.5q-3 0 -9 -2.5t-13.5 -5.5t-15 -5.5t-12.5 -2.5q-9 0 -13.5 9t-6.5 17q19 12 45 24.5t51.5 23t46.5 17.5t31 7q8 0 15 -4t7 -14v-8t-2 -10l-38 -154l3 -1q22 36 45 70.5t48 61.5t53 43
t60 16q27 0 47.5 -13t20.5 -49q0 -30 -11 -69l-12 -46l3 -1q21 34 43.5 66.5t46.5 57t50.5 39.5t57.5 15q27 0 47 -12.5t20 -45.5q0 -12 -1.5 -28.5t-5.5 -35.5l-48 -229q-3 -12 -3 -18q0 -9 9 -9q6 0 14.5 3.5t16.5 8t15 8t11 3.5q8 0 12.5 -8.5t5.5 -16.5
q-16 -11 -37.5 -24t-44 -24t-44 -18.5t-37.5 -7.5q-17 0 -28.5 7t-11.5 24q0 6 1 11.5t2 9.5l54 256q4 17 6 29t2 21q0 20 -16 20q-11 0 -27 -15.5t-35 -40.5t-39 -56.5t-38 -64.5z" />
    <glyph glyph-name="n" unicode="n" horiz-adv-x="517" 
d="M325 296q4 17 6 29t2 21q0 20 -16 20q-11 0 -28.5 -15.5t-38.5 -40.5t-42.5 -56.5t-39.5 -64.5q-18 -32 -30.5 -76.5t-12.5 -79.5q0 -16 3 -29q-24 -3 -48.5 -7t-52.5 -12q-17 7 -17 18q0 5 1 10.5t2 8.5l64 323q2 6 1 10.5t-5 4.5q-3 0 -9 -2.5t-13.5 -5.5t-15 -5.5
t-12.5 -2.5q-9 0 -13.5 9t-6.5 17q19 12 45 24.5t51.5 23t46.5 17.5t31 7q8 0 15 -4t7 -14v-8t-2 -10l-38 -154l3 -1q22 36 46.5 70.5t51.5 61.5t56.5 43t61.5 16q27 0 47 -12.5t20 -45.5q0 -12 -1.5 -28.5t-5.5 -35.5l-48 -229q-3 -12 -3 -18q0 -9 9 -9q6 0 14.5 3.5
t16.5 8t15 8t11 3.5q8 0 12.5 -8.5t5.5 -16.5q-16 -11 -37.5 -24t-44 -24t-44 -18.5t-37.5 -7.5q-17 0 -28.5 7t-11.5 24q0 6 1 11.5t2 9.5z" />
    <glyph glyph-name="o" unicode="o" horiz-adv-x="439" 
d="M245 442q39 0 67 -13t47 -36t28 -53.5t9 -66.5q0 -72 -23 -125.5t-60 -89t-83 -53t-91 -17.5q-38 0 -65 12t-43.5 33.5t-24 52t-7.5 66.5q0 67 23.5 121t59.5 91.5t79.5 57.5t83.5 20zM167 32q25 0 46 17.5t36 48.5t23.5 74t8.5 93q0 61 -10.5 97t-41.5 36
q-28 0 -49.5 -21.5t-36 -55.5t-22 -76t-7.5 -83q0 -63 12 -96.5t41 -33.5z" />
    <glyph glyph-name="p" unicode="p" horiz-adv-x="492" 
d="M77 346q2 5 1 9.5t-5 4.5q-3 0 -9 -2.5t-13.5 -5.5t-15 -5.5t-12.5 -2.5q-9 0 -13.5 9t-6.5 17q19 12 45 24.5t51.5 23t46.5 17.5t31 7q8 0 15 -4t7 -14v-8t-2 -10l-33 -127l3 -1q25 46 49 77.5t47.5 50.5t47 27.5t48.5 8.5q28 0 46.5 -10.5t30 -27t16 -38t4.5 -43.5
q0 -79 -29 -141t-73 -105t-95.5 -66t-97.5 -23h-21t-22 2l-14 -72q-5 -23 -8 -41t-3 -29q0 -12 3.5 -16t11.5 -4t23.5 2t26.5 2q10 0 11.5 -9t1.5 -17q-52 -14 -94.5 -28t-83.5 -31q-12 6 -19 11.5t-7 15.5q0 5 2 15zM128 43q5 -4 17 -7t22 -3q36 0 67.5 20.5t54.5 56
t36 83.5t13 104q0 42 -9.5 58.5t-23.5 16.5q-17 0 -36.5 -16.5t-38.5 -43.5t-37.5 -62t-32.5 -71.5t-22.5 -72t-9.5 -63.5z" />
    <glyph glyph-name="q" unicode="q" horiz-adv-x="454" 
d="M301 393q-9 2 -20 4t-23 2q-36 0 -63.5 -23t-47 -61t-29.5 -87.5t-10 -102.5q0 -41 6.5 -54.5t21.5 -13.5t34 17t37.5 45t36 64t31 73t20.5 73t6 64zM308 -139q-2 -8 -3.5 -25.5t-1.5 -26.5q0 -11 0.5 -23t2.5 -20q-23 -3 -51 -8.5t-54 -11.5q-17 7 -17 17q0 4 1 13t3 19
q6 32 15.5 76.5t21 92t22.5 93.5t19 82l-2 1q-15 -30 -36 -57.5t-45 -48.5t-50 -33.5t-52 -12.5q-16 0 -32 4.5t-29 16.5t-21 32t-8 52q0 82 27 147t69 110t92.5 68.5t97.5 23.5q34 0 71.5 -4t70.5 -13z" />
    <glyph glyph-name="r" unicode="r" horiz-adv-x="379" 
d="M295 347q-14 0 -30 -11.5t-33.5 -31t-35 -47t-32.5 -58.5q-8 -16 -15 -37.5t-12.5 -44.5t-8.5 -45t-3 -39q0 -16 3 -29q-24 -3 -48.5 -7t-52.5 -12q-17 7 -17 18q0 5 1 10.5t2 8.5l64 323q2 6 1 10.5t-5 4.5q-3 0 -9 -2.5t-13.5 -5.5t-15 -5.5t-12.5 -2.5q-9 0 -13.5 9
t-6.5 17q19 12 45 24.5t51.5 23t46.5 17.5t31 7q8 0 15 -4t7 -14v-8t-2 -10l-35 -133l4 -1q52 92 91.5 131t79.5 39q13 0 25 -4t17 -9q-17 -40 -26 -109h-20q-6 11 -15 19t-23 8z" />
    <glyph glyph-name="s" unicode="s" horiz-adv-x="358" 
d="M294 328q-13 0 -17 3.5t-7 13.5q-8 25 -23 44t-49 19q-24 0 -43.5 -14t-19.5 -43q0 -30 21 -50.5t48 -40.5q16 -12 33 -25.5t30 -29t21.5 -34t8.5 -41.5q0 -33 -15 -59.5t-39.5 -44.5t-56 -28t-65.5 -10q-36 0 -71 5.5t-67 19.5q7 27 10.5 54.5t4.5 62.5h14q18 0 24 -5.5
t7 -16.5q2 -38 25 -60t58 -22q31 0 52.5 17t21.5 51q0 15 -6.5 28t-17.5 24.5t-24.5 22t-28.5 21.5q-16 12 -31.5 24t-27.5 26.5t-19.5 31.5t-7.5 38q0 32 14.5 56.5t38 41.5t53.5 25.5t62 8.5q63 0 117 -26q-4 -13 -8 -38.5t-4 -50.5z" />
    <glyph glyph-name="t" unicode="t" horiz-adv-x="316" 
d="M98 445q8 37 8 59q0 16 -3 30q22 3 47.5 6t55.5 11q8 -4 12 -7t4 -10q0 -5 -2 -15l-17 -89h108q-3 -10 -7.5 -26.5t-6.5 -30.5q-28 5 -55.5 7.5t-46.5 3.5l-54 -298q-1 -5 -1.5 -8.5t-0.5 -6.5q0 -23 25 -23q14 0 26 3.5t23 8.5q8 4 15 6.5t12 2.5q9 0 11.5 -8t3.5 -16
q-33 -26 -76.5 -41.5t-79.5 -15.5q-42 0 -58 12.5t-16 37.5q0 5 0.5 10t1.5 10l60 329h-76q3 19 8 31t24 12h52z" />
    <glyph glyph-name="u" unicode="u" horiz-adv-x="520" 
d="M146 134q-4 -17 -6 -29t-2 -21q0 -20 16 -20q10 0 28 15.5t39 40.5t42.5 56.5t39.5 64.5q18 32 30.5 76.5t12.5 79.5q0 15 -3 29q24 3 48.5 7t52.5 12q17 -7 17 -18q0 -5 -1 -10.5t-2 -8.5l-64 -319q-3 -16 -0.5 -20.5t8.5 -4.5q12 0 27.5 9.5t24.5 9.5t11 -7.5t3 -15.5
q-19 -12 -42 -25t-45.5 -23.5t-42.5 -17t-32 -6.5q-31 0 -31 27q0 8 3 19l34 144l-3 1q-23 -36 -47 -70.5t-51 -61.5t-56.5 -43t-61.5 -16q-27 0 -47 12.5t-20 45.5q0 12 1.5 28.5t5.5 35.5l47 223q3 14 2.5 20.5t-8.5 6.5q-6 0 -14 -2.5t-16 -6t-15 -6t-11 -2.5
q-8 0 -12.5 8.5t-5.5 16.5q14 9 38 21.5t49.5 24.5t49 20t35.5 8q14 0 22.5 -7t8.5 -24q0 -6 -1 -11.5t-2 -9.5z" />
    <glyph glyph-name="v" unicode="v" horiz-adv-x="481" 
d="M163 118q-3 -23 -3 -35q0 -14 4 -19t15 -5q16 0 35.5 13.5t38.5 35.5t37 51t32 59t22 60t8 54q0 22 -6.5 43.5t-22.5 36.5l11 16q32 2 58.5 6.5t52.5 12.5q9 -27 9 -54q0 -28 -15 -69t-40 -86t-58.5 -90t-70.5 -80.5t-75.5 -57.5t-73.5 -22q-40 0 -58 15.5t-18 48.5
q0 13 1 26.5t3 30.5l28 226q2 13 1 19t-7 6t-14 -2.5t-16 -6t-15 -6t-11 -2.5q-8 0 -12.5 8.5t-5.5 16.5q14 9 38 21.5t49 24.5t48 20t35 8q14 0 21.5 -7t7.5 -24v-12.5t-2 -16.5z" />
    <glyph glyph-name="w" unicode="w" horiz-adv-x="729" 
d="M309 58q0 5 2 18t4 27.5t4.5 28t3.5 20.5q-51 -75 -104 -119.5t-98 -44.5q-40 0 -58 15.5t-18 48.5q0 13 1 26.5t3 30.5l28 226q2 13 1 19t-7 6t-14 -2.5t-16 -6t-15 -6t-11 -2.5q-8 0 -12.5 8.5t-5.5 16.5q14 9 38 21.5t49 24.5t48 20t35 8q14 0 21.5 -7t7.5 -24v-12.5
t-2 -16.5l-31 -264q-3 -21 -3 -33q0 -15 4.5 -21t14.5 -6q15 0 34 17t38.5 43.5t36 57.5t26.5 60q16 46 19 84t3 55q0 34 -6 42l9 10q19 2 43 7t58 14q8 -9 10.5 -18.5t2.5 -16.5q0 -5 -0.5 -12.5t-1.5 -15.5l-31 -257q-2 -16 -3.5 -28.5t-1.5 -20.5q0 -20 12 -20
q16 0 35.5 13.5t38.5 35.5t37 51t32 59t22 60t8 54q0 22 -6.5 43.5t-22.5 36.5l11 16q32 2 58.5 6.5t52.5 12.5q9 -27 9 -54q0 -28 -14.5 -68.5t-39 -85.5t-57 -90t-68.5 -80.5t-73 -58t-70 -22.5q-39 0 -55 18.5t-16 51.5z" />
    <glyph glyph-name="x" unicode="x" horiz-adv-x="484" 
d="M34 65q15 0 28.5 5.5t27 18t28.5 32.5t34 49l22 33l-59 148q-2 5 -5 11t-8 6q-11 0 -28 -8.5t-28 -8.5t-13 7t-4 15q14 11 30.5 23.5t33 22.5t32 16.5t28.5 6.5q25 0 36 -13t19 -33l44 -113q36 47 63 78t48.5 49t40 25t38.5 7q13 0 24.5 -3.5t17.5 -8.5q-7 -11 -13 -30.5
t-9 -46.5l-18 -7q-5 8 -15 15.5t-24 7.5q-15 0 -28 -6.5t-26.5 -19.5t-29.5 -33t-37 -47l-14 -19l66 -165q2 -5 5 -11t8 -6q11 0 28 8.5t28 8.5t13 -7t4 -15q-14 -11 -30.5 -23.5t-33 -22.5t-32 -16.5t-28.5 -6.5q-25 0 -36 13t-19 33l-50 128q-35 -52 -62.5 -85.5
t-50.5 -53t-43.5 -27.5t-39.5 -8q-13 0 -24.5 3.5t-17.5 8.5q7 11 13 32.5t9 48.5l18 7q5 -8 15 -15.5t24 -7.5z" />
    <glyph glyph-name="y" unicode="y" horiz-adv-x="513" 
d="M156 -208q39 0 64.5 34.5t39.5 99.5l54 252l-3 1q-23 -36 -47 -70.5t-51 -61.5t-56.5 -43t-61.5 -16q-27 0 -47 12.5t-20 45.5q0 12 1.5 28.5t5.5 35.5l47 223q3 12 3 18q0 9 -9 9q-6 0 -14 -2.5t-16 -6t-15 -6t-11 -2.5q-8 0 -12.5 8.5t-5.5 16.5q14 9 38 21.5
t49.5 24.5t49 20t35.5 8q14 0 22.5 -7t8.5 -24q0 -6 -1 -11.5t-2 -9.5l-54 -256q-4 -17 -6 -29t-2 -21q0 -20 16 -20q10 0 28 15.5t39 40.5t42.5 56.5t39.5 64.5q18 32 30.5 76.5t12.5 79.5q0 15 -3 29q24 3 48.5 7t52.5 12q17 -7 17 -18q0 -5 -1 -10.5t-2 -8.5l-89 -447
q-11 -54 -37 -94t-60 -66.5t-72.5 -39.5t-74.5 -13q-41 0 -70.5 6t-54.5 17q19 45 25 94l25 4q16 -33 44 -55t60 -22z" />
    <glyph glyph-name="z" unicode="z" horiz-adv-x="390" 
d="M83 81q17 8 33.5 12.5t33.5 4.5q26 0 50 -6.5t54 -6.5q17 0 27.5 8t21.5 31q5 10 10.5 15t18.5 3l18 -2q-10 -28 -18.5 -64t-12.5 -60l-10 -10q-17 -8 -32 -10.5t-32 -2.5q-24 0 -47 4.5t-45 9.5q-23 5 -46.5 9.5t-50.5 4.5q-12 0 -28 -4.5t-30 -15.5h-21q-6 8 -5 14
t7 13l266 311q-13 -5 -26.5 -8t-23.5 -3q-22 0 -38.5 3.5t-29 7.5t-23 7.5t-21.5 3.5q-9 0 -14.5 -5t-15.5 -23q-6 -11 -12 -17t-26 -4l-11 2q4 13 9 28.5t9.5 31.5t8 31t5.5 27l7 6q27 8 52 8q23 0 43.5 -4t39.5 -9q22 -6 43.5 -10.5t39.5 -4.5q31 0 48.5 5t37.5 18h16
q7 -9 6.5 -14t-6.5 -13z" />
    <glyph glyph-name="braceleft" unicode="{" horiz-adv-x="288" 
d="M121 257q34 -12 47 -32.5t13 -47.5q0 -37 -16 -95.5t-39 -136.5q-3 -11 -5 -21t-2 -18q0 -23 14 -36t47 -17q15 -2 16.5 -12.5t-2.5 -21.5q-36 -2 -68.5 1.5t-56.5 12.5t-38.5 25.5t-14.5 41.5q0 10 2.5 23t6.5 24q15 50 28 97.5t21 82.5q4 16 5 25.5t1 16.5q0 30 -17 49
t-59 23l5 35q29 1 48.5 8t32.5 19.5t20 30.5t12 42q8 42 9.5 86t1.5 89q0 43 15 70.5t41.5 44t63 22.5t80.5 5q-2 -23 -9 -29t-29 -9q-36 -5 -47 -27.5t-11 -61.5q0 -51 -1 -94t-7 -78q-5 -26 -12 -46t-19.5 -35.5t-30.5 -28t-45 -23.5z" />
    <glyph glyph-name="bar" unicode="|" horiz-adv-x="254" 
d="M184 700v-940h-94v940h94z" />
    <glyph glyph-name="braceright" unicode="}" horiz-adv-x="306" 
d="M157 254q-34 12 -47 32.5t-13 47.5q0 37 16 95.5t39 136.5q3 11 5 21t2 18q0 23 -14 36t-47 17q-15 2 -16.5 12.5t2.5 21.5q36 1 68.5 -2t56.5 -12t38.5 -25.5t14.5 -41.5q0 -10 -2.5 -23t-6.5 -24q-15 -50 -28 -97.5t-21 -82.5q-4 -16 -5 -25.5t-1 -16.5q0 -30 17 -49
t59 -23l-5 -35q-29 -1 -48.5 -8t-32.5 -19.5t-20.5 -30.5t-11.5 -42q-8 -42 -9.5 -86t-1.5 -89q0 -43 -15 -70.5t-41.5 -44t-63.5 -22.5t-80 -5q2 23 9 29t29 9q36 5 47 27.5t11 61.5q0 51 1 94t7 78q4 26 11.5 46t20 35.5t30.5 28t45 23.5z" />
    <glyph glyph-name="asciitilde" unicode="~" horiz-adv-x="570" 
d="M391 235q20 0 44 15t53 53q10 -6 19.5 -12t15.5 -13.5t6 -17t-8 -23.5q-25 -42 -60.5 -59t-62.5 -17q-32 0 -65.5 10t-78.5 33q-29 14 -48 20t-33 6q-18 0 -39 -11.5t-55 -48.5q-20 9 -28.5 19t-8.5 19q0 12 15 29.5t34 32.5q20 16 40.5 25.5t40.5 9.5q22 0 49 -8t66 -27
q38 -19 62 -27t42 -8z" />
    <glyph glyph-name="exclamdown" unicode="&#xa1;" horiz-adv-x="251" 
d="M110 -218q-16 -6 -36.5 -10t-34.5 -4q-37 0 -50 14.5t-5 36.5q31 86 66 200.5t58 243.5q17 3 26.5 1.5t14 -5t5 -9t0.5 -10.5zM214 380q0 -29 -20 -51t-50 -22q-32 0 -48.5 18.5t-16.5 44.5q0 30 21 51t49 21q35 0 50 -18t15 -44z" />
    <glyph glyph-name="cent" unicode="&#xa2;" horiz-adv-x="430" 
d="M175 3q-41 1 -68.5 15t-44 36.5t-23.5 51t-7 60.5q0 56 17 107t47.5 91t72.5 64.5t91 27.5l15 76q49 -10 43 -36l-8 -41q24 -3 48.5 -10t50.5 -19q-2 -6 -4.5 -18t-4.5 -26t-4 -28.5t-3 -26.5l-16 1q-11 1 -16 3.5t-8 12.5q-9 29 -21.5 45.5t-29.5 23.5l-67 -352
q17 1 33 6t29.5 11t24 12t15.5 10l6 4t8 2q10 0 14 -8.5t5 -16.5q-25 -20 -62.5 -42t-82.5 -32l-17 -91q-23 6 -34.5 13.5t-8.5 21.5zM147 175q0 -35 9 -63t32 -41l65 345q-49 -11 -77.5 -74.5t-28.5 -166.5z" />
    <glyph glyph-name="sterling" unicode="&#xa3;" horiz-adv-x="506" 
d="M22 312q2 26 12.5 37t37.5 11h39q1 58 18 111t47 92.5t72 63t93 23.5q34 0 61 -7.5t53 -21.5q30 -17 30 -33q0 -11 -17.5 -23.5t-38.5 -20.5q-8 -4 -17 -4q-11 0 -16.5 4.5t-11.5 12.5q-18 24 -36 37t-39 13q-16 0 -29.5 -9.5t-23 -31t-15 -57.5t-5.5 -89v-60h158
q-4 -27 -13 -37.5t-36 -10.5h-109q-3 -118 -139 -214q31 6 59 0.5t63 -25.5q20 -12 45.5 -24.5t45.5 -12.5q25 0 30.5 12t5.5 26t-5.5 27.5t-5.5 25.5q0 9 9 18.5t22 17t27 12.5t24 5q17 0 25.5 -13.5t8.5 -30.5q0 -26 -18.5 -54t-48.5 -52t-68 -39.5t-77 -15.5
q-43 0 -66.5 13.5t-43.5 30.5q-17 14 -31 25t-25 11q-14 0 -25.5 -13.5t-26.5 -42.5q-25 1 -35.5 8t-10.5 18q0 20 22.5 41t55.5 58q17 19 28 35.5t18 36t9.5 43.5t2.5 57v16h-89z" />
    <glyph glyph-name="currency" unicode="&#xa4;" horiz-adv-x="575" 
d="M105 334q0 31 10 59t27 51l-56 55q14 17 22 24.5t15 7.5q5 0 11 -6l45 -45q23 17 49.5 26t56.5 9q29 0 55.5 -9t49.5 -25l56 56q17 -13 24 -21.5t7 -14.5t-5 -11l-45 -45q18 -23 28.5 -51t10.5 -60q0 -31 -10 -58t-27 -50l56 -55q-13 -17 -21.5 -24.5t-15.5 -7.5
q-5 0 -10 5l-46 45q-23 -17 -50 -26t-57 -9q-32 0 -59.5 10t-50.5 27l-57 -58q-18 14 -25 22.5t-7 15.5q0 4 5 11l48 47q-16 23 -25 49.5t-9 55.5zM273 462q-17 0 -34.5 -7t-32 -21.5t-23.5 -36t-9 -50.5t8.5 -54.5t24 -44.5t37 -30.5t46.5 -11.5q48 0 77.5 31t29.5 85
q0 28 -7.5 53.5t-22.5 44.5t-38.5 30.5t-55.5 11.5z" />
    <glyph glyph-name="yen" unicode="&#xa5;" horiz-adv-x="575" 
d="M325 275l-12 -63h162q-3 -28 -12.5 -38.5t-32.5 -10.5h-127l-17 -91q-4 -20 7.5 -29t35.5 -12q16 -2 20.5 -10t-2.5 -28q-38 3 -71 5t-58 2q-10 0 -26 -0.5t-34 -1.5t-37 -2.5t-35 -2.5q-2 6 -3.5 12.5t0 12t6 9.5t14.5 6q29 5 44.5 13.5t19.5 27.5l17 89h-141
q4 26 14 37.5t36 11.5h101l12 63h-140q4 26 14 37.5t36 11.5h77l-97 233q-5 13 -14 21t-30 10q-18 2 -20.5 13t1.5 28q36 -4 69 -5.5t58 -1.5q21 0 56.5 2t68.5 5q11 -34 -15 -37q-35 -5 -41 -16t2 -32l77 -194l141 196q14 19 4.5 31.5t-38.5 15.5q-15 2 -19 10t2 27
q24 -4 52.5 -5.5t48.5 -1.5q17 0 44 1t57 6q7 -21 1 -28t-27 -12q-19 -4 -31.5 -12t-23.5 -22l-170 -232h149q-3 -28 -12.5 -38.5t-32.5 -10.5h-128z" />
    <glyph glyph-name="brokenbar" unicode="&#xa6;" horiz-adv-x="252" 
d="M182 -135q0 -8 -3 -15.5t-12.5 -14t-27.5 -11t-49 -6.5v313q0 10 3.5 17.5t13.5 13t28 9t47 6.5v-312zM182 375q0 -7 -3 -14.5t-12.5 -14t-27.5 -11.5t-49 -7v313q0 10 3.5 17.5t13.5 13t28 9t47 6.5v-312z" />
    <glyph glyph-name="section" unicode="&#xa7;" horiz-adv-x="466" 
d="M220 334q-26 49 -44 98t-27 92q-8 -19 -13 -43.5t-5 -49.5q0 -29 7 -57t18 -55.5t25 -54t28 -51.5l24 -44t22 -46t17.5 -51t9.5 -59q9 18 14.5 38.5t5.5 46.5q0 28 -7.5 58t-19.5 61t-26.5 60.5t-28.5 56.5zM361 678q20 0 28 -4t11 -13q3 -10 5 -19.5t2 -19.5t-4.5 -18.5
t-20.5 -8.5q-12 0 -23 5t-23 11t-26.5 11t-34.5 5q-23 0 -37.5 -15.5t-14.5 -41.5q0 -31 20 -76t45 -94q16 -33 33 -68.5t31 -71.5t22.5 -70t8.5 -64q0 -51 -20.5 -99.5t-60.5 -87t-99.5 -62t-137.5 -23.5q-17 0 -26 4.5t-13 11.5t-5 16.5t-1 18.5q0 11 4.5 21.5t19.5 10.5
q9 0 16 -3t15 -8q15 -8 33.5 -15.5t47.5 -7.5t43 18.5t14 47.5q0 50 -23.5 95.5t-50.5 92.5q-16 30 -32 60.5t-28.5 62.5t-20.5 65.5t-8 69.5q0 52 22 99.5t63 84t98 58t128 21.5z" />
    <glyph glyph-name="dieresis" unicode="&#xa8;" horiz-adv-x="500" 
d="M286 575q0 29 19.5 46t40.5 17q23 0 37 -15t14 -39q0 -28 -17.5 -45.5t-40.5 -17.5q-24 0 -38.5 15t-14.5 39zM108 575q0 29 19.5 46t40.5 17q23 0 37 -15t14 -39q0 -28 -17.5 -45.5t-40.5 -17.5q-24 0 -38.5 15t-14.5 39z" />
    <glyph glyph-name="copyright" unicode="&#xa9;" horiz-adv-x="690" 
d="M38 325q0 64 24 120t65.5 97.5t97.5 65.5t120 24q63 0 119 -24t98 -65.5t66 -97.5t24 -120q0 -63 -24 -119t-66 -98t-98 -66t-119 -24q-64 0 -120 24t-97.5 66t-65.5 98t-24 119zM347 55q54 0 100.5 21.5t81 58t54 85t19.5 103.5q0 57 -20.5 106.5t-56 86t-82.5 58
t-100 21.5q-54 0 -100.5 -21t-81 -57.5t-54.5 -85t-20 -103.5q0 -53 19 -102t53.5 -87t82.5 -61t105 -23zM349 148q-46 0 -81 13.5t-58.5 37.5t-35.5 57t-12 71q0 31 12 63t35.5 57.5t58.5 42t81 16.5q35 0 59.5 -3.5t50.5 -10.5q1 -14 4.5 -38t8.5 -47q-1 -1 -7.5 -2
t-8.5 -1q-10 0 -14 9q-14 32 -35 43t-48 11q-49 0 -77 -31t-28 -97q0 -69 29 -110t80 -41q32 0 52 11.5t35 42.5q4 9 14 9q3 0 9.5 -0.5t10.5 -2.5q-7 -21 -13.5 -45.5t-11.5 -45.5q-25 -4 -51.5 -6.5t-58.5 -2.5z" />
    <glyph glyph-name="ordfeminine" unicode="&#xaa;" horiz-adv-x="357" 
d="M234 362l-4 2q-32 -57 -68.5 -84t-64.5 -27q-14 0 -28 3.5t-24.5 12t-17 23t-6.5 35.5q0 56 21 99.5t53 73.5t69 46t69 16q24 0 50 -3t61 -10l-45 -225q-1 -5 -1 -8q0 -5 5 -5q9 0 23 8t20 8q7 0 11 -7.5t5 -12.5q-11 -7 -27.5 -16t-34.5 -17.5t-36 -14.5t-32 -6
q-29 0 -29 24q0 10 4 21zM246 528q-9 3 -19 3q-24 0 -44 -15t-34.5 -40.5t-22 -60t-7.5 -73.5q0 -17 2.5 -28.5t13.5 -11.5q15 0 35.5 23t38 57.5t28.5 73.5t9 72z" />
    <glyph glyph-name="guillemotleft" unicode="&#xab;" horiz-adv-x="439" 
d="M120 222q6 -23 10.5 -40t10 -33.5t12.5 -35t18 -43.5q-19 -28 -39 -28q-16 0 -28 18l-106 159q-3 13 13 26l166 141q6 5 12.5 9.5t15.5 4.5q14 0 21 -10t12 -20q-32 -35 -60.5 -70.5t-57.5 -77.5zM291 222q6 -23 10.5 -40t10 -33.5t12.5 -35t18 -43.5q-19 -28 -39 -28
q-16 0 -28 18l-106 159q-3 13 13 26l166 141q6 5 12.5 9.5t15.5 4.5q14 0 21 -10t12 -20q-32 -35 -60.5 -70.5t-57.5 -77.5z" />
    <glyph glyph-name="logicalnot" unicode="&#xac;" horiz-adv-x="494" 
d="M443 351v-248q-46 2 -59.5 12.5t-13.5 27.5v142h-368q5 36 18.5 51t39.5 15h383z" />
    <glyph glyph-name="uni00AD" unicode="&#xad;" horiz-adv-x="309" 
d="M11 210q2 38 16 54.5t40 16.5h210q-3 -39 -16 -55t-40 -16h-210z" />
    <glyph glyph-name="registered" unicode="&#xae;" horiz-adv-x="439" 
d="M60 468q0 38 14.5 71.5t39 58t58 39t71.5 14.5t71.5 -14.5t58.5 -39t39.5 -58t14.5 -71.5t-14.5 -71.5t-39.5 -58.5t-58.5 -39.5t-71.5 -14.5t-71.5 14.5t-58 39.5t-39 58.5t-14.5 71.5zM244 313q31 0 57.5 12t46.5 33t31.5 49t11.5 59q0 32 -12 60.5t-32 49.5t-47 33.5
t-58 12.5t-57.5 -12t-46 -33t-31 -49t-11.5 -59q0 -30 11 -58t30.5 -49.5t47 -35t59.5 -13.5zM347 375q-2 -4 -6 -8.5t-7 -7.5h-9q-14 0 -25 6.5t-17 14.5l-50 72h-8v-60q0 -6 9.5 -9t9.5 -9v-6t-1 -6h-83q-1 2 -1 6v6q0 6 9.5 9t9.5 9v158q0 3 -3 4.5t-6.5 2.5t-6.5 3t-3 6
v5.5t1 6.5q10 -1 23 -1.5t23 -0.5h37q35 0 58.5 -14.5t23.5 -45.5q0 -20 -12 -34.5t-30 -21.5l53 -76q3 -5 11 -9zM234 480q17 0 28.5 8t11.5 28q0 37 -41 37h-8v-73h9z" />
    <glyph glyph-name="macron" unicode="&#xaf;" horiz-adv-x="500" 
d="M106 543q4 32 17 46t39 14h225q-5 -34 -17 -47t-38 -13h-226z" />
    <glyph glyph-name="degree" unicode="&#xb0;" horiz-adv-x="348" 
d="M50 519q0 30 11.5 54.5t30.5 41.5t44.5 26t54.5 9q25 0 49.5 -9t43.5 -25.5t30.5 -41t11.5 -55.5t-11.5 -55.5t-31 -42t-44 -26.5t-50.5 -9q-27 0 -52 9t-44.5 26t-31 41.5t-11.5 56.5zM180 598q-20 0 -39 -18t-19 -53t19.5 -61.5t49.5 -26.5q29 0 46.5 19.5t17.5 51.5
q0 35 -18.5 61.5t-56.5 26.5z" />
    <glyph glyph-name="plusminus" unicode="&#xb1;" horiz-adv-x="494" 
d="M29 293q5 35 18 50.5t39 15.5h122v137q0 7 2 14t9.5 12.5t22 9t38.5 4.5v-177h185q-5 -35 -18 -50.5t-39 -15.5h-128v-156q0 -21 -14.5 -28.5t-57.5 -11.5v196h-179zM29 0q5 35 18 50.5t39 15.5h379q-5 -35 -18 -50.5t-39 -15.5h-379z" />
    <glyph glyph-name="twosuperior" unicode="&#xb2;" horiz-adv-x="339" 
d="M323 461q-3 -6 -7 -15.5t-7.5 -21.5l-7 -24t-6.5 -22q-3 -15 -14 -15q-7 0 -12.5 0.5t-12 1t-17 1t-27.5 0.5h-179l2 23q71 55 115 96t68 71t32 51.5t8 38.5q0 24 -12.5 34t-29.5 10q-13 0 -32.5 -5.5t-43.5 -20.5q-12 -8 -21.5 -5t-14.5 15q27 24 66 45.5t85 21.5
q49 0 76.5 -22.5t27.5 -64.5q0 -31 -18 -60t-48 -57t-68.5 -54.5t-79.5 -51.5h99q17 0 26.5 7.5t17.5 21.5q4 9 13 9q5 0 11.5 -2.5t10.5 -5.5z" />
    <glyph glyph-name="threesuperior" unicode="&#xb3;" horiz-adv-x="339" 
d="M116 564q69 25 94.5 47.5t25.5 52.5q0 14 -8 23.5t-24 9.5q-11 0 -26 -3.5t-38 -18.5q-14 -10 -22 -8t-15 14q27 25 60 42.5t73 17.5q50 0 72 -20t22 -47q0 -24 -15 -44t-58 -39v-3q42 -10 59.5 -31.5t17.5 -53.5q0 -31 -18 -57.5t-46.5 -45.5t-63 -29.5t-67.5 -10.5
q-20 0 -44.5 6.5t-40.5 21.5q-6 6 -6 13t9.5 17t19.5 17t15 7t9.5 -3.5t10.5 -8.5q11 -8 23 -17t32 -9q23 0 43 21.5t20 64.5q0 59 -41 59q-10 0 -28.5 -4.5t-44.5 -15.5v35z" />
    <glyph glyph-name="acute" unicode="&#xb4;" horiz-adv-x="500" 
d="M272 673q14 -3 28 -7.5t25 -10.5t18 -14t7 -17q0 -18 -29 -35q-17 -10 -32 -19.5t-31.5 -21.5t-36 -26.5t-45.5 -35.5q-17 9 -22.5 18t7.5 26z" />
    <glyph glyph-name="mu" unicode="&#xb5;" horiz-adv-x="501" 
d="M271 64q-32 -31 -62 -53.5t-70 -22.5q-11 0 -22 4t-17 12q-8 -30 -13 -62t-7 -61.5t-3 -54t-2 -40.5q0 -7 0.5 -11t2.5 -11q-24 -2 -50.5 -6.5t-50.5 -12.5q-13 6 -15 11t-2 7q0 11 14 83.5t40 203.5q16 81 27 139t18.5 97.5t11 61t3.5 28.5q0 31 -5 41l8 9q21 2 46.5 8
t54.5 14q6 -6 8 -14t2 -16q0 -16 -11 -59.5t-25 -98.5l-23 -93q-15 -59 -6.5 -85t28.5 -26q15 0 37.5 10t45 29t40.5 47t25 63q9 45 14.5 74.5t9.5 48.5t5.5 30t1.5 18q0 31 -5 41l8 9q21 2 46.5 8t54.5 14q6 -6 8 -14t2 -16q0 -16 -10.5 -57t-25.5 -103q-7 -29 -14.5 -57.5
t-13.5 -53.5t-10 -44t-4 -29q0 -8 1.5 -15.5t12.5 -7.5q14 0 29 8.5t22 8.5t11 -9.5t4 -15.5q-9 -8 -21.5 -17.5t-28 -17.5t-33 -14t-36.5 -6q-11 0 -21.5 3t-18.5 11.5t-12.5 23t-3.5 38.5z" />
    <glyph glyph-name="paragraph" unicode="&#xb6;" horiz-adv-x="415" 
d="M323 602q20 0 42 1.5t40 3.5q21 2 41 5v-9q0 -6 -2 -14q-2 -6 -6.5 -10t-21.5 -6q-18 -2 -25.5 -9t-10.5 -22l-91 -504q-11 -63 -33.5 -104t-52 -65t-62.5 -34t-65 -10q-40 0 -52 7t-12 24q0 7 1.5 14.5t5 14.5t10 11.5t16.5 4.5q11 0 20 -5t18 -10.5t20 -10.5t25 -5
q11 0 24.5 6t26 21t23.5 41t18 66l30 178q-6 -1 -10.5 -1h-10.5q-37 0 -70 10t-58 30.5t-39.5 51.5t-14.5 74q0 54 18 100.5t53 81t86.5 54t118.5 19.5z" />
    <glyph glyph-name="periodcentered" unicode="&#xb7;" horiz-adv-x="208" 
d="M23 228q0 29 20 51t50 22q32 0 48.5 -18.5t16.5 -44.5q0 -30 -21 -51t-49 -21q-35 0 -50 18t-15 44z" />
    <glyph glyph-name="cedilla" unicode="&#xb8;" horiz-adv-x="500" 
d="M316 8q-19 -23 -27.5 -36t-8.5 -24q0 -9 6.5 -18t14.5 -19t14.5 -20.5t6.5 -22.5q0 -14 -7 -26.5t-22.5 -25.5t-41.5 -27t-64 -30q-11 15 -9.5 23.5t15.5 16.5q26 14 37.5 23.5t11.5 22.5q0 10 -5.5 18.5t-12.5 17t-12.5 17.5t-5.5 20q0 6 2.5 12t10 16t20.5 24.5
t35 37.5h42z" />
    <glyph glyph-name="onesuperior" unicode="&#xb9;" horiz-adv-x="339" 
d="M298 362q-13 1 -29 2t-32 1.5t-31 1t-25 0.5q-6 0 -18.5 -0.5t-27 -1t-29 -1.5t-23.5 -2q-5 17 -0.5 24t20.5 9q22 3 29.5 10.5t11.5 25.5l41 220q6 30 -32 30q-14 0 -19 3t-5 10q0 2 1.5 8l2.5 10q8 0 20 1.5t24 3.5t23.5 4t18.5 4q20 4 37 10t32 6q19 0 19 -15
q0 -10 -6.5 -32t-9.5 -40l-42 -227q-3 -16 4 -23.5t29 -10.5q16 -2 18 -9t-2 -22z" />
    <glyph glyph-name="ordmasculine" unicode="&#xba;" horiz-adv-x="328" 
d="M213 562q30 0 52 -9.5t36.5 -26t21.5 -38t7 -45.5q0 -48 -17 -83.5t-44 -59.5t-61 -35.5t-69 -11.5q-59 0 -84.5 33t-25.5 82q0 45 17 80.5t44 61t59.5 39t63.5 13.5zM160 285q17 0 30.5 11.5t23.5 31.5t15 47.5t5 59.5q0 39 -5.5 66.5t-28.5 27.5q-18 0 -32 -14
t-23.5 -36t-14.5 -49.5t-5 -53.5q0 -42 7.5 -66.5t27.5 -24.5z" />
    <glyph glyph-name="guillemotright" unicode="&#xbb;" horiz-adv-x="450" 
d="M118 220q-6 22 -10.5 39.5t-10 34t-12.5 35t-18 43.5q19 28 39 28q16 0 28 -18l106 -159q2 -7 -1 -12.5t-12 -13.5l-166 -141q-6 -5 -12.5 -9.5t-15.5 -4.5q-14 0 -21 10t-12 20q32 35 60.5 70.5t57.5 77.5zM298 220q-6 22 -10.5 39.5t-10 34t-12.5 35t-18 43.5
q19 28 39 28q16 0 28 -18l106 -159q2 -7 -1 -12.5t-12 -13.5l-166 -141q-6 -5 -12.5 -9.5t-15.5 -4.5q-14 0 -21 10t-12 20q32 35 60.5 70.5t57.5 77.5z" />
    <glyph glyph-name="onequarter" unicode="&#xbc;" horiz-adv-x="802" 
d="M248 250q-13 1 -29 2t-32 1.5t-31 1t-25 0.5q-6 0 -18.5 -0.5t-27 -1t-29 -1.5t-23.5 -2q-5 17 -0.5 24t20.5 9q22 3 29.5 10.5t11.5 25.5l41 220q6 30 -32 30q-14 0 -19 3t-5 10q0 2 1.5 8l2.5 10q8 0 20 1.5t24 3.5t23.5 4t18.5 4q20 4 37 10t32 6q19 0 19 -15
q0 -10 -6.5 -32t-9.5 -40l-42 -227q-3 -16 4 -23.5t29 -10.5q16 -2 18 -9t-2 -22zM197 -1q-11 -14 -30.5 -13.5t-39.5 15.5l510 669q18 25 64 -10zM616 275l-135 -144h106zM721 -9q-32 3 -64 4t-49 1q-6 0 -19.5 -0.5t-28.5 -1.5t-29 -2t-23 -2q-5 15 -2.5 22t16.5 9
q23 3 35 9t15 21l6 30h-154q-6 22 -6 28q0 10 12 23l201 212q8 8 16.5 13t20.5 5h65l-44 -231h47l-9 -50h-48l-7 -34q-3 -13 3.5 -18t29.5 -8q15 -2 18 -7.5t-2 -22.5z" />
    <glyph glyph-name="onehalf" unicode="&#xbd;" horiz-adv-x="802" 
d="M226 250q-13 1 -29 2t-32 1.5t-31 1t-25 0.5q-6 0 -18.5 -0.5t-27 -1t-29 -1.5t-23.5 -2q-5 17 -0.5 24t20.5 9q22 3 29.5 10.5t11.5 25.5l41 220q6 30 -32 30q-14 0 -19 3t-5 10q0 2 1.5 8l2.5 10q8 0 20 1.5t24 3.5t23.5 4t18.5 4q20 4 37 10t32 6q19 0 19 -15
q0 -10 -6.5 -32t-9.5 -40l-42 -227q-3 -16 4 -23.5t29 -10.5q16 -2 18 -9t-2 -22zM161 -1q-11 -14 -30.5 -13.5t-39.5 15.5l510 669q18 25 64 -10zM690 90q-3 -6 -7 -15.5t-7.5 -21.5l-7 -24t-6.5 -22q-3 -15 -14 -15q-7 0 -12.5 0.5t-12 1t-17 1t-27.5 0.5h-179l2 23
q71 55 115 96t68 71t32 51.5t8 38.5q0 24 -12.5 34t-29.5 10q-13 0 -32.5 -5.5t-43.5 -20.5q-12 -8 -21.5 -5t-14.5 15q27 24 66 45.5t85 21.5q49 0 76.5 -22.5t27.5 -64.5q0 -31 -18 -60t-48 -57t-68.5 -54.5t-79.5 -51.5h99q17 0 26.5 7.5t17.5 21.5q4 9 13 9
q5 0 11.5 -2.5t10.5 -5.5z" />
    <glyph glyph-name="threequarters" unicode="&#xbe;" horiz-adv-x="802" 
d="M94 452q69 25 94.5 47.5t25.5 52.5q0 14 -8 23.5t-24 9.5q-11 0 -26 -3.5t-38 -18.5q-14 -10 -22 -8t-15 14q27 25 60 42.5t73 17.5q50 0 72 -20t22 -47q0 -24 -15 -44t-58 -39v-3q42 -10 59.5 -31.5t17.5 -53.5q0 -31 -18 -57.5t-46.5 -45.5t-63 -29.5t-67.5 -10.5
q-20 0 -44.5 6.5t-40.5 21.5q-6 6 -6 13t9.5 17t19.5 17t15 7t9.5 -3.5t10.5 -8.5q11 -8 23 -17t32 -9q23 0 43 21.5t20 64.5q0 59 -41 59q-10 0 -28.5 -4.5t-44.5 -15.5v35zM201 -1q-11 -14 -30.5 -13.5t-39.5 15.5l510 669q18 25 64 -10zM611 275l-135 -144h106zM716 -9
q-32 3 -64 4t-49 1q-6 0 -19.5 -0.5t-28.5 -1.5t-29 -2t-23 -2q-5 15 -2.5 22t16.5 9q23 3 35 9t15 21l6 30h-154q-6 22 -6 28q0 10 12 23l201 212q8 8 16.5 13t20.5 5h65l-44 -231h47l-9 -50h-48l-7 -34q-3 -13 3.5 -18t29.5 -8q15 -2 18 -7.5t-2 -22.5z" />
    <glyph glyph-name="questiondown" unicode="&#xbf;" horiz-adv-x="325" 
d="M171 259q42 -48 60.5 -81t18.5 -60q0 -23 -7 -40t-23 -33.5t-41 -34.5t-62 -42q-17 -11 -35 -21t-32 -21t-23 -23.5t-9 -28.5q0 -24 16 -33.5t36 -9.5q16 0 36 8t46 30q10 8 16.5 13t18.5 5q10 0 20.5 -6t19.5 -13.5t14.5 -16t5.5 -12.5q0 -7 -4.5 -11.5t-12.5 -11.5
q-29 -23 -61.5 -36t-66.5 -13q-39 0 -68 13.5t-48 33.5t-28.5 44t-9.5 44q0 46 31.5 78.5t94.5 71.5q16 10 33 20t30.5 21t22 23.5t8.5 28.5q0 9 -1 17t-4 16.5t-7 18.5l-10 25q-1 3 -2 7.5t1 10t8 10.5t18 9zM259 379q0 -29 -20 -51t-50 -22q-32 0 -48.5 18.5t-16.5 44.5
q0 30 21 51t49 21q35 0 50 -18t15 -44z" />
    <glyph glyph-name="Agrave" unicode="&#xc0;" horiz-adv-x="587" 
d="M336 262l-36 229l-121 -229h157zM344 216h-190l-77 -141q-4 -7 -4 -15q0 -16 19.5 -24t46.5 -12q19 -3 19 -14q0 -7 -3 -17q-38 3 -67.5 5t-55.5 2q-19 0 -42.5 -1t-60.5 -6q-2 5 -3 9.5t-1 8.5q0 7 5.5 11.5t19.5 6.5q50 9 67 38l317 581q8 14 22 14q13 0 22 -7
l112 -586q4 -19 18.5 -28t34.5 -11q12 -2 17.5 -5t5.5 -14q0 -3 -0.5 -7.5t-1.5 -9.5q-26 2 -56 4t-64 2q-14 0 -31 -0.5t-35 -1.5t-35 -2.5t-31 -2.5q-3 9 -3 17q0 6 4 10.5t15 6.5q41 6 41 35q0 7 -1 10zM411 754q17 -14 17 -22t-20 -23q-27 14 -47.5 24.5t-38.5 18
t-35 14t-38 12.5q-15 5 -25.5 11.5t-10.5 19.5q0 28 65 57z" />
    <glyph glyph-name="Aacute" unicode="&#xc1;" horiz-adv-x="587" 
d="M336 262l-36 229l-121 -229h157zM344 216h-190l-77 -141q-4 -7 -4 -15q0 -16 19.5 -24t46.5 -12q19 -3 19 -14q0 -7 -3 -17q-38 3 -67.5 5t-55.5 2q-19 0 -42.5 -1t-60.5 -6q-2 5 -3 9.5t-1 8.5q0 7 5.5 11.5t19.5 6.5q50 9 67 38l317 581q8 14 22 14q13 0 22 -7
l112 -586q4 -19 18.5 -28t34.5 -11q12 -2 17.5 -5t5.5 -14q0 -3 -0.5 -7.5t-1.5 -9.5q-26 2 -56 4t-64 2q-14 0 -31 -0.5t-35 -1.5t-35 -2.5t-31 -2.5q-3 9 -3 17q0 6 4 10.5t15 6.5q41 6 41 35q0 7 -1 10zM448 866q65 -29 65 -57q0 -13 -10.5 -19.5t-25.5 -11.5
q-21 -6 -38 -12.5t-35 -14t-38.5 -18t-47.5 -24.5q-20 15 -20 23t17 22z" />
    <glyph glyph-name="Acircumflex" unicode="&#xc2;" horiz-adv-x="587" 
d="M336 262l-36 229l-121 -229h157zM344 216h-190l-77 -141q-4 -7 -4 -15q0 -16 19.5 -24t46.5 -12q19 -3 19 -14q0 -7 -3 -17q-38 3 -67.5 5t-55.5 2q-19 0 -42.5 -1t-60.5 -6q-2 5 -3 9.5t-1 8.5q0 7 5.5 11.5t19.5 6.5q50 9 67 38l317 581q8 14 22 14q13 0 22 -7
l112 -586q4 -19 18.5 -28t34.5 -11q12 -2 17.5 -5t5.5 -14q0 -3 -0.5 -7.5t-1.5 -9.5q-26 2 -56 4t-64 2q-14 0 -31 -0.5t-35 -1.5t-35 -2.5t-31 -2.5q-3 9 -3 17q0 6 4 10.5t15 6.5q41 6 41 35q0 7 -1 10zM498 758q15 -20 8 -28.5t-29 -19.5q-31 25 -55 41t-43 27
q-31 -14 -62.5 -31t-63.5 -37q-23 12 -25 22t12 22l126 108q32 0 46.5 -4.5t26.5 -20.5z" />
    <glyph glyph-name="Atilde" unicode="&#xc3;" horiz-adv-x="587" 
d="M336 262l-36 229l-121 -229h157zM344 216h-190l-77 -141q-4 -7 -4 -15q0 -16 19.5 -24t46.5 -12q19 -3 19 -14q0 -7 -3 -17q-38 3 -67.5 5t-55.5 2q-19 0 -42.5 -1t-60.5 -6q-2 5 -3 9.5t-1 8.5q0 7 5.5 11.5t19.5 6.5q50 9 67 38l317 581q8 14 22 14q13 0 22 -7
l112 -586q4 -19 18.5 -28t34.5 -11q12 -2 17.5 -5t5.5 -14q0 -3 -0.5 -7.5t-1.5 -9.5q-26 2 -56 4t-64 2q-14 0 -31 -0.5t-35 -1.5t-35 -2.5t-31 -2.5q-3 9 -3 17q0 6 4 10.5t15 6.5q41 6 41 35q0 7 -1 10zM253 743q35 32 55.5 46t43.5 14q12 0 23 -4t22 -9.5t21.5 -9.5
t20.5 -4q8 0 21.5 5t38.5 22q13 -6 16.5 -14t-8.5 -21q-22 -23 -45 -41.5t-47 -18.5q-14 0 -26 5t-23 10.5t-22.5 10.5t-24.5 5t-26.5 -8.5t-30.5 -22.5q-14 8 -18.5 15t9.5 20z" />
    <glyph glyph-name="Adieresis" unicode="&#xc4;" horiz-adv-x="587" 
d="M336 262l-36 229l-121 -229h157zM344 216h-190l-77 -141q-4 -7 -4 -15q0 -16 19.5 -24t46.5 -12q19 -3 19 -14q0 -7 -3 -17q-38 3 -67.5 5t-55.5 2q-19 0 -42.5 -1t-60.5 -6q-2 5 -3 9.5t-1 8.5q0 7 5.5 11.5t19.5 6.5q50 9 67 38l317 581q8 14 22 14q13 0 22 -7
l112 -586q4 -19 18.5 -28t34.5 -11q12 -2 17.5 -5t5.5 -14q0 -3 -0.5 -7.5t-1.5 -9.5q-26 2 -56 4t-64 2q-14 0 -31 -0.5t-35 -1.5t-35 -2.5t-31 -2.5q-3 9 -3 17q0 6 4 10.5t15 6.5q41 6 41 35q0 7 -1 10zM411 763q0 29 19.5 46t40.5 17q23 0 37 -15t14 -39
q0 -28 -17.5 -45.5t-40.5 -17.5q-24 0 -38.5 15t-14.5 39zM233 763q0 29 19.5 46t40.5 17q23 0 37 -15t14 -39q0 -28 -17.5 -45.5t-40.5 -17.5q-24 0 -38.5 15t-14.5 39z" />
    <glyph glyph-name="Aring" unicode="&#xc5;" horiz-adv-x="587" 
d="M336 262l-36 229l-121 -229h157zM344 216h-190l-77 -141q-4 -7 -4 -15q0 -16 19.5 -24t46.5 -12q19 -3 19 -14q0 -7 -3 -17q-38 3 -67.5 5t-55.5 2q-19 0 -42.5 -1t-60.5 -6q-2 5 -3 9.5t-1 8.5q0 7 5.5 11.5t19.5 6.5q50 9 67 38l317 581q8 14 22 14q13 0 22 -7
l112 -586q4 -19 18.5 -28t34.5 -11q12 -2 17.5 -5t5.5 -14q0 -3 -0.5 -7.5t-1.5 -9.5q-26 2 -56 4t-64 2q-14 0 -31 -0.5t-35 -1.5t-35 -2.5t-31 -2.5q-3 9 -3 17q0 6 4 10.5t15 6.5q41 6 41 35q0 7 -1 10zM285 784q0 19 8.5 36.5t22.5 30t33.5 20t41.5 7.5q24 0 40 -6.5
t25.5 -17t14 -24t4.5 -26.5q0 -24 -9 -42.5t-23.5 -32t-32.5 -20.5t-36 -7q-47 0 -68 23.5t-21 58.5zM375 736q16 0 25.5 19t9.5 51q0 38 -25 38q-17 0 -26 -20t-9 -50q0 -20 7 -29t18 -9z" />
    <glyph glyph-name="AE" unicode="&#xc6;" horiz-adv-x="846" 
d="M-69 -6q-7 17 -4.5 23.5t23.5 11.5q23 5 42.5 18t42.5 48l316 474q9 13 9 27q0 22 -44 26q-17 2 -18.5 11t2.5 23q75 -6 121 -6h291q39 0 59.5 3t32.5 3t16 -4t4 -15q0 -32 5 -63t12 -62q-5 -4 -13.5 -6.5t-15.5 -2.5q-11 0 -16 4.5t-7 11.5q-14 48 -38 68.5t-65 20.5
h-111l-51 -270h116q23 0 33 14t17 38q2 6 5.5 11t11.5 5t16 -2.5t14 -4.5q-6 -23 -10.5 -42.5t-8 -39.5t-6 -43t-4.5 -52q-10 -5 -26 -5q-14 0 -17 6t-2 13q3 25 -3.5 41.5t-30.5 16.5h-113l-44 -228q-2 -14 1.5 -18.5t17.5 -4.5h108q36 0 70.5 20t72.5 73q5 8 9 12t12 4
q9 0 17.5 -5.5t14.5 -11.5l-10 -20q-5 -10 -11 -22.5t-12 -29.5q-8 -20 -11.5 -35.5t-7.5 -23.5q-3 -7 -6.5 -8.5t-8.5 -1.5q-11 0 -19.5 1t-18.5 2t-22.5 2t-30.5 1h-234q-20 0 -55 -2t-68 -5q-3 6 -4 12.5t0.5 11.5t7 9t16.5 5q29 3 40 13t14 27l42 222h-168l-136 -206
q-10 -14 -10 -26q0 -14 14 -20t38 -9q19 -2 26 -10t1 -28q-75 6 -125 6q-19 0 -47.5 -1.5t-57.5 -4.5zM405 338l53 270q-14 -1 -23.5 -7t-21.5 -24l-156 -239h148z" />
    <glyph glyph-name="Ccedilla" unicode="&#xc7;" horiz-adv-x="619" 
d="M522 10q-23 -4 -48.5 -8t-51 -7t-48.5 -5t-41 -2q-19 -25 -19 -40q0 -9 6.5 -18t14.5 -19t14.5 -20.5t6.5 -22.5q0 -14 -7 -26.5t-22.5 -25.5t-41.5 -27t-64 -30q-11 15 -9.5 23.5t15.5 16.5q26 14 37.5 23.5t11.5 22.5q0 10 -5.5 18.5t-12.5 17t-12.5 17.5t-5.5 20
q0 5 2 10.5t7.5 13.5t15 19t25.5 28q-73 4 -124 27t-83.5 59t-47.5 82.5t-15 99.5q0 71 25 143.5t74.5 130.5t124.5 94.5t176 36.5q52 0 101 -9t96 -24q-3 -29 -3 -58q0 -21 1.5 -40t3.5 -36q-9 -9 -27 -9q-22 0 -25 20q-13 63 -54.5 89t-99.5 26q-62 0 -110.5 -29
t-82 -77.5t-51.5 -113t-18 -136.5q0 -53 13 -96t37 -73.5t58.5 -47t76.5 -16.5q60 0 102 28t71 91q5 9 11 13.5t19 4.5q10 0 19 -4.5t12 -7.5q-13 -26 -26 -64t-22 -83z" />
    <glyph glyph-name="Egrave" unicode="&#xc8;" horiz-adv-x="565" 
d="M171 581q4 18 -5.5 26.5t-36.5 11.5q-22 3 -22 20q0 7 3 18q38 -3 73.5 -5t60.5 -2h187q39 0 59.5 3t32.5 3t16 -4t4 -15q0 -32 5 -63t12 -62q-5 -4 -13.5 -6.5t-15.5 -2.5q-11 0 -16 4.5t-7 11.5q-14 48 -38 68.5t-65 20.5h-111l-48 -254h116q23 0 33 14t17 38
q2 6 5.5 11t11.5 5t16 -2.5t14 -4.5q-6 -23 -10.5 -42.5t-8 -39.5t-6 -43t-4.5 -52q-10 -5 -26 -5q-14 0 -17 6t-2 13q3 25 -3.5 41.5t-30.5 16.5h-113l-47 -244q-2 -14 1.5 -18.5t17.5 -4.5h108q36 0 70.5 20t72.5 73q5 8 9 12t12 4q9 0 17.5 -5.5t14.5 -11.5l-10 -20
q-5 -10 -11 -22.5t-12 -29.5q-8 -20 -11.5 -35.5t-7.5 -23.5q-3 -7 -6.5 -8.5t-8.5 -1.5q-11 0 -19.5 1t-18.5 2t-22.5 2t-30.5 1h-234q-20 0 -55 -2t-68 -5q-5 10 -5 18t5.5 13t19.5 7q29 3 40 13t14 27zM428 754q17 -14 17 -22t-20 -23q-27 14 -47.5 24.5t-38.5 18t-35 14
t-38 12.5q-15 5 -25.5 11.5t-10.5 19.5q0 28 65 57z" />
    <glyph glyph-name="Eacute" unicode="&#xc9;" horiz-adv-x="565" 
d="M171 581q4 18 -5.5 26.5t-36.5 11.5q-22 3 -22 20q0 7 3 18q38 -3 73.5 -5t60.5 -2h187q39 0 59.5 3t32.5 3t16 -4t4 -15q0 -32 5 -63t12 -62q-5 -4 -13.5 -6.5t-15.5 -2.5q-11 0 -16 4.5t-7 11.5q-14 48 -38 68.5t-65 20.5h-111l-48 -254h116q23 0 33 14t17 38
q2 6 5.5 11t11.5 5t16 -2.5t14 -4.5q-6 -23 -10.5 -42.5t-8 -39.5t-6 -43t-4.5 -52q-10 -5 -26 -5q-14 0 -17 6t-2 13q3 25 -3.5 41.5t-30.5 16.5h-113l-47 -244q-2 -14 1.5 -18.5t17.5 -4.5h108q36 0 70.5 20t72.5 73q5 8 9 12t12 4q9 0 17.5 -5.5t14.5 -11.5l-10 -20
q-5 -10 -11 -22.5t-12 -29.5q-8 -20 -11.5 -35.5t-7.5 -23.5q-3 -7 -6.5 -8.5t-8.5 -1.5q-11 0 -19.5 1t-18.5 2t-22.5 2t-30.5 1h-234q-20 0 -55 -2t-68 -5q-5 10 -5 18t5.5 13t19.5 7q29 3 40 13t14 27zM433 866q65 -29 65 -57q0 -13 -10.5 -19.5t-25.5 -11.5
q-21 -6 -38 -12.5t-35 -14t-38.5 -18t-47.5 -24.5q-20 15 -20 23t17 22z" />
    <glyph glyph-name="Ecircumflex" unicode="&#xca;" horiz-adv-x="565" 
d="M171 581q4 18 -5.5 26.5t-36.5 11.5q-22 3 -22 20q0 7 3 18q38 -3 73.5 -5t60.5 -2h187q39 0 59.5 3t32.5 3t16 -4t4 -15q0 -32 5 -63t12 -62q-5 -4 -13.5 -6.5t-15.5 -2.5q-11 0 -16 4.5t-7 11.5q-14 48 -38 68.5t-65 20.5h-111l-48 -254h116q23 0 33 14t17 38
q2 6 5.5 11t11.5 5t16 -2.5t14 -4.5q-6 -23 -10.5 -42.5t-8 -39.5t-6 -43t-4.5 -52q-10 -5 -26 -5q-14 0 -17 6t-2 13q3 25 -3.5 41.5t-30.5 16.5h-113l-47 -244q-2 -14 1.5 -18.5t17.5 -4.5h108q36 0 70.5 20t72.5 73q5 8 9 12t12 4q9 0 17.5 -5.5t14.5 -11.5l-10 -20
q-5 -10 -11 -22.5t-12 -29.5q-8 -20 -11.5 -35.5t-7.5 -23.5q-3 -7 -6.5 -8.5t-8.5 -1.5q-11 0 -19.5 1t-18.5 2t-22.5 2t-30.5 1h-234q-20 0 -55 -2t-68 -5q-5 10 -5 18t5.5 13t19.5 7q29 3 40 13t14 27zM490 758q15 -20 8 -28.5t-29 -19.5q-31 25 -55 41t-43 27
q-31 -14 -62.5 -31t-63.5 -37q-23 12 -25 22t12 22l126 108q32 0 46.5 -4.5t26.5 -20.5z" />
    <glyph glyph-name="Edieresis" unicode="&#xcb;" horiz-adv-x="565" 
d="M171 581q4 18 -5.5 26.5t-36.5 11.5q-22 3 -22 20q0 7 3 18q38 -3 73.5 -5t60.5 -2h187q39 0 59.5 3t32.5 3t16 -4t4 -15q0 -32 5 -63t12 -62q-5 -4 -13.5 -6.5t-15.5 -2.5q-11 0 -16 4.5t-7 11.5q-14 48 -38 68.5t-65 20.5h-111l-48 -254h116q23 0 33 14t17 38
q2 6 5.5 11t11.5 5t16 -2.5t14 -4.5q-6 -23 -10.5 -42.5t-8 -39.5t-6 -43t-4.5 -52q-10 -5 -26 -5q-14 0 -17 6t-2 13q3 25 -3.5 41.5t-30.5 16.5h-113l-47 -244q-2 -14 1.5 -18.5t17.5 -4.5h108q36 0 70.5 20t72.5 73q5 8 9 12t12 4q9 0 17.5 -5.5t14.5 -11.5l-10 -20
q-5 -10 -11 -22.5t-12 -29.5q-8 -20 -11.5 -35.5t-7.5 -23.5q-3 -7 -6.5 -8.5t-8.5 -1.5q-11 0 -19.5 1t-18.5 2t-22.5 2t-30.5 1h-234q-20 0 -55 -2t-68 -5q-5 10 -5 18t5.5 13t19.5 7q29 3 40 13t14 27zM401 763q0 29 19.5 46t40.5 17q23 0 37 -15t14 -39
q0 -28 -17.5 -45.5t-40.5 -17.5q-24 0 -38.5 15t-14.5 39zM223 763q0 29 19.5 46t40.5 17q23 0 37 -15t14 -39q0 -28 -17.5 -45.5t-40.5 -17.5q-24 0 -38.5 15t-14.5 39z" />
    <glyph glyph-name="Igrave" unicode="&#xcc;" horiz-adv-x="370" 
d="M175 580q4 18 -3.5 28t-36.5 13q-22 3 -22 16q0 7 5 20q37 -3 69 -5t55 -2q20 0 56 1.5t71 5.5q3 -11 3 -19t-4.5 -12t-18.5 -6q-28 -4 -39.5 -13t-15.5 -29l-96 -509q-4 -20 6 -27.5t37 -12.5q19 -4 19 -18q0 -8 -3 -18q-37 3 -73 5t-59 2q-20 0 -52.5 -2t-66.5 -5
q-3 10 -3 18t3.5 12t14.5 6q26 4 39 13.5t17 28.5zM337 754q17 -14 17 -22t-20 -23q-27 14 -47.5 24.5t-38.5 18t-35 14t-38 12.5q-15 5 -25.5 11.5t-10.5 19.5q0 28 65 57z" />
    <glyph glyph-name="Iacute" unicode="&#xcd;" horiz-adv-x="370" 
d="M175 580q4 18 -3.5 28t-36.5 13q-22 3 -22 16q0 7 5 20q37 -3 69 -5t55 -2q20 0 56 1.5t71 5.5q3 -11 3 -19t-4.5 -12t-18.5 -6q-28 -4 -39.5 -13t-15.5 -29l-96 -509q-4 -20 6 -27.5t37 -12.5q19 -4 19 -18q0 -8 -3 -18q-37 3 -73 5t-59 2q-20 0 -52.5 -2t-66.5 -5
q-3 10 -3 18t3.5 12t14.5 6q26 4 39 13.5t17 28.5zM316 866q65 -29 65 -57q0 -13 -10.5 -19.5t-25.5 -11.5q-21 -6 -38 -12.5t-35 -14t-38.5 -18t-47.5 -24.5q-20 15 -20 23t17 22z" />
    <glyph glyph-name="Icircumflex" unicode="&#xce;" horiz-adv-x="370" 
d="M175 580q4 18 -3.5 28t-36.5 13q-22 3 -22 16q0 7 5 20q37 -3 69 -5t55 -2q20 0 56 1.5t71 5.5q3 -11 3 -19t-4.5 -12t-18.5 -6q-28 -4 -39.5 -13t-15.5 -29l-96 -509q-4 -20 6 -27.5t37 -12.5q19 -4 19 -18q0 -8 -3 -18q-37 3 -73 5t-59 2q-20 0 -52.5 -2t-66.5 -5
q-3 10 -3 18t3.5 12t14.5 6q26 4 39 13.5t17 28.5zM386 758q15 -20 8 -28.5t-29 -19.5q-31 25 -55 41t-43 27q-31 -14 -62.5 -31t-63.5 -37q-23 12 -25 22t12 22l126 108q32 0 46.5 -4.5t26.5 -20.5z" />
    <glyph glyph-name="Idieresis" unicode="&#xcf;" horiz-adv-x="370" 
d="M175 580q4 18 -3.5 28t-36.5 13q-22 3 -22 16q0 7 5 20q37 -3 69 -5t55 -2q20 0 56 1.5t71 5.5q3 -11 3 -19t-4.5 -12t-18.5 -6q-28 -4 -39.5 -13t-15.5 -29l-96 -509q-4 -20 6 -27.5t37 -12.5q19 -4 19 -18q0 -8 -3 -18q-37 3 -73 5t-59 2q-20 0 -52.5 -2t-66.5 -5
q-3 10 -3 18t3.5 12t14.5 6q26 4 39 13.5t17 28.5zM299 763q0 29 19.5 46t40.5 17q23 0 37 -15t14 -39q0 -28 -17.5 -45.5t-40.5 -17.5q-24 0 -38.5 15t-14.5 39zM121 763q0 29 19.5 46t40.5 17q23 0 37 -15t14 -39q0 -28 -17.5 -45.5t-40.5 -17.5q-24 0 -38.5 15t-14.5 39z
" />
    <glyph glyph-name="Eth" unicode="&#xd0;" horiz-adv-x="744" 
d="M36 309q4 27 13.5 39t33.5 12h61l43 221q3 17 -7 27t-40 12q-18 1 -18 15q0 5 1 10t3 12q37 -3 70.5 -5t57.5 -2h138q71 0 131.5 -17t104.5 -51t68.5 -85.5t24.5 -120.5q0 -84 -33 -153t-91 -118.5t-136.5 -77t-169.5 -27.5h-149q-21 0 -58 -2t-71 -5q-1 4 -2 8.5t-1 9.5
q0 6 3 11t13 7q31 5 45 13.5t18 28.5l45 238h-98zM589 366q0 65 -16 111t-47.5 75t-77 42.5t-103.5 13.5h-35l-47 -248h174q-3 -27 -13 -39t-35 -12h-136l-44 -237q-3 -17 0.5 -23t17.5 -6h43q64 0 121.5 18t101.5 56.5t70 100t26 148.5z" />
    <glyph glyph-name="Ntilde" unicode="&#xd1;" horiz-adv-x="710" 
d="M533 -3q-8 -4 -15 -6.5t-16 -2.5q-13 0 -18.5 4.5t-13.5 18.5l-262 493l-80 -428q-3 -17 8 -29.5t46 -17.5q15 -2 20.5 -6t5.5 -12q0 -6 -3 -18q-37 3 -62.5 5t-44.5 2q-17 0 -41.5 -1.5t-56.5 -5.5q-2 5 -3 9.5t-1 8.5q0 7 4.5 11t16.5 6q23 4 38 15t18 28l98 510
q2 13 -3.5 24t-30.5 16q-20 4 -20 16q0 4 1 8.5t3 11.5q26 -4 54 -5.5t56 -1.5q18 0 26.5 -4.5t14.5 -15.5l239 -469l78 413q3 17 -8 29.5t-46 17.5q-15 2 -20.5 6t-5.5 12q0 6 3 18q37 -3 62.5 -5t44.5 -2q17 0 41.5 1.5t56.5 5.5q2 -5 3 -9.5t1 -8.5q0 -7 -4.5 -11
t-16.5 -6q-23 -4 -38 -15t-18 -28zM317 743q35 32 55.5 46t43.5 14q12 0 23 -4t22 -9.5t21.5 -9.5t20.5 -4q8 0 21.5 5t38.5 22q13 -6 16.5 -14t-8.5 -21q-22 -23 -45 -41.5t-47 -18.5q-14 0 -26 5t-23 10.5t-22.5 10.5t-24.5 5t-26.5 -8.5t-30.5 -22.5q-14 8 -18.5 15
t9.5 20z" />
    <glyph glyph-name="Ograve" unicode="&#xd2;" horiz-adv-x="668" 
d="M383 662q64 0 113 -20.5t82 -56t50 -84t17 -104.5q0 -91 -29 -166t-79.5 -129t-119.5 -84t-149 -30q-62 0 -109 22t-79 59t-48 86t-16 102q0 80 27.5 153.5t76.5 129.5t116 89t147 33zM293 33q58 0 100 31t69.5 81t40.5 112.5t13 126.5q0 110 -36 171.5t-104 61.5
q-60 0 -103.5 -30.5t-72 -80.5t-42 -115t-13.5 -135q0 -105 35.5 -164t112.5 -59zM469 754q17 -14 17 -22t-20 -23q-27 14 -47.5 24.5t-38.5 18t-35 14t-38 12.5q-15 5 -25.5 11.5t-10.5 19.5q0 28 65 57z" />
    <glyph glyph-name="Oacute" unicode="&#xd3;" horiz-adv-x="668" 
d="M383 662q64 0 113 -20.5t82 -56t50 -84t17 -104.5q0 -91 -29 -166t-79.5 -129t-119.5 -84t-149 -30q-62 0 -109 22t-79 59t-48 86t-16 102q0 80 27.5 153.5t76.5 129.5t116 89t147 33zM293 33q58 0 100 31t69.5 81t40.5 112.5t13 126.5q0 110 -36 171.5t-104 61.5
q-60 0 -103.5 -30.5t-72 -80.5t-42 -115t-13.5 -135q0 -105 35.5 -164t112.5 -59zM454 866q65 -29 65 -57q0 -13 -10.5 -19.5t-25.5 -11.5q-21 -6 -38 -12.5t-35 -14t-38.5 -18t-47.5 -24.5q-20 15 -20 23t17 22z" />
    <glyph glyph-name="Ocircumflex" unicode="&#xd4;" horiz-adv-x="668" 
d="M383 662q64 0 113 -20.5t82 -56t50 -84t17 -104.5q0 -91 -29 -166t-79.5 -129t-119.5 -84t-149 -30q-62 0 -109 22t-79 59t-48 86t-16 102q0 80 27.5 153.5t76.5 129.5t116 89t147 33zM293 33q58 0 100 31t69.5 81t40.5 112.5t13 126.5q0 110 -36 171.5t-104 61.5
q-60 0 -103.5 -30.5t-72 -80.5t-42 -115t-13.5 -135q0 -105 35.5 -164t112.5 -59zM530 758q15 -20 8 -28.5t-29 -19.5q-31 25 -55 41t-43 27q-31 -14 -62.5 -31t-63.5 -37q-23 12 -25 22t12 22l126 108q32 0 46.5 -4.5t26.5 -20.5z" />
    <glyph glyph-name="Otilde" unicode="&#xd5;" horiz-adv-x="668" 
d="M383 662q64 0 113 -20.5t82 -56t50 -84t17 -104.5q0 -91 -29 -166t-79.5 -129t-119.5 -84t-149 -30q-62 0 -109 22t-79 59t-48 86t-16 102q0 80 27.5 153.5t76.5 129.5t116 89t147 33zM293 33q58 0 100 31t69.5 81t40.5 112.5t13 126.5q0 110 -36 171.5t-104 61.5
q-60 0 -103.5 -30.5t-72 -80.5t-42 -115t-13.5 -135q0 -105 35.5 -164t112.5 -59zM279 743q35 32 55.5 46t43.5 14q12 0 23 -4t22 -9.5t21.5 -9.5t20.5 -4q8 0 21.5 5t38.5 22q13 -6 16.5 -14t-8.5 -21q-22 -23 -45 -41.5t-47 -18.5q-14 0 -26 5t-23 10.5t-22.5 10.5
t-24.5 5t-26.5 -8.5t-30.5 -22.5q-14 8 -18.5 15t9.5 20z" />
    <glyph glyph-name="Odieresis" unicode="&#xd6;" horiz-adv-x="668" 
d="M383 662q64 0 113 -20.5t82 -56t50 -84t17 -104.5q0 -91 -29 -166t-79.5 -129t-119.5 -84t-149 -30q-62 0 -109 22t-79 59t-48 86t-16 102q0 80 27.5 153.5t76.5 129.5t116 89t147 33zM293 33q58 0 100 31t69.5 81t40.5 112.5t13 126.5q0 110 -36 171.5t-104 61.5
q-60 0 -103.5 -30.5t-72 -80.5t-42 -115t-13.5 -135q0 -105 35.5 -164t112.5 -59zM443 763q0 29 19.5 46t40.5 17q23 0 37 -15t14 -39q0 -28 -17.5 -45.5t-40.5 -17.5q-24 0 -38.5 15t-14.5 39zM265 763q0 29 19.5 46t40.5 17q23 0 37 -15t14 -39q0 -28 -17.5 -45.5
t-40.5 -17.5q-24 0 -38.5 15t-14.5 39z" />
    <glyph glyph-name="multiply" unicode="&#xd7;" horiz-adv-x="494" 
d="M229 274l161 161q15 -19 22.5 -32t9.5 -22.5t-1 -16t-9 -12.5l-131 -131l138 -138q13 -11 10 -27.5t-31 -53.5l-169 167l-167 -167q-29 38 -32 54.5t8 27.5l139 138l-131 129q-6 6 -8.5 12.5t0 15.5t10.5 22t23 32z" />
    <glyph glyph-name="Oslash" unicode="&#xd8;" horiz-adv-x="668" 
d="M383 662q30 0 57 -5t51 -14l46 76q17 -11 25.5 -19.5t11.5 -16t1.5 -13.5t-5.5 -12l-26 -43q50 -35 75.5 -92t25.5 -126q0 -91 -29 -166t-79.5 -129t-119.5 -84t-149 -30q-54 0 -97 17l-45 -74q-32 21 -36.5 34t3.5 26l26 42q-51 38 -77 97t-26 127q0 80 27.5 153.5
t76.5 129.5t116 89t147 33zM145 256q0 -89 23 -142l288 472q-34 31 -80 31q-60 0 -103.5 -30.5t-72 -80.5t-42 -115t-13.5 -135zM293 33q58 0 100 31t69.5 81t40.5 112.5t13 126.5q0 45 -6.5 81t-17.5 65l-286 -468q34 -29 87 -29z" />
    <glyph glyph-name="Ugrave" unicode="&#xd9;" 
d="M597 222q-12 -53 -32 -96t-52.5 -73.5t-79 -47.5t-110.5 -17q-109 0 -170 47.5t-61 136.5q0 13 1 26t4 27l68 352q4 18 -4.5 28.5t-37.5 13.5q-22 3 -22 18q0 7 5 20q38 -4 69.5 -5.5t55.5 -1.5q10 0 25.5 0.5t33 1t35.5 2t35 3.5q1 -5 1.5 -9t0.5 -8q0 -10 -5.5 -15
t-22.5 -7q-29 -4 -37.5 -12.5t-12.5 -26.5l-69 -347q-8 -40 -8 -69q0 -60 33 -91.5t112 -31.5q72 0 122.5 43t69.5 142l66 346q3 17 -6 31.5t-35 18.5q-15 2 -20.5 6t-5.5 12q0 6 3 18q37 -3 56 -5t38 -2q17 0 38.5 0.5t53.5 4.5q2 -5 3 -9.5t1 -8.5q0 -7 -4.5 -11t-16.5 -6
q-44 -7 -50 -41zM518 754q17 -14 17 -22t-20 -23q-27 14 -47.5 24.5t-38.5 18t-35 14t-38 12.5q-15 5 -25.5 11.5t-10.5 19.5q0 28 65 57z" />
    <glyph glyph-name="Uacute" unicode="&#xda;" 
d="M597 222q-12 -53 -32 -96t-52.5 -73.5t-79 -47.5t-110.5 -17q-109 0 -170 47.5t-61 136.5q0 13 1 26t4 27l68 352q4 18 -4.5 28.5t-37.5 13.5q-22 3 -22 18q0 7 5 20q38 -4 69.5 -5.5t55.5 -1.5q10 0 25.5 0.5t33 1t35.5 2t35 3.5q1 -5 1.5 -9t0.5 -8q0 -10 -5.5 -15
t-22.5 -7q-29 -4 -37.5 -12.5t-12.5 -26.5l-69 -347q-8 -40 -8 -69q0 -60 33 -91.5t112 -31.5q72 0 122.5 43t69.5 142l66 346q3 17 -6 31.5t-35 18.5q-15 2 -20.5 6t-5.5 12q0 6 3 18q37 -3 56 -5t38 -2q17 0 38.5 0.5t53.5 4.5q2 -5 3 -9.5t1 -8.5q0 -7 -4.5 -11t-16.5 -6
q-44 -7 -50 -41zM527 866q65 -29 65 -57q0 -13 -10.5 -19.5t-25.5 -11.5q-21 -6 -38 -12.5t-35 -14t-38.5 -18t-47.5 -24.5q-20 15 -20 23t17 22z" />
    <glyph glyph-name="Ucircumflex" unicode="&#xdb;" 
d="M597 222q-12 -53 -32 -96t-52.5 -73.5t-79 -47.5t-110.5 -17q-109 0 -170 47.5t-61 136.5q0 13 1 26t4 27l68 352q4 18 -4.5 28.5t-37.5 13.5q-22 3 -22 18q0 7 5 20q38 -4 69.5 -5.5t55.5 -1.5q10 0 25.5 0.5t33 1t35.5 2t35 3.5q1 -5 1.5 -9t0.5 -8q0 -10 -5.5 -15
t-22.5 -7q-29 -4 -37.5 -12.5t-12.5 -26.5l-69 -347q-8 -40 -8 -69q0 -60 33 -91.5t112 -31.5q72 0 122.5 43t69.5 142l66 346q3 17 -6 31.5t-35 18.5q-15 2 -20.5 6t-5.5 12q0 6 3 18q37 -3 56 -5t38 -2q17 0 38.5 0.5t53.5 4.5q2 -5 3 -9.5t1 -8.5q0 -7 -4.5 -11t-16.5 -6
q-44 -7 -50 -41zM594 758q15 -20 8 -28.5t-29 -19.5q-31 25 -55 41t-43 27q-31 -14 -62.5 -31t-63.5 -37q-23 12 -25 22t12 22l126 108q32 0 46.5 -4.5t26.5 -20.5z" />
    <glyph glyph-name="Udieresis" unicode="&#xdc;" 
d="M597 222q-12 -53 -32 -96t-52.5 -73.5t-79 -47.5t-110.5 -17q-109 0 -170 47.5t-61 136.5q0 13 1 26t4 27l68 352q4 18 -4.5 28.5t-37.5 13.5q-22 3 -22 18q0 7 5 20q38 -4 69.5 -5.5t55.5 -1.5q10 0 25.5 0.5t33 1t35.5 2t35 3.5q1 -5 1.5 -9t0.5 -8q0 -10 -5.5 -15
t-22.5 -7q-29 -4 -37.5 -12.5t-12.5 -26.5l-69 -347q-8 -40 -8 -69q0 -60 33 -91.5t112 -31.5q72 0 122.5 43t69.5 142l66 346q3 17 -6 31.5t-35 18.5q-15 2 -20.5 6t-5.5 12q0 6 3 18q37 -3 56 -5t38 -2q17 0 38.5 0.5t53.5 4.5q2 -5 3 -9.5t1 -8.5q0 -7 -4.5 -11t-16.5 -6
q-44 -7 -50 -41zM502 763q0 29 19.5 46t40.5 17q23 0 37 -15t14 -39q0 -28 -17.5 -45.5t-40.5 -17.5q-24 0 -38.5 15t-14.5 39zM324 763q0 29 19.5 46t40.5 17q23 0 37 -15t14 -39q0 -28 -17.5 -45.5t-40.5 -17.5q-24 0 -38.5 15t-14.5 39z" />
    <glyph glyph-name="Yacute" unicode="&#xdd;" horiz-adv-x="558" 
d="M213 287l-110 297q-5 13 -14 21t-30 10q-12 1 -17 7t-5 15q0 8 3 19q36 -4 69 -5.5t58 -1.5q21 0 56.5 2t68.5 5q4 -11 4 -19q0 -17 -19 -18q-35 -5 -41 -16t2 -32l76 -229l170 231q12 17 2.5 31t-36.5 16q-21 1 -21 18q0 4 1 8.5t3 10.5q24 -4 52.5 -5.5t48.5 -1.5
q17 0 43 1.5t58 5.5q2 -6 3 -10t1 -8q0 -10 -7.5 -14.5t-22.5 -7.5q-19 -4 -31.5 -12t-23.5 -22l-214 -285l-44 -226q-4 -20 7.5 -29t35.5 -12q11 -2 16.5 -5.5t5.5 -12.5t-4 -20q-38 3 -74 5t-61 2q-10 0 -26 -0.5t-34 -1.5t-37 -2.5t-35 -2.5q-2 5 -3 9t-1 9q0 7 4.5 12
t16.5 7q56 9 64 44zM442 866q65 -29 65 -57q0 -13 -10.5 -19.5t-25.5 -11.5q-21 -6 -38 -12.5t-35 -14t-38.5 -18t-47.5 -24.5q-20 15 -20 23t17 22z" />
    <glyph glyph-name="Thorn" unicode="&#xde;" horiz-adv-x="550" 
d="M195 69q-4 -20 6 -27.5t37 -12.5q16 -3 18.5 -11t-2.5 -25q-37 3 -73 5t-59 2q-20 0 -52.5 -2t-66.5 -5q-5 14 -3 24t18 12q26 4 39 13.5t17 28.5l98 509q4 18 -3.5 28t-36.5 13q-20 2 -21.5 11t4.5 25q37 -3 69 -5t55 -2q20 0 56 1.5t71 5.5q5 -17 2.5 -25.5
t-22.5 -11.5q-28 -4 -39.5 -13t-15.5 -29l-12 -62h30q105 0 163 -41t58 -119q0 -47 -19 -87t-54 -69t-85 -45.5t-113 -16.5h-23q3 17 10 30t27 14q64 2 96.5 44t32.5 117q0 60 -28 95.5t-85 35.5h-17z" />
    <glyph glyph-name="germandbls" unicode="&#xdf;" horiz-adv-x="481" 
d="M76 397q5 29 10 59t10 59q7 48 29 84.5t52.5 61.5t67.5 38t76 13q30 0 60 -8t53 -23.5t37.5 -37.5t14.5 -50q0 -19 -8 -37t-20 -34.5t-27.5 -32t-30.5 -29.5q-23 -22 -38 -43.5t-15 -47.5q0 -29 14.5 -53.5t28.5 -44.5q17 -25 29 -49.5t12 -47.5q0 -39 -18 -73t-48.5 -59
t-70 -39.5t-82.5 -14.5q-11 0 -23 1t-22.5 3.5t-17.5 7t-7 12.5t3.5 18.5t10 20t14.5 16t17 6.5t17.5 -6t17.5 -12.5t19 -12.5t22 -6q29 0 47.5 23.5t18.5 71.5q0 32 -15.5 59t-30.5 49q-17 26 -27.5 49.5t-10.5 48.5q0 31 19 57t55 59l23.5 23.5t20 26t13.5 32t5 40.5
q0 47 -25.5 71.5t-59.5 24.5q-17 0 -30.5 -7.5t-25.5 -29t-22.5 -59.5t-20.5 -98l-62 -373q-23 -138 -73 -220t-118 -121q-11 -6 -24.5 -10.5t-30.5 -4.5q-11 0 -26.5 3t-27.5 8q5 17 11.5 43t8.5 48l22 7q13 -17 25 -28.5t30 -11.5q26 0 44.5 57t38.5 163z" />
    <glyph glyph-name="agrave" unicode="&#xe0;" horiz-adv-x="478" 
d="M276 156l-4 1q-47 -90 -98 -129.5t-90 -39.5q-18 0 -34.5 4.5t-29.5 16t-21 30.5t-8 48q0 85 28.5 151t71.5 111.5t93 69t93 23.5q32 0 65 -4t77 -13l-67 -338q-1 -5 -1.5 -8.5t-0.5 -5.5q0 -9 9 -9q6 0 14.5 3.5t16.5 8t15 8t11 3.5q8 0 12.5 -8.5t5.5 -16.5
q-16 -11 -37.5 -24t-44 -24t-44 -18.5t-37.5 -7.5q-17 0 -26 7t-9 24q0 11 5 28zM301 393q-8 2 -17.5 4t-17.5 2q-35 0 -64 -22t-50 -60t-32.5 -90t-11.5 -113q0 -27 4.5 -42t20.5 -15t35 16.5t38 44t36.5 62.5t31 72.5t21 74t6.5 66.5zM345 528q9 -19 2 -26.5t-26 -12.5
q-20 24 -33.5 40t-25.5 28t-24 22.5t-27 23.5q-11 10 -15.5 17.5t-4.5 15.5q0 11 9.5 18.5t23.5 11.5t28.5 5.5t25.5 1.5z" />
    <glyph glyph-name="aacute" unicode="&#xe1;" horiz-adv-x="478" 
d="M276 156l-4 1q-47 -90 -98 -129.5t-90 -39.5q-18 0 -34.5 4.5t-29.5 16t-21 30.5t-8 48q0 85 28.5 151t71.5 111.5t93 69t93 23.5q32 0 65 -4t77 -13l-67 -338q-1 -5 -1.5 -8.5t-0.5 -5.5q0 -9 9 -9q6 0 14.5 3.5t16.5 8t15 8t11 3.5q8 0 12.5 -8.5t5.5 -16.5
q-16 -11 -37.5 -24t-44 -24t-44 -18.5t-37.5 -7.5q-17 0 -26 7t-9 24q0 11 5 28zM301 393q-8 2 -17.5 4t-17.5 2q-35 0 -64 -22t-50 -60t-32.5 -90t-11.5 -113q0 -27 4.5 -42t20.5 -15t35 16.5t38 44t36.5 62.5t31 72.5t21 74t6.5 66.5zM362 673q14 -3 28 -7.5t25 -10.5
t18 -14t7 -17q0 -18 -29 -35q-17 -10 -32 -19.5t-31.5 -21.5t-36 -26.5t-45.5 -35.5q-17 9 -22.5 18t7.5 26z" />
    <glyph glyph-name="acircumflex" unicode="&#xe2;" horiz-adv-x="478" 
d="M276 156l-4 1q-47 -90 -98 -129.5t-90 -39.5q-18 0 -34.5 4.5t-29.5 16t-21 30.5t-8 48q0 85 28.5 151t71.5 111.5t93 69t93 23.5q32 0 65 -4t77 -13l-67 -338q-1 -5 -1.5 -8.5t-0.5 -5.5q0 -9 9 -9q6 0 14.5 3.5t16.5 8t15 8t11 3.5q8 0 12.5 -8.5t5.5 -16.5
q-16 -11 -37.5 -24t-44 -24t-44 -18.5t-37.5 -7.5q-17 0 -26 7t-9 24q0 11 5 28zM301 393q-8 2 -17.5 4t-17.5 2q-35 0 -64 -22t-50 -60t-32.5 -90t-11.5 -113q0 -27 4.5 -42t20.5 -15t35 16.5t38 44t36.5 62.5t31 72.5t21 74t6.5 66.5zM420 524q5 -13 1 -21t-26 -18
q-21 28 -42.5 52.5t-39.5 39.5q-26 -17 -58.5 -42t-67.5 -54q-12 7 -17.5 14t-6.5 12t1 9.5t5 7.5l121 138q42 3 59.5 -4t25.5 -25z" />
    <glyph glyph-name="atilde" unicode="&#xe3;" horiz-adv-x="478" 
d="M276 156l-4 1q-47 -90 -98 -129.5t-90 -39.5q-18 0 -34.5 4.5t-29.5 16t-21 30.5t-8 48q0 85 28.5 151t71.5 111.5t93 69t93 23.5q32 0 65 -4t77 -13l-67 -338q-1 -5 -1.5 -8.5t-0.5 -5.5q0 -9 9 -9q6 0 14.5 3.5t16.5 8t15 8t11 3.5q8 0 12.5 -8.5t5.5 -16.5
q-16 -11 -37.5 -24t-44 -24t-44 -18.5t-37.5 -7.5q-17 0 -26 7t-9 24q0 11 5 28zM301 393q-8 2 -17.5 4t-17.5 2q-35 0 -64 -22t-50 -60t-32.5 -90t-11.5 -113q0 -27 4.5 -42t20.5 -15t35 16.5t38 44t36.5 62.5t31 72.5t21 74t6.5 66.5zM191 562q35 32 55.5 46t43.5 14
q12 0 23 -4t22 -9.5t21.5 -9.5t20.5 -4q8 0 21.5 5t38.5 22q13 -6 16.5 -14t-8.5 -21q-22 -23 -45 -41.5t-47 -18.5q-14 0 -26 5t-23 10.5t-22.5 10.5t-24.5 5t-26.5 -8.5t-30.5 -22.5q-14 8 -18.5 15t9.5 20z" />
    <glyph glyph-name="adieresis" unicode="&#xe4;" horiz-adv-x="478" 
d="M276 156l-4 1q-47 -90 -98 -129.5t-90 -39.5q-18 0 -34.5 4.5t-29.5 16t-21 30.5t-8 48q0 85 28.5 151t71.5 111.5t93 69t93 23.5q32 0 65 -4t77 -13l-67 -338q-1 -5 -1.5 -8.5t-0.5 -5.5q0 -9 9 -9q6 0 14.5 3.5t16.5 8t15 8t11 3.5q8 0 12.5 -8.5t5.5 -16.5
q-16 -11 -37.5 -24t-44 -24t-44 -18.5t-37.5 -7.5q-17 0 -26 7t-9 24q0 11 5 28zM301 393q-8 2 -17.5 4t-17.5 2q-35 0 -64 -22t-50 -60t-32.5 -90t-11.5 -113q0 -27 4.5 -42t20.5 -15t35 16.5t38 44t36.5 62.5t31 72.5t21 74t6.5 66.5zM348 575q0 29 19.5 46t40.5 17
q23 0 37 -15t14 -39q0 -28 -17.5 -45.5t-40.5 -17.5q-24 0 -38.5 15t-14.5 39zM170 575q0 29 19.5 46t40.5 17q23 0 37 -15t14 -39q0 -28 -17.5 -45.5t-40.5 -17.5q-24 0 -38.5 15t-14.5 39z" />
    <glyph glyph-name="aring" unicode="&#xe5;" horiz-adv-x="478" 
d="M276 156l-4 1q-47 -90 -98 -129.5t-90 -39.5q-18 0 -34.5 4.5t-29.5 16t-21 30.5t-8 48q0 85 28.5 151t71.5 111.5t93 69t93 23.5q32 0 65 -4t77 -13l-67 -338q-1 -5 -1.5 -8.5t-0.5 -5.5q0 -9 9 -9q6 0 14.5 3.5t16.5 8t15 8t11 3.5q8 0 12.5 -8.5t5.5 -16.5
q-16 -11 -37.5 -24t-44 -24t-44 -18.5t-37.5 -7.5q-17 0 -26 7t-9 24q0 11 5 28zM301 393q-8 2 -17.5 4t-17.5 2q-35 0 -64 -22t-50 -60t-32.5 -90t-11.5 -113q0 -27 4.5 -42t20.5 -15t35 16.5t38 44t36.5 62.5t31 72.5t21 74t6.5 66.5zM212 566q0 19 8.5 36.5t22.5 30
t33.5 20t41.5 7.5q24 0 40 -6.5t25.5 -17t14 -24t4.5 -26.5q0 -24 -9 -42.5t-23.5 -32t-32.5 -20.5t-36 -7q-47 0 -68 23.5t-21 58.5zM302 518q16 0 25.5 19t9.5 51q0 38 -25 38q-17 0 -26 -20t-9 -50q0 -20 7 -29t18 -9z" />
    <glyph glyph-name="ae" unicode="&#xe6;" horiz-adv-x="657" 
d="M627 348q0 -36 -18.5 -62.5t-51.5 -44t-79 -27.5t-102 -13q-1 -10 -1 -19v-19q0 -22 4 -43t13 -37.5t23.5 -26.5t35.5 -10q23 0 48 8t54 27q9 6 14.5 9.5t13.5 3.5q9 0 12.5 -10t3.5 -14q-14 -12 -33.5 -26.5t-43 -27t-50.5 -20.5t-56 -8q-44 0 -72.5 13t-45.5 34t-25 48
t-10 54q-45 -80 -92.5 -114.5t-84.5 -34.5q-18 0 -34.5 4.5t-29.5 16t-21 30.5t-8 48q0 85 28.5 151t71.5 111.5t93 69t93 23.5q32 0 56 -2.5t53 -8.5l-6 -29q27 19 58.5 29.5t67.5 10.5q51 0 86 -21.5t35 -72.5zM301 393q-8 2 -17.5 4t-17.5 2q-35 0 -64 -22t-50 -60
t-32.5 -90t-11.5 -113q0 -27 4.5 -42t20.5 -15t35 16.5t38 44t36.5 62.5t31 72.5t21 74t6.5 66.5zM487 402q-19 0 -36 -13.5t-31 -36.5t-24 -52.5t-15 -62.5q40 4 67 15t43 26.5t23 35t7 40.5q0 23 -9.5 35.5t-24.5 12.5z" />
    <glyph glyph-name="ccedilla" unicode="&#xe7;" horiz-adv-x="387" 
d="M238 404q-36 0 -60 -28t-38 -68t-19.5 -82.5t-5.5 -72.5q0 -47 18 -77t60 -30q18 0 34 4.5t28.5 11t22 13t15.5 10.5l6 4t8 2q10 0 14 -8.5t5 -16.5q-22 -20 -54 -40.5t-73 -30.5q-13 -17 -18.5 -27t-5.5 -20q0 -9 6.5 -18t14.5 -19t14.5 -20.5t6.5 -22.5q0 -14 -7 -26.5
t-22.5 -25.5t-41.5 -27t-64 -30q-11 15 -9.5 23.5t15.5 16.5q26 14 37.5 23.5t11.5 22.5q0 10 -5.5 18.5t-12.5 17t-12.5 17.5t-5.5 20q0 5 2 10.5t7 13t15 18.5t25 28h-2q-42 0 -70 13t-45.5 34.5t-25 49.5t-7.5 58q0 48 15.5 101t46 97t76.5 72.5t106 28.5q33 0 65 -8.5
t58 -22.5q-2 -6 -4.5 -18t-4.5 -26t-4 -28.5t-3 -26.5l-16 1q-11 1 -16 3.5t-8 12.5q-13 42 -28.5 58.5t-44.5 16.5z" />
    <glyph glyph-name="egrave" unicode="&#xe8;" horiz-adv-x="396" 
d="M366 348q0 -36 -18 -62.5t-51 -44t-79 -27.5t-102 -13q-1 -10 -1.5 -19t-0.5 -19q0 -22 3.5 -43t12.5 -37t24.5 -26t39.5 -10q18 0 43.5 7.5t54.5 26.5q9 6 14.5 10t12.5 4q10 0 13.5 -10.5t3.5 -14.5q-13 -12 -32.5 -26.5t-44 -26.5t-53 -20.5t-58.5 -8.5q-46 0 -75 15
t-45 39t-22 53t-6 57q0 54 17.5 106t50 93t77.5 66t100 25q51 0 86 -21.5t35 -72.5zM226 402q-19 0 -36 -13.5t-31 -36.5t-24 -52.5t-15 -62.5q40 4 67 15t43 26.5t23 35t7 40.5q0 23 -9.5 35.5t-24.5 12.5zM305 528q9 -19 2 -26.5t-26 -12.5q-20 24 -33.5 40t-25.5 28
t-24 22.5t-27 23.5q-11 10 -15.5 17.5t-4.5 15.5q0 11 9.5 18.5t23.5 11.5t28.5 5.5t25.5 1.5z" />
    <glyph glyph-name="eacute" unicode="&#xe9;" horiz-adv-x="396" 
d="M366 348q0 51 -35 72.5t-86 21.5q-55 0 -100 -25t-77.5 -66t-50 -93t-17.5 -106q0 -28 6 -57t22 -53t45 -39t75 -15q30 0 58.5 8.5t53 20.5t44 26.5t32.5 26.5q0 4 -3.5 14.5t-13.5 10.5q-7 0 -12.5 -4t-14.5 -10q-29 -19 -54.5 -26.5t-43.5 -7.5q-24 0 -39.5 10
t-24.5 26t-12.5 37t-3.5 43q0 10 0.5 19t1.5 19q56 3 102 13t79 27.5t51 44t18 62.5zM226 402q15 0 24.5 -12.5t9.5 -35.5q0 -21 -7 -40.5t-23 -35t-43 -26.5t-67 -15q5 33 15 62.5t24 52.5t31 36.5t36 13.5zM315 673q14 -3 28 -7.5t25 -10.5t18 -14t7 -17q0 -18 -29 -35
q-17 -10 -32 -19.5t-31.5 -21.5t-36 -26.5t-45.5 -35.5q-17 9 -22.5 18t7.5 26z" />
    <glyph glyph-name="ecircumflex" unicode="&#xea;" horiz-adv-x="396" 
d="M366 348q0 51 -35 72.5t-86 21.5q-55 0 -100 -25t-77.5 -66t-50 -93t-17.5 -106q0 -28 6 -57t22 -53t45 -39t75 -15q30 0 58.5 8.5t53 20.5t44 26.5t32.5 26.5q0 4 -3.5 14.5t-13.5 10.5q-7 0 -12.5 -4t-14.5 -10q-29 -19 -54.5 -26.5t-43.5 -7.5q-24 0 -39.5 10
t-24.5 26t-12.5 37t-3.5 43q0 10 0.5 19t1.5 19q56 3 102 13t79 27.5t51 44t18 62.5zM226 402q15 0 24.5 -12.5t9.5 -35.5q0 -21 -7 -40.5t-23 -35t-43 -26.5t-67 -15q5 33 15 62.5t24 52.5t31 36.5t36 13.5zM383 524q5 -13 1 -21t-26 -18q-21 28 -42.5 52.5t-39.5 39.5
q-26 -17 -58.5 -42t-67.5 -54q-12 7 -17.5 14t-6.5 12t1 9.5t5 7.5l121 138q42 3 59.5 -4t25.5 -25z" />
    <glyph glyph-name="edieresis" unicode="&#xeb;" horiz-adv-x="396" 
d="M366 348q0 -36 -18 -62.5t-51 -44t-79 -27.5t-102 -13q-1 -10 -1.5 -19t-0.5 -19q0 -22 3.5 -43t12.5 -37t24.5 -26t39.5 -10q18 0 43.5 7.5t54.5 26.5q9 6 14.5 10t12.5 4q10 0 13.5 -10.5t3.5 -14.5q-13 -12 -32.5 -26.5t-44 -26.5t-53 -20.5t-58.5 -8.5q-46 0 -75 15
t-45 39t-22 53t-6 57q0 54 17.5 106t50 93t77.5 66t100 25q51 0 86 -21.5t35 -72.5zM226 402q-19 0 -36 -13.5t-31 -36.5t-24 -52.5t-15 -62.5q40 4 67 15t43 26.5t23 35t7 40.5q0 23 -9.5 35.5t-24.5 12.5zM307 575q0 29 19.5 46t40.5 17q23 0 37 -15t14 -39
q0 -28 -17.5 -45.5t-40.5 -17.5q-24 0 -38.5 15t-14.5 39zM129 575q0 29 19.5 46t40.5 17q23 0 37 -15t14 -39q0 -28 -17.5 -45.5t-40.5 -17.5q-24 0 -38.5 15t-14.5 39z" />
    <glyph glyph-name="igrave" unicode="&#xec;" horiz-adv-x="263" 
d="M137 91q-3 -12 -3 -18q0 -9 9 -9q6 0 14.5 3.5t16.5 8t15 8t11 3.5q8 0 12.5 -8.5t5.5 -16.5q-16 -11 -37.5 -24t-44 -24t-44 -18.5t-37.5 -7.5q-17 0 -28.5 7t-11.5 24q0 6 1 11.5t2 9.5l64 305q3 15 -5 15q-3 0 -9 -2.5t-13.5 -5.5t-15 -5.5t-12.5 -2.5q-9 0 -13.5 9
t-6.5 17q19 10 45.5 23t52 23.5t46.5 18t30 7.5q8 0 15 -4t7 -14q0 -3 -0.5 -8t-1.5 -10zM210 528q9 -19 2 -26.5t-26 -12.5q-20 24 -33.5 40t-25.5 28t-24 22.5t-27 23.5q-11 10 -15.5 17.5t-4.5 15.5q0 11 9.5 18.5t23.5 11.5t28.5 5.5t25.5 1.5z" />
    <glyph glyph-name="iacute" unicode="&#xed;" horiz-adv-x="263" 
d="M137 91q-3 -12 -3 -18q0 -9 9 -9q6 0 14.5 3.5t16.5 8t15 8t11 3.5q8 0 12.5 -8.5t5.5 -16.5q-16 -11 -37.5 -24t-44 -24t-44 -18.5t-37.5 -7.5q-17 0 -28.5 7t-11.5 24q0 6 1 11.5t2 9.5l64 305q3 15 -5 15q-3 0 -9 -2.5t-13.5 -5.5t-15 -5.5t-12.5 -2.5q-9 0 -13.5 9
t-6.5 17q19 10 45.5 23t52 23.5t46.5 18t30 7.5q8 0 15 -4t7 -14q0 -3 -0.5 -8t-1.5 -10zM209 673q14 -3 28 -7.5t25 -10.5t18 -14t7 -17q0 -18 -29 -35q-17 -10 -32 -19.5t-31.5 -21.5t-36 -26.5t-45.5 -35.5q-17 9 -22.5 18t7.5 26z" />
    <glyph glyph-name="icircumflex" unicode="&#xee;" horiz-adv-x="263" 
d="M137 91q-3 -12 -3 -18q0 -9 9 -9q6 0 14.5 3.5t16.5 8t15 8t11 3.5q8 0 12.5 -8.5t5.5 -16.5q-16 -11 -37.5 -24t-44 -24t-44 -18.5t-37.5 -7.5q-17 0 -28.5 7t-11.5 24q0 6 1 11.5t2 9.5l64 305q3 15 -5 15q-3 0 -9 -2.5t-13.5 -5.5t-15 -5.5t-12.5 -2.5q-9 0 -13.5 9
t-6.5 17q19 10 45.5 23t52 23.5t46.5 18t30 7.5q8 0 15 -4t7 -14q0 -3 -0.5 -8t-1.5 -10zM280 524q5 -13 1 -21t-26 -18q-21 28 -42.5 52.5t-39.5 39.5q-26 -17 -58.5 -42t-67.5 -54q-12 7 -17.5 14t-6.5 12t1 9.5t5 7.5l121 138q42 3 59.5 -4t25.5 -25z" />
    <glyph glyph-name="idieresis" unicode="&#xef;" horiz-adv-x="263" 
d="M137 91q-3 -12 -3 -18q0 -9 9 -9q6 0 14.5 3.5t16.5 8t15 8t11 3.5q8 0 12.5 -8.5t5.5 -16.5q-16 -11 -37.5 -24t-44 -24t-44 -18.5t-37.5 -7.5q-17 0 -28.5 7t-11.5 24q0 6 1 11.5t2 9.5l64 305q3 15 -5 15q-3 0 -9 -2.5t-13.5 -5.5t-15 -5.5t-12.5 -2.5q-9 0 -13.5 9
t-6.5 17q19 10 45.5 23t52 23.5t46.5 18t30 7.5q8 0 15 -4t7 -14q0 -3 -0.5 -8t-1.5 -10zM212 575q0 29 19.5 46t40.5 17q23 0 37 -15t14 -39q0 -28 -17.5 -45.5t-40.5 -17.5q-24 0 -38.5 15t-14.5 39zM34 575q0 29 19.5 46t40.5 17q23 0 37 -15t14 -39q0 -28 -17.5 -45.5
t-40.5 -17.5q-24 0 -38.5 15t-14.5 39z" />
    <glyph glyph-name="eth" unicode="&#xf0;" horiz-adv-x="483" 
d="M166 674q-20 14 -15 25t19 23q90 -48 148 -103l112 62q13 -12 18 -20.5t4.5 -14.5t-5.5 -10t-12 -8l-82 -44q47 -55 68.5 -116t21.5 -130q0 -54 -17 -115.5t-52 -113.5t-88 -86.5t-125 -34.5q-45 0 -76 13t-49.5 35t-27 51t-8.5 62q0 60 22 111t57 89t79.5 59.5
t88.5 21.5q16 0 33 -1t33 -4q-5 32 -14.5 62t-22.5 56l-101 -54q-19 17 -21.5 28.5t15.5 21.5l83 45q-19 29 -41 51.5t-45 38.5zM320 354q-9 12 -33 21.5t-47 9.5q-30 0 -51.5 -19.5t-35.5 -50t-21 -68t-7 -74.5q0 -77 18 -108t48 -31q26 0 49.5 22t41 59.5t28.5 88.5
t11 110v21.5t-1 18.5z" />
    <glyph glyph-name="ntilde" unicode="&#xf1;" horiz-adv-x="517" 
d="M325 296q4 17 6 29t2 21q0 20 -16 20q-11 0 -28.5 -15.5t-38.5 -40.5t-42.5 -56.5t-39.5 -64.5q-18 -32 -30.5 -76.5t-12.5 -79.5q0 -16 3 -29q-24 -3 -48.5 -7t-52.5 -12q-17 7 -17 18q0 5 1 10.5t2 8.5l64 323q2 6 1 10.5t-5 4.5q-3 0 -9 -2.5t-13.5 -5.5t-15 -5.5
t-12.5 -2.5q-9 0 -13.5 9t-6.5 17q19 12 45 24.5t51.5 23t46.5 17.5t31 7q8 0 15 -4t7 -14v-8t-2 -10l-38 -154l3 -1q22 36 46.5 70.5t51.5 61.5t56.5 43t61.5 16q27 0 47 -12.5t20 -45.5q0 -12 -1.5 -28.5t-5.5 -35.5l-48 -229q-3 -12 -3 -18q0 -9 9 -9q6 0 14.5 3.5
t16.5 8t15 8t11 3.5q8 0 12.5 -8.5t5.5 -16.5q-16 -11 -37.5 -24t-44 -24t-44 -18.5t-37.5 -7.5q-17 0 -28.5 7t-11.5 24q0 6 1 11.5t2 9.5zM183 562q35 32 55.5 46t43.5 14q12 0 23 -4t22 -9.5t21.5 -9.5t20.5 -4q8 0 21.5 5t38.5 22q13 -6 16.5 -14t-8.5 -21
q-22 -23 -45 -41.5t-47 -18.5q-14 0 -26 5t-23 10.5t-22.5 10.5t-24.5 5t-26.5 -8.5t-30.5 -22.5q-14 8 -18.5 15t9.5 20z" />
    <glyph glyph-name="ograve" unicode="&#xf2;" horiz-adv-x="439" 
d="M245 442q39 0 67 -13t47 -36t28 -53.5t9 -66.5q0 -72 -23 -125.5t-60 -89t-83 -53t-91 -17.5q-38 0 -65 12t-43.5 33.5t-24 52t-7.5 66.5q0 67 23.5 121t59.5 91.5t79.5 57.5t83.5 20zM167 32q25 0 46 17.5t36 48.5t23.5 74t8.5 93q0 61 -10.5 97t-41.5 36
q-28 0 -49.5 -21.5t-36 -55.5t-22 -76t-7.5 -83q0 -63 12 -96.5t41 -33.5zM303 528q9 -19 2 -26.5t-26 -12.5q-20 24 -33.5 40t-25.5 28t-24 22.5t-27 23.5q-11 10 -15.5 17.5t-4.5 15.5q0 11 9.5 18.5t23.5 11.5t28.5 5.5t25.5 1.5z" />
    <glyph glyph-name="oacute" unicode="&#xf3;" horiz-adv-x="439" 
d="M245 442q39 0 67 -13t47 -36t28 -53.5t9 -66.5q0 -72 -23 -125.5t-60 -89t-83 -53t-91 -17.5q-38 0 -65 12t-43.5 33.5t-24 52t-7.5 66.5q0 67 23.5 121t59.5 91.5t79.5 57.5t83.5 20zM167 32q25 0 46 17.5t36 48.5t23.5 74t8.5 93q0 61 -10.5 97t-41.5 36
q-28 0 -49.5 -21.5t-36 -55.5t-22 -76t-7.5 -83q0 -63 12 -96.5t41 -33.5zM310 673q14 -3 28 -7.5t25 -10.5t18 -14t7 -17q0 -18 -29 -35q-17 -10 -32 -19.5t-31.5 -21.5t-36 -26.5t-45.5 -35.5q-17 9 -22.5 18t7.5 26z" />
    <glyph glyph-name="ocircumflex" unicode="&#xf4;" horiz-adv-x="439" 
d="M245 442q39 0 67 -13t47 -36t28 -53.5t9 -66.5q0 -72 -23 -125.5t-60 -89t-83 -53t-91 -17.5q-38 0 -65 12t-43.5 33.5t-24 52t-7.5 66.5q0 67 23.5 121t59.5 91.5t79.5 57.5t83.5 20zM167 32q25 0 46 17.5t36 48.5t23.5 74t8.5 93q0 61 -10.5 97t-41.5 36
q-28 0 -49.5 -21.5t-36 -55.5t-22 -76t-7.5 -83q0 -63 12 -96.5t41 -33.5zM383 524q5 -13 1 -21t-26 -18q-21 28 -42.5 52.5t-39.5 39.5q-26 -17 -58.5 -42t-67.5 -54q-12 7 -17.5 14t-6.5 12t1 9.5t5 7.5l121 138q42 3 59.5 -4t25.5 -25z" />
    <glyph glyph-name="otilde" unicode="&#xf5;" horiz-adv-x="439" 
d="M245 442q39 0 67 -13t47 -36t28 -53.5t9 -66.5q0 -72 -23 -125.5t-60 -89t-83 -53t-91 -17.5q-38 0 -65 12t-43.5 33.5t-24 52t-7.5 66.5q0 67 23.5 121t59.5 91.5t79.5 57.5t83.5 20zM167 32q25 0 46 17.5t36 48.5t23.5 74t8.5 93q0 61 -10.5 97t-41.5 36
q-28 0 -49.5 -21.5t-36 -55.5t-22 -76t-7.5 -83q0 -63 12 -96.5t41 -33.5zM143 562q35 32 55.5 46t43.5 14q12 0 23 -4t22 -9.5t21.5 -9.5t20.5 -4q8 0 21.5 5t38.5 22q13 -6 16.5 -14t-8.5 -21q-22 -23 -45 -41.5t-47 -18.5q-14 0 -26 5t-23 10.5t-22.5 10.5t-24.5 5
t-26.5 -8.5t-30.5 -22.5q-14 8 -18.5 15t9.5 20z" />
    <glyph glyph-name="odieresis" unicode="&#xf6;" horiz-adv-x="439" 
d="M245 442q39 0 67 -13t47 -36t28 -53.5t9 -66.5q0 -72 -23 -125.5t-60 -89t-83 -53t-91 -17.5q-38 0 -65 12t-43.5 33.5t-24 52t-7.5 66.5q0 67 23.5 121t59.5 91.5t79.5 57.5t83.5 20zM167 32q25 0 46 17.5t36 48.5t23.5 74t8.5 93q0 61 -10.5 97t-41.5 36
q-28 0 -49.5 -21.5t-36 -55.5t-22 -76t-7.5 -83q0 -63 12 -96.5t41 -33.5zM300 575q0 29 19.5 46t40.5 17q23 0 37 -15t14 -39q0 -28 -17.5 -45.5t-40.5 -17.5q-24 0 -38.5 15t-14.5 39zM122 575q0 29 19.5 46t40.5 17q23 0 37 -15t14 -39q0 -28 -17.5 -45.5t-40.5 -17.5
q-24 0 -38.5 15t-14.5 39z" />
    <glyph glyph-name="divide" unicode="&#xf7;" horiz-adv-x="494" 
d="M169 362q0 30 17 51.5t42 21.5q26 0 42.5 -17.5t16.5 -43.5q0 -32 -17.5 -53.5t-41.5 -21.5q-28 0 -43.5 18t-15.5 45zM12 195q5 35 18 50.5t39 15.5h379q-5 -35 -18 -50.5t-39 -15.5h-379zM169 77q0 30 17 51.5t42 21.5q26 0 42.5 -17.5t16.5 -43.5q0 -32 -17.5 -53.5
t-41.5 -21.5q-28 0 -43.5 18t-15.5 45z" />
    <glyph glyph-name="oslash" unicode="&#xf8;" horiz-adv-x="440" 
d="M246 446q21 0 43 -5l33 67q17 -10 25.5 -18t11 -15.5t1 -14.5t-4.5 -13l-15 -30q29 -23 43 -59t14 -81q0 -72 -23 -125.5t-60 -89t-83 -53t-91 -17.5q-3 0 -6 0.5t-6 0.5l-38 -77q-32 19 -37 30.5t2 25.5l17 33q-39 18 -55.5 57.5t-16.5 93.5q0 67 23.5 121t59.5 91.5
t79.5 57.5t83.5 20zM115 166q0 -24 1.5 -44t5.5 -35l139 299q-13 16 -31 16q-28 0 -49.5 -21.5t-36 -55.5t-22 -76t-7.5 -83zM168 36q25 0 46 17.5t36 48.5t23.5 74t8.5 93q0 14 -0.5 26t-1.5 23l-129 -279q7 -3 17 -3z" />
    <glyph glyph-name="ugrave" unicode="&#xf9;" horiz-adv-x="520" 
d="M146 134q-4 -17 -6 -29t-2 -21q0 -20 16 -20q10 0 28 15.5t39 40.5t42.5 56.5t39.5 64.5q18 32 30.5 76.5t12.5 79.5q0 15 -3 29q24 3 48.5 7t52.5 12q17 -7 17 -18q0 -5 -1 -10.5t-2 -8.5l-64 -319q-3 -16 -0.5 -20.5t8.5 -4.5q12 0 27.5 9.5t24.5 9.5t11 -7.5t3 -15.5
q-19 -12 -42 -25t-45.5 -23.5t-42.5 -17t-32 -6.5q-31 0 -31 27q0 8 3 19l34 144l-3 1q-23 -36 -47 -70.5t-51 -61.5t-56.5 -43t-61.5 -16q-27 0 -47 12.5t-20 45.5q0 12 1.5 28.5t5.5 35.5l47 223q3 14 2.5 20.5t-8.5 6.5q-6 0 -14 -2.5t-16 -6t-15 -6t-11 -2.5
q-8 0 -12.5 8.5t-5.5 16.5q14 9 38 21.5t49.5 24.5t49 20t35.5 8q14 0 22.5 -7t8.5 -24q0 -6 -1 -11.5t-2 -9.5zM349 528q9 -19 2 -26.5t-26 -12.5q-20 24 -33.5 40t-25.5 28t-24 22.5t-27 23.5q-11 10 -15.5 17.5t-4.5 15.5q0 11 9.5 18.5t23.5 11.5t28.5 5.5t25.5 1.5z
" />
    <glyph glyph-name="uacute" unicode="&#xfa;" horiz-adv-x="520" 
d="M146 134q-4 -17 -6 -29t-2 -21q0 -20 16 -20q10 0 28 15.5t39 40.5t42.5 56.5t39.5 64.5q18 32 30.5 76.5t12.5 79.5q0 15 -3 29q24 3 48.5 7t52.5 12q17 -7 17 -18q0 -5 -1 -10.5t-2 -8.5l-64 -319q-3 -16 -0.5 -20.5t8.5 -4.5q12 0 27.5 9.5t24.5 9.5t11 -7.5t3 -15.5
q-19 -12 -42 -25t-45.5 -23.5t-42.5 -17t-32 -6.5q-31 0 -31 27q0 8 3 19l34 144l-3 1q-23 -36 -47 -70.5t-51 -61.5t-56.5 -43t-61.5 -16q-27 0 -47 12.5t-20 45.5q0 12 1.5 28.5t5.5 35.5l47 223q3 14 2.5 20.5t-8.5 6.5q-6 0 -14 -2.5t-16 -6t-15 -6t-11 -2.5
q-8 0 -12.5 8.5t-5.5 16.5q14 9 38 21.5t49.5 24.5t49 20t35.5 8q14 0 22.5 -7t8.5 -24q0 -6 -1 -11.5t-2 -9.5zM367 673q14 -3 28 -7.5t25 -10.5t18 -14t7 -17q0 -18 -29 -35q-17 -10 -32 -19.5t-31.5 -21.5t-36 -26.5t-45.5 -35.5q-17 9 -22.5 18t7.5 26z" />
    <glyph glyph-name="ucircumflex" unicode="&#xfb;" horiz-adv-x="520" 
d="M146 134q-4 -17 -6 -29t-2 -21q0 -20 16 -20q10 0 28 15.5t39 40.5t42.5 56.5t39.5 64.5q18 32 30.5 76.5t12.5 79.5q0 15 -3 29q24 3 48.5 7t52.5 12q17 -7 17 -18q0 -5 -1 -10.5t-2 -8.5l-64 -319q-3 -16 -0.5 -20.5t8.5 -4.5q12 0 27.5 9.5t24.5 9.5t11 -7.5t3 -15.5
q-19 -12 -42 -25t-45.5 -23.5t-42.5 -17t-32 -6.5q-31 0 -31 27q0 8 3 19l34 144l-3 1q-23 -36 -47 -70.5t-51 -61.5t-56.5 -43t-61.5 -16q-27 0 -47 12.5t-20 45.5q0 12 1.5 28.5t5.5 35.5l47 223q3 14 2.5 20.5t-8.5 6.5q-6 0 -14 -2.5t-16 -6t-15 -6t-11 -2.5
q-8 0 -12.5 8.5t-5.5 16.5q14 9 38 21.5t49.5 24.5t49 20t35.5 8q14 0 22.5 -7t8.5 -24q0 -6 -1 -11.5t-2 -9.5zM430 524q5 -13 1 -21t-26 -18q-21 28 -42.5 52.5t-39.5 39.5q-26 -17 -58.5 -42t-67.5 -54q-12 7 -17.5 14t-6.5 12t1 9.5t5 7.5l121 138q42 3 59.5 -4
t25.5 -25z" />
    <glyph glyph-name="udieresis" unicode="&#xfc;" horiz-adv-x="520" 
d="M146 134q-4 -17 -6 -29t-2 -21q0 -20 16 -20q10 0 28 15.5t39 40.5t42.5 56.5t39.5 64.5q18 32 30.5 76.5t12.5 79.5q0 15 -3 29q24 3 48.5 7t52.5 12q17 -7 17 -18q0 -5 -1 -10.5t-2 -8.5l-64 -319q-3 -16 -0.5 -20.5t8.5 -4.5q12 0 27.5 9.5t24.5 9.5t11 -7.5t3 -15.5
q-19 -12 -42 -25t-45.5 -23.5t-42.5 -17t-32 -6.5q-31 0 -31 27q0 8 3 19l34 144l-3 1q-23 -36 -47 -70.5t-51 -61.5t-56.5 -43t-61.5 -16q-27 0 -47 12.5t-20 45.5q0 12 1.5 28.5t5.5 35.5l47 223q3 14 2.5 20.5t-8.5 6.5q-6 0 -14 -2.5t-16 -6t-15 -6t-11 -2.5
q-8 0 -12.5 8.5t-5.5 16.5q14 9 38 21.5t49.5 24.5t49 20t35.5 8q14 0 22.5 -7t8.5 -24q0 -6 -1 -11.5t-2 -9.5zM350 575q0 29 19.5 46t40.5 17q23 0 37 -15t14 -39q0 -28 -17.5 -45.5t-40.5 -17.5q-24 0 -38.5 15t-14.5 39zM172 575q0 29 19.5 46t40.5 17q23 0 37 -15
t14 -39q0 -28 -17.5 -45.5t-40.5 -17.5q-24 0 -38.5 15t-14.5 39z" />
    <glyph glyph-name="yacute" unicode="&#xfd;" horiz-adv-x="513" 
d="M156 -208q39 0 64.5 34.5t39.5 99.5l54 252l-3 1q-23 -36 -47 -70.5t-51 -61.5t-56.5 -43t-61.5 -16q-27 0 -47 12.5t-20 45.5q0 12 1.5 28.5t5.5 35.5l47 223q3 12 3 18q0 9 -9 9q-6 0 -14 -2.5t-16 -6t-15 -6t-11 -2.5q-8 0 -12.5 8.5t-5.5 16.5q14 9 38 21.5
t49.5 24.5t49 20t35.5 8q14 0 22.5 -7t8.5 -24q0 -6 -1 -11.5t-2 -9.5l-54 -256q-4 -17 -6 -29t-2 -21q0 -20 16 -20q10 0 28 15.5t39 40.5t42.5 56.5t39.5 64.5q18 32 30.5 76.5t12.5 79.5q0 15 -3 29q24 3 48.5 7t52.5 12q17 -7 17 -18q0 -5 -1 -10.5t-2 -8.5l-89 -447
q-11 -54 -37 -94t-60 -66.5t-72.5 -39.5t-74.5 -13q-41 0 -70.5 6t-54.5 17q19 45 25 94l25 4q16 -33 44 -55t60 -22zM371 673q14 -3 28 -7.5t25 -10.5t18 -14t7 -17q0 -18 -29 -35q-17 -10 -32 -19.5t-31.5 -21.5t-36 -26.5t-45.5 -35.5q-17 9 -22.5 18t7.5 26z" />
    <glyph glyph-name="thorn" unicode="&#xfe;" horiz-adv-x="469" 
d="M164 279l3 -1q25 46 49 77.5t47.5 50.5t47 27.5t48.5 8.5q28 0 46.5 -10.5t30 -27t16 -38t4.5 -43.5q0 -79 -29 -141t-73 -105t-95.5 -66t-97.5 -23h-21t-22 2l-14 -72q-5 -23 -8 -41t-3 -29q0 -12 3.5 -16t11.5 -4t23.5 2t26.5 2q10 0 11.5 -9t1.5 -17
q-52 -14 -94.5 -28t-83.5 -31q-12 6 -19 11.5t-7 15.5q0 5 2 15l142 731q5 21 7.5 46t2.5 42q0 11 -9 11q-10 0 -24.5 -2.5t-25.5 -2.5q-9 0 -12.5 8t-3.5 20q47 14 95 27.5t93 30.5q19 -8 19 -27q0 -4 -1 -9.5t-2 -9.5zM128 43q5 -4 17 -7t22 -3q36 0 67.5 20.5t54.5 56
t36 83.5t13 104q0 42 -9.5 58.5t-23.5 16.5q-17 0 -36.5 -16.5t-38.5 -43.5t-37.5 -62t-32.5 -71.5t-22.5 -72t-9.5 -63.5z" />
    <glyph glyph-name="ydieresis" unicode="&#xff;" horiz-adv-x="513" 
d="M156 -208q39 0 64.5 34.5t39.5 99.5l54 252l-3 1q-23 -36 -47 -70.5t-51 -61.5t-56.5 -43t-61.5 -16q-27 0 -47 12.5t-20 45.5q0 12 1.5 28.5t5.5 35.5l47 223q3 12 3 18q0 9 -9 9q-6 0 -14 -2.5t-16 -6t-15 -6t-11 -2.5q-8 0 -12.5 8.5t-5.5 16.5q14 9 38 21.5
t49.5 24.5t49 20t35.5 8q14 0 22.5 -7t8.5 -24q0 -6 -1 -11.5t-2 -9.5l-54 -256q-4 -17 -6 -29t-2 -21q0 -20 16 -20q10 0 28 15.5t39 40.5t42.5 56.5t39.5 64.5q18 32 30.5 76.5t12.5 79.5q0 15 -3 29q24 3 48.5 7t52.5 12q17 -7 17 -18q0 -5 -1 -10.5t-2 -8.5l-89 -447
q-11 -54 -37 -94t-60 -66.5t-72.5 -39.5t-74.5 -13q-41 0 -70.5 6t-54.5 17q19 45 25 94l25 4q16 -33 44 -55t60 -22zM346 575q0 29 19.5 46t40.5 17q23 0 37 -15t14 -39q0 -28 -17.5 -45.5t-40.5 -17.5q-24 0 -38.5 15t-14.5 39zM168 575q0 29 19.5 46t40.5 17q23 0 37 -15
t14 -39q0 -28 -17.5 -45.5t-40.5 -17.5q-24 0 -38.5 15t-14.5 39z" />
    <glyph glyph-name="Amacron" unicode="&#x100;" horiz-adv-x="587" 
d="M336 262l-36 229l-121 -229h157zM344 216h-190l-77 -141q-4 -7 -4 -15q0 -16 19.5 -24t46.5 -12q19 -3 19 -14q0 -7 -3 -17q-38 3 -67.5 5t-55.5 2q-19 0 -42.5 -1t-60.5 -6q-2 5 -3 9.5t-1 8.5q0 7 5.5 11.5t19.5 6.5q50 9 67 38l317 581q8 14 22 14q13 0 22 -7
l112 -586q4 -19 18.5 -28t34.5 -11q12 -2 17.5 -5t5.5 -14q0 -3 -0.5 -7.5t-1.5 -9.5q-26 2 -56 4t-64 2q-14 0 -31 -0.5t-35 -1.5t-35 -2.5t-31 -2.5q-3 9 -3 17q0 6 4 10.5t15 6.5q41 6 41 35q0 7 -1 10zM241 739q4 32 17 46t39 14h225q-5 -34 -17 -47t-38 -13h-226z" />
    <glyph glyph-name="amacron" unicode="&#x101;" horiz-adv-x="478" 
d="M276 156l-4 1q-47 -90 -98 -129.5t-90 -39.5q-18 0 -34.5 4.5t-29.5 16t-21 30.5t-8 48q0 85 28.5 151t71.5 111.5t93 69t93 23.5q32 0 65 -4t77 -13l-67 -338q-1 -5 -1.5 -8.5t-0.5 -5.5q0 -9 9 -9q6 0 14.5 3.5t16.5 8t15 8t11 3.5q8 0 12.5 -8.5t5.5 -16.5
q-16 -11 -37.5 -24t-44 -24t-44 -18.5t-37.5 -7.5q-17 0 -26 7t-9 24q0 11 5 28zM301 393q-8 2 -17.5 4t-17.5 2q-35 0 -64 -22t-50 -60t-32.5 -90t-11.5 -113q0 -27 4.5 -42t20.5 -15t35 16.5t38 44t36.5 62.5t31 72.5t21 74t6.5 66.5zM179 543q4 32 17 46t39 14h225
q-5 -34 -17 -47t-38 -13h-226z" />
    <glyph glyph-name="Abreve" unicode="&#x102;" horiz-adv-x="587" 
d="M336 262l-36 229l-121 -229h157zM344 216h-190l-77 -141q-4 -7 -4 -15q0 -16 19.5 -24t46.5 -12q19 -3 19 -14q0 -7 -3 -17q-38 3 -67.5 5t-55.5 2q-19 0 -42.5 -1t-60.5 -6q-2 5 -3 9.5t-1 8.5q0 7 5.5 11.5t19.5 6.5q50 9 67 38l317 581q8 14 22 14q13 0 22 -7
l112 -586q4 -19 18.5 -28t34.5 -11q12 -2 17.5 -5t5.5 -14q0 -3 -0.5 -7.5t-1.5 -9.5q-26 2 -56 4t-64 2q-14 0 -31 -0.5t-35 -1.5t-35 -2.5t-31 -2.5q-3 9 -3 17q0 6 4 10.5t15 6.5q41 6 41 35q0 7 -1 10zM387 777q26 0 48.5 13.5t50.5 53.5q17 -2 23.5 -9.5t2.5 -16.5
q-20 -46 -57 -76.5t-80 -30.5q-28 0 -47.5 10t-32.5 26t-19.5 36t-7.5 40q-2 21 31 22q16 -41 40.5 -54.5t47.5 -13.5z" />
    <glyph glyph-name="abreve" unicode="&#x103;" horiz-adv-x="478" 
d="M276 156l-4 1q-47 -90 -98 -129.5t-90 -39.5q-18 0 -34.5 4.5t-29.5 16t-21 30.5t-8 48q0 85 28.5 151t71.5 111.5t93 69t93 23.5q32 0 65 -4t77 -13l-67 -338q-1 -5 -1.5 -8.5t-0.5 -5.5q0 -9 9 -9q6 0 14.5 3.5t16.5 8t15 8t11 3.5q8 0 12.5 -8.5t5.5 -16.5
q-16 -11 -37.5 -24t-44 -24t-44 -18.5t-37.5 -7.5q-17 0 -26 7t-9 24q0 11 5 28zM301 393q-8 2 -17.5 4t-17.5 2q-35 0 -64 -22t-50 -60t-32.5 -90t-11.5 -113q0 -27 4.5 -42t20.5 -15t35 16.5t38 44t36.5 62.5t31 72.5t21 74t6.5 66.5zM326 571q26 0 48.5 13.5t50.5 53.5
q17 -2 23.5 -9.5t2.5 -16.5q-20 -46 -57 -76.5t-80 -30.5q-28 0 -47.5 10t-32 25.5t-19 35.5t-8.5 41t31 22q16 -41 40.5 -54.5t47.5 -13.5z" />
    <glyph glyph-name="Aogonek" unicode="&#x104;" horiz-adv-x="587" 
d="M344 216h-190l-77 -141q-4 -7 -4 -15q0 -16 19.5 -24t46.5 -12q19 -3 19 -14q0 -7 -3 -17q-38 3 -67.5 5t-55.5 2q-19 0 -42.5 -1t-60.5 -6q-2 5 -3 9.5t-1 8.5q0 7 5.5 11.5t19.5 6.5q50 9 67 38l317 581q8 14 22 14q13 0 22 -7l112 -586q4 -19 18.5 -28t34.5 -11
q12 -2 17.5 -5t5.5 -14q0 -3 -0.5 -7.5t-1.5 -9.5q-26 2 -56 4t-64 2q-27 0 -52 -6t-48 -26q-29 -24 -39.5 -51t-10.5 -50q0 -9 5.5 -18t20.5 -9q11 0 36 11q12 5 21.5 1.5t11.5 -26.5q-8 -6 -22.5 -14.5t-32.5 -17t-37 -14.5t-34 -6q-33 0 -48 18t-15 41q0 24 9.5 46.5
t25.5 44t38 42t47 39.5q19 14 34 27.5t15 29.5q0 7 -1 10zM336 262l-36 229l-121 -229h157z" />
    <glyph glyph-name="aogonek" unicode="&#x105;" horiz-adv-x="478" 
d="M276 156l-4 1q-47 -90 -98 -129.5t-90 -39.5q-18 0 -34.5 4.5t-29.5 16t-21 30.5t-8 48q0 85 28.5 151t71.5 111.5t93 69t93 23.5q32 0 65 -4t77 -13l-67 -338q-1 -5 -1.5 -8.5t-0.5 -5.5q0 -9 9 -9q6 0 14.5 3.5t16.5 8t15 8t11 3.5q8 0 12.5 -8.5t5.5 -16.5
q-17 -12 -39 -26.5t-43 -29.5q-48 -34 -69.5 -72t-21.5 -67q0 -9 5.5 -18t20.5 -9q11 0 36 11q12 5 21.5 1.5t11.5 -26.5q-8 -6 -22.5 -14.5t-32.5 -17t-37 -14.5t-34 -6q-33 0 -48 18t-15 41q0 42 30 79.5t70 75.5q-14 2 -22.5 8.5t-8.5 22.5q0 11 5 28zM301 393
q-8 2 -17.5 4t-17.5 2q-35 0 -64 -22t-50 -60t-32.5 -90t-11.5 -113q0 -27 4.5 -42t20.5 -15t35 16.5t38 44t36.5 62.5t31 72.5t21 74t6.5 66.5z" />
    <glyph glyph-name="Cacute" unicode="&#x106;" horiz-adv-x="619" 
d="M325 -12q-83 0 -140.5 21t-94.5 58t-53.5 85.5t-16.5 104.5q0 71 25 143.5t74.5 130.5t124.5 94.5t176 36.5q52 0 101 -9t96 -24q-3 -29 -3 -58q0 -21 1.5 -40t3.5 -36q-9 -9 -27 -9q-22 0 -25 20q-13 63 -54.5 89t-99.5 26q-62 0 -110.5 -29t-82 -77.5t-51.5 -113
t-18 -136.5q0 -53 13 -96t37 -73.5t58.5 -47t76.5 -16.5q60 0 102 28t71 91q5 9 11 13.5t19 4.5q10 0 19 -4.5t12 -7.5q-13 -26 -26 -64t-22 -83q-24 -5 -51.5 -9t-54.5 -7t-50.5 -4.5t-40.5 -1.5zM507 866q65 -29 65 -57q0 -13 -10.5 -19.5t-25.5 -11.5q-21 -6 -38 -12.5
t-35 -14t-38.5 -18t-47.5 -24.5q-20 15 -20 23t17 22z" />
    <glyph glyph-name="cacute" unicode="&#x107;" horiz-adv-x="387" 
d="M238 404q-36 0 -60 -28t-38 -68t-19.5 -82.5t-5.5 -72.5q0 -47 18 -77t60 -30q18 0 34 4.5t28.5 11t22 13t15.5 10.5l6 4t8 2q10 0 14 -8.5t5 -16.5q-14 -12 -32.5 -26t-41 -25.5t-49 -19t-55.5 -7.5q-42 0 -70 13t-45.5 34.5t-25 49.5t-7.5 58q0 48 15.5 101t46 97
t76.5 72.5t106 28.5q33 0 65 -8.5t58 -22.5q-2 -6 -4.5 -18t-4.5 -26t-4 -28.5t-3 -26.5l-16 1q-11 1 -16 3.5t-8 12.5q-13 42 -28.5 58.5t-44.5 16.5zM330 673q14 -3 28 -7.5t25 -10.5t18 -14t7 -17q0 -18 -29 -35q-17 -10 -32 -19.5t-31.5 -21.5t-36 -26.5t-45.5 -35.5
q-17 9 -22.5 18t7.5 26z" />
    <glyph glyph-name="Ccircumflex" unicode="&#x108;" horiz-adv-x="619" 
d="M325 -12q-83 0 -140.5 21t-94.5 58t-53.5 85.5t-16.5 104.5q0 71 25 143.5t74.5 130.5t124.5 94.5t176 36.5q52 0 101 -9t96 -24q-3 -29 -3 -58q0 -21 1.5 -40t3.5 -36q-9 -9 -27 -9q-22 0 -25 20q-13 63 -54.5 89t-99.5 26q-62 0 -110.5 -29t-82 -77.5t-51.5 -113
t-18 -136.5q0 -53 13 -96t37 -73.5t58.5 -47t76.5 -16.5q60 0 102 28t71 91q5 9 11 13.5t19 4.5q10 0 19 -4.5t12 -7.5q-13 -26 -26 -64t-22 -83q-24 -5 -51.5 -9t-54.5 -7t-50.5 -4.5t-40.5 -1.5zM568 758q15 -20 8 -28.5t-29 -19.5q-31 25 -55 41t-43 27
q-31 -14 -62.5 -31t-63.5 -37q-23 12 -25 22t12 22l126 108q32 0 46.5 -4.5t26.5 -20.5z" />
    <glyph glyph-name="ccircumflex" unicode="&#x109;" horiz-adv-x="387" 
d="M238 404q-36 0 -60 -28t-38 -68t-19.5 -82.5t-5.5 -72.5q0 -47 18 -77t60 -30q18 0 34 4.5t28.5 11t22 13t15.5 10.5l6 4t8 2q10 0 14 -8.5t5 -16.5q-14 -12 -32.5 -26t-41 -25.5t-49 -19t-55.5 -7.5q-42 0 -70 13t-45.5 34.5t-25 49.5t-7.5 58q0 48 15.5 101t46 97
t76.5 72.5t106 28.5q33 0 65 -8.5t58 -22.5q-2 -6 -4.5 -18t-4.5 -26t-4 -28.5t-3 -26.5l-16 1q-11 1 -16 3.5t-8 12.5q-13 42 -28.5 58.5t-44.5 16.5zM394 524q5 -13 1 -21t-26 -18q-21 28 -42.5 52.5t-39.5 39.5q-26 -17 -58.5 -42t-67.5 -54q-12 7 -17.5 14t-6.5 12
t1 9.5t5 7.5l121 138q42 3 59.5 -4t25.5 -25z" />
    <glyph glyph-name="Cdotaccent" unicode="&#x10a;" horiz-adv-x="619" 
d="M325 -12q-83 0 -140.5 21t-94.5 58t-53.5 85.5t-16.5 104.5q0 71 25 143.5t74.5 130.5t124.5 94.5t176 36.5q52 0 101 -9t96 -24q-3 -29 -3 -58q0 -21 1.5 -40t3.5 -36q-9 -9 -27 -9q-22 0 -25 20q-13 63 -54.5 89t-99.5 26q-62 0 -110.5 -29t-82 -77.5t-51.5 -113
t-18 -136.5q0 -53 13 -96t37 -73.5t58.5 -47t76.5 -16.5q60 0 102 28t71 91q5 9 11 13.5t19 4.5q10 0 19 -4.5t12 -7.5q-13 -26 -26 -64t-22 -83q-24 -5 -51.5 -9t-54.5 -7t-50.5 -4.5t-40.5 -1.5zM425 710q-27 0 -43 13.5t-16 36.5q0 31 24 53t57 22q29 0 42 -17.5
t13 -35.5q0 -32 -22.5 -52t-54.5 -20z" />
    <glyph glyph-name="cdotaccent" unicode="&#x10b;" horiz-adv-x="387" 
d="M238 404q-36 0 -60 -28t-38 -68t-19.5 -82.5t-5.5 -72.5q0 -47 18 -77t60 -30q18 0 34 4.5t28.5 11t22 13t15.5 10.5l6 4t8 2q10 0 14 -8.5t5 -16.5q-14 -12 -32.5 -26t-41 -25.5t-49 -19t-55.5 -7.5q-42 0 -70 13t-45.5 34.5t-25 49.5t-7.5 58q0 48 15.5 101t46 97
t76.5 72.5t106 28.5q33 0 65 -8.5t58 -22.5q-2 -6 -4.5 -18t-4.5 -26t-4 -28.5t-3 -26.5l-16 1q-11 1 -16 3.5t-8 12.5q-13 42 -28.5 58.5t-44.5 16.5zM270 525q-27 0 -43 13.5t-16 36.5q0 31 24 53t57 22q29 0 42 -17.5t13 -35.5q0 -32 -22.5 -52t-54.5 -20z" />
    <glyph glyph-name="Ccaron" unicode="&#x10c;" horiz-adv-x="619" 
d="M325 -12q-83 0 -140.5 21t-94.5 58t-53.5 85.5t-16.5 104.5q0 71 25 143.5t74.5 130.5t124.5 94.5t176 36.5q52 0 101 -9t96 -24q-3 -29 -3 -58q0 -21 1.5 -40t3.5 -36q-9 -9 -27 -9q-22 0 -25 20q-13 63 -54.5 89t-99.5 26q-62 0 -110.5 -29t-82 -77.5t-51.5 -113
t-18 -136.5q0 -53 13 -96t37 -73.5t58.5 -47t76.5 -16.5q60 0 102 28t71 91q5 9 11 13.5t19 4.5q10 0 19 -4.5t12 -7.5q-13 -26 -26 -64t-22 -83q-24 -5 -51.5 -9t-54.5 -7t-50.5 -4.5t-40.5 -1.5zM312 805q-15 20 -8 28.5t29 19.5q31 -25 55.5 -42t43.5 -28q31 14 63 31.5
t64 37.5q38 -20 11 -43l-126 -108q-32 0 -46.5 4.5t-26.5 20.5z" />
    <glyph glyph-name="ccaron" unicode="&#x10d;" horiz-adv-x="387" 
d="M238 404q-36 0 -60 -28t-38 -68t-19.5 -82.5t-5.5 -72.5q0 -47 18 -77t60 -30q18 0 34 4.5t28.5 11t22 13t15.5 10.5l6 4t8 2q10 0 14 -8.5t5 -16.5q-14 -12 -32.5 -26t-41 -25.5t-49 -19t-55.5 -7.5q-42 0 -70 13t-45.5 34.5t-25 49.5t-7.5 58q0 48 15.5 101t46 97
t76.5 72.5t106 28.5q33 0 65 -8.5t58 -22.5q-2 -6 -4.5 -18t-4.5 -26t-4 -28.5t-3 -26.5l-16 1q-11 1 -16 3.5t-8 12.5q-13 42 -28.5 58.5t-44.5 16.5zM170 627q-5 13 0 21.5t27 18.5q21 -28 42.5 -52.5t39.5 -39.5q26 17 57.5 41.5t66.5 53.5q12 -8 17.5 -14.5t6.5 -11.5
t-1 -9.5t-5 -7.5l-121 -138q-42 -3 -59.5 4t-25.5 25z" />
    <glyph glyph-name="Dcaron" unicode="&#x10e;" horiz-adv-x="728" 
d="M573 366q0 65 -16 111t-47.5 75t-77 42.5t-103.5 13.5h-35l-101 -536q-3 -17 0.5 -23t17.5 -6h43q64 0 121.5 18.5t101.5 57.5t70 100t26 147zM171 581q3 17 -7 27t-40 12q-18 1 -18 15q0 5 1 10t3 12q37 -3 70.5 -5t57.5 -2h138q71 0 131.5 -17t104.5 -51t68.5 -85.5
t24.5 -120.5q0 -84 -33 -153t-91 -118.5t-136.5 -77t-169.5 -27.5h-149q-21 0 -58 -2t-71 -5q-1 4 -2 8.5t-1 9.5q0 6 3 11t13 7q31 5 45 13.5t18 28.5zM309 805q-15 20 -8 28.5t29 19.5q31 -25 55.5 -42t43.5 -28q31 14 63 31.5t64 37.5q38 -20 11 -43l-126 -108
q-32 0 -46.5 4.5t-26.5 20.5z" />
    <glyph glyph-name="dcaron" unicode="&#x10f;" horiz-adv-x="528" 
d="M352 82q-1 -4 -1 -9q0 -9 9 -9q6 0 14.5 3.5t16.5 8t15 8t11 3.5q8 0 12.5 -8.5t5.5 -16.5q-16 -11 -37.5 -24t-44 -24t-44 -18.5t-37.5 -7.5q-17 0 -26 7t-9 24q0 11 5 28l35 109l-4 1q-42 -81 -90.5 -125t-96.5 -44q-16 0 -32.5 4.5t-30 16.5t-22.5 33t-9 54
q0 84 27.5 148.5t69 108.5t90.5 66.5t92 22.5q12 0 21 -0.5t22 -2.5l16 82q4 21 7 45.5t3 41.5q0 11 -9 11q-10 0 -24.5 -2.5t-25.5 -2.5q-9 0 -12.5 8t-3.5 20q47 14 91.5 27.5t89.5 30.5q19 -8 19 -27q0 -4 -1 -9.5t-2 -9.5zM302 393q-9 2 -19.5 4t-22.5 2
q-35 0 -63 -22.5t-48.5 -60.5t-31.5 -87t-11 -102q0 -41 7.5 -55.5t21.5 -14.5q15 0 33 16t36.5 43t35.5 61.5t30.5 72t22 74.5t9.5 69zM543 691q29 21 63 21q40 0 40 -27q0 -11 -7 -24q-11 -20 -19.5 -37.5t-17.5 -36t-18 -41t-19 -51.5q-5 -1 -9 -1.5t-8 -0.5
q-23 0 -23 26z" />
    <glyph glyph-name="Dcroat" unicode="&#x110;" horiz-adv-x="744" 
d="M36 309q4 27 13.5 39t33.5 12h61l43 221q3 17 -7 27t-40 12q-18 1 -18 15q0 5 1 10t3 12q37 -3 70.5 -5t57.5 -2h138q71 0 131.5 -17t104.5 -51t68.5 -85.5t24.5 -120.5q0 -84 -33 -153t-91 -118.5t-136.5 -77t-169.5 -27.5h-149q-21 0 -58 -2t-71 -5q-1 4 -2 8.5t-1 9.5
q0 6 3 11t13 7q31 5 45 13.5t18 28.5l45 238h-98zM589 366q0 65 -16 111t-47.5 75t-77 42.5t-103.5 13.5h-35l-47 -248h174q-3 -27 -13 -39t-35 -12h-136l-44 -237q-3 -17 0.5 -23t17.5 -6h43q64 0 121.5 18t101.5 56.5t70 100t26 148.5z" />
    <glyph glyph-name="dcroat" unicode="&#x111;" horiz-adv-x="480" 
d="M444 560h75q-2 -26 -11 -36t-29 -10h-44l-83 -432q-1 -4 -1 -9q0 -9 9 -9q6 0 14.5 3.5t16.5 8t15 8t11 3.5q8 0 12.5 -8.5t5.5 -16.5q-16 -11 -37.5 -24t-44 -24t-44 -18.5t-37.5 -7.5q-17 0 -26 7t-9 24q0 11 5 28l35 109l-4 1q-42 -81 -90.5 -125t-96.5 -44
q-16 0 -32.5 4.5t-30 16.5t-22.5 33t-9 54q0 84 27.5 148.5t69 108.5t90.5 66.5t92 22.5q12 0 21 -0.5t22 -2.5l14 75h-140q2 26 11.5 36t28.5 10h108q2 13 3 25.5t1 22.5q0 11 -9 11q-10 0 -24.5 -2.5t-25.5 -2.5q-9 0 -12.5 8t-3.5 20q47 14 91.5 27.5t89.5 30.5
q19 -8 19 -27q0 -4 -1 -9.5t-2 -9.5zM302 393q-9 2 -19.5 4t-22.5 2q-35 0 -63 -22.5t-48.5 -60.5t-31.5 -87t-11 -102q0 -41 7.5 -55.5t21.5 -14.5q15 0 33 16t36.5 43t35.5 61.5t30.5 72t22 74.5t9.5 69z" />
    <glyph glyph-name="Emacron" unicode="&#x112;" horiz-adv-x="565" 
d="M171 581q4 18 -5.5 26.5t-36.5 11.5q-22 3 -22 20q0 7 3 18q38 -3 73.5 -5t60.5 -2h187q39 0 59.5 3t32.5 3t16 -4t4 -15q0 -32 5 -63t12 -62q-5 -4 -13.5 -6.5t-15.5 -2.5q-11 0 -16 4.5t-7 11.5q-14 48 -38 68.5t-65 20.5h-111l-48 -254h116q23 0 33 14t17 38
q2 6 5.5 11t11.5 5t16 -2.5t14 -4.5q-6 -23 -10.5 -42.5t-8 -39.5t-6 -43t-4.5 -52q-10 -5 -26 -5q-14 0 -17 6t-2 13q3 25 -3.5 41.5t-30.5 16.5h-113l-47 -244q-2 -14 1.5 -18.5t17.5 -4.5h108q36 0 70.5 20t72.5 73q5 8 9 12t12 4q9 0 17.5 -5.5t14.5 -11.5l-10 -20
q-5 -10 -11 -22.5t-12 -29.5q-8 -20 -11.5 -35.5t-7.5 -23.5q-3 -7 -6.5 -8.5t-8.5 -1.5q-11 0 -19.5 1t-18.5 2t-22.5 2t-30.5 1h-234q-20 0 -55 -2t-68 -5q-5 10 -5 18t5.5 13t19.5 7q29 3 40 13t14 27zM235 739q4 32 17 46t39 14h225q-5 -34 -17 -47t-38 -13h-226z" />
    <glyph glyph-name="emacron" unicode="&#x113;" horiz-adv-x="396" 
d="M366 348q0 -36 -18 -62.5t-51 -44t-79 -27.5t-102 -13q-1 -10 -1.5 -19t-0.5 -19q0 -22 3.5 -43t12.5 -37t24.5 -26t39.5 -10q18 0 43.5 7.5t54.5 26.5q9 6 14.5 10t12.5 4q10 0 13.5 -10.5t3.5 -14.5q-13 -12 -32.5 -26.5t-44 -26.5t-53 -20.5t-58.5 -8.5q-46 0 -75 15
t-45 39t-22 53t-6 57q0 54 17.5 106t50 93t77.5 66t100 25q51 0 86 -21.5t35 -72.5zM226 402q-19 0 -36 -13.5t-31 -36.5t-24 -52.5t-15 -62.5q40 4 67 15t43 26.5t23 35t7 40.5q0 23 -9.5 35.5t-24.5 12.5zM124 543q4 32 17 46t39 14h225q-5 -34 -17 -47t-38 -13h-226z" />
    <glyph glyph-name="Ebreve" unicode="&#x114;" horiz-adv-x="565" 
d="M171 581q4 18 -5.5 26.5t-36.5 11.5q-22 3 -22 20q0 7 3 18q38 -3 73.5 -5t60.5 -2h187q39 0 59.5 3t32.5 3t16 -4t4 -15q0 -32 5 -63t12 -62q-5 -4 -13.5 -6.5t-15.5 -2.5q-11 0 -16 4.5t-7 11.5q-14 48 -38 68.5t-65 20.5h-111l-48 -254h116q23 0 33 14t17 38
q2 6 5.5 11t11.5 5t16 -2.5t14 -4.5q-6 -23 -10.5 -42.5t-8 -39.5t-6 -43t-4.5 -52q-10 -5 -26 -5q-14 0 -17 6t-2 13q3 25 -3.5 41.5t-30.5 16.5h-113l-47 -244q-2 -14 1.5 -18.5t17.5 -4.5h108q36 0 70.5 20t72.5 73q5 8 9 12t12 4q9 0 17.5 -5.5t14.5 -11.5l-10 -20
q-5 -10 -11 -22.5t-12 -29.5q-8 -20 -11.5 -35.5t-7.5 -23.5q-3 -7 -6.5 -8.5t-8.5 -1.5q-11 0 -19.5 1t-18.5 2t-22.5 2t-30.5 1h-234q-20 0 -55 -2t-68 -5q-5 10 -5 18t5.5 13t19.5 7q29 3 40 13t14 27zM384 777q26 0 48.5 13.5t50.5 53.5q17 -2 23.5 -9.5t2.5 -16.5
q-20 -46 -57 -76.5t-80 -30.5q-28 0 -47.5 10t-32.5 26t-19.5 36t-7.5 40q-2 21 31 22q16 -41 40.5 -54.5t47.5 -13.5z" />
    <glyph glyph-name="ebreve" unicode="&#x115;" horiz-adv-x="396" 
d="M366 348q0 -36 -18 -62.5t-51 -44t-79 -27.5t-102 -13q-1 -10 -1.5 -19t-0.5 -19q0 -22 3.5 -43t12.5 -37t24.5 -26t39.5 -10q18 0 43.5 7.5t54.5 26.5q9 6 14.5 10t12.5 4q10 0 13.5 -10.5t3.5 -14.5q-13 -12 -32.5 -26.5t-44 -26.5t-53 -20.5t-58.5 -8.5q-46 0 -75 15
t-45 39t-22 53t-6 57q0 54 17.5 106t50 93t77.5 66t100 25q51 0 86 -21.5t35 -72.5zM226 402q-19 0 -36 -13.5t-31 -36.5t-24 -52.5t-15 -62.5q40 4 67 15t43 26.5t23 35t7 40.5q0 23 -9.5 35.5t-24.5 12.5zM264 571q26 0 48.5 13.5t50.5 53.5q17 -2 23.5 -9.5t2.5 -16.5
q-20 -46 -57 -76.5t-80 -30.5q-28 0 -47.5 10t-32 25.5t-19 35.5t-8.5 41t31 22q16 -41 40.5 -54.5t47.5 -13.5z" />
    <glyph glyph-name="Edotaccent" unicode="&#x116;" horiz-adv-x="565" 
d="M171 581q4 18 -5.5 26.5t-36.5 11.5q-22 3 -22 20q0 7 3 18q38 -3 73.5 -5t60.5 -2h187q39 0 59.5 3t32.5 3t16 -4t4 -15q0 -32 5 -63t12 -62q-5 -4 -13.5 -6.5t-15.5 -2.5q-11 0 -16 4.5t-7 11.5q-14 48 -38 68.5t-65 20.5h-111l-48 -254h116q23 0 33 14t17 38
q2 6 5.5 11t11.5 5t16 -2.5t14 -4.5q-6 -23 -10.5 -42.5t-8 -39.5t-6 -43t-4.5 -52q-10 -5 -26 -5q-14 0 -17 6t-2 13q3 25 -3.5 41.5t-30.5 16.5h-113l-47 -244q-2 -14 1.5 -18.5t17.5 -4.5h108q36 0 70.5 20t72.5 73q5 8 9 12t12 4q9 0 17.5 -5.5t14.5 -11.5l-10 -20
q-5 -10 -11 -22.5t-12 -29.5q-8 -20 -11.5 -35.5t-7.5 -23.5q-3 -7 -6.5 -8.5t-8.5 -1.5q-11 0 -19.5 1t-18.5 2t-22.5 2t-30.5 1h-234q-20 0 -55 -2t-68 -5q-5 10 -5 18t5.5 13t19.5 7q29 3 40 13t14 27zM374 710q-27 0 -43 13.5t-16 36.5q0 31 24 53t57 22q29 0 42 -17.5
t13 -35.5q0 -32 -22.5 -52t-54.5 -20z" />
    <glyph glyph-name="edotaccent" unicode="&#x117;" horiz-adv-x="396" 
d="M366 348q0 51 -35 72.5t-86 21.5q-55 0 -100 -25t-77.5 -66t-50 -93t-17.5 -106q0 -28 6 -57t22 -53t45 -39t75 -15q30 0 58.5 8.5t53 20.5t44 26.5t32.5 26.5q0 4 -3.5 14.5t-13.5 10.5q-7 0 -12.5 -4t-14.5 -10q-29 -19 -54.5 -26.5t-43.5 -7.5q-24 0 -39.5 10
t-24.5 26t-12.5 37t-3.5 43q0 10 0.5 19t1.5 19q56 3 102 13t79 27.5t51 44t18 62.5zM226 402q15 0 24.5 -12.5t9.5 -35.5q0 -21 -7 -40.5t-23 -35t-43 -26.5t-67 -15q5 33 15 62.5t24 52.5t31 36.5t36 13.5zM259 525q-27 0 -43 13.5t-16 36.5q0 31 24 53t57 22
q29 0 42 -17.5t13 -35.5q0 -32 -22.5 -52t-54.5 -20z" />
    <glyph glyph-name="Eogonek" unicode="&#x118;" horiz-adv-x="565" 
d="M171 581q4 18 -5.5 26.5t-36.5 11.5q-22 3 -22 20q0 7 3 18q38 -3 73.5 -5t60.5 -2h187q39 0 59.5 3t32.5 3t16 -4t4 -15q0 -32 5 -63t12 -62q-5 -4 -13.5 -6.5t-15.5 -2.5q-11 0 -16 4.5t-7 11.5q-14 48 -38 68.5t-65 20.5h-111l-48 -254h116q23 0 33 14t17 38
q2 6 5.5 11t11.5 5t16 -2.5t14 -4.5q-6 -23 -10.5 -42.5t-8 -39.5t-6 -43t-4.5 -52q-10 -5 -26 -5q-14 0 -17 6t-2 13q3 25 -3.5 41.5t-30.5 16.5h-113l-47 -244q-2 -14 1.5 -18.5t17.5 -4.5h108q36 0 70.5 20t72.5 73q5 8 9 12t12 4q9 0 17.5 -5.5t14.5 -11.5l-10 -20
q-5 -10 -11 -22.5t-12 -29.5q-8 -20 -11.5 -35.5t-7.5 -23.5q-3 -7 -6.5 -8.5t-8.5 -1.5q-27 0 -47 -14t-33.5 -34.5t-20 -42t-6.5 -36.5q0 -9 5.5 -18t20.5 -9q11 0 36 11q12 5 21.5 1.5t11.5 -26.5q-8 -6 -22.5 -14.5t-32.5 -17t-37 -14.5t-34 -6q-33 0 -48 18t-15 41
q0 22 10 43.5t26 42t36.5 41t42.5 40.5h-239q-20 0 -55 -2t-68 -5q-5 10 -5 18t5.5 13t19.5 7q29 3 40 13t14 27z" />
    <glyph glyph-name="eogonek" unicode="&#x119;" horiz-adv-x="396" 
d="M366 348q0 -36 -18 -62.5t-51 -44t-79 -27.5t-102 -13q-1 -10 -1.5 -19t-0.5 -19q0 -22 3.5 -43t12.5 -37t24.5 -26t39.5 -10q18 0 43.5 7.5t54.5 26.5q9 6 14.5 10t12.5 4q10 0 13.5 -10.5t3.5 -14.5q-15 -14 -40 -31t-52 -34q-24 -15 -40.5 -33t-26 -36.5t-14 -36
t-4.5 -32.5q0 -9 5.5 -18t20.5 -9q11 0 36 11q12 5 21.5 1.5t11.5 -26.5q-8 -6 -22.5 -14.5t-32.5 -17t-37 -14.5t-34 -6q-33 0 -48 18t-15 41q0 42 29 80t70 76q-2 -1 -5 -1h-11q-46 0 -75 15t-45 39t-22 53t-6 57q0 54 17.5 106t50 93t77.5 66t100 25q51 0 86 -21.5
t35 -72.5zM226 402q-19 0 -36 -13.5t-31 -36.5t-24 -52.5t-15 -62.5q40 4 67 15t43 26.5t23 35t7 40.5q0 23 -9.5 35.5t-24.5 12.5z" />
    <glyph glyph-name="Ecaron" unicode="&#x11a;" horiz-adv-x="565" 
d="M171 581q4 18 -5.5 26.5t-36.5 11.5q-22 3 -22 20q0 7 3 18q38 -3 73.5 -5t60.5 -2h187q39 0 59.5 3t32.5 3t16 -4t4 -15q0 -32 5 -63t12 -62q-5 -4 -13.5 -6.5t-15.5 -2.5q-11 0 -16 4.5t-7 11.5q-14 48 -38 68.5t-65 20.5h-111l-48 -254h116q23 0 33 14t17 38
q2 6 5.5 11t11.5 5t16 -2.5t14 -4.5q-6 -23 -10.5 -42.5t-8 -39.5t-6 -43t-4.5 -52q-10 -5 -26 -5q-14 0 -17 6t-2 13q3 25 -3.5 41.5t-30.5 16.5h-113l-47 -244q-2 -14 1.5 -18.5t17.5 -4.5h108q36 0 70.5 20t72.5 73q5 8 9 12t12 4q9 0 17.5 -5.5t14.5 -11.5l-10 -20
q-5 -10 -11 -22.5t-12 -29.5q-8 -20 -11.5 -35.5t-7.5 -23.5q-3 -7 -6.5 -8.5t-8.5 -1.5q-11 0 -19.5 1t-18.5 2t-22.5 2t-30.5 1h-234q-20 0 -55 -2t-68 -5q-5 10 -5 18t5.5 13t19.5 7q29 3 40 13t14 27zM257 805q-15 20 -8 28.5t29 19.5q31 -25 55.5 -42t43.5 -28
q31 14 63 31.5t64 37.5q38 -20 11 -43l-126 -108q-32 0 -46.5 4.5t-26.5 20.5z" />
    <glyph glyph-name="ecaron" unicode="&#x11b;" horiz-adv-x="396" 
d="M366 348q0 51 -35 72.5t-86 21.5q-55 0 -100 -25t-77.5 -66t-50 -93t-17.5 -106q0 -28 6 -57t22 -53t45 -39t75 -15q30 0 58.5 8.5t53 20.5t44 26.5t32.5 26.5q0 4 -3.5 14.5t-13.5 10.5q-7 0 -12.5 -4t-14.5 -10q-29 -19 -54.5 -26.5t-43.5 -7.5q-24 0 -39.5 10
t-24.5 26t-12.5 37t-3.5 43q0 10 0.5 19t1.5 19q56 3 102 13t79 27.5t51 44t18 62.5zM226 402q15 0 24.5 -12.5t9.5 -35.5q0 -21 -7 -40.5t-23 -35t-43 -26.5t-67 -15q5 33 15 62.5t24 52.5t31 36.5t36 13.5zM155 627q-5 13 0 21.5t27 18.5q21 -28 42.5 -52.5t39.5 -39.5
q26 17 57.5 41.5t66.5 53.5q12 -8 17.5 -14.5t6.5 -11.5t-1 -9.5t-5 -7.5l-121 -138q-42 -3 -59.5 4t-25.5 25z" />
    <glyph glyph-name="Gcircumflex" unicode="&#x11c;" horiz-adv-x="671" 
d="M460 206q6 31 -41 37q-12 2 -16.5 6t-4.5 12q0 5 1 10t3 12q38 -3 70.5 -5t56.5 -2q20 0 51.5 2t64.5 5q3 -11 3 -18q0 -18 -22 -22q-23 -4 -34 -12.5t-15 -26.5l-36 -179q-3 -14 -12 -20t-29 -8q-43 -5 -90.5 -7t-93.5 -2q-78 0 -133.5 21.5t-91 58.5t-52.5 87t-17 107
q0 69 23.5 140t72.5 128.5t122.5 94t174.5 37.5q52 0 103 -9t98 -24q-2 -14 -2 -29v-29q0 -18 1 -36.5t3 -39.5q-9 -9 -27 -9q-22 0 -25 20q-13 61 -53 88t-96 27q-66 0 -115.5 -29.5t-82.5 -78.5t-49.5 -113.5t-16.5 -134.5q0 -106 48 -169.5t140 -63.5q26 0 51.5 1.5
t33.5 3.5zM558 758q15 -20 8 -28.5t-29 -19.5q-31 25 -55 41t-43 27q-31 -14 -62.5 -31t-63.5 -37q-23 12 -25 22t12 22l126 108q32 0 46.5 -4.5t26.5 -20.5z" />
    <glyph glyph-name="gcircumflex" unicode="&#x11d;" horiz-adv-x="461" 
d="M303 393q-8 3 -19.5 4.5t-21.5 1.5q-38 0 -66.5 -22.5t-47.5 -60.5t-28.5 -88t-9.5 -105q0 -32 6 -49t23 -17q14 0 32.5 17.5t37 46.5t36 65t31 73.5t21 72.5t6.5 61zM8 -130q16 -33 44.5 -55.5t60.5 -22.5q38 0 63 35.5t39 98.5l49 215l-3 2q-13 -31 -32 -59t-42 -49.5
t-48 -34t-50 -12.5q-18 0 -35.5 4.5t-31 16t-21.5 31.5t-8 51q0 81 26 146t66.5 110.5t90 70t97.5 24.5q21 0 38 -1t33.5 -3t35 -5t41.5 -8l-90 -464q-11 -56 -38 -96.5t-61.5 -66.5t-72 -38t-70.5 -12q-82 0 -131 23q7 18 14.5 42t10.5 51zM410 524q5 -13 1 -21t-26 -18
q-21 28 -42.5 52.5t-39.5 39.5q-26 -17 -58.5 -42t-67.5 -54q-12 7 -17.5 14t-6.5 12t1 9.5t5 7.5l121 138q42 3 59.5 -4t25.5 -25z" />
    <glyph glyph-name="Gbreve" unicode="&#x11e;" horiz-adv-x="671" 
d="M460 206q6 31 -41 37q-12 2 -16.5 6t-4.5 12q0 5 1 10t3 12q38 -3 70.5 -5t56.5 -2q20 0 51.5 2t64.5 5q3 -11 3 -18q0 -18 -22 -22q-23 -4 -34 -12.5t-15 -26.5l-36 -179q-3 -14 -12 -20t-29 -8q-43 -5 -90.5 -7t-93.5 -2q-78 0 -133.5 21.5t-91 58.5t-52.5 87t-17 107
q0 69 23.5 140t72.5 128.5t122.5 94t174.5 37.5q52 0 103 -9t98 -24q-2 -14 -2 -29v-29q0 -18 1 -36.5t3 -39.5q-9 -9 -27 -9q-22 0 -25 20q-13 61 -53 88t-96 27q-66 0 -115.5 -29.5t-82.5 -78.5t-49.5 -113.5t-16.5 -134.5q0 -106 48 -169.5t140 -63.5q26 0 51.5 1.5
t33.5 3.5zM439 777q26 0 48.5 13.5t50.5 53.5q17 -2 23.5 -9.5t2.5 -16.5q-20 -46 -57 -76.5t-80 -30.5q-28 0 -47.5 10t-32.5 26t-19.5 36t-7.5 40q-2 21 31 22q16 -41 40.5 -54.5t47.5 -13.5z" />
    <glyph glyph-name="gbreve" unicode="&#x11f;" horiz-adv-x="461" 
d="M303 393q-8 3 -19.5 4.5t-21.5 1.5q-38 0 -66.5 -22.5t-47.5 -60.5t-28.5 -88t-9.5 -105q0 -32 6 -49t23 -17q14 0 32.5 17.5t37 46.5t36 65t31 73.5t21 72.5t6.5 61zM8 -130q16 -33 44.5 -55.5t60.5 -22.5q38 0 63 35.5t39 98.5l49 215l-3 2q-13 -31 -32 -59t-42 -49.5
t-48 -34t-50 -12.5q-18 0 -35.5 4.5t-31 16t-21.5 31.5t-8 51q0 81 26 146t66.5 110.5t90 70t97.5 24.5q21 0 38 -1t33.5 -3t35 -5t41.5 -8l-90 -464q-11 -56 -38 -96.5t-61.5 -66.5t-72 -38t-70.5 -12q-82 0 -131 23q7 18 14.5 42t10.5 51zM313 571q26 0 48.5 13.5
t50.5 53.5q17 -2 23.5 -9.5t2.5 -16.5q-20 -46 -57 -76.5t-80 -30.5q-28 0 -47.5 10t-32 25.5t-19 35.5t-8.5 41t31 22q16 -41 40.5 -54.5t47.5 -13.5z" />
    <glyph glyph-name="Gdotaccent" unicode="&#x120;" horiz-adv-x="671" 
d="M460 206q6 31 -41 37q-12 2 -16.5 6t-4.5 12q0 5 1 10t3 12q38 -3 70.5 -5t56.5 -2q20 0 51.5 2t64.5 5q3 -11 3 -18q0 -18 -22 -22q-23 -4 -34 -12.5t-15 -26.5l-36 -179q-3 -14 -12 -20t-29 -8q-43 -5 -90.5 -7t-93.5 -2q-78 0 -133.5 21.5t-91 58.5t-52.5 87t-17 107
q0 69 23.5 140t72.5 128.5t122.5 94t174.5 37.5q52 0 103 -9t98 -24q-2 -14 -2 -29v-29q0 -18 1 -36.5t3 -39.5q-9 -9 -27 -9q-22 0 -25 20q-13 61 -53 88t-96 27q-66 0 -115.5 -29.5t-82.5 -78.5t-49.5 -113.5t-16.5 -134.5q0 -106 48 -169.5t140 -63.5q26 0 51.5 1.5
t33.5 3.5zM420 710q-27 0 -43 13.5t-16 36.5q0 31 24 53t57 22q29 0 42 -17.5t13 -35.5q0 -32 -22.5 -52t-54.5 -20z" />
    <glyph glyph-name="gdotaccent" unicode="&#x121;" horiz-adv-x="461" 
d="M303 393q-8 3 -19.5 4.5t-21.5 1.5q-38 0 -66.5 -22.5t-47.5 -60.5t-28.5 -88t-9.5 -105q0 -32 6 -49t23 -17q14 0 32.5 17.5t37 46.5t36 65t31 73.5t21 72.5t6.5 61zM8 -130q16 -33 44.5 -55.5t60.5 -22.5q38 0 63 35.5t39 98.5l49 215l-3 2q-13 -31 -32 -59t-42 -49.5
t-48 -34t-50 -12.5q-18 0 -35.5 4.5t-31 16t-21.5 31.5t-8 51q0 81 26 146t66.5 110.5t90 70t97.5 24.5q21 0 38 -1t33.5 -3t35 -5t41.5 -8l-90 -464q-11 -56 -38 -96.5t-61.5 -66.5t-72 -38t-70.5 -12q-82 0 -131 23q7 18 14.5 42t10.5 51zM288 525q-27 0 -43 13.5
t-16 36.5q0 31 24 53t57 22q29 0 42 -17.5t13 -35.5q0 -32 -22.5 -52t-54.5 -20z" />
    <glyph glyph-name="Gcommaaccent" unicode="&#x122;" horiz-adv-x="671" 
d="M460 206q6 31 -41 37q-12 2 -16.5 6t-4.5 12q0 5 1 10t3 12q38 -3 70.5 -5t56.5 -2q20 0 51.5 2t64.5 5q3 -11 3 -18q0 -18 -22 -22q-23 -4 -34 -12.5t-15 -26.5l-36 -179q-3 -14 -12 -20t-29 -8q-43 -5 -90.5 -7t-93.5 -2q-78 0 -133.5 21.5t-91 58.5t-52.5 87t-17 107
q0 69 23.5 140t72.5 128.5t122.5 94t174.5 37.5q52 0 103 -9t98 -24q-2 -14 -2 -29v-29q0 -18 1 -36.5t3 -39.5q-9 -9 -27 -9q-22 0 -25 20q-13 61 -53 88t-96 27q-66 0 -115.5 -29.5t-82.5 -78.5t-49.5 -113.5t-16.5 -134.5q0 -106 48 -169.5t140 -63.5q26 0 51.5 1.5
t33.5 3.5zM234 -244q-16 11 -16 21q0 5 2 9t10 9q23 13 34 23t11 25q0 12 -6 19t-12.5 12t-12.5 11t-6 16q0 14 11 25.5t43 28.5q29 -17 46.5 -34.5t17.5 -44.5q0 -15 -4.5 -30t-18 -29.5t-37.5 -29.5t-62 -31z" />
    <glyph glyph-name="gcommaaccent" unicode="&#x123;" horiz-adv-x="461" 
d="M303 393q-8 3 -19.5 4.5t-21.5 1.5q-38 0 -66.5 -22.5t-47.5 -60.5t-28.5 -88t-9.5 -105q0 -32 6 -49t23 -17q14 0 32.5 17.5t37 46.5t36 65t31 73.5t21 72.5t6.5 61zM8 -130q16 -33 44.5 -55.5t60.5 -22.5q38 0 63 35.5t39 98.5l49 215l-3 2q-13 -31 -32 -59t-42 -49.5
t-48 -34t-50 -12.5q-18 0 -35.5 4.5t-31 16t-21.5 31.5t-8 51q0 81 26 146t66.5 110.5t90 70t97.5 24.5q21 0 38 -1t33.5 -3t35 -5t41.5 -8l-90 -464q-11 -56 -38 -96.5t-61.5 -66.5t-72 -38t-70.5 -12q-82 0 -131 23q7 18 14.5 42t10.5 51zM346 688q16 -11 16 -21
q0 -5 -2 -9t-10 -9q-23 -13 -34 -23t-11 -25q0 -12 6 -19t12.5 -12t12.5 -11t6 -16q0 -14 -11 -25.5t-43 -28.5q-29 17 -46.5 34.5t-17.5 44.5q0 15 4.5 30t18 29.5t37.5 29.5t62 31z" />
    <glyph glyph-name="Hcircumflex" unicode="&#x124;" 
d="M538 580q4 18 -3.5 28t-36.5 13q-22 3 -22 16q0 7 5 20q37 -3 69 -5t55 -2q20 0 56 1.5t71 5.5q3 -11 3 -19t-4.5 -12t-18.5 -6q-28 -4 -39.5 -13t-15.5 -29l-96 -509q-4 -20 6 -27.5t37 -12.5q19 -4 19 -18q0 -8 -3 -18q-37 3 -73 5t-59 2q-20 0 -52.5 -2t-66.5 -5
q-3 10 -3 18t3.5 12t14.5 6q26 4 39 13.5t17 28.5l46 236h-249l-45 -238q-4 -20 7 -27.5t38 -12.5q19 -4 19 -18q0 -8 -3 -18q-37 3 -73 5t-59 2q-20 0 -52.5 -2t-66.5 -5q-3 10 -3 18t3.5 12t14.5 6q26 4 39 13.5t17 28.5l98 509q4 18 -3.5 28t-36.5 13q-22 3 -22 16
q0 7 5 20q37 -3 69 -5t55 -2q20 0 56 1.5t71 5.5q3 -11 3 -19t-4.5 -12t-18.5 -6q-28 -4 -39.5 -13t-15.5 -29l-44 -223h248zM574 758q15 -20 8 -28.5t-29 -19.5q-31 25 -55 41t-43 27q-31 -14 -62.5 -31t-63.5 -37q-23 12 -25 22t12 22l126 108q32 0 46.5 -4.5t26.5 -20.5z
" />
    <glyph glyph-name="hcircumflex" unicode="&#x125;" horiz-adv-x="517" 
d="M325 296q4 17 6 29t2 21q0 20 -16 20q-11 0 -28.5 -15.5t-38.5 -40.5t-42.5 -56.5t-39.5 -64.5q-18 -32 -30.5 -76.5t-12.5 -79.5q0 -16 3 -29q-24 -3 -48.5 -7t-52.5 -12q-17 7 -17 18q0 5 1 10.5t2 8.5l99 498q5 21 7.5 46t2.5 42q0 11 -9 11q-10 0 -24.5 -2.5
t-25.5 -2.5q-9 0 -12.5 8t-3.5 20q47 14 92.5 27.5t90.5 30.5q19 -8 19 -27q0 -4 -1 -9.5t-2 -9.5l-87 -402l3 -1q22 36 46.5 70.5t51.5 61.5t56.5 43t61.5 16q27 0 47 -12.5t20 -45.5q0 -12 -1.5 -28.5t-5.5 -35.5l-48 -229q-3 -12 -3 -18q0 -9 9 -9q6 0 14.5 3.5t16.5 8
t15 8t11 3.5q8 0 12.5 -8.5t5.5 -16.5q-16 -11 -37.5 -24t-44 -24t-44 -18.5t-37.5 -7.5q-17 0 -28.5 7t-11.5 24q0 6 1 11.5t2 9.5zM349 758q15 -20 8 -28.5t-29 -19.5q-31 25 -55 41t-43 27q-31 -14 -62.5 -31t-63.5 -37q-23 12 -25 22t12 22l126 108q32 0 46.5 -4.5
t26.5 -20.5z" />
    <glyph glyph-name="Hbar" unicode="&#x126;" 
d="M634 460l-73 -391q-4 -20 6 -27.5t37 -12.5q19 -4 19 -18q0 -8 -3 -18q-37 3 -73 5t-59 2q-20 0 -52.5 -2t-66.5 -5q-3 10 -3 18t3.5 12t14.5 6q26 4 39 13.5t17 28.5l46 236h-249l-45 -238q-4 -20 7 -27.5t38 -12.5q19 -4 19 -18q0 -8 -3 -18q-37 3 -73 5t-59 2
q-20 0 -52.5 -2t-66.5 -5q-3 10 -3 18t3.5 12t14.5 6q26 4 39 13.5t17 28.5l75 389h-92q3 26 13.5 37.5t32.5 11.5h55l14 71q4 18 -3.5 28t-36.5 13q-22 3 -22 16q0 7 5 20q37 -3 69 -5t55 -2q20 0 56 1.5t71 5.5q3 -11 3 -19t-4.5 -12t-18.5 -6q-28 -4 -39.5 -13t-15.5 -29
l-14 -69h248l14 71q4 18 -3.5 28t-36.5 13q-22 3 -22 16q0 7 5 20q37 -3 69 -5t55 -2q20 0 56 1.5t71 5.5q3 -11 3 -19t-4.5 -12t-18.5 -6q-28 -4 -39.5 -13t-15.5 -29l-13 -69h91q-4 -27 -14 -38t-30 -11h-57zM514 460h-248l-20 -105h248z" />
    <glyph glyph-name="hbar" unicode="&#x127;" horiz-adv-x="517" 
d="M325 296q4 17 6 29t2 21q0 20 -16 20q-11 0 -28.5 -15.5t-38.5 -40.5t-42.5 -56.5t-39.5 -64.5q-18 -32 -30.5 -76.5t-12.5 -79.5q0 -16 3 -29q-24 -3 -48.5 -7t-52.5 -12q-17 7 -17 18q0 5 1 10.5t2 8.5l97 490h-68q2 26 11.5 36t28.5 10h36q2 14 3 26.5t1 23.5t-9 11
q-10 0 -24.5 -2.5t-25.5 -2.5q-9 0 -12.5 8t-3.5 20q47 14 92.5 27.5t90.5 30.5q19 -8 19 -27q0 -4 -1 -9.5t-2 -9.5l-21 -96h148q-2 -26 -11 -36t-29 -10h-118l-56 -260l3 -1q22 36 46.5 70.5t51.5 61.5t56.5 43t61.5 16q27 0 47 -12.5t20 -45.5q0 -12 -1.5 -28.5
t-5.5 -35.5l-48 -229q-3 -12 -3 -18q0 -9 9 -9q6 0 14.5 3.5t16.5 8t15 8t11 3.5q8 0 12.5 -8.5t5.5 -16.5q-16 -11 -37.5 -24t-44 -24t-44 -18.5t-37.5 -7.5q-17 0 -28.5 7t-11.5 24q0 6 1 11.5t2 9.5z" />
    <glyph glyph-name="Itilde" unicode="&#x128;" horiz-adv-x="370" 
d="M175 580q4 18 -3.5 28t-36.5 13q-22 3 -22 16q0 7 5 20q37 -3 69 -5t55 -2q20 0 56 1.5t71 5.5q3 -11 3 -19t-4.5 -12t-18.5 -6q-28 -4 -39.5 -13t-15.5 -29l-96 -509q-4 -20 6 -27.5t37 -12.5q19 -4 19 -18q0 -8 -3 -18q-37 3 -73 5t-59 2q-20 0 -52.5 -2t-66.5 -5
q-3 10 -3 18t3.5 12t14.5 6q26 4 39 13.5t17 28.5zM143 743q35 32 55.5 46t43.5 14q12 0 23 -4t22 -9.5t21.5 -9.5t20.5 -4q8 0 21.5 5t38.5 22q13 -6 16.5 -14t-8.5 -21q-22 -23 -45 -41.5t-47 -18.5q-14 0 -26 5t-23 10.5t-22.5 10.5t-24.5 5t-26.5 -8.5t-30.5 -22.5
q-14 8 -18.5 15t9.5 20z" />
    <glyph glyph-name="itilde" unicode="&#x129;" horiz-adv-x="263" 
d="M137 91q-3 -12 -3 -18q0 -9 9 -9q6 0 14.5 3.5t16.5 8t15 8t11 3.5q8 0 12.5 -8.5t5.5 -16.5q-16 -11 -37.5 -24t-44 -24t-44 -18.5t-37.5 -7.5q-17 0 -28.5 7t-11.5 24q0 6 1 11.5t2 9.5l64 305q3 15 -5 15q-3 0 -9 -2.5t-13.5 -5.5t-15 -5.5t-12.5 -2.5q-9 0 -13.5 9
t-6.5 17q19 10 45.5 23t52 23.5t46.5 18t30 7.5q8 0 15 -4t7 -14q0 -3 -0.5 -8t-1.5 -10zM50 562q35 32 55.5 46t43.5 14q12 0 23 -4t22 -9.5t21.5 -9.5t20.5 -4q8 0 21.5 5t38.5 22q13 -6 16.5 -14t-8.5 -21q-22 -23 -45 -41.5t-47 -18.5q-14 0 -26 5t-23 10.5t-22.5 10.5
t-24.5 5t-26.5 -8.5t-30.5 -22.5q-14 8 -18.5 15t9.5 20z" />
    <glyph glyph-name="Imacron" unicode="&#x12a;" horiz-adv-x="370" 
d="M175 580q4 18 -3.5 28t-36.5 13q-22 3 -22 16q0 7 5 20q37 -3 69 -5t55 -2q20 0 56 1.5t71 5.5q3 -11 3 -19t-4.5 -12t-18.5 -6q-28 -4 -39.5 -13t-15.5 -29l-96 -509q-4 -20 6 -27.5t37 -12.5q19 -4 19 -18q0 -8 -3 -18q-37 3 -73 5t-59 2q-20 0 -52.5 -2t-66.5 -5
q-3 10 -3 18t3.5 12t14.5 6q26 4 39 13.5t17 28.5zM121 739q4 32 17 46t39 14h225q-5 -34 -17 -47t-38 -13h-226z" />
    <glyph glyph-name="imacron" unicode="&#x12b;" horiz-adv-x="263" 
d="M137 91q-3 -12 -3 -18q0 -9 9 -9q6 0 14.5 3.5t16.5 8t15 8t11 3.5q8 0 12.5 -8.5t5.5 -16.5q-16 -11 -37.5 -24t-44 -24t-44 -18.5t-37.5 -7.5q-17 0 -28.5 7t-11.5 24q0 6 1 11.5t2 9.5l64 305q3 15 -5 15q-3 0 -9 -2.5t-13.5 -5.5t-15 -5.5t-12.5 -2.5q-9 0 -13.5 9
t-6.5 17q19 10 45.5 23t52 23.5t46.5 18t30 7.5q8 0 15 -4t7 -14q0 -3 -0.5 -8t-1.5 -10zM30 543q4 32 17 46t39 14h225q-5 -34 -17 -47t-38 -13h-226z" />
    <glyph glyph-name="Ibreve" unicode="&#x12c;" horiz-adv-x="370" 
d="M175 580q4 18 -3.5 28t-36.5 13q-22 3 -22 16q0 7 5 20q37 -3 69 -5t55 -2q20 0 56 1.5t71 5.5q3 -11 3 -19t-4.5 -12t-18.5 -6q-28 -4 -39.5 -13t-15.5 -29l-96 -509q-4 -20 6 -27.5t37 -12.5q19 -4 19 -18q0 -8 -3 -18q-37 3 -73 5t-59 2q-20 0 -52.5 -2t-66.5 -5
q-3 10 -3 18t3.5 12t14.5 6q26 4 39 13.5t17 28.5zM274 777q26 0 48.5 13.5t50.5 53.5q17 -2 23.5 -9.5t2.5 -16.5q-20 -46 -57 -76.5t-80 -30.5q-28 0 -47.5 10t-32.5 26t-19.5 36t-7.5 40q-2 21 31 22q16 -41 40.5 -54.5t47.5 -13.5z" />
    <glyph glyph-name="ibreve" unicode="&#x12d;" horiz-adv-x="263" 
d="M137 91q-3 -12 -3 -18q0 -9 9 -9q6 0 14.5 3.5t16.5 8t15 8t11 3.5q8 0 12.5 -8.5t5.5 -16.5q-16 -11 -37.5 -24t-44 -24t-44 -18.5t-37.5 -7.5q-17 0 -28.5 7t-11.5 24q0 6 1 11.5t2 9.5l64 305q3 15 -5 15q-3 0 -9 -2.5t-13.5 -5.5t-15 -5.5t-12.5 -2.5q-9 0 -13.5 9
t-6.5 17q19 10 45.5 23t52 23.5t46.5 18t30 7.5q8 0 15 -4t7 -14q0 -3 -0.5 -8t-1.5 -10zM180 571q26 0 48.5 13.5t50.5 53.5q17 -2 23.5 -9.5t2.5 -16.5q-20 -46 -57 -76.5t-80 -30.5q-28 0 -47.5 10t-32 25.5t-19 35.5t-8.5 41t31 22q16 -41 40.5 -54.5t47.5 -13.5z" />
    <glyph glyph-name="Iogonek" unicode="&#x12e;" horiz-adv-x="370" 
d="M175 580q4 18 -3.5 28t-36.5 13q-22 3 -22 16q0 7 5 20q37 -3 69 -5t55 -2q20 0 56 1.5t71 5.5q3 -11 3 -19t-4.5 -12t-18.5 -6q-28 -4 -39.5 -13t-15.5 -29l-96 -509q-4 -20 6 -27.5t37 -12.5q19 -4 19 -18q0 -8 -3 -18q-21 2 -42 3t-41 3q-37 -35 -54.5 -69.5
t-17.5 -62.5q0 -9 5.5 -18t20.5 -9q11 0 36 11q12 5 21.5 1.5t11.5 -26.5q-8 -6 -22.5 -14.5t-32.5 -17t-37 -14.5t-34 -6q-33 0 -48 18t-15 41q0 22 9 43.5t24.5 42t35.5 41t42 40.5q-21 0 -51 -2t-62 -5q-3 10 -3 18t3.5 12t14.5 6q26 4 39 13.5t17 28.5z" />
    <glyph glyph-name="iogonek" unicode="&#x12f;" horiz-adv-x="263" 
d="M137 91q-3 -12 -3 -18q0 -9 9 -9q6 0 14.5 3.5t16.5 8t15 8t11 3.5q8 0 12.5 -8.5t5.5 -16.5q-17 -12 -39 -26l-44 -28q-47 -31 -67.5 -69.5t-20.5 -71.5q0 -9 5.5 -18t20.5 -9q11 0 36 11q12 5 21.5 1.5t11.5 -26.5q-8 -6 -22.5 -14.5t-32.5 -17t-37 -14.5t-34 -6
q-33 0 -48 18t-15 41q0 42 29 79.5t69 75.5q-15 1 -25.5 7.5t-10.5 23.5q0 6 1 11.5t2 9.5l64 305q3 15 -5 15q-3 0 -9 -2.5t-13.5 -5.5t-15 -5.5t-12.5 -2.5q-9 0 -13.5 9t-6.5 17q19 10 45.5 23t52 23.5t46.5 18t30 7.5q8 0 15 -4t7 -14q0 -3 -0.5 -8t-1.5 -10zM161 525
q-27 0 -43 13.5t-16 36.5q0 31 24 53t57 22q29 0 42 -17.5t13 -35.5q0 -32 -22.5 -52t-54.5 -20z" />
    <glyph glyph-name="Idotaccent" unicode="&#x130;" horiz-adv-x="370" 
d="M175 580q4 18 -3.5 28t-36.5 13q-22 3 -22 16q0 7 5 20q37 -3 69 -5t55 -2q20 0 56 1.5t71 5.5q3 -11 3 -19t-4.5 -12t-18.5 -6q-28 -4 -39.5 -13t-15.5 -29l-96 -509q-4 -20 6 -27.5t37 -12.5q19 -4 19 -18q0 -8 -3 -18q-37 3 -73 5t-59 2q-20 0 -52.5 -2t-66.5 -5
q-3 10 -3 18t3.5 12t14.5 6q26 4 39 13.5t17 28.5zM259 710q-27 0 -43 13.5t-16 36.5q0 31 24 53t57 22q29 0 42 -17.5t13 -35.5q0 -32 -22.5 -52t-54.5 -20z" />
    <glyph glyph-name="dotlessi" unicode="&#x131;" horiz-adv-x="263" 
d="M137 91q-3 -12 -3 -18q0 -9 9 -9q6 0 14.5 3.5t16.5 8t15 8t11 3.5q8 0 12.5 -8.5t5.5 -16.5q-16 -11 -37.5 -24t-44 -24t-44 -18.5t-37.5 -7.5q-17 0 -28.5 7t-11.5 24q0 6 1 11.5t2 9.5l64 305q3 15 -5 15q-3 0 -9 -2.5t-13.5 -5.5t-15 -5.5t-12.5 -2.5q-9 0 -13.5 9
t-6.5 17q19 10 45.5 23t52 23.5t46.5 18t30 7.5q8 0 15 -4t7 -14q0 -3 -0.5 -8t-1.5 -10z" />
    <glyph glyph-name="IJ" unicode="&#x132;" horiz-adv-x="722" 
d="M175 580q4 18 -3.5 28t-36.5 13q-22 3 -22 16q0 7 5 20q37 -3 69 -5t55 -2q20 0 56 1.5t71 5.5q3 -11 3 -19t-4.5 -12t-18.5 -6q-28 -4 -39.5 -13t-15.5 -29l-96 -509q-4 -20 6 -27.5t37 -12.5q19 -4 19 -18q0 -8 -3 -18q-37 3 -73 5t-59 2q-20 0 -52.5 -2t-66.5 -5
q-3 10 -3 18t3.5 12t14.5 6q26 4 39 13.5t17 28.5zM580 202q-13 -68 -29 -117.5t-43 -91.5t-70.5 -81.5t-111.5 -87.5q-7 5 -12.5 10.5t-5.5 13.5q0 10 11 21q30 30 50.5 57.5t34.5 55t23 57.5t16 66l90 473q4 19 -4 29.5t-39 13.5q-26 2 -26 18q0 6 5 19q37 -4 74.5 -6
t61.5 -2q20 0 52.5 2t66.5 5q3 -9 3 -17q0 -9 -6.5 -14.5t-23.5 -7.5q-21 -3 -31 -11.5t-14 -27.5z" />
    <glyph glyph-name="ij" unicode="&#x133;" horiz-adv-x="508" 
d="M161 525q-27 0 -43 13.5t-16 36.5q0 31 24 53t57 22q29 0 42 -17.5t13 -35.5q0 -32 -22.5 -52t-54.5 -20zM137 91q-3 -12 -3 -18q0 -9 9 -9q6 0 14.5 3.5t16.5 8t15 8t11 3.5q8 0 12.5 -8.5t5.5 -16.5q-16 -11 -37.5 -24t-44 -24t-44 -18.5t-37.5 -7.5q-17 0 -28.5 7
t-11.5 24q0 6 1 11.5t2 9.5l64 305q3 15 -5 15q-3 0 -9 -2.5t-13.5 -5.5t-15 -5.5t-12.5 -2.5q-9 0 -13.5 9t-6.5 17q19 10 45.5 23t52 23.5t46.5 18t30 7.5q8 0 15 -4t7 -14q0 -3 -0.5 -8t-1.5 -10zM178 -215q19 17 31 33t19.5 33t12 35.5t9.5 41.5l84 409q1 3 2 9t1 8
q0 6 -6 6q-3 0 -9 -2.5t-13.5 -5.5t-15 -5.5t-12.5 -2.5q-9 0 -13.5 9t-6.5 17q19 10 45.5 23t52 23.5t46.5 18t30 7.5q8 0 15 -4t7 -14q0 -3 -0.5 -8t-1.5 -10l-91 -452q-14 -71 -60.5 -120t-110.5 -87q-10 3 -16.5 9t-6.5 14t8 15zM415 524q-27 0 -43 13.5t-16 36.5
q0 31 24 53t57 22q29 0 42 -17.5t13 -35.5q0 -32 -22.5 -52t-54.5 -20z" />
    <glyph glyph-name="Jcircumflex" unicode="&#x134;" horiz-adv-x="358" 
d="M216 202q-13 -68 -29 -117.5t-43 -91.5t-70.5 -81.5t-111.5 -87.5q-7 5 -12.5 10.5t-5.5 13.5q0 10 11 21q30 30 50.5 57.5t34.5 55t23 57.5t16 66l90 473q4 19 -4 29.5t-39 13.5q-26 2 -26 18q0 6 5 19q37 -4 74.5 -6t61.5 -2q20 0 52.5 2t66.5 5q3 -9 3 -17
q0 -9 -6.5 -14.5t-23.5 -7.5q-21 -3 -31 -11.5t-14 -27.5zM380 758q15 -20 8 -28.5t-29 -19.5q-31 25 -55 41t-43 27q-31 -14 -62.5 -31t-63.5 -37q-23 12 -25 22t12 22l126 108q32 0 46.5 -4.5t26.5 -20.5z" />
    <glyph glyph-name="jcircumflex" unicode="&#x135;" horiz-adv-x="255" 
d="M-75 -215q19 17 31 33t19.5 33t12 35.5t9.5 41.5l86 417q3 15 -5 15q-3 0 -9 -2.5t-13.5 -5.5t-15 -5.5t-12.5 -2.5q-9 0 -13.5 9t-6.5 17q19 10 45.5 23t52 23.5t46.5 18t30 7.5q8 0 15 -4t7 -14q0 -3 -0.5 -8t-1.5 -10l-91 -452q-14 -71 -60.5 -120t-110.5 -87
q-15 5 -21.5 16t6.5 22zM284 524q5 -13 1 -21t-26 -18q-21 28 -42.5 52.5t-39.5 39.5q-26 -17 -58.5 -42t-67.5 -54q-12 7 -17.5 14t-6.5 12t1 9.5t5 7.5l121 138q42 3 59.5 -4t25.5 -25z" />
    <glyph glyph-name="Kcommaaccent" unicode="&#x136;" horiz-adv-x="654" 
d="M265 334l2 9l244 226q14 12 14 27q0 8 -6 16.5t-23 10.5q-12 2 -16.5 5t-4.5 10q0 8 4 19q33 -4 56 -5.5t49 -1.5q24 0 49 1.5t52 5.5q3 -11 3 -18q0 -16 -21 -20t-37 -11.5t-34 -24.5l-228 -211l175 -304q11 -16 23.5 -26t34.5 -15q19 -3 19 -15q0 -5 -7 -19
q-30 4 -60 5.5t-48 1.5q-31 0 -46.5 14t-33.5 40zM171 580q4 18 -3.5 28t-36.5 13q-22 3 -22 16q0 7 5 20q37 -3 69 -5t55 -2q20 0 56 1.5t71 5.5q3 -11 3 -19t-4.5 -12t-18.5 -6q-28 -4 -39.5 -13t-15.5 -29l-96 -509q-4 -20 6 -27.5t37 -12.5q19 -4 19 -18q0 -8 -3 -18
q-37 3 -73 5t-59 2q-20 0 -52.5 -2t-66.5 -5q-3 10 -3 18t3.5 12t14.5 6q26 4 39 13.5t17 28.5zM241 -244q-16 11 -16 21q0 5 2 9t10 9q23 13 34 23t11 25q0 12 -6 19t-12.5 12t-12.5 11t-6 16q0 14 11 25.5t43 28.5q29 -17 46.5 -34.5t17.5 -44.5q0 -15 -4.5 -30t-18 -29.5
t-37.5 -29.5t-62 -31z" />
    <glyph glyph-name="kcommaaccent" unicode="&#x137;" horiz-adv-x="458" 
d="M110 520q5 21 7.5 46t2.5 42q0 11 -9 11q-10 0 -24.5 -2.5t-25.5 -2.5q-9 0 -12.5 8t-3.5 20q47 14 91.5 27.5t89.5 30.5q19 -8 19 -27q0 -4 -1 -9.5t-2 -9.5l-83 -394l5 -1q40 54 73.5 89.5t62 56.5t52 29t43.5 8q14 0 24 -2t19 -4q-5 -13 -9.5 -35t-7.5 -45l-17 -6
q-7 10 -16.5 18t-25.5 8q-7 0 -19.5 -4.5t-29.5 -15.5t-38 -29.5t-44 -47.5q29 -63 53.5 -119t40.5 -84q11 -18 17 -21.5t13 -3.5q15 0 30.5 10.5t26.5 10.5q8 0 11.5 -6.5t5.5 -17.5q-17 -12 -35.5 -23t-37 -19.5t-35 -13t-28.5 -4.5q-15 0 -28 5.5t-23 24.5
q-7 13 -16.5 33.5t-21 44t-23 48.5t-21.5 46q-9 -17 -16 -38t-11.5 -42.5t-6.5 -41.5t-2 -35q0 -16 3 -29q-24 -3 -48.5 -7t-52.5 -12q-17 7 -17 18q0 5 1 10.5t2 8.5zM124 -244q-16 11 -16 21q0 5 2 9t10 9q23 13 34 23t11 25q0 12 -6 19t-12.5 12t-12.5 11t-6 16
q0 14 11 25.5t43 28.5q29 -17 46.5 -34.5t17.5 -44.5q0 -15 -4.5 -30t-18 -29.5t-37.5 -29.5t-62 -31z" />
    <glyph glyph-name="kgreenlandic" unicode="&#x138;" horiz-adv-x="458" 
d="M69 268q5 21 7.5 46t2.5 42q0 11 -9 11q-10 0 -24.5 -2.5t-25.5 -2.5q-9 0 -12.5 8t-3.5 20q47 14 91.5 27.5t89.5 30.5q19 -8 19 -27q0 -4 -1 -9.5t-2 -9.5l-34 -148l5 -1q40 54 74 90.5t62.5 58.5t52.5 31t44 9q14 0 24 -2t19 -4q-5 -13 -9.5 -35t-7.5 -45l-17 -6
q-7 10 -16.5 18t-25.5 8q-14 0 -50 -22.5t-83 -80.5q29 -63 54.5 -116t41.5 -81q11 -18 17 -21.5t13 -3.5q15 0 30.5 10.5t26.5 10.5q8 0 11.5 -6.5t5.5 -17.5q-17 -12 -35.5 -23t-37 -19.5t-35 -13t-28.5 -4.5q-15 0 -28 5.5t-23 24.5q-7 13 -17 32.5t-21.5 42t-23.5 46.5
t-22 45q-9 -17 -15.5 -37t-10.5 -40.5t-6 -39.5t-2 -34q0 -16 3 -29q-24 -3 -48.5 -7t-52.5 -12q-17 7 -17 18q0 5 1 10.5t2 8.5z" />
    <glyph glyph-name="Lacute" unicode="&#x139;" horiz-adv-x="556" 
d="M122 0q-21 0 -54.5 -2t-66.5 -5q-2 5 -3 9.5t-1 9.5q0 6 4 10.5t15 6.5q25 4 39 13t18 29l98 510q4 18 -8 27t-38 13q-19 3 -19 16q0 4 1 9t3 11q38 -4 74.5 -5.5t61.5 -1.5q28 0 69 2t75 5q2 -7 3 -11.5t1 -9.5q0 -15 -23 -18q-40 -5 -60 -15.5t-25 -38.5l-95 -498
q-2 -12 1.5 -17.5t19.5 -5.5h100q42 0 77.5 22.5t73.5 76.5q5 8 9 12t12 4q9 0 17.5 -5.5t14.5 -11.5q-5 -11 -11 -23q-5 -11 -11.5 -24.5t-12.5 -30.5q-8 -20 -11.5 -35.5t-7.5 -23.5q-3 -7 -6.5 -8.5t-8.5 -1.5q-11 0 -19.5 1t-18.5 2t-22.5 2t-30.5 1h-234zM341 866
q65 -29 65 -57q0 -13 -10.5 -19.5t-25.5 -11.5q-21 -6 -38 -12.5t-35 -14t-38.5 -18t-47.5 -24.5q-20 15 -20 23t17 22z" />
    <glyph glyph-name="lacute" unicode="&#x13a;" horiz-adv-x="260" 
d="M135 91q-3 -12 -3 -18q0 -9 9 -9q6 0 14.5 3.5t16.5 8t15 8t11 3.5q8 0 12.5 -8.5t5.5 -16.5q-16 -11 -37.5 -24t-44 -24t-44 -18.5t-37.5 -7.5q-17 0 -28.5 7t-11.5 24q0 6 1 11.5t2 9.5l97 480q5 21 7.5 46t2.5 42q0 11 -9 11q-10 0 -24.5 -2.5t-25.5 -2.5
q-9 0 -12.5 8t-3.5 20q47 14 91.5 27.5t89.5 30.5q19 -8 19 -27q0 -4 -1 -9.5t-2 -9.5zM274 866q65 -29 65 -57q0 -13 -10.5 -19.5t-25.5 -11.5q-21 -6 -38 -12.5t-35 -14t-38.5 -18t-47.5 -24.5q-20 15 -20 23t17 22z" />
    <glyph glyph-name="Lcommaaccent" unicode="&#x13b;" horiz-adv-x="556" 
d="M122 0q-21 0 -54.5 -2t-66.5 -5q-2 5 -3 9.5t-1 9.5q0 6 4 10.5t15 6.5q25 4 39 13t18 29l98 510q4 18 -8 27t-38 13q-19 3 -19 16q0 4 1 9t3 11q38 -4 74.5 -5.5t61.5 -1.5q28 0 69 2t75 5q2 -7 3 -11.5t1 -9.5q0 -15 -23 -18q-40 -5 -60 -15.5t-25 -38.5l-95 -498
q-2 -12 1.5 -17.5t19.5 -5.5h100q42 0 77.5 22.5t73.5 76.5q5 8 9 12t12 4q9 0 17.5 -5.5t14.5 -11.5q-5 -11 -11 -23q-5 -11 -11.5 -24.5t-12.5 -30.5q-8 -20 -11.5 -35.5t-7.5 -23.5q-3 -7 -6.5 -8.5t-8.5 -1.5q-11 0 -19.5 1t-18.5 2t-22.5 2t-30.5 1h-234zM170 -244
q-16 11 -16 21q0 5 2 9t10 9q23 13 34 23t11 25q0 12 -6 19t-12.5 12t-12.5 11t-6 16q0 14 11 25.5t43 28.5q29 -17 46.5 -34.5t17.5 -44.5q0 -15 -4.5 -30t-18 -29.5t-37.5 -29.5t-62 -31z" />
    <glyph glyph-name="lcommaaccent" unicode="&#x13c;" horiz-adv-x="260" 
d="M135 91q-3 -12 -3 -18q0 -9 9 -9q6 0 14.5 3.5t16.5 8t15 8t11 3.5q8 0 12.5 -8.5t5.5 -16.5q-16 -11 -37.5 -24t-44 -24t-44 -18.5t-37.5 -7.5q-17 0 -28.5 7t-11.5 24q0 6 1 11.5t2 9.5l97 480q5 21 7.5 46t2.5 42q0 11 -9 11q-10 0 -24.5 -2.5t-25.5 -2.5
q-9 0 -12.5 8t-3.5 20q47 14 91.5 27.5t89.5 30.5q19 -8 19 -27q0 -4 -1 -9.5t-2 -9.5zM17 -244q-16 11 -16 21q0 5 2 9t10 9q23 13 34 23t11 25q0 12 -6 19t-12.5 12t-12.5 11t-6 16q0 14 11 25.5t43 28.5q29 -17 46.5 -34.5t17.5 -44.5q0 -15 -4.5 -30t-18 -29.5
t-37.5 -29.5t-62 -31z" />
    <glyph glyph-name="Lcaron" unicode="&#x13d;" horiz-adv-x="556" 
d="M122 0q-21 0 -54.5 -2t-66.5 -5q-2 5 -3 9.5t-1 9.5q0 6 4 10.5t15 6.5q25 4 39 13t18 29l98 510q4 18 -8 27t-38 13q-19 3 -19 16q0 4 1 9t3 11q38 -4 74.5 -5.5t61.5 -1.5q28 0 69 2t75 5q2 -7 3 -11.5t1 -9.5q0 -15 -23 -18q-40 -5 -60 -15.5t-25 -38.5l-95 -498
q-2 -12 1.5 -17.5t19.5 -5.5h100q42 0 77.5 22.5t73.5 76.5q5 8 9 12t12 4q9 0 17.5 -5.5t14.5 -11.5q-5 -11 -11 -23q-5 -11 -11.5 -24.5t-12.5 -30.5q-8 -20 -11.5 -35.5t-7.5 -23.5q-3 -7 -6.5 -8.5t-8.5 -1.5q-11 0 -19.5 1t-18.5 2t-22.5 2t-30.5 1h-234zM457 636
q29 21 63 21q40 0 40 -27q0 -11 -7 -24q-11 -20 -19.5 -37.5t-17.5 -36t-18 -41t-19 -51.5q-5 -1 -9 -1.5t-8 -0.5q-23 0 -23 26z" />
    <glyph glyph-name="lcaron" unicode="&#x13e;" horiz-adv-x="316" 
d="M135 91q-3 -12 -3 -18q0 -9 9 -9q6 0 14.5 3.5t16.5 8t15 8t11 3.5q8 0 12.5 -8.5t5.5 -16.5q-16 -11 -37.5 -24t-44 -24t-44 -18.5t-37.5 -7.5q-17 0 -28.5 7t-11.5 24q0 6 1 11.5t2 9.5l97 480q5 21 7.5 46t2.5 42q0 11 -9 11q-10 0 -24.5 -2.5t-25.5 -2.5
q-9 0 -12.5 8t-3.5 20q47 14 91.5 27.5t89.5 30.5q19 -8 19 -27q0 -4 -1 -9.5t-2 -9.5zM331 691q29 21 63 21q40 0 40 -27q0 -11 -7 -24q-11 -20 -19.5 -37.5t-17.5 -36t-18 -41t-19 -51.5q-5 -1 -9 -1.5t-8 -0.5q-23 0 -23 26z" />
    <glyph glyph-name="Ldot" unicode="&#x13f;" horiz-adv-x="556" 
d="M122 0q-21 0 -54.5 -2t-66.5 -5q-2 5 -3 9.5t-1 9.5q0 6 4 10.5t15 6.5q25 4 39 13t18 29l98 510q4 18 -8 27t-38 13q-19 3 -19 16q0 4 1 9t3 11q38 -4 74.5 -5.5t61.5 -1.5q28 0 69 2t75 5q2 -7 3 -11.5t1 -9.5q0 -15 -23 -18q-40 -5 -60 -15.5t-25 -38.5l-95 -498
q-2 -12 1.5 -17.5t19.5 -5.5h100q42 0 77.5 22.5t73.5 76.5q5 8 9 12t12 4q9 0 17.5 -5.5t14.5 -11.5q-5 -11 -11 -23q-5 -11 -11.5 -24.5t-12.5 -30.5q-8 -20 -11.5 -35.5t-7.5 -23.5q-3 -7 -6.5 -8.5t-8.5 -1.5q-11 0 -19.5 1t-18.5 2t-22.5 2t-30.5 1h-234zM443 259
q-27 0 -43 13.5t-16 36.5q0 31 24 53t57 22q29 0 42 -17.5t13 -35.5q0 -32 -22.5 -52t-54.5 -20z" />
    <glyph glyph-name="ldot" unicode="&#x140;" horiz-adv-x="378" 
d="M135 91q-3 -12 -3 -18q0 -9 9 -9q6 0 14.5 3.5t16.5 8t15 8t11 3.5q8 0 12.5 -8.5t5.5 -16.5q-16 -11 -37.5 -24t-44 -24t-44 -18.5t-37.5 -7.5q-17 0 -28.5 7t-11.5 24q0 6 1 11.5t2 9.5l97 480q5 21 7.5 46t2.5 42q0 11 -9 11q-10 0 -24.5 -2.5t-25.5 -2.5
q-9 0 -12.5 8t-3.5 20q47 14 91.5 27.5t89.5 30.5q19 -8 19 -27q0 -4 -1 -9.5t-2 -9.5zM310 242q-27 0 -43 13.5t-16 36.5q0 31 24 53t57 22q29 0 42 -17.5t13 -35.5q0 -32 -22.5 -52t-54.5 -20z" />
    <glyph glyph-name="Lslash" unicode="&#x141;" horiz-adv-x="556" 
d="M122 0q-21 0 -54.5 -2t-66.5 -5q-2 5 -3 9.5t-1 9.5q0 6 4 10.5t15 6.5q25 4 39 13t18 29l40 206l-89 -34q-9 18 -9 31q0 23 23 32l87 34l46 241q4 18 -8 27t-38 13q-19 3 -19 16q0 4 1 9t3 11q38 -4 74.5 -5.5t61.5 -1.5q28 0 69 2t75 5q2 -7 3 -11.5t1 -9.5
q0 -15 -23 -18q-40 -5 -60 -15.5t-25 -38.5l-36 -187l137 53q9 -20 9 -32q0 -19 -20 -30l-138 -56l-47 -246q-2 -12 1.5 -17.5t19.5 -5.5h100q42 0 77.5 22.5t73.5 76.5q5 8 9 12t12 4q9 0 17.5 -5.5t14.5 -11.5q-5 -11 -11 -23q-5 -11 -11.5 -24.5t-12.5 -30.5
q-8 -20 -11.5 -35.5t-7.5 -23.5q-3 -7 -6.5 -8.5t-8.5 -1.5q-11 0 -19.5 1t-18.5 2t-22.5 2t-30.5 1h-234v0z" />
    <glyph glyph-name="lslash" unicode="&#x142;" horiz-adv-x="321" 
d="M211 387l85 49q10 -21 8 -33t-17 -21l-87 -51l-47 -240q-3 -12 -3 -18q0 -9 9 -9q6 0 14.5 3.5t16.5 8t15 8t11 3.5q8 0 12.5 -8.5t5.5 -16.5q-16 -11 -37.5 -24t-44 -24t-44 -18.5t-37.5 -7.5q-17 0 -28.5 7t-11.5 24q0 6 1 11.5t2 9.5l48 238l-79 -46q-21 40 8 56
l82 47l38 185q5 21 7.5 46t2.5 42q0 11 -9 11q-10 0 -24.5 -2.5t-25.5 -2.5q-9 0 -12.5 8t-3.5 20q47 14 91.5 27.5t89.5 30.5q19 -8 19 -27q0 -4 -1 -9.5t-2 -9.5z" />
    <glyph glyph-name="Nacute" unicode="&#x143;" horiz-adv-x="710" 
d="M533 -3q-8 -4 -15 -6.5t-16 -2.5q-13 0 -18.5 4.5t-13.5 18.5l-262 493l-80 -428q-3 -17 8 -29.5t46 -17.5q15 -2 20.5 -6t5.5 -12q0 -6 -3 -18q-37 3 -62.5 5t-44.5 2q-17 0 -41.5 -1.5t-56.5 -5.5q-2 5 -3 9.5t-1 8.5q0 7 4.5 11t16.5 6q23 4 38 15t18 28l98 510
q2 13 -3.5 24t-30.5 16q-20 4 -20 16q0 4 1 8.5t3 11.5q26 -4 54 -5.5t56 -1.5q18 0 26.5 -4.5t14.5 -15.5l239 -469l78 413q3 17 -8 29.5t-46 17.5q-15 2 -20.5 6t-5.5 12q0 6 3 18q37 -3 62.5 -5t44.5 -2q17 0 41.5 1.5t56.5 5.5q2 -5 3 -9.5t1 -8.5q0 -7 -4.5 -11
t-16.5 -6q-23 -4 -38 -15t-18 -28zM524 866q65 -29 65 -57q0 -13 -10.5 -19.5t-25.5 -11.5q-21 -6 -38 -12.5t-35 -14t-38.5 -18t-47.5 -24.5q-20 15 -20 23t17 22z" />
    <glyph glyph-name="nacute" unicode="&#x144;" horiz-adv-x="517" 
d="M325 296q4 17 6 29t2 21q0 20 -16 20q-11 0 -28.5 -15.5t-38.5 -40.5t-42.5 -56.5t-39.5 -64.5q-18 -32 -30.5 -76.5t-12.5 -79.5q0 -16 3 -29q-24 -3 -48.5 -7t-52.5 -12q-17 7 -17 18q0 5 1 10.5t2 8.5l64 323q2 6 1 10.5t-5 4.5q-3 0 -9 -2.5t-13.5 -5.5t-15 -5.5
t-12.5 -2.5q-9 0 -13.5 9t-6.5 17q19 12 45 24.5t51.5 23t46.5 17.5t31 7q8 0 15 -4t7 -14v-8t-2 -10l-38 -154l3 -1q22 36 46.5 70.5t51.5 61.5t56.5 43t61.5 16q27 0 47 -12.5t20 -45.5q0 -12 -1.5 -28.5t-5.5 -35.5l-48 -229q-3 -12 -3 -18q0 -9 9 -9q6 0 14.5 3.5
t16.5 8t15 8t11 3.5q8 0 12.5 -8.5t5.5 -16.5q-16 -11 -37.5 -24t-44 -24t-44 -18.5t-37.5 -7.5q-17 0 -28.5 7t-11.5 24q0 6 1 11.5t2 9.5zM346 673q14 -3 28 -7.5t25 -10.5t18 -14t7 -17q0 -18 -29 -35q-17 -10 -32 -19.5t-31.5 -21.5t-36 -26.5t-45.5 -35.5
q-17 9 -22.5 18t7.5 26z" />
    <glyph glyph-name="Ncommaaccent" unicode="&#x145;" horiz-adv-x="710" 
d="M533 -3q-8 -4 -15 -6.5t-16 -2.5q-13 0 -18.5 4.5t-13.5 18.5l-262 493l-80 -428q-3 -17 8 -29.5t46 -17.5q15 -2 20.5 -6t5.5 -12q0 -6 -3 -18q-37 3 -62.5 5t-44.5 2q-17 0 -41.5 -1.5t-56.5 -5.5q-2 5 -3 9.5t-1 8.5q0 7 4.5 11t16.5 6q23 4 38 15t18 28l98 510
q2 13 -3.5 24t-30.5 16q-20 4 -20 16q0 4 1 8.5t3 11.5q26 -4 54 -5.5t56 -1.5q18 0 26.5 -4.5t14.5 -15.5l239 -469l78 413q3 17 -8 29.5t-46 17.5q-15 2 -20.5 6t-5.5 12q0 6 3 18q37 -3 62.5 -5t44.5 -2q17 0 41.5 1.5t56.5 5.5q2 -5 3 -9.5t1 -8.5q0 -7 -4.5 -11
t-16.5 -6q-23 -4 -38 -15t-18 -28zM236 -244q-16 11 -16 21q0 5 2 9t10 9q23 13 34 23t11 25q0 12 -6 19t-12.5 12t-12.5 11t-6 16q0 14 11 25.5t43 28.5q29 -17 46.5 -34.5t17.5 -44.5q0 -15 -4.5 -30t-18 -29.5t-37.5 -29.5t-62 -31z" />
    <glyph glyph-name="ncommaaccent" unicode="&#x146;" horiz-adv-x="517" 
d="M325 296q4 17 6 29t2 21q0 20 -16 20q-11 0 -28.5 -15.5t-38.5 -40.5t-42.5 -56.5t-39.5 -64.5q-18 -32 -30.5 -76.5t-12.5 -79.5q0 -16 3 -29q-24 -3 -48.5 -7t-52.5 -12q-17 7 -17 18q0 5 1 10.5t2 8.5l64 323q2 6 1 10.5t-5 4.5q-3 0 -9 -2.5t-13.5 -5.5t-15 -5.5
t-12.5 -2.5q-9 0 -13.5 9t-6.5 17q19 12 45 24.5t51.5 23t46.5 17.5t31 7q8 0 15 -4t7 -14v-8t-2 -10l-38 -154l3 -1q22 36 46.5 70.5t51.5 61.5t56.5 43t61.5 16q27 0 47 -12.5t20 -45.5q0 -12 -1.5 -28.5t-5.5 -35.5l-48 -229q-3 -12 -3 -18q0 -9 9 -9q6 0 14.5 3.5
t16.5 8t15 8t11 3.5q8 0 12.5 -8.5t5.5 -16.5q-16 -11 -37.5 -24t-44 -24t-44 -18.5t-37.5 -7.5q-17 0 -28.5 7t-11.5 24q0 6 1 11.5t2 9.5zM129 -244q-16 11 -16 21q0 5 2 9t10 9q23 13 34 23t11 25q0 12 -6 19t-12.5 12t-12.5 11t-6 16q0 14 11 25.5t43 28.5
q29 -17 46.5 -34.5t17.5 -44.5q0 -15 -4.5 -30t-18 -29.5t-37.5 -29.5t-62 -31z" />
    <glyph glyph-name="Ncaron" unicode="&#x147;" horiz-adv-x="710" 
d="M533 -3q-8 -4 -15 -6.5t-16 -2.5q-13 0 -18.5 4.5t-13.5 18.5l-262 493l-80 -428q-3 -17 8 -29.5t46 -17.5q15 -2 20.5 -6t5.5 -12q0 -6 -3 -18q-37 3 -62.5 5t-44.5 2q-17 0 -41.5 -1.5t-56.5 -5.5q-2 5 -3 9.5t-1 8.5q0 7 4.5 11t16.5 6q23 4 38 15t18 28l98 510
q2 13 -3.5 24t-30.5 16q-20 4 -20 16q0 4 1 8.5t3 11.5q26 -4 54 -5.5t56 -1.5q18 0 26.5 -4.5t14.5 -15.5l239 -469l78 413q3 17 -8 29.5t-46 17.5q-15 2 -20.5 6t-5.5 12q0 6 3 18q37 -3 62.5 -5t44.5 -2q17 0 41.5 1.5t56.5 5.5q2 -5 3 -9.5t1 -8.5q0 -7 -4.5 -11
t-16.5 -6q-23 -4 -38 -15t-18 -28zM313 805q-15 20 -8 28.5t29 19.5q31 -25 55.5 -42t43.5 -28q31 14 63 31.5t64 37.5q38 -20 11 -43l-126 -108q-32 0 -46.5 4.5t-26.5 20.5z" />
    <glyph glyph-name="ncaron" unicode="&#x148;" horiz-adv-x="517" 
d="M325 296q4 17 6 29t2 21q0 20 -16 20q-11 0 -28.5 -15.5t-38.5 -40.5t-42.5 -56.5t-39.5 -64.5q-18 -32 -30.5 -76.5t-12.5 -79.5q0 -16 3 -29q-24 -3 -48.5 -7t-52.5 -12q-17 7 -17 18q0 5 1 10.5t2 8.5l64 323q2 6 1 10.5t-5 4.5q-3 0 -9 -2.5t-13.5 -5.5t-15 -5.5
t-12.5 -2.5q-9 0 -13.5 9t-6.5 17q19 12 45 24.5t51.5 23t46.5 17.5t31 7q8 0 15 -4t7 -14v-8t-2 -10l-38 -154l3 -1q22 36 46.5 70.5t51.5 61.5t56.5 43t61.5 16q27 0 47 -12.5t20 -45.5q0 -12 -1.5 -28.5t-5.5 -35.5l-48 -229q-3 -12 -3 -18q0 -9 9 -9q6 0 14.5 3.5
t16.5 8t15 8t11 3.5q8 0 12.5 -8.5t5.5 -16.5q-16 -11 -37.5 -24t-44 -24t-44 -18.5t-37.5 -7.5q-17 0 -28.5 7t-11.5 24q0 6 1 11.5t2 9.5zM192 627q-5 13 0 21.5t27 18.5q21 -28 42.5 -52.5t39.5 -39.5q26 17 57.5 41.5t66.5 53.5q12 -8 17.5 -14.5t6.5 -11.5t-1 -9.5
t-5 -7.5l-121 -138q-42 -3 -59.5 4t-25.5 25z" />
    <glyph glyph-name="napostrophe" unicode="&#x149;" horiz-adv-x="517" 
d="M325 296q4 17 6 29t2 21q0 20 -16 20q-11 0 -28.5 -15.5t-38.5 -40.5t-42.5 -56.5t-39.5 -64.5q-18 -32 -30.5 -76.5t-12.5 -79.5q0 -16 3 -29q-24 -3 -48.5 -7t-52.5 -12q-17 7 -17 18q0 5 1 10.5t2 8.5l64 323q2 6 1 10.5t-5 4.5q-3 0 -9 -2.5t-13.5 -5.5t-15 -5.5
t-12.5 -2.5q-9 0 -13.5 9t-6.5 17q19 12 45 24.5t51.5 23t46.5 17.5t31 7q8 0 15 -4t7 -14v-8t-2 -10l-38 -154l3 -1q22 36 46.5 70.5t51.5 61.5t56.5 43t61.5 16q27 0 47 -12.5t20 -45.5q0 -12 -1.5 -28.5t-5.5 -35.5l-48 -229q-3 -12 -3 -18q0 -9 9 -9q6 0 14.5 3.5
t16.5 8t15 8t11 3.5q8 0 12.5 -8.5t5.5 -16.5q-16 -11 -37.5 -24t-44 -24t-44 -18.5t-37.5 -7.5q-17 0 -28.5 7t-11.5 24q0 6 1 11.5t2 9.5zM-18 441q-14 11 -14 21.5t12 17.5q26 15 35 32t9 34q0 13 -6.5 21t-14 14.5t-13.5 14.5t-6 20q0 14 19 29.5t46 24.5
q29 -17 47 -38.5t18 -48.5q0 -17 -6.5 -36t-22 -37.5t-41 -36t-62.5 -32.5z" />
    <glyph glyph-name="Eng" unicode="&#x14a;" horiz-adv-x="710" 
d="M525 -46q-7 -36 -22.5 -65.5t-37.5 -54.5t-50.5 -46.5t-60.5 -40.5q-10 3 -16.5 9t-6.5 14t8 15q19 17 31 33t19.5 33t12 35.5t9.5 41.5l28 141l-231 435l-80 -428q-3 -17 8 -29.5t46 -17.5q15 -2 20.5 -6t5.5 -12q0 -6 -3 -18q-37 3 -62.5 5t-44.5 2q-17 0 -41.5 -1.5
t-56.5 -5.5q-2 5 -3 9.5t-1 8.5q0 7 4.5 11t16.5 6q23 4 38 15t18 28l98 510q2 13 -3.5 24t-30.5 16q-20 4 -20 16q0 4 1 8.5t3 11.5q26 -4 54 -5.5t56 -1.5q18 0 26.5 -4.5t14.5 -15.5l239 -469l78 413q3 17 -8 29.5t-46 17.5q-15 2 -20.5 6t-5.5 12q0 6 3 18
q37 -3 62.5 -5t44.5 -2q17 0 41.5 1.5t56.5 5.5q2 -5 3 -9.5t1 -8.5q0 -7 -4.5 -11t-16.5 -6q-23 -4 -38 -15t-18 -28z" />
    <glyph glyph-name="eng" unicode="&#x14b;" horiz-adv-x="516" 
d="M175 -215q19 17 30.5 33t19 33t12.5 35.5t10 41.5l78 368q4 17 6 29t2 21q0 20 -16 20q-11 0 -28.5 -15.5t-38.5 -40.5t-42.5 -56.5t-39.5 -64.5q-18 -32 -30.5 -76.5t-12.5 -79.5q0 -16 3 -29q-24 -3 -48.5 -7t-52.5 -12q-17 7 -17 18q0 5 1 10.5t2 8.5l64 323
q2 6 1 10.5t-5 4.5q-3 0 -9 -2.5t-13.5 -5.5t-15 -5.5t-12.5 -2.5q-9 0 -13.5 9t-6.5 17q19 12 45 24.5t51.5 23t46.5 17.5t31 7q8 0 15 -4t7 -14v-8t-2 -10l-38 -154l3 -1q22 36 46.5 70.5t51.5 61.5t56.5 43t61.5 16q27 0 47 -12.5t20 -45.5q0 -12 -1.5 -28.5t-5.5 -35.5
l-77 -366q-15 -72 -60.5 -120.5t-110.5 -86.5q-10 3 -16.5 9t-6.5 14t8 15z" />
    <glyph glyph-name="Omacron" unicode="&#x14c;" horiz-adv-x="668" 
d="M383 662q64 0 113 -20.5t82 -56t50 -84t17 -104.5q0 -91 -29 -166t-79.5 -129t-119.5 -84t-149 -30q-62 0 -109 22t-79 59t-48 86t-16 102q0 80 27.5 153.5t76.5 129.5t116 89t147 33zM293 33q58 0 100 31t69.5 81t40.5 112.5t13 126.5q0 110 -36 171.5t-104 61.5
q-60 0 -103.5 -30.5t-72 -80.5t-42 -115t-13.5 -135q0 -105 35.5 -164t112.5 -59zM268 739q4 32 17 46t39 14h225q-5 -34 -17 -47t-38 -13h-226z" />
    <glyph glyph-name="omacron" unicode="&#x14d;" horiz-adv-x="439" 
d="M245 442q39 0 67 -13t47 -36t28 -53.5t9 -66.5q0 -72 -23 -125.5t-60 -89t-83 -53t-91 -17.5q-38 0 -65 12t-43.5 33.5t-24 52t-7.5 66.5q0 67 23.5 121t59.5 91.5t79.5 57.5t83.5 20zM167 32q25 0 46 17.5t36 48.5t23.5 74t8.5 93q0 61 -10.5 97t-41.5 36
q-28 0 -49.5 -21.5t-36 -55.5t-22 -76t-7.5 -83q0 -63 12 -96.5t41 -33.5zM120 543q4 32 17 46t39 14h225q-5 -34 -17 -47t-38 -13h-226z" />
    <glyph glyph-name="Obreve" unicode="&#x14e;" horiz-adv-x="668" 
d="M383 662q64 0 113 -20.5t82 -56t50 -84t17 -104.5q0 -91 -29 -166t-79.5 -129t-119.5 -84t-149 -30q-62 0 -109 22t-79 59t-48 86t-16 102q0 80 27.5 153.5t76.5 129.5t116 89t147 33zM293 33q58 0 100 31t69.5 81t40.5 112.5t13 126.5q0 110 -36 171.5t-104 61.5
q-60 0 -103.5 -30.5t-72 -80.5t-42 -115t-13.5 -135q0 -105 35.5 -164t112.5 -59zM410 777q26 0 48.5 13.5t50.5 53.5q17 -2 23.5 -9.5t2.5 -16.5q-20 -46 -57 -76.5t-80 -30.5q-28 0 -47.5 10t-32.5 26t-19.5 36t-7.5 40q-2 21 31 22q16 -41 40.5 -54.5t47.5 -13.5z" />
    <glyph glyph-name="obreve" unicode="&#x14f;" horiz-adv-x="439" 
d="M245 442q39 0 67 -13t47 -36t28 -53.5t9 -66.5q0 -72 -23 -125.5t-60 -89t-83 -53t-91 -17.5q-38 0 -65 12t-43.5 33.5t-24 52t-7.5 66.5q0 67 23.5 121t59.5 91.5t79.5 57.5t83.5 20zM167 32q25 0 46 17.5t36 48.5t23.5 74t8.5 93q0 61 -10.5 97t-41.5 36
q-28 0 -49.5 -21.5t-36 -55.5t-22 -76t-7.5 -83q0 -63 12 -96.5t41 -33.5zM266 571q26 0 48.5 13.5t50.5 53.5q17 -2 23.5 -9.5t2.5 -16.5q-20 -46 -57 -76.5t-80 -30.5q-28 0 -47.5 10t-32 25.5t-19 35.5t-8.5 41t31 22q16 -41 40.5 -54.5t47.5 -13.5z" />
    <glyph glyph-name="Ohungarumlaut" unicode="&#x150;" horiz-adv-x="668" 
d="M383 662q64 0 113 -20.5t82 -56t50 -84t17 -104.5q0 -91 -29 -166t-79.5 -129t-119.5 -84t-149 -30q-62 0 -109 22t-79 59t-48 86t-16 102q0 80 27.5 153.5t76.5 129.5t116 89t147 33zM293 33q58 0 100 31t69.5 81t40.5 112.5t13 126.5q0 110 -36 171.5t-104 61.5
q-60 0 -103.5 -30.5t-72 -80.5t-42 -115t-13.5 -135q0 -105 35.5 -164t112.5 -59zM528 883q43 -8 62.5 -23t19.5 -29q0 -8 -7.5 -15t-18.5 -14q-18 -11 -32.5 -20.5t-29.5 -21t-32 -25.5t-41 -35q-23 8 -27.5 15.5t6.5 24.5zM373 883q43 -8 62.5 -23t19.5 -29q0 -8 -7.5 -15
t-18.5 -14q-18 -11 -32.5 -20.5t-29.5 -21t-32 -25.5t-41 -35q-23 8 -27.5 15.5t6.5 24.5z" />
    <glyph glyph-name="ohungarumlaut" unicode="&#x151;" horiz-adv-x="439" 
d="M245 442q39 0 67 -13t47 -36t28 -53.5t9 -66.5q0 -72 -23 -125.5t-60 -89t-83 -53t-91 -17.5q-38 0 -65 12t-43.5 33.5t-24 52t-7.5 66.5q0 67 23.5 121t59.5 91.5t79.5 57.5t83.5 20zM167 32q25 0 46 17.5t36 48.5t23.5 74t8.5 93q0 61 -10.5 97t-41.5 36
q-28 0 -49.5 -21.5t-36 -55.5t-22 -76t-7.5 -83q0 -63 12 -96.5t41 -33.5zM362 668q10 0 24.5 -1t28 -4.5t23.5 -11t10 -20.5q0 -8 -5 -16t-17 -19q-14 -11 -25.5 -21.5t-24 -22.5t-27.5 -28t-34 -39q-19 5 -26 13t3 27zM219 668q10 0 24.5 -1t28 -4.5t23.5 -11t10 -20.5
q0 -8 -5 -16t-17 -19q-14 -11 -25.5 -21.5t-24 -22.5t-27.5 -28t-34 -39q-19 5 -26 13t3 27z" />
    <glyph glyph-name="OE" unicode="&#x152;" horiz-adv-x="850" 
d="M360 0q-20 -5 -45.5 -8.5t-54.5 -3.5q-59 0 -104.5 19.5t-76.5 54t-47 82.5t-16 105q0 82 27 157t74.5 132t112.5 90.5t142 33.5q20 0 48 -3.5t45 -8.5h251q39 0 59.5 3t32.5 3t16 -4t4 -15q1 -31 5.5 -62.5t11.5 -62.5q-5 -4 -13.5 -6.5t-15.5 -2.5q-11 0 -16 4.5
t-7 11.5q-14 48 -38 68.5t-65 20.5h-111l-48 -254h116q23 0 33 14t17 38q2 6 5.5 11t11.5 5t16 -2.5t14 -4.5q-6 -23 -10.5 -42.5t-8 -39.5t-6 -43t-4.5 -52q-10 -5 -26 -5q-14 0 -17 6t-2 13q3 25 -3.5 41.5t-30.5 16.5h-113l-47 -244q-2 -14 1.5 -18.5t17.5 -4.5h108
q36 0 70.5 20t72.5 73q5 8 9 12t12 4q9 0 17.5 -5.5t14.5 -11.5l-10 -20q-5 -10 -11 -22.5t-12 -29.5q-8 -20 -11.5 -35.5t-7.5 -23.5q-3 -7 -6.5 -8.5t-8.5 -1.5q-11 0 -19.5 1t-18.5 2t-22.5 2t-30.5 1h-281zM450 550q3 18 -2.5 31t-17 21t-27.5 11.5t-34 3.5
q-58 0 -100.5 -31.5t-70 -82t-40.5 -113.5t-13 -126q0 -118 35.5 -174.5t113.5 -56.5q29 0 44.5 10.5t20.5 35.5z" />
    <glyph glyph-name="oe" unicode="&#x153;" horiz-adv-x="665" 
d="M635 348q0 -36 -18.5 -62.5t-51.5 -44t-79 -27.5t-102 -13q-1 -10 -1 -19v-19q0 -22 4 -43t13 -37.5t23.5 -26.5t35.5 -10q23 0 48 8t54 27q9 6 14.5 9.5t13.5 3.5q9 0 12.5 -10t3.5 -14q-14 -12 -33.5 -26.5t-43 -27t-50.5 -20.5t-56 -8q-53 0 -80.5 20t-40.5 47
q-33 -34 -74.5 -50.5t-80.5 -16.5q-41 0 -69 12t-45.5 33.5t-25 52t-7.5 66.5q0 67 23.5 121t59.5 91.5t79.5 57.5t83.5 20q46 0 74.5 -20.5t42.5 -47.5q23 26 64 47t93 21q24 0 45 -5t36.5 -16.5t25 -29.5t9.5 -43zM167 32q25 0 46 17.5t36 48.5t23.5 74t8.5 93
q0 61 -10.5 97t-41.5 36q-28 0 -49.5 -21.5t-36 -55.5t-22 -76t-7.5 -83q0 -63 12 -96.5t41 -33.5zM495 402q-19 0 -36 -13.5t-31 -36.5t-24 -52.5t-15 -62.5q40 4 67 15t43 26.5t23 35t7 40.5q0 23 -9.5 35.5t-24.5 12.5z" />
    <glyph glyph-name="Racute" unicode="&#x154;" horiz-adv-x="608" 
d="M191 72q-3 -17 7 -26.5t38 -14.5q15 -3 20.5 -7.5t5.5 -12.5q0 -4 -1 -8.5t-2 -9.5q-38 3 -71.5 5t-61.5 2q-23 0 -61 -2t-71 -5q-3 9 -3 16q0 16 20 20q29 6 43.5 15t18.5 27l98 510q4 18 -4.5 26t-32.5 12q-26 4 -26 18q0 7 5 20q38 -4 73.5 -5.5t60.5 -1.5h80
q99 0 156 -41t57 -110q0 -30 -8.5 -58.5t-28.5 -53t-52 -44.5t-78 -32l138 -248q9 -17 23 -24t33 -12q14 -3 14 -14q0 -8 -6 -20q-12 1 -27 2.5t-30 2.5t-28.5 1.5t-22.5 0.5q-26 0 -43.5 12t-32.5 41l-139 255l7 24q154 6 154 164q0 22 -5.5 42.5t-18.5 36t-33 24.5t-49 9
h-14zM437 866q65 -29 65 -57q0 -13 -10.5 -19.5t-25.5 -11.5q-21 -6 -38 -12.5t-35 -14t-38.5 -18t-47.5 -24.5q-20 15 -20 23t17 22z" />
    <glyph glyph-name="racute" unicode="&#x155;" horiz-adv-x="379" 
d="M295 347q-14 0 -30 -11.5t-33.5 -31t-35 -47t-32.5 -58.5q-8 -16 -15 -37.5t-12.5 -44.5t-8.5 -45t-3 -39q0 -16 3 -29q-24 -3 -48.5 -7t-52.5 -12q-17 7 -17 18q0 5 1 10.5t2 8.5l64 323q2 6 1 10.5t-5 4.5q-3 0 -9 -2.5t-13.5 -5.5t-15 -5.5t-12.5 -2.5q-9 0 -13.5 9
t-6.5 17q19 12 45 24.5t51.5 23t46.5 17.5t31 7q8 0 15 -4t7 -14v-8t-2 -10l-35 -133l4 -1q52 92 91.5 131t79.5 39q13 0 25 -4t17 -9q-17 -40 -26 -109h-20q-6 11 -15 19t-23 8zM304 673q14 -3 28 -7.5t25 -10.5t18 -14t7 -17q0 -18 -29 -35q-17 -10 -32 -19.5t-31.5 -21.5
t-36 -26.5t-45.5 -35.5q-17 9 -22.5 18t7.5 26z" />
    <glyph glyph-name="Rcommaaccent" unicode="&#x156;" horiz-adv-x="608" 
d="M191 72q-3 -17 7 -26.5t38 -14.5q15 -3 20.5 -7.5t5.5 -12.5q0 -4 -1 -8.5t-2 -9.5q-38 3 -71.5 5t-61.5 2q-23 0 -61 -2t-71 -5q-3 9 -3 16q0 16 20 20q29 6 43.5 15t18.5 27l98 510q4 18 -4.5 26t-32.5 12q-26 4 -26 18q0 7 5 20q38 -4 73.5 -5.5t60.5 -1.5h80
q99 0 156 -41t57 -110q0 -30 -8.5 -58.5t-28.5 -53t-52 -44.5t-78 -32l138 -248q9 -17 23 -24t33 -12q14 -3 14 -14q0 -8 -6 -20q-12 1 -27 2.5t-30 2.5t-28.5 1.5t-22.5 0.5q-26 0 -43.5 12t-32.5 41l-139 255l7 24q154 6 154 164q0 22 -5.5 42.5t-18.5 36t-33 24.5t-49 9
h-14zM225 -244q-16 11 -16 21q0 5 2 9t10 9q23 13 34 23t11 25q0 12 -6 19t-12.5 12t-12.5 11t-6 16q0 14 11 25.5t43 28.5q29 -17 46.5 -34.5t17.5 -44.5q0 -15 -4.5 -30t-18 -29.5t-37.5 -29.5t-62 -31z" />
    <glyph glyph-name="rcommaaccent" unicode="&#x157;" horiz-adv-x="379" 
d="M295 347q-14 0 -30 -11.5t-33.5 -31t-35 -47t-32.5 -58.5q-8 -16 -15 -37.5t-12.5 -44.5t-8.5 -45t-3 -39q0 -16 3 -29q-24 -3 -48.5 -7t-52.5 -12q-17 7 -17 18q0 5 1 10.5t2 8.5l64 323q2 6 1 10.5t-5 4.5q-3 0 -9 -2.5t-13.5 -5.5t-15 -5.5t-12.5 -2.5q-9 0 -13.5 9
t-6.5 17q19 12 45 24.5t51.5 23t46.5 17.5t31 7q8 0 15 -4t7 -14v-8t-2 -10l-35 -133l4 -1q52 92 91.5 131t79.5 39q13 0 25 -4t17 -9q-17 -40 -26 -109h-20q-6 11 -15 19t-23 8zM16 -244q-16 11 -16 21q0 5 2 9t10 9q23 13 34 23t11 25q0 12 -6 19t-12.5 12t-12.5 11t-6 16
q0 14 11 25.5t43 28.5q29 -17 46.5 -34.5t17.5 -44.5q0 -15 -4.5 -30t-18 -29.5t-37.5 -29.5t-62 -31z" />
    <glyph glyph-name="Rcaron" unicode="&#x158;" horiz-adv-x="608" 
d="M191 72q-3 -17 7 -26.5t38 -14.5q15 -3 20.5 -7.5t5.5 -12.5q0 -4 -1 -8.5t-2 -9.5q-38 3 -71.5 5t-61.5 2q-23 0 -61 -2t-71 -5q-3 9 -3 16q0 16 20 20q29 6 43.5 15t18.5 27l98 510q4 18 -4.5 26t-32.5 12q-26 4 -26 18q0 7 5 20q38 -4 73.5 -5.5t60.5 -1.5h80
q99 0 156 -41t57 -110q0 -30 -8.5 -58.5t-28.5 -53t-52 -44.5t-78 -32l138 -248q9 -17 23 -24t33 -12q14 -3 14 -14q0 -8 -6 -20q-12 1 -27 2.5t-30 2.5t-28.5 1.5t-22.5 0.5q-26 0 -43.5 12t-32.5 41l-139 255l7 24q154 6 154 164q0 22 -5.5 42.5t-18.5 36t-33 24.5t-49 9
h-14zM249 805q-15 20 -8 28.5t29 19.5q31 -25 55.5 -42t43.5 -28q31 14 63 31.5t64 37.5q38 -20 11 -43l-126 -108q-32 0 -46.5 4.5t-26.5 20.5z" />
    <glyph glyph-name="rcaron" unicode="&#x159;" horiz-adv-x="379" 
d="M295 347q-14 0 -30 -11.5t-33.5 -31t-35 -47t-32.5 -58.5q-8 -16 -15 -37.5t-12.5 -44.5t-8.5 -45t-3 -39q0 -16 3 -29q-24 -3 -48.5 -7t-52.5 -12q-17 7 -17 18q0 5 1 10.5t2 8.5l64 323q2 6 1 10.5t-5 4.5q-3 0 -9 -2.5t-13.5 -5.5t-15 -5.5t-12.5 -2.5q-9 0 -13.5 9
t-6.5 17q19 12 45 24.5t51.5 23t46.5 17.5t31 7q8 0 15 -4t7 -14v-8t-2 -10l-35 -133l4 -1q52 92 91.5 131t79.5 39q13 0 25 -4t17 -9q-17 -40 -26 -109h-20q-6 11 -15 19t-23 8zM147 627q-5 13 0 21.5t27 18.5q21 -28 42.5 -52.5t39.5 -39.5q26 17 57.5 41.5t66.5 53.5
q12 -8 17.5 -14.5t6.5 -11.5t-1 -9.5t-5 -7.5l-121 -138q-42 -3 -59.5 4t-25.5 25z" />
    <glyph glyph-name="Sacute" unicode="&#x15a;" horiz-adv-x="533" 
d="M106 477q0 42 18 76t47.5 58t67.5 37.5t79 13.5q56 0 100.5 -14t79.5 -31q-3 -24 -5 -45t-2 -41v-15.5t1 -15.5q-9 -7 -24 -7q-10 0 -17.5 4.5t-9.5 16.5q-9 53 -42.5 79.5t-83.5 26.5q-20 0 -39 -5.5t-34 -17t-24 -29t-9 -41.5q0 -21 9.5 -39t25 -34.5t35.5 -32.5
t41 -32q24 -19 48 -39t43 -44t31 -52t12 -63q0 -51 -21 -89t-55.5 -63.5t-79.5 -38t-93 -12.5q-30 0 -58.5 4t-52.5 10t-41.5 12.5t-26.5 12.5q3 29 5.5 61.5t2.5 62.5q0 12 -0.5 23t-1.5 21q6 2 13 4t16 2q14 0 18 -6.5t7 -19.5q11 -68 39.5 -104.5t87.5 -36.5q25 0 48 7.5
t41 22.5t29 37t11 51q0 25 -9.5 46t-25.5 39t-36.5 33.5t-41.5 31.5q-23 17 -45 34.5t-39.5 38.5t-28 46t-10.5 56zM413 866q65 -29 65 -57q0 -13 -10.5 -19.5t-25.5 -11.5q-21 -6 -38 -12.5t-35 -14t-38.5 -18t-47.5 -24.5q-20 15 -20 23t17 22z" />
    <glyph glyph-name="sacute" unicode="&#x15b;" horiz-adv-x="358" 
d="M294 328q-13 0 -17 3.5t-7 13.5q-8 25 -23 44t-49 19q-24 0 -43.5 -14t-19.5 -43q0 -30 21 -50.5t48 -40.5q16 -12 33 -25.5t30 -29t21.5 -34t8.5 -41.5q0 -33 -15 -59.5t-39.5 -44.5t-56 -28t-65.5 -10q-36 0 -71 5.5t-67 19.5q7 27 10.5 54.5t4.5 62.5h14q18 0 24 -5.5
t7 -16.5q2 -38 25 -60t58 -22q31 0 52.5 17t21.5 51q0 15 -6.5 28t-17.5 24.5t-24.5 22t-28.5 21.5q-16 12 -31.5 24t-27.5 26.5t-19.5 31.5t-7.5 38q0 32 14.5 56.5t38 41.5t53.5 25.5t62 8.5q63 0 117 -26q-4 -13 -8 -38.5t-4 -50.5zM269 673q14 -3 28 -7.5t25 -10.5
t18 -14t7 -17q0 -18 -29 -35q-17 -10 -32 -19.5t-31.5 -21.5t-36 -26.5t-45.5 -35.5q-17 9 -22.5 18t7.5 26z" />
    <glyph glyph-name="Scircumflex" unicode="&#x15c;" horiz-adv-x="533" 
d="M106 477q0 42 18 76t47.5 58t67.5 37.5t79 13.5q56 0 100.5 -14t79.5 -31q-3 -24 -5 -45t-2 -41v-15.5t1 -15.5q-9 -7 -24 -7q-10 0 -17.5 4.5t-9.5 16.5q-9 53 -42.5 79.5t-83.5 26.5q-20 0 -39 -5.5t-34 -17t-24 -29t-9 -41.5q0 -21 9.5 -39t25 -34.5t35.5 -32.5
t41 -32q24 -19 48 -39t43 -44t31 -52t12 -63q0 -51 -21 -89t-55.5 -63.5t-79.5 -38t-93 -12.5q-30 0 -58.5 4t-52.5 10t-41.5 12.5t-26.5 12.5q3 29 5.5 61.5t2.5 62.5q0 12 -0.5 23t-1.5 21q6 2 13 4t16 2q14 0 18 -6.5t7 -19.5q11 -68 39.5 -104.5t87.5 -36.5q25 0 48 7.5
t41 22.5t29 37t11 51q0 25 -9.5 46t-25.5 39t-36.5 33.5t-41.5 31.5q-23 17 -45 34.5t-39.5 38.5t-28 46t-10.5 56zM480 758q15 -20 8 -28.5t-29 -19.5q-31 25 -55 41t-43 27q-31 -14 -62.5 -31t-63.5 -37q-23 12 -25 22t12 22l126 108q32 0 46.5 -4.5t26.5 -20.5z" />
    <glyph glyph-name="scircumflex" unicode="&#x15d;" horiz-adv-x="358" 
d="M294 328q-13 0 -17 3.5t-7 13.5q-8 25 -23 44t-49 19q-24 0 -43.5 -14t-19.5 -43q0 -30 21 -50.5t48 -40.5q16 -12 33 -25.5t30 -29t21.5 -34t8.5 -41.5q0 -33 -15 -59.5t-39.5 -44.5t-56 -28t-65.5 -10q-36 0 -71 5.5t-67 19.5q7 27 10.5 54.5t4.5 62.5h14q18 0 24 -5.5
t7 -16.5q2 -38 25 -60t58 -22q31 0 52.5 17t21.5 51q0 15 -6.5 28t-17.5 24.5t-24.5 22t-28.5 21.5q-16 12 -31.5 24t-27.5 26.5t-19.5 31.5t-7.5 38q0 32 14.5 56.5t38 41.5t53.5 25.5t62 8.5q63 0 117 -26q-4 -13 -8 -38.5t-4 -50.5zM353 524q5 -13 1 -21t-26 -18
q-21 28 -42.5 52.5t-39.5 39.5q-26 -17 -58.5 -42t-67.5 -54q-12 7 -17.5 14t-6.5 12t1 9.5t5 7.5l121 138q42 3 59.5 -4t25.5 -25z" />
    <glyph glyph-name="Scedilla" unicode="&#x15e;" horiz-adv-x="533" 
d="M106 477q0 42 18 76t47.5 58t67.5 37.5t79 13.5q56 0 100.5 -14t79.5 -31q-5 -33 -6.5 -60t0.5 -57q-9 -7 -24 -7q-10 0 -17.5 4.5t-9.5 16.5q-9 53 -42.5 79.5t-83.5 26.5q-20 0 -39 -5.5t-34 -17t-24 -29t-9 -41.5q0 -20 9 -38t23.5 -34t34 -31.5t40.5 -31.5
q25 -19 49.5 -39.5t44 -44.5t32 -53t12.5 -64q0 -45 -16.5 -80.5t-45 -60t-65.5 -39.5t-79 -20q-21 -27 -21 -43q0 -9 6.5 -18t14.5 -19t14.5 -20.5t6.5 -22.5q0 -14 -7 -26.5t-22.5 -25.5t-41.5 -27t-64 -30q-11 15 -9.5 23.5t15.5 16.5q26 14 37.5 23.5t11.5 22.5
q0 10 -5.5 18.5t-12.5 17t-12.5 17.5t-5.5 20q0 5 2 10.5t7 13t15 18.5t25 28q-29 0 -57 4t-52 10t-41.5 12.5t-25.5 12.5q3 29 5.5 61.5t2.5 62.5q0 12 -0.5 23t-1.5 21q6 2 13 4t16 2q14 0 18 -6.5t7 -19.5q11 -68 39.5 -104.5t87.5 -36.5q25 0 48 7.5t41 22.5t29 37
t11 51q0 24 -9 44.5t-24 38t-34 33t-40 30.5q-24 17 -47 35t-41 39.5t-29.5 47t-11.5 57.5z" />
    <glyph glyph-name="scedilla" unicode="&#x15f;" horiz-adv-x="360" 
d="M293 328q-13 0 -17 3.5t-7 13.5q-8 25 -23 44t-49 19q-24 0 -43.5 -13.5t-19.5 -42.5q0 -31 22 -52.5t51 -41.5q16 -12 32.5 -24.5t29.5 -27.5t21 -33t8 -41q0 -27 -10.5 -50.5t-29 -41.5t-42.5 -30t-51 -17q-23 -29 -23 -45q0 -9 6.5 -18t14.5 -19t14.5 -20.5t6.5 -22.5
q0 -14 -7 -26.5t-22.5 -25.5t-41.5 -27t-64 -30q-11 15 -9.5 23.5t15.5 16.5q26 14 37.5 23.5t11.5 22.5q0 10 -5.5 18.5t-12.5 17t-12.5 17.5t-5.5 20q0 5 2 10.5t7 13t15 18.5t25 28q-35 1 -69.5 6.5t-65.5 18.5q7 27 10.5 54.5t4.5 62.5h14q18 1 24 -5t7 -17
q2 -38 25 -60t58 -22q31 0 52.5 17t21.5 51q0 30 -23 52t-52 43l-32 24t-28.5 26.5t-20 32t-7.5 38.5q0 32 14.5 56.5t38 41.5t53.5 25.5t62 8.5q63 0 117 -26q-4 -13 -8 -38.5t-4 -50.5z" />
    <glyph glyph-name="Scaron" unicode="&#x160;" horiz-adv-x="533" 
d="M106 477q0 42 18 76t47.5 58t67.5 37.5t79 13.5q56 0 100.5 -14t79.5 -31q-3 -24 -5 -45t-2 -41v-15.5t1 -15.5q-9 -7 -24 -7q-10 0 -17.5 4.5t-9.5 16.5q-9 53 -42.5 79.5t-83.5 26.5q-20 0 -39 -5.5t-34 -17t-24 -29t-9 -41.5q0 -21 9.5 -39t25 -34.5t35.5 -32.5
t41 -32q24 -19 48 -39t43 -44t31 -52t12 -63q0 -51 -21 -89t-55.5 -63.5t-79.5 -38t-93 -12.5q-30 0 -58.5 4t-52.5 10t-41.5 12.5t-26.5 12.5q3 29 5.5 61.5t2.5 62.5q0 12 -0.5 23t-1.5 21q6 2 13 4t16 2q14 0 18 -6.5t7 -19.5q11 -68 39.5 -104.5t87.5 -36.5q25 0 48 7.5
t41 22.5t29 37t11 51q0 25 -9.5 46t-25.5 39t-36.5 33.5t-41.5 31.5q-23 17 -45 34.5t-39.5 38.5t-28 46t-10.5 56zM234 805q-15 20 -8 28.5t29 19.5q31 -25 55.5 -42t43.5 -28q31 14 63 31.5t64 37.5q38 -20 11 -43l-126 -108q-32 0 -46.5 4.5t-26.5 20.5z" />
    <glyph glyph-name="scaron" unicode="&#x161;" horiz-adv-x="358" 
d="M294 328q-13 0 -17 3.5t-7 13.5q-8 25 -23 44t-49 19q-24 0 -43.5 -14t-19.5 -43q0 -30 21 -50.5t48 -40.5q16 -12 33 -25.5t30 -29t21.5 -34t8.5 -41.5q0 -33 -15 -59.5t-39.5 -44.5t-56 -28t-65.5 -10q-36 0 -71 5.5t-67 19.5q7 27 10.5 54.5t4.5 62.5h14q18 0 24 -5.5
t7 -16.5q2 -38 25 -60t58 -22q31 0 52.5 17t21.5 51q0 15 -6.5 28t-17.5 24.5t-24.5 22t-28.5 21.5q-16 12 -31.5 24t-27.5 26.5t-19.5 31.5t-7.5 38q0 32 14.5 56.5t38 41.5t53.5 25.5t62 8.5q63 0 117 -26q-4 -13 -8 -38.5t-4 -50.5zM129 627q-5 13 0 21.5t27 18.5
q21 -28 42.5 -52.5t39.5 -39.5q26 17 57.5 41.5t66.5 53.5q12 -8 17.5 -14.5t6.5 -11.5t-1 -9.5t-5 -7.5l-121 -138q-42 -3 -59.5 4t-25.5 25z" />
    <glyph glyph-name="uni0162" unicode="&#x162;" horiz-adv-x="649" 
d="M317 608h-71q-22 0 -38.5 -5.5t-30 -16.5t-26.5 -27.5t-29 -39.5q-6 -8 -13 -11t-15 -3t-14.5 3.5t-8.5 5.5q8 17 13.5 33.5l12.5 37.5q6 20 9 33t7 24q5 15 18 15t36.5 -3.5t71.5 -3.5h291q25 0 41.5 1t28 2t19.5 2t15 1q13 0 14 -12q2 -15 2 -27t3 -34q2 -17 5 -33.5
t8 -33.5q-5 -3 -11.5 -6.5t-16.5 -3.5q-16 0 -21 14q-16 47 -42 67.5t-70 20.5h-70l-100 -532q-4 -18 9 -28t46 -16q14 -2 19 -6.5t5 -12.5q0 -4 -1 -9t-3 -11q-31 3 -60 4.5t-58 2.5q-15 -18 -22 -29.5t-7 -22.5q0 -9 6.5 -18t14.5 -19t14.5 -20.5t6.5 -22.5
q0 -14 -7 -26.5t-22.5 -25.5t-41.5 -27t-64 -30q-11 15 -9.5 23.5t15.5 16.5q26 14 37.5 23.5t11.5 22.5q0 10 -5.5 18.5t-12.5 17t-12.5 17.5t-5.5 20q0 6 2 12t8.5 15t18.5 22t31 33q-29 0 -61 -2t-61 -5q-2 5 -3 10t-1 10q0 16 17 19q35 5 54 15.5t23 30.5z" />
    <glyph glyph-name="uni0163" unicode="&#x163;" horiz-adv-x="316" 
d="M98 445q8 37 8 59q0 16 -3 30q22 3 47.5 6t55.5 11q8 -4 12 -7t4 -10q0 -5 -2 -15l-17 -89h108q-3 -10 -7.5 -26.5t-6.5 -30.5q-28 5 -55.5 7.5t-46.5 3.5l-54 -298q-1 -5 -1.5 -8.5t-0.5 -6.5q0 -23 25 -23q14 0 26 3.5t23 8.5q8 4 15 6.5t12 2.5q9 0 11.5 -8t3.5 -16
q-28 -23 -63.5 -36.5t-67.5 -18.5q-21 -25 -21 -42q0 -9 6.5 -18t14.5 -19t14.5 -20.5t6.5 -22.5q0 -14 -7 -26.5t-22.5 -25.5t-41.5 -27t-64 -30q-11 15 -9.5 23.5t15.5 16.5q26 14 37.5 23.5t11.5 22.5q0 10 -5.5 18.5t-12.5 17t-12.5 17.5t-5.5 20q0 5 1.5 10.5t7 13.5
t15 19t25.5 28q-29 3 -41 15t-12 34q0 5 0.5 10t1.5 10l60 329h-76q3 19 8 31t24 12h52z" />
    <glyph glyph-name="Tcaron" unicode="&#x164;" horiz-adv-x="649" 
d="M317 608h-71q-22 0 -38.5 -5.5t-30 -16.5t-26.5 -27.5t-29 -39.5q-6 -8 -13 -11t-15 -3t-14.5 3.5t-8.5 5.5q8 17 13.5 33.5l12.5 37.5q6 20 9 33t7 24q5 15 18 15t36.5 -3.5t71.5 -3.5h291q25 0 41.5 1t28 2t19.5 2t15 1q13 0 14 -12q2 -15 2 -27t3 -34q2 -17 5 -33.5
t8 -33.5q-5 -3 -11.5 -6.5t-16.5 -3.5q-16 0 -21 14q-16 47 -42 67.5t-70 20.5h-70l-100 -532q-4 -18 9 -28t46 -16q14 -2 19 -6.5t5 -12.5q0 -4 -1 -9t-3 -11q-37 3 -72 5t-71 2q-31 0 -69 -2t-71 -5q-2 5 -3 10t-1 10q0 16 17 19q35 5 54 15.5t23 30.5zM287 805
q-15 20 -8 28.5t29 19.5q31 -25 55.5 -42t43.5 -28q31 14 63 31.5t64 37.5q38 -20 11 -43l-126 -108q-32 0 -46.5 4.5t-26.5 20.5z" />
    <glyph glyph-name="tcaron" unicode="&#x165;" horiz-adv-x="316" 
d="M98 445q8 37 8 59q0 16 -3 30q22 3 47.5 6t55.5 11q8 -4 12 -7t4 -10q0 -5 -2 -15l-17 -89h108q-3 -10 -7.5 -26.5t-6.5 -30.5q-28 5 -55.5 7.5t-46.5 3.5l-54 -298q-1 -5 -1.5 -8.5t-0.5 -6.5q0 -23 25 -23q14 0 26 3.5t23 8.5q8 4 15 6.5t12 2.5q9 0 11.5 -8t3.5 -16
q-33 -26 -76.5 -41.5t-79.5 -15.5q-42 0 -58 12.5t-16 37.5q0 5 0.5 10t1.5 10l60 329h-76q3 19 8 31t24 12h52zM320 691q29 21 63 21q40 0 40 -27q0 -11 -7 -24q-11 -20 -19.5 -37.5t-17.5 -36t-18 -41t-19 -51.5q-5 -1 -9 -1.5t-8 -0.5q-23 0 -23 26z" />
    <glyph glyph-name="Tbar" unicode="&#x166;" horiz-adv-x="649" 
d="M265 332h-140q3 26 14 38.5t34 12.5h101l43 225h-71q-22 0 -38.5 -5.5t-30 -16.5t-26.5 -27.5t-29 -39.5q-6 -8 -13 -11t-15 -3t-14.5 3.5t-8.5 5.5q8 17 13.5 33.5l12.5 37.5q6 20 9 33t7 24q5 15 18 15t36.5 -3.5t71.5 -3.5h291q25 0 41.5 1t28 2t19.5 2t15 1
q13 0 14 -12q2 -15 2 -27t3 -34q2 -17 5 -33.5t8 -33.5q-5 -3 -11.5 -6.5t-16.5 -3.5q-16 0 -21 14q-16 47 -42 67.5t-70 20.5h-70l-43 -225h144q-4 -29 -14.5 -40t-32.5 -11h-106l-48 -256q-4 -18 9 -28t46 -16q14 -2 19 -6.5t5 -12.5q0 -4 -1 -9t-3 -11q-37 3 -72 5t-71 2
q-31 0 -69 -2t-71 -5q-2 5 -3 10t-1 10q0 16 17 19q35 5 54 15.5t23 30.5z" />
    <glyph glyph-name="tbar" unicode="&#x167;" horiz-adv-x="316" 
d="M167 231l-26 -145q-1 -5 -1.5 -8.5t-0.5 -6.5q0 -23 25 -23q14 0 26 3.5t23 8.5q8 4 15 6.5t12 2.5q9 0 11.5 -8t3.5 -16q-33 -26 -76.5 -41.5t-79.5 -15.5q-42 0 -58 12.5t-16 37.5q0 5 0.5 10t1.5 10l31 173h-70q3 43 30 43h48l21 113h-76q3 19 8 31t24 12h52l3 15
q8 37 8 59q0 16 -3 30q22 3 47.5 6t55.5 11q8 -4 12 -7t4 -10q0 -5 -2 -15l-17 -89h108q-3 -10 -7.5 -26.5t-6.5 -30.5q-28 5 -55.5 7.5t-46.5 3.5l-20 -110h105q-3 -24 -9.5 -33.5t-20.5 -9.5h-83z" />
    <glyph glyph-name="Utilde" unicode="&#x168;" 
d="M597 222q-12 -53 -32 -96t-52.5 -73.5t-79 -47.5t-110.5 -17q-109 0 -170 47.5t-61 136.5q0 13 1 26t4 27l68 352q4 18 -4.5 28.5t-37.5 13.5q-22 3 -22 18q0 7 5 20q38 -4 69.5 -5.5t55.5 -1.5q10 0 25.5 0.5t33 1t35.5 2t35 3.5q1 -5 1.5 -9t0.5 -8q0 -10 -5.5 -15
t-22.5 -7q-29 -4 -37.5 -12.5t-12.5 -26.5l-69 -347q-8 -40 -8 -69q0 -60 33 -91.5t112 -31.5q72 0 122.5 43t69.5 142l66 346q3 17 -6 31.5t-35 18.5q-15 2 -20.5 6t-5.5 12q0 6 3 18q37 -3 56 -5t38 -2q17 0 38.5 0.5t53.5 4.5q2 -5 3 -9.5t1 -8.5q0 -7 -4.5 -11t-16.5 -6
q-44 -7 -50 -41zM339 743q35 32 55.5 46t43.5 14q12 0 23 -4t22 -9.5t21.5 -9.5t20.5 -4q8 0 21.5 5t38.5 22q13 -6 16.5 -14t-8.5 -21q-22 -23 -45 -41.5t-47 -18.5q-14 0 -26 5t-23 10.5t-22.5 10.5t-24.5 5t-26.5 -8.5t-30.5 -22.5q-14 8 -18.5 15t9.5 20z" />
    <glyph glyph-name="utilde" unicode="&#x169;" horiz-adv-x="520" 
d="M146 134q-4 -17 -6 -29t-2 -21q0 -20 16 -20q10 0 28 15.5t39 40.5t42.5 56.5t39.5 64.5q18 32 30.5 76.5t12.5 79.5q0 15 -3 29q24 3 48.5 7t52.5 12q17 -7 17 -18q0 -5 -1 -10.5t-2 -8.5l-64 -319q-3 -16 -0.5 -20.5t8.5 -4.5q12 0 27.5 9.5t24.5 9.5t11 -7.5t3 -15.5
q-19 -12 -42 -25t-45.5 -23.5t-42.5 -17t-32 -6.5q-31 0 -31 27q0 8 3 19l34 144l-3 1q-23 -36 -47 -70.5t-51 -61.5t-56.5 -43t-61.5 -16q-27 0 -47 12.5t-20 45.5q0 12 1.5 28.5t5.5 35.5l47 223q3 14 2.5 20.5t-8.5 6.5q-6 0 -14 -2.5t-16 -6t-15 -6t-11 -2.5
q-8 0 -12.5 8.5t-5.5 16.5q14 9 38 21.5t49.5 24.5t49 20t35.5 8q14 0 22.5 -7t8.5 -24q0 -6 -1 -11.5t-2 -9.5zM183 562q35 32 55.5 46t43.5 14q12 0 23 -4t22 -9.5t21.5 -9.5t20.5 -4q8 0 21.5 5t38.5 22q13 -6 16.5 -14t-8.5 -21q-22 -23 -45 -41.5t-47 -18.5
q-14 0 -26 5t-23 10.5t-22.5 10.5t-24.5 5t-26.5 -8.5t-30.5 -22.5q-14 8 -18.5 15t9.5 20z" />
    <glyph glyph-name="Umacron" unicode="&#x16a;" 
d="M597 222q-12 -53 -32 -96t-52.5 -73.5t-79 -47.5t-110.5 -17q-109 0 -170 47.5t-61 136.5q0 13 1 26t4 27l68 352q4 18 -4.5 28.5t-37.5 13.5q-22 3 -22 18q0 7 5 20q38 -4 69.5 -5.5t55.5 -1.5q10 0 25.5 0.5t33 1t35.5 2t35 3.5q1 -5 1.5 -9t0.5 -8q0 -10 -5.5 -15
t-22.5 -7q-29 -4 -37.5 -12.5t-12.5 -26.5l-69 -347q-8 -40 -8 -69q0 -60 33 -91.5t112 -31.5q72 0 122.5 43t69.5 142l66 346q3 17 -6 31.5t-35 18.5q-15 2 -20.5 6t-5.5 12q0 6 3 18q37 -3 56 -5t38 -2q17 0 38.5 0.5t53.5 4.5q2 -5 3 -9.5t1 -8.5q0 -7 -4.5 -11t-16.5 -6
q-44 -7 -50 -41zM331 739q4 32 17 46t39 14h225q-5 -34 -17 -47t-38 -13h-226z" />
    <glyph glyph-name="umacron" unicode="&#x16b;" horiz-adv-x="520" 
d="M146 134q-4 -17 -6 -29t-2 -21q0 -20 16 -20q10 0 28 15.5t39 40.5t42.5 56.5t39.5 64.5q18 32 30.5 76.5t12.5 79.5q0 15 -3 29q24 3 48.5 7t52.5 12q17 -7 17 -18q0 -5 -1 -10.5t-2 -8.5l-64 -319q-3 -16 -0.5 -20.5t8.5 -4.5q12 0 27.5 9.5t24.5 9.5t11 -7.5t3 -15.5
q-19 -12 -42 -25t-45.5 -23.5t-42.5 -17t-32 -6.5q-31 0 -31 27q0 8 3 19l34 144l-3 1q-23 -36 -47 -70.5t-51 -61.5t-56.5 -43t-61.5 -16q-27 0 -47 12.5t-20 45.5q0 12 1.5 28.5t5.5 35.5l47 223q3 14 2.5 20.5t-8.5 6.5q-6 0 -14 -2.5t-16 -6t-15 -6t-11 -2.5
q-8 0 -12.5 8.5t-5.5 16.5q14 9 38 21.5t49.5 24.5t49 20t35.5 8q14 0 22.5 -7t8.5 -24q0 -6 -1 -11.5t-2 -9.5zM176 543q4 32 17 46t39 14h225q-5 -34 -17 -47t-38 -13h-226z" />
    <glyph glyph-name="Ubreve" unicode="&#x16c;" 
d="M597 222q-12 -53 -32 -96t-52.5 -73.5t-79 -47.5t-110.5 -17q-109 0 -170 47.5t-61 136.5q0 13 1 26t4 27l68 352q4 18 -4.5 28.5t-37.5 13.5q-22 3 -22 18q0 7 5 20q38 -4 69.5 -5.5t55.5 -1.5q10 0 25.5 0.5t33 1t35.5 2t35 3.5q1 -5 1.5 -9t0.5 -8q0 -10 -5.5 -15
t-22.5 -7q-29 -4 -37.5 -12.5t-12.5 -26.5l-69 -347q-8 -40 -8 -69q0 -60 33 -91.5t112 -31.5q72 0 122.5 43t69.5 142l66 346q3 17 -6 31.5t-35 18.5q-15 2 -20.5 6t-5.5 12q0 6 3 18q37 -3 56 -5t38 -2q17 0 38.5 0.5t53.5 4.5q2 -5 3 -9.5t1 -8.5q0 -7 -4.5 -11t-16.5 -6
q-44 -7 -50 -41zM478 777q26 0 48.5 13.5t50.5 53.5q17 -2 23.5 -9.5t2.5 -16.5q-20 -46 -57 -76.5t-80 -30.5q-28 0 -47.5 10t-32.5 26t-19.5 36t-7.5 40q-2 21 31 22q16 -41 40.5 -54.5t47.5 -13.5z" />
    <glyph glyph-name="ubreve" unicode="&#x16d;" horiz-adv-x="520" 
d="M146 134q-4 -17 -6 -29t-2 -21q0 -20 16 -20q10 0 28 15.5t39 40.5t42.5 56.5t39.5 64.5q18 32 30.5 76.5t12.5 79.5q0 15 -3 29q24 3 48.5 7t52.5 12q17 -7 17 -18q0 -5 -1 -10.5t-2 -8.5l-64 -319q-3 -16 -0.5 -20.5t8.5 -4.5q12 0 27.5 9.5t24.5 9.5t11 -7.5t3 -15.5
q-19 -12 -42 -25t-45.5 -23.5t-42.5 -17t-32 -6.5q-31 0 -31 27q0 8 3 19l34 144l-3 1q-23 -36 -47 -70.5t-51 -61.5t-56.5 -43t-61.5 -16q-27 0 -47 12.5t-20 45.5q0 12 1.5 28.5t5.5 35.5l47 223q3 14 2.5 20.5t-8.5 6.5q-6 0 -14 -2.5t-16 -6t-15 -6t-11 -2.5
q-8 0 -12.5 8.5t-5.5 16.5q14 9 38 21.5t49.5 24.5t49 20t35.5 8q14 0 22.5 -7t8.5 -24q0 -6 -1 -11.5t-2 -9.5zM306 571q26 0 48.5 13.5t50.5 53.5q17 -2 23.5 -9.5t2.5 -16.5q-20 -46 -57 -76.5t-80 -30.5q-28 0 -47.5 10t-32 25.5t-19 35.5t-8.5 41t31 22
q16 -41 40.5 -54.5t47.5 -13.5z" />
    <glyph glyph-name="Uring" unicode="&#x16e;" 
d="M597 222q-12 -53 -32 -96t-52.5 -73.5t-79 -47.5t-110.5 -17q-109 0 -170 47.5t-61 136.5q0 13 1 26t4 27l68 352q4 18 -4.5 28.5t-37.5 13.5q-22 3 -22 18q0 7 5 20q38 -4 69.5 -5.5t55.5 -1.5q10 0 25.5 0.5t33 1t35.5 2t35 3.5q1 -5 1.5 -9t0.5 -8q0 -10 -5.5 -15
t-22.5 -7q-29 -4 -37.5 -12.5t-12.5 -26.5l-69 -347q-8 -40 -8 -69q0 -60 33 -91.5t112 -31.5q72 0 122.5 43t69.5 142l66 346q3 17 -6 31.5t-35 18.5q-15 2 -20.5 6t-5.5 12q0 6 3 18q37 -3 56 -5t38 -2q17 0 38.5 0.5t53.5 4.5q2 -5 3 -9.5t1 -8.5q0 -7 -4.5 -11t-16.5 -6
q-44 -7 -50 -41zM377 784q0 19 8.5 36.5t22.5 30t33.5 20t41.5 7.5q24 0 40 -6.5t25.5 -17t14 -24t4.5 -26.5q0 -24 -9 -42.5t-23.5 -32t-32.5 -20.5t-36 -7q-47 0 -68 23.5t-21 58.5zM467 736q16 0 25.5 19t9.5 51q0 38 -25 38q-17 0 -26 -20t-9 -50q0 -20 7 -29t18 -9z
" />
    <glyph glyph-name="uring" unicode="&#x16f;" horiz-adv-x="520" 
d="M146 134q-4 -17 -6 -29t-2 -21q0 -20 16 -20q10 0 28 15.5t39 40.5t42.5 56.5t39.5 64.5q18 32 30.5 76.5t12.5 79.5q0 15 -3 29q24 3 48.5 7t52.5 12q17 -7 17 -18q0 -5 -1 -10.5t-2 -8.5l-64 -319q-3 -16 -0.5 -20.5t8.5 -4.5q12 0 27.5 9.5t24.5 9.5t11 -7.5t3 -15.5
q-19 -12 -42 -25t-45.5 -23.5t-42.5 -17t-32 -6.5q-31 0 -31 27q0 8 3 19l34 144l-3 1q-23 -36 -47 -70.5t-51 -61.5t-56.5 -43t-61.5 -16q-27 0 -47 12.5t-20 45.5q0 12 1.5 28.5t5.5 35.5l47 223q3 14 2.5 20.5t-8.5 6.5q-6 0 -14 -2.5t-16 -6t-15 -6t-11 -2.5
q-8 0 -12.5 8.5t-5.5 16.5q14 9 38 21.5t49.5 24.5t49 20t35.5 8q14 0 22.5 -7t8.5 -24q0 -6 -1 -11.5t-2 -9.5zM205 566q0 19 8.5 36.5t22.5 30t33.5 20t41.5 7.5q24 0 40 -6.5t25.5 -17t14 -24t4.5 -26.5q0 -24 -9 -42.5t-23.5 -32t-32.5 -20.5t-36 -7q-47 0 -68 23.5
t-21 58.5zM295 518q16 0 25.5 19t9.5 51q0 38 -25 38q-17 0 -26 -20t-9 -50q0 -20 7 -29t18 -9z" />
    <glyph glyph-name="Uhungarumlaut" unicode="&#x170;" 
d="M597 222q-12 -53 -32 -96t-52.5 -73.5t-79 -47.5t-110.5 -17q-109 0 -170 47.5t-61 136.5q0 13 1 26t4 27l68 352q4 18 -4.5 28.5t-37.5 13.5q-22 3 -22 18q0 7 5 20q38 -4 69.5 -5.5t55.5 -1.5q10 0 25.5 0.5t33 1t35.5 2t35 3.5q1 -5 1.5 -9t0.5 -8q0 -10 -5.5 -15
t-22.5 -7q-29 -4 -37.5 -12.5t-12.5 -26.5l-69 -347q-8 -40 -8 -69q0 -60 33 -91.5t112 -31.5q72 0 122.5 43t69.5 142l66 346q3 17 -6 31.5t-35 18.5q-15 2 -20.5 6t-5.5 12q0 6 3 18q37 -3 56 -5t38 -2q17 0 38.5 0.5t53.5 4.5q2 -5 3 -9.5t1 -8.5q0 -7 -4.5 -11t-16.5 -6
q-44 -7 -50 -41zM602 883q43 -8 62.5 -23t19.5 -29q0 -8 -7.5 -15t-18.5 -14q-18 -11 -32.5 -20.5t-29.5 -21t-32 -25.5t-41 -35q-23 8 -27.5 15.5t6.5 24.5zM447 883q43 -8 62.5 -23t19.5 -29q0 -8 -7.5 -15t-18.5 -14q-18 -11 -32.5 -20.5t-29.5 -21t-32 -25.5t-41 -35
q-23 8 -27.5 15.5t6.5 24.5z" />
    <glyph glyph-name="uhungarumlaut" unicode="&#x171;" horiz-adv-x="520" 
d="M146 134q-4 -17 -6 -29t-2 -21q0 -20 16 -20q10 0 28 15.5t39 40.5t42.5 56.5t39.5 64.5q18 32 30.5 76.5t12.5 79.5q0 15 -3 29q24 3 48.5 7t52.5 12q17 -7 17 -18q0 -5 -1 -10.5t-2 -8.5l-64 -319q-3 -16 -0.5 -20.5t8.5 -4.5q12 0 27.5 9.5t24.5 9.5t11 -7.5t3 -15.5
q-19 -12 -42 -25t-45.5 -23.5t-42.5 -17t-32 -6.5q-31 0 -31 27q0 8 3 19l34 144l-3 1q-23 -36 -47 -70.5t-51 -61.5t-56.5 -43t-61.5 -16q-27 0 -47 12.5t-20 45.5q0 12 1.5 28.5t5.5 35.5l47 223q3 14 2.5 20.5t-8.5 6.5q-6 0 -14 -2.5t-16 -6t-15 -6t-11 -2.5
q-8 0 -12.5 8.5t-5.5 16.5q14 9 38 21.5t49.5 24.5t49 20t35.5 8q14 0 22.5 -7t8.5 -24q0 -6 -1 -11.5t-2 -9.5zM403 668q10 0 24.5 -1t28 -4.5t23.5 -11t10 -20.5q0 -8 -5 -16t-17 -19q-14 -11 -25.5 -21.5t-24 -22.5t-27.5 -28t-34 -39q-19 5 -26 13t3 27zM260 668
q10 0 24.5 -1t28 -4.5t23.5 -11t10 -20.5q0 -8 -5 -16t-17 -19q-14 -11 -25.5 -21.5t-24 -22.5t-27.5 -28t-34 -39q-19 5 -26 13t3 27z" />
    <glyph glyph-name="Uogonek" unicode="&#x172;" 
d="M597 222q-18 -77 -54 -129t-97 -89q-24 -15 -41 -32.5t-27 -36t-14.5 -36t-4.5 -32.5q0 -9 5.5 -18t20.5 -9q11 0 36 11q12 5 21.5 1.5t11.5 -26.5q-8 -6 -22.5 -14.5t-32.5 -17t-37 -14.5t-34 -6q-33 0 -48 18t-15 41q0 43 29.5 81t70.5 76q-10 -1 -20.5 -1.5
t-21.5 -0.5q-109 0 -170 47.5t-61 136.5q0 13 1 26t4 27l68 352q4 18 -4.5 28.5t-37.5 13.5q-22 3 -22 18q0 7 5 20q38 -4 69.5 -5.5t55.5 -1.5q10 0 25.5 0.5t33 1t35.5 2t35 3.5q1 -5 1.5 -9t0.5 -8q0 -10 -5.5 -15t-22.5 -7q-29 -4 -37.5 -12.5t-12.5 -26.5l-69 -347
q-8 -40 -8 -69q0 -60 33 -91.5t112 -31.5q72 0 122.5 43t69.5 142l66 346q3 17 -6 31.5t-35 18.5q-15 2 -20.5 6t-5.5 12q0 6 3 18q37 -3 56 -5t38 -2q17 0 38.5 0.5t53.5 4.5q2 -5 3 -9.5t1 -8.5q0 -7 -4.5 -11t-16.5 -6q-44 -7 -50 -41l-68 -357v0z" />
    <glyph glyph-name="uogonek" unicode="&#x173;" horiz-adv-x="520" 
d="M146 134q-4 -17 -6 -29t-2 -21q0 -20 16 -20q10 0 28 15.5t39 40.5t42.5 56.5t39.5 64.5q18 32 30.5 76.5t12.5 79.5q0 15 -3 29q24 3 48.5 7t52.5 12q17 -7 17 -18q0 -5 -1 -10.5t-2 -8.5l-64 -319q-3 -16 -0.5 -20.5t8.5 -4.5q12 0 27.5 9.5t24.5 9.5t11 -7.5t3 -15.5
q-17 -11 -36 -23l-38 -24q-29 -19 -47.5 -38.5t-29 -38.5t-15 -36.5t-4.5 -32.5q0 -9 5.5 -18t20.5 -9q11 0 36 11q12 5 21.5 1.5t11.5 -26.5q-8 -6 -22.5 -14.5t-32.5 -17t-37 -14.5t-34 -6q-33 0 -48 18t-15 41q0 42 29 79.5t69 75.5q-27 1 -27 27q0 8 3 19l34 144l-3 1
q-23 -36 -47 -70.5t-51 -61.5t-56.5 -43t-61.5 -16q-27 0 -47 12.5t-20 45.5q0 12 1.5 28.5t5.5 35.5l47 223q3 14 2.5 20.5t-8.5 6.5q-6 0 -14 -2.5t-16 -6t-15 -6t-11 -2.5q-8 0 -12.5 8.5t-5.5 16.5q14 9 38 21.5t49.5 24.5t49 20t35.5 8q14 0 22.5 -7t8.5 -24
q0 -6 -1 -11.5t-2 -9.5z" />
    <glyph glyph-name="Wcircumflex" unicode="&#x174;" horiz-adv-x="960" 
d="M108 579q-4 19 -15.5 25t-37.5 11q-11 2 -14.5 7.5t-3.5 13.5q0 10 3 21q35 -5 70.5 -6t59.5 -1q21 0 59 2t72 5q3 -12 3 -19q0 -18 -18 -19q-34 -5 -43 -14t-5 -34l64 -387l239 474q5 2 13 3t13 1q14 0 18 -4.5t6 -12.5l76 -474l208 403q11 20 4 31.5t-39 14.5
q-19 1 -19 16q0 6 5 21q30 -4 58 -5.5t48 -1.5q18 0 34.5 1t50.5 4q3 -11 3 -18q0 -9 -6.5 -12.5t-20.5 -5.5q-26 -5 -36.5 -13.5t-18.5 -22.5l-313 -591q-5 -2 -10.5 -3t-11.5 -1q-14 0 -19 6t-7 19l-73 455l-244 -476q-5 -2 -10.5 -3t-11.5 -1q-13 0 -18 6t-8 20zM705 758
q15 -20 8 -28.5t-29 -19.5q-31 25 -55 41t-43 27q-31 -14 -62.5 -31t-63.5 -37q-23 12 -25 22t12 22l126 108q32 0 46.5 -4.5t26.5 -20.5z" />
    <glyph glyph-name="wcircumflex" unicode="&#x175;" horiz-adv-x="729" 
d="M309 58q0 5 2 18t4 27.5t4.5 28t3.5 20.5q-51 -75 -104 -119.5t-98 -44.5q-40 0 -58 15.5t-18 48.5q0 13 1 26.5t3 30.5l28 226q2 13 1 19t-7 6t-14 -2.5t-16 -6t-15 -6t-11 -2.5q-8 0 -12.5 8.5t-5.5 16.5q14 9 38 21.5t49 24.5t48 20t35 8q14 0 21.5 -7t7.5 -24v-12.5
t-2 -16.5l-31 -264q-3 -21 -3 -33q0 -15 4.5 -21t14.5 -6q15 0 34 17t38.5 43.5t36 57.5t26.5 60q16 46 19 84t3 55q0 34 -6 42l9 10q19 2 43 7t58 14q8 -9 10.5 -18.5t2.5 -16.5q0 -5 -0.5 -12.5t-1.5 -15.5l-31 -257q-2 -16 -3.5 -28.5t-1.5 -20.5q0 -20 12 -20
q16 0 35.5 13.5t38.5 35.5t37 51t32 59t22 60t8 54q0 22 -6.5 43.5t-22.5 36.5l11 16q32 2 58.5 6.5t52.5 12.5q9 -27 9 -54q0 -28 -14.5 -68.5t-39 -85.5t-57 -90t-68.5 -80.5t-73 -58t-70 -22.5q-39 0 -55 18.5t-16 51.5zM551 524q5 -13 1 -21t-26 -18q-21 28 -42.5 52.5
t-39.5 39.5q-26 -17 -58.5 -42t-67.5 -54q-12 7 -17.5 14t-6.5 12t1 9.5t5 7.5l121 138q42 3 59.5 -4t25.5 -25z" />
    <glyph glyph-name="Ycircumflex" unicode="&#x176;" horiz-adv-x="558" 
d="M213 287l-110 297q-5 13 -14 21t-30 10q-12 1 -17 7t-5 15q0 8 3 19q36 -4 69 -5.5t58 -1.5q21 0 56.5 2t68.5 5q4 -11 4 -19q0 -17 -19 -18q-35 -5 -41 -16t2 -32l76 -229l170 231q12 17 2.5 31t-36.5 16q-21 1 -21 18q0 4 1 8.5t3 10.5q24 -4 52.5 -5.5t48.5 -1.5
q17 0 43 1.5t58 5.5q2 -6 3 -10t1 -8q0 -10 -7.5 -14.5t-22.5 -7.5q-19 -4 -31.5 -12t-23.5 -22l-214 -285l-44 -226q-4 -20 7.5 -29t35.5 -12q11 -2 16.5 -5.5t5.5 -12.5t-4 -20q-38 3 -74 5t-61 2q-10 0 -26 -0.5t-34 -1.5t-37 -2.5t-35 -2.5q-2 5 -3 9t-1 9q0 7 4.5 12
t16.5 7q56 9 64 44zM505 758q15 -20 8 -28.5t-29 -19.5q-31 25 -55 41t-43 27q-31 -14 -62.5 -31t-63.5 -37q-23 12 -25 22t12 22l126 108q32 0 46.5 -4.5t26.5 -20.5z" />
    <glyph glyph-name="ycircumflex" unicode="&#x177;" horiz-adv-x="513" 
d="M156 -208q39 0 64.5 34.5t39.5 99.5l54 252l-3 1q-23 -36 -47 -70.5t-51 -61.5t-56.5 -43t-61.5 -16q-27 0 -47 12.5t-20 45.5q0 12 1.5 28.5t5.5 35.5l47 223q3 12 3 18q0 9 -9 9q-6 0 -14 -2.5t-16 -6t-15 -6t-11 -2.5q-8 0 -12.5 8.5t-5.5 16.5q14 9 38 21.5
t49.5 24.5t49 20t35.5 8q14 0 22.5 -7t8.5 -24q0 -6 -1 -11.5t-2 -9.5l-54 -256q-4 -17 -6 -29t-2 -21q0 -20 16 -20q10 0 28 15.5t39 40.5t42.5 56.5t39.5 64.5q18 32 30.5 76.5t12.5 79.5q0 15 -3 29q24 3 48.5 7t52.5 12q17 -7 17 -18q0 -5 -1 -10.5t-2 -8.5l-89 -447
q-11 -54 -37 -94t-60 -66.5t-72.5 -39.5t-74.5 -13q-41 0 -70.5 6t-54.5 17q19 45 25 94l25 4q16 -33 44 -55t60 -22zM427 524q5 -13 1 -21t-26 -18q-21 28 -42.5 52.5t-39.5 39.5q-26 -17 -58.5 -42t-67.5 -54q-12 7 -17.5 14t-6.5 12t1 9.5t5 7.5l121 138q42 3 59.5 -4
t25.5 -25z" />
    <glyph glyph-name="Ydieresis" unicode="&#x178;" horiz-adv-x="558" 
d="M213 287l-110 297q-5 13 -14 21t-30 10q-12 1 -17 7t-5 15q0 8 3 19q36 -4 69 -5.5t58 -1.5q21 0 56.5 2t68.5 5q4 -11 4 -19q0 -17 -19 -18q-35 -5 -41 -16t2 -32l76 -229l170 231q12 17 2.5 31t-36.5 16q-21 1 -21 18q0 4 1 8.5t3 10.5q24 -4 52.5 -5.5t48.5 -1.5
q17 0 43 1.5t58 5.5q2 -6 3 -10t1 -8q0 -10 -7.5 -14.5t-22.5 -7.5q-19 -4 -31.5 -12t-23.5 -22l-214 -285l-44 -226q-4 -20 7.5 -29t35.5 -12q11 -2 16.5 -5.5t5.5 -12.5t-4 -20q-38 3 -74 5t-61 2q-10 0 -26 -0.5t-34 -1.5t-37 -2.5t-35 -2.5q-2 5 -3 9t-1 9q0 7 4.5 12
t16.5 7q56 9 64 44zM410 763q0 29 19.5 46t40.5 17q23 0 37 -15t14 -39q0 -28 -17.5 -45.5t-40.5 -17.5q-24 0 -38.5 15t-14.5 39zM232 763q0 29 19.5 46t40.5 17q23 0 37 -15t14 -39q0 -28 -17.5 -45.5t-40.5 -17.5q-24 0 -38.5 15t-14.5 39z" />
    <glyph glyph-name="Zacute" unicode="&#x179;" horiz-adv-x="615" 
d="M-24 0q-2 5 -1 10.5t7 12.5l498 585h-217q-27 0 -47.5 -4t-38 -15t-32 -30t-29.5 -49q-5 -11 -11.5 -14.5t-18.5 -3.5q-8 0 -16.5 3t-11.5 6q15 38 26.5 73t16.5 58q3 13 8.5 18t19.5 5t24.5 -1t21.5 -1.5t25 -1.5t35 -1h401q2 -6 2 -12.5t-7 -14.5l-492 -580h216
q27 0 48 7.5t38.5 22.5t34 38t35.5 54q5 8 9 12t12 4q9 0 18 -4t15 -10q-17 -35 -28.5 -73.5t-21.5 -81.5q-2 -11 -7.5 -14.5t-10.5 -3.5q-21 0 -45 3t-59 3h-417zM454 866q65 -29 65 -57q0 -13 -10.5 -19.5t-25.5 -11.5q-21 -6 -38 -12.5t-35 -14t-38.5 -18t-47.5 -24.5
q-20 15 -20 23t17 22z" />
    <glyph glyph-name="zacute" unicode="&#x17a;" horiz-adv-x="390" 
d="M83 81q17 8 33.5 12.5t33.5 4.5q26 0 50 -6.5t54 -6.5q17 0 27.5 8t21.5 31q5 10 10.5 15t18.5 3l18 -2q-10 -28 -18.5 -64t-12.5 -60l-10 -10q-17 -8 -32 -10.5t-32 -2.5q-24 0 -47 4.5t-45 9.5q-23 5 -46.5 9.5t-50.5 4.5q-12 0 -28 -4.5t-30 -15.5h-21q-6 8 -5 14
t7 13l266 311q-13 -5 -26.5 -8t-23.5 -3q-22 0 -38.5 3.5t-29 7.5t-23 7.5t-21.5 3.5q-9 0 -14.5 -5t-15.5 -23q-6 -11 -12 -17t-26 -4l-11 2q4 13 9 28.5t9.5 31.5t8 31t5.5 27l7 6q27 8 52 8q23 0 43.5 -4t39.5 -9q22 -6 43.5 -10.5t39.5 -4.5q31 0 48.5 5t37.5 18h16
q7 -9 6.5 -14t-6.5 -13zM285 673q14 -3 28 -7.5t25 -10.5t18 -14t7 -17q0 -18 -29 -35q-17 -10 -32 -19.5t-31.5 -21.5t-36 -26.5t-45.5 -35.5q-17 9 -22.5 18t7.5 26z" />
    <glyph glyph-name="Zdotaccent" unicode="&#x17b;" horiz-adv-x="615" 
d="M-24 0q-2 5 -1 10.5t7 12.5l498 585h-217q-27 0 -47.5 -4t-38 -15t-32 -30t-29.5 -49q-5 -11 -11.5 -14.5t-18.5 -3.5q-8 0 -16.5 3t-11.5 6q15 38 26.5 73t16.5 58q3 13 8.5 18t19.5 5t24.5 -1t21.5 -1.5t25 -1.5t35 -1h401q2 -6 2 -12.5t-7 -14.5l-492 -580h216
q27 0 48 7.5t38.5 22.5t34 38t35.5 54q5 8 9 12t12 4q9 0 18 -4t15 -10q-17 -35 -28.5 -73.5t-21.5 -81.5q-2 -11 -7.5 -14.5t-10.5 -3.5q-21 0 -45 3t-59 3h-417zM371 710q-27 0 -43 13.5t-16 36.5q0 31 24 53t57 22q29 0 42 -17.5t13 -35.5q0 -32 -22.5 -52t-54.5 -20z
" />
    <glyph glyph-name="zdotaccent" unicode="&#x17c;" horiz-adv-x="390" 
d="M83 81q17 8 33.5 12.5t33.5 4.5q26 0 50 -6.5t54 -6.5q17 0 27.5 8t21.5 31q5 10 10.5 15t18.5 3l18 -2q-10 -28 -18.5 -64t-12.5 -60l-10 -10q-17 -8 -32 -10.5t-32 -2.5q-24 0 -47 4.5t-45 9.5q-23 5 -46.5 9.5t-50.5 4.5q-12 0 -28 -4.5t-30 -15.5h-21q-6 8 -5 14
t7 13l266 311q-13 -5 -26.5 -8t-23.5 -3q-22 0 -38.5 3.5t-29 7.5t-23 7.5t-21.5 3.5q-9 0 -14.5 -5t-15.5 -23q-6 -11 -12 -17t-26 -4l-11 2q4 13 9 28.5t9.5 31.5t8 31t5.5 27l7 6q27 8 52 8q23 0 43.5 -4t39.5 -9q22 -6 43.5 -10.5t39.5 -4.5q31 0 48.5 5t37.5 18h16
q7 -9 6.5 -14t-6.5 -13zM228 525q-27 0 -43 13.5t-16 36.5q0 31 24 53t57 22q29 0 42 -17.5t13 -35.5q0 -32 -22.5 -52t-54.5 -20z" />
    <glyph glyph-name="Zcaron" unicode="&#x17d;" horiz-adv-x="615" 
d="M-24 0q-2 5 -1 10.5t7 12.5l498 585h-217q-27 0 -47.5 -4t-38 -15t-32 -30t-29.5 -49q-5 -11 -11.5 -14.5t-18.5 -3.5q-8 0 -16.5 3t-11.5 6q15 38 26.5 73t16.5 58q3 13 8.5 18t19.5 5t24.5 -1t21.5 -1.5t25 -1.5t35 -1h401q2 -6 2 -12.5t-7 -14.5l-492 -580h216
q27 0 48 7.5t38.5 22.5t34 38t35.5 54q5 8 9 12t12 4q9 0 18 -4t15 -10q-17 -35 -28.5 -73.5t-21.5 -81.5q-2 -11 -7.5 -14.5t-10.5 -3.5q-21 0 -45 3t-59 3h-417zM262 805q-15 20 -8 28.5t29 19.5q31 -25 55.5 -42t43.5 -28q31 14 63 31.5t64 37.5q38 -20 11 -43l-126 -108
q-32 0 -46.5 4.5t-26.5 20.5z" />
    <glyph glyph-name="zcaron" unicode="&#x17e;" horiz-adv-x="390" 
d="M83 81q17 8 33.5 12.5t33.5 4.5q26 0 50 -6.5t54 -6.5q17 0 27.5 8t21.5 31q5 10 10.5 15t18.5 3l18 -2q-10 -28 -18.5 -64t-12.5 -60l-10 -10q-17 -8 -32 -10.5t-32 -2.5q-24 0 -47 4.5t-45 9.5q-23 5 -46.5 9.5t-50.5 4.5q-12 0 -28 -4.5t-30 -15.5h-21q-6 8 -5 14
t7 13l266 311q-13 -5 -26.5 -8t-23.5 -3q-22 0 -38.5 3.5t-29 7.5t-23 7.5t-21.5 3.5q-9 0 -14.5 -5t-15.5 -23q-6 -11 -12 -17t-26 -4l-11 2q4 13 9 28.5t9.5 31.5t8 31t5.5 27l7 6q27 8 52 8q23 0 43.5 -4t39.5 -9q22 -6 43.5 -10.5t39.5 -4.5q31 0 48.5 5t37.5 18h16
q7 -9 6.5 -14t-6.5 -13zM127 627q-5 13 0 21.5t27 18.5q21 -28 42.5 -52.5t39.5 -39.5q26 17 57.5 41.5t66.5 53.5q12 -8 17.5 -14.5t6.5 -11.5t-1 -9.5t-5 -7.5l-121 -138q-42 -3 -59.5 4t-25.5 25z" />
    <glyph glyph-name="longs" unicode="&#x17f;" horiz-adv-x="286" 
d="M119 515q7 42 29.5 78.5t53 62.5t65.5 41t68 15q14 0 30.5 -4.5t30.5 -12.5q-7 -14 -13 -34t-10 -43l-20 -6q-9 14 -25 28.5t-33 14.5q-11 0 -21 -8t-19 -29t-17.5 -57.5t-18.5 -94.5l-61 -362q-23 -137 -73.5 -219.5t-117.5 -121.5q-11 -6 -24.5 -10.5t-30.5 -4.5
q-11 0 -26.5 3t-27.5 8q5 17 11.5 43t8.5 48l22 7q13 -17 25 -28.5t30 -11.5q26 0 44.5 57t38.5 163z" />
    <glyph glyph-name="florin" unicode="&#x192;" horiz-adv-x="488" 
d="M20 -127q-10 0 -21 1t-20.5 5t-15.5 10t-6 17q0 9 2.5 20.5t8 22.5t13.5 18.5t20 7.5q11 0 19.5 -6t16.5 -12.5t16 -12.5t19 -6q20 0 38.5 60.5t35.5 164.5l23 141h-107q-1 5 -1.5 11t-0.5 11q0 16 7.5 21t27.5 5h82l16 89q7 44 28.5 82.5t52.5 66.5t68.5 44t77.5 16
q9 0 20 -1t20.5 -4t16 -8.5t6.5 -14.5q0 -6 -1.5 -16.5t-6 -21t-12 -18.5t-19.5 -8t-19 4.5t-15 10.5q-12 10 -23 16t-19 6t-15 -6.5t-14 -26.5t-15 -57.5t-18 -99.5l-9 -53h133q1 -6 1.5 -11.5t0.5 -10.5q0 -16 -8 -21t-26 -5h-107l-13 -73q-14 -77 -33.5 -133t-44.5 -96
t-54 -67t-61 -46q-11 -6 -28 -11t-37 -5z" />
    <glyph glyph-name="clickdental" unicode="&#x1c0;" horiz-adv-x="254" 
d="M184 700v-940h-94v940h94z" />
    <glyph glyph-name="clicklateral" unicode="&#x1c1;" horiz-adv-x="508" 
d="M184 700v-940h-94v940h94zM438 700v-940h-94v940h94z" />
    <glyph glyph-name="clickretroflex" unicode="&#x1c3;" horiz-adv-x="251" 
d="M118 648q16 6 36.5 10t34.5 4q37 0 50 -14.5t5 -36.5q-31 -86 -66 -200.5t-58 -243.5q-17 -3 -26.5 -2t-14 5t-5 9.5t-0.5 10.5zM14 50q0 29 20 51t50 22q32 0 48.5 -18.5t16.5 -44.5q0 -30 -21 -51t-49 -21q-35 0 -50 18t-15 44z" />
    <glyph glyph-name="DZcaron" unicode="&#x1c4;" horiz-adv-x="1377" 
d="M573 366q0 65 -16 111t-47.5 75t-77 42.5t-103.5 13.5h-35l-101 -536q-3 -17 0.5 -23t17.5 -6h43q64 0 121.5 18.5t101.5 57.5t70 100t26 147zM171 581q3 17 -7 27t-40 12q-18 1 -18 15q0 5 1 10t3 12q37 -3 70.5 -5t57.5 -2h138q71 0 131.5 -17t104.5 -51t68.5 -85.5
t24.5 -120.5q0 -84 -33 -153t-91 -118.5t-136.5 -77t-169.5 -27.5h-149q-21 0 -58 -2t-71 -5q-1 4 -2 8.5t-1 9.5q0 6 3 11t13 7q31 5 45 13.5t18 28.5zM704 0q-2 5 -1 10.5t7 12.5l498 585h-217q-27 0 -47.5 -4t-38 -15t-32 -30t-29.5 -49q-5 -11 -11.5 -14.5t-18.5 -3.5
q-8 0 -16.5 3t-11.5 6q15 38 26.5 73t16.5 58q3 13 8.5 18t19.5 5t24.5 -1t21.5 -1.5t25 -1.5t35 -1h401q2 -6 2 -12.5t-7 -14.5l-492 -580h216q27 0 48 7.5t38.5 22.5t34 38t35.5 54q5 8 9 12t12 4q9 0 18 -4t15 -10q-17 -35 -28.5 -73.5t-21.5 -81.5q-2 -11 -7.5 -14.5
t-10.5 -3.5q-21 0 -45 3t-59 3h-417zM999 846q-5 13 0 21.5t27 18.5q21 -28 42.5 -52.5t39.5 -39.5q26 17 57.5 41.5t66.5 53.5q12 -8 17.5 -14.5t6.5 -11.5t-1 -9.5t-5 -7.5l-121 -138q-42 -3 -59.5 4t-25.5 25z" />
    <glyph glyph-name="Dzcaron" unicode="&#x1c5;" horiz-adv-x="1221" 
d="M573 366q0 65 -16 111t-47.5 75t-77 42.5t-103.5 13.5h-35l-101 -536q-3 -17 0.5 -23t17.5 -6h43q64 0 121.5 18.5t101.5 57.5t70 100t26 147zM171 581q3 17 -7 27t-40 12q-18 1 -18 15q0 5 1 10t3 12q37 -3 70.5 -5t57.5 -2h138q71 0 131.5 -17t104.5 -51t68.5 -85.5
t24.5 -120.5q0 -84 -33 -153t-91 -118.5t-136.5 -77t-169.5 -27.5h-149q-21 0 -58 -2t-71 -5q-1 4 -2 8.5t-1 9.5q0 6 3 11t13 7q31 5 45 13.5t18 28.5zM811 81q17 8 33.5 12.5t33.5 4.5q26 0 50 -6.5t54 -6.5q17 0 27.5 8t21.5 31q5 10 10.5 15t18.5 3l18 -2
q-10 -28 -18.5 -64t-12.5 -60l-10 -10q-17 -8 -32 -10.5t-32 -2.5q-24 0 -47 4.5t-45 9.5q-23 5 -46.5 9.5t-50.5 4.5q-12 0 -28 -4.5t-30 -15.5h-21q-6 8 -5 14t7 13l266 311q-13 -5 -26.5 -8t-23.5 -3q-22 0 -38.5 3.5t-29 7.5t-23 7.5t-21.5 3.5q-9 0 -14.5 -5t-15.5 -23
q-6 -11 -12 -17t-26 -4l-11 2q4 13 9 28.5t9.5 31.5t8 31t5.5 27l7 6q27 8 52 8q23 0 43.5 -4t39.5 -9q22 -6 43.5 -10.5t39.5 -4.5q31 0 48.5 5t37.5 18h16q7 -9 6.5 -14t-6.5 -13zM843 627q-5 13 0 21.5t27 18.5q21 -28 42.5 -52.5t39.5 -39.5q26 17 57.5 41.5t66.5 53.5
q12 -8 17.5 -14.5t6.5 -11.5t-1 -9.5t-5 -7.5l-121 -138q-42 -3 -59.5 4t-25.5 25z" />
    </font>
</defs>
</svg>
