<?xml version="1.0" standalone="no"?>
<!DOCTYPE svg PUBLIC "-//W3C//DTD SVG 1.1//EN" "http://www.w3.org/Graphics/SVG/1.1/DTD/svg11.dtd" >
<svg xmlns="http://www.w3.org/2000/svg" xmlns:xlink="http://www.w3.org/1999/xlink" version="1.1">
<metadata>
Created by FontForge 20170731 at Thu Jun  8 06:37:02 2017
 By Aleksey,,,
Copyright (c) 2008 by TypeTogether. All rights reserved.
</metadata>
<defs>
<font id="Athelas-Bold" horiz-adv-x="689" >
  <font-face 
    font-family="Athelas"
    font-weight="700"
    font-stretch="normal"
    units-per-em="1000"
    panose-1="2 0 8 3 7 0 0 2 0 3"
    ascent="800"
    descent="-200"
    x-height="429"
    cap-height="655"
    bbox="-500 -434 1691 1139"
    underline-thickness="50"
    underline-position="-200"
    unicode-range="U+000D-FE48"
  />
<missing-glyph horiz-adv-x="500" 
 />
    <glyph glyph-name="ff" unicode="ff" horiz-adv-x="641" 
d="M397 379h-185v-317q0 -15 12.5 -22t43.5 -13q4 -1 7.5 -3.5t3.5 -9.5q0 -9 -2 -19q-26 2 -55 3.5t-68 1.5q-35 0 -58.5 -1.5t-49.5 -3.5q-2 4 -2 9v10q0 11 11 13q29 6 36.5 12.5t7.5 21.5v318h-60v26q0 8 3.5 11t8.5 3q24 0 36 5.5t12 28.5v10q0 51 18 91t48 67.5
t69 41.5t81 14q41 0 75 -12.5t57 -30.5q27 32 64 49t77 17q37 0 66 -7.5t48.5 -19t29.5 -26.5t10 -30q0 -8 -11.5 -15.5t-26 -13t-28 -9t-18.5 -3.5q-9 0 -14 3t-8 13q-8 26 -23 45.5t-44 19.5q-32 0 -45.5 -24t-13.5 -84v-120h118q0 -28 -3 -39t-17 -11h-98v-297
q0 -12 2.5 -20.5t11.5 -14.5t28 -10.5t52 -8.5q13 -2 13 -14q0 -4 -0.5 -10.5t-1.5 -10.5q-25 2 -65.5 4.5t-79.5 2.5q-35 0 -67.5 -1.5t-58.5 -3.5q-2 10 -2 19q0 11 11 13q28 6 36 12.5t8 21.5v318zM212 429h185v56q0 19 2 35.5t6 32.5q-18 33 -49.5 56.5t-66.5 23.5
q-39 0 -58 -27t-19 -99v-78z" />
    <glyph glyph-name="fi" unicode="fi" horiz-adv-x="593" 
d="M212 62q0 -15 12.5 -22t43.5 -13q4 -1 7.5 -3.5t3.5 -9.5q0 -9 -2 -19q-26 2 -55 3.5t-68 1.5q-35 0 -58.5 -1.5t-49.5 -3.5q-2 4 -2 9v10q0 11 11 13q29 6 36.5 12.5t7.5 21.5v318h-60v26q0 8 3.5 11t8.5 3q24 0 36 5.5t12 28.5v27q0 52 18 92.5t48 69t69 43.5t81 15
q104 0 159 -46q11 -9 15.5 -19.5t4.5 -17.5t-10 -15t-24 -14.5t-28.5 -11t-23.5 -4.5q-8 0 -13 5.5t-9 10.5q-18 32 -41 50t-56 18q-35 0 -56 -28t-21 -103v-96h170q25 0 40.5 1t27 2.5t21 3t21.5 1.5q17 0 17 -15q0 -11 -3 -29t-3 -50v-281q0 -15 12.5 -22t43.5 -13
q4 -1 7.5 -3.5t3.5 -9.5q0 -9 -2 -19q-26 2 -55 3.5t-68 1.5t-67 -1.5t-53 -3.5q-2 4 -2 9v10q0 11 11 13q32 6 44 13t12 22v264q0 30 -10.5 41.5t-47.5 11.5h-120v-317z" />
    <glyph glyph-name="fl" unicode="fl" horiz-adv-x="602" 
d="M212 429h118q0 -29 -3 -39.5t-17 -10.5h-98v-317q0 -15 12.5 -22t43.5 -13q4 -1 7.5 -3.5t3.5 -9.5q0 -9 -2 -19q-26 2 -55 3.5t-68 1.5q-35 0 -58.5 -1.5t-49.5 -3.5q-2 4 -2 9v10q0 11 11 13q29 6 36.5 12.5t7.5 21.5v318h-60v26q0 8 3.5 11t8.5 3q24 0 36 5.5t12 28.5
v27q0 52 18 92.5t48 69t69 43.5t81 15q40 0 69.5 -7.5t53.5 -21.5q23 7 39.5 18t24.5 11q17 0 17 -15q0 -11 -3 -28.5t-3 -49.5v-545q0 -15 12 -22t44 -13q4 -1 7.5 -3.5t3.5 -9.5q0 -6 -0.5 -10.5t-1.5 -8.5q-27 2 -60 3.5t-62 1.5q-32 0 -64 -1.5t-57 -3.5q-2 5 -2 19
q0 11 11 13q32 6 44 13t12 22v523q-15 29 -43.5 50t-61.5 21q-44 0 -63.5 -28t-19.5 -103v-96z" />
    <glyph glyph-name=".notdef" horiz-adv-x="500" 
 />
    <glyph glyph-name=".null" horiz-adv-x="0" 
 />
    <glyph glyph-name="nonmarkingreturn" unicode="&#xd;" horiz-adv-x="500" 
 />
    <glyph glyph-name="space" unicode=" " horiz-adv-x="210" 
 />
    <glyph glyph-name="exclam" unicode="!" horiz-adv-x="267" 
d="M63 655q51 12 83 12q31 0 45.5 -9.5t14.5 -26.5q0 -2 -0.5 -6t-1.5 -6q-9 -44 -17 -96.5t-14.5 -108.5t-11.5 -114t-8 -112q-5 -1 -9.5 -1.5t-8.5 -0.5q-17 0 -20.5 5.5t-4.5 11.5zM60 63q0 32 21.5 54t52.5 22q30 0 51.5 -22t21.5 -54q0 -31 -21.5 -53t-51.5 -22
q-31 0 -52.5 22t-21.5 53z" />
    <glyph glyph-name="quotedbl" unicode="&#x22;" horiz-adv-x="338" 
d="M44 657q16 15 31 21t29 6q20 0 32.5 -10.5t12.5 -26.5q0 -4 -2 -12q-6 -21 -11 -38t-9.5 -35t-8 -39t-7.5 -49q-11 -3 -16 -3q-11 0 -15 4.5t-6 10.5zM189 657q16 15 31 21t29 6q20 0 32.5 -10.5t12.5 -26.5q0 -4 -2 -12q-6 -21 -11 -38t-9.5 -35t-8 -39t-7.5 -49
q-11 -3 -16 -3q-11 0 -15 4.5t-6 10.5z" />
    <glyph glyph-name="numbersign" unicode="#" horiz-adv-x="555" 
d="M83 289q-3 18 -3 31q0 19 5 25.5t13 6.5h93l29 109q35 -1 46.5 -8t11.5 -17q0 -4 -1 -7l-20 -77h106l29 109q35 -1 46.5 -8t11.5 -17q0 -4 -1 -7l-20 -77h79q2 -9 2 -17v-14q0 -19 -4.5 -25.5t-12.5 -6.5h-81l-32 -120h92q2 -9 2 -17v-14q0 -19 -4.5 -25.5t-12.5 -6.5
h-94l-32 -118q-35 3 -46.5 10t-11.5 15q0 4 1 6l23 87h-106l-32 -118q-35 3 -46.5 10t-11.5 15q0 4 1 6l23 87h-78q-3 18 -3 31q0 19 5 25.5t13 6.5h80l32 120h-91zM208 169h106l32 120h-106z" />
    <glyph glyph-name="dollar" unicode="$" horiz-adv-x="535" 
d="M468 466q-9 -3 -19 -3q-14 0 -20 5.5t-8 11.5q-20 51 -51.5 76t-81.5 30v-197q34 -13 69 -28.5t63 -38t45.5 -54.5t17.5 -80q0 -33 -13.5 -63.5t-38.5 -55t-61 -40.5t-82 -20v-60q-8 -2 -14 -2h-11q-15 0 -21 4.5t-6 12.5v44q-57 3 -98.5 16.5t-71.5 29.5
q-3 43 -9.5 84.5t-14.5 80.5q10 4 21 4q12 0 18 -4.5t10 -15.5q12 -35 25 -60.5t30 -43t39 -27t51 -12.5v222q-32 10 -62.5 22.5t-55.5 31.5t-40 47.5t-15 72.5q0 36 12 67t34.5 55t54.5 39.5t72 20.5v58q8 2 14 2h11q15 0 21 -4.5t6 -12.5v-42q37 -2 76 -10.5t87 -27.5
q2 -30 6.5 -67.5t10.5 -67.5zM376 154q0 45 -25 69t-63 40v-203q45 6 66.5 32t21.5 62zM153 502q0 -35 23.5 -55.5t59.5 -36.5v175q-35 -6 -59 -26t-24 -57z" />
    <glyph glyph-name="percent" unicode="%" horiz-adv-x="822" 
d="M20 465q0 86 42 135.5t115 49.5q74 0 116 -49.5t42 -135.5q0 -85 -42 -134.5t-116 -49.5q-73 0 -115 49.5t-42 134.5zM457 172q0 86 42 135t115 49q74 0 116 -49t42 -135t-42 -135t-116 -49q-73 0 -115 49t-42 135zM571 654q28 -10 37.5 -19t9.5 -17q0 -6 -3 -10
l-402 -620q-27 11 -37 19.5t-10 16.5q0 5 4 10zM125 474q0 -74 13 -115t39 -41q23 0 37.5 34t14.5 108q0 153 -52 153q-22 0 -37 -31t-15 -108zM562 180q0 -74 13 -115t39 -41q23 0 37.5 34.5t14.5 107.5q0 154 -52 154q-22 0 -37 -31t-15 -109z" />
    <glyph glyph-name="ampersand" unicode="&#x26;" horiz-adv-x="760" 
d="M745 12q0 -9 -3 -19q-8 1 -30 1.5t-48 1t-50.5 0.5h-36.5q-24 0 -51 20t-73 64q-42 -42 -92.5 -67t-119.5 -25q-42 0 -78 9t-62.5 28.5t-41 49.5t-14.5 71q0 34 12 62t32.5 51t46.5 42t54 34q-27 27 -44.5 49t-28 41.5t-15 37t-4.5 34.5q0 29 12.5 54t34.5 43.5t52.5 29
t66.5 10.5q75 0 114.5 -35t39.5 -86q0 -42 -27.5 -82t-72.5 -67q51 -52 93.5 -93t76.5 -73q17 25 31.5 50.5t25 49t16 43t5.5 31.5q0 9 -8.5 15.5t-32.5 12.5q-8 2 -10.5 4.5t-2.5 10.5t3 17q20 -2 47 -2.5t50 -0.5q21 0 42 0.5t39 2.5q1 -5 2 -11t1 -8q0 -12 -13 -14
q-12 -3 -20.5 -5t-15.5 -7t-13 -13.5t-13 -23.5q-21 -45 -45.5 -92.5t-54.5 -91.5q37 -35 65 -59t48.5 -39t35 -23t25.5 -11q5 -2 14.5 -4t21.5 -4q14 -1 14 -14zM216 305q-27 -27 -44 -60.5t-17 -78.5q0 -29 10.5 -50t27 -34.5t38 -19.5t44.5 -6q20 0 37.5 2.5t34.5 8.5
t34 17t36 28q-39 34 -88.5 81t-112.5 112zM286 394q21 26 31.5 54.5t10.5 52.5q0 42 -18.5 64t-48.5 22q-27 0 -42 -18.5t-15 -44.5q0 -30 20.5 -61t61.5 -69z" />
    <glyph glyph-name="quotesingle" unicode="'" horiz-adv-x="193" 
d="M44 657q16 15 31 21t29 6q20 0 32.5 -10.5t12.5 -26.5q0 -4 -2 -12q-6 -21 -11 -39t-9 -36.5t-8 -40t-8 -49.5q-11 -3 -16 -3q-11 0 -15 4.5t-6 10.5z" />
    <glyph glyph-name="parenleft" unicode="(" horiz-adv-x="291" 
d="M263 -131q3 -5 3 -8q0 -11 -16 -22q-45 33 -83.5 75t-66 92.5t-43.5 109t-16 125.5q0 72 16.5 133.5t44.5 113t66 95t82 79.5q16 -11 16 -20q0 -5 -3 -8q-62 -75 -86.5 -164t-24.5 -190q0 -60 5 -113.5t18 -103.5t34.5 -98t53.5 -96z" />
    <glyph glyph-name="parenright" unicode=")" horiz-adv-x="298" 
d="M33 632q-2 4 -2 8q0 11 16 22q45 -33 83.5 -75t66 -92.5t43.5 -109.5t16 -125q0 -72 -16.5 -133.5t-44.5 -113t-66.5 -95t-81.5 -79.5q-10 5 -13.5 10t-3.5 10t3 8q63 74 87.5 163t24.5 191q0 60 -5.5 113t-18.5 103t-34.5 98t-53.5 97z" />
    <glyph glyph-name="asterisk" unicode="*" horiz-adv-x="393" 
d="M193 528q-2 30 -8.5 58.5t-15.5 57.5l8 10l55 4q30 0 30 -21q0 -11 -9 -34t-35 -73q-3 -4 -14 -4q-5 0 -11 2zM200 478q2 -20 6 -45t18 -70l-8 -11l-45 -3h-10q-30 0 -30 20q0 15 11.5 40.5t33.5 66.5q2 5 13 5q6 0 11 -3zM214 519q20 11 40 29.5t48 48.5l14 -2l25 -38
q12 -18 12 -29q0 -17 -30 -22t-95 -8q-5 0 -9.5 6t-4.5 15zM173 513q-26 14 -55 21.5t-56 14.5l-5 13l20 41q13 27 27 27q5 0 11.5 -4t15.5 -15t21.5 -29.5t30.5 -47.5q1 -1 1 -4q0 -4 -2.5 -9t-8.5 -8zM218 495q17 -9 43 -17.5t68 -18.5l5 -13l-20 -41q-14 -27 -26 -27
q-14 0 -32 24t-49 72q0 1 -0.5 1.5t-0.5 1.5q0 5 3 10t9 8zM178 488q-27 -17 -45 -34t-43 -44l-13 2l-25 38q-12 18 -12 29q0 17 29.5 21.5t94.5 7.5h1q4 0 8.5 -5.5t4.5 -13.5v-1z" />
    <glyph glyph-name="plus" unicode="+" horiz-adv-x="494" 
d="M38 182q-3 19 -3 32q0 20 5 27t13 7h156v171q18 3 32 3q19 0 26.5 -5t7.5 -13v-156h180q3 -20 3 -32q0 -19 -5 -26.5t-13 -7.5h-165v-180q-9 -2 -17 -2h-14q-20 0 -27.5 4.5t-7.5 12.5v165h-171z" />
    <glyph glyph-name="comma" unicode="," horiz-adv-x="223" 
d="M60 -149q-20 14 -20 29q0 9 7 15q27 27 38 47.5t11 37.5q0 22 -14 35.5t-31 21.5q-16 6 -16 28q0 20 16 42.5t51 39.5q34 -18 60 -49t26 -73q0 -38 -28.5 -82t-99.5 -92z" />
    <glyph glyph-name="hyphen" unicode="-" horiz-adv-x="316" 
d="M274 268q3 -18 3 -31q0 -45 -24 -45h-199q-2 9 -3 22t-1 19q0 20 7 27.5t18 7.5h199z" />
    <glyph glyph-name="period" unicode="." horiz-adv-x="232" 
d="M45 63q0 32 21.5 54t52.5 22q30 0 51.5 -22t21.5 -54q0 -31 -21.5 -53t-51.5 -22q-31 0 -52.5 22t-21.5 53z" />
    <glyph glyph-name="slash" unicode="/" horiz-adv-x="337" 
d="M105 -46q-38 3 -49.5 9.5t-11.5 15.5q0 4 1 7l187 692q38 -3 49.5 -9.5t11.5 -15.5q0 -4 -1 -7z" />
    <glyph glyph-name="zero" unicode="0" horiz-adv-x="539" 
d="M270 -12q-57 0 -102.5 17.5t-76.5 49.5t-47.5 76.5t-16.5 98.5q0 51 17.5 96t49.5 78t76.5 52.5t99.5 19.5q54 0 99 -18.5t77 -51t49.5 -77.5t17.5 -99q0 -51 -16.5 -95t-47.5 -77t-76.5 -51.5t-102.5 -18.5zM160 230q0 -50 9 -86t24.5 -59t36 -34t42.5 -11
q20 0 39.5 10.5t34.5 33.5t24.5 59t9.5 87t-9 87.5t-24.5 60.5t-35.5 35t-41 11t-41 -11t-35.5 -34t-24.5 -60t-9 -89z" />
    <glyph glyph-name="one" unicode="1" horiz-adv-x="324" 
d="M38 467q25 -3 55 -4t69 -1t68.5 1.5t55.5 4.5q1 -5 1.5 -10t0.5 -9q0 -8 -3.5 -10.5t-7.5 -3.5q-35 -5 -45.5 -13t-10.5 -22v-338q0 -15 12.5 -22t43.5 -13q4 -1 7.5 -3.5t3.5 -9.5q0 -9 -2 -19q-26 2 -56 3.5t-69 1.5t-68 -2t-54 -4q-2 4 -2.5 9.5t-0.5 10.5q0 11 11 13
q32 6 44 13t12 22v338q0 14 -13 21.5t-43 12.5q-5 1 -8 3.5t-3 10.5v9t2 10z" />
    <glyph glyph-name="two" unicode="2" horiz-adv-x="420" 
d="M65 355q-8 -6 -13 -6q-6 0 -13.5 4t-12.5 12q18 23 40.5 43t48 35t53 24t56.5 9q74 0 109.5 -35t35.5 -93q0 -29 -10 -55.5t-35.5 -57t-69 -68t-110.5 -87.5h147q21 0 34 6.5t24 32.5q5 11 16 11q4 0 14 -2q2 0 4.5 -0.5t5.5 -0.5q-9 -27 -17 -58.5t-13 -60.5
q-2 -8 -5 -10t-10 -2q-18 0 -45 2t-59 2h-214v31q60 55 99.5 96.5t63.5 74.5t33.5 60.5t9.5 53.5q0 41 -17.5 62.5t-49.5 21.5q-24 0 -44.5 -9.5t-55.5 -35.5z" />
    <glyph glyph-name="three" unicode="3" horiz-adv-x="416" 
d="M77 182q48 24 79 43.5t48.5 37.5t24.5 37t7 42q0 29 -19.5 45.5t-48.5 16.5q-13 0 -24 -2t-22.5 -6.5t-24.5 -12t-29 -18.5q-4 -2 -7 -4t-8 -2t-12 4t-12 12q48 51 92 76t100 25q58 0 96.5 -27t38.5 -83q0 -25 -9 -46t-24 -39t-35 -32t-42 -26v-2q65 -12 99.5 -48.5
t34.5 -90.5q0 -43 -22.5 -83.5t-67 -75.5t-111.5 -62.5t-156 -44.5q-5 5 -7 12.5t-2 12.5q0 9 9 12q70 24 113 49.5t67 52.5t32.5 54t8.5 54q0 45 -21.5 71t-65.5 26q-34 0 -80 -18v40z" />
    <glyph glyph-name="four" unicode="4" horiz-adv-x="507" 
d="M472 80v-80h-72v-170h-118v170h-276q-1 8 -1.5 18.5t-0.5 13.5t1.5 8.5t6.5 10.5l321 413q2 3 5 5t9 2h53v-391h72zM282 319l-187 -239h187v239z" />
    <glyph glyph-name="five" unicode="5" horiz-adv-x="411" 
d="M356 410q-1 -36 -33 -36h-196l-16 -135q22 8 48 12.5t52 4.5q35 0 65 -10.5t52 -30.5t34.5 -49t12.5 -66q0 -93 -86.5 -162t-260.5 -122q-4 5 -7 13.5t-3 13.5q0 7 9 12q68 30 109.5 60.5t64.5 60.5t31 58.5t8 54.5q0 48 -25.5 74t-73.5 26q-20 0 -41.5 -3.5t-48.5 -11.5
l25 288h283z" />
    <glyph glyph-name="six" unicode="6" horiz-adv-x="476" 
d="M175 342q25 18 51.5 27.5t57.5 9.5q36 0 67 -10t54 -32.5t36 -57.5t13 -84q0 -36 -14 -72.5t-41.5 -66.5t-67 -49t-90.5 -19q-65 0 -106 20.5t-65 53t-33 73.5t-9 82q0 58 22.5 117t67 115t111 106.5t154.5 89.5q11 -16 11 -27q0 -9 -9 -15q-45 -32 -79.5 -63t-60 -62.5
t-43 -65t-27.5 -70.5zM245 317q-27 0 -43.5 -10t-24.5 -27t-10.5 -39t-2.5 -46q0 -160 77 -160q39 0 61 33t22 114q0 74 -20.5 104.5t-58.5 30.5z" />
    <glyph glyph-name="seven" unicode="7" horiz-adv-x="428" 
d="M125 374q-20 0 -34 -14t-25 -40q-5 -11 -17 -11q-3 0 -13.5 1t-15.5 3q13 42 20.5 76t12.5 65q2 9 5.5 10.5t10.5 1.5q24 0 49.5 -2t57.5 -2h242v-31q-48 -98 -79 -171t-49 -137t-27 -127t-13 -142q0 -9 -12 -16t-29 -11.5t-36 -6.5t-33 -2t-21.5 2t-7.5 13q0 5 0.5 8
t0.5 7q7 52 23 108t43 120t66.5 137.5t93.5 160.5h-213z" />
    <glyph glyph-name="eight" unicode="8" horiz-adv-x="490" 
d="M328 354q65 -46 98 -90t33 -98q0 -44 -19.5 -77.5t-50.5 -56t-70.5 -33.5t-79.5 -11q-95 0 -151.5 38t-56.5 121q0 56 39.5 99.5t100.5 72.5q-65 41 -89 82t-24 78q0 27 9.5 55t31.5 50t57.5 36t86.5 14q50 0 86 -10.5t59 -28.5t34 -42.5t11 -52.5q0 -51 -30 -87t-75 -59
zM211 291q-17 -12 -27 -27.5t-16 -32.5t-8 -33.5t-2 -31.5q0 -37 7 -62t19.5 -40t28.5 -21t34 -6q35 0 58.5 26.5t23.5 72.5q0 18 -3.5 35t-15.5 35t-35.5 38.5t-63.5 46.5zM286 380q17 19 24 47t7 58q0 47 -21.5 74.5t-55.5 27.5q-27 0 -46.5 -18.5t-19.5 -58.5
q0 -31 26 -63t86 -67z" />
    <glyph glyph-name="nine" unicode="9" horiz-adv-x="476" 
d="M302 122q-44 -37 -109 -37q-36 0 -67 10t-54 32.5t-36 57t-13 84.5q0 39 14.5 76t41.5 66t66.5 47t90.5 18q65 0 106.5 -20.5t65.5 -53t33.5 -73.5t9.5 -82q0 -58 -18 -119.5t-58 -119t-102.5 -107t-150.5 -82.5q-11 16 -11 27q0 7 9 15q45 34 74.5 62.5t50 57.5t33.5 63
t24 78zM233 147q27 0 43 10t24 26.5t10.5 39t2.5 46.5q0 160 -77 160q-39 0 -61 -33t-22 -114q0 -74 20.5 -104.5t59.5 -30.5z" />
    <glyph glyph-name="colon" unicode=":" horiz-adv-x="232" 
d="M45 365q0 32 21.5 54t52.5 22q30 0 51.5 -22t21.5 -54q0 -31 -21.5 -53t-51.5 -22q-31 0 -52.5 22t-21.5 53zM45 63q0 32 21.5 54t52.5 22q30 0 51.5 -22t21.5 -54q0 -31 -21.5 -53t-51.5 -22q-31 0 -52.5 22t-21.5 53z" />
    <glyph glyph-name="semicolon" unicode=";" horiz-adv-x="223" 
d="M60 -149q-20 14 -20 29q0 9 7 15q27 27 38 47.5t11 37.5q0 22 -14 35.5t-31 21.5q-16 6 -16 28q0 20 16 42.5t51 39.5q34 -18 60 -49t26 -73q0 -38 -28.5 -82t-99.5 -92zM40 365q0 32 21.5 54t52.5 22q30 0 51.5 -22t21.5 -54q0 -31 -21.5 -53t-51.5 -22q-31 0 -52.5 22
t-21.5 53z" />
    <glyph glyph-name="less" unicode="&#x3c;" horiz-adv-x="494" 
d="M417 431q21 -29 21 -51q0 -6 -2 -10t-9 -8l-280 -147l294 -166q-7 -32 -15.5 -44t-16.5 -12q-5 0 -11 4l-342 198q-2 7 -3 14t-1 11q0 6 2 9t6 5z" />
    <glyph glyph-name="equal" unicode="=" horiz-adv-x="494" 
d="M38 99q-2 10 -2 17.5v14.5q0 35 17 35h402q3 -20 3 -32q0 -35 -18 -35h-402zM38 285q-2 10 -2 17.5v14.5q0 35 17 35h402q3 -20 3 -32q0 -35 -18 -35h-402z" />
    <glyph glyph-name="greater" unicode="&#x3e;" horiz-adv-x="494" 
d="M433 232q3 -2 5.5 -5t2.5 -9q0 -4 -1 -10.5t-3 -12.5l-343 -199q-3 -3 -8 -3q-8 0 -17 11t-17 43l294 165l-285 153q-6 4 -6 15q0 22 21 51z" />
    <glyph glyph-name="question" unicode="?" horiz-adv-x="378" 
d="M347 512q0 -30 -11 -53t-28 -41t-36.5 -33.5t-36.5 -30t-28 -30.5t-11 -36q0 -39 17 -89q3 -9 3 -12q0 -8 -7 -14.5t-28 -12.5q-84 94 -84 153q0 28 12 50t29.5 40t38 34t38 32t29.5 32.5t12 36.5q0 35 -18.5 54t-43.5 19q-21 0 -35 -15t-23 -43q-3 -14 -21 -14
q-11 0 -25.5 2t-27 5.5t-21 9t-8.5 12.5q0 17 10 33.5t29 29.5t46.5 21t63.5 8q41 0 72 -14t51.5 -35.5t31 -47.5t10.5 -51zM118 60q0 30 20.5 51t50.5 21q29 0 49.5 -21t20.5 -51q0 -31 -20.5 -52t-49.5 -21q-30 0 -50.5 21t-20.5 52z" />
    <glyph glyph-name="at" unicode="@" horiz-adv-x="838" 
d="M548 0q-39 0 -56 14t-17 49q0 34 15 97h-4q-21 -50 -43.5 -83t-45.5 -52.5t-47.5 -28t-48.5 -8.5q-16 0 -31.5 4.5t-27.5 15t-19 29t-7 47.5q0 85 25.5 151.5t65 112.5t88 70t94.5 24q38 0 71 -3.5t68 -9.5l-69 -351q-2 -4 -1.5 -7t0.5 -5q0 -14 5.5 -18t13.5 -4
q26 0 53 22.5t48.5 61.5t35.5 91t14 110t-22 104t-59.5 78.5t-86.5 50t-104 17.5q-71 0 -133.5 -29.5t-109 -82t-73.5 -125.5t-27 -160q0 -69 26.5 -129t71 -105t104 -71t125.5 -26q119 0 214 47q3 2 6 3t8 1q6 0 13.5 -4.5t16.5 -16.5q-49 -36 -118 -55.5t-143 -19.5
q-86 0 -156 29t-120.5 80.5t-78 122.5t-27.5 155q0 90 32.5 168t88.5 135.5t131.5 90.5t161.5 33q70 0 127.5 -21.5t99 -61t64.5 -94.5t23 -122q0 -49 -13 -105t-41 -104t-73 -80t-108 -32zM519 384q-24 9 -44 9q-37 0 -65.5 -19t-47.5 -54.5t-28.5 -86t-9.5 -112.5
q0 -26 7.5 -41t19.5 -15q18 0 37 17t38 45t35.5 63t29.5 70.5t20.5 68t7.5 55.5z" />
    <glyph glyph-name="A" unicode="A" 
d="M415 220h-210l-52 -139q-3 -5 -4 -11t-1 -9q0 -11 10.5 -18t42.5 -12q14 -2 14 -19q0 -7 -2 -17q-27 2 -57 3.5t-59 1.5q-20 0 -42 -1t-49 -4q-2 4 -2 9v8q0 19 13 20q31 6 44.5 13t21.5 24l241 576q8 17 24 17q5 0 10 -0.5t11 -1.5l241 -594q6 -15 23 -22.5t37 -10.5
q15 -3 15 -20q0 -8 -2 -18q-32 2 -63 3.5t-58 1.5q-14 0 -34 -0.5t-41 -1.5t-41.5 -1.5t-34.5 -1.5q-2 4 -2 9v8q0 9 3.5 13.5t7.5 5.5q26 5 38.5 11.5t12.5 19.5q0 6 -3 15zM396 270l-85 225l-87 -225h172z" />
    <glyph glyph-name="B" unicode="B" horiz-adv-x="618" 
d="M394 347q42 -4 77.5 -16.5t61.5 -33t40.5 -48.5t14.5 -62q0 -46 -17.5 -81t-49 -58.5t-76.5 -35.5t-100 -12h-173q-18 0 -40.5 -0.5t-42.5 -2.5q-12 -1 -24 -1.5t-23 -0.5l-1 7q-1 3 -1 5.5v4.5q0 11 3.5 14.5t8.5 4.5q35 5 49.5 14t14.5 29v501q0 20 -13 28.5t-51 14.5
q-8 2 -10 7.5t-2 13.5v4.5t1 4.5q0 4 1 7q30 -2 67.5 -3.5t61.5 -1.5h138q64 0 106 -12.5t67 -34.5t35.5 -50.5t10.5 -59.5q0 -58 -38 -92.5t-96 -50.5v-3zM242 84q0 -23 21.5 -29.5t49.5 -6.5q69 0 103 29.5t34 95.5q0 36 -12.5 63t-33.5 44.5t-49 26.5t-59 9h-54v-232z
M258 366q39 0 65 10t41.5 27.5t22 39.5t6.5 46q0 23 -7.5 43.5t-23.5 35.5t-42 23.5t-62 8.5h-16v-234h16z" />
    <glyph glyph-name="C" unicode="C" horiz-adv-x="660" 
d="M370 -12q-84 0 -147 26t-104 71.5t-61.5 107t-20.5 132.5q0 59 20 119t63 108.5t110 79t160 30.5q51 0 95.5 -7t96.5 -21q2 -27 8 -69t17 -82q-5 -1 -13 -2.5t-12 -1.5q-8 0 -13.5 2.5t-7.5 10.5q-11 33 -25 55.5t-33.5 36t-45.5 19.5t-61 6q-54 0 -95.5 -18.5t-69.5 -53
t-42.5 -83t-14.5 -109.5q0 -65 17.5 -121t48 -97t72.5 -64t91 -23q40 0 68.5 7.5t49 23t35 39.5t26.5 56q3 8 9.5 11.5t13.5 3.5q5 0 12.5 -1.5t12.5 -3.5q-6 -17 -12.5 -38.5t-13.5 -44t-12.5 -45t-9.5 -43.5q-49 -9 -100 -13t-112 -4z" />
    <glyph glyph-name="D" unicode="D" horiz-adv-x="757" 
d="M716 325q0 -59 -20 -117t-62 -104.5t-107 -75t-154 -28.5h-205q-26 0 -60.5 -1.5t-65.5 -3.5q-2 4 -2 9v8q0 11 3.5 14.5t8.5 4.5q29 5 46.5 13.5t17.5 29.5v501q0 20 -14.5 28.5t-49.5 14.5q-8 2 -10 6.5t-2 12.5v8t2 10q21 -2 37.5 -2.5t30.5 -1.5t28 -1h29h203
q85 0 149.5 -26t108 -70t66 -103t22.5 -126zM578 306q0 78 -18 134t-52.5 91.5t-86 52t-117.5 16.5h-62v-514q0 -10 3 -17t12 -11t25 -6t43 -2q130 0 191.5 69t61.5 187z" />
    <glyph glyph-name="E" unicode="E" horiz-adv-x="607" 
d="M247 600v-241h141q19 0 26 15.5t12 50.5q1 8 6 10.5t13 2.5q3 0 9.5 -0.5t9.5 -1.5q-2 -23 -3.5 -53.5t-1.5 -51.5q0 -18 1 -42.5t4 -55.5q-3 -2 -9.5 -2.5t-9.5 -0.5q-18 0 -19 14q-6 38 -13.5 51.5t-24.5 13.5h-141v-224q0 -21 26 -28t88 -7h42q30 0 50.5 8t36.5 22.5
t28 34t24 43.5q3 7 14 7q5 0 12 -3l14 -6q-2 -8 -4.5 -15t-4.5 -14q-5 -11 -8 -24t-6 -21l-4.5 -22.5t-5 -24t-5 -20.5t-3.5 -12q-4 -8 -16 -8q-8 0 -23 1t-32.5 1.5t-35.5 1.5t-31 1h-227q-29 0 -66.5 -1.5t-67.5 -3.5q-2 4 -2 10.5v9.5q0 15 10 16q38 7 54.5 15t16.5 28
v501q0 10 -3 16.5t-11.5 11t-22 8t-34.5 7.5q-10 3 -10 18v9.5t2 9.5q43 -3 76 -4t57 -1h205q45 0 77.5 3t44.5 3q11 0 16 -9q3 -8 5 -29.5t7 -44.5q3 -17 7 -33t12 -39q-5 -2 -11 -4t-12 -2q-11 0 -16 9q-12 26 -23.5 44.5t-26 30t-34 16.5t-46.5 5h-133z" />
    <glyph glyph-name="F" unicode="F" horiz-adv-x="573" 
d="M121 575q0 9 -2.5 15.5t-10.5 11.5t-22 8.5t-36 7.5q-10 3 -10 18v9.5t2 9.5q43 -3 76 -4t56 -1h205q46 0 78.5 3t43.5 3t16 -9q3 -8 5 -29.5t7 -44.5q3 -17 7 -33t12 -39q-4 -2 -10.5 -4t-12.5 -2q-11 0 -15 9q-12 26 -23.5 44.5t-26 30t-34 16.5t-47.5 5h-132v-253h138
q17 0 24.5 16.5t12.5 49.5q3 13 19 13q3 0 9.5 -0.5t9.5 -1.5q-2 -23 -3.5 -53.5t-1.5 -51.5q0 -18 1 -42.5t4 -55.5q-3 -2 -9 -2.5t-9 -0.5q-17 0 -20 14q-4 32 -12 48.5t-25 16.5h-138v-224q0 -10 7 -16.5t19 -11t28 -7t34 -5.5q12 -1 12 -17q0 -3 -0.5 -10t-1.5 -11
q-14 0 -28 0.5t-28 1.5q-26 2 -55.5 2.5t-58.5 0.5q-14 0 -30.5 -0.5t-34.5 -1.5t-35.5 -1.5t-32.5 -1.5q-2 4 -2 10.5v9.5q0 15 10 16q33 8 52 15.5t19 27.5v501z" />
    <glyph glyph-name="G" unicode="G" horiz-adv-x="704" 
d="M582 5q-24 -4 -45 -7t-43.5 -5.5t-49 -3.5t-61.5 -1q-90 0 -155.5 24t-107.5 68.5t-62.5 106.5t-20.5 138q0 59 20 119t61.5 108.5t104 79t146.5 30.5q58 0 118.5 -8.5t114.5 -22.5q2 -27 8 -69t17 -82q-5 -1 -12 -2.5t-11 -1.5q-8 0 -13.5 2.5t-7.5 10.5
q-21 69 -69 94.5t-119 25.5q-54 0 -95.5 -18.5t-69 -53t-42 -83t-14.5 -109.5q0 -67 16 -123t47 -96.5t76.5 -63t104.5 -22.5q21 0 37.5 2t34.5 7v144q0 27 -15 37.5t-53 15.5q-8 2 -11 8.5t-3 12.5q0 3 0.5 9t1.5 9q15 -1 33.5 -2t38 -1.5t37.5 -1t31 -0.5t30.5 0.5t36 1
t36 1.5t29.5 2q2 -5 2 -10v-8q0 -9 -3.5 -13.5t-8.5 -6.5q-32 -4 -44.5 -13t-12.5 -30v-174q0 -9 -5 -15t-28 -10z" />
    <glyph glyph-name="H" unicode="H" horiz-adv-x="746" 
d="M634 74q0 -10 1.5 -16.5t8 -11.5t19 -8.5t33.5 -6.5q10 -2 10 -17q0 -3 -0.5 -9t-1.5 -10q-32 2 -68 3.5t-64 1.5q-29 0 -65.5 -1.5t-68.5 -3.5q-2 4 -2 10v9q0 16 10 17q21 3 33.5 6.5t18.5 8.5t8 11.5t2 16.5v235h-270v-235q0 -10 1.5 -16.5t8 -11.5t19 -8.5t33.5 -6.5
q10 -2 10 -17q0 -3 -0.5 -9t-1.5 -10q-32 2 -69 3.5t-65 1.5t-64 -1.5t-68 -3.5q-2 4 -2 10v9q0 16 10 17q21 3 33.5 6.5t18.5 8.5t8 11.5t2 16.5v501q0 10 -2 16.5t-8 11.5t-18.5 8.5t-33.5 6.5q-10 3 -10 17v9t2 11q32 -2 68 -3.5t64 -1.5t65 1.5t69 3.5q1 -5 1.5 -11
t0.5 -9q0 -14 -10 -17q-21 -3 -33.5 -6.5t-19 -8.5t-8 -11.5t-1.5 -16.5v-213h270v213q0 10 -2 16.5t-8 11.5t-18.5 8.5t-33.5 6.5q-10 3 -10 17v9t2 11q32 -2 68.5 -3.5t65.5 -1.5q28 0 64 1.5t68 3.5q1 -5 1.5 -11t0.5 -9q0 -14 -10 -17q-21 -3 -33.5 -6.5t-19 -8.5
t-8 -11.5t-1.5 -16.5v-501z" />
    <glyph glyph-name="I" unicode="I" horiz-adv-x="350" 
d="M238 74q0 -10 1.5 -16.5t8 -11.5t19 -8.5t33.5 -6.5q10 -2 10 -17q0 -3 -0.5 -9t-1.5 -10q-32 2 -68.5 3.5t-64.5 1.5q-29 0 -65 -1.5t-68 -3.5q-2 4 -2 10v9q0 16 10 17q21 3 33.5 6.5t18.5 8.5t8 11.5t2 16.5v501q0 10 -2 16.5t-8 11.5t-18.5 8.5t-33.5 6.5
q-10 3 -10 17v9t2 11q32 -2 68 -3.5t65 -1.5q28 0 64.5 1.5t68.5 3.5q1 -5 1.5 -11t0.5 -9q0 -14 -10 -17q-21 -3 -33.5 -6.5t-19 -8.5t-8 -11.5t-1.5 -16.5v-501z" />
    <glyph glyph-name="J" unicode="J" horiz-adv-x="354" 
d="M116 575q0 10 -2 16.5t-8 11.5t-18.5 8.5t-33.5 6.5q-10 3 -10 17v9t2 11q32 -2 68.5 -3.5t65.5 -1.5q28 0 64 1.5t68 3.5q1 -5 1.5 -11t0.5 -9q0 -14 -10 -17q-21 -3 -33.5 -6.5t-19 -8.5t-8 -11.5t-1.5 -16.5v-433q0 -70 -9.5 -119.5t-32.5 -89.5t-63.5 -75.5
t-101.5 -77.5q-8 7 -13.5 13t-5.5 12q0 8 5 13q28 27 46 52t29 51.5t15.5 56t4.5 64.5v533z" />
    <glyph glyph-name="K" unicode="K" horiz-adv-x="677" 
d="M238 327v-253q0 -10 1 -16.5t6.5 -11.5t16 -8.5t29.5 -6.5q11 -2 11 -15q0 -3 -0.5 -10t-1.5 -11q-32 2 -65 3.5t-61 1.5t-64 -1.5t-68 -3.5q-2 4 -2 10.5v9.5q0 15 10 16q21 3 33.5 6.5t18.5 8.5t8 11.5t2 16.5v501q0 10 -2 16.5t-8 11.5t-18.5 8.5t-33.5 6.5
q-10 3 -10 17v9t2 11q32 -2 68 -3.5t64 -1.5t65 1.5t69 3.5q1 -5 1.5 -11t0.5 -9q0 -14 -10 -17q-21 -3 -33.5 -6.5t-19 -8.5t-8 -11.5t-1.5 -16.5v-231l217 217q21 19 21 34q0 17 -45 22q-11 0 -11 21v7.5t2 9.5q28 -2 58.5 -3.5t54.5 -1.5q11 0 25 0.5t28.5 1t28 1.5
t23.5 2q2 -5 2 -9.5v-7.5q0 -20 -11 -22q-28 -6 -45 -13.5t-33 -23.5l-203 -197l238 -300q18 -23 36 -32.5t45 -14.5q14 -2 14 -18q0 -3 -0.5 -10.5t-2.5 -11.5q-15 1 -33.5 2t-37.5 1.5t-36.5 1t-30.5 0.5q-28 0 -68.5 -1.5t-75.5 -3.5q-1 4 -1.5 10.5t-0.5 9.5q0 16 12 16
q24 3 33.5 8t9.5 13q0 6 -3.5 11.5t-9.5 13.5z" />
    <glyph glyph-name="L" unicode="L" horiz-adv-x="570" 
d="M247 85q0 -21 27 -28t89 -7h38q25 0 43.5 5.5t32.5 18.5t25.5 33.5t22.5 49.5q3 8 15 8q5 0 12 -3l14 -6q-8 -32 -14.5 -69.5t-11.5 -73.5q-1 -12 -6.5 -15t-11.5 -3q-8 0 -22.5 1t-31.5 1.5t-34.5 1.5t-30.5 1h-227q-29 0 -66.5 -1.5t-67.5 -3.5q-2 4 -2 10.5v9.5
q0 15 10 16q38 7 54.5 15t16.5 28v501q0 10 -2 16.5t-8 11.5t-18.5 8.5t-33.5 6.5q-10 3 -10 17v9t2 11q32 -2 68 -3.5t64 -1.5q14 0 32 0.5t37.5 1t39 1.5t35.5 2q1 -5 1.5 -11t0.5 -9q0 -14 -10 -17q-43 -6 -57.5 -15.5t-14.5 -29.5v-488z" />
    <glyph glyph-name="M" unicode="M" horiz-adv-x="910" 
d="M659 631q4 9 13 14t44 5q8 0 23.5 0.5t33.5 1t36 1.5t31 2q2 -5 2 -10v-8q0 -16 -11 -19q-20 -3 -31.5 -6t-17.5 -7.5t-8 -10.5t-2 -14q0 -2 1.5 -38t4.5 -89t6 -115t6 -117.5t5 -96.5t3 -50q0 -10 2.5 -16.5t9 -11.5t18.5 -8.5t31 -6.5q11 -2 11 -19q0 -7 -2 -17
q-35 2 -63.5 3.5t-64.5 1.5q-33 0 -70.5 -1.5t-62.5 -3.5q-2 10 -2 17q0 11 3.5 15t6.5 4q41 7 53 16.5t12 29.5q0 3 -1.5 32t-3 72t-4 93t-5 94t-4 76t-2.5 39l-205 -477q-5 -9 -8.5 -13.5t-9.5 -4.5h-6t-6 1l-232 556q-1 -13 -2.5 -52.5t-4 -90.5t-5 -107.5t-4.5 -104.5
t-3.5 -80.5t-1.5 -35.5q0 -9 2 -15.5t8 -11.5t18 -8.5t33 -7.5q11 -2 11 -19q0 -3 -0.5 -7.5t-1.5 -9.5q-27 2 -50 3.5t-46 1.5q-20 0 -50 -1.5t-54 -3.5q-2 4 -2 9v8q0 11 3 14.5t8 4.5q31 7 45 16t16 27q0 8 2 48.5t5 96t6 118t5.5 116t4 89.5t1.5 38q0 17 -11 24.5
t-48 13.5q-11 1 -11 19v8t2 10q13 -1 36 -2t47 -1.5t45 -1t30 -0.5q18 0 28 -1.5t16 -3.5t8.5 -6t4.5 -8l186 -449z" />
    <glyph glyph-name="N" unicode="N" horiz-adv-x="730" 
d="M564 218v355q0 22 -15 31t-53 14q-13 3 -13 19v8t2 10q25 -3 49 -4t56 -1t55 1t46 4q1 -5 1.5 -10t0.5 -8q0 -17 -12 -19q-33 -5 -45 -14t-12 -29v-585q-4 -1 -13.5 -1.5t-12.5 -0.5q-7 0 -15 3.5t-17 14.5l-394 500v-432q0 -10 1.5 -16.5t8 -11t19 -8t33.5 -7.5
q5 -1 8.5 -4.5t3.5 -14.5q0 -7 -2 -17q-25 2 -47 3.5t-51 1.5t-55.5 -1.5t-48.5 -3.5q-2 4 -2 9v8q0 10 3.5 14t8.5 5q36 6 48 15t12 28v506q0 16 -10.5 24.5t-47.5 13.5q-12 3 -12 19v4.5t1 5.5l1 8q14 -1 27 -1.5t26 -1.5q22 -1 44.5 -1.5t36.5 -0.5q29 0 38 -2.5t16 -9.5
z" />
    <glyph glyph-name="O" unicode="O" horiz-adv-x="747" 
d="M33 325q0 70 26.5 131t72.5 107t107.5 72.5t131.5 26.5q72 0 134 -25t107.5 -70t71.5 -107t26 -135q0 -70 -26.5 -131.5t-72.5 -107t-108 -72t-132 -26.5q-72 0 -134 25t-107 70t-71 106.5t-26 135.5zM386 40q42 0 76 18.5t58.5 50.5t38 75t13.5 92q0 71 -13.5 132
t-41 105.5t-69 70t-96.5 25.5q-35 0 -68 -15.5t-58 -45t-40 -71.5t-15 -95q0 -74 14.5 -137t42 -108.5t67.5 -71t91 -25.5z" />
    <glyph glyph-name="P" unicode="P" horiz-adv-x="587" 
d="M247 273v-192q0 -23 19.5 -32.5t66.5 -15.5q14 -2 14 -20q0 -8 -2 -18q-29 2 -72.5 3.5t-94.5 1.5q-36 0 -69.5 -1.5t-62.5 -3.5q-2 4 -2 9v8q0 17 11 19q21 4 34 7.5t20 8t9.5 11t2.5 16.5v501q0 20 -14.5 29t-55.5 14q-5 2 -8 6t-3 14v9t2 8q28 -2 64.5 -3.5t65.5 -1.5
h151q107 0 167 -48t60 -134q0 -39 -15 -74.5t-44.5 -62t-71.5 -42.5t-96 -16h-76zM277 323q61 0 98.5 31t37.5 105q0 67 -29.5 104t-106.5 37h-30v-277h30z" />
    <glyph glyph-name="Q" unicode="Q" horiz-adv-x="747" 
d="M467 -3q34 -9 59 -23.5t45.5 -31t39 -33.5t40.5 -32q23 -16 38.5 -19.5t28.5 -3.5t22.5 3.5t14.5 3.5q6 0 10 -4t6 -9q-22 -25 -49.5 -40.5t-60.5 -15.5q-58 0 -99.5 24t-78 56.5t-75 66t-90.5 53.5q-64 11 -116.5 39.5t-90 72t-58 99.5t-20.5 122q0 70 26.5 131
t72.5 107t107.5 72.5t131.5 26.5q72 0 134 -25t107.5 -70t71.5 -107t26 -135q0 -56 -17 -108t-48.5 -94.5t-76.5 -74.5t-101 -47v-4zM386 40q42 0 76 18.5t58.5 50.5t38 75t13.5 92q0 71 -13.5 132t-41 105.5t-69 70t-96.5 25.5q-35 0 -68 -15.5t-58 -45t-40 -71.5t-15 -95
q0 -74 14.5 -137t42 -108.5t67.5 -71t91 -25.5z" />
    <glyph glyph-name="R" unicode="R" horiz-adv-x="694" 
d="M290 290h-43v-209q0 -23 19.5 -32.5t66.5 -15.5q14 -2 14 -20q0 -8 -2 -18q-29 2 -72.5 3.5t-94.5 1.5q-36 0 -69.5 -1.5t-62.5 -3.5q-2 4 -2 9v8q0 17 11 19q21 4 34 7.5t20 8t9.5 11t2.5 16.5v501q0 20 -14.5 29t-55.5 14q-5 2 -8 6t-3 14v9t2 8q28 -2 64.5 -3.5
t65.5 -1.5h151q53 0 95 -13t71.5 -37t45 -57t15.5 -73q0 -53 -32.5 -96.5t-89.5 -65.5l157 -229q18 -26 41.5 -36t43.5 -15q5 -1 8 -4.5t3 -12.5v-9t-2 -10q-11 1 -31 1.5t-41.5 1.5t-43 1.5t-35.5 0.5q-21 0 -42 17.5t-41 46.5zM277 340q31 0 56 6t43 20.5t27.5 38.5
t9.5 61q0 62 -30 98t-106 36h-30v-260h30z" />
    <glyph glyph-name="S" unicode="S" horiz-adv-x="535" 
d="M468 488q-9 -3 -19 -3q-14 0 -20 5.5t-8 11.5q-23 57 -59.5 82t-97.5 25q-48 0 -81.5 -23.5t-33.5 -71.5q0 -37 25.5 -59.5t64 -39.5t83 -33t83 -40t64 -61t25.5 -95q0 -38 -13 -74t-41 -63.5t-71 -44t-103 -16.5q-66 0 -118 14.5t-86 31.5q-3 43 -9.5 84.5t-14.5 80.5
q10 4 23 4q12 0 18 -4.5t10 -15.5q13 -38 29 -65.5t37 -45t48.5 -25.5t63.5 -8q31 0 53 8.5t36 22.5t21 33t7 39q0 43 -24.5 67.5t-61 41t-79 31t-79 37t-61 58t-24.5 95.5q0 40 14.5 74.5t42.5 60t67.5 40.5t90.5 15q42 0 84.5 -9t96.5 -30q2 -30 6.5 -67.5t10.5 -67.5z
" />
    <glyph glyph-name="T" unicode="T" horiz-adv-x="666" 
d="M396 600v-526q0 -10 1.5 -16.5t7.5 -11.5t17 -8.5t31 -6.5q15 -3 15 -17q0 -3 -0.5 -9t-1.5 -10q-32 2 -68.5 3.5t-64.5 1.5q-29 0 -64.5 -1.5t-67.5 -3.5q-2 4 -2.5 10t-0.5 9q0 7 2.5 11.5t13.5 6.5q37 5 46.5 13.5t9.5 28.5v526h-88q-28 0 -47.5 -5.5t-34 -17t-26 -30
t-23.5 -44.5q-4 -9 -15 -9q-6 0 -14 2.5t-12 4.5q7 24 12 42.5t8 36.5q4 23 6 41t5 26q4 9 16 9q11 0 43.5 -3t78.5 -3h308q45 0 77.5 3t44.5 3q11 0 16 -9q3 -8 4.5 -26t6.5 -41q3 -18 7.5 -36.5t12.5 -42.5q-5 -2 -12.5 -4.5t-13.5 -2.5q-11 0 -16 9q-12 26 -23.5 44.5
t-26 30t-34 17t-46.5 5.5h-88z" />
    <glyph glyph-name="U" unicode="U" horiz-adv-x="754" 
d="M644 247q0 -57 -12 -104.5t-41.5 -82t-79 -53.5t-124.5 -19q-89 0 -143.5 20t-84 54.5t-39.5 81t-10 99.5v332q0 21 -13 29.5t-53 13.5q-11 2 -11 19v8t2 10q29 -2 61.5 -3.5t77.5 -1.5q35 0 73 1.5t68 3.5q1 -5 1.5 -10t0.5 -8q0 -17 -11 -19q-41 -5 -55.5 -14
t-14.5 -29v-310q0 -104 38.5 -158t132.5 -54q96 0 136.5 50.5t40.5 164.5v307q0 20 -14 29t-53 14q-12 3 -12 19q0 3 0.5 8t1.5 10q29 -3 53.5 -4t52.5 -1q32 0 57 1t49 4q1 -5 1.5 -10t0.5 -8q0 -16 -12 -19q-37 -4 -51 -13.5t-14 -29.5v-328z" />
    <glyph glyph-name="V" unicode="V" horiz-adv-x="681" 
d="M527 566q5 13 5 21q0 14 -13 20.5t-45 10.5q-12 1 -12 19q0 2 0.5 4.5t0.5 5.5l1 8q9 -1 22 -2t28.5 -1.5l31 -1t28.5 -0.5q29 0 55.5 1t45.5 4l1 -8q1 -3 1 -6v-5q0 -19 -12 -20q-32 -3 -45.5 -10.5t-21.5 -26.5l-247 -590q-5 -1 -8 -1h-7q-8 0 -11.5 3t-7.5 14
l-234 579q-3 7 -6.5 12.5t-10.5 9.5t-18.5 6.5t-30.5 4.5q-13 1 -13 21v8.5t2 8.5q15 -1 34 -2t38.5 -1.5t38 -1t32.5 -0.5q33 0 72 1.5t70 3.5q2 -5 2 -10v-8q0 -18 -12 -19q-32 -3 -45 -10t-13 -19q0 -7 3 -16l146 -395z" />
    <glyph glyph-name="W" unicode="W" horiz-adv-x="987" 
d="M515 660q5 1 9 1.5t7 0.5q8 0 11.5 -3.5t7.5 -13.5l164 -432l122 353q5 13 5 21q0 14 -13 20.5t-45 10.5q-12 1 -12 19q0 2 0.5 4.5t0.5 5.5l1 8q17 -2 48.5 -3.5t58.5 -1.5q29 0 55 1t46 4l1 -8q0 -3 0.5 -6t0.5 -5q0 -19 -13 -20q-31 -3 -45.5 -10t-21.5 -27l-211 -590
q-5 -1 -7 -1h-7q-7 0 -10.5 3t-8.5 14l-163 434l-159 -450q-5 -1 -7.5 -1h-6.5q-8 0 -11.5 3t-7.5 14l-219 579q-5 14 -17.5 21.5t-50.5 11.5q-13 1 -13 21v8.5t2 8.5q15 -1 34 -2t38.5 -1.5t38 -1t32.5 -0.5q33 0 72 1.5t70 3.5q1 -5 1.5 -10t0.5 -8q0 -18 -13 -19
q-32 -3 -45 -10t-13 -19q0 -4 1 -7.5t3 -8.5l131 -361z" />
    <glyph glyph-name="X" unicode="X" horiz-adv-x="685" 
d="M590 72q11 -17 28 -24.5t55 -12.5q5 -1 9.5 -5t4.5 -14q0 -3 -0.5 -10t-1.5 -11q-17 1 -37.5 2t-41 1.5t-39.5 1t-32 0.5q-32 0 -74.5 -1t-80.5 -4q-2 4 -2 9v8q0 10 3.5 14t8.5 5q27 5 40 11t13 17q0 9 -9 21l-127 199l-125 -182q-8 -11 -12.5 -20t-4.5 -17
q0 -11 12 -17.5t39 -11.5q5 -1 9 -4.5t4 -14.5v-8t-2 -9q-26 2 -57.5 3.5t-55.5 1.5t-52 -1t-56 -4q-2 4 -2 9.5v8.5q0 17 13 19q27 5 46.5 15t28.5 24l178 258l-167 255q-9 14 -26 22t-52 11q-14 1 -14 20v8t2 10q15 -1 34.5 -2t39 -1.5t37 -1t29.5 -0.5q13 0 32.5 0.5
t42 1t44.5 1.5t40 2q1 -5 1.5 -10t0.5 -8q0 -18 -12 -19q-50 -4 -50 -22q0 -9 9 -22l109 -175l113 164q6 9 9.5 15.5t3.5 12.5q0 19 -50 27q-13 1 -13 19q0 3 0.5 8t1.5 10q30 -3 61.5 -4t53.5 -1q29 0 55 1t49 4q1 -5 1.5 -10.5t0.5 -8.5q0 -9 -4 -13.5t-9 -5.5
q-29 -3 -47 -11.5t-30 -25.5l-162 -228z" />
    <glyph glyph-name="Y" unicode="Y" horiz-adv-x="626" 
d="M245 274l-159 303q-11 21 -27.5 29t-42.5 12q-12 1 -12 20v4.5t1 5.5l1 7q22 -2 56.5 -3.5t75.5 -1.5q14 0 33.5 0.5t39.5 1t37.5 1.5t28.5 2q2 -9 2 -12.5v-5.5q0 -17 -12 -19q-26 -3 -36 -8.5t-10 -14.5q0 -8 7 -21l117 -232l115 216q11 19 11 32q0 12 -11 17.5
t-38 10.5q-13 2 -13 19q0 4 3 18q21 -2 52.5 -3.5t55.5 -1.5q23 0 48.5 1t51.5 4q2 -7 2 -11.5v-6.5q0 -18 -12 -19q-36 -5 -50 -13t-24 -25l-165 -304v-199q0 -11 3 -18t11 -12t21.5 -8.5t35.5 -6.5q5 -1 8.5 -4.5t3.5 -14.5q0 -2 -0.5 -4.5t-0.5 -5.5l-1 -7q-16 0 -30 0.5
t-28 1.5q-24 2 -49.5 2.5t-42.5 0.5q-18 0 -41.5 -0.5t-45.5 -2.5q-13 -1 -25.5 -1.5t-25.5 -0.5l-1 7q-1 3 -1 5.5v4.5q0 11 3.5 14.5t8.5 4.5q21 4 35 7.5t22 8t11 11.5t3 18v197z" />
    <glyph glyph-name="Z" unicode="Z" horiz-adv-x="606" 
d="M210 50h202q30 0 50.5 7t34.5 21t24.5 35t20.5 50q2 8 7.5 11.5t10.5 3.5q9 0 23 -6q-9 -44 -14 -87.5t-7 -69.5q-1 -12 -7 -16.5t-15 -4.5q-19 0 -46.5 3t-59.5 3h-397q0 9 4 17l356 583h-186q-31 0 -51.5 -3.5t-35 -14.5t-23 -30.5t-15.5 -52.5q-3 -15 -23 -15
q-5 0 -10.5 1.5t-9.5 4.5q7 44 10.5 82.5t5.5 62.5q3 20 21 20q20 0 43.5 -2.5t55.5 -2.5h390q0 -6 -0.5 -11t-3.5 -9z" />
    <glyph glyph-name="bracketleft" unicode="[" horiz-adv-x="316" 
d="M100 -177v853h182q1 -6 1.5 -10t0.5 -8q0 -15 -4.5 -19t-13.5 -6q-26 -2 -41 -4t-23 -6t-10 -10t-2 -16v-695q0 -10 2 -16t10 -10t23 -6t41 -4q9 -2 13.5 -6t4.5 -19q0 -4 -0.5 -8t-1.5 -10h-182z" />
    <glyph glyph-name="backslash" unicode="\" horiz-adv-x="337" 
d="M44 659q32 14 49 14q16 0 19 -11l181 -693q-35 -13 -50 -13t-18 11l-181 692v0z" />
    <glyph glyph-name="bracketright" unicode="]" horiz-adv-x="316" 
d="M34 -177q-1 6 -1.5 10t-0.5 8q0 15 4.5 19t13.5 6q26 2 41 4t23 6t10 10t2 16v695q0 10 -2 16t-10 10t-23 6t-41 4q-9 2 -13.5 6t-4.5 19q0 4 0.5 8t1.5 10h182v-853h-182z" />
    <glyph glyph-name="asciicircum" unicode="^" horiz-adv-x="526" 
d="M482 135q-30 -21 -52 -21q-11 0 -14 6l-158 288l-159 -297q-32 8 -43.5 17t-11.5 17q0 4 2 8l200 343q11 4 19 4q7 0 9.5 -2.5t4.5 -5.5z" />
    <glyph glyph-name="underscore" unicode="_" horiz-adv-x="404" 
d="M2 -129q-2 9 -2 17v14q0 20 4.5 27.5t12.5 7.5h384q3 -18 3 -31q0 -20 -5 -27.5t-13 -7.5h-384v0z" />
    <glyph glyph-name="grave" unicode="`" horiz-adv-x="500" 
d="M335 526q1 -2 2 -4.5t1 -5.5q0 -6 -4.5 -12.5t-17.5 -11.5q-23 19 -39.5 32.5t-31.5 24t-30.5 19.5t-34.5 20q-18 10 -18 30t20 38t59 18z" />
    <glyph glyph-name="a" unicode="a" horiz-adv-x="487" 
d="M467 31q15 0 15 -25q-13 -9 -32.5 -13.5t-39.5 -4.5q-45 0 -69 22t-28 51q-20 -40 -53.5 -56.5t-78.5 -16.5q-21 0 -46.5 3.5t-47 14.5t-36.5 31t-15 53q0 37 19 63t47.5 43.5t62.5 28t64 17.5q13 3 27 6.5l22 5.5q11 3 14 8.5t3 28.5q0 51 -15 78.5t-51 27.5
q-29 0 -41.5 -18t-23.5 -57q-3 -11 -17.5 -16.5t-36.5 -11.5q-12 -3 -24.5 -5t-22.5 -2q-6 0 -8 4.5t-2 17.5q0 25 18.5 49t46.5 42.5t61.5 29.5t64.5 11q37 0 67 -6.5t51.5 -23t33.5 -44t12 -70.5v-176q0 -35 1.5 -51t5.5 -24q9 -18 28 -18q8 0 13.5 1.5t10.5 1.5zM295 218
l-22 -4q-23 -4 -43 -11.5t-34.5 -20t-23 -31t-8.5 -44.5q0 -39 12.5 -54.5t36.5 -15.5q38 0 60 28t22 78v75z" />
    <glyph glyph-name="b" unicode="b" horiz-adv-x="573" 
d="M94 586q0 30 -10 45t-47 19q-13 3 -13 16v7.5t2 8.5q6 0 17.5 0.5t24.5 1t26 1.5t24 2q25 3 48 8t31 5q16 0 16 -15q0 -19 -3 -43.5t-3 -56.5v-227q25 37 58 60t90 23q39 0 72.5 -14.5t58.5 -42t39 -67.5t14 -91q0 -56 -21.5 -100t-54.5 -75t-72 -47t-75 -16
q-33 0 -70.5 8t-78.5 28q-12 -2 -21.5 -7.5t-17 -11t-13 -9.5t-9.5 -4q-8 0 -18 5q6 57 6 106v483zM207 77q21 -24 47.5 -34.5t56.5 -10.5q51 0 76.5 44.5t25.5 124.5q0 38 -6.5 71.5t-19.5 58t-34 39t-49 14.5q-18 0 -35.5 -11.5t-31 -30t-22 -41.5t-8.5 -46v-178z" />
    <glyph glyph-name="c" unicode="c" horiz-adv-x="462" 
d="M244 397q-42 0 -63 -41.5t-21 -111.5q0 -100 36.5 -146t102.5 -46q24 0 47.5 5.5t51.5 23.5q10 6 18 6t13 -6.5t11 -20.5q-33 -30 -78.5 -51t-111.5 -21q-44 0 -83.5 13t-69 40t-46.5 67.5t-17 95.5q0 53 20.5 96.5t52.5 75t72 48.5t78 17q48 0 82 -11t55.5 -27.5
t31.5 -35t10 -33.5q0 -8 -14.5 -13t-32.5 -7.5t-34.5 -3t-21.5 -0.5q-9 0 -14.5 5.5t-7.5 11.5q-5 13 -10 25.5t-11.5 22.5t-17.5 16t-28 6z" />
    <glyph glyph-name="d" unicode="d" horiz-adv-x="567" 
d="M479 93q0 -12 1 -20.5t6 -14.5t15 -9.5t27 -5.5q14 -2 14 -13v-10t-2 -8q-13 0 -40.5 -1.5t-46.5 -4.5q-22 -3 -43.5 -7.5t-29.5 -4.5q-9 0 -11.5 3.5t-2.5 11.5v60q-13 -18 -27 -33t-31.5 -25.5t-39.5 -16.5t-50 -6q-39 0 -72.5 14t-58.5 41.5t-39 67.5t-14 91
q0 55 21.5 99.5t54.5 75.5t72 47.5t75 16.5q29 0 53.5 -5.5t55.5 -15.5v166q0 31 -10 45.5t-47 18.5q-6 2 -10 5t-4 11q0 6 2 16q7 0 18 0.5t24 1t26 1.5t24 2q26 3 48.5 8t30.5 5q17 0 17 -15q0 -19 -3 -43.5t-3 -56.5v-492zM366 351q-46 46 -104 46q-52 0 -77 -45.5
t-25 -124.5q0 -38 6.5 -71.5t19.5 -58t33.5 -38.5t49.5 -14q18 0 35.5 11.5t31 29.5t22 41t8.5 46v178z" />
    <glyph glyph-name="e" unicode="e" horiz-adv-x="483" 
d="M413 92q9 7 16 7q5 0 11.5 -4.5t13.5 -17.5q-39 -46 -89.5 -67.5t-119.5 -21.5q-39 0 -76.5 12.5t-67.5 39t-48.5 66.5t-18.5 96q0 55 21.5 99.5t54.5 75.5t72 47.5t75 16.5q97 0 146.5 -56t49.5 -153q0 -7 -7 -7l-287 -12q0 -78 35 -119.5t105 -41.5q31 0 61 10t53 30z
M242 397q-39 0 -62.5 -33.5t-23.5 -105.5l156 7q15 1 15 13q0 19 -5 40t-15.5 38.5t-26.5 29t-38 11.5z" />
    <glyph glyph-name="f" unicode="f" horiz-adv-x="340" 
d="M99 379h-60v26q0 10 9.5 12.5t20.5 4t20.5 7.5t9.5 24v32q0 51 16 91t42.5 67.5t61 42t71.5 14.5q75 0 114.5 -24.5t39.5 -58.5q0 -8 -11.5 -15.5t-26 -13t-28 -9t-18.5 -3.5q-9 0 -14 3t-8 13q-8 26 -23 45.5t-44 19.5q-32 0 -45.5 -24t-13.5 -84v-120h118q0 -28 -3 -39
t-17 -11h-98v-297q0 -12 2.5 -20.5t11.5 -14.5t28 -10.5t52 -8.5q13 -2 13 -14q0 -4 -0.5 -10.5t-1.5 -10.5q-25 2 -65.5 4.5t-79.5 2.5q-35 0 -67.5 -1.5t-58.5 -3.5q-2 10 -2 19q0 11 11 13q28 6 36 12.5t8 21.5v318z" />
    <glyph glyph-name="g" unicode="g" horiz-adv-x="507" 
d="M104 17q-20 11 -30.5 30t-10.5 42q0 32 15 51t47 39q-26 17 -46 43.5t-20 68.5q0 32 14.5 59.5t38.5 47.5t56 31.5t68 11.5q49 0 83.5 -14.5t54.5 -29.5l98 48q12 -8 18.5 -21.5t6.5 -25.5q0 -10 -4 -16.5t-15 -6.5q-4 0 -12 0.5t-13 0.5q-11 0 -22 -1.5t-28 -6.5
q24 -31 24 -76q0 -61 -48.5 -101t-142.5 -40q-21 0 -40 2.5t-36 8.5q-20 -11 -28 -21.5t-8 -18.5t4 -14t16 -10t34.5 -6.5t59.5 -2.5q50 0 92 -8.5t72.5 -26.5t47.5 -46.5t17 -68.5q0 -36 -14.5 -68.5t-43.5 -57t-72.5 -39t-101.5 -14.5q-45 0 -83 7.5t-65.5 24.5t-43 44
t-15.5 67q0 39 22.5 67.5t53.5 46.5zM134 -2q-11 -14 -14.5 -31t-3.5 -37q0 -23 7.5 -44.5t24.5 -38t44 -27t65 -10.5q62 0 90.5 29t28.5 70q0 30 -31 50.5t-105 20.5q-26 0 -56 5t-50 13zM246 195q29 0 48.5 20t19.5 64q0 22 -2.5 43t-11.5 37.5t-25.5 27t-43.5 10.5
t-45 -22t-18 -60q0 -23 2.5 -44.5t11 -38t23.5 -27t41 -10.5z" />
    <glyph glyph-name="h" unicode="h" horiz-adv-x="583" 
d="M265 -5q-26 2 -54 3.5t-60 1.5q-39 0 -65.5 -1.5t-51.5 -3.5q-2 10 -2 19q0 7 3.5 9.5t7.5 3.5q32 5 44 12.5t12 22.5v524q0 30 -10 45.5t-47 18.5q-13 2 -13 16v7.5t2 8.5q6 0 17.5 0.5t24.5 1t26 1.5t24 2q25 3 48 8t31 5q16 0 16 -15q0 -11 -3 -28.5t-3 -49.5v-259
q32 42 71 67.5t81 25.5q61 0 96 -34t35 -102v-244q0 -14 11.5 -21t44.5 -13q4 -1 7.5 -3.5t3.5 -9.5q0 -9 -2 -19q-26 2 -52 3.5t-65 1.5q-32 0 -60 -1.5t-54 -3.5q-2 4 -2 9v10q0 11 11 13q27 5 35.5 12t8.5 22v196q0 59 -14.5 81.5t-46.5 22.5q-45 0 -77 -30.5t-32 -90.5
v-179q0 -15 8 -22t36 -12q11 -2 11 -13v-10t-2 -9z" />
    <glyph glyph-name="i" unicode="i" horiz-adv-x="302" 
d="M155 0q-39 0 -67 -1.5t-54 -3.5q-2 10 -2 19q0 7 3.5 9.5t7.5 3.5q32 6 44 13t12 22v264q0 30 -10 46t-47 19q-13 2 -13 16v7.5t2 8.5q6 0 17.5 0.5t24.5 1t26 1.5t24 2q25 3 48 8t31 5q16 0 16 -15q0 -11 -3 -29t-3 -50v-285q0 -15 13 -22t43 -13q11 -2 11 -13v-10
t-2 -9q-25 2 -54 3.5t-68 1.5zM82 587q0 32 20.5 52.5t51.5 20.5q32 0 52 -20.5t20 -52.5t-20 -52.5t-52 -20.5q-31 0 -51.5 20.5t-20.5 52.5z" />
    <glyph glyph-name="j" unicode="j" horiz-adv-x="294" 
d="M99 326q0 30 -11 44.5t-51 19.5q-14 3 -14 17q0 8 2 16q7 0 18.5 0.5t25 1t27 1.5t24.5 2q25 3 49 8t32 5q17 0 17 -15q0 -11 -3 -29t-3 -50v-247q0 -67 -7 -111.5t-27.5 -80.5t-58.5 -69.5t-100 -78.5q-6 5 -10.5 10.5t-4.5 12.5q0 5 2.5 9t4.5 7q27 27 44 49t27 44
t13.5 47.5t3.5 60.5v326zM81 587q0 32 20.5 52.5t52.5 20.5q31 0 51.5 -20.5t20.5 -52.5t-20.5 -52.5t-51.5 -20.5q-32 0 -52.5 20.5t-20.5 52.5z" />
    <glyph glyph-name="k" unicode="k" horiz-adv-x="545" 
d="M212 62q0 -14 7.5 -20.5t36.5 -14.5q4 -1 7.5 -3.5t3.5 -9.5q0 -6 -0.5 -10.5t-1.5 -8.5q-27 2 -52 3.5t-58 1.5q-39 0 -67 -1.5t-54 -3.5q-1 4 -1.5 8.5t-0.5 10.5q0 7 3.5 9.5t7.5 3.5q26 5 41 12.5t15 22.5v524q0 30 -11 45.5t-46 18.5q-13 3 -13 16v8t2 8
q6 0 17.5 0.5t24.5 1t26 1.5t24 2q25 3 48 8t31 5q16 0 16 -15q0 -11 -3 -28.5t-3 -49.5v-359l146 123q8 6 8 13q0 14 -34 17q-12 1 -12 15q0 8 2 16q48 -3 97 -3q23 0 44.5 0.5t46.5 2.5q1 -5 2 -9t1 -7q0 -14 -14 -16q-27 -3 -41 -8.5t-24 -13.5l-117 -102l152 -209
q15 -21 30.5 -29t34.5 -11q11 -2 11 -13q0 -3 -0.5 -9t-2.5 -10q-38 1 -77 1.5t-83 0.5l-165 225h-5v-160z" />
    <glyph glyph-name="l" unicode="l" horiz-adv-x="301" 
d="M277 -5q-26 2 -59.5 3.5t-62.5 1.5q-32 0 -63.5 -1.5t-57.5 -3.5q-1 4 -1.5 8.5t-0.5 10.5q0 7 3.5 9.5t7.5 3.5q32 6 44 13t12 22v524q0 30 -11 45.5t-46 18.5q-13 3 -13 16v8t2 8q6 0 17.5 0.5t24.5 1t26 1.5t24 2q25 3 48 8t31 5q16 0 16 -15q0 -11 -3 -28.5t-3 -49.5
v-545q0 -15 12 -22t44 -13q11 -2 11 -13q0 -14 -2 -19z" />
    <glyph glyph-name="m" unicode="m" horiz-adv-x="849" 
d="M483 343q35 45 73.5 71.5t78.5 26.5q125 0 125 -136v-244q0 -14 12 -21t44 -13q11 -2 11 -13v-10t-2 -9q-25 2 -51 3.5t-65 1.5q-33 0 -60.5 -1.5t-54.5 -3.5q-2 10 -2 19q0 7 3.5 9.5t7.5 3.5q27 5 35.5 12t8.5 22v196q0 59 -11.5 81.5t-42.5 22.5q-45 0 -76 -30.5
t-31 -90.5v-179q0 -15 9 -22t35 -12q11 -2 11 -13v-10t-2 -9q-24 2 -48 3.5t-56 1.5q-33 0 -60.5 -1.5t-54.5 -3.5q-2 10 -2 19q0 7 3.5 9.5t7.5 3.5q27 5 35.5 12t8.5 22v196q0 59 -11.5 81.5t-42.5 22.5q-45 0 -76 -30.5t-31 -90.5v-179q0 -15 9 -22t35 -12q11 -2 11 -13
v-10t-2 -9q-26 2 -54 3.5t-60 1.5q-39 0 -65.5 -1.5t-51.5 -3.5q-2 10 -2 19q0 7 3.5 9.5t7.5 3.5q32 6 44 13t12 22v264q0 30 -11 46t-46 19q-13 3 -13 16v7.5t2 8.5q6 0 17.5 0.5t24.5 1t26 1.5t24 2q25 3 48 8t31 5q16 0 16 -15q0 -11 -3 -29t-3 -50q32 42 70.5 68
t78.5 26q105 0 122 -98z" />
    <glyph glyph-name="n" unicode="n" horiz-adv-x="583" 
d="M495 61q0 -14 12 -21.5t44 -12.5q4 -1 7.5 -3.5t3.5 -9.5q0 -6 -0.5 -10.5t-1.5 -8.5q-26 2 -52 3.5t-65 1.5q-32 0 -60 -1.5t-54 -3.5q-2 5 -2 19q0 11 11 13q26 5 35 12t9 22v196q0 59 -14.5 81.5t-46.5 22.5q-45 0 -77 -30.5t-32 -90.5v-179q0 -15 9 -22t35 -12
q11 -2 11 -13q0 -14 -2 -19q-26 2 -54 3.5t-60 1.5q-39 0 -65.5 -1.5t-51.5 -3.5q-1 4 -1.5 8.5t-0.5 10.5q0 7 3.5 9.5t7.5 3.5q32 6 44 13t12 22v264q0 30 -11 46t-46 19q-13 3 -13 16v7.5t2 8.5q6 0 17.5 0.5t24.5 1t26 1.5t24 2q25 3 48 8t31 5q16 0 16 -15
q0 -11 -3 -29t-3 -50q32 42 71 68t81 26q61 0 96 -34t35 -102v-244z" />
    <glyph glyph-name="o" unicode="o" horiz-adv-x="536" 
d="M34 214q0 49 17.5 90.5t48.5 72t74 47.5t94 17q53 0 96 -17t74 -47.5t47.5 -72t16.5 -90.5t-17.5 -90.5t-49 -71.5t-74.5 -47t-94 -17q-53 0 -96 17t-73.5 47t-47 71.5t-16.5 90.5zM160 234q0 -92 30.5 -147t87.5 -55q53 0 75.5 42.5t22.5 119.5q0 91 -31 147t-87 56
q-53 0 -75.5 -43.5t-22.5 -119.5z" />
    <glyph glyph-name="p" unicode="p" horiz-adv-x="571" 
d="M92 340q0 24 -7.5 35.5t-41.5 15.5q-14 3 -14 14v9t2 9q6 0 17 0.5t23 1t24.5 1.5t22.5 3q23 3 44 7.5t29 4.5q9 0 11.5 -4t2.5 -11v-68q29 38 66 60.5t82 22.5q39 0 72.5 -14.5t58.5 -42t39 -67.5t14 -91q0 -56 -21.5 -100t-54.5 -75t-72 -47t-75 -16q-29 0 -53.5 4.5
t-55.5 15.5v-166q0 -12 2.5 -20.5t11.5 -14.5t28 -10.5t52 -8.5q13 -2 13 -15t-2 -18q-26 2 -66 3.5t-78 1.5q-33 0 -66.5 -1.5t-60.5 -3.5q-2 10 -2 19q0 7 3.5 9.5t7.5 3.5q28 7 36 13t8 21v519zM205 80q46 -48 104 -48q51 0 76.5 45.5t25.5 123.5q0 38 -6 71.5t-19 58
t-33.5 39t-48.5 14.5q-19 0 -36.5 -11.5t-31.5 -30t-22.5 -41.5t-8.5 -46v-175z" />
    <glyph glyph-name="q" unicode="q" horiz-adv-x="555" 
d="M479 -179q0 -15 7.5 -21.5t36.5 -12.5q11 -2 11 -13q0 -9 -2 -19q-27 2 -59.5 3.5t-67.5 1.5q-39 0 -79 -1.5t-65 -3.5q-2 4 -2 9.5v9.5q0 8 4 10.5t9 3.5q33 4 52 8.5t28 10.5t11.5 14.5t2.5 20.5v227q-13 -18 -27 -33t-31.5 -25.5t-39.5 -16.5t-50 -6q-39 0 -72.5 14
t-58.5 41.5t-39 67.5t-14 91q0 55 21 99.5t54 75.5t72.5 47.5t75.5 16.5q33 0 70 -9.5t79 -27.5q12 2 21.5 7t17 10.5t13 9.5t9.5 4q6 0 10.5 -1.5l7.5 -2.5q-6 -56 -6 -106v-504zM366 349q-42 48 -104 48q-52 0 -77 -46t-25 -124q0 -38 6.5 -71.5t19.5 -58t33.5 -38.5
t49.5 -14q18 0 35.5 11.5t31 29.5t22 41t8.5 46v176z" />
    <glyph glyph-name="r" unicode="r" horiz-adv-x="408" 
d="M350 440q29 0 43.5 -15t14.5 -38q0 -7 -2.5 -12t-11 -11t-23.5 -13.5t-39 -18.5q-16 16 -29.5 21.5t-26.5 5.5q-12 0 -23.5 -4t-20.5 -15.5t-14.5 -30.5t-5.5 -49v-186q0 -20 16 -29.5t63 -17.5q11 -2 11 -13q0 -14 -2 -19q-13 1 -32 1.5t-40 1.5t-41.5 1.5t-36.5 0.5
q-38 0 -65 -1.5t-51 -3.5q-2 5 -2 19q0 11 11 13q32 6 44 13t12 22v269q0 23 -8.5 37t-47.5 19q-14 2 -14 15v8t2 8q6 0 17 0.5t24 1t26 1.5t23 3q22 3 45.5 7.5t31.5 4.5q14 0 14 -15v-54q35 38 67 55.5t71 17.5z" />
    <glyph glyph-name="s" unicode="s" horiz-adv-x="394" 
d="M316 307q-14 1 -16 11q-7 41 -32 60t-63 19q-34 0 -52 -17t-18 -40q0 -11 3 -20t12.5 -17t26.5 -15.5t46 -16.5q34 -10 60 -21.5t44 -27.5t27.5 -38.5t9.5 -53.5q0 -29 -9.5 -55t-30.5 -45.5t-53 -30.5t-77 -11q-32 0 -73.5 7t-75.5 25q-2 26 -3.5 55.5t-1.5 58.5h13
q11 0 19 -3.5t9 -11.5q4 -42 33 -64.5t80 -22.5q35 0 57 16t22 42q0 24 -19.5 41t-73.5 33q-73 21 -102.5 55.5t-29.5 82.5q0 63 42.5 101t110.5 38q39 0 75.5 -9.5t58.5 -20.5q1 -8 2 -21.5t2 -29t1.5 -30t0.5 -24.5z" />
    <glyph glyph-name="t" unicode="t" horiz-adv-x="339" 
d="M297 65q10 6 17 6q10 0 21 -21q-42 -38 -73.5 -50t-66.5 -12q-20 0 -38.5 5t-33.5 18t-24 35.5t-9 57.5v275h-60v25q0 4 2 10t12 6q27 0 50 15.5t37 46.5q11 23 24.5 37t26.5 14h21v-104h117q0 -32 -4.5 -41t-16.5 -9h-96v-247q0 -30 2 -47.5t6.5 -26.5t12 -11.5
t17.5 -2.5q11 0 26 5.5t30 15.5z" />
    <glyph glyph-name="u" unicode="u" horiz-adv-x="576" 
d="M90 341q0 24 -7.5 35t-41.5 15q-14 3 -14 14v8t2 10q6 0 17 0.5t23 1t24.5 1.5t22.5 3q23 3 44 7.5t29 4.5q9 0 11.5 -4t2.5 -11v-256q0 -58 14.5 -80.5t46.5 -22.5q45 0 77 30t32 91v153q0 12 -1.5 20.5t-6.5 14.5t-14.5 9.5t-26.5 5.5q-6 2 -10.5 4t-4.5 10q0 3 0.5 8
t1.5 10q7 0 17.5 0.5t23 1t25 1.5t22.5 3q22 3 43.5 7.5t29.5 4.5q14 0 14 -15v-333q0 -12 1.5 -20.5t6.5 -14.5t15 -9.5t27 -5.5q13 -1 13 -13v-10t-2 -8q-13 0 -40.5 -1.5t-46.5 -4.5q-22 -3 -43.5 -7.5t-29.5 -4.5q-9 0 -11.5 3.5t-2.5 11.5v72q-32 -42 -71 -67.5
t-81 -25.5q-61 0 -96 33.5t-35 100.5v219z" />
    <glyph glyph-name="v" unicode="v" horiz-adv-x="482" 
d="M277 146q24 59 39.5 98t24 64t12 39.5t3.5 24.5q0 20 -32 28q-7 2 -10 4.5t-3 10.5q0 3 1 7.5t2 9.5q40 -3 87 -3q42 0 77 3q2 -5 2.5 -11t0.5 -8q0 -11 -13 -14q-14 -3 -22.5 -5.5t-15 -8t-11.5 -14t-11 -23.5l-147 -358q-5 -2 -10.5 -2h-10.5q-7 0 -13.5 8t-17.5 34
l-137 318q-7 15 -12 24t-11 14t-14 7.5t-21 4.5q-13 1 -13 16q0 7 3 18q25 -2 49 -2.5t63 -0.5q36 0 63 0.5t54 2.5q3 -11 3 -17q0 -13 -13 -15q-24 -3 -29.5 -8.5t-5.5 -13.5q0 -5 4 -20.5t21 -54.5z" />
    <glyph glyph-name="w" unicode="w" horiz-adv-x="736" 
d="M533 146q24 59 39 98t23.5 64t11.5 39.5t3 24.5q0 20 -32 28q-7 2 -10 4.5t-3 10.5q0 3 1 7.5t2 9.5q40 -3 87 -3q42 0 77 3q2 -5 2.5 -11t0.5 -8q0 -11 -13 -14q-14 -3 -22.5 -5.5t-15 -8t-11.5 -14t-11 -23.5l-145 -358q-4 -2 -9.5 -2h-11.5q-7 0 -13.5 8t-17.5 34
l-98 230l-112 -270q-4 -2 -9.5 -2h-11.5q-7 0 -13.5 8t-17.5 34l-131 318q-6 15 -11 23.5t-11 13.5t-14.5 7.5t-21.5 5.5t-13 17q0 6 3 17q24 -2 51 -2.5t66 -0.5q36 0 62 0.5t52 2.5q3 -11 3 -17q0 -13 -13 -15q-24 -3 -30.5 -8.5t-6.5 -13.5q0 -5 5 -21t20 -54l57 -152
l115 279q4 10 15 10q8 0 16 -4z" />
    <glyph glyph-name="x" unicode="x" horiz-adv-x="519" 
d="M85 371q-9 12 -21 18t-37 9q-13 2 -13 16q0 7 3 18q26 -2 55.5 -2.5t59.5 -0.5q35 0 72.5 0.5t62.5 2.5q1 -5 2 -9t1 -6q0 -6 -3 -11t-10 -6q-26 -3 -33 -7t-7 -12q0 -10 14 -30l63 -83l69 101q7 12 7 15q0 5 -4.5 9t-23.5 7q-13 1 -13 17q0 2 0.5 6t2.5 9q39 -3 85 -3
q40 0 76 3q2 -5 2.5 -10t0.5 -8q0 -14 -13 -15q-29 -3 -41 -9.5t-24 -23.5l-94 -139l108 -153q17 -23 30.5 -31.5t35.5 -12.5q14 -3 14 -17q0 -8 -2 -18q-29 2 -65 3.5t-61 1.5t-60 -1.5t-64 -3.5q-2 4 -2 10v9q0 8 3.5 10.5t8.5 4.5q23 3 32 7t9 12q0 7 -11 23l-76 107
l-68 -102q-9 -14 -9 -22q0 -9 11 -14.5t37 -10.5q5 -2 8.5 -5t3.5 -11v-8.5t-2 -9.5q-26 2 -48.5 3.5t-48.5 1.5q-23 0 -48 -1.5t-51 -3.5q-2 10 -2 18q0 13 13 16q15 3 26 6.5t19.5 8.5t15 11.5t13.5 16.5l100 146z" />
    <glyph glyph-name="y" unicode="y" horiz-adv-x="496" 
d="M284 146q24 59 40.5 98t26.5 64t14.5 39.5t4.5 24.5q0 20 -32 28q-7 2 -10 4.5t-3 10.5q0 3 1 7.5t2 9.5q40 -3 87 -3q42 0 77 3q2 -5 2.5 -11t0.5 -8q0 -11 -13 -14q-14 -3 -22.5 -5.5t-14.5 -8t-11 -14t-12 -23.5l-210 -491q-23 -53 -64.5 -75t-89.5 -22q-9 0 -13 5
t-4 11q0 34 12 58.5t28 24.5q9 0 16 -2t20 -2q26 0 39.5 10.5t23.5 33.5l45 108l-153 341q-7 15 -12 23.5t-11 13.5t-14 7.5t-21 5.5t-13 17q0 6 3 17q24 -2 51 -2.5t66 -0.5q36 0 62 0.5t52 2.5q3 -11 3 -17q0 -13 -13 -15q-24 -3 -30.5 -8.5t-6.5 -13.5q0 -5 5 -21t22 -54
z" />
    <glyph glyph-name="z" unicode="z" horiz-adv-x="440" 
d="M139 385q-32 0 -46.5 -15t-21.5 -59q-1 -10 -15 -10q-2 0 -7.5 1t-8.5 2q2 26 2.5 53.5t2.5 45.5q1 13 4 19.5t14 6.5h337q1 -4 1 -7q0 -2 -1 -5.5t-5 -8.5l-211 -364h129q26 0 41 20.5t26 59.5q2 6 6.5 8t8.5 2q3 0 8 -1l10 -2l-11 -123q-2 -9 -5 -10.5t-10 -1.5h-16.5
t-20.5 2q-17 1 -34.5 1.5t-32.5 0.5h-247q-1 2 -1 5t1 5.5t6 10.5l217 364h-120z" />
    <glyph glyph-name="braceleft" unicode="{" horiz-adv-x="333" 
d="M169 250q45 -17 63.5 -50t18.5 -86q0 -35 -5.5 -76.5t-16.5 -93.5q-3 -18 -3 -32q0 -32 16.5 -41t45.5 -14q7 -1 9.5 -7t2.5 -15v-12q-29 0 -58 4t-52 15.5t-37.5 31.5t-14.5 53v10.5t1 10.5q8 58 15 103t7 78q0 45 -19 69t-72 29v41q53 5 72 30t19 70q0 35 -7 80
t-15 103q-1 5 -1 9v9q0 34 16 55t40 32.5t52.5 15.5t53.5 4v-12q0 -9 -2.5 -15t-9.5 -7q-29 -5 -45.5 -14t-16.5 -41q0 -14 3 -32q11 -52 16.5 -94t5.5 -75q0 -53 -18.5 -85.5t-63.5 -49.5v-1z" />
    <glyph glyph-name="bar" unicode="|" horiz-adv-x="267" 
d="M167 -237q-21 -3 -34 -3q-19 0 -26 5t-7 13v919q21 3 34 3q20 0 26.5 -5t6.5 -13v-919z" />
    <glyph glyph-name="braceright" unicode="}" horiz-adv-x="333" 
d="M164 251q-45 17 -63.5 49.5t-18.5 85.5q0 33 5.5 75t16.5 94q3 18 3 32q0 32 -16.5 41t-45.5 14q-7 1 -9.5 7t-2.5 15v12q25 0 53.5 -4t52.5 -15.5t40 -32.5t16 -55v-9t-1 -9q-8 -58 -15 -103t-7 -80q0 -45 19 -70t72 -30v-41q-53 -5 -72 -29t-19 -69q0 -33 7 -78
t15 -103q1 -5 1 -10.5v-10.5q0 -33 -14.5 -53t-37.5 -31.5t-52 -15.5t-58 -4v12q0 9 2.5 15t9.5 7q29 5 45.5 14t16.5 41q0 14 -3 32q-11 52 -16.5 93.5t-5.5 76.5q0 53 18.5 86t63.5 50v1z" />
    <glyph glyph-name="asciitilde" unicode="~" horiz-adv-x="567" 
d="M401 225q20 0 44 15t53 53q20 -10 27 -20.5t7 -19.5q0 -10 -5 -18q-30 -38 -64 -54t-61 -16t-60 10t-78 33q-29 14 -48 20t-33 6q-17 0 -38.5 -11.5t-55.5 -52.5q-21 9 -28 20t-7 20t5 16q35 41 67 55t56 14q22 0 49 -8t66 -27q38 -20 62 -27.5t42 -7.5z" />
    <glyph glyph-name="exclamdown" unicode="&#xa1;" horiz-adv-x="267" 
d="M204 -228q-51 -12 -83 -12q-31 0 -45.5 9.5t-14.5 26.5q0 2 0.5 5.5t0.5 6.5q7 46 15 98.5t15 108.5t13 113.5t9 111.5q5 1 9 1h7q17 0 22 -5.5t5 -10.5zM207 364q0 -31 -21.5 -53t-52.5 -22q-30 0 -51.5 22t-21.5 53q0 32 21.5 54t51.5 22q31 0 52.5 -22t21.5 -54z" />
    <glyph glyph-name="cent" unicode="&#xa2;" horiz-adv-x="531" 
d="M345 69q24 0 48.5 7t50.5 24q5 3 9 5t10 2q7 0 13 -8.5t10 -19.5q-30 -26 -69 -46t-92 -25v-63q-6 -2 -11 -2h-10q-17 0 -22.5 5.5t-5.5 11.5v48q-41 3 -77 17.5t-63 41t-43 65.5t-16 91q0 48 17.5 88.5t46 71t64 50t71.5 24.5v62q6 1 11 1.5t10 0.5q17 0 22.5 -5.5
t5.5 -12.5v-45q42 -2 72 -13.5t48.5 -27t27.5 -32.5t9 -32q0 -8 -12.5 -13t-28.5 -7t-31 -2.5t-20 -0.5q-9 0 -14 5t-8 11q-7 18 -16.5 34.5t-26.5 26.5v-337q5 -1 9.5 -1h10.5zM206 263q0 -70 18 -113.5t52 -63.5v328q-35 -8 -52.5 -47t-17.5 -104z" />
    <glyph glyph-name="sterling" unicode="&#xa3;" horiz-adv-x="522" 
d="M53 301q-1 5 -1.5 9.5t-0.5 9.5q0 28 17 28h41q-3 20 -5.5 37.5t-2.5 34.5q0 58 15.5 99.5t42 68t61.5 39t73 12.5q30 0 55.5 -5.5t44.5 -13.5t30 -18.5t11 -20.5q0 -5 -7.5 -13.5t-18.5 -17t-24 -14.5t-24 -6q-8 0 -12 4q-22 32 -41.5 44t-38.5 12q-28 0 -43.5 -27.5
t-15.5 -89.5q0 -27 7.5 -59.5t14.5 -65.5h136q1 -5 1 -9.5v-8.5q0 -29 -17 -29h-111q2 -8 2 -14v-12q0 -48 -20.5 -90t-61.5 -81q32 0 58 -9t49.5 -19.5t44.5 -19t43 -8.5q21 0 29.5 9t8.5 20t-5 19.5t-10 18.5q-3 4 -3 10q0 8 8.5 15.5t21.5 13.5t28.5 10t29.5 4
q11 0 16 -15t5 -30q0 -29 -13 -55.5t-36 -46.5t-54 -32.5t-68 -12.5q-31 0 -57.5 11t-49.5 23.5t-43 23.5t-39 11q-12 0 -24.5 -11.5t-21.5 -33.5q-15 0 -25.5 5t-10.5 13q0 20 13.5 36.5t29 38t29 51t13.5 75.5q0 40 -9 82h-65v0z" />
    <glyph glyph-name="currency" unicode="&#xa4;" horiz-adv-x="575" 
d="M105 334q0 62 37 110l-56 55q14 17 22 24.5t15 7.5q5 0 11 -6l45 -45q23 17 49.5 26t56.5 9t56 -9t49 -25l56 56q17 -14 24 -22t7 -14q0 -4 -5 -11l-45 -45q18 -23 28.5 -51t10.5 -60q0 -62 -37 -108l56 -55q-13 -17 -21.5 -24.5t-15.5 -7.5q-5 0 -10 5l-45 45
q-23 -17 -50.5 -26t-57.5 -9q-32 0 -59.5 10t-50.5 27l-57 -58q-18 14 -25 22.5t-7 15.5q0 4 5 11l48 47q-34 46 -34 105zM273 462q-17 0 -35 -7t-32 -21.5t-23 -36t-9 -50.5t8.5 -54.5t24 -44.5t37 -30.5t46.5 -11.5q48 0 77.5 31t29.5 85q0 28 -7.5 53.5t-22.5 45
t-38.5 30.5t-55.5 11z" />
    <glyph glyph-name="yen" unicode="&#xa5;" horiz-adv-x="578" 
d="M110 263q-1 5 -1 9.5v9.5q0 28 16 28h101l-140 248q-9 16 -24 22.5t-41 11.5q-14 1 -14 20q0 2 0.5 6.5t1.5 9.5q22 -2 61 -3.5t81 -1.5q14 0 31.5 0.5l35 1t33.5 1.5t27 2q2 -8 2 -11.5v-5.5q0 -17 -11 -19q-28 -5 -38.5 -10t-10.5 -14q0 -8 6 -20l103 -189l91 173
q10 20 10 31t-12.5 17t-41.5 12q-12 1 -12 19v6.5t2 10.5q10 -1 24.5 -2t29.5 -1.5t29.5 -1t26.5 -0.5q24 0 50.5 1.5t52.5 3.5q2 -7 2 -11v-6q0 -18 -12 -19q-35 -5 -50.5 -12.5t-25.5 -25.5l-131 -244h124q1 -5 1 -9.5v-8.5q0 -29 -17 -29h-116v-67h132q1 -5 1 -9.5v-9.5
q0 -29 -17 -29h-116v-71q0 -22 15 -30t58 -15q5 -1 8.5 -4.5t3.5 -14.5v-5.5t-2 -11.5q-32 2 -67.5 3.5t-77.5 1.5q-32 0 -66 -1.5t-68 -3.5q-2 8 -2 11.5v5.5q0 11 3.5 14.5t8.5 4.5q21 4 35 7.5t22 8t11 11.5t3 18v71h-129q-1 5 -1 10v9q0 29 16 29h114v67h-129v0z" />
    <glyph glyph-name="brokenbar" unicode="&#xa6;" horiz-adv-x="266" 
d="M166 328q-9 -2 -17 -2h-14q-20 0 -27.5 4.5t-7.5 12.5v321q9 2 17 2h14q20 0 27.5 -4.5t7.5 -12.5v-321zM166 -171q-18 -3 -31 -3q-20 0 -27.5 5t-7.5 13v320q18 3 31 3q20 0 27.5 -5t7.5 -13v-320z" />
    <glyph glyph-name="section" unicode="&#xa7;" horiz-adv-x="484" 
d="M329 662q19 0 26 -16.5t7 -36.5q0 -17 -6 -25t-22 -8q-5 0 -11.5 2t-9.5 4q-24 15 -42 20.5t-39 5.5q-20 0 -34 -13t-14 -41q0 -13 8 -30.5t22 -37.5t32 -43t38 -47q26 -33 53 -67t48.5 -68t35 -68t13.5 -67q0 -47 -18 -94.5t-55 -85.5t-93.5 -62t-132.5 -24
q-19 0 -26.5 17t-7.5 36q0 15 6 26t23 11q8 0 14 -3q35 -18 54.5 -23t33.5 -5q9 0 19.5 3t18.5 9.5t13.5 17t5.5 26.5q0 36 -27 83t-89 107q-38 38 -64 71t-42 62.5t-23 56.5t-7 52q0 49 20.5 95t58 81.5t91.5 57t122 21.5zM90 440q0 -18 4 -37.5t17.5 -44.5t39 -58.5
t67.5 -81.5q61 -69 91 -122t38 -102q18 26 25.5 52t7.5 47q0 28 -12 58.5t-31.5 61t-43 61t-47.5 59.5q-44 53 -79.5 105t-40.5 100q-17 -20 -26.5 -46t-9.5 -52z" />
    <glyph glyph-name="dieresis" unicode="&#xa8;" horiz-adv-x="500" 
d="M215 593q0 -28 -17.5 -46.5t-43.5 -18.5q-28 0 -47 18.5t-19 46.5q0 26 19 46t47 20q26 0 43.5 -20t17.5 -46zM412 593q0 -28 -17.5 -46.5t-43.5 -18.5q-29 0 -47.5 18.5t-18.5 46.5q0 26 18.5 46t47.5 20q26 0 43.5 -20t17.5 -46z" />
    <glyph glyph-name="copyright" unicode="&#xa9;" horiz-adv-x="690" 
d="M38 325q0 64 24 120t65.5 97.5t97.5 65.5t120 24q63 0 119 -24t98 -65.5t66 -97.5t24 -120q0 -63 -24 -119t-66 -98t-98 -66t-119 -24q-64 0 -120 24t-97.5 66t-65.5 98t-24 119zM347 55q54 0 100.5 21.5t81 58t54 85t19.5 103.5q0 56 -20.5 105.5t-56 86.5t-82.5 58.5
t-100 21.5q-54 0 -100.5 -21t-81 -57.5t-54.5 -85t-20 -103.5q0 -53 19 -102t53.5 -87t82.5 -61t105 -23zM349 148q-47 0 -82 13.5t-58 37.5t-35 57t-12 71q0 31 12 63t35 57.5t58 42t82 16.5q35 0 59 -4t51 -10q1 -14 4.5 -38t8.5 -47q-1 -1 -7.5 -2t-8.5 -1q-11 0 -14 9
q-14 32 -35 43t-48 11q-49 0 -77 -31t-28 -97q0 -69 29.5 -110t79.5 -41q32 0 52 11.5t35 42.5q4 9 14 9q3 0 9.5 -0.5t10.5 -2.5q-7 -21 -13.5 -45.5t-11.5 -45.5q-26 -5 -52 -7t-58 -2z" />
    <glyph glyph-name="ordfeminine" unicode="&#xaa;" horiz-adv-x="387" 
d="M366 292q5 0 8 -3.5t3 -22.5q-12 -5 -32 -9t-34 -4q-34 0 -52.5 16t-21.5 36q-16 -29 -43 -40.5t-56 -11.5q-22 0 -42 3.5t-35.5 12t-24.5 21.5t-9 33q0 25 12.5 43t33 31t47.5 21t57 14q8 1 17 2.5t15 3.5q8 2 10 6t2 15q0 33 -12.5 47t-33.5 14q-17 0 -26 -7t-17 -34
q-2 -5 -7 -8t-27 -7q-17 -4 -32.5 -6t-21.5 -2q-7 0 -7 14q0 16 11.5 31.5t31.5 27.5t46.5 19t55.5 7q30 0 55 -4t43 -14.5t28 -29.5t10 -48v-115q0 -19 2 -28t5 -15q8 -11 21 -11q5 0 10.5 1t9.5 1zM221 409q-2 -1 -3.5 -1t-3.5 -1q-47 -7 -68 -22.5t-21 -50.5q0 -14 9 -26
t29 -12q23 0 40.5 14.5t17.5 48.5v50z" />
    <glyph glyph-name="guillemotleft" unicode="&#xab;" horiz-adv-x="424" 
d="M183 377q4 4 9 4q12 0 26 -19q-47 -64 -89 -143q14 -32 36 -69.5t54 -82.5q-8 -11 -15.5 -15t-12.5 -4q-4 0 -8 2l-161 154q-2 8 -2 12q0 7 4 11zM343 377q4 4 9 4q12 0 26 -19q-47 -64 -89 -143q14 -32 36 -69.5t54 -82.5q-8 -11 -15.5 -15t-12.5 -4q-4 0 -8 2l-161 154
q-2 8 -2 12q0 7 4 11z" />
    <glyph glyph-name="logicalnot" unicode="&#xac;" horiz-adv-x="494" 
d="M39 285q-2 10 -2 17.5v14.5q0 35 17 35h402v-242q-9 -2 -17 -2h-15q-35 0 -35 17v160h-350z" />
    <glyph glyph-name="uni00AD" unicode="&#xad;" horiz-adv-x="316" 
d="M274 268q3 -18 3 -31q0 -45 -24 -45h-199q-2 9 -3 22t-1 19q0 20 7 27.5t18 7.5h199z" />
    <glyph glyph-name="registered" unicode="&#xae;" horiz-adv-x="439" 
d="M36 468q0 38 14.5 71.5t39 58t58 39t71.5 14.5t71.5 -14.5t58.5 -39t39.5 -58t14.5 -71.5t-14.5 -71.5t-39.5 -58.5t-58.5 -39.5t-71.5 -14.5t-71.5 14.5t-58 39.5t-39 58.5t-14.5 71.5zM220 313q31 0 57.5 12.5t46.5 33.5t31.5 48.5t11.5 58.5q0 32 -12 60.5t-32 49.5
t-47 33.5t-58 12.5t-57.5 -12t-46 -33t-31 -49t-11.5 -59q0 -30 11 -58t30.5 -50t47 -35t59.5 -13zM323 375q-2 -4 -6 -8.5t-7 -7.5h-9q-14 0 -25 6.5t-17 14.5l-50 72h-8v-60q0 -3 2 -6.5t13 -5.5q4 0 4 -6v-6t-1 -6q-9 0 -19.5 0.5t-21.5 0.5q-8 0 -20 -0.5t-22 -0.5
q-1 2 -1 6v6q0 6 4 6q10 2 12.5 5.5t2.5 6.5v158q0 4 -3 5.5t-12 3.5q-4 1 -4 7v5.5t1 6.5q10 -2 23 -2h23h37q35 0 58.5 -14t23.5 -46q0 -20 -12 -34.5t-30 -21.5l53 -76q3 -5 11 -9zM210 480q17 0 28.5 8t11.5 28q0 37 -41 37h-8v-73h9z" />
    <glyph glyph-name="macron" unicode="&#xaf;" horiz-adv-x="500" 
d="M116 552q-6 25 -6 40q0 16 6 20t18 4h251q2 -13 3.5 -22.5t1.5 -17.5q0 -16 -6 -20t-17 -4h-251z" />
    <glyph glyph-name="degree" unicode="&#xb0;" horiz-adv-x="376" 
d="M50 522q0 31 11.5 55t30.5 41t44.5 26t54.5 9q25 0 49.5 -9t43.5 -25.5t30.5 -41t11.5 -55.5t-11.5 -55.5t-31 -42t-44 -26.5t-50.5 -9q-27 0 -52 9t-44.5 26t-31 41.5t-11.5 56.5zM180 601q-20 0 -39 -18t-19 -53t19.5 -61.5t49.5 -26.5q29 0 46.5 19t17.5 52
q0 35 -18.5 61.5t-56.5 26.5z" />
    <glyph glyph-name="plusminus" unicode="&#xb1;" horiz-adv-x="494" 
d="M38 297q-2 9 -2 17v14q0 20 4.5 27.5t12.5 7.5h156v171q18 3 32 3q19 0 26.5 -5t7.5 -13v-156h180q3 -20 3 -32q0 -19 -5 -26.5t-13 -7.5h-165v-180q-9 -2 -17 -2h-14q-20 0 -27.5 4.5t-7.5 12.5v165h-171zM38 0q-2 9 -2 17v14q0 20 4.5 27.5t12.5 7.5h402q3 -18 3 -31
q0 -20 -5 -27.5t-13 -7.5h-402z" />
    <glyph glyph-name="twosuperior" unicode="&#xb2;" horiz-adv-x="339" 
d="M70 657q-12 -8 -21.5 -3.5t-13.5 17.5q27 29 64.5 49t78.5 20q45 0 76.5 -24t31.5 -66q0 -19 -6.5 -37.5t-23.5 -42t-48.5 -54.5t-80.5 -75h103q14 0 23 9.5t14 25.5q4 9 9 9q4 0 12 -1.5t15 -3.5q-3 -8 -7 -23t-7.5 -31.5t-7 -32t-5.5 -23.5q-2 -6 -10 -6q-12 0 -30.5 1
t-38.5 1h-162v30q45 47 73 83t43.5 63.5t20.5 49t5 39.5q0 29 -15 39.5t-30 10.5t-29 -5t-33 -19z" />
    <glyph glyph-name="threesuperior" unicode="&#xb3;" horiz-adv-x="339" 
d="M151 405q15 0 24.5 7t15 18t7.5 24.5t2 27.5q0 32 -13.5 47.5t-44.5 15.5q-10 0 -21 -2t-24 -4v31q31 10 49 21.5t27 22.5t11.5 20.5t2.5 17.5q0 17 -11 26t-28 9q-12 0 -27 -3.5t-32 -14.5q-13 -8 -19 -8q-10 0 -19 20q35 32 72 46t72 14q43 0 65 -18.5t22 -48.5
q0 -25 -19.5 -48t-62.5 -37v-2q24 -2 44.5 -6.5t35.5 -14t24 -25t9 -39.5q0 -31 -18.5 -57t-47 -45t-63.5 -29.5t-68 -10.5q-23 0 -43 2.5t-34 8.5q-9 4 -11.5 8.5t-2.5 9.5q0 6 7 14.5t34 31.5q8 6 11 7.5t6 1.5q5 0 10 -5q17 -17 28 -25.5t30 -8.5z" />
    <glyph glyph-name="acute" unicode="&#xb4;" horiz-adv-x="500" 
d="M258 674q39 0 59.5 -18t20.5 -38t-19 -30q-18 -11 -33.5 -20t-31 -20t-32.5 -24.5t-39 -31.5q-13 5 -17.5 11t-4.5 12t3 11z" />
    <glyph glyph-name="mu" unicode="&#xb5;" horiz-adv-x="559" 
d="M72 322q0 32 -1.5 49.5t-9.5 31.5q-5 8 -4 15t3 10q12 0 28 1.5l32 3t29.5 3t21.5 1.5q14 0 14 -15v-240q0 -25 1.5 -46t7.5 -36.5t19 -24t36 -8.5q51 0 78.5 33.5t27.5 96.5v123q0 32 -1 49t-11 34q-5 8 -4 15t3 10q12 0 28 1.5t32.5 3t30 3t21.5 1.5q14 0 14 -15v-318
q0 -15 2.5 -27t16.5 -12q17 0 26 7t19 7q13 0 15 -28q-48 -36 -83.5 -49.5t-53.5 -13.5q-20 0 -29.5 13t-9.5 42v45q-3 -3 -15 -19t-30.5 -34t-44.5 -32.5t-58 -14.5q-29 0 -53.5 9.5t-33.5 25.5q-2 -54 7.5 -86.5t25.5 -52t36 -28.5t39 -15q10 -3 10.5 -11.5t-1.5 -19.5
q-2 -10 -7.5 -21t-13 -20t-15 -15t-14.5 -7q-13 -2 -24.5 6t-18.5 15q-26 29 -43 69t-27 87t-14 97.5t-4 100.5v200z" />
    <glyph glyph-name="paragraph" unicode="&#xb6;" horiz-adv-x="443" 
d="M277 588q16 0 36 1t37 2q11 1 20.5 1.5t20.5 2.5l1 -6q1 -4 1 -9q0 -10 -8 -12q-20 -3 -36.5 -11t-16.5 -24v-498q0 -62 -12 -102t-34.5 -63t-54 -32t-69.5 -9q-24 0 -33 7t-9 40q0 14 3 22t15 8q9 0 17 -5q20 -12 31 -15.5t25 -3.5q32 0 49 26t17 91v154
q-115 0 -171 49.5t-56 155.5q0 48 15 90t44.5 73t71.5 49t96 18z" />
    <glyph glyph-name="periodcentered" unicode="&#xb7;" horiz-adv-x="227" 
d="M40 271q0 32 21.5 54t52.5 22q30 0 51.5 -22t21.5 -54q0 -31 -21.5 -53t-51.5 -22q-31 0 -52.5 22t-21.5 53z" />
    <glyph glyph-name="cedilla" unicode="&#xb8;" horiz-adv-x="500" 
d="M282 0q-5 -9 -9.5 -22t-4.5 -23q0 -8 3 -15.5t14 -18.5q14 -17 20.5 -30t6.5 -28q0 -32 -30 -58.5t-84 -42.5q-6 7 -8 12.5t-2 9.5q0 9 6 12q20 14 28 26t8 26q0 17 -19 37q-20 25 -20 37q0 18 10.5 33.5t42.5 44.5h38z" />
    <glyph glyph-name="onesuperior" unicode="&#xb9;" horiz-adv-x="339" 
d="M67 364q-2 13 -2.5 21t9.5 10q29 4 35.5 9.5t6.5 17.5v219q0 20 -7 29.5t-33 9.5q-7 0 -10.5 2.5t-3.5 13.5q0 2 0.5 8t1.5 8q27 2 46 4.5t32.5 5.5t23.5 6t19 6t16 5t15 2q13 0 13 -11t-2 -31.5t-2 -37.5v-241q0 -12 8 -16.5t33 -8.5q11 -2 10 -11t-3 -20
q-11 1 -24.5 1.5l-27 1t-26 0.5h-21.5h-23t-29.5 -0.5t-30 -1t-24.5 -1.5z" />
    <glyph glyph-name="ordmasculine" unicode="&#xba;" horiz-adv-x="393" 
d="M27 404q0 31 12 59t34 48t53.5 32t69.5 12q80 0 124.5 -41.5t44.5 -109.5q0 -32 -12 -59.5t-34 -47.5t-53 -32t-70 -12q-80 0 -124.5 41.5t-44.5 109.5zM202 291q32 0 49.5 23.5t17.5 55.5q0 23 -4 49.5t-13.5 48.5t-25 36.5t-37.5 14.5q-29 0 -47 -20.5t-18 -68.5
q0 -23 4.5 -48t14 -45t24 -33t35.5 -13z" />
    <glyph glyph-name="guillemotright" unicode="&#xbb;" horiz-adv-x="424" 
d="M241 53q-4 -4 -10 -4q-11 0 -26 18q25 34 46.5 69.5t42.5 76.5q-14 32 -35.5 67.5t-54.5 82.5q15 19 29 19q3 0 8 -3l160 -153q3 -5 3 -12t-5 -12zM81 53q-4 -4 -10 -4q-11 0 -26 18q25 34 46.5 69.5t42.5 76.5q-14 32 -35.5 67.5t-54.5 82.5q15 19 29 19q3 0 8 -3
l160 -153q3 -5 3 -12t-5 -12z" />
    <glyph glyph-name="onequarter" unicode="&#xbc;" horiz-adv-x="802" 
d="M76 257q-2 13 -2.5 21t9.5 10q29 4 35.5 9.5t6.5 17.5v219q0 20 -7 29.5t-33 9.5q-7 0 -10.5 2.5t-3.5 13.5q0 2 0.5 8t1.5 8q27 2 46 4.5t32.5 5.5t23.5 6t19 6t16 5t15 2q13 0 13 -11t-2 -31.5t-2 -37.5v-241q0 -12 8 -16.5t33 -8.5q11 -2 10 -11t-3 -20
q-11 1 -24.5 1.5l-27 1t-26 0.5h-21.5h-23t-29.5 -0.5t-30 -1t-24.5 -1.5zM610 654q28 -10 37.5 -18t9.5 -16q0 -7 -6 -16l-399 -616q-25 11 -36.5 18.5t-11.5 15.5q0 3 2 6.5t4 7.5zM609 284l-114 -148h114v148zM754 -1q-9 0 -25.5 0.5t-34 1t-33 0.5h-24.5
q-17 0 -40.5 -0.5t-41.5 -1.5q-1 2 -1.5 9.5t-0.5 9.5q0 8 7 10q29 5 39 10t10 17v31h-160q-2 8 -3.5 12t-1.5 9q0 9 2 14t7 13l166 224q6 9 12 9h76v-231h42v-50h-42v-33q0 -12 10 -16.5t32 -8.5q7 -2 7 -10q0 -2 -0.5 -9.5t-1.5 -9.5z" />
    <glyph glyph-name="onehalf" unicode="&#xbd;" horiz-adv-x="802" 
d="M66 257q-2 13 -2.5 21t9.5 10q29 4 35.5 9.5t6.5 17.5v219q0 20 -7 29.5t-33 9.5q-7 0 -10.5 2.5t-3.5 13.5q0 2 0.5 8t1.5 8q27 2 46 4.5t32.5 5.5t23.5 6t19 6t16 5t15 2q13 0 13 -11t-2 -31.5t-2 -37.5v-241q0 -12 8 -16.5t33 -8.5q11 -2 10 -11t-3 -20
q-11 1 -24.5 1.5l-27 1t-26 0.5h-21.5h-23t-29.5 -0.5t-30 -1t-24.5 -1.5zM583 654q28 -10 37.5 -18t9.5 -16q0 -7 -6 -16l-399 -616q-25 11 -36.5 18.5t-11.5 15.5q0 3 2 6.5t4 7.5zM518 291q-12 -8 -21.5 -3.5t-13.5 17.5q27 29 64.5 49t78.5 20q45 0 76.5 -24t31.5 -66
q0 -19 -6.5 -37.5t-23.5 -42t-48.5 -54.5t-80.5 -75h103q14 0 23 9.5t14 25.5q4 9 9 9q4 0 12 -1.5t15 -3.5q-3 -8 -7 -23t-7.5 -31.5t-7 -32t-5.5 -23.5q-2 -6 -10 -6q-12 0 -30.5 1t-38.5 1h-162v33q45 47 72.5 82.5t42.5 62.5t20 48t5 39q0 29 -14 39.5t-29 10.5t-29 -5
t-33 -19z" />
    <glyph glyph-name="threequarters" unicode="&#xbe;" horiz-adv-x="802" 
d="M174 298q15 0 24.5 7t15 18t7.5 24.5t2 27.5q0 32 -13.5 47.5t-44.5 15.5q-10 0 -21 -2t-24 -4v31q31 10 49 21.5t27 22.5t11.5 20.5t2.5 17.5q0 17 -11 26t-28 9q-12 0 -27 -3.5t-32 -14.5q-13 -8 -19 -8q-10 0 -19 20q35 32 72 46t72 14q43 0 65 -18.5t22 -48.5
q0 -25 -19.5 -48t-62.5 -37v-2q24 -2 44.5 -6.5t35.5 -14t24 -25t9 -39.5q0 -31 -18.5 -57t-47 -45t-63.5 -29.5t-68 -10.5q-23 0 -43 2.5t-34 8.5q-9 4 -11.5 8.5t-2.5 9.5q0 6 7 14.5t34 31.5q8 6 11 7.5t6 1.5q5 0 10 -5q17 -17 28 -25.5t30 -8.5zM624 654
q28 -10 37.5 -18t9.5 -16q0 -7 -6 -16l-399 -616q-25 11 -36.5 18.5t-11.5 15.5q0 3 2 6.5t4 7.5zM629 284l-114 -148h114v148zM774 -1q-9 0 -25.5 0.5t-34 1t-33 0.5h-24.5q-17 0 -40.5 -0.5t-41.5 -1.5q-1 2 -1.5 9.5t-0.5 9.5q0 8 7 10q29 5 39 10t10 17v31h-160
q-2 8 -3.5 12t-1.5 9q0 9 2 14t7 13l166 224q6 9 12 9h76v-231h42v-50h-42v-33q0 -12 10 -16.5t32 -8.5q7 -2 7 -10q0 -2 -0.5 -9.5t-1.5 -9.5z" />
    <glyph glyph-name="questiondown" unicode="&#xbf;" horiz-adv-x="386" 
d="M40 -100q0 47 23.5 78.5t52 56t52 48t23.5 54.5t-16 83q-2 4 -2 11q0 8 7 14.5t28 11.5q42 -48 62 -85t20 -65q0 -41 -23.5 -69.5t-52 -52.5t-52 -47t-23.5 -53q0 -33 16 -51t42 -18q12 0 29 12.5t23 41.5q2 13 22 13q11 0 25 -2.5t26.5 -6.5t21 -9t8.5 -10
q0 -19 -11.5 -36t-32.5 -30t-50 -21t-65 -8q-41 0 -70 12.5t-47.5 32.5t-27 45t-8.5 50zM269 359q0 -30 -20.5 -51t-50.5 -21q-29 0 -49.5 21t-20.5 51q0 31 20.5 52t49.5 21q30 0 50.5 -21t20.5 -52z" />
    <glyph glyph-name="Agrave" unicode="&#xc0;" 
d="M415 220h-210l-52 -139q-3 -5 -4 -11t-1 -9q0 -11 10.5 -18t42.5 -12q14 -2 14 -19q0 -7 -2 -17q-27 2 -57 3.5t-59 1.5q-20 0 -42 -1t-49 -4q-2 4 -2 9v8q0 19 13 20q31 6 44.5 13t21.5 24l241 576q8 17 24 17q5 0 10 -0.5t11 -1.5l241 -594q6 -15 23 -22.5t37 -10.5
q15 -3 15 -20q0 -8 -2 -18q-32 2 -63 3.5t-58 1.5q-14 0 -34 -0.5t-41 -1.5t-41.5 -1.5t-34.5 -1.5q-2 4 -2 9v8q0 9 3.5 13.5t7.5 5.5q26 5 38.5 11.5t12.5 19.5q0 6 -3 15zM396 270l-85 225l-87 -225h172zM427 747q5 -5 5 -13q0 -5 -3 -11t-12 -13q-25 10 -44.5 18
t-36.5 14t-35 11.5t-40 11.5q-14 4 -20.5 13t-6.5 21q0 17 15.5 36t47.5 30z" />
    <glyph glyph-name="Aacute" unicode="&#xc1;" 
d="M415 220h-210l-52 -139q-3 -5 -4 -11t-1 -9q0 -11 10.5 -18t42.5 -12q14 -2 14 -19q0 -7 -2 -17q-27 2 -57 3.5t-59 1.5q-20 0 -42 -1t-49 -4q-2 4 -2 9v8q0 19 13 20q31 6 44.5 13t21.5 24l241 576q8 17 24 17q5 0 10 -0.5t11 -1.5l241 -594q6 -15 23 -22.5t37 -10.5
q15 -3 15 -20q0 -8 -2 -18q-32 2 -63 3.5t-58 1.5q-14 0 -34 -0.5t-41 -1.5t-41.5 -1.5t-34.5 -1.5q-2 4 -2 9v8q0 9 3.5 13.5t7.5 5.5q26 5 38.5 11.5t12.5 19.5q0 6 -3 15zM396 270l-85 225l-87 -225h172zM411 865q32 -11 47.5 -30t15.5 -36q0 -12 -6.5 -21t-20.5 -13
q-22 -6 -40 -11.5t-35.5 -11.5t-37 -14t-43.5 -18q-9 7 -12 13t-3 11q0 8 5 13z" />
    <glyph glyph-name="Acircumflex" unicode="&#xc2;" 
d="M415 220h-210l-52 -139q-3 -5 -4 -11t-1 -9q0 -11 10.5 -18t42.5 -12q14 -2 14 -19q0 -7 -2 -17q-27 2 -57 3.5t-59 1.5q-20 0 -42 -1t-49 -4q-2 4 -2 9v8q0 19 13 20q31 6 44.5 13t21.5 24l241 576q8 17 24 17q5 0 10 -0.5t11 -1.5l241 -594q6 -15 23 -22.5t37 -10.5
q15 -3 15 -20q0 -8 -2 -18q-32 2 -63 3.5t-58 1.5q-14 0 -34 -0.5t-41 -1.5t-41.5 -1.5t-34.5 -1.5q-2 4 -2 9v8q0 9 3.5 13.5t7.5 5.5q26 5 38.5 11.5t12.5 19.5q0 6 -3 15zM396 270l-85 225l-87 -225h172zM494 743q3 -3 3 -9t-5 -12.5t-17 -11.5q-32 20 -62 38t-60 33
q-29 -16 -55.5 -33t-55.5 -38q-11 5 -16.5 11.5t-5.5 12.5q0 4 3 9l109 121q27 0 41 -6t31 -22z" />
    <glyph glyph-name="Atilde" unicode="&#xc3;" 
d="M415 220h-210l-52 -139q-3 -5 -4 -11t-1 -9q0 -11 10.5 -18t42.5 -12q14 -2 14 -19q0 -7 -2 -17q-27 2 -57 3.5t-59 1.5q-20 0 -42 -1t-49 -4q-2 4 -2 9v8q0 19 13 20q31 6 44.5 13t21.5 24l241 576q8 17 24 17q5 0 10 -0.5t11 -1.5l241 -594q6 -15 23 -22.5t37 -10.5
q15 -3 15 -20q0 -8 -2 -18q-32 2 -63 3.5t-58 1.5q-14 0 -34 -0.5t-41 -1.5t-41.5 -1.5t-34.5 -1.5q-2 4 -2 9v8q0 9 3.5 13.5t7.5 5.5q26 5 38.5 11.5t12.5 19.5q0 6 -3 15zM396 270l-85 225l-87 -225h172zM211 741q21 32 50.5 55t56.5 23q9 0 22 -3t34 -14
q16 -8 26.5 -10.5t18.5 -2.5q23 0 39 7.5t30 22.5q12 -5 16 -10.5t4 -10.5q0 -7 -4 -12q-23 -35 -48.5 -55.5t-53.5 -20.5q-11 0 -26 3.5t-31 11.5q-34 17 -51 17t-33 -7.5t-33 -24.5q-11 4 -15.5 10t-4.5 12q0 2 1 4.5t2 4.5z" />
    <glyph glyph-name="Adieresis" unicode="&#xc4;" 
d="M415 220h-210l-52 -139q-3 -5 -4 -11t-1 -9q0 -11 10.5 -18t42.5 -12q14 -2 14 -19q0 -7 -2 -17q-27 2 -57 3.5t-59 1.5q-20 0 -42 -1t-49 -4q-2 4 -2 9v8q0 19 13 20q31 6 44.5 13t21.5 24l241 576q8 17 24 17q5 0 10 -0.5t11 -1.5l241 -594q6 -15 23 -22.5t37 -10.5
q15 -3 15 -20q0 -8 -2 -18q-32 2 -63 3.5t-58 1.5q-14 0 -34 -0.5t-41 -1.5t-41.5 -1.5t-34.5 -1.5q-2 4 -2 9v8q0 9 3.5 13.5t7.5 5.5q26 5 38.5 11.5t12.5 19.5q0 6 -3 15zM396 270l-85 225l-87 -225h172zM520 776q0 -29 -18 -47.5t-44 -18.5q-29 0 -48.5 18.5t-19.5 47.5
q0 26 19.5 46.5t48.5 20.5q26 0 44 -20.5t18 -46.5zM319 776q0 -29 -18 -47.5t-44 -18.5q-29 0 -48.5 18.5t-19.5 47.5q0 26 19.5 46.5t48.5 20.5q26 0 44 -20.5t18 -46.5z" />
    <glyph glyph-name="Aring" unicode="&#xc5;" 
d="M415 220h-210l-52 -139q-3 -5 -4 -11t-1 -9q0 -11 10.5 -18t42.5 -12q14 -2 14 -19q0 -7 -2 -17q-27 2 -57 3.5t-59 1.5q-20 0 -42 -1t-49 -4q-2 4 -2 9v8q0 19 13 20q31 6 44.5 13t21.5 24l241 576q8 17 24 17q5 0 10 -0.5t11 -1.5l241 -594q6 -15 23 -22.5t37 -10.5
q15 -3 15 -20q0 -8 -2 -18q-32 2 -63 3.5t-58 1.5q-14 0 -34 -0.5t-41 -1.5t-41.5 -1.5t-34.5 -1.5q-2 4 -2 9v8q0 9 3.5 13.5t7.5 5.5q26 5 38.5 11.5t12.5 19.5q0 6 -3 15zM396 270l-85 225l-87 -225h172zM251 804q0 22 8.5 40t23 30.5t33 19.5t39.5 7q19 0 37 -6.5
t32 -19.5t23 -31t9 -40q0 -23 -9 -41t-23 -30.5t-32.5 -19.5t-37.5 -7q-20 0 -38.5 6.5t-33 19.5t-23 31t-8.5 41zM348 857q-13 0 -26 -12t-13 -36q0 -22 14 -40t32 -18q42 0 42 47q0 23 -11.5 41t-37.5 18z" />
    <glyph glyph-name="AE" unicode="&#xc6;" horiz-adv-x="916" 
d="M430 287h-178l-99 -206q-3 -5 -4 -11t-1 -9q0 -11 10.5 -18t42.5 -12q14 -2 14 -19q0 -7 -2 -17q-27 2 -57 3.5t-59 1.5q-20 0 -42 -1t-49 -4q-2 4 -2 9v8q0 19 13 20q31 6 44.5 13t21.5 24l256 510q6 10 6 18q0 2 -1 5t-7 6t-17.5 5.5t-32.5 4.5q-10 1 -10 18v9.5t2 9.5
q43 -3 76 -4t57 -1h277q46 0 78.5 3t43.5 3t16 -9q3 -8 5 -29.5t7 -44.5q3 -17 7 -33t12 -39q-4 -2 -10.5 -4t-12.5 -2q-11 0 -15 9q-12 26 -23.5 44.5t-26 30t-34 16.5t-47.5 5h-133v-263h142q15 0 23 14t14 52q3 13 19 13q3 0 9.5 -0.5t9.5 -1.5q-2 -23 -3.5 -53.5
t-1.5 -51.5q0 -18 1 -42.5t4 -55.5q-3 -2 -9 -2.5t-9 -0.5q-17 0 -20 14q-5 39 -14 52t-23 13h-142v-202q0 -21 26 -28t88 -7h42q30 0 50.5 8t36.5 22.5t28 34t24 43.5q4 7 14 7q6 0 13 -3t13 -6q-2 -8 -4.5 -15t-4.5 -14q-4 -11 -7.5 -24t-5.5 -21q-3 -10 -5.5 -22.5
t-5 -24t-5 -20.5t-3.5 -12q-3 -8 -16 -8q-7 0 -22 1t-33 1.5t-36 1.5t-31 1h-227q-29 0 -66.5 -1.5t-67.5 -3.5q-1 4 -1.5 10.5t-0.5 9.5q0 14 10 16q38 7 54.5 15t16.5 28v213zM430 337v247q0 8 -4.5 11.5t-9.5 3.5t-9.5 -2.5t-7.5 -9.5l-125 -250h156z" />
    <glyph glyph-name="Ccedilla" unicode="&#xc7;" horiz-adv-x="660" 
d="M582 5q-77 -15 -169 -16q-3 -8 -5.5 -17t-2.5 -17t3 -15.5t14 -18.5q14 -17 20.5 -30t6.5 -28q0 -32 -30 -58.5t-84 -42.5q-6 7 -8 12.5t-2 9.5q0 9 6 12q20 14 28 26t8 26q0 17 -19 37q-20 25 -20 37q0 17 8 30t32 36q-84 0 -146 26t-103.5 71.5t-61.5 107t-20 132.5
q0 59 20 119t63 108.5t110 79t160 30.5q51 0 95.5 -7t96.5 -21q2 -27 8 -69t17 -82q-5 -1 -13 -2.5t-12 -1.5q-8 0 -13.5 2.5t-7.5 10.5q-11 33 -25 55.5t-33.5 36t-45.5 19.5t-61 6q-54 0 -95.5 -18.5t-69.5 -53t-42.5 -83t-14.5 -109.5q0 -65 17.5 -121t48 -97t72.5 -64
t91 -23q40 0 68.5 7.5t49 23t35 39.5t26.5 56q3 8 9.5 11.5t13.5 3.5q5 0 12.5 -1.5t12.5 -3.5q-6 -17 -12.5 -38.5t-13.5 -44t-12.5 -45t-9.5 -43.5z" />
    <glyph glyph-name="Egrave" unicode="&#xc8;" horiz-adv-x="607" 
d="M247 600v-241h141q19 0 26 15.5t12 50.5q1 8 6 10.5t13 2.5q3 0 9.5 -0.5t9.5 -1.5q-2 -23 -3.5 -53.5t-1.5 -51.5q0 -18 1 -42.5t4 -55.5q-3 -2 -9.5 -2.5t-9.5 -0.5q-18 0 -19 14q-6 38 -13.5 51.5t-24.5 13.5h-141v-224q0 -21 26 -28t88 -7h42q30 0 50.5 8t36.5 22.5
t28 34t24 43.5q3 7 14 7q5 0 12 -3l14 -6q-2 -8 -4.5 -15t-4.5 -14q-5 -11 -8 -24t-6 -21l-4.5 -22.5t-5 -24t-5 -20.5t-3.5 -12q-4 -8 -16 -8q-8 0 -23 1t-32.5 1.5t-35.5 1.5t-31 1h-227q-29 0 -66.5 -1.5t-67.5 -3.5q-2 4 -2 10.5v9.5q0 15 10 16q38 7 54.5 15t16.5 28
v501q0 10 -3 16.5t-11.5 11t-22 8t-34.5 7.5q-10 3 -10 18v9.5t2 9.5q43 -3 76 -4t57 -1h205q45 0 77.5 3t44.5 3q11 0 16 -9q3 -8 5 -29.5t7 -44.5q3 -17 7 -33t12 -39q-5 -2 -11 -4t-12 -2q-11 0 -16 9q-12 26 -23.5 44.5t-26 30t-34 16.5t-46.5 5h-133zM388 747
q5 -5 5 -13q0 -5 -3 -11t-12 -13q-25 10 -44.5 18t-36.5 14t-35 11.5t-40 11.5q-14 4 -20.5 13t-6.5 21q0 17 15.5 36t47.5 30z" />
    <glyph glyph-name="Eacute" unicode="&#xc9;" horiz-adv-x="607" 
d="M247 600v-241h141q19 0 26 15.5t12 50.5q1 8 6 10.5t13 2.5q3 0 9.5 -0.5t9.5 -1.5q-2 -23 -3.5 -53.5t-1.5 -51.5q0 -18 1 -42.5t4 -55.5q-3 -2 -9.5 -2.5t-9.5 -0.5q-18 0 -19 14q-6 38 -13.5 51.5t-24.5 13.5h-141v-224q0 -21 26 -28t88 -7h42q30 0 50.5 8t36.5 22.5
t28 34t24 43.5q3 7 14 7q5 0 12 -3l14 -6q-2 -8 -4.5 -15t-4.5 -14q-5 -11 -8 -24t-6 -21l-4.5 -22.5t-5 -24t-5 -20.5t-3.5 -12q-4 -8 -16 -8q-8 0 -23 1t-32.5 1.5t-35.5 1.5t-31 1h-227q-29 0 -66.5 -1.5t-67.5 -3.5q-2 4 -2 10.5v9.5q0 15 10 16q38 7 54.5 15t16.5 28
v501q0 10 -3 16.5t-11.5 11t-22 8t-34.5 7.5q-10 3 -10 18v9.5t2 9.5q43 -3 76 -4t57 -1h205q45 0 77.5 3t44.5 3q11 0 16 -9q3 -8 5 -29.5t7 -44.5q3 -17 7 -33t12 -39q-5 -2 -11 -4t-12 -2q-11 0 -16 9q-12 26 -23.5 44.5t-26 30t-34 16.5t-46.5 5h-133zM354 865
q32 -11 47.5 -30t15.5 -36q0 -12 -6.5 -21t-20.5 -13q-22 -6 -40 -11.5t-35.5 -11.5t-37 -14t-43.5 -18q-9 7 -12 13t-3 11q0 8 5 13z" />
    <glyph glyph-name="Ecircumflex" unicode="&#xca;" horiz-adv-x="607" 
d="M247 600v-241h141q19 0 26 15.5t12 50.5q1 8 6 10.5t13 2.5q3 0 9.5 -0.5t9.5 -1.5q-2 -23 -3.5 -53.5t-1.5 -51.5q0 -18 1 -42.5t4 -55.5q-3 -2 -9.5 -2.5t-9.5 -0.5q-18 0 -19 14q-6 38 -13.5 51.5t-24.5 13.5h-141v-224q0 -21 26 -28t88 -7h42q30 0 50.5 8t36.5 22.5
t28 34t24 43.5q3 7 14 7q5 0 12 -3l14 -6q-2 -8 -4.5 -15t-4.5 -14q-5 -11 -8 -24t-6 -21l-4.5 -22.5t-5 -24t-5 -20.5t-3.5 -12q-4 -8 -16 -8q-8 0 -23 1t-32.5 1.5t-35.5 1.5t-31 1h-227q-29 0 -66.5 -1.5t-67.5 -3.5q-2 4 -2 10.5v9.5q0 15 10 16q38 7 54.5 15t16.5 28
v501q0 10 -3 16.5t-11.5 11t-22 8t-34.5 7.5q-10 3 -10 18v9.5t2 9.5q43 -3 76 -4t57 -1h205q45 0 77.5 3t44.5 3q11 0 16 -9q3 -8 5 -29.5t7 -44.5q3 -17 7 -33t12 -39q-5 -2 -11 -4t-12 -2q-11 0 -16 9q-12 26 -23.5 44.5t-26 30t-34 16.5t-46.5 5h-133zM443 743
q3 -3 3 -9t-5 -12.5t-17 -11.5q-32 20 -62 38t-60 33q-29 -16 -55.5 -33t-55.5 -38q-11 5 -16.5 11.5t-5.5 12.5q0 4 3 9l109 121q27 0 41 -6t31 -22z" />
    <glyph glyph-name="Edieresis" unicode="&#xcb;" horiz-adv-x="607" 
d="M247 600v-241h141q19 0 26 15.5t12 50.5q1 8 6 10.5t13 2.5q3 0 9.5 -0.5t9.5 -1.5q-2 -23 -3.5 -53.5t-1.5 -51.5q0 -18 1 -42.5t4 -55.5q-3 -2 -9.5 -2.5t-9.5 -0.5q-18 0 -19 14q-6 38 -13.5 51.5t-24.5 13.5h-141v-224q0 -21 26 -28t88 -7h42q30 0 50.5 8t36.5 22.5
t28 34t24 43.5q3 7 14 7q5 0 12 -3l14 -6q-2 -8 -4.5 -15t-4.5 -14q-5 -11 -8 -24t-6 -21l-4.5 -22.5t-5 -24t-5 -20.5t-3.5 -12q-4 -8 -16 -8q-8 0 -23 1t-32.5 1.5t-35.5 1.5t-31 1h-227q-29 0 -66.5 -1.5t-67.5 -3.5q-2 4 -2 10.5v9.5q0 15 10 16q38 7 54.5 15t16.5 28
v501q0 10 -3 16.5t-11.5 11t-22 8t-34.5 7.5q-10 3 -10 18v9.5t2 9.5q43 -3 76 -4t57 -1h205q45 0 77.5 3t44.5 3q11 0 16 -9q3 -8 5 -29.5t7 -44.5q3 -17 7 -33t12 -39q-5 -2 -11 -4t-12 -2q-11 0 -16 9q-12 26 -23.5 44.5t-26 30t-34 16.5t-46.5 5h-133zM468 776
q0 -29 -18 -47.5t-44 -18.5q-29 0 -48.5 18.5t-19.5 47.5q0 26 19.5 46.5t48.5 20.5q26 0 44 -20.5t18 -46.5zM267 776q0 -29 -18 -47.5t-44 -18.5q-29 0 -48.5 18.5t-19.5 47.5q0 26 19.5 46.5t48.5 20.5q26 0 44 -20.5t18 -46.5z" />
    <glyph glyph-name="Igrave" unicode="&#xcc;" horiz-adv-x="350" 
d="M238 74q0 -10 1.5 -16.5t8 -11.5t19 -8.5t33.5 -6.5q10 -2 10 -17q0 -3 -0.5 -9t-1.5 -10q-32 2 -68.5 3.5t-64.5 1.5q-29 0 -65 -1.5t-68 -3.5q-2 4 -2 10v9q0 16 10 17q21 3 33.5 6.5t18.5 8.5t8 11.5t2 16.5v501q0 10 -2 16.5t-8 11.5t-18.5 8.5t-33.5 6.5
q-10 3 -10 17v9t2 11q32 -2 68 -3.5t65 -1.5q28 0 64.5 1.5t68.5 3.5q1 -5 1.5 -11t0.5 -9q0 -14 -10 -17q-21 -3 -33.5 -6.5t-19 -8.5t-8 -11.5t-1.5 -16.5v-501zM269 747q5 -5 5 -13q0 -5 -3 -11t-12 -13q-25 10 -44.5 18t-36.5 14t-35 11.5t-40 11.5q-14 4 -20.5 13
t-6.5 21q0 17 15.5 36t47.5 30z" />
    <glyph glyph-name="Iacute" unicode="&#xcd;" horiz-adv-x="350" 
d="M238 74q0 -10 1.5 -16.5t8 -11.5t19 -8.5t33.5 -6.5q10 -2 10 -17q0 -3 -0.5 -9t-1.5 -10q-32 2 -68.5 3.5t-64.5 1.5q-29 0 -65 -1.5t-68 -3.5q-2 4 -2 10v9q0 16 10 17q21 3 33.5 6.5t18.5 8.5t8 11.5t2 16.5v501q0 10 -2 16.5t-8 11.5t-18.5 8.5t-33.5 6.5
q-10 3 -10 17v9t2 11q32 -2 68 -3.5t65 -1.5q28 0 64.5 1.5t68.5 3.5q1 -5 1.5 -11t0.5 -9q0 -14 -10 -17q-21 -3 -33.5 -6.5t-19 -8.5t-8 -11.5t-1.5 -16.5v-501zM219 865q32 -11 47.5 -30t15.5 -36q0 -12 -6.5 -21t-20.5 -13q-22 -6 -40 -11.5t-35.5 -11.5t-37 -14
t-43.5 -18q-9 7 -12 13t-3 11q0 8 5 13z" />
    <glyph glyph-name="Icircumflex" unicode="&#xce;" horiz-adv-x="350" 
d="M238 74q0 -10 1.5 -16.5t8 -11.5t19 -8.5t33.5 -6.5q10 -2 10 -17q0 -3 -0.5 -9t-1.5 -10q-32 2 -68.5 3.5t-64.5 1.5q-29 0 -65 -1.5t-68 -3.5q-2 4 -2 10v9q0 16 10 17q21 3 33.5 6.5t18.5 8.5t8 11.5t2 16.5v501q0 10 -2 16.5t-8 11.5t-18.5 8.5t-33.5 6.5
q-10 3 -10 17v9t2 11q32 -2 68 -3.5t65 -1.5q28 0 64.5 1.5t68.5 3.5q1 -5 1.5 -11t0.5 -9q0 -14 -10 -17q-21 -3 -33.5 -6.5t-19 -8.5t-8 -11.5t-1.5 -16.5v-501zM310 743q3 -3 3 -9t-5 -12.5t-17 -11.5q-32 20 -62 38t-60 33q-29 -16 -55.5 -33t-55.5 -38
q-11 5 -16.5 11.5t-5.5 12.5q0 4 3 9l109 121q27 0 41 -6t31 -22z" />
    <glyph glyph-name="Idieresis" unicode="&#xcf;" horiz-adv-x="350" 
d="M238 74q0 -10 1.5 -16.5t8 -11.5t19 -8.5t33.5 -6.5q10 -2 10 -17q0 -3 -0.5 -9t-1.5 -10q-32 2 -68.5 3.5t-64.5 1.5q-29 0 -65 -1.5t-68 -3.5q-2 4 -2 10v9q0 16 10 17q21 3 33.5 6.5t18.5 8.5t8 11.5t2 16.5v501q0 10 -2 16.5t-8 11.5t-18.5 8.5t-33.5 6.5
q-10 3 -10 17v9t2 11q32 -2 68 -3.5t65 -1.5q28 0 64.5 1.5t68.5 3.5q1 -5 1.5 -11t0.5 -9q0 -14 -10 -17q-21 -3 -33.5 -6.5t-19 -8.5t-8 -11.5t-1.5 -16.5v-501zM342 776q0 -29 -18 -47.5t-44 -18.5q-29 0 -48.5 18.5t-19.5 47.5q0 26 19.5 46.5t48.5 20.5q26 0 44 -20.5
t18 -46.5zM141 776q0 -29 -18 -47.5t-44 -18.5q-29 0 -48.5 18.5t-19.5 47.5q0 26 19.5 46.5t48.5 20.5q26 0 44 -20.5t18 -46.5z" />
    <glyph glyph-name="Eth" unicode="&#xd0;" horiz-adv-x="762" 
d="M720 325q0 -59 -20 -117t-62 -104.5t-107 -75t-154 -28.5h-205q-26 0 -60.5 -1.5t-65.5 -3.5q-2 4 -2 9v8q0 11 3.5 14.5t8.5 4.5q29 5 46.5 13.5t17.5 29.5v235h-101q-1 6 -1 10.5v9.5q0 31 16 31h86v215q0 20 -14.5 28.5t-49.5 14.5q-8 2 -10 6.5t-2 12.5v8t2 10
q21 -2 37.5 -2.5t30.5 -1.5t28 -1h29h203q85 0 149.5 -26t108 -70t66 -103t22.5 -126zM582 306q0 78 -18 134t-52.5 91.5t-86 52t-117.5 16.5h-62v-240h167q1 -5 1 -10v-10q0 -31 -16 -31h-152v-223q0 -10 3 -17t12 -11t25 -6t43 -2q130 0 191.5 69t61.5 187z" />
    <glyph glyph-name="Ntilde" unicode="&#xd1;" horiz-adv-x="730" 
d="M564 218v355q0 22 -15 31t-53 14q-13 3 -13 19v8t2 10q25 -3 49 -4t56 -1t55 1t46 4q1 -5 1.5 -10t0.5 -8q0 -17 -12 -19q-33 -5 -45 -14t-12 -29v-585q-4 -1 -13.5 -1.5t-12.5 -0.5q-7 0 -15 3.5t-17 14.5l-394 500v-432q0 -10 1.5 -16.5t8 -11t19 -8t33.5 -7.5
q5 -1 8.5 -4.5t3.5 -14.5q0 -7 -2 -17q-25 2 -47 3.5t-51 1.5t-55.5 -1.5t-48.5 -3.5q-2 4 -2 9v8q0 10 3.5 14t8.5 5q36 6 48 15t12 28v506q0 16 -10.5 24.5t-47.5 13.5q-12 3 -12 19v4.5t1 5.5l1 8q14 -1 27 -1.5t26 -1.5q22 -1 44.5 -1.5t36.5 -0.5q29 0 38 -2.5t16 -9.5
zM226 741q21 32 50.5 55t56.5 23q9 0 22 -3t34 -14q16 -8 26.5 -10.5t18.5 -2.5q23 0 39 7.5t30 22.5q12 -5 16 -10.5t4 -10.5q0 -7 -4 -12q-23 -35 -48.5 -55.5t-53.5 -20.5q-11 0 -26 3.5t-31 11.5q-34 17 -51 17t-33 -7.5t-33 -24.5q-11 4 -15.5 10t-4.5 12q0 2 1 4.5
t2 4.5z" />
    <glyph glyph-name="Ograve" unicode="&#xd2;" horiz-adv-x="747" 
d="M33 325q0 70 26.5 131t72.5 107t107.5 72.5t131.5 26.5q72 0 134 -25t107.5 -70t71.5 -107t26 -135q0 -70 -26.5 -131.5t-72.5 -107t-108 -72t-132 -26.5q-72 0 -134 25t-107 70t-71 106.5t-26 135.5zM386 40q42 0 76 18.5t58.5 50.5t38 75t13.5 92q0 71 -13.5 132
t-41 105.5t-69 70t-96.5 25.5q-35 0 -68 -15.5t-58 -45t-40 -71.5t-15 -95q0 -74 14.5 -137t42 -108.5t67.5 -71t91 -25.5zM466 747q5 -5 5 -13q0 -5 -3 -11t-12 -13q-25 10 -44.5 18t-36.5 14t-35 11.5t-40 11.5q-14 4 -20.5 13t-6.5 21q0 17 15.5 36t47.5 30z" />
    <glyph glyph-name="Oacute" unicode="&#xd3;" horiz-adv-x="747" 
d="M33 325q0 70 26.5 131t72.5 107t107.5 72.5t131.5 26.5q72 0 134 -25t107.5 -70t71.5 -107t26 -135q0 -70 -26.5 -131.5t-72.5 -107t-108 -72t-132 -26.5q-72 0 -134 25t-107 70t-71 106.5t-26 135.5zM386 40q42 0 76 18.5t58.5 50.5t38 75t13.5 92q0 71 -13.5 132
t-41 105.5t-69 70t-96.5 25.5q-35 0 -68 -15.5t-58 -45t-40 -71.5t-15 -95q0 -74 14.5 -137t42 -108.5t67.5 -71t91 -25.5zM423 865q32 -11 47.5 -30t15.5 -36q0 -12 -6.5 -21t-20.5 -13q-22 -6 -40 -11.5t-35.5 -11.5t-37 -14t-43.5 -18q-9 7 -12 13t-3 11q0 8 5 13z" />
    <glyph glyph-name="Ocircumflex" unicode="&#xd4;" horiz-adv-x="747" 
d="M33 325q0 70 26.5 131t72.5 107t107.5 72.5t131.5 26.5q72 0 134 -25t107.5 -70t71.5 -107t26 -135q0 -70 -26.5 -131.5t-72.5 -107t-108 -72t-132 -26.5q-72 0 -134 25t-107 70t-71 106.5t-26 135.5zM386 40q42 0 76 18.5t58.5 50.5t38 75t13.5 92q0 71 -13.5 132
t-41 105.5t-69 70t-96.5 25.5q-35 0 -68 -15.5t-58 -45t-40 -71.5t-15 -95q0 -74 14.5 -137t42 -108.5t67.5 -71t91 -25.5zM508 743q3 -3 3 -9t-5 -12.5t-17 -11.5q-32 20 -62 38t-60 33q-29 -16 -55.5 -33t-55.5 -38q-11 5 -16.5 11.5t-5.5 12.5q0 4 3 9l109 121
q27 0 41 -6t31 -22z" />
    <glyph glyph-name="Otilde" unicode="&#xd5;" horiz-adv-x="747" 
d="M33 325q0 70 26.5 131t72.5 107t107.5 72.5t131.5 26.5q72 0 134 -25t107.5 -70t71.5 -107t26 -135q0 -70 -26.5 -131.5t-72.5 -107t-108 -72t-132 -26.5q-72 0 -134 25t-107 70t-71 106.5t-26 135.5zM386 40q42 0 76 18.5t58.5 50.5t38 75t13.5 92q0 71 -13.5 132
t-41 105.5t-69 70t-96.5 25.5q-35 0 -68 -15.5t-58 -45t-40 -71.5t-15 -95q0 -74 14.5 -137t42 -108.5t67.5 -71t91 -25.5zM242 741q21 32 50.5 55t56.5 23q9 0 22 -3t34 -14q16 -8 26.5 -10.5t18.5 -2.5q23 0 39 7.5t30 22.5q12 -5 16 -10.5t4 -10.5q0 -7 -4 -12
q-23 -35 -48.5 -55.5t-53.5 -20.5q-11 0 -26 3.5t-31 11.5q-34 17 -51 17t-33 -7.5t-33 -24.5q-11 4 -15.5 10t-4.5 12q0 2 1 4.5t2 4.5z" />
    <glyph glyph-name="Odieresis" unicode="&#xd6;" horiz-adv-x="747" 
d="M33 325q0 70 26.5 131t72.5 107t107.5 72.5t131.5 26.5q72 0 134 -25t107.5 -70t71.5 -107t26 -135q0 -70 -26.5 -131.5t-72.5 -107t-108 -72t-132 -26.5q-72 0 -134 25t-107 70t-71 106.5t-26 135.5zM386 40q42 0 76 18.5t58.5 50.5t38 75t13.5 92q0 71 -13.5 132
t-41 105.5t-69 70t-96.5 25.5q-35 0 -68 -15.5t-58 -45t-40 -71.5t-15 -95q0 -74 14.5 -137t42 -108.5t67.5 -71t91 -25.5zM539 776q0 -29 -18 -47.5t-44 -18.5q-29 0 -48.5 18.5t-19.5 47.5q0 26 19.5 46.5t48.5 20.5q26 0 44 -20.5t18 -46.5zM338 776q0 -29 -18 -47.5
t-44 -18.5q-29 0 -48.5 18.5t-19.5 47.5q0 26 19.5 46.5t48.5 20.5q26 0 44 -20.5t18 -46.5z" />
    <glyph glyph-name="multiply" unicode="&#xd7;" horiz-adv-x="494" 
d="M46 363q17 23 28.5 32t19.5 9q6 0 11 -5l138 -137l148 150q24 -17 33 -28.5t9 -19.5q0 -6 -4 -10l-140 -140l158 -154q-17 -23 -28.5 -32.5t-20.5 -9.5q-4 0 -10 4l-145 146l-154 -156q-23 16 -32.5 28t-9.5 20q0 4 4 10l145 145z" />
    <glyph glyph-name="Oslash" unicode="&#xd8;" horiz-adv-x="759" 
d="M41 325q0 70 26.5 131t72.5 107t107.5 72.5t131.5 26.5q48 0 91 -11.5t81 -32.5l45 69q25 -6 33 -13.5t8 -14.5q0 -6 -4 -11l-38 -59q57 -45 90 -112t33 -152q0 -70 -26.5 -131.5t-72.5 -107t-108 -72t-132 -26.5q-84 0 -155 34l-44 -67q-25 6 -33 13.5t-8 14.5t4 11
l35 55q-63 45 -100 115.5t-37 160.5zM179 382q0 -75 14 -137t43 -109l267 409q-27 31 -62 47.5t-81 16.5q-35 0 -68 -15.5t-58 -45t-40 -71.5t-15 -95zM394 40q42 0 76 18.5t58.5 50.5t38 75t13.5 92q0 133 -45 222l-265 -406q26 -26 56 -39t68 -13z" />
    <glyph glyph-name="Ugrave" unicode="&#xd9;" horiz-adv-x="754" 
d="M644 247q0 -57 -12 -104.5t-41.5 -82t-79 -53.5t-124.5 -19q-89 0 -143.5 20t-84 54.5t-39.5 81t-10 99.5v332q0 21 -13 29.5t-53 13.5q-11 2 -11 19v8t2 10q29 -2 61.5 -3.5t77.5 -1.5q35 0 73 1.5t68 3.5q1 -5 1.5 -10t0.5 -8q0 -17 -11 -19q-41 -5 -55.5 -14
t-14.5 -29v-310q0 -104 38.5 -158t132.5 -54q96 0 136.5 50.5t40.5 164.5v307q0 20 -14 29t-53 14q-12 3 -12 19q0 3 0.5 8t1.5 10q29 -3 53.5 -4t52.5 -1q32 0 57 1t49 4q1 -5 1.5 -10t0.5 -8q0 -16 -12 -19q-37 -4 -51 -13.5t-14 -29.5v-328zM490 747q5 -5 5 -13
q0 -5 -3 -11t-12 -13q-25 10 -44.5 18t-36.5 14t-35 11.5t-40 11.5q-14 4 -20.5 13t-6.5 21q0 17 15.5 36t47.5 30z" />
    <glyph glyph-name="Uacute" unicode="&#xda;" horiz-adv-x="754" 
d="M644 247q0 -57 -12 -104.5t-41.5 -82t-79 -53.5t-124.5 -19q-89 0 -143.5 20t-84 54.5t-39.5 81t-10 99.5v332q0 21 -13 29.5t-53 13.5q-11 2 -11 19v8t2 10q29 -2 61.5 -3.5t77.5 -1.5q35 0 73 1.5t68 3.5q1 -5 1.5 -10t0.5 -8q0 -17 -11 -19q-41 -5 -55.5 -14
t-14.5 -29v-310q0 -104 38.5 -158t132.5 -54q96 0 136.5 50.5t40.5 164.5v307q0 20 -14 29t-53 14q-12 3 -12 19q0 3 0.5 8t1.5 10q29 -3 53.5 -4t52.5 -1q32 0 57 1t49 4q1 -5 1.5 -10t0.5 -8q0 -16 -12 -19q-37 -4 -51 -13.5t-14 -29.5v-328zM452 865q32 -11 47.5 -30
t15.5 -36q0 -12 -6.5 -21t-20.5 -13q-22 -6 -40 -11.5t-35.5 -11.5t-37 -14t-43.5 -18q-9 7 -12 13t-3 11q0 8 5 13z" />
    <glyph glyph-name="Ucircumflex" unicode="&#xdb;" horiz-adv-x="754" 
d="M644 247q0 -57 -12 -104.5t-41.5 -82t-79 -53.5t-124.5 -19q-89 0 -143.5 20t-84 54.5t-39.5 81t-10 99.5v332q0 21 -13 29.5t-53 13.5q-11 2 -11 19v8t2 10q29 -2 61.5 -3.5t77.5 -1.5q35 0 73 1.5t68 3.5q1 -5 1.5 -10t0.5 -8q0 -17 -11 -19q-41 -5 -55.5 -14
t-14.5 -29v-310q0 -104 38.5 -158t132.5 -54q96 0 136.5 50.5t40.5 164.5v307q0 20 -14 29t-53 14q-12 3 -12 19q0 3 0.5 8t1.5 10q29 -3 53.5 -4t52.5 -1q32 0 57 1t49 4q1 -5 1.5 -10t0.5 -8q0 -16 -12 -19q-37 -4 -51 -13.5t-14 -29.5v-328zM545 743q3 -3 3 -9t-5 -12.5
t-17 -11.5q-32 20 -62 38t-60 33q-29 -16 -55.5 -33t-55.5 -38q-11 5 -16.5 11.5t-5.5 12.5q0 4 3 9l109 121q27 0 41 -6t31 -22z" />
    <glyph glyph-name="Udieresis" unicode="&#xdc;" horiz-adv-x="754" 
d="M644 247q0 -57 -12 -104.5t-41.5 -82t-79 -53.5t-124.5 -19q-89 0 -143.5 20t-84 54.5t-39.5 81t-10 99.5v332q0 21 -13 29.5t-53 13.5q-11 2 -11 19v8t2 10q29 -2 61.5 -3.5t77.5 -1.5q35 0 73 1.5t68 3.5q1 -5 1.5 -10t0.5 -8q0 -17 -11 -19q-41 -5 -55.5 -14
t-14.5 -29v-310q0 -104 38.5 -158t132.5 -54q96 0 136.5 50.5t40.5 164.5v307q0 20 -14 29t-53 14q-12 3 -12 19q0 3 0.5 8t1.5 10q29 -3 53.5 -4t52.5 -1q32 0 57 1t49 4q1 -5 1.5 -10t0.5 -8q0 -16 -12 -19q-37 -4 -51 -13.5t-14 -29.5v-328zM576 776q0 -29 -18 -47.5
t-44 -18.5q-29 0 -48.5 18.5t-19.5 47.5q0 26 19.5 46.5t48.5 20.5q26 0 44 -20.5t18 -46.5zM375 776q0 -29 -18 -47.5t-44 -18.5q-29 0 -48.5 18.5t-19.5 47.5q0 26 19.5 46.5t48.5 20.5q26 0 44 -20.5t18 -46.5z" />
    <glyph glyph-name="Yacute" unicode="&#xdd;" horiz-adv-x="626" 
d="M245 274l-159 303q-11 21 -27.5 29t-42.5 12q-12 1 -12 20v4.5t1 5.5l1 7q22 -2 56.5 -3.5t75.5 -1.5q14 0 33.5 0.5t39.5 1t37.5 1.5t28.5 2q2 -9 2 -12.5v-5.5q0 -17 -12 -19q-26 -3 -36 -8.5t-10 -14.5q0 -8 7 -21l117 -232l115 216q11 19 11 32q0 12 -11 17.5
t-38 10.5q-13 2 -13 19q0 4 3 18q21 -2 52.5 -3.5t55.5 -1.5q23 0 48.5 1t51.5 4q2 -7 2 -11.5v-6.5q0 -18 -12 -19q-36 -5 -50 -13t-24 -25l-165 -304v-199q0 -11 3 -18t11 -12t21.5 -8.5t35.5 -6.5q5 -1 8.5 -4.5t3.5 -14.5q0 -2 -0.5 -4.5t-0.5 -5.5l-1 -7q-16 0 -30 0.5
t-28 1.5q-24 2 -49.5 2.5t-42.5 0.5q-18 0 -41.5 -0.5t-45.5 -2.5q-13 -1 -25.5 -1.5t-25.5 -0.5l-1 7q-1 3 -1 5.5v4.5q0 11 3.5 14.5t8.5 4.5q21 4 35 7.5t22 8t11 11.5t3 18v197zM392 865q32 -11 47.5 -30t15.5 -36q0 -12 -6.5 -21t-20.5 -13q-22 -6 -40 -11.5
t-35.5 -11.5t-37 -14t-43.5 -18q-9 7 -12 13t-3 11q0 8 5 13z" />
    <glyph glyph-name="Thorn" unicode="&#xde;" horiz-adv-x="589" 
d="M244 74q0 -10 1.5 -16.5t8 -11.5t19 -8.5t33.5 -6.5q10 -2 10 -17q0 -3 -0.5 -9t-1.5 -10q-32 2 -69 3.5t-65 1.5q-29 0 -65.5 -1.5t-68.5 -3.5q-2 4 -2 10v9q0 16 10 17q21 3 33.5 6.5t18.5 8.5t8 11.5t2 16.5v501q0 10 -2 16.5t-8 11.5t-18.5 8.5t-33.5 6.5
q-10 3 -10 17v9t2 11q32 -2 68.5 -3.5t65.5 -1.5q28 0 65 1.5t69 3.5q1 -5 1.5 -11t0.5 -9q0 -14 -10 -17q-21 -3 -33.5 -6.5t-19 -8.5t-8 -11.5t-1.5 -16.5v-57h80q54 0 96 -13.5t71.5 -38t45 -59t15.5 -76.5q0 -37 -16 -71t-46 -59.5t-72 -41t-93 -15.5h-81v-70zM244 191
h34q62 0 98.5 31t36.5 105q0 31 -6.5 57t-22 45.5t-41.5 30.5t-65 11h-34v-280z" />
    <glyph glyph-name="germandbls" unicode="&#xdf;" horiz-adv-x="556" 
d="M294 656q-15 0 -29.5 -5.5t-26.5 -18t-19 -33t-7 -50.5v-493q0 -18 7 -25q3 -5 7 -8.5t4 -8.5q0 -9 -2 -19q-25 2 -40 3.5t-35 1.5q-23 0 -52 -1.5t-55 -3.5q-2 4 -2 9v10q0 11 11 13q29 6 36.5 12.5t7.5 21.5v424q0 49 16 89t43.5 68t64 43t77.5 15q86 0 136.5 -33
t50.5 -89q0 -10 -2.5 -19.5t-9 -20.5t-17.5 -25.5t-28 -33.5q-24 -27 -32 -44.5t-8 -32.5t11.5 -37.5t45.5 -57.5q42 -44 60.5 -75.5t18.5 -63.5q0 -38 -16.5 -71t-44 -57t-63.5 -38t-76 -14q-8 0 -20.5 1t-24.5 3.5t-20.5 7t-8.5 11.5q0 12 3.5 25t9.5 23.5t12.5 17
t12.5 6.5q5 0 8.5 -2.5t8.5 -5.5q16 -13 29.5 -21t27.5 -8q17 0 32.5 15.5t15.5 54.5q0 23 -16.5 51.5t-54.5 70.5q-35 38 -50.5 65t-15.5 53q0 13 3 24t9.5 22.5t18 26t29.5 34.5q24 27 33.5 51.5t9.5 41.5q0 28 -8 47.5t-20 31t-27 16.5t-29 5z" />
    <glyph glyph-name="agrave" unicode="&#xe0;" horiz-adv-x="487" 
d="M467 31q15 0 15 -25q-13 -9 -32.5 -13.5t-39.5 -4.5q-45 0 -69 22t-28 51q-20 -40 -53.5 -56.5t-78.5 -16.5q-21 0 -46.5 3.5t-47 14.5t-36.5 31t-15 53q0 37 19 63t47.5 43.5t62.5 28t64 17.5q13 3 27 6.5l22 5.5q11 3 14 8.5t3 28.5q0 51 -15 78.5t-51 27.5
q-29 0 -41.5 -18t-23.5 -57q-3 -11 -17.5 -16.5t-36.5 -11.5q-12 -3 -24.5 -5t-22.5 -2q-6 0 -8 4.5t-2 17.5q0 25 18.5 49t46.5 42.5t61.5 29.5t64.5 11q37 0 67 -6.5t51.5 -23t33.5 -44t12 -70.5v-176q0 -35 1.5 -51t5.5 -24q9 -18 28 -18q8 0 13.5 1.5t10.5 1.5zM295 218
l-22 -4q-23 -4 -43 -11.5t-34.5 -20t-23 -31t-8.5 -44.5q0 -39 12.5 -54.5t36.5 -15.5q38 0 60 28t22 78v75zM322 526q1 -2 2 -4.5t1 -5.5q0 -6 -4.5 -12.5t-17.5 -11.5q-23 19 -39.5 32.5t-31.5 24t-30.5 19.5t-34.5 20q-18 10 -18 30t20 38t59 18z" />
    <glyph glyph-name="aacute" unicode="&#xe1;" horiz-adv-x="487" 
d="M467 31q15 0 15 -25q-13 -9 -32.5 -13.5t-39.5 -4.5q-45 0 -69 22t-28 51q-20 -40 -53.5 -56.5t-78.5 -16.5q-21 0 -46.5 3.5t-47 14.5t-36.5 31t-15 53q0 37 19 63t47.5 43.5t62.5 28t64 17.5q13 3 27 6.5l22 5.5q11 3 14 8.5t3 28.5q0 51 -15 78.5t-51 27.5
q-29 0 -41.5 -18t-23.5 -57q-3 -11 -17.5 -16.5t-36.5 -11.5q-12 -3 -24.5 -5t-22.5 -2q-6 0 -8 4.5t-2 17.5q0 25 18.5 49t46.5 42.5t61.5 29.5t64.5 11q37 0 67 -6.5t51.5 -23t33.5 -44t12 -70.5v-176q0 -35 1.5 -51t5.5 -24q9 -18 28 -18q8 0 13.5 1.5t10.5 1.5zM295 218
l-22 -4q-23 -4 -43 -11.5t-34.5 -20t-23 -31t-8.5 -44.5q0 -39 12.5 -54.5t36.5 -15.5q38 0 60 28t22 78v75zM270 674q39 0 59.5 -18t20.5 -38t-19 -30q-18 -11 -33.5 -20t-31 -20t-32.5 -24.5t-39 -31.5q-13 5 -17.5 11t-4.5 12t3 11z" />
    <glyph glyph-name="acircumflex" unicode="&#xe2;" horiz-adv-x="487" 
d="M467 31q15 0 15 -25q-13 -9 -32.5 -13.5t-39.5 -4.5q-45 0 -69 22t-28 51q-20 -40 -53.5 -56.5t-78.5 -16.5q-21 0 -46.5 3.5t-47 14.5t-36.5 31t-15 53q0 37 19 63t47.5 43.5t62.5 28t64 17.5q13 3 27 6.5l22 5.5q11 3 14 8.5t3 28.5q0 51 -15 78.5t-51 27.5
q-29 0 -41.5 -18t-23.5 -57q-3 -11 -17.5 -16.5t-36.5 -11.5q-12 -3 -24.5 -5t-22.5 -2q-6 0 -8 4.5t-2 17.5q0 25 18.5 49t46.5 42.5t61.5 29.5t64.5 11q37 0 67 -6.5t51.5 -23t33.5 -44t12 -70.5v-176q0 -35 1.5 -51t5.5 -24q9 -18 28 -18q8 0 13.5 1.5t10.5 1.5zM295 218
l-22 -4q-23 -4 -43 -11.5t-34.5 -20t-23 -31t-8.5 -44.5q0 -39 12.5 -54.5t36.5 -15.5q38 0 60 28t22 78v75zM376 525q3 -3 3 -10q0 -6 -4.5 -12t-17.5 -11q-33 30 -62 54.5t-55 39.5q-24 -16 -48.5 -38.5t-57.5 -55.5q-22 10 -22 24q0 4 3 9l104 149q30 0 45.5 -6.5
t26.5 -21.5z" />
    <glyph glyph-name="atilde" unicode="&#xe3;" horiz-adv-x="487" 
d="M467 31q15 0 15 -25q-13 -9 -32.5 -13.5t-39.5 -4.5q-45 0 -69 22t-28 51q-20 -40 -53.5 -56.5t-78.5 -16.5q-21 0 -46.5 3.5t-47 14.5t-36.5 31t-15 53q0 37 19 63t47.5 43.5t62.5 28t64 17.5q13 3 27 6.5l22 5.5q11 3 14 8.5t3 28.5q0 51 -15 78.5t-51 27.5
q-29 0 -41.5 -18t-23.5 -57q-3 -11 -17.5 -16.5t-36.5 -11.5q-12 -3 -24.5 -5t-22.5 -2q-6 0 -8 4.5t-2 17.5q0 25 18.5 49t46.5 42.5t61.5 29.5t64.5 11q37 0 67 -6.5t51.5 -23t33.5 -44t12 -70.5v-176q0 -35 1.5 -51t5.5 -24q9 -18 28 -18q8 0 13.5 1.5t10.5 1.5zM295 218
l-22 -4q-23 -4 -43 -11.5t-34.5 -20t-23 -31t-8.5 -44.5q0 -39 12.5 -54.5t36.5 -15.5q38 0 60 28t22 78v75zM108 563q21 31 49.5 54t55.5 23q12 0 25 -4t27 -11q17 -8 27.5 -11.5t20.5 -3.5q23 0 38 8t29 22q11 -4 15 -9.5t4 -11.5q0 -7 -3 -11q-24 -35 -49 -56t-52 -21
q-15 0 -30 5t-35 14q-16 8 -25 10.5t-17 2.5q-17 0 -32 -7t-31 -25q-12 5 -16 11t-4 11t3 10z" />
    <glyph glyph-name="adieresis" unicode="&#xe4;" horiz-adv-x="487" 
d="M467 31q15 0 15 -25q-13 -9 -32.5 -13.5t-39.5 -4.5q-45 0 -69 22t-28 51q-20 -40 -53.5 -56.5t-78.5 -16.5q-21 0 -46.5 3.5t-47 14.5t-36.5 31t-15 53q0 37 19 63t47.5 43.5t62.5 28t64 17.5q13 3 27 6.5l22 5.5q11 3 14 8.5t3 28.5q0 51 -15 78.5t-51 27.5
q-29 0 -41.5 -18t-23.5 -57q-3 -11 -17.5 -16.5t-36.5 -11.5q-12 -3 -24.5 -5t-22.5 -2q-6 0 -8 4.5t-2 17.5q0 25 18.5 49t46.5 42.5t61.5 29.5t64.5 11q37 0 67 -6.5t51.5 -23t33.5 -44t12 -70.5v-176q0 -35 1.5 -51t5.5 -24q9 -18 28 -18q8 0 13.5 1.5t10.5 1.5zM295 218
l-22 -4q-23 -4 -43 -11.5t-34.5 -20t-23 -31t-8.5 -44.5q0 -39 12.5 -54.5t36.5 -15.5q38 0 60 28t22 78v75zM209 593q0 -28 -17.5 -46.5t-43.5 -18.5q-28 0 -47 18.5t-19 46.5q0 26 19 46t47 20q26 0 43.5 -20t17.5 -46zM406 593q0 -28 -17.5 -46.5t-43.5 -18.5
q-29 0 -47.5 18.5t-18.5 46.5q0 26 18.5 46t47.5 20q26 0 43.5 -20t17.5 -46z" />
    <glyph glyph-name="aring" unicode="&#xe5;" horiz-adv-x="487" 
d="M467 31q15 0 15 -25q-13 -9 -32.5 -13.5t-39.5 -4.5q-45 0 -69 22t-28 51q-20 -40 -53.5 -56.5t-78.5 -16.5q-21 0 -46.5 3.5t-47 14.5t-36.5 31t-15 53q0 37 19 63t47.5 43.5t62.5 28t64 17.5q13 3 27 6.5l22 5.5q11 3 14 8.5t3 28.5q0 51 -15 78.5t-51 27.5
q-29 0 -41.5 -18t-23.5 -57q-3 -11 -17.5 -16.5t-36.5 -11.5q-12 -3 -24.5 -5t-22.5 -2q-6 0 -8 4.5t-2 17.5q0 25 18.5 49t46.5 42.5t61.5 29.5t64.5 11q37 0 67 -6.5t51.5 -23t33.5 -44t12 -70.5v-176q0 -35 1.5 -51t5.5 -24q9 -18 28 -18q8 0 13.5 1.5t10.5 1.5zM295 218
l-22 -4q-23 -4 -43 -11.5t-34.5 -20t-23 -31t-8.5 -44.5q0 -39 12.5 -54.5t36.5 -15.5q38 0 60 28t22 78v75zM145 588q0 22 8.5 40t23 30.5t33 19.5t39.5 7q19 0 37 -6.5t32 -19.5t23 -31t9 -40q0 -23 -9 -41t-23 -31t-32.5 -19.5t-37.5 -6.5q-20 0 -38.5 6.5t-33 19.5
t-23 31t-8.5 41zM242 640q-13 0 -26 -11.5t-13 -35.5q0 -23 14 -41t32 -18q20 0 31 12.5t11 35.5q0 22 -11.5 40t-37.5 18z" />
    <glyph glyph-name="ae" unicode="&#xe6;" horiz-adv-x="735" 
d="M680 106q8 0 14 -6t11 -15q-35 -47 -86 -72t-123 -25q-48 0 -94.5 19t-76.5 61q-24 -45 -62.5 -62.5t-81.5 -17.5q-21 0 -46.5 3.5t-47 14.5t-36.5 31t-15 53q0 37 19 62.5t47.5 43t62.5 27.5t64 17q17 5 27 6.5t22 6.5q12 4 14.5 10.5t2.5 26.5q0 50 -15 79t-51 29
q-29 0 -41.5 -18.5t-23.5 -57.5q-3 -11 -17.5 -16.5t-36.5 -11.5q-12 -3 -24.5 -5t-22.5 -2q-6 0 -8 4.5t-2 17.5q0 25 18.5 48.5t46.5 42t61.5 29.5t64.5 11q45 0 80.5 -10.5t56.5 -36.5q30 23 63 35t63 12q97 0 146.5 -54.5t49.5 -151.5q0 -7 -6 -7l-288 -12
q0 -78 35.5 -123.5t105.5 -45.5q32 0 62.5 14t51.5 38q6 8 16 8zM295 218l-10 -2.5t-12 -1.5q-47 -8 -78 -31.5t-31 -75.5q0 -39 12.5 -55.5t36.5 -16.5q38 0 60 29t22 79v75zM492 396q-35 0 -57 -25.5t-27 -79.5v-33l152 7q15 0 15 13q0 19 -4.5 40t-14.5 38t-26 28.5
t-38 11.5z" />
    <glyph glyph-name="ccedilla" unicode="&#xe7;" horiz-adv-x="462" 
d="M244 397q-42 0 -63 -41.5t-21 -111.5q0 -100 36.5 -146t102.5 -46q24 0 47.5 5.5t51.5 23.5q10 6 18 6t13 -6.5t11 -20.5q-29 -26 -65.5 -45t-87.5 -25q-4 -8 -6.5 -17.5t-2.5 -17.5t3 -15.5t14 -18.5q14 -17 20.5 -30t6.5 -28q0 -32 -30 -58.5t-84 -42.5q-6 7 -8 12.5
t-2 9.5q0 9 6 12q20 14 28 26t8 26q0 17 -19 37q-20 25 -20 37q0 17 8 30t32 36q-43 1 -80.5 15t-65.5 41t-44.5 66.5t-16.5 93.5q0 53 20.5 96.5t52.5 75t72 48.5t78 17q48 0 82 -11t55.5 -27.5t31.5 -35t10 -33.5q0 -8 -14.5 -13t-32.5 -7.5t-34.5 -3t-21.5 -0.5
q-9 0 -14.5 5.5t-7.5 11.5q-5 13 -10 25.5t-11.5 22.5t-17.5 16t-28 6z" />
    <glyph glyph-name="egrave" unicode="&#xe8;" horiz-adv-x="483" 
d="M413 92q9 7 16 7q5 0 11.5 -4.5t13.5 -17.5q-39 -46 -89.5 -67.5t-119.5 -21.5q-39 0 -76.5 12.5t-67.5 39t-48.5 66.5t-18.5 96q0 55 21.5 99.5t54.5 75.5t72 47.5t75 16.5q97 0 146.5 -56t49.5 -153q0 -7 -7 -7l-287 -12q0 -78 35 -119.5t105 -41.5q31 0 61 10t53 30z
M242 397q-39 0 -62.5 -33.5t-23.5 -105.5l156 7q15 1 15 13q0 19 -5 40t-15.5 38.5t-26.5 29t-38 11.5zM338 526q1 -2 2 -4.5t1 -5.5q0 -6 -4.5 -12.5t-17.5 -11.5q-23 19 -39.5 32.5t-31.5 24t-30.5 19.5t-34.5 20q-18 10 -18 30t20 38t59 18z" />
    <glyph glyph-name="eacute" unicode="&#xe9;" horiz-adv-x="483" 
d="M413 92q9 7 16 7q5 0 11.5 -4.5t13.5 -17.5q-39 -46 -89.5 -67.5t-119.5 -21.5q-39 0 -76.5 12.5t-67.5 39t-48.5 66.5t-18.5 96q0 55 21.5 99.5t54.5 75.5t72 47.5t75 16.5q97 0 146.5 -56t49.5 -153q0 -7 -7 -7l-287 -12q0 -78 35 -119.5t105 -41.5q31 0 61 10t53 30z
M242 397q-39 0 -62.5 -33.5t-23.5 -105.5l156 7q15 1 15 13q0 19 -5 40t-15.5 38.5t-26.5 29t-38 11.5zM285 674q39 0 59.5 -18t20.5 -38t-19 -30q-18 -11 -33.5 -20t-31 -20t-32.5 -24.5t-39 -31.5q-13 5 -17.5 11t-4.5 12t3 11z" />
    <glyph glyph-name="ecircumflex" unicode="&#xea;" horiz-adv-x="483" 
d="M413 92q9 7 16 7q5 0 11.5 -4.5t13.5 -17.5q-39 -46 -89.5 -67.5t-119.5 -21.5q-39 0 -76.5 12.5t-67.5 39t-48.5 66.5t-18.5 96q0 55 21.5 99.5t54.5 75.5t72 47.5t75 16.5q97 0 146.5 -56t49.5 -153q0 -7 -7 -7l-287 -12q0 -78 35 -119.5t105 -41.5q31 0 61 10t53 30z
M242 397q-39 0 -62.5 -33.5t-23.5 -105.5l156 7q15 1 15 13q0 19 -5 40t-15.5 38.5t-26.5 29t-38 11.5zM390 525q3 -3 3 -10q0 -6 -4.5 -12t-17.5 -11q-33 30 -62 54.5t-55 39.5q-24 -16 -48.5 -38.5t-57.5 -55.5q-22 10 -22 24q0 4 3 9l104 149q30 0 45.5 -6.5t26.5 -21.5z
" />
    <glyph glyph-name="edieresis" unicode="&#xeb;" horiz-adv-x="483" 
d="M413 92q9 7 16 7q5 0 11.5 -4.5t13.5 -17.5q-39 -46 -89.5 -67.5t-119.5 -21.5q-39 0 -76.5 12.5t-67.5 39t-48.5 66.5t-18.5 96q0 55 21.5 99.5t54.5 75.5t72 47.5t75 16.5q97 0 146.5 -56t49.5 -153q0 -7 -7 -7l-287 -12q0 -78 35 -119.5t105 -41.5q31 0 61 10t53 30z
M242 397q-39 0 -62.5 -33.5t-23.5 -105.5l156 7q15 1 15 13q0 19 -5 40t-15.5 38.5t-26.5 29t-38 11.5zM226 593q0 -28 -17.5 -46.5t-43.5 -18.5q-28 0 -47 18.5t-19 46.5q0 26 19 46t47 20q26 0 43.5 -20t17.5 -46zM423 593q0 -28 -17.5 -46.5t-43.5 -18.5
q-29 0 -47.5 18.5t-18.5 46.5q0 26 18.5 46t47.5 20q26 0 43.5 -20t17.5 -46z" />
    <glyph glyph-name="igrave" unicode="&#xec;" horiz-adv-x="302" 
d="M155 0q-39 0 -67 -1.5t-54 -3.5q-2 10 -2 19q0 7 3.5 9.5t7.5 3.5q32 6 44 13t12 22v264q0 30 -10 46t-47 19q-13 2 -13 16v7.5t2 8.5q6 0 17.5 0.5t24.5 1t26 1.5t24 2q25 3 48 8t31 5q16 0 16 -15q0 -11 -3 -29t-3 -50v-285q0 -15 13 -22t43 -13q11 -2 11 -13v-10
t-2 -9q-25 2 -54 3.5t-68 1.5zM212 526q1 -2 2 -4.5t1 -5.5q0 -6 -4.5 -12.5t-17.5 -11.5q-23 19 -39.5 32.5t-31.5 24t-30.5 19.5t-34.5 20q-18 10 -18 30t20 38t59 18z" />
    <glyph glyph-name="iacute" unicode="&#xed;" horiz-adv-x="302" 
d="M155 0q-39 0 -67 -1.5t-54 -3.5q-2 10 -2 19q0 7 3.5 9.5t7.5 3.5q32 6 44 13t12 22v264q0 30 -10 46t-47 19q-13 2 -13 16v7.5t2 8.5q6 0 17.5 0.5t24.5 1t26 1.5t24 2q25 3 48 8t31 5q16 0 16 -15q0 -11 -3 -29t-3 -50v-285q0 -15 13 -22t43 -13q11 -2 11 -13v-10
t-2 -9q-25 2 -54 3.5t-68 1.5zM152 674q39 0 59.5 -18t20.5 -38t-19 -30q-18 -11 -33.5 -20t-31 -20t-32.5 -24.5t-39 -31.5q-13 5 -17.5 11t-4.5 12t3 11z" />
    <glyph glyph-name="icircumflex" unicode="&#xee;" horiz-adv-x="302" 
d="M155 0q-39 0 -67 -1.5t-54 -3.5q-2 10 -2 19q0 7 3.5 9.5t7.5 3.5q32 6 44 13t12 22v264q0 30 -10 46t-47 19q-13 2 -13 16v7.5t2 8.5q6 0 17.5 0.5t24.5 1t26 1.5t24 2q25 3 48 8t31 5q16 0 16 -15q0 -11 -3 -29t-3 -50v-285q0 -15 13 -22t43 -13q11 -2 11 -13v-10
t-2 -9q-25 2 -54 3.5t-68 1.5zM265 525q3 -3 3 -10q0 -6 -4.5 -12t-17.5 -11q-33 30 -62 54.5t-55 39.5q-24 -16 -48.5 -38.5t-57.5 -55.5q-22 10 -22 24q0 4 3 9l104 149q30 0 45.5 -6.5t26.5 -21.5z" />
    <glyph glyph-name="idieresis" unicode="&#xef;" horiz-adv-x="302" 
d="M155 0q-39 0 -67 -1.5t-54 -3.5q-2 10 -2 19q0 7 3.5 9.5t7.5 3.5q32 6 44 13t12 22v264q0 30 -10 46t-47 19q-13 2 -13 16v7.5t2 8.5q6 0 17.5 0.5t24.5 1t26 1.5t24 2q25 3 48 8t31 5q16 0 16 -15q0 -11 -3 -29t-3 -50v-285q0 -15 13 -22t43 -13q11 -2 11 -13v-10
t-2 -9q-25 2 -54 3.5t-68 1.5zM104 593q0 -28 -17.5 -46.5t-43.5 -18.5q-28 0 -47 18.5t-19 46.5q0 26 19 46t47 20q26 0 43.5 -20t17.5 -46zM301 593q0 -28 -17.5 -46.5t-43.5 -18.5q-29 0 -47.5 18.5t-18.5 46.5q0 26 18.5 46t47.5 20q26 0 43.5 -20t17.5 -46z" />
    <glyph glyph-name="eth" unicode="&#xf0;" horiz-adv-x="499" 
d="M299 414q-25 70 -60 122l-113 -60q-9 8 -15 18.5t-6 16.5q0 9 10 13l94 50q-20 23 -43.5 43t-52.5 41q-9 6 -9 15q0 11 11 27q47 -20 86.5 -43t73.5 -47l102 56q9 -8 15.5 -18.5t6.5 -16.5q0 -8 -11 -13l-72 -40q77 -66 115 -143t38 -171q0 -48 -12 -97t-39.5 -89
t-72 -65.5t-109.5 -25.5q-53 0 -92 16t-65 43.5t-39 64.5t-13 80q0 53 20 95.5t51 72t68 45.5t71 16q17 0 31.5 -1.5t30.5 -4.5zM243 371q-36 0 -61.5 -40t-25.5 -109q0 -42 8 -76t20.5 -57.5t29.5 -36.5t35 -13q38 0 62 40.5t24 132.5q0 15 -1.5 33.5t-4.5 37t-7 36.5
t-8 32q-16 10 -34.5 15t-36.5 5z" />
    <glyph glyph-name="ntilde" unicode="&#xf1;" horiz-adv-x="583" 
d="M495 61q0 -14 12 -21.5t44 -12.5q4 -1 7.5 -3.5t3.5 -9.5q0 -6 -0.5 -10.5t-1.5 -8.5q-26 2 -52 3.5t-65 1.5q-32 0 -60 -1.5t-54 -3.5q-2 5 -2 19q0 11 11 13q26 5 35 12t9 22v196q0 59 -14.5 81.5t-46.5 22.5q-45 0 -77 -30.5t-32 -90.5v-179q0 -15 9 -22t35 -12
q11 -2 11 -13q0 -14 -2 -19q-26 2 -54 3.5t-60 1.5q-39 0 -65.5 -1.5t-51.5 -3.5q-1 4 -1.5 8.5t-0.5 10.5q0 7 3.5 9.5t7.5 3.5q32 6 44 13t12 22v264q0 30 -11 46t-46 19q-13 3 -13 16v7.5t2 8.5q6 0 17.5 0.5t24.5 1t26 1.5t24 2q25 3 48 8t31 5q16 0 16 -15
q0 -11 -3 -29t-3 -50q32 42 71 68t81 26q61 0 96 -34t35 -102v-244zM164 563q21 31 49.5 54t55.5 23q12 0 25 -4t27 -11q17 -8 27.5 -11.5t20.5 -3.5q23 0 38 8t29 22q11 -4 15 -9.5t4 -11.5q0 -7 -3 -11q-24 -35 -49 -56t-52 -21q-15 0 -30 5t-35 14q-16 8 -25 10.5
t-17 2.5q-17 0 -32 -7t-31 -25q-12 5 -16 11t-4 11t3 10z" />
    <glyph glyph-name="ograve" unicode="&#xf2;" horiz-adv-x="536" 
d="M34 214q0 49 17.5 90.5t48.5 72t74 47.5t94 17q53 0 96 -17t74 -47.5t47.5 -72t16.5 -90.5t-17.5 -90.5t-49 -71.5t-74.5 -47t-94 -17q-53 0 -96 17t-73.5 47t-47 71.5t-16.5 90.5zM160 234q0 -92 30.5 -147t87.5 -55q53 0 75.5 42.5t22.5 119.5q0 91 -31 147t-87 56
q-53 0 -75.5 -43.5t-22.5 -119.5zM359 526q1 -2 2 -4.5t1 -5.5q0 -6 -4.5 -12.5t-17.5 -11.5q-23 19 -39.5 32.5t-31.5 24t-30.5 19.5t-34.5 20q-18 10 -18 30t20 38t59 18z" />
    <glyph glyph-name="oacute" unicode="&#xf3;" horiz-adv-x="536" 
d="M34 214q0 49 17.5 90.5t48.5 72t74 47.5t94 17q53 0 96 -17t74 -47.5t47.5 -72t16.5 -90.5t-17.5 -90.5t-49 -71.5t-74.5 -47t-94 -17q-53 0 -96 17t-73.5 47t-47 71.5t-16.5 90.5zM160 234q0 -92 30.5 -147t87.5 -55q53 0 75.5 42.5t22.5 119.5q0 91 -31 147t-87 56
q-53 0 -75.5 -43.5t-22.5 -119.5zM284 674q39 0 59.5 -18t20.5 -38t-19 -30q-18 -11 -33.5 -20t-31 -20t-32.5 -24.5t-39 -31.5q-13 5 -17.5 11t-4.5 12t3 11z" />
    <glyph glyph-name="ocircumflex" unicode="&#xf4;" horiz-adv-x="536" 
d="M34 214q0 49 17.5 90.5t48.5 72t74 47.5t94 17q53 0 96 -17t74 -47.5t47.5 -72t16.5 -90.5t-17.5 -90.5t-49 -71.5t-74.5 -47t-94 -17q-53 0 -96 17t-73.5 47t-47 71.5t-16.5 90.5zM160 234q0 -92 30.5 -147t87.5 -55q53 0 75.5 42.5t22.5 119.5q0 91 -31 147t-87 56
q-53 0 -75.5 -43.5t-22.5 -119.5zM404 525q3 -3 3 -10q0 -6 -4.5 -12t-17.5 -11q-33 30 -62 54.5t-55 39.5q-24 -16 -48.5 -38.5t-57.5 -55.5q-22 10 -22 24q0 4 3 9l104 149q30 0 45.5 -6.5t26.5 -21.5z" />
    <glyph glyph-name="otilde" unicode="&#xf5;" horiz-adv-x="536" 
d="M34 214q0 49 17.5 90.5t48.5 72t74 47.5t94 17q53 0 96 -17t74 -47.5t47.5 -72t16.5 -90.5t-17.5 -90.5t-49 -71.5t-74.5 -47t-94 -17q-53 0 -96 17t-73.5 47t-47 71.5t-16.5 90.5zM160 234q0 -92 30.5 -147t87.5 -55q53 0 75.5 42.5t22.5 119.5q0 91 -31 147t-87 56
q-53 0 -75.5 -43.5t-22.5 -119.5zM134 563q21 31 49.5 54t55.5 23q12 0 25 -4t27 -11q17 -8 27.5 -11.5t20.5 -3.5q23 0 38 8t29 22q11 -4 15 -9.5t4 -11.5q0 -7 -3 -11q-24 -35 -49 -56t-52 -21q-15 0 -30 5t-35 14q-16 8 -25 10.5t-17 2.5q-17 0 -32 -7t-31 -25
q-12 5 -16 11t-4 11t3 10z" />
    <glyph glyph-name="odieresis" unicode="&#xf6;" horiz-adv-x="536" 
d="M34 214q0 49 17.5 90.5t48.5 72t74 47.5t94 17q53 0 96 -17t74 -47.5t47.5 -72t16.5 -90.5t-17.5 -90.5t-49 -71.5t-74.5 -47t-94 -17q-53 0 -96 17t-73.5 47t-47 71.5t-16.5 90.5zM160 234q0 -92 30.5 -147t87.5 -55q53 0 75.5 42.5t22.5 119.5q0 91 -31 147t-87 56
q-53 0 -75.5 -43.5t-22.5 -119.5zM241 593q0 -28 -17.5 -46.5t-43.5 -18.5q-28 0 -47 18.5t-19 46.5q0 26 19 46t47 20q26 0 43.5 -20t17.5 -46zM438 593q0 -28 -17.5 -46.5t-43.5 -18.5q-29 0 -47.5 18.5t-18.5 46.5q0 26 18.5 46t47.5 20q26 0 43.5 -20t17.5 -46z" />
    <glyph glyph-name="divide" unicode="&#xf7;" horiz-adv-x="494" 
d="M38 181q-2 9 -2 17v14q0 20 4.5 27.5t12.5 7.5h402q3 -18 3 -31q0 -20 -5 -27.5t-13 -7.5h-402zM174 72q0 29 19.5 49.5t48.5 20.5q28 0 47.5 -20.5t19.5 -49.5t-19.5 -49t-47.5 -20q-29 0 -48.5 20t-19.5 49zM174 359q0 29 19.5 49.5t48.5 20.5q28 0 47.5 -20.5
t19.5 -49.5t-19.5 -49t-47.5 -20q-29 0 -48.5 20t-19.5 49z" />
    <glyph glyph-name="oslash" unicode="&#xf8;" horiz-adv-x="536" 
d="M34 214q0 49 17.5 90.5t48.5 72t74 47.5t94 17q36 0 67 -8t58 -23l36 47q34 -9 34 -24q0 -7 -6 -13l-27 -37q35 -30 53.5 -73t18.5 -96q0 -49 -17.5 -90.5t-49 -71.5t-74.5 -47t-94 -17q-65 0 -117 26l-39 -51q-18 3 -25.5 9.5t-7.5 14.5t5 14l29 38q-38 31 -58 76
t-20 99zM160 234q0 -34 4 -63t13 -53l164 229q-31 50 -83 50q-53 0 -75.5 -43.5t-22.5 -119.5zM376 194q0 59 -14 106l-163 -226q30 -42 79 -42q53 0 75.5 42.5t22.5 119.5z" />
    <glyph glyph-name="ugrave" unicode="&#xf9;" horiz-adv-x="576" 
d="M90 341q0 24 -7.5 35t-41.5 15q-14 3 -14 14v8t2 10q6 0 17 0.5t23 1t24.5 1.5t22.5 3q23 3 44 7.5t29 4.5q9 0 11.5 -4t2.5 -11v-256q0 -58 14.5 -80.5t46.5 -22.5q45 0 77 30t32 91v153q0 12 -1.5 20.5t-6.5 14.5t-14.5 9.5t-26.5 5.5q-6 2 -10.5 4t-4.5 10q0 3 0.5 8
t1.5 10q7 0 17.5 0.5t23 1t25 1.5t22.5 3q22 3 43.5 7.5t29.5 4.5q14 0 14 -15v-333q0 -12 1.5 -20.5t6.5 -14.5t15 -9.5t27 -5.5q13 -1 13 -13v-10t-2 -8q-13 0 -40.5 -1.5t-46.5 -4.5q-22 -3 -43.5 -7.5t-29.5 -4.5q-9 0 -11.5 3.5t-2.5 11.5v72q-32 -42 -71 -67.5
t-81 -25.5q-61 0 -96 33.5t-35 100.5v219zM359 526q1 -2 2 -4.5t1 -5.5q0 -6 -4.5 -12.5t-17.5 -11.5q-23 19 -39.5 32.5t-31.5 24t-30.5 19.5t-34.5 20q-18 10 -18 30t20 38t59 18z" />
    <glyph glyph-name="uacute" unicode="&#xfa;" horiz-adv-x="576" 
d="M90 341q0 24 -7.5 35t-41.5 15q-14 3 -14 14v8t2 10q6 0 17 0.5t23 1t24.5 1.5t22.5 3q23 3 44 7.5t29 4.5q9 0 11.5 -4t2.5 -11v-256q0 -58 14.5 -80.5t46.5 -22.5q45 0 77 30t32 91v153q0 12 -1.5 20.5t-6.5 14.5t-14.5 9.5t-26.5 5.5q-6 2 -10.5 4t-4.5 10q0 3 0.5 8
t1.5 10q7 0 17.5 0.5t23 1t25 1.5t22.5 3q22 3 43.5 7.5t29.5 4.5q14 0 14 -15v-333q0 -12 1.5 -20.5t6.5 -14.5t15 -9.5t27 -5.5q13 -1 13 -13v-10t-2 -8q-13 0 -40.5 -1.5t-46.5 -4.5q-22 -3 -43.5 -7.5t-29.5 -4.5q-9 0 -11.5 3.5t-2.5 11.5v72q-32 -42 -71 -67.5
t-81 -25.5q-61 0 -96 33.5t-35 100.5v219zM300 674q39 0 59.5 -18t20.5 -38t-19 -30q-18 -11 -33.5 -20t-31 -20t-32.5 -24.5t-39 -31.5q-13 5 -17.5 11t-4.5 12t3 11z" />
    <glyph glyph-name="ucircumflex" unicode="&#xfb;" horiz-adv-x="576" 
d="M90 341q0 24 -7.5 35t-41.5 15q-14 3 -14 14v8t2 10q6 0 17 0.5t23 1t24.5 1.5t22.5 3q23 3 44 7.5t29 4.5q9 0 11.5 -4t2.5 -11v-256q0 -58 14.5 -80.5t46.5 -22.5q45 0 77 30t32 91v153q0 12 -1.5 20.5t-6.5 14.5t-14.5 9.5t-26.5 5.5q-6 2 -10.5 4t-4.5 10q0 3 0.5 8
t1.5 10q7 0 17.5 0.5t23 1t25 1.5t22.5 3q22 3 43.5 7.5t29.5 4.5q14 0 14 -15v-333q0 -12 1.5 -20.5t6.5 -14.5t15 -9.5t27 -5.5q13 -1 13 -13v-10t-2 -8q-13 0 -40.5 -1.5t-46.5 -4.5q-22 -3 -43.5 -7.5t-29.5 -4.5q-9 0 -11.5 3.5t-2.5 11.5v72q-32 -42 -71 -67.5
t-81 -25.5q-61 0 -96 33.5t-35 100.5v219zM408 525q3 -3 3 -10q0 -6 -4.5 -12t-17.5 -11q-33 30 -62 54.5t-55 39.5q-24 -16 -48.5 -38.5t-57.5 -55.5q-22 10 -22 24q0 4 3 9l104 149q30 0 45.5 -6.5t26.5 -21.5z" />
    <glyph glyph-name="udieresis" unicode="&#xfc;" horiz-adv-x="576" 
d="M90 341q0 24 -7.5 35t-41.5 15q-14 3 -14 14v8t2 10q6 0 17 0.5t23 1t24.5 1.5t22.5 3q23 3 44 7.5t29 4.5q9 0 11.5 -4t2.5 -11v-256q0 -58 14.5 -80.5t46.5 -22.5q45 0 77 30t32 91v153q0 12 -1.5 20.5t-6.5 14.5t-14.5 9.5t-26.5 5.5q-6 2 -10.5 4t-4.5 10q0 3 0.5 8
t1.5 10q7 0 17.5 0.5t23 1t25 1.5t22.5 3q22 3 43.5 7.5t29.5 4.5q14 0 14 -15v-333q0 -12 1.5 -20.5t6.5 -14.5t15 -9.5t27 -5.5q13 -1 13 -13v-10t-2 -8q-13 0 -40.5 -1.5t-46.5 -4.5q-22 -3 -43.5 -7.5t-29.5 -4.5q-9 0 -11.5 3.5t-2.5 11.5v72q-32 -42 -71 -67.5
t-81 -25.5q-61 0 -96 33.5t-35 100.5v219zM243 593q0 -28 -17.5 -46.5t-43.5 -18.5q-28 0 -47 18.5t-19 46.5q0 26 19 46t47 20q26 0 43.5 -20t17.5 -46zM440 593q0 -28 -17.5 -46.5t-43.5 -18.5q-29 0 -47.5 18.5t-18.5 46.5q0 26 18.5 46t47.5 20q26 0 43.5 -20t17.5 -46z
" />
    <glyph glyph-name="yacute" unicode="&#xfd;" horiz-adv-x="496" 
d="M284 146q24 59 40.5 98t26.5 64t14.5 39.5t4.5 24.5q0 20 -32 28q-7 2 -10 4.5t-3 10.5q0 3 1 7.5t2 9.5q40 -3 87 -3q42 0 77 3q2 -5 2.5 -11t0.5 -8q0 -11 -13 -14q-14 -3 -22.5 -5.5t-14.5 -8t-11 -14t-12 -23.5l-210 -491q-23 -53 -64.5 -75t-89.5 -22q-9 0 -13 5
t-4 11q0 34 12 58.5t28 24.5q9 0 16 -2t20 -2q26 0 39.5 10.5t23.5 33.5l45 108l-153 341q-7 15 -12 23.5t-11 13.5t-14 7.5t-21 5.5t-13 17q0 6 3 17q24 -2 51 -2.5t66 -0.5q36 0 62 0.5t52 2.5q3 -11 3 -17q0 -13 -13 -15q-24 -3 -30.5 -8.5t-6.5 -13.5q0 -5 5 -21t22 -54
zM308 674q39 0 59.5 -18t20.5 -38t-19 -30q-18 -11 -33.5 -20t-31 -20t-32.5 -24.5t-39 -31.5q-13 5 -17.5 11t-4.5 12t3 11z" />
    <glyph glyph-name="thorn" unicode="&#xfe;" horiz-adv-x="585" 
d="M219 358q29 38 66 60t82 22q39 0 72.5 -14t58.5 -41.5t39 -67.5t14 -91q0 -56 -21.5 -100t-54.5 -75t-72 -47t-75 -16q-29 0 -53.5 4.5t-55.5 15.5v-166q0 -12 2.5 -20.5t11.5 -14.5t28 -10.5t52 -8.5q13 -2 13 -15t-2 -18q-25 2 -65 3.5t-79 1.5q-35 0 -67.5 -1.5
t-59.5 -3.5q-1 4 -1.5 8.5t-0.5 10.5q0 7 3.5 9.5t7.5 3.5q27 8 35.5 13.5t8.5 20.5v765q0 30 -11 45.5t-46 18.5q-13 3 -13 16v8t2 8q6 0 17.5 0.5t24.5 1t26 1.5t24 2q25 3 48 8t31 5q16 0 16 -15q0 -11 -3 -28.5t-3 -49.5v-249zM219 77q46 -48 104 -48q51 0 76.5 46
t25.5 126q0 38 -6 71.5t-19 58t-33.5 39t-48.5 14.5q-19 0 -36.5 -11.5t-31.5 -30t-22.5 -41.5t-8.5 -46v-178z" />
    <glyph glyph-name="ydieresis" unicode="&#xff;" horiz-adv-x="496" 
d="M284 146q24 59 40.5 98t26.5 64t14.5 39.5t4.5 24.5q0 20 -32 28q-7 2 -10 4.5t-3 10.5q0 3 1 7.5t2 9.5q40 -3 87 -3q42 0 77 3q2 -5 2.5 -11t0.5 -8q0 -11 -13 -14q-14 -3 -22.5 -5.5t-14.5 -8t-11 -14t-12 -23.5l-210 -491q-23 -53 -64.5 -75t-89.5 -22q-9 0 -13 5
t-4 11q0 34 12 58.5t28 24.5q9 0 16 -2t20 -2q26 0 39.5 10.5t23.5 33.5l45 108l-153 341q-7 15 -12 23.5t-11 13.5t-14 7.5t-21 5.5t-13 17q0 6 3 17q24 -2 51 -2.5t66 -0.5q36 0 62 0.5t52 2.5q3 -11 3 -17q0 -13 -13 -15q-24 -3 -30.5 -8.5t-6.5 -13.5q0 -5 5 -21t22 -54
zM246 593q0 -28 -17.5 -46.5t-43.5 -18.5q-28 0 -47 18.5t-19 46.5q0 26 19 46t47 20q26 0 43.5 -20t17.5 -46zM443 593q0 -28 -17.5 -46.5t-43.5 -18.5q-29 0 -47.5 18.5t-18.5 46.5q0 26 18.5 46t47.5 20q26 0 43.5 -20t17.5 -46z" />
    <glyph glyph-name="Amacron" unicode="&#x100;" 
d="M415 220h-210l-52 -139q-3 -5 -4 -11t-1 -9q0 -11 10.5 -18t42.5 -12q14 -2 14 -19q0 -7 -2 -17q-27 2 -57 3.5t-59 1.5q-20 0 -42 -1t-49 -4q-2 4 -2 9v8q0 19 13 20q31 6 44.5 13t21.5 24l241 576q8 17 24 17q5 0 10 -0.5t11 -1.5l241 -594q6 -15 23 -22.5t37 -10.5
q15 -3 15 -20q0 -8 -2 -18q-32 2 -63 3.5t-58 1.5q-14 0 -34 -0.5t-41 -1.5t-41.5 -1.5t-34.5 -1.5q-2 4 -2 9v8q0 9 3.5 13.5t7.5 5.5q26 5 38.5 11.5t12.5 19.5q0 6 -3 15zM396 270l-85 225l-87 -225h172zM226 739q-6 27 -6 40q0 17 6 21t18 4h251q2 -14 3.5 -23.5
t1.5 -16.5q0 -17 -6 -21t-17 -4h-251z" />
    <glyph glyph-name="amacron" unicode="&#x101;" horiz-adv-x="487" 
d="M467 31q15 0 15 -25q-13 -9 -32.5 -13.5t-39.5 -4.5q-45 0 -69 22t-28 51q-20 -40 -53.5 -56.5t-78.5 -16.5q-21 0 -46.5 3.5t-47 14.5t-36.5 31t-15 53q0 37 19 63t47.5 43.5t62.5 28t64 17.5q13 3 27 6.5l22 5.5q11 3 14 8.5t3 28.5q0 51 -15 78.5t-51 27.5
q-29 0 -41.5 -18t-23.5 -57q-3 -11 -17.5 -16.5t-36.5 -11.5q-12 -3 -24.5 -5t-22.5 -2q-6 0 -8 4.5t-2 17.5q0 25 18.5 49t46.5 42.5t61.5 29.5t64.5 11q37 0 67 -6.5t51.5 -23t33.5 -44t12 -70.5v-176q0 -35 1.5 -51t5.5 -24q9 -18 28 -18q8 0 13.5 1.5t10.5 1.5zM295 218
l-22 -4q-23 -4 -43 -11.5t-34.5 -20t-23 -31t-8.5 -44.5q0 -39 12.5 -54.5t36.5 -15.5q38 0 60 28t22 78v75zM114 552q-6 25 -6 40q0 16 6 20t18 4h251q2 -13 3.5 -22.5t1.5 -17.5q0 -16 -6 -20t-17 -4h-251z" />
    <glyph glyph-name="Abreve" unicode="&#x102;" 
d="M415 220h-210l-52 -139q-3 -5 -4 -11t-1 -9q0 -11 10.5 -18t42.5 -12q14 -2 14 -19q0 -7 -2 -17q-27 2 -57 3.5t-59 1.5q-20 0 -42 -1t-49 -4q-2 4 -2 9v8q0 19 13 20q31 6 44.5 13t21.5 24l241 576q8 17 24 17q5 0 10 -0.5t11 -1.5l241 -594q6 -15 23 -22.5t37 -10.5
q15 -3 15 -20q0 -8 -2 -18q-32 2 -63 3.5t-58 1.5q-14 0 -34 -0.5t-41 -1.5t-41.5 -1.5t-34.5 -1.5q-2 4 -2 9v8q0 9 3.5 13.5t7.5 5.5q26 5 38.5 11.5t12.5 19.5q0 6 -3 15zM396 270l-85 225l-87 -225h172zM366 786q30 0 58.5 17.5t54.5 59.5q17 -3 22.5 -7.5t5.5 -10.5
q0 -2 -2 -8q-8 -30 -23 -53.5t-34.5 -40t-42 -25t-44.5 -8.5q-23 0 -45 7.5t-41.5 23.5t-34.5 40t-23 56q0 2 -0.5 4t-0.5 3q0 6 5.5 11t21.5 8q26 -43 56.5 -60t66.5 -17z" />
    <glyph glyph-name="abreve" unicode="&#x103;" horiz-adv-x="487" 
d="M467 31q15 0 15 -25q-13 -9 -32.5 -13.5t-39.5 -4.5q-45 0 -69 22t-28 51q-20 -40 -53.5 -56.5t-78.5 -16.5q-21 0 -46.5 3.5t-47 14.5t-36.5 31t-15 53q0 37 19 63t47.5 43.5t62.5 28t64 17.5q13 3 27 6.5l22 5.5q11 3 14 8.5t3 28.5q0 51 -15 78.5t-51 27.5
q-29 0 -41.5 -18t-23.5 -57q-3 -11 -17.5 -16.5t-36.5 -11.5q-12 -3 -24.5 -5t-22.5 -2q-6 0 -8 4.5t-2 17.5q0 25 18.5 49t46.5 42.5t61.5 29.5t64.5 11q37 0 67 -6.5t51.5 -23t33.5 -44t12 -70.5v-176q0 -35 1.5 -51t5.5 -24q9 -18 28 -18q8 0 13.5 1.5t10.5 1.5zM295 218
l-22 -4q-23 -4 -43 -11.5t-34.5 -20t-23 -31t-8.5 -44.5q0 -39 12.5 -54.5t36.5 -15.5q38 0 60 28t22 78v75zM258 585q30 0 58.5 17.5t54.5 59.5q17 -2 22 -6.5t5 -10.5t-1 -9q-9 -30 -24 -53.5t-34.5 -40t-41.5 -25t-44 -8.5q-23 0 -45 7.5t-41.5 23.5t-34.5 40t-23 56
q-1 3 -1 8q0 7 5 11.5t22 6.5q26 -43 56.5 -60t66.5 -17z" />
    <glyph glyph-name="Aogonek" unicode="&#x104;" 
d="M552 0q-23 0 -44 -8.5t-37 -25t-25.5 -39.5t-9.5 -51q0 -51 36 -51q16 0 37 7q2 1 4 1q6 0 10.5 -5.5t6.5 -21.5q-22 -15 -46.5 -23.5t-45.5 -8.5q-14 0 -28.5 3.5t-26 12t-19 23t-7.5 36.5q0 24 9 46t24 42t33.5 39t36.5 37q8 7 11.5 16t3.5 18q0 7 -3 19l-57 154h-210
l-52 -139q-5 -13 -5 -20q0 -11 10.5 -18t42.5 -12q14 -2 14 -19q0 -7 -2 -17q-27 2 -57 3.5t-59 1.5q-20 0 -42 -1t-49 -4q-2 4 -2 9v8q0 19 13 20q31 6 45 13t21 24l241 576q8 17 24 17q5 0 10 -0.5t11 -1.5l241 -594q6 -15 23 -22.5t37 -10.5q15 -3 15 -20q0 -8 -2 -18
q-32 2 -68 3.5t-63 1.5zM396 270l-85 225l-87 -225h172z" />
    <glyph glyph-name="aogonek" unicode="&#x105;" horiz-adv-x="487" 
d="M467 31q15 0 15 -25q-8 -6 -18 -12t-21 -14q-31 -20 -49.5 -48.5t-18.5 -63.5q0 -21 7 -32t27 -11q17 0 26 4.5t17 4.5q5 0 9.5 -8t5.5 -20q-22 -16 -48 -24t-49 -8q-33 0 -54.5 16.5t-21.5 54.5q0 21 7.5 40.5t20.5 38t29.5 35t33.5 31.5q-33 6 -51 26t-21 45
q-20 -40 -53.5 -56.5t-78.5 -16.5q-21 0 -46.5 3.5t-47 14.5t-36.5 31t-15 53q0 37 19 62.5t47.5 43t62.5 28t64 18.5l49 12q11 3 14 8.5t3 28.5q0 51 -15 78.5t-51 27.5q-29 0 -41.5 -18t-23.5 -57q-3 -11 -17.5 -16.5t-36.5 -11.5q-12 -3 -24.5 -5t-22.5 -2q-6 0 -8 4.5
t-2 17.5q0 25 18.5 49t46.5 42.5t61.5 29.5t64.5 11q37 0 67 -6.5t51.5 -23t33.5 -44t12 -70.5v-176q0 -35 1.5 -51t5.5 -24q9 -18 28 -18q8 0 13.5 1.5t10.5 1.5zM295 218l-22 -4q-23 -4 -43 -11.5t-34.5 -20t-23 -31t-8.5 -44.5q0 -39 12.5 -54.5t36.5 -15.5q38 0 60 28
t22 78v75z" />
    <glyph glyph-name="Cacute" unicode="&#x106;" horiz-adv-x="660" 
d="M370 -12q-84 0 -147 26t-104 71.5t-61.5 107t-20.5 132.5q0 59 20 119t63 108.5t110 79t160 30.5q51 0 95.5 -7t96.5 -21q2 -27 8 -69t17 -82q-5 -1 -13 -2.5t-12 -1.5q-8 0 -13.5 2.5t-7.5 10.5q-11 33 -25 55.5t-33.5 36t-45.5 19.5t-61 6q-54 0 -95.5 -18.5t-69.5 -53
t-42.5 -83t-14.5 -109.5q0 -65 17.5 -121t48 -97t72.5 -64t91 -23q40 0 68.5 7.5t49 23t35 39.5t26.5 56q3 8 9.5 11.5t13.5 3.5q5 0 12.5 -1.5t12.5 -3.5q-6 -17 -12.5 -38.5t-13.5 -44t-12.5 -45t-9.5 -43.5q-49 -9 -100 -13t-112 -4zM439 865q32 -11 47.5 -30t15.5 -36
q0 -12 -6.5 -21t-20.5 -13q-22 -6 -40 -11.5t-35.5 -11.5t-37 -14t-43.5 -18q-9 7 -12 13t-3 11q0 8 5 13z" />
    <glyph glyph-name="cacute" unicode="&#x107;" horiz-adv-x="462" 
d="M244 397q-42 0 -63 -41.5t-21 -111.5q0 -100 36.5 -146t102.5 -46q24 0 47.5 5.5t51.5 23.5q10 6 18 6t13 -6.5t11 -20.5q-33 -30 -78.5 -51t-111.5 -21q-44 0 -83.5 13t-69 40t-46.5 67.5t-17 95.5q0 53 20.5 96.5t52.5 75t72 48.5t78 17q48 0 82 -11t55.5 -27.5
t31.5 -35t10 -33.5q0 -8 -14.5 -13t-32.5 -7.5t-34.5 -3t-21.5 -0.5q-9 0 -14.5 5.5t-7.5 11.5q-5 13 -10 25.5t-11.5 22.5t-17.5 16t-28 6zM277 674q39 0 59.5 -18t20.5 -38t-19 -30q-18 -11 -33.5 -20t-31 -20t-32.5 -24.5t-39 -31.5q-13 5 -17.5 11t-4.5 12t3 11z" />
    <glyph glyph-name="Ccircumflex" unicode="&#x108;" horiz-adv-x="660" 
d="M370 -12q-84 0 -147 26t-104 71.5t-61.5 107t-20.5 132.5q0 59 20 119t63 108.5t110 79t160 30.5q51 0 95.5 -7t96.5 -21q2 -27 8 -69t17 -82q-5 -1 -13 -2.5t-12 -1.5q-8 0 -13.5 2.5t-7.5 10.5q-11 33 -25 55.5t-33.5 36t-45.5 19.5t-61 6q-54 0 -95.5 -18.5t-69.5 -53
t-42.5 -83t-14.5 -109.5q0 -65 17.5 -121t48 -97t72.5 -64t91 -23q40 0 68.5 7.5t49 23t35 39.5t26.5 56q3 8 9.5 11.5t13.5 3.5q5 0 12.5 -1.5t12.5 -3.5q-6 -17 -12.5 -38.5t-13.5 -44t-12.5 -45t-9.5 -43.5q-49 -9 -100 -13t-112 -4zM512 743q3 -3 3 -9t-5 -12.5
t-17 -11.5q-32 20 -62 38t-60 33q-29 -16 -55.5 -33t-55.5 -38q-11 5 -16.5 11.5t-5.5 12.5q0 4 3 9l109 121q27 0 41 -6t31 -22z" />
    <glyph glyph-name="ccircumflex" unicode="&#x109;" horiz-adv-x="462" 
d="M244 397q-42 0 -63 -41.5t-21 -111.5q0 -100 36.5 -146t102.5 -46q24 0 47.5 5.5t51.5 23.5q10 6 18 6t13 -6.5t11 -20.5q-33 -30 -78.5 -51t-111.5 -21q-44 0 -83.5 13t-69 40t-46.5 67.5t-17 95.5q0 53 20.5 96.5t52.5 75t72 48.5t78 17q48 0 82 -11t55.5 -27.5
t31.5 -35t10 -33.5q0 -8 -14.5 -13t-32.5 -7.5t-34.5 -3t-21.5 -0.5q-9 0 -14.5 5.5t-7.5 11.5q-5 13 -10 25.5t-11.5 22.5t-17.5 16t-28 6zM391 525q3 -3 3 -10q0 -6 -4.5 -12t-17.5 -11q-33 30 -62 54.5t-55 39.5q-24 -16 -48.5 -38.5t-57.5 -55.5q-22 10 -22 24q0 4 3 9
l104 149q30 0 45.5 -6.5t26.5 -21.5z" />
    <glyph glyph-name="Cdotaccent" unicode="&#x10a;" horiz-adv-x="660" 
d="M370 -12q-84 0 -147 26t-104 71.5t-61.5 107t-20.5 132.5q0 59 20 119t63 108.5t110 79t160 30.5q51 0 95.5 -7t96.5 -21q2 -27 8 -69t17 -82q-5 -1 -13 -2.5t-12 -1.5q-8 0 -13.5 2.5t-7.5 10.5q-11 33 -25 55.5t-33.5 36t-45.5 19.5t-61 6q-54 0 -95.5 -18.5t-69.5 -53
t-42.5 -83t-14.5 -109.5q0 -65 17.5 -121t48 -97t72.5 -64t91 -23q40 0 68.5 7.5t49 23t35 39.5t26.5 56q3 8 9.5 11.5t13.5 3.5q5 0 12.5 -1.5t12.5 -3.5q-6 -17 -12.5 -38.5t-13.5 -44t-12.5 -45t-9.5 -43.5q-49 -9 -100 -13t-112 -4zM311 782q0 32 20.5 52.5t51.5 20.5
q32 0 52 -20.5t20 -52.5t-20 -52.5t-52 -20.5q-31 0 -51.5 20.5t-20.5 52.5z" />
    <glyph glyph-name="cdotaccent" unicode="&#x10b;" horiz-adv-x="462" 
d="M244 397q-42 0 -63 -41.5t-21 -111.5q0 -100 36.5 -146t102.5 -46q24 0 47.5 5.5t51.5 23.5q10 6 18 6t13 -6.5t11 -20.5q-33 -30 -78.5 -51t-111.5 -21q-44 0 -83.5 13t-69 40t-46.5 67.5t-17 95.5q0 53 20.5 96.5t52.5 75t72 48.5t78 17q48 0 82 -11t55.5 -27.5
t31.5 -35t10 -33.5q0 -8 -14.5 -13t-32.5 -7.5t-34.5 -3t-21.5 -0.5q-9 0 -14.5 5.5t-7.5 11.5q-5 13 -10 25.5t-11.5 22.5t-17.5 16t-28 6zM195 587q0 32 20.5 52.5t51.5 20.5q32 0 52 -20.5t20 -52.5t-20 -52.5t-52 -20.5q-31 0 -51.5 20.5t-20.5 52.5z" />
    <glyph glyph-name="Ccaron" unicode="&#x10c;" horiz-adv-x="660" 
d="M370 -12q-84 0 -147 26t-104 71.5t-61.5 107t-20.5 132.5q0 59 20 119t63 108.5t110 79t160 30.5q51 0 95.5 -7t96.5 -21q2 -27 8 -69t17 -82q-5 -1 -13 -2.5t-12 -1.5q-8 0 -13.5 2.5t-7.5 10.5q-11 33 -25 55.5t-33.5 36t-45.5 19.5t-61 6q-54 0 -95.5 -18.5t-69.5 -53
t-42.5 -83t-14.5 -109.5q0 -65 17.5 -121t48 -97t72.5 -64t91 -23q40 0 68.5 7.5t49 23t35 39.5t26.5 56q3 8 9.5 11.5t13.5 3.5q5 0 12.5 -1.5t12.5 -3.5q-6 -17 -12.5 -38.5t-13.5 -44t-12.5 -45t-9.5 -43.5q-49 -9 -100 -13t-112 -4zM248 831q-3 3 -3 9t5 12.5t17 11.5
q32 -20 62 -38t60 -33q29 16 55.5 33t55.5 38q11 -5 16.5 -11.5t5.5 -12.5q0 -5 -3 -9l-109 -121q-27 0 -41 6t-31 22z" />
    <glyph glyph-name="ccaron" unicode="&#x10d;" horiz-adv-x="462" 
d="M244 397q-42 0 -63 -41.5t-21 -111.5q0 -100 36.5 -146t102.5 -46q24 0 47.5 5.5t51.5 23.5q10 6 18 6t13 -6.5t11 -20.5q-33 -30 -78.5 -51t-111.5 -21q-44 0 -83.5 13t-69 40t-46.5 67.5t-17 95.5q0 53 20.5 96.5t52.5 75t72 48.5t78 17q48 0 82 -11t55.5 -27.5
t31.5 -35t10 -33.5q0 -8 -14.5 -13t-32.5 -7.5t-34.5 -3t-21.5 -0.5q-9 0 -14.5 5.5t-7.5 11.5q-5 13 -10 25.5t-11.5 22.5t-17.5 16t-28 6zM133 641q-3 3 -3 10q0 6 4.5 12t17.5 11q33 -30 62 -54.5t55 -39.5q24 16 48.5 38.5t57.5 55.5q22 -10 22 -24q0 -5 -3 -9
l-104 -149q-30 0 -45.5 6.5t-26.5 21.5z" />
    <glyph glyph-name="Dcaron" unicode="&#x10e;" horiz-adv-x="757" 
d="M716 325q0 -59 -20 -117t-62 -104.5t-107 -75t-154 -28.5h-205q-26 0 -60.5 -1.5t-65.5 -3.5q-2 4 -2 9v8q0 11 3.5 14.5t8.5 4.5q29 5 46.5 13.5t17.5 29.5v501q0 20 -14.5 28.5t-49.5 14.5q-8 2 -10 6.5t-2 12.5v8t2 10q21 -2 37.5 -2.5t30.5 -1.5t28 -1h29h203
q85 0 149.5 -26t108 -70t66 -103t22.5 -126zM578 306q0 78 -18 134t-52.5 91.5t-86 52t-117.5 16.5h-62v-514q0 -10 3 -17t12 -11t25 -6t43 -2q130 0 191.5 69t61.5 187zM237 831q-3 3 -3 9t5 12.5t17 11.5q32 -20 62 -38t60 -33q29 16 55.5 33t55.5 38q11 -5 16.5 -11.5
t5.5 -12.5q0 -5 -3 -9l-109 -121q-27 0 -41 6t-31 22z" />
    <glyph glyph-name="dcaron" unicode="&#x10f;" horiz-adv-x="628" 
d="M479 93q0 -12 1 -20.5t6 -14.5t15 -9.5t27 -5.5q14 -2 14 -13v-10t-2 -8q-13 0 -40.5 -1.5t-46.5 -4.5q-22 -3 -43.5 -7.5t-29.5 -4.5q-9 0 -11.5 3.5t-2.5 11.5v60q-13 -18 -27 -33t-31.5 -25.5t-39.5 -16.5t-50 -6q-39 0 -72.5 14t-58.5 41.5t-39 67.5t-14 91
q0 55 21.5 99.5t54.5 75.5t72 47.5t75 16.5q29 0 53.5 -5.5t55.5 -15.5v166q0 31 -10 45.5t-47 18.5q-6 2 -10 5t-4 11q0 6 2 16q7 0 18 0.5t24 1t26 1.5t24 2q26 3 48.5 8t30.5 5q17 0 17 -15q0 -19 -3 -43.5t-3 -56.5v-492zM366 351q-46 46 -104 46q-52 0 -77 -45.5
t-25 -124.5q0 -38 6.5 -71.5t19.5 -58t33.5 -38.5t49.5 -14q18 0 35.5 11.5t31 29.5t22 41t8.5 46v178zM542 694q14 9 27.5 13t26.5 4q16 0 29.5 -6.5t13.5 -26.5q0 -9 -4 -17q-8 -19 -14 -36.5t-11.5 -36.5t-11.5 -40.5t-13 -49.5q-8 -2 -15 -2q-19 0 -20 19z" />
    <glyph glyph-name="Dcroat" unicode="&#x110;" horiz-adv-x="762" 
d="M720 325q0 -59 -20 -117t-62 -104.5t-107 -75t-154 -28.5h-205q-26 0 -60.5 -1.5t-65.5 -3.5q-2 4 -2 9v8q0 11 3.5 14.5t8.5 4.5q29 5 46.5 13.5t17.5 29.5v235h-101q-1 6 -1 10.5v9.5q0 31 16 31h86v215q0 20 -14.5 28.5t-49.5 14.5q-8 2 -10 6.5t-2 12.5v8t2 10
q21 -2 37.5 -2.5t30.5 -1.5t28 -1h29h203q85 0 149.5 -26t108 -70t66 -103t22.5 -126zM582 306q0 78 -18 134t-52.5 91.5t-86 52t-117.5 16.5h-62v-240h167q1 -5 1 -10v-10q0 -31 -16 -31h-152v-223q0 -10 3 -17t12 -11t25 -6t43 -2q130 0 191.5 69t61.5 187z" />
    <glyph glyph-name="dcroat" unicode="&#x111;" horiz-adv-x="567" 
d="M479 560h62q5 -18 5 -28q0 -11 -5 -14.5t-13 -3.5h-49v-421q0 -12 1 -20.5t6 -14.5t15 -9.5t27 -5.5q14 -2 14 -13v-10t-2 -8q-13 0 -40.5 -1.5t-46.5 -4.5q-22 -3 -43.5 -7.5t-29.5 -4.5q-9 0 -11.5 3.5t-2.5 11.5v60q-13 -18 -27 -33t-31.5 -25.5t-39.5 -16.5t-50 -6
q-39 0 -72.5 14t-58.5 41.5t-39 67.5t-14 91q0 55 21.5 99.5t54.5 75.5t72 47.5t75 16.5q29 0 53.5 -5.5t55.5 -15.5v94h-143q-5 14 -5 28q0 11 4.5 14.5t13.5 3.5h130v26q0 31 -10 45.5t-47 18.5q-6 2 -10 5t-4 11q0 6 2 16q7 0 18 0.5t24 1t26 1.5t24 2q26 3 48.5 8
t30.5 5q17 0 17 -15q0 -19 -3 -43.5t-3 -56.5v-25zM366 351q-46 46 -104 46q-52 0 -77 -45.5t-25 -124.5q0 -38 6.5 -71.5t19.5 -58t33.5 -38.5t49.5 -14q18 0 35.5 11.5t31 29.5t22 41t8.5 46v178z" />
    <glyph glyph-name="Emacron" unicode="&#x112;" horiz-adv-x="607" 
d="M247 600v-241h141q19 0 26 15.5t12 50.5q1 8 6 10.5t13 2.5q3 0 9.5 -0.5t9.5 -1.5q-2 -23 -3.5 -53.5t-1.5 -51.5q0 -18 1 -42.5t4 -55.5q-3 -2 -9.5 -2.5t-9.5 -0.5q-18 0 -19 14q-6 38 -13.5 51.5t-24.5 13.5h-141v-224q0 -21 26 -28t88 -7h42q30 0 50.5 8t36.5 22.5
t28 34t24 43.5q3 7 14 7q5 0 12 -3l14 -6q-2 -8 -4.5 -15t-4.5 -14q-5 -11 -8 -24t-6 -21l-4.5 -22.5t-5 -24t-5 -20.5t-3.5 -12q-4 -8 -16 -8q-8 0 -23 1t-32.5 1.5t-35.5 1.5t-31 1h-227q-29 0 -66.5 -1.5t-67.5 -3.5q-2 4 -2 10.5v9.5q0 15 10 16q38 7 54.5 15t16.5 28
v501q0 10 -3 16.5t-11.5 11t-22 8t-34.5 7.5q-10 3 -10 18v9.5t2 9.5q43 -3 76 -4t57 -1h205q45 0 77.5 3t44.5 3q11 0 16 -9q3 -8 5 -29.5t7 -44.5q3 -17 7 -33t12 -39q-5 -2 -11 -4t-12 -2q-11 0 -16 9q-12 26 -23.5 44.5t-26 30t-34 16.5t-46.5 5h-133zM167 739
q-6 27 -6 40q0 17 6 21t18 4h251q2 -14 3.5 -23.5t1.5 -16.5q0 -17 -6 -21t-17 -4h-251z" />
    <glyph glyph-name="emacron" unicode="&#x113;" horiz-adv-x="483" 
d="M413 92q9 7 16 7q5 0 11.5 -4.5t13.5 -17.5q-39 -46 -89.5 -67.5t-119.5 -21.5q-39 0 -76.5 12.5t-67.5 39t-48.5 66.5t-18.5 96q0 55 21.5 99.5t54.5 75.5t72 47.5t75 16.5q97 0 146.5 -56t49.5 -153q0 -7 -7 -7l-287 -12q0 -78 35 -119.5t105 -41.5q31 0 61 10t53 30z
M242 397q-39 0 -62.5 -33.5t-23.5 -105.5l156 7q15 1 15 13q0 19 -5 40t-15.5 38.5t-26.5 29t-38 11.5zM127 552q-6 25 -6 40q0 16 6 20t18 4h251q2 -13 3.5 -22.5t1.5 -17.5q0 -16 -6 -20t-17 -4h-251z" />
    <glyph glyph-name="Ebreve" unicode="&#x114;" horiz-adv-x="607" 
d="M247 600v-241h141q19 0 26 15.5t12 50.5q1 8 6 10.5t13 2.5q3 0 9.5 -0.5t9.5 -1.5q-2 -23 -3.5 -53.5t-1.5 -51.5q0 -18 1 -42.5t4 -55.5q-3 -2 -9.5 -2.5t-9.5 -0.5q-18 0 -19 14q-6 38 -13.5 51.5t-24.5 13.5h-141v-224q0 -21 26 -28t88 -7h42q30 0 50.5 8t36.5 22.5
t28 34t24 43.5q3 7 14 7q5 0 12 -3l14 -6q-2 -8 -4.5 -15t-4.5 -14q-5 -11 -8 -24t-6 -21l-4.5 -22.5t-5 -24t-5 -20.5t-3.5 -12q-4 -8 -16 -8q-8 0 -23 1t-32.5 1.5t-35.5 1.5t-31 1h-227q-29 0 -66.5 -1.5t-67.5 -3.5q-2 4 -2 10.5v9.5q0 15 10 16q38 7 54.5 15t16.5 28
v501q0 10 -3 16.5t-11.5 11t-22 8t-34.5 7.5q-10 3 -10 18v9.5t2 9.5q43 -3 76 -4t57 -1h205q45 0 77.5 3t44.5 3q11 0 16 -9q3 -8 5 -29.5t7 -44.5q3 -17 7 -33t12 -39q-5 -2 -11 -4t-12 -2q-11 0 -16 9q-12 26 -23.5 44.5t-26 30t-34 16.5t-46.5 5h-133zM313 786
q30 0 58.5 17.5t54.5 59.5q17 -3 22.5 -7.5t5.5 -10.5q0 -2 -2 -8q-8 -30 -23 -53.5t-34.5 -40t-42 -25t-44.5 -8.5q-23 0 -45 7.5t-41.5 23.5t-34.5 40t-23 56q0 2 -0.5 4t-0.5 3q0 6 5.5 11t21.5 8q26 -43 56.5 -60t66.5 -17z" />
    <glyph glyph-name="ebreve" unicode="&#x115;" horiz-adv-x="483" 
d="M413 92q9 7 16 7q5 0 11.5 -4.5t13.5 -17.5q-39 -46 -89.5 -67.5t-119.5 -21.5q-39 0 -76.5 12.5t-67.5 39t-48.5 66.5t-18.5 96q0 55 21.5 99.5t54.5 75.5t72 47.5t75 16.5q97 0 146.5 -56t49.5 -153q0 -7 -7 -7l-287 -12q0 -78 35 -119.5t105 -41.5q31 0 61 10t53 30z
M242 397q-39 0 -62.5 -33.5t-23.5 -105.5l156 7q15 1 15 13q0 19 -5 40t-15.5 38.5t-26.5 29t-38 11.5zM267 585q30 0 58.5 17.5t54.5 59.5q17 -2 22 -6.5t5 -10.5t-1 -9q-9 -30 -24 -53.5t-34.5 -40t-41.5 -25t-44 -8.5q-23 0 -45 7.5t-41.5 23.5t-34.5 40t-23 56
q-1 3 -1 8q0 7 5 11.5t22 6.5q26 -43 56.5 -60t66.5 -17z" />
    <glyph glyph-name="Edotaccent" unicode="&#x116;" horiz-adv-x="607" 
d="M247 600v-241h141q19 0 26 15.5t12 50.5q1 8 6 10.5t13 2.5q3 0 9.5 -0.5t9.5 -1.5q-2 -23 -3.5 -53.5t-1.5 -51.5q0 -18 1 -42.5t4 -55.5q-3 -2 -9.5 -2.5t-9.5 -0.5q-18 0 -19 14q-6 38 -13.5 51.5t-24.5 13.5h-141v-224q0 -21 26 -28t88 -7h42q30 0 50.5 8t36.5 22.5
t28 34t24 43.5q3 7 14 7q5 0 12 -3l14 -6q-2 -8 -4.5 -15t-4.5 -14q-5 -11 -8 -24t-6 -21l-4.5 -22.5t-5 -24t-5 -20.5t-3.5 -12q-4 -8 -16 -8q-8 0 -23 1t-32.5 1.5t-35.5 1.5t-31 1h-227q-29 0 -66.5 -1.5t-67.5 -3.5q-2 4 -2 10.5v9.5q0 15 10 16q38 7 54.5 15t16.5 28
v501q0 10 -3 16.5t-11.5 11t-22 8t-34.5 7.5q-10 3 -10 18v9.5t2 9.5q43 -3 76 -4t57 -1h205q45 0 77.5 3t44.5 3q11 0 16 -9q3 -8 5 -29.5t7 -44.5q3 -17 7 -33t12 -39q-5 -2 -11 -4t-12 -2q-11 0 -16 9q-12 26 -23.5 44.5t-26 30t-34 16.5t-46.5 5h-133zM243 782
q0 32 20.5 52.5t51.5 20.5q32 0 52 -20.5t20 -52.5t-20 -52.5t-52 -20.5q-31 0 -51.5 20.5t-20.5 52.5z" />
    <glyph glyph-name="edotaccent" unicode="&#x117;" horiz-adv-x="483" 
d="M413 92q9 7 16 7q5 0 11.5 -4.5t13.5 -17.5q-39 -46 -89.5 -67.5t-119.5 -21.5q-39 0 -76.5 12.5t-67.5 39t-48.5 66.5t-18.5 96q0 55 21.5 99.5t54.5 75.5t72 47.5t75 16.5q97 0 146.5 -56t49.5 -153q0 -7 -7 -7l-287 -12q0 -78 35 -119.5t105 -41.5q31 0 61 10t53 30z
M242 397q-39 0 -62.5 -33.5t-23.5 -105.5l156 7q15 1 15 13q0 19 -5 40t-15.5 38.5t-26.5 29t-38 11.5zM185 587q0 32 20.5 52.5t51.5 20.5q32 0 52 -20.5t20 -52.5t-20 -52.5t-52 -20.5q-31 0 -51.5 20.5t-20.5 52.5z" />
    <glyph glyph-name="Eogonek" unicode="&#x118;" horiz-adv-x="607" 
d="M247 600v-241h141q19 0 26 15.5t12 50.5q1 8 6 10.5t13 2.5q3 0 9.5 -0.5t9.5 -1.5q-2 -23 -3.5 -53.5t-1.5 -51.5q0 -18 1 -42.5t4 -55.5q-3 -2 -9.5 -2.5t-9.5 -0.5q-18 0 -19 14q-6 38 -13.5 51.5t-24.5 13.5h-141v-224q0 -21 26 -28t88 -7h42q30 0 50.5 8t36.5 22.5
t28 34t24 43.5q3 7 14 7q5 0 12 -3l14 -6l-9 -29q-5 -11 -8 -24t-6 -21l-4.5 -22.5t-5 -24t-5 -20.5t-3.5 -12q-4 -8 -16 -8q-21 0 -39.5 -13t-32 -32t-21.5 -41.5t-8 -40.5q0 -21 7 -32t27 -11q17 0 26 4.5t17 4.5q5 0 9.5 -8t5.5 -20q-22 -16 -48 -24t-49 -8
q-33 0 -54.5 16.5t-21.5 54.5q0 22 9 43t23.5 40.5t32.5 37t36 33.5q-11 1 -22 1h-19h-227q-29 0 -66.5 -1.5t-67.5 -3.5q-2 4 -2 10.5v9.5q0 15 10 16q38 7 54.5 15t16.5 28v501q0 10 -3 16.5t-11.5 11t-22 8t-34.5 7.5q-10 3 -10 18v9.5t2 9.5q43 -3 76 -4t57 -1h205
q45 0 77.5 3t44.5 3q11 0 16 -9q3 -8 5 -29.5t7 -44.5q3 -17 7 -33t12 -39q-5 -2 -11 -4t-12 -2q-11 0 -16 9q-12 26 -23.5 44.5t-26 30t-34 16.5t-46.5 5h-133z" />
    <glyph glyph-name="eogonek" unicode="&#x119;" horiz-adv-x="483" 
d="M413 92q9 7 16 7q5 0 11.5 -4.5t13.5 -17.5q-24 -26 -48.5 -43.5t-56.5 -36.5q-37 -22 -60 -58t-23 -71q0 -21 7 -32t27 -11q17 0 26 4.5t17 4.5q5 0 9.5 -8t5.5 -20q-22 -16 -48 -24t-49 -8q-33 0 -54.5 16.5t-21.5 54.5q0 21 7.5 40.5t20.5 37.5t29 35t33 32
q-8 -1 -15 -1.5t-15 -0.5q-39 0 -76.5 12.5t-67.5 39t-48.5 66.5t-18.5 96q0 55 21.5 99.5t54.5 75.5t72 47.5t75 16.5q97 0 146.5 -56t49.5 -153q0 -7 -7 -7l-287 -12q0 -78 35 -119.5t105 -41.5q31 0 61 10t53 30zM242 397q-39 0 -62.5 -33.5t-23.5 -105.5l156 7
q15 1 15 13q0 19 -5 40t-15.5 38.5t-26.5 29t-38 11.5z" />
    <glyph glyph-name="Ecaron" unicode="&#x11a;" horiz-adv-x="607" 
d="M247 600v-241h141q19 0 26 15.5t12 50.5q1 8 6 10.5t13 2.5q3 0 9.5 -0.5t9.5 -1.5q-2 -23 -3.5 -53.5t-1.5 -51.5q0 -18 1 -42.5t4 -55.5q-3 -2 -9.5 -2.5t-9.5 -0.5q-18 0 -19 14q-6 38 -13.5 51.5t-24.5 13.5h-141v-224q0 -21 26 -28t88 -7h42q30 0 50.5 8t36.5 22.5
t28 34t24 43.5q3 7 14 7q5 0 12 -3l14 -6q-2 -8 -4.5 -15t-4.5 -14q-5 -11 -8 -24t-6 -21l-4.5 -22.5t-5 -24t-5 -20.5t-3.5 -12q-4 -8 -16 -8q-8 0 -23 1t-32.5 1.5t-35.5 1.5t-31 1h-227q-29 0 -66.5 -1.5t-67.5 -3.5q-2 4 -2 10.5v9.5q0 15 10 16q38 7 54.5 15t16.5 28
v501q0 10 -3 16.5t-11.5 11t-22 8t-34.5 7.5q-10 3 -10 18v9.5t2 9.5q43 -3 76 -4t57 -1h205q45 0 77.5 3t44.5 3q11 0 16 -9q3 -8 5 -29.5t7 -44.5q3 -17 7 -33t12 -39q-5 -2 -11 -4t-12 -2q-11 0 -16 9q-12 26 -23.5 44.5t-26 30t-34 16.5t-46.5 5h-133zM184 831
q-3 3 -3 9t5 12.5t17 11.5q32 -20 62 -38t60 -33q29 16 55.5 33t55.5 38q11 -5 16.5 -11.5t5.5 -12.5q0 -5 -3 -9l-109 -121q-27 0 -41 6t-31 22z" />
    <glyph glyph-name="ecaron" unicode="&#x11b;" horiz-adv-x="483" 
d="M413 92q9 7 16 7q5 0 11.5 -4.5t13.5 -17.5q-39 -46 -89.5 -67.5t-119.5 -21.5q-39 0 -76.5 12.5t-67.5 39t-48.5 66.5t-18.5 96q0 55 21.5 99.5t54.5 75.5t72 47.5t75 16.5q97 0 146.5 -56t49.5 -153q0 -7 -7 -7l-287 -12q0 -78 35 -119.5t105 -41.5q31 0 61 10t53 30z
M242 397q-39 0 -62.5 -33.5t-23.5 -105.5l156 7q15 1 15 13q0 19 -5 40t-15.5 38.5t-26.5 29t-38 11.5zM126 641q-3 3 -3 10q0 6 4.5 12t17.5 11q33 -30 62 -54.5t55 -39.5q24 16 48.5 38.5t57.5 55.5q22 -10 22 -24q0 -5 -3 -9l-104 -149q-30 0 -45.5 6.5t-26.5 21.5z" />
    <glyph glyph-name="Gcircumflex" unicode="&#x11c;" horiz-adv-x="704" 
d="M582 5q-24 -4 -45 -7t-43.5 -5.5t-49 -3.5t-61.5 -1q-90 0 -155.5 24t-107.5 68.5t-62.5 106.5t-20.5 138q0 59 20 119t61.5 108.5t104 79t146.5 30.5q58 0 118.5 -8.5t114.5 -22.5q2 -27 8 -69t17 -82q-5 -1 -12 -2.5t-11 -1.5q-8 0 -13.5 2.5t-7.5 10.5
q-21 69 -69 94.5t-119 25.5q-54 0 -95.5 -18.5t-69 -53t-42 -83t-14.5 -109.5q0 -67 16 -123t47 -96.5t76.5 -63t104.5 -22.5q21 0 37.5 2t34.5 7v144q0 27 -15 37.5t-53 15.5q-8 2 -11 8.5t-3 12.5q0 3 0.5 9t1.5 9q15 -1 33.5 -2t38 -1.5t37.5 -1t31 -0.5t30.5 0.5t36 1
t36 1.5t29.5 2q2 -5 2 -10v-8q0 -9 -3.5 -13.5t-8.5 -6.5q-32 -4 -44.5 -13t-12.5 -30v-174q0 -9 -5 -15t-28 -10zM520 743q3 -3 3 -9t-5 -12.5t-17 -11.5q-32 20 -62 38t-60 33q-29 -16 -55.5 -33t-55.5 -38q-11 5 -16.5 11.5t-5.5 12.5q0 4 3 9l109 121q27 0 41 -6t31 -22
z" />
    <glyph glyph-name="gcircumflex" unicode="&#x11d;" horiz-adv-x="507" 
d="M104 17q-20 11 -30.5 30t-10.5 42q0 32 15 51t47 39q-26 17 -46 43.5t-20 68.5q0 32 14.5 59.5t38.5 47.5t56 31.5t68 11.5q49 0 83.5 -14.5t54.5 -29.5l98 48q12 -8 18.5 -21.5t6.5 -25.5q0 -10 -4 -16.5t-15 -6.5q-4 0 -12 0.5t-13 0.5q-11 0 -22 -1.5t-28 -6.5
q24 -31 24 -76q0 -61 -48.5 -101t-142.5 -40q-21 0 -40 2.5t-36 8.5q-20 -11 -28 -21.5t-8 -18.5t4 -14t16 -10t34.5 -6.5t59.5 -2.5q50 0 92 -8.5t72.5 -26.5t47.5 -46.5t17 -68.5q0 -36 -14.5 -68.5t-43.5 -57t-72.5 -39t-101.5 -14.5q-45 0 -83 7.5t-65.5 24.5t-43 44
t-15.5 67q0 39 22.5 67.5t53.5 46.5zM134 -2q-11 -14 -14.5 -31t-3.5 -37q0 -23 7.5 -44.5t24.5 -38t44 -27t65 -10.5q62 0 90.5 29t28.5 70q0 30 -31 50.5t-105 20.5q-26 0 -56 5t-50 13zM246 195q29 0 48.5 20t19.5 64q0 22 -2.5 43t-11.5 37.5t-25.5 27t-43.5 10.5
t-45 -22t-18 -60q0 -23 2.5 -44.5t11 -38t23.5 -27t41 -10.5zM382 525q3 -3 3 -10q0 -6 -4.5 -12t-17.5 -11q-33 30 -62 54.5t-55 39.5q-24 -16 -48.5 -38.5t-57.5 -55.5q-22 10 -22 24q0 4 3 9l104 149q30 0 45.5 -6.5t26.5 -21.5z" />
    <glyph glyph-name="Gbreve" unicode="&#x11e;" horiz-adv-x="704" 
d="M582 5q-24 -4 -45 -7t-43.5 -5.5t-49 -3.5t-61.5 -1q-90 0 -155.5 24t-107.5 68.5t-62.5 106.5t-20.5 138q0 59 20 119t61.5 108.5t104 79t146.5 30.5q58 0 118.5 -8.5t114.5 -22.5q2 -27 8 -69t17 -82q-5 -1 -12 -2.5t-11 -1.5q-8 0 -13.5 2.5t-7.5 10.5
q-21 69 -69 94.5t-119 25.5q-54 0 -95.5 -18.5t-69 -53t-42 -83t-14.5 -109.5q0 -67 16 -123t47 -96.5t76.5 -63t104.5 -22.5q21 0 37.5 2t34.5 7v144q0 27 -15 37.5t-53 15.5q-8 2 -11 8.5t-3 12.5q0 3 0.5 9t1.5 9q15 -1 33.5 -2t38 -1.5t37.5 -1t31 -0.5t30.5 0.5t36 1
t36 1.5t29.5 2q2 -5 2 -10v-8q0 -9 -3.5 -13.5t-8.5 -6.5q-32 -4 -44.5 -13t-12.5 -30v-174q0 -9 -5 -15t-28 -10zM395 786q30 0 58.5 17.5t54.5 59.5q17 -3 22.5 -7.5t5.5 -10.5q0 -2 -2 -8q-8 -30 -23 -53.5t-34.5 -40t-42 -25t-44.5 -8.5q-23 0 -45 7.5t-41.5 23.5
t-34.5 40t-23 56q0 2 -0.5 4t-0.5 3q0 6 5.5 11t21.5 8q26 -43 56.5 -60t66.5 -17z" />
    <glyph glyph-name="gbreve" unicode="&#x11f;" horiz-adv-x="507" 
d="M104 17q-20 11 -30.5 30t-10.5 42q0 32 15 51t47 39q-26 17 -46 43.5t-20 68.5q0 32 14.5 59.5t38.5 47.5t56 31.5t68 11.5q49 0 83.5 -14.5t54.5 -29.5l98 48q12 -8 18.5 -21.5t6.5 -25.5q0 -10 -4 -16.5t-15 -6.5q-4 0 -12 0.5t-13 0.5q-11 0 -22 -1.5t-28 -6.5
q24 -31 24 -76q0 -61 -48.5 -101t-142.5 -40q-21 0 -40 2.5t-36 8.5q-20 -11 -28 -21.5t-8 -18.5t4 -14t16 -10t34.5 -6.5t59.5 -2.5q50 0 92 -8.5t72.5 -26.5t47.5 -46.5t17 -68.5q0 -36 -14.5 -68.5t-43.5 -57t-72.5 -39t-101.5 -14.5q-45 0 -83 7.5t-65.5 24.5t-43 44
t-15.5 67q0 39 22.5 67.5t53.5 46.5zM134 -2q-11 -14 -14.5 -31t-3.5 -37q0 -23 7.5 -44.5t24.5 -38t44 -27t65 -10.5q62 0 90.5 29t28.5 70q0 30 -31 50.5t-105 20.5q-26 0 -56 5t-50 13zM246 195q29 0 48.5 20t19.5 64q0 22 -2.5 43t-11.5 37.5t-25.5 27t-43.5 10.5
t-45 -22t-18 -60q0 -23 2.5 -44.5t11 -38t23.5 -27t41 -10.5zM257 585q30 0 58.5 17.5t54.5 59.5q17 -2 22 -6.5t5 -10.5t-1 -9q-9 -30 -24 -53.5t-34.5 -40t-41.5 -25t-44 -8.5q-23 0 -45 7.5t-41.5 23.5t-34.5 40t-23 56q-1 3 -1 8q0 7 5 11.5t22 6.5q26 -43 56.5 -60
t66.5 -17z" />
    <glyph glyph-name="Gdotaccent" unicode="&#x120;" horiz-adv-x="704" 
d="M582 5q-24 -4 -45 -7t-43.5 -5.5t-49 -3.5t-61.5 -1q-90 0 -155.5 24t-107.5 68.5t-62.5 106.5t-20.5 138q0 59 20 119t61.5 108.5t104 79t146.5 30.5q58 0 118.5 -8.5t114.5 -22.5q2 -27 8 -69t17 -82q-5 -1 -12 -2.5t-11 -1.5q-8 0 -13.5 2.5t-7.5 10.5
q-21 69 -69 94.5t-119 25.5q-54 0 -95.5 -18.5t-69 -53t-42 -83t-14.5 -109.5q0 -67 16 -123t47 -96.5t76.5 -63t104.5 -22.5q21 0 37.5 2t34.5 7v144q0 27 -15 37.5t-53 15.5q-8 2 -11 8.5t-3 12.5q0 3 0.5 9t1.5 9q15 -1 33.5 -2t38 -1.5t37.5 -1t31 -0.5t30.5 0.5t36 1
t36 1.5t29.5 2q2 -5 2 -10v-8q0 -9 -3.5 -13.5t-8.5 -6.5q-32 -4 -44.5 -13t-12.5 -30v-174q0 -9 -5 -15t-28 -10zM314 782q0 32 20.5 52.5t51.5 20.5q32 0 52 -20.5t20 -52.5t-20 -52.5t-52 -20.5q-31 0 -51.5 20.5t-20.5 52.5z" />
    <glyph glyph-name="gdotaccent" unicode="&#x121;" horiz-adv-x="507" 
d="M104 17q-20 11 -30.5 30t-10.5 42q0 32 15 51t47 39q-26 17 -46 43.5t-20 68.5q0 32 14.5 59.5t38.5 47.5t56 31.5t68 11.5q49 0 83.5 -14.5t54.5 -29.5l98 48q12 -8 18.5 -21.5t6.5 -25.5q0 -10 -4 -16.5t-15 -6.5q-4 0 -12 0.5t-13 0.5q-11 0 -22 -1.5t-28 -6.5
q24 -31 24 -76q0 -61 -48.5 -101t-142.5 -40q-21 0 -40 2.5t-36 8.5q-20 -11 -28 -21.5t-8 -18.5t4 -14t16 -10t34.5 -6.5t59.5 -2.5q50 0 92 -8.5t72.5 -26.5t47.5 -46.5t17 -68.5q0 -36 -14.5 -68.5t-43.5 -57t-72.5 -39t-101.5 -14.5q-45 0 -83 7.5t-65.5 24.5t-43 44
t-15.5 67q0 39 22.5 67.5t53.5 46.5zM134 -2q-11 -14 -14.5 -31t-3.5 -37q0 -23 7.5 -44.5t24.5 -38t44 -27t65 -10.5q62 0 90.5 29t28.5 70q0 30 -31 50.5t-105 20.5q-26 0 -56 5t-50 13zM246 195q29 0 48.5 20t19.5 64q0 22 -2.5 43t-11.5 37.5t-25.5 27t-43.5 10.5
t-45 -22t-18 -60q0 -23 2.5 -44.5t11 -38t23.5 -27t41 -10.5zM179 587q0 32 20.5 52.5t51.5 20.5q32 0 52 -20.5t20 -52.5t-20 -52.5t-52 -20.5q-31 0 -51.5 20.5t-20.5 52.5z" />
    <glyph glyph-name="Gcommaaccent" unicode="&#x122;" horiz-adv-x="704" 
d="M582 5q-24 -4 -45 -7t-43.5 -5.5t-49 -3.5t-61.5 -1q-90 0 -155.5 24t-107.5 68.5t-62.5 106.5t-20.5 138q0 59 20 119t61.5 108.5t104 79t146.5 30.5q58 0 118.5 -8.5t114.5 -22.5q2 -27 8 -69t17 -82q-5 -1 -12 -2.5t-11 -1.5q-8 0 -13.5 2.5t-7.5 10.5
q-21 69 -69 94.5t-119 25.5q-54 0 -95.5 -18.5t-69 -53t-42 -83t-14.5 -109.5q0 -67 16 -123t47 -96.5t76.5 -63t104.5 -22.5q21 0 37.5 2t34.5 7v144q0 27 -15 37.5t-53 15.5q-8 2 -11 8.5t-3 12.5q0 3 0.5 9t1.5 9q15 -1 33.5 -2t38 -1.5t37.5 -1t31 -0.5t30.5 0.5t36 1
t36 1.5t29.5 2q2 -5 2 -10v-8q0 -9 -3.5 -13.5t-8.5 -6.5q-32 -4 -44.5 -13t-12.5 -30v-174q0 -9 -5 -15t-28 -10zM330 -254q-16 12 -16 23q0 6 5 13q14 17 19 29t5 23q0 14 -7.5 23.5t-19.5 18.5q-11 8 -11 21q0 14 12 28.5t41 28.5q25 -14 42.5 -36.5t17.5 -51.5
q0 -28 -20 -58t-68 -62z" />
    <glyph glyph-name="gcommaaccent" unicode="&#x123;" horiz-adv-x="507" 
d="M104 17q-20 11 -30.5 30t-10.5 42q0 32 15 51t47 39q-26 17 -46 43.5t-20 68.5q0 32 14.5 59.5t38.5 47.5t56 31.5t68 11.5q49 0 83.5 -14.5t54.5 -29.5l98 48q12 -8 18.5 -21.5t6.5 -25.5q0 -10 -4 -16.5t-15 -6.5q-4 0 -12 0.5t-13 0.5q-11 0 -22 -1.5t-28 -6.5
q24 -31 24 -76q0 -61 -48.5 -101t-142.5 -40q-21 0 -40 2.5t-36 8.5q-20 -11 -28 -21.5t-8 -18.5t4 -14t16 -10t34.5 -6.5t59.5 -2.5q50 0 92 -8.5t72.5 -26.5t47.5 -46.5t17 -68.5q0 -36 -14.5 -68.5t-43.5 -57t-72.5 -39t-101.5 -14.5q-45 0 -83 7.5t-65.5 24.5t-43 44
t-15.5 67q0 39 22.5 67.5t53.5 46.5zM134 -2q-11 -14 -14.5 -31t-3.5 -37q0 -23 7.5 -44.5t24.5 -38t44 -27t65 -10.5q62 0 90.5 29t28.5 70q0 30 -31 50.5t-105 20.5q-26 0 -56 5t-50 13zM246 195q29 0 48.5 20t19.5 64q0 22 -2.5 43t-11.5 37.5t-25.5 27t-43.5 10.5
t-45 -22t-18 -60q0 -23 2.5 -44.5t11 -38t23.5 -27t41 -10.5zM279 699q16 -11 16 -23q0 -6 -6 -13q-24 -30 -24 -51q0 -14 8 -24t19 -18t11 -22q0 -13 -11.5 -27.5t-40.5 -28.5q-26 13 -43.5 36t-17.5 52q0 27 20 57.5t69 61.5z" />
    <glyph glyph-name="Hcircumflex" unicode="&#x124;" horiz-adv-x="746" 
d="M634 74q0 -10 1.5 -16.5t8 -11.5t19 -8.5t33.5 -6.5q10 -2 10 -17q0 -3 -0.5 -9t-1.5 -10q-32 2 -68 3.5t-64 1.5q-29 0 -65.5 -1.5t-68.5 -3.5q-2 4 -2 10v9q0 16 10 17q21 3 33.5 6.5t18.5 8.5t8 11.5t2 16.5v235h-270v-235q0 -10 1.5 -16.5t8 -11.5t19 -8.5t33.5 -6.5
q10 -2 10 -17q0 -3 -0.5 -9t-1.5 -10q-32 2 -69 3.5t-65 1.5t-64 -1.5t-68 -3.5q-2 4 -2 10v9q0 16 10 17q21 3 33.5 6.5t18.5 8.5t8 11.5t2 16.5v501q0 10 -2 16.5t-8 11.5t-18.5 8.5t-33.5 6.5q-10 3 -10 17v9t2 11q32 -2 68 -3.5t64 -1.5t65 1.5t69 3.5q1 -5 1.5 -11
t0.5 -9q0 -14 -10 -17q-21 -3 -33.5 -6.5t-19 -8.5t-8 -11.5t-1.5 -16.5v-213h270v213q0 10 -2 16.5t-8 11.5t-18.5 8.5t-33.5 6.5q-10 3 -10 17v9t2 11q32 -2 68.5 -3.5t65.5 -1.5q28 0 64 1.5t68 3.5q1 -5 1.5 -11t0.5 -9q0 -14 -10 -17q-21 -3 -33.5 -6.5t-19 -8.5
t-8 -11.5t-1.5 -16.5v-501zM512 743q3 -3 3 -9t-5 -12.5t-17 -11.5q-32 20 -62 38t-60 33q-29 -16 -55.5 -33t-55.5 -38q-11 5 -16.5 11.5t-5.5 12.5q0 4 3 9l109 121q27 0 41 -6t31 -22z" />
    <glyph glyph-name="hcircumflex" unicode="&#x125;" horiz-adv-x="583" 
d="M265 -5q-26 2 -54 3.5t-60 1.5q-39 0 -65.5 -1.5t-51.5 -3.5q-2 10 -2 19q0 7 3.5 9.5t7.5 3.5q32 5 44 12.5t12 22.5v524q0 30 -10 45.5t-47 18.5q-13 2 -13 16v7.5t2 8.5q6 0 17.5 0.5t24.5 1t26 1.5t24 2q25 3 48 8t31 5q16 0 16 -15q0 -11 -3 -28.5t-3 -49.5v-259
q32 42 71 67.5t81 25.5q61 0 96 -34t35 -102v-244q0 -14 11.5 -21t44.5 -13q4 -1 7.5 -3.5t3.5 -9.5q0 -9 -2 -19q-26 2 -52 3.5t-65 1.5q-32 0 -60 -1.5t-54 -3.5q-2 4 -2 9v10q0 11 11 13q27 5 35.5 12t8.5 22v196q0 59 -14.5 81.5t-46.5 22.5q-45 0 -77 -30.5t-32 -90.5
v-179q0 -15 8 -22t36 -12q11 -2 11 -13v-10t-2 -9zM274 743q3 -3 3 -9t-5 -12.5t-17 -11.5q-32 20 -62 38t-60 33q-29 -16 -55.5 -33t-55.5 -38q-11 5 -16.5 11.5t-5.5 12.5q0 4 3 9l109 121q27 0 41 -6t31 -22z" />
    <glyph glyph-name="Hbar" unicode="&#x126;" horiz-adv-x="746" 
d="M634 74q0 -10 1.5 -16.5t8 -11.5t19 -8.5t33.5 -6.5q10 -2 10 -17q0 -3 -0.5 -9t-1.5 -10q-32 2 -68 3.5t-64 1.5q-29 0 -65.5 -1.5t-68.5 -3.5q-2 4 -2 10v9q0 16 10 17q21 3 33.5 6.5t18.5 8.5t8 11.5t2 16.5v235h-270v-235q0 -10 1.5 -16.5t8 -11.5t19 -8.5t33.5 -6.5
q10 -2 10 -17q0 -3 -0.5 -9t-1.5 -10q-32 2 -69 3.5t-65 1.5t-64 -1.5t-68 -3.5q-2 4 -2 10v9q0 16 10 17q21 3 33.5 6.5t18.5 8.5t8 11.5t2 16.5v386h-86q-1 6 -1 10.5v9.5q0 29 16 29h71v66q0 10 -2 16.5t-8 11.5t-18.5 8.5t-33.5 6.5q-10 3 -10 17v9t2 11q32 -2 68 -3.5
t64 -1.5t65 1.5t69 3.5q1 -5 1.5 -11t0.5 -9q0 -14 -10 -17q-21 -3 -33.5 -6.5t-19 -8.5t-8 -11.5t-1.5 -16.5v-66h270v66q0 10 -2 16.5t-8 11.5t-18.5 8.5t-33.5 6.5q-10 3 -10 17v9t2 11q32 -2 68.5 -3.5t65.5 -1.5q28 0 64 1.5t68 3.5q1 -5 1.5 -11t0.5 -9q0 -14 -10 -17
q-21 -3 -33.5 -6.5t-19 -8.5t-8 -11.5t-1.5 -16.5v-66h90q1 -5 1 -9.5v-9.5q0 -30 -16 -30h-75v-386zM508 362v98h-270v-98h270z" />
    <glyph glyph-name="hbar" unicode="&#x127;" horiz-adv-x="583" 
d="M265 -5q-26 2 -54 3.5t-60 1.5q-39 0 -65.5 -1.5t-51.5 -3.5q-2 10 -2 19q0 7 3.5 9.5t7.5 3.5q32 5 44 12.5t12 22.5v449h-59q-5 15 -5 25q0 22 18 22h46v28q0 30 -10 45.5t-47 18.5q-13 2 -13 16v7.5t2 8.5q6 0 17.5 0.5t24.5 1t26 1.5t24 2q25 3 48 8t31 5
q16 0 16 -15q0 -11 -3 -28.5t-3 -49.5v-49h154q5 -11 5 -25q0 -22 -18 -22h-141v-163q32 42 71 67.5t81 25.5q61 0 96 -34t35 -102v-244q0 -14 11.5 -21t44.5 -13q4 -1 7.5 -3.5t3.5 -9.5q0 -9 -2 -19q-26 2 -52 3.5t-65 1.5q-32 0 -60 -1.5t-54 -3.5q-2 4 -2 9v10
q0 11 11 13q27 5 35.5 12t8.5 22v196q0 59 -14.5 81.5t-46.5 22.5q-45 0 -77 -30.5t-32 -90.5v-179q0 -15 8 -22t36 -12q11 -2 11 -13v-10t-2 -9z" />
    <glyph glyph-name="Itilde" unicode="&#x128;" horiz-adv-x="350" 
d="M238 74q0 -10 1.5 -16.5t8 -11.5t19 -8.5t33.5 -6.5q10 -2 10 -17q0 -3 -0.5 -9t-1.5 -10q-32 2 -68.5 3.5t-64.5 1.5q-29 0 -65 -1.5t-68 -3.5q-2 4 -2 10v9q0 16 10 17q21 3 33.5 6.5t18.5 8.5t8 11.5t2 16.5v501q0 10 -2 16.5t-8 11.5t-18.5 8.5t-33.5 6.5
q-10 3 -10 17v9t2 11q32 -2 68 -3.5t65 -1.5q28 0 64.5 1.5t68.5 3.5q1 -5 1.5 -11t0.5 -9q0 -14 -10 -17q-21 -3 -33.5 -6.5t-19 -8.5t-8 -11.5t-1.5 -16.5v-501zM34 741q21 32 50.5 55t56.5 23q9 0 22 -3t34 -14q16 -8 26.5 -10.5t18.5 -2.5q23 0 39 7.5t30 22.5
q12 -5 16 -10.5t4 -10.5q0 -7 -4 -12q-23 -35 -48.5 -55.5t-53.5 -20.5q-11 0 -26 3.5t-31 11.5q-34 17 -51 17t-33 -7.5t-33 -24.5q-11 4 -15.5 10t-4.5 12q0 2 1 4.5t2 4.5z" />
    <glyph glyph-name="itilde" unicode="&#x129;" horiz-adv-x="302" 
d="M155 0q-39 0 -67 -1.5t-54 -3.5q-2 10 -2 19q0 7 3.5 9.5t7.5 3.5q32 6 44 13t12 22v264q0 30 -10 46t-47 19q-13 2 -13 16v7.5t2 8.5q6 0 17.5 0.5t24.5 1t26 1.5t24 2q25 3 48 8t31 5q16 0 16 -15q0 -11 -3 -29t-3 -50v-285q0 -15 13 -22t43 -13q11 -2 11 -13v-10
t-2 -9q-25 2 -54 3.5t-68 1.5zM-2 563q21 31 49.5 54t55.5 23q12 0 25 -4t27 -11q17 -8 27.5 -11.5t20.5 -3.5q23 0 38 8t29 22q11 -4 15 -9.5t4 -11.5q0 -7 -3 -11q-24 -35 -49 -56t-52 -21q-15 0 -30 5t-35 14q-16 8 -25 10.5t-17 2.5q-17 0 -32 -7t-31 -25q-12 5 -16 11
t-4 11t3 10z" />
    <glyph glyph-name="Imacron" unicode="&#x12a;" horiz-adv-x="350" 
d="M238 74q0 -10 1.5 -16.5t8 -11.5t19 -8.5t33.5 -6.5q10 -2 10 -17q0 -3 -0.5 -9t-1.5 -10q-32 2 -68.5 3.5t-64.5 1.5q-29 0 -65 -1.5t-68 -3.5q-2 4 -2 10v9q0 16 10 17q21 3 33.5 6.5t18.5 8.5t8 11.5t2 16.5v501q0 10 -2 16.5t-8 11.5t-18.5 8.5t-33.5 6.5
q-10 3 -10 17v9t2 11q32 -2 68 -3.5t65 -1.5q28 0 64.5 1.5t68.5 3.5q1 -5 1.5 -11t0.5 -9q0 -14 -10 -17q-21 -3 -33.5 -6.5t-19 -8.5t-8 -11.5t-1.5 -16.5v-501zM42 739q-6 27 -6 40q0 17 6 21t18 4h251q2 -14 3.5 -23.5t1.5 -16.5q0 -17 -6 -21t-17 -4h-251z" />
    <glyph glyph-name="imacron" unicode="&#x12b;" horiz-adv-x="302" 
d="M155 0q-39 0 -67 -1.5t-54 -3.5q-2 10 -2 19q0 7 3.5 9.5t7.5 3.5q32 6 44 13t12 22v264q0 30 -10 46t-47 19q-13 2 -13 16v7.5t2 8.5q6 0 17.5 0.5t24.5 1t26 1.5t24 2q25 3 48 8t31 5q16 0 16 -15q0 -11 -3 -29t-3 -50v-285q0 -15 13 -22t43 -13q11 -2 11 -13v-10
t-2 -9q-25 2 -54 3.5t-68 1.5zM4 552q-6 25 -6 40q0 16 6 20t18 4h251q2 -13 3.5 -22.5t1.5 -17.5q0 -16 -6 -20t-17 -4h-251z" />
    <glyph glyph-name="Ibreve" unicode="&#x12c;" horiz-adv-x="350" 
d="M238 74q0 -10 1.5 -16.5t8 -11.5t19 -8.5t33.5 -6.5q10 -2 10 -17q0 -3 -0.5 -9t-1.5 -10q-32 2 -68.5 3.5t-64.5 1.5q-29 0 -65 -1.5t-68 -3.5q-2 4 -2 10v9q0 16 10 17q21 3 33.5 6.5t18.5 8.5t8 11.5t2 16.5v501q0 10 -2 16.5t-8 11.5t-18.5 8.5t-33.5 6.5
q-10 3 -10 17v9t2 11q32 -2 68 -3.5t65 -1.5q28 0 64.5 1.5t68.5 3.5q1 -5 1.5 -11t0.5 -9q0 -14 -10 -17q-21 -3 -33.5 -6.5t-19 -8.5t-8 -11.5t-1.5 -16.5v-501zM186 786q30 0 58.5 17.5t54.5 59.5q17 -3 22.5 -7.5t5.5 -10.5q0 -2 -2 -8q-8 -30 -23 -53.5t-34.5 -40
t-42 -25t-44.5 -8.5q-23 0 -45 7.5t-41.5 23.5t-34.5 40t-23 56q0 2 -0.5 4t-0.5 3q0 6 5.5 11t21.5 8q26 -43 56.5 -60t66.5 -17z" />
    <glyph glyph-name="ibreve" unicode="&#x12d;" horiz-adv-x="302" 
d="M155 0q-39 0 -67 -1.5t-54 -3.5q-2 10 -2 19q0 7 3.5 9.5t7.5 3.5q32 6 44 13t12 22v264q0 30 -10 46t-47 19q-13 2 -13 16v7.5t2 8.5q6 0 17.5 0.5t24.5 1t26 1.5t24 2q25 3 48 8t31 5q16 0 16 -15q0 -11 -3 -29t-3 -50v-285q0 -15 13 -22t43 -13q11 -2 11 -13v-10
t-2 -9q-25 2 -54 3.5t-68 1.5zM148 585q30 0 58.5 17.5t54.5 59.5q17 -2 22 -6.5t5 -10.5t-1 -9q-9 -30 -24 -53.5t-34.5 -40t-41.5 -25t-44 -8.5q-23 0 -45 7.5t-41.5 23.5t-34.5 40t-23 56q-1 3 -1 8q0 7 5 11.5t22 6.5q26 -43 56.5 -60t66.5 -17z" />
    <glyph glyph-name="Iogonek" unicode="&#x12e;" horiz-adv-x="350" 
d="M238 74q0 -10 1.5 -16.5t8 -11.5t19 -8.5t33.5 -6.5q10 -2 10 -17q0 -3 -0.5 -9t-1.5 -10l-83 4q-32 -31 -51 -63.5t-19 -67.5q0 -21 7 -32t27 -11q17 0 26 4.5t17 4.5q5 0 9.5 -8t5.5 -20q-22 -16 -48 -24t-49 -8q-33 0 -54.5 16.5t-21.5 54.5q0 23 9 44t24 40.5
t33.5 37t36.5 33.5h-2q-29 0 -65 -1.5t-68 -3.5q-2 4 -2 10v9q0 16 10 17q21 3 33.5 6.5t18.5 8.5t8 11.5t2 16.5v501q0 10 -2 16.5t-8 11.5t-18.5 8.5t-33.5 6.5q-10 3 -10 17v9t2 11q32 -2 68 -3.5t65 -1.5q28 0 64.5 1.5t68.5 3.5q1 -5 1.5 -11t0.5 -9q0 -14 -10 -17
q-21 -3 -33.5 -6.5t-19 -8.5t-8 -11.5t-1.5 -16.5v-501z" />
    <glyph glyph-name="iogonek" unicode="&#x12f;" horiz-adv-x="302" 
d="M277 -5q-17 2 -35 3t-40 2q-33 -31 -52 -64t-19 -68q0 -21 7 -32t27 -11q17 0 26 4.5t17 4.5q5 0 9.5 -8t5.5 -20q-22 -16 -48 -24t-49 -8q-33 0 -54.5 16.5t-21.5 54.5q0 23 9 44t24 40.5t33.5 37t36.5 33.5q-38 0 -66 -1.5t-53 -3.5q-2 10 -2 19q0 7 3.5 9.5t7.5 3.5
q32 6 44 13t12 22v264q0 30 -10 46t-47 19q-13 2 -13 16v7.5t2 8.5q6 0 17.5 0.5t24.5 1t26 1.5t24 2q25 3 48 8t31 5q16 0 16 -15q0 -11 -3 -29t-3 -50v-285q0 -15 13 -22t43 -13q11 -2 11 -13v-10t-2 -9zM82 587q0 32 20.5 52.5t51.5 20.5q32 0 52 -20.5t20 -52.5
t-20 -52.5t-52 -20.5q-31 0 -51.5 20.5t-20.5 52.5z" />
    <glyph glyph-name="Idotaccent" unicode="&#x130;" horiz-adv-x="350" 
d="M238 74q0 -10 1.5 -16.5t8 -11.5t19 -8.5t33.5 -6.5q10 -2 10 -17q0 -3 -0.5 -9t-1.5 -10q-32 2 -68.5 3.5t-64.5 1.5q-29 0 -65 -1.5t-68 -3.5q-2 4 -2 10v9q0 16 10 17q21 3 33.5 6.5t18.5 8.5t8 11.5t2 16.5v501q0 10 -2 16.5t-8 11.5t-18.5 8.5t-33.5 6.5
q-10 3 -10 17v9t2 11q32 -2 68 -3.5t65 -1.5q28 0 64.5 1.5t68.5 3.5q1 -5 1.5 -11t0.5 -9q0 -14 -10 -17q-21 -3 -33.5 -6.5t-19 -8.5t-8 -11.5t-1.5 -16.5v-501zM105 782q0 32 20.5 52.5t51.5 20.5q32 0 52 -20.5t20 -52.5t-20 -52.5t-52 -20.5q-31 0 -51.5 20.5
t-20.5 52.5z" />
    <glyph glyph-name="dotlessi" unicode="&#x131;" horiz-adv-x="302" 
d="M155 0q-39 0 -67 -1.5t-54 -3.5q-2 10 -2 19q0 7 3.5 9.5t7.5 3.5q32 6 44 13t12 22v264q0 30 -10 46t-47 19q-13 2 -13 16v7.5t2 8.5q6 0 17.5 0.5t24.5 1t26 1.5t24 2q25 3 48 8t31 5q16 0 16 -15q0 -11 -3 -29t-3 -50v-285q0 -15 13 -22t43 -13q11 -2 11 -13v-10
t-2 -9q-25 2 -54 3.5t-68 1.5z" />
    <glyph glyph-name="IJ" unicode="&#x132;" horiz-adv-x="691" 
d="M238 74q0 -10 1.5 -16.5t8 -11.5t19 -8.5t33.5 -6.5q10 -2 10 -17q0 -3 -0.5 -9t-1.5 -10q-32 2 -68.5 3.5t-64.5 1.5q-29 0 -65 -1.5t-68 -3.5q-2 4 -2 10v9q0 16 10 17q21 3 33.5 6.5t18.5 8.5t8 11.5t2 16.5v501q0 10 -2 16.5t-8 11.5t-18.5 8.5t-33.5 6.5
q-10 3 -10 17v9t2 11q32 -2 68 -3.5t65 -1.5q28 0 64.5 1.5t68.5 3.5q1 -5 1.5 -11t0.5 -9q0 -14 -10 -17q-21 -3 -33.5 -6.5t-19 -8.5t-8 -11.5t-1.5 -16.5v-501zM453 575q0 10 -2 16.5t-8 11.5t-18.5 8.5t-33.5 6.5q-10 3 -10 17v9t2 11q32 -2 68.5 -3.5t65.5 -1.5
q28 0 64 1.5t68 3.5q1 -5 1.5 -11t0.5 -9q0 -14 -10 -17q-21 -3 -33.5 -6.5t-19 -8.5t-8 -11.5t-1.5 -16.5v-433q0 -70 -9.5 -119.5t-32.5 -89.5t-63.5 -75.5t-101.5 -77.5q-8 7 -13.5 13t-5.5 12q0 5 1.5 8t3.5 5q28 27 46 52t29 51.5t15.5 56t4.5 64.5v533z" />
    <glyph glyph-name="ij" unicode="&#x133;" horiz-adv-x="568" 
d="M155 0q-39 0 -67 -1.5t-54 -3.5q-2 10 -2 19q0 7 3.5 9.5t7.5 3.5q32 6 44 13t12 22v264q0 30 -10 46t-47 19q-13 2 -13 16v7.5t2 8.5q6 0 17.5 0.5t24.5 1t26 1.5t24 2q25 3 48 8t31 5q16 0 16 -15q0 -11 -3 -29t-3 -50v-285q0 -15 13 -22t43 -13q11 -2 11 -13v-10
t-2 -9q-25 2 -54 3.5t-68 1.5zM82 587q0 32 20.5 52.5t51.5 20.5q32 0 52 -20.5t20 -52.5t-20 -52.5t-52 -20.5q-31 0 -51.5 20.5t-20.5 52.5zM373 326q0 30 -11 44.5t-51 19.5q-14 3 -14 17q0 8 2 16q7 0 18.5 0.5t25 1t27 1.5t24.5 2q25 3 49 8t32 5q17 0 17 -15
q0 -11 -3 -29t-3 -50v-247q0 -67 -7 -111.5t-27.5 -80.5t-58.5 -69.5t-100 -78.5q-6 5 -10.5 10.5t-4.5 12.5q0 5 2.5 9t4.5 7q27 27 44 49t27 44t13.5 47.5t3.5 60.5v326zM355 587q0 32 20.5 52.5t52.5 20.5q31 0 51.5 -20.5t20.5 -52.5t-20.5 -52.5t-51.5 -20.5
q-32 0 -52.5 20.5t-20.5 52.5z" />
    <glyph glyph-name="Jcircumflex" unicode="&#x134;" horiz-adv-x="354" 
d="M116 575q0 10 -2 16.5t-8 11.5t-18.5 8.5t-33.5 6.5q-10 3 -10 17v9t2 11q32 -2 68.5 -3.5t65.5 -1.5q28 0 64 1.5t68 3.5q1 -5 1.5 -11t0.5 -9q0 -14 -10 -17q-21 -3 -33.5 -6.5t-19 -8.5t-8 -11.5t-1.5 -16.5v-433q0 -70 -9.5 -119.5t-32.5 -89.5t-63.5 -75.5
t-101.5 -77.5q-8 7 -13.5 13t-5.5 12q0 8 5 13q28 27 46 52t29 51.5t15.5 56t4.5 64.5v533zM313 743q3 -3 3 -9t-5 -12.5t-17 -11.5q-32 20 -62 38t-60 33q-29 -16 -55.5 -33t-55.5 -38q-11 5 -16.5 11.5t-5.5 12.5q0 4 3 9l109 121q27 0 41 -6t31 -22z" />
    <glyph glyph-name="jcircumflex" unicode="&#x135;" horiz-adv-x="294" 
d="M99 326q0 30 -11 44.5t-51 19.5q-14 3 -14 17q0 8 2 16q7 0 18.5 0.5t25 1t27 1.5t24.5 2q25 3 49 8t32 5q17 0 17 -15q0 -11 -3 -29t-3 -50v-247q0 -67 -7 -111.5t-27.5 -80.5t-58.5 -69.5t-100 -78.5q-6 5 -10.5 10.5t-4.5 12.5q0 5 2.5 9t4.5 7q27 27 44 49t27 44
t13.5 47.5t3.5 60.5v326zM272 525q3 -3 3 -10q0 -6 -4.5 -12t-17.5 -11q-33 30 -62 54.5t-55 39.5q-24 -16 -48.5 -38.5t-57.5 -55.5q-22 10 -22 24q0 4 3 9l104 149q30 0 45.5 -6.5t26.5 -21.5z" />
    <glyph glyph-name="Kcommaaccent" unicode="&#x136;" horiz-adv-x="677" 
d="M238 327v-253q0 -10 1 -16.5t6.5 -11.5t16 -8.5t29.5 -6.5q11 -2 11 -15q0 -3 -0.5 -10t-1.5 -11q-32 2 -65 3.5t-61 1.5t-64 -1.5t-68 -3.5q-2 4 -2 10.5v9.5q0 15 10 16q21 3 33.5 6.5t18.5 8.5t8 11.5t2 16.5v501q0 10 -2 16.5t-8 11.5t-18.5 8.5t-33.5 6.5
q-10 3 -10 17v9t2 11q32 -2 68 -3.5t64 -1.5t65 1.5t69 3.5q1 -5 1.5 -11t0.5 -9q0 -14 -10 -17q-21 -3 -33.5 -6.5t-19 -8.5t-8 -11.5t-1.5 -16.5v-231l217 217q21 19 21 34q0 17 -45 22q-11 0 -11 21v7.5t2 9.5q28 -2 58.5 -3.5t54.5 -1.5q11 0 25 0.5t28.5 1t28 1.5
t23.5 2q2 -5 2 -9.5v-7.5q0 -20 -11 -22q-28 -6 -45 -13.5t-33 -23.5l-203 -197l238 -300q18 -23 36 -32.5t45 -14.5q14 -2 14 -18q0 -3 -0.5 -10.5t-2.5 -11.5q-15 1 -33.5 2t-37.5 1.5t-36.5 1t-30.5 0.5q-28 0 -68.5 -1.5t-75.5 -3.5q-1 4 -1.5 10.5t-0.5 9.5q0 16 12 16
q24 3 33.5 8t9.5 13q0 6 -3.5 11.5t-9.5 13.5zM312 -254q-16 12 -16 23q0 6 5 13q14 17 19 29t5 23q0 14 -7.5 23.5t-19.5 18.5q-11 8 -11 21q0 14 12 28.5t41 28.5q25 -14 42.5 -36.5t17.5 -51.5q0 -28 -20 -58t-68 -62z" />
    <glyph glyph-name="kcommaaccent" unicode="&#x137;" horiz-adv-x="545" 
d="M212 62q0 -14 7.5 -20.5t36.5 -14.5q4 -1 7.5 -3.5t3.5 -9.5q0 -6 -0.5 -10.5t-1.5 -8.5q-27 2 -52 3.5t-58 1.5q-39 0 -67 -1.5t-54 -3.5q-1 4 -1.5 8.5t-0.5 10.5q0 7 3.5 9.5t7.5 3.5q26 5 41 12.5t15 22.5v524q0 30 -11 45.5t-46 18.5q-13 3 -13 16v8t2 8
q6 0 17.5 0.5t24.5 1t26 1.5t24 2q25 3 48 8t31 5q16 0 16 -15q0 -11 -3 -28.5t-3 -49.5v-359l146 123q8 6 8 13q0 14 -34 17q-12 1 -12 15q0 8 2 16q48 -3 97 -3q23 0 44.5 0.5t46.5 2.5q1 -5 2 -9t1 -7q0 -14 -14 -16q-27 -3 -41 -8.5t-24 -13.5l-117 -102l152 -209
q15 -21 30.5 -29t34.5 -11q11 -2 11 -13q0 -3 -0.5 -9t-2.5 -10q-38 1 -77 1.5t-83 0.5l-165 225h-5v-160zM270 -254q-16 12 -16 23q0 6 5 13q14 17 19 29t5 23q0 14 -7.5 23.5t-19.5 18.5q-11 8 -11 21q0 14 12 28.5t41 28.5q25 -14 42.5 -36.5t17.5 -51.5q0 -28 -20 -58
t-68 -62z" />
    <glyph glyph-name="kgreenlandic" unicode="&#x138;" horiz-adv-x="545" 
d="M212 62q0 -14 7.5 -20.5t36.5 -14.5q4 -1 7.5 -3.5t3.5 -9.5q0 -6 -0.5 -10.5t-1.5 -8.5q-27 2 -52 3.5t-58 1.5q-39 0 -67 -1.5t-54 -3.5q-1 4 -1.5 8.5t-0.5 10.5q0 7 3.5 9.5t7.5 3.5q26 5 41 12.5t15 22.5v524q0 30 -11 45.5t-46 18.5q-13 3 -13 16v8t2 8
q6 0 17.5 0.5t24.5 1t26 1.5t24 2q25 3 48 8t31 5q16 0 16 -15q0 -11 -3 -28.5t-3 -49.5v-359l146 123q8 6 8 13q0 14 -34 17q-12 1 -12 15q0 8 2 16q48 -3 97 -3q23 0 44.5 0.5t46.5 2.5q1 -5 2 -9t1 -7q0 -14 -14 -16q-27 -3 -41 -8.5t-24 -13.5l-117 -102l152 -209
q15 -21 30.5 -29t34.5 -11q11 -2 11 -13q0 -3 -0.5 -9t-2.5 -10q-38 1 -77 1.5t-83 0.5l-165 225h-5v-160z" />
    <glyph glyph-name="Lacute" unicode="&#x139;" horiz-adv-x="570" 
d="M247 85q0 -21 27 -28t89 -7h38q25 0 43.5 5.5t32.5 18.5t25.5 33.5t22.5 49.5q3 8 15 8q5 0 12 -3l14 -6q-8 -32 -14.5 -69.5t-11.5 -73.5q-1 -12 -6.5 -15t-11.5 -3q-8 0 -22.5 1t-31.5 1.5t-34.5 1.5t-30.5 1h-227q-29 0 -66.5 -1.5t-67.5 -3.5q-2 4 -2 10.5v9.5
q0 15 10 16q38 7 54.5 15t16.5 28v501q0 10 -2 16.5t-8 11.5t-18.5 8.5t-33.5 6.5q-10 3 -10 17v9t2 11q32 -2 68 -3.5t64 -1.5q14 0 32 0.5t37.5 1t39 1.5t35.5 2q1 -5 1.5 -11t0.5 -9q0 -14 -10 -17q-43 -6 -57.5 -15.5t-14.5 -29.5v-488zM231 865q32 -11 47.5 -30
t15.5 -36q0 -12 -6.5 -21t-20.5 -13q-22 -6 -40 -11.5t-35.5 -11.5t-37 -14t-43.5 -18q-9 7 -12 13t-3 11q0 8 5 13z" />
    <glyph glyph-name="lacute" unicode="&#x13a;" horiz-adv-x="301" 
d="M277 -5q-26 2 -59.5 3.5t-62.5 1.5q-32 0 -63.5 -1.5t-57.5 -3.5q-1 4 -1.5 8.5t-0.5 10.5q0 7 3.5 9.5t7.5 3.5q32 6 44 13t12 22v524q0 30 -11 45.5t-46 18.5q-13 3 -13 16v8t2 8q6 0 17.5 0.5t24.5 1t26 1.5t24 2q25 3 48 8t31 5q16 0 16 -15q0 -11 -3 -28.5t-3 -49.5
v-545q0 -15 12 -22t44 -13q11 -2 11 -13q0 -14 -2 -19zM191 865q32 -11 47.5 -30t15.5 -36q0 -12 -6.5 -21t-20.5 -13q-22 -6 -40 -11.5t-35.5 -11.5t-37 -14t-43.5 -18q-9 7 -12 13t-3 11q0 8 5 13z" />
    <glyph glyph-name="Lcommaaccent" unicode="&#x13b;" horiz-adv-x="570" 
d="M247 85q0 -21 27 -28t89 -7h38q25 0 43.5 5.5t32.5 18.5t25.5 33.5t22.5 49.5q3 8 15 8q5 0 12 -3l14 -6q-8 -32 -14.5 -69.5t-11.5 -73.5q-1 -12 -6.5 -15t-11.5 -3q-8 0 -22.5 1t-31.5 1.5t-34.5 1.5t-30.5 1h-227q-29 0 -66.5 -1.5t-67.5 -3.5q-2 4 -2 10.5v9.5
q0 15 10 16q38 7 54.5 15t16.5 28v501q0 10 -2 16.5t-8 11.5t-18.5 8.5t-33.5 6.5q-10 3 -10 17v9t2 11q32 -2 68 -3.5t64 -1.5q14 0 32 0.5t37.5 1t39 1.5t35.5 2q1 -5 1.5 -11t0.5 -9q0 -14 -10 -17q-43 -6 -57.5 -15.5t-14.5 -29.5v-488zM275 -254q-16 12 -16 23
q0 6 5 13q14 17 19 29t5 23q0 14 -7.5 23.5t-19.5 18.5q-11 8 -11 21q0 14 12 28.5t41 28.5q25 -14 42.5 -36.5t17.5 -51.5q0 -28 -20 -58t-68 -62z" />
    <glyph glyph-name="lcommaaccent" unicode="&#x13c;" horiz-adv-x="301" 
d="M277 -5q-26 2 -59.5 3.5t-62.5 1.5q-32 0 -63.5 -1.5t-57.5 -3.5q-1 4 -1.5 8.5t-0.5 10.5q0 7 3.5 9.5t7.5 3.5q32 6 44 13t12 22v524q0 30 -11 45.5t-46 18.5q-13 3 -13 16v8t2 8q6 0 17.5 0.5t24.5 1t26 1.5t24 2q25 3 48 8t31 5q16 0 16 -15q0 -11 -3 -28.5t-3 -49.5
v-545q0 -15 12 -22t44 -13q11 -2 11 -13q0 -14 -2 -19zM116 -254q-16 12 -16 23q0 6 5 13q14 17 19 29t5 23q0 14 -7.5 23.5t-19.5 18.5q-11 8 -11 21q0 14 12 28.5t41 28.5q25 -14 42.5 -36.5t17.5 -51.5q0 -28 -20 -58t-68 -62z" />
    <glyph glyph-name="Lcaron" unicode="&#x13d;" horiz-adv-x="570" 
d="M247 85q0 -21 27 -28t89 -7h38q25 0 43.5 5.5t32.5 18.5t25.5 33.5t22.5 49.5q3 8 15 8q5 0 12 -3l14 -6q-8 -32 -14.5 -69.5t-11.5 -73.5q-1 -12 -6.5 -15t-11.5 -3q-8 0 -22.5 1t-31.5 1.5t-34.5 1.5t-30.5 1h-227q-29 0 -66.5 -1.5t-67.5 -3.5q-2 4 -2 10.5v9.5
q0 15 10 16q38 7 54.5 15t16.5 28v501q0 10 -2 16.5t-8 11.5t-18.5 8.5t-33.5 6.5q-10 3 -10 17v9t2 11q32 -2 68 -3.5t64 -1.5q14 0 32 0.5t37.5 1t39 1.5t35.5 2q1 -5 1.5 -11t0.5 -9q0 -14 -10 -17q-43 -6 -57.5 -15.5t-14.5 -29.5v-488zM396 652q14 9 27.5 13t26.5 4
q16 0 29.5 -6.5t13.5 -26.5q0 -9 -4 -17q-8 -19 -14 -36.5t-11.5 -36.5t-11.5 -40.5t-13 -49.5q-8 -2 -15 -2q-19 0 -20 19z" />
    <glyph glyph-name="lcaron" unicode="&#x13e;" horiz-adv-x="361" 
d="M277 -5q-26 2 -59.5 3.5t-62.5 1.5q-32 0 -63.5 -1.5t-57.5 -3.5q-1 4 -1.5 8.5t-0.5 10.5q0 7 3.5 9.5t7.5 3.5q32 6 44 13t12 22v524q0 30 -11 45.5t-46 18.5q-13 3 -13 16v8t2 8q6 0 17.5 0.5t24.5 1t26 1.5t24 2q25 3 48 8t31 5q16 0 16 -15q0 -11 -3 -28.5t-3 -49.5
v-545q0 -15 12 -22t44 -13q11 -2 11 -13q0 -14 -2 -19zM270 694q14 9 27.5 13t26.5 4q16 0 29.5 -6.5t13.5 -26.5q0 -9 -4 -17q-8 -19 -14 -36.5t-11.5 -36.5t-11.5 -40.5t-13 -49.5q-8 -2 -15 -2q-19 0 -20 19z" />
    <glyph glyph-name="Ldot" unicode="&#x13f;" horiz-adv-x="570" 
d="M247 85q0 -21 27 -28t89 -7h38q25 0 43.5 5.5t32.5 18.5t25.5 33.5t22.5 49.5q3 8 15 8q5 0 12 -3l14 -6q-8 -32 -14.5 -69.5t-11.5 -73.5q-1 -12 -6.5 -15t-11.5 -3q-8 0 -22.5 1t-31.5 1.5t-34.5 1.5t-30.5 1h-227q-29 0 -66.5 -1.5t-67.5 -3.5q-2 4 -2 10.5v9.5
q0 15 10 16q38 7 54.5 15t16.5 28v501q0 10 -2 16.5t-8 11.5t-18.5 8.5t-33.5 6.5q-10 3 -10 17v9t2 11q32 -2 68 -3.5t64 -1.5q14 0 32 0.5t37.5 1t39 1.5t35.5 2q1 -5 1.5 -11t0.5 -9q0 -14 -10 -17q-43 -6 -57.5 -15.5t-14.5 -29.5v-488zM361 324q0 32 20.5 52.5
t51.5 20.5q32 0 52 -20.5t20 -52.5t-20 -52.5t-52 -20.5q-31 0 -51.5 20.5t-20.5 52.5z" />
    <glyph glyph-name="ldot" unicode="&#x140;" horiz-adv-x="414" 
d="M277 -5q-26 2 -59.5 3.5t-62.5 1.5q-32 0 -63.5 -1.5t-57.5 -3.5q-1 4 -1.5 8.5t-0.5 10.5q0 7 3.5 9.5t7.5 3.5q32 6 44 13t12 22v524q0 30 -11 45.5t-46 18.5q-13 3 -13 16v8t2 8q6 0 17.5 0.5t24.5 1t26 1.5t24 2q25 3 48 8t31 5q16 0 16 -15q0 -11 -3 -28.5t-3 -49.5
v-545q0 -15 12 -22t44 -13q11 -2 11 -13q0 -14 -2 -19zM286 334q0 32 20.5 52.5t51.5 20.5q32 0 52 -20.5t20 -52.5t-20 -52.5t-52 -20.5q-31 0 -51.5 20.5t-20.5 52.5z" />
    <glyph glyph-name="Lslash" unicode="&#x141;" horiz-adv-x="576" 
d="M253 85q0 -21 27 -28t89 -7h38q25 0 43.5 5.5t32.5 18.5t25.5 33.5t22.5 49.5q3 8 15 8q5 0 12 -3l14 -6q-8 -32 -14.5 -69.5t-11.5 -73.5q-1 -12 -6.5 -15t-11.5 -3q-8 0 -22.5 1t-31.5 1.5t-34.5 1.5t-30.5 1h-227q-29 0 -66.5 -1.5t-67.5 -3.5q-2 4 -2 10.5v9.5
q0 15 10 16q38 7 54.5 15t16.5 28v213l-81 -33q-11 12 -15.5 21.5t-4.5 16.5q0 10 11 15l90 35v233q0 10 -2 16.5t-8 11.5t-18.5 8.5t-33.5 6.5q-10 3 -10 17v9t2 11q32 -2 68 -3.5t64 -1.5q14 0 32 0.5t37.5 1t39 1.5t35.5 2q1 -5 1.5 -11t0.5 -9q0 -14 -10 -17
q-43 -6 -57.5 -15.5t-14.5 -29.5v-188l133 56q11 -12 14.5 -21t3.5 -16q0 -10 -10 -14l-141 -60v-245z" />
    <glyph glyph-name="lslash" unicode="&#x142;" horiz-adv-x="345" 
d="M283 -5q-26 2 -59.5 3.5t-62.5 1.5q-32 0 -63.5 -1.5t-57.5 -3.5q-1 4 -1.5 8.5t-0.5 10.5q0 7 3.5 9.5t7.5 3.5q32 6 44 13t12 22v233l-77 -45q-18 18 -18 31q0 9 9 14l86 50v241q0 30 -11 45.5t-46 18.5q-13 3 -13 16v8t2 8q6 0 17.5 0.5t24.5 1t26 1.5t24 2q25 3 48 8
t31 5q16 0 16 -15q0 -11 -3 -28.5t-3 -49.5v-209l81 46q18 -18 18 -31q0 -10 -10 -14l-89 -51v-286q0 -15 12 -22t44 -13q11 -2 11 -13q0 -14 -2 -19z" />
    <glyph glyph-name="Nacute" unicode="&#x143;" horiz-adv-x="730" 
d="M564 218v355q0 22 -15 31t-53 14q-13 3 -13 19v8t2 10q25 -3 49 -4t56 -1t55 1t46 4q1 -5 1.5 -10t0.5 -8q0 -17 -12 -19q-33 -5 -45 -14t-12 -29v-585q-4 -1 -13.5 -1.5t-12.5 -0.5q-7 0 -15 3.5t-17 14.5l-394 500v-432q0 -10 1.5 -16.5t8 -11t19 -8t33.5 -7.5
q5 -1 8.5 -4.5t3.5 -14.5q0 -7 -2 -17q-25 2 -47 3.5t-51 1.5t-55.5 -1.5t-48.5 -3.5q-2 4 -2 9v8q0 10 3.5 14t8.5 5q36 6 48 15t12 28v506q0 16 -10.5 24.5t-47.5 13.5q-12 3 -12 19v4.5t1 5.5l1 8q14 -1 27 -1.5t26 -1.5q22 -1 44.5 -1.5t36.5 -0.5q29 0 38 -2.5t16 -9.5
zM434 865q32 -11 47.5 -30t15.5 -36q0 -12 -6.5 -21t-20.5 -13q-22 -6 -40 -11.5t-35.5 -11.5t-37 -14t-43.5 -18q-9 7 -12 13t-3 11q0 8 5 13z" />
    <glyph glyph-name="nacute" unicode="&#x144;" horiz-adv-x="583" 
d="M495 61q0 -14 12 -21.5t44 -12.5q4 -1 7.5 -3.5t3.5 -9.5q0 -6 -0.5 -10.5t-1.5 -8.5q-26 2 -52 3.5t-65 1.5q-32 0 -60 -1.5t-54 -3.5q-2 5 -2 19q0 11 11 13q26 5 35 12t9 22v196q0 59 -14.5 81.5t-46.5 22.5q-45 0 -77 -30.5t-32 -90.5v-179q0 -15 9 -22t35 -12
q11 -2 11 -13q0 -14 -2 -19q-26 2 -54 3.5t-60 1.5q-39 0 -65.5 -1.5t-51.5 -3.5q-1 4 -1.5 8.5t-0.5 10.5q0 7 3.5 9.5t7.5 3.5q32 6 44 13t12 22v264q0 30 -11 46t-46 19q-13 3 -13 16v7.5t2 8.5q6 0 17.5 0.5t24.5 1t26 1.5t24 2q25 3 48 8t31 5q16 0 16 -15
q0 -11 -3 -29t-3 -50q32 42 71 68t81 26q61 0 96 -34t35 -102v-244zM340 674q39 0 59.5 -18t20.5 -38t-19 -30q-18 -11 -33.5 -20t-31 -20t-32.5 -24.5t-39 -31.5q-13 5 -17.5 11t-4.5 12t3 11z" />
    <glyph glyph-name="Ncommaaccent" unicode="&#x145;" horiz-adv-x="730" 
d="M564 218v355q0 22 -15 31t-53 14q-13 3 -13 19v8t2 10q25 -3 49 -4t56 -1t55 1t46 4q1 -5 1.5 -10t0.5 -8q0 -17 -12 -19q-33 -5 -45 -14t-12 -29v-585q-4 -1 -13.5 -1.5t-12.5 -0.5q-7 0 -15 3.5t-17 14.5l-394 500v-432q0 -10 1.5 -16.5t8 -11t19 -8t33.5 -7.5
q5 -1 8.5 -4.5t3.5 -14.5q0 -7 -2 -17q-25 2 -47 3.5t-51 1.5t-55.5 -1.5t-48.5 -3.5q-2 4 -2 9v8q0 10 3.5 14t8.5 5q36 6 48 15t12 28v506q0 16 -10.5 24.5t-47.5 13.5q-12 3 -12 19v4.5t1 5.5l1 8q14 -1 27 -1.5t26 -1.5q22 -1 44.5 -1.5t36.5 -0.5q29 0 38 -2.5t16 -9.5
zM347 -254q-16 12 -16 23q0 6 5 13q14 17 19 29t5 23q0 14 -7.5 23.5t-19.5 18.5q-11 8 -11 21q0 14 12 28.5t41 28.5q25 -14 42.5 -36.5t17.5 -51.5q0 -28 -20 -58t-68 -62z" />
    <glyph glyph-name="ncommaaccent" unicode="&#x146;" horiz-adv-x="583" 
d="M495 61q0 -14 12 -21.5t44 -12.5q4 -1 7.5 -3.5t3.5 -9.5q0 -6 -0.5 -10.5t-1.5 -8.5q-26 2 -52 3.5t-65 1.5q-32 0 -60 -1.5t-54 -3.5q-2 5 -2 19q0 11 11 13q26 5 35 12t9 22v196q0 59 -14.5 81.5t-46.5 22.5q-45 0 -77 -30.5t-32 -90.5v-179q0 -15 9 -22t35 -12
q11 -2 11 -13q0 -14 -2 -19q-26 2 -54 3.5t-60 1.5q-39 0 -65.5 -1.5t-51.5 -3.5q-1 4 -1.5 8.5t-0.5 10.5q0 7 3.5 9.5t7.5 3.5q32 6 44 13t12 22v264q0 30 -11 46t-46 19q-13 3 -13 16v7.5t2 8.5q6 0 17.5 0.5t24.5 1t26 1.5t24 2q25 3 48 8t31 5q16 0 16 -15
q0 -11 -3 -29t-3 -50q32 42 71 68t81 26q61 0 96 -34t35 -102v-244zM265 -254q-16 12 -16 23q0 6 5 13q14 17 19 29t5 23q0 14 -7.5 23.5t-19.5 18.5q-11 8 -11 21q0 14 12 28.5t41 28.5q25 -14 42.5 -36.5t17.5 -51.5q0 -28 -20 -58t-68 -62z" />
    <glyph glyph-name="Ncaron" unicode="&#x147;" horiz-adv-x="730" 
d="M564 218v355q0 22 -15 31t-53 14q-13 3 -13 19v8t2 10q25 -3 49 -4t56 -1t55 1t46 4q1 -5 1.5 -10t0.5 -8q0 -17 -12 -19q-33 -5 -45 -14t-12 -29v-585q-4 -1 -13.5 -1.5t-12.5 -0.5q-7 0 -15 3.5t-17 14.5l-394 500v-432q0 -10 1.5 -16.5t8 -11t19 -8t33.5 -7.5
q5 -1 8.5 -4.5t3.5 -14.5q0 -7 -2 -17q-25 2 -47 3.5t-51 1.5t-55.5 -1.5t-48.5 -3.5q-2 4 -2 9v8q0 10 3.5 14t8.5 5q36 6 48 15t12 28v506q0 16 -10.5 24.5t-47.5 13.5q-12 3 -12 19v4.5t1 5.5l1 8q14 -1 27 -1.5t26 -1.5q22 -1 44.5 -1.5t36.5 -0.5q29 0 38 -2.5t16 -9.5
zM232 831q-3 3 -3 9t5 12.5t17 11.5q32 -20 62 -38t60 -33q29 16 55.5 33t55.5 38q11 -5 16.5 -11.5t5.5 -12.5q0 -5 -3 -9l-109 -121q-27 0 -41 6t-31 22z" />
    <glyph glyph-name="ncaron" unicode="&#x148;" horiz-adv-x="583" 
d="M495 61q0 -14 12 -21.5t44 -12.5q4 -1 7.5 -3.5t3.5 -9.5q0 -6 -0.5 -10.5t-1.5 -8.5q-26 2 -52 3.5t-65 1.5q-32 0 -60 -1.5t-54 -3.5q-2 5 -2 19q0 11 11 13q26 5 35 12t9 22v196q0 59 -14.5 81.5t-46.5 22.5q-45 0 -77 -30.5t-32 -90.5v-179q0 -15 9 -22t35 -12
q11 -2 11 -13q0 -14 -2 -19q-26 2 -54 3.5t-60 1.5q-39 0 -65.5 -1.5t-51.5 -3.5q-1 4 -1.5 8.5t-0.5 10.5q0 7 3.5 9.5t7.5 3.5q32 6 44 13t12 22v264q0 30 -11 46t-46 19q-13 3 -13 16v7.5t2 8.5q6 0 17.5 0.5t24.5 1t26 1.5t24 2q25 3 48 8t31 5q16 0 16 -15
q0 -11 -3 -29t-3 -50q32 42 71 68t81 26q61 0 96 -34t35 -102v-244zM169 641q-3 3 -3 10q0 6 4.5 12t17.5 11q33 -30 62 -54.5t55 -39.5q24 16 48.5 38.5t57.5 55.5q22 -10 22 -24q0 -5 -3 -9l-104 -149q-30 0 -45.5 6.5t-26.5 21.5z" />
    <glyph glyph-name="napostrophe" unicode="&#x149;" horiz-adv-x="583" 
d="M495 61q0 -14 12 -21.5t44 -12.5q4 -1 7.5 -3.5t3.5 -9.5q0 -6 -0.5 -10.5t-1.5 -8.5q-26 2 -52 3.5t-65 1.5q-32 0 -60 -1.5t-54 -3.5q-2 5 -2 19q0 11 11 13q26 5 35 12t9 22v196q0 59 -14.5 81.5t-46.5 22.5q-45 0 -77 -30.5t-32 -90.5v-179q0 -15 9 -22t35 -12
q11 -2 11 -13q0 -14 -2 -19q-26 2 -54 3.5t-60 1.5q-39 0 -65.5 -1.5t-51.5 -3.5q-1 4 -1.5 8.5t-0.5 10.5q0 7 3.5 9.5t7.5 3.5q32 6 44 13t12 22v264q0 30 -11 46t-46 19q-13 3 -13 16v7.5t2 8.5q6 0 17.5 0.5t24.5 1t26 1.5t24 2q25 3 48 8t31 5q16 0 16 -15
q0 -11 -3 -29t-3 -50q32 42 71 68t81 26q61 0 96 -34t35 -102v-244zM-14 437q-19 12 -19 26q0 7 6 13q23 23 32.5 40.5t9.5 31.5q0 18 -12.5 30t-26.5 19q-12 7 -12 23t13 35.5t43 34.5q29 -16 51 -42.5t22 -61.5q0 -32 -23.5 -69.5t-83.5 -79.5z" />
    <glyph glyph-name="Eng" unicode="&#x14a;" horiz-adv-x="731" 
d="M173 516v-442q0 -10 1.5 -16.5t8 -11t19 -8t33.5 -7.5q5 -1 8.5 -4.5t3.5 -14.5q0 -7 -2 -17q-25 2 -47 3.5t-51 1.5t-55.5 -1.5t-48.5 -3.5q-2 4 -2 9v8q0 10 3.5 14t8.5 5q36 6 48 15t12 28v506q0 16 -10.5 24.5t-47.5 13.5q-12 3 -12 19v4.5t1 5.5l1 8q14 -1 27 -1.5
t26 -1.5q22 -1 44.5 -1.5t36.5 -0.5q29 0 38 -2.5t16 -9.5l332 -431v366q0 22 -15 31t-53 14q-13 3 -13 19v8t2 10q25 -3 49 -4t56 -1t55 1t46 4q1 -5 1.5 -10t0.5 -8q0 -17 -12 -19q-33 -5 -45 -14t-12 -29v-585q0 -45 -9.5 -82.5t-29 -65.5t-50 -43.5t-72.5 -15.5
q-11 0 -25 3.5t-14 14.5q0 18 6 33t15 28q4 6 9.5 8t10.5 2t14.5 -4t23.5 -4q38 0 50.5 36.5t12.5 105.5z" />
    <glyph glyph-name="eng" unicode="&#x14b;" horiz-adv-x="563" 
d="M495 94q0 -77 -17 -131t-44 -88t-60 -50t-66 -16t-33 69q0 7 4.5 13t15.5 6q13 0 25 -7.5t29 -7.5q7 0 13.5 5.5t10.5 23.5t6.5 52.5t2.5 92.5v201q0 59 -14.5 81.5t-46.5 22.5q-45 0 -77 -30.5t-32 -90.5v-179q0 -15 9 -22t35 -12q11 -2 11 -13q0 -14 -2 -19
q-26 2 -54 3.5t-60 1.5q-39 0 -65.5 -1.5t-51.5 -3.5q-1 4 -1.5 8.5t-0.5 10.5q0 7 3.5 9.5t7.5 3.5q32 6 44 13t12 22v264q0 30 -11 46t-46 19q-13 3 -13 16v7.5t2 8.5q6 0 17.5 0.5t24.5 1t26 1.5t24 2q25 3 48 8t31 5q16 0 16 -15q0 -11 -3 -29t-3 -50q32 42 71 68t81 26
q61 0 96 -34t35 -102v-211z" />
    <glyph glyph-name="Omacron" unicode="&#x14c;" horiz-adv-x="747" 
d="M33 325q0 70 26.5 131t72.5 107t107.5 72.5t131.5 26.5q72 0 134 -25t107.5 -70t71.5 -107t26 -135q0 -70 -26.5 -131.5t-72.5 -107t-108 -72t-132 -26.5q-72 0 -134 25t-107 70t-71 106.5t-26 135.5zM386 40q42 0 76 18.5t58.5 50.5t38 75t13.5 92q0 71 -13.5 132
t-41 105.5t-69 70t-96.5 25.5q-35 0 -68 -15.5t-58 -45t-40 -71.5t-15 -95q0 -74 14.5 -137t42 -108.5t67.5 -71t91 -25.5zM244 739q-6 27 -6 40q0 17 6 21t18 4h251q2 -14 3.5 -23.5t1.5 -16.5q0 -17 -6 -21t-17 -4h-251z" />
    <glyph glyph-name="omacron" unicode="&#x14d;" horiz-adv-x="536" 
d="M34 214q0 49 17.5 90.5t48.5 72t74 47.5t94 17q53 0 96 -17t74 -47.5t47.5 -72t16.5 -90.5t-17.5 -90.5t-49 -71.5t-74.5 -47t-94 -17q-53 0 -96 17t-73.5 47t-47 71.5t-16.5 90.5zM160 234q0 -92 30.5 -147t87.5 -55q53 0 75.5 42.5t22.5 119.5q0 91 -31 147t-87 56
q-53 0 -75.5 -43.5t-22.5 -119.5zM138 552q-6 25 -6 40q0 16 6 20t18 4h251q2 -13 3.5 -22.5t1.5 -17.5q0 -16 -6 -20t-17 -4h-251z" />
    <glyph glyph-name="Obreve" unicode="&#x14e;" horiz-adv-x="747" 
d="M33 325q0 70 26.5 131t72.5 107t107.5 72.5t131.5 26.5q72 0 134 -25t107.5 -70t71.5 -107t26 -135q0 -70 -26.5 -131.5t-72.5 -107t-108 -72t-132 -26.5q-72 0 -134 25t-107 70t-71 106.5t-26 135.5zM386 40q42 0 76 18.5t58.5 50.5t38 75t13.5 92q0 71 -13.5 132
t-41 105.5t-69 70t-96.5 25.5q-35 0 -68 -15.5t-58 -45t-40 -71.5t-15 -95q0 -74 14.5 -137t42 -108.5t67.5 -71t91 -25.5zM394 786q30 0 58.5 17.5t54.5 59.5q17 -3 22.5 -7.5t5.5 -10.5q0 -2 -2 -8q-8 -30 -23 -53.5t-34.5 -40t-42 -25t-44.5 -8.5q-23 0 -45 7.5
t-41.5 23.5t-34.5 40t-23 56q0 2 -0.5 4t-0.5 3q0 6 5.5 11t21.5 8q26 -43 56.5 -60t66.5 -17z" />
    <glyph glyph-name="obreve" unicode="&#x14f;" horiz-adv-x="536" 
d="M34 214q0 49 17.5 90.5t48.5 72t74 47.5t94 17q53 0 96 -17t74 -47.5t47.5 -72t16.5 -90.5t-17.5 -90.5t-49 -71.5t-74.5 -47t-94 -17q-53 0 -96 17t-73.5 47t-47 71.5t-16.5 90.5zM160 234q0 -92 30.5 -147t87.5 -55q53 0 75.5 42.5t22.5 119.5q0 91 -31 147t-87 56
q-53 0 -75.5 -43.5t-22.5 -119.5zM283 585q30 0 58.5 17.5t54.5 59.5q17 -2 22 -6.5t5 -10.5t-1 -9q-9 -30 -24 -53.5t-34.5 -40t-41.5 -25t-44 -8.5q-23 0 -45 7.5t-41.5 23.5t-34.5 40t-23 56q-1 3 -1 8q0 7 5 11.5t22 6.5q26 -43 56.5 -60t66.5 -17z" />
    <glyph glyph-name="Ohungarumlaut" unicode="&#x150;" horiz-adv-x="747" 
d="M33 325q0 70 26.5 131t72.5 107t107.5 72.5t131.5 26.5q72 0 134 -25t107.5 -70t71.5 -107t26 -135q0 -70 -26.5 -131.5t-72.5 -107t-108 -72t-132 -26.5q-72 0 -134 25t-107 70t-71 106.5t-26 135.5zM386 40q42 0 76 18.5t58.5 50.5t38 75t13.5 92q0 71 -13.5 132
t-41 105.5t-69 70t-96.5 25.5q-35 0 -68 -15.5t-58 -45t-40 -71.5t-15 -95q0 -74 14.5 -137t42 -108.5t67.5 -71t91 -25.5zM464 880q6 2 11 2h11q32 0 48.5 -14t16.5 -31q0 -16 -13 -26q-16 -14 -27.5 -24t-22 -21t-22.5 -24t-29 -32q-15 4 -21 10.5t-6 13.5q0 1 0.5 2
t0.5 3zM312 880q6 2 11.5 2h10.5q32 0 48.5 -14t16.5 -31q0 -16 -12 -26q-16 -14 -27.5 -24t-22.5 -21t-23 -24t-28 -32q-16 4 -21.5 10.5t-5.5 13.5q0 3 1 5z" />
    <glyph glyph-name="ohungarumlaut" unicode="&#x151;" horiz-adv-x="536" 
d="M34 214q0 49 17.5 90.5t48.5 72t74 47.5t94 17q53 0 96 -17t74 -47.5t47.5 -72t16.5 -90.5t-17.5 -90.5t-49 -71.5t-74.5 -47t-94 -17q-53 0 -96 17t-73.5 47t-47 71.5t-16.5 90.5zM160 234q0 -92 30.5 -147t87.5 -55q53 0 75.5 42.5t22.5 119.5q0 91 -31 147t-87 56
q-53 0 -75.5 -43.5t-22.5 -119.5zM357 659q21 6 37 6q27 0 41 -13t14 -28q0 -14 -8 -23q-14 -14 -24.5 -27t-21 -27t-21 -31t-23.5 -39q-20 1 -25.5 7t-5.5 13q0 1 0.5 3t0.5 4zM208 659q21 6 37 6q27 0 41 -13t14 -28q0 -13 -9 -23q-13 -16 -22.5 -28t-19 -25.5t-19.5 -30
t-24 -40.5q-20 1 -25.5 7t-5.5 13q0 1 0.5 3t0.5 4z" />
    <glyph glyph-name="OE" unicode="&#x152;" horiz-adv-x="994" 
d="M634 600v-241h141q19 0 26 15.5t12 50.5q1 8 6 10.5t13 2.5q3 0 9.5 -0.5t9.5 -1.5q-2 -23 -3.5 -53.5t-1.5 -51.5q0 -18 1 -42.5t4 -55.5q-3 -2 -9.5 -2.5t-9.5 -0.5q-18 0 -19 14q-6 38 -13.5 51.5t-24.5 13.5h-141v-224q0 -21 26 -28t88 -7h42q30 0 50.5 8t36.5 22.5
t28 34t24 43.5q3 7 14 7q5 0 12 -3l14 -6q-11 -31 -16 -48.5t-7 -25.5q-3 -10 -5.5 -22.5t-5 -24t-4.5 -20.5t-3 -12q-4 -8 -16 -8q-8 0 -23 1t-32.5 1.5t-35.5 1.5t-31 1h-254q-40 -7 -75 -9.5t-72 -2.5q-80 0 -145.5 24t-112 68t-72.5 106t-26 139q0 75 25.5 137.5
t72 106.5t111 68.5t142.5 24.5q15 0 33 -1.5l36 -3t34.5 -4t29.5 -3.5h250q45 0 77.5 3t44.5 3q11 0 16 -9q3 -8 5 -29.5t7 -44.5q3 -17 7 -33t12 -39q-5 -2 -11 -4t-12 -2q-11 0 -16 9q-12 26 -23.5 44.5t-26 30t-34 16.5t-46.5 5h-133zM508 576q-23 16 -59 25t-72 9
q-43 0 -80.5 -16t-65.5 -46.5t-44 -75.5t-16 -103q0 -69 18.5 -129.5t50 -104.5t74.5 -69.5t92 -25.5q52 0 77 12.5t25 29.5v494z" />
    <glyph glyph-name="oe" unicode="&#x153;" horiz-adv-x="812" 
d="M34 213q0 49 17.5 90.5t48.5 72t74 47.5t94 17q53 0 95.5 -17t73.5 -47q33 32 72 48t75 16q97 0 146.5 -54.5t49.5 -151.5q0 -7 -7 -7l-287 -12q0 -78 35.5 -123.5t104.5 -45.5q33 0 63 14t51 38q8 8 17 8q8 0 14 -6t10 -15q-35 -47 -86 -72t-123 -25q-40 0 -78.5 13
t-68.5 41q-31 -26 -70.5 -40.5t-87.5 -14.5q-53 0 -96 17t-73.5 47t-47 71.5t-16.5 90.5zM160 234q0 -45 8 -82.5t23 -64.5t37 -41.5t50 -14.5q53 0 75.5 43t22.5 120q0 91 -31 147t-87 56q-53 0 -75.5 -43.5t-22.5 -119.5zM569 396q-39 0 -62.5 -33t-23.5 -105l153 7
q9 0 12 2.5t3 10.5q0 19 -4.5 40t-14.5 38t-25.5 28.5t-37.5 11.5z" />
    <glyph glyph-name="Racute" unicode="&#x154;" horiz-adv-x="694" 
d="M290 290h-43v-209q0 -23 19.5 -32.5t66.5 -15.5q14 -2 14 -20q0 -8 -2 -18q-29 2 -72.5 3.5t-94.5 1.5q-36 0 -69.5 -1.5t-62.5 -3.5q-2 4 -2 9v8q0 17 11 19q21 4 34 7.5t20 8t9.5 11t2.5 16.5v501q0 20 -14.5 29t-55.5 14q-5 2 -8 6t-3 14v9t2 8q28 -2 64.5 -3.5
t65.5 -1.5h151q53 0 95 -13t71.5 -37t45 -57t15.5 -73q0 -53 -32.5 -96.5t-89.5 -65.5l157 -229q18 -26 41.5 -36t43.5 -15q5 -1 8 -4.5t3 -12.5v-9t-2 -10q-11 1 -31 1.5t-41.5 1.5t-43 1.5t-35.5 0.5q-21 0 -42 17.5t-41 46.5zM277 340q31 0 56 6t43 20.5t27.5 38.5
t9.5 61q0 62 -30 98t-106 36h-30v-260h30zM360 865q32 -11 47.5 -30t15.5 -36q0 -12 -6.5 -21t-20.5 -13q-22 -6 -40 -11.5t-35.5 -11.5t-37 -14t-43.5 -18q-9 7 -12 13t-3 11q0 8 5 13z" />
    <glyph glyph-name="racute" unicode="&#x155;" horiz-adv-x="408" 
d="M350 440q29 0 43.5 -15t14.5 -38q0 -7 -2.5 -12t-11 -11t-23.5 -13.5t-39 -18.5q-16 16 -29.5 21.5t-26.5 5.5q-12 0 -23.5 -4t-20.5 -15.5t-14.5 -30.5t-5.5 -49v-186q0 -20 16 -29.5t63 -17.5q11 -2 11 -13q0 -14 -2 -19q-13 1 -32 1.5t-40 1.5t-41.5 1.5t-36.5 0.5
q-38 0 -65 -1.5t-51 -3.5q-2 5 -2 19q0 11 11 13q32 6 44 13t12 22v269q0 23 -8.5 37t-47.5 19q-14 2 -14 15v8t2 8q6 0 17 0.5t24 1t26 1.5t23 3q22 3 45.5 7.5t31.5 4.5q14 0 14 -15v-54q35 38 67 55.5t71 17.5zM264 674q39 0 59.5 -18t20.5 -38t-19 -30
q-18 -11 -33.5 -20t-31 -20t-32.5 -24.5t-39 -31.5q-13 5 -17.5 11t-4.5 12t3 11z" />
    <glyph glyph-name="Rcommaaccent" unicode="&#x156;" horiz-adv-x="694" 
d="M290 290h-43v-209q0 -23 19.5 -32.5t66.5 -15.5q14 -2 14 -20q0 -8 -2 -18q-29 2 -72.5 3.5t-94.5 1.5q-36 0 -69.5 -1.5t-62.5 -3.5q-2 4 -2 9v8q0 17 11 19q21 4 34 7.5t20 8t9.5 11t2.5 16.5v501q0 20 -14.5 29t-55.5 14q-5 2 -8 6t-3 14v9t2 8q28 -2 64.5 -3.5
t65.5 -1.5h151q53 0 95 -13t71.5 -37t45 -57t15.5 -73q0 -53 -32.5 -96.5t-89.5 -65.5l157 -229q18 -26 41.5 -36t43.5 -15q5 -1 8 -4.5t3 -12.5v-9t-2 -10q-11 1 -31 1.5t-41.5 1.5t-43 1.5t-35.5 0.5q-21 0 -42 17.5t-41 46.5zM277 340q31 0 56 6t43 20.5t27.5 38.5
t9.5 61q0 62 -30 98t-106 36h-30v-260h30zM341 -254q-16 12 -16 23q0 6 5 13q14 17 19 29t5 23q0 14 -7.5 23.5t-19.5 18.5q-11 8 -11 21q0 14 12 28.5t41 28.5q25 -14 42.5 -36.5t17.5 -51.5q0 -28 -20 -58t-68 -62z" />
    <glyph glyph-name="rcommaaccent" unicode="&#x157;" horiz-adv-x="408" 
d="M350 440q29 0 43.5 -15t14.5 -38q0 -7 -2.5 -12t-11 -11t-23.5 -13.5t-39 -18.5q-16 16 -29.5 21.5t-26.5 5.5q-12 0 -23.5 -4t-20.5 -15.5t-14.5 -30.5t-5.5 -49v-186q0 -20 16 -29.5t63 -17.5q11 -2 11 -13q0 -14 -2 -19q-13 1 -32 1.5t-40 1.5t-41.5 1.5t-36.5 0.5
q-38 0 -65 -1.5t-51 -3.5q-2 5 -2 19q0 11 11 13q32 6 44 13t12 22v269q0 23 -8.5 37t-47.5 19q-14 2 -14 15v8t2 8q6 0 17 0.5t24 1t26 1.5t23 3q22 3 45.5 7.5t31.5 4.5q14 0 14 -15v-54q35 38 67 55.5t71 17.5zM131 -254q-16 12 -16 23q0 6 5 13q14 17 19 29t5 23
q0 14 -7.5 23.5t-19.5 18.5q-11 8 -11 21q0 14 12 28.5t41 28.5q25 -14 42.5 -36.5t17.5 -51.5q0 -28 -20 -58t-68 -62z" />
    <glyph glyph-name="Rcaron" unicode="&#x158;" horiz-adv-x="694" 
d="M290 290h-43v-209q0 -23 19.5 -32.5t66.5 -15.5q14 -2 14 -20q0 -8 -2 -18q-29 2 -72.5 3.5t-94.5 1.5q-36 0 -69.5 -1.5t-62.5 -3.5q-2 4 -2 9v8q0 17 11 19q21 4 34 7.5t20 8t9.5 11t2.5 16.5v501q0 20 -14.5 29t-55.5 14q-5 2 -8 6t-3 14v9t2 8q28 -2 64.5 -3.5
t65.5 -1.5h151q53 0 95 -13t71.5 -37t45 -57t15.5 -73q0 -53 -32.5 -96.5t-89.5 -65.5l157 -229q18 -26 41.5 -36t43.5 -15q5 -1 8 -4.5t3 -12.5v-9t-2 -10q-11 1 -31 1.5t-41.5 1.5t-43 1.5t-35.5 0.5q-21 0 -42 17.5t-41 46.5zM277 340q31 0 56 6t43 20.5t27.5 38.5
t9.5 61q0 62 -30 98t-106 36h-30v-260h30zM171 831q-3 3 -3 9t5 12.5t17 11.5q32 -20 62 -38t60 -33q29 16 55.5 33t55.5 38q11 -5 16.5 -11.5t5.5 -12.5q0 -5 -3 -9l-109 -121q-27 0 -41 6t-31 22z" />
    <glyph glyph-name="rcaron" unicode="&#x159;" horiz-adv-x="408" 
d="M350 440q29 0 43.5 -15t14.5 -38q0 -7 -2.5 -12t-11 -11t-23.5 -13.5t-39 -18.5q-16 16 -29.5 21.5t-26.5 5.5q-12 0 -23.5 -4t-20.5 -15.5t-14.5 -30.5t-5.5 -49v-186q0 -20 16 -29.5t63 -17.5q11 -2 11 -13q0 -14 -2 -19q-13 1 -32 1.5t-40 1.5t-41.5 1.5t-36.5 0.5
q-38 0 -65 -1.5t-51 -3.5q-2 5 -2 19q0 11 11 13q32 6 44 13t12 22v269q0 23 -8.5 37t-47.5 19q-14 2 -14 15v8t2 8q6 0 17 0.5t24 1t26 1.5t23 3q22 3 45.5 7.5t31.5 4.5q14 0 14 -15v-54q35 38 67 55.5t71 17.5zM108 641q-3 3 -3 10q0 6 4.5 12t17.5 11q33 -30 62 -54.5
t55 -39.5q24 16 48.5 38.5t57.5 55.5q22 -10 22 -24q0 -5 -3 -9l-104 -149q-30 0 -45.5 6.5t-26.5 21.5z" />
    <glyph glyph-name="Sacute" unicode="&#x15a;" horiz-adv-x="535" 
d="M468 488q-9 -3 -19 -3q-14 0 -20 5.5t-8 11.5q-23 57 -59.5 82t-97.5 25q-48 0 -81.5 -23.5t-33.5 -71.5q0 -37 25.5 -59.5t64 -39.5t83 -33t83 -40t64 -61t25.5 -95q0 -38 -13 -74t-41 -63.5t-71 -44t-103 -16.5q-66 0 -118 14.5t-86 31.5q-3 43 -9.5 84.5t-14.5 80.5
q10 4 23 4q12 0 18 -4.5t10 -15.5q13 -38 29 -65.5t37 -45t48.5 -25.5t63.5 -8q31 0 53 8.5t36 22.5t21 33t7 39q0 43 -24.5 67.5t-61 41t-79 31t-79 37t-61 58t-24.5 95.5q0 40 14.5 74.5t42.5 60t67.5 40.5t90.5 15q42 0 84.5 -9t96.5 -30q2 -30 6.5 -67.5t10.5 -67.5z
M334 865q32 -11 47.5 -30t15.5 -36q0 -12 -6.5 -21t-20.5 -13q-22 -6 -40 -11.5t-35.5 -11.5t-37 -14t-43.5 -18q-9 7 -12 13t-3 11q0 8 5 13z" />
    <glyph glyph-name="sacute" unicode="&#x15b;" horiz-adv-x="394" 
d="M316 307q-14 1 -16 11q-7 41 -32 60t-63 19q-34 0 -52 -17t-18 -40q0 -11 3 -20t12.5 -17t26.5 -15.5t46 -16.5q34 -10 60 -21.5t44 -27.5t27.5 -38.5t9.5 -53.5q0 -29 -9.5 -55t-30.5 -45.5t-53 -30.5t-77 -11q-32 0 -73.5 7t-75.5 25q-2 26 -3.5 55.5t-1.5 58.5h13
q11 0 19 -3.5t9 -11.5q4 -42 33 -64.5t80 -22.5q35 0 57 16t22 42q0 24 -19.5 41t-73.5 33q-73 21 -102.5 55.5t-29.5 82.5q0 63 42.5 101t110.5 38q39 0 75.5 -9.5t58.5 -20.5q1 -8 2 -21.5t2 -29t1.5 -30t0.5 -24.5zM240 674q39 0 59.5 -18t20.5 -38t-19 -30
q-18 -11 -33.5 -20t-31 -20t-32.5 -24.5t-39 -31.5q-13 5 -17.5 11t-4.5 12t3 11z" />
    <glyph glyph-name="Scircumflex" unicode="&#x15c;" horiz-adv-x="535" 
d="M468 488q-9 -3 -19 -3q-14 0 -20 5.5t-8 11.5q-23 57 -59.5 82t-97.5 25q-48 0 -81.5 -23.5t-33.5 -71.5q0 -37 25.5 -59.5t64 -39.5t83 -33t83 -40t64 -61t25.5 -95q0 -38 -13 -74t-41 -63.5t-71 -44t-103 -16.5q-66 0 -118 14.5t-86 31.5q-3 43 -9.5 84.5t-14.5 80.5
q10 4 23 4q12 0 18 -4.5t10 -15.5q13 -38 29 -65.5t37 -45t48.5 -25.5t63.5 -8q31 0 53 8.5t36 22.5t21 33t7 39q0 43 -24.5 67.5t-61 41t-79 31t-79 37t-61 58t-24.5 95.5q0 40 14.5 74.5t42.5 60t67.5 40.5t90.5 15q42 0 84.5 -9t96.5 -30q2 -30 6.5 -67.5t10.5 -67.5z
M417 743q3 -3 3 -9t-5 -12.5t-17 -11.5q-32 20 -62 38t-60 33q-29 -16 -55.5 -33t-55.5 -38q-11 5 -16.5 11.5t-5.5 12.5q0 4 3 9l109 121q27 0 41 -6t31 -22z" />
    <glyph glyph-name="scircumflex" unicode="&#x15d;" horiz-adv-x="394" 
d="M316 307q-14 1 -16 11q-7 41 -32 60t-63 19q-34 0 -52 -17t-18 -40q0 -11 3 -20t12.5 -17t26.5 -15.5t46 -16.5q34 -10 60 -21.5t44 -27.5t27.5 -38.5t9.5 -53.5q0 -29 -9.5 -55t-30.5 -45.5t-53 -30.5t-77 -11q-32 0 -73.5 7t-75.5 25q-2 26 -3.5 55.5t-1.5 58.5h13
q11 0 19 -3.5t9 -11.5q4 -42 33 -64.5t80 -22.5q35 0 57 16t22 42q0 24 -19.5 41t-73.5 33q-73 21 -102.5 55.5t-29.5 82.5q0 63 42.5 101t110.5 38q39 0 75.5 -9.5t58.5 -20.5q1 -8 2 -21.5t2 -29t1.5 -30t0.5 -24.5zM340 525q3 -3 3 -10q0 -6 -4.5 -12t-17.5 -11
q-33 30 -62 54.5t-55 39.5q-24 -16 -48.5 -38.5t-57.5 -55.5q-22 10 -22 24q0 4 3 9l104 149q30 0 45.5 -6.5t26.5 -21.5z" />
    <glyph glyph-name="Scedilla" unicode="&#x15e;" horiz-adv-x="535" 
d="M468 488q-9 -3 -19 -3q-14 0 -20 5.5t-8 11.5q-23 57 -59.5 82t-97.5 25q-48 0 -81.5 -23.5t-33.5 -71.5q0 -37 25.5 -59.5t64 -39.5t83 -33t83 -40t64 -61t25.5 -95q0 -36 -11.5 -69.5t-36 -60.5t-62 -45t-89.5 -22q-3 -8 -5.5 -17t-2.5 -17t3 -15.5t14 -18.5
q14 -17 20.5 -30t6.5 -28q0 -32 -30 -58.5t-84 -42.5q-6 7 -8 12.5t-2 9.5q0 9 6 12q20 14 28 26t8 26q0 17 -19 37q-20 25 -20 37q0 17 8 30t32 36q-60 2 -108 15.5t-80 30.5q-3 43 -9.5 84.5t-14.5 80.5q10 4 23 4q12 0 18 -4.5t10 -15.5q13 -38 29 -65.5t37 -45
t48.5 -25.5t63.5 -8q31 0 53 8.5t36 22.5t21 33t7 39q0 43 -24.5 67.5t-61 41t-79 31t-79 37t-61 58t-24.5 95.5q0 40 14.5 74.5t42.5 60t67.5 40.5t90.5 15q42 0 84.5 -9t96.5 -30q2 -30 6.5 -67.5t10.5 -67.5z" />
    <glyph glyph-name="scedilla" unicode="&#x15f;" horiz-adv-x="394" 
d="M316 307q-14 1 -16 11q-7 41 -32 60t-63 19q-34 0 -52 -17t-18 -40q0 -11 3 -20t12.5 -17t26.5 -15.5t46 -16.5q34 -10 60 -21.5t44 -27.5t27.5 -38.5t9.5 -53.5q0 -51 -30 -89.5t-96 -48.5q-4 -9 -6.5 -19t-2.5 -18t3 -15.5t14 -18.5q14 -17 20.5 -30t6.5 -28
q0 -32 -30 -58.5t-84 -42.5q-6 7 -8 12.5t-2 9.5q0 9 6 12q20 14 28 26t8 26q0 17 -19 37q-20 25 -20 37q0 17 8 30t32 36q-32 0 -73 7.5t-74 24.5q-2 26 -3.5 55.5t-1.5 58.5h13q11 0 19 -3.5t9 -11.5q4 -42 33 -64.5t80 -22.5q35 0 57 16t22 42q0 24 -19.5 41t-73.5 33
q-73 21 -102.5 55.5t-29.5 82.5q0 63 42.5 101t110.5 38q39 0 75.5 -9.5t58.5 -20.5q1 -8 2 -21.5t2 -29t1.5 -30t0.5 -24.5z" />
    <glyph glyph-name="Scaron" unicode="&#x160;" horiz-adv-x="535" 
d="M468 488q-9 -3 -19 -3q-14 0 -20 5.5t-8 11.5q-23 57 -59.5 82t-97.5 25q-48 0 -81.5 -23.5t-33.5 -71.5q0 -37 25.5 -59.5t64 -39.5t83 -33t83 -40t64 -61t25.5 -95q0 -38 -13 -74t-41 -63.5t-71 -44t-103 -16.5q-66 0 -118 14.5t-86 31.5q-3 43 -9.5 84.5t-14.5 80.5
q10 4 23 4q12 0 18 -4.5t10 -15.5q13 -38 29 -65.5t37 -45t48.5 -25.5t63.5 -8q31 0 53 8.5t36 22.5t21 33t7 39q0 43 -24.5 67.5t-61 41t-79 31t-79 37t-61 58t-24.5 95.5q0 40 14.5 74.5t42.5 60t67.5 40.5t90.5 15q42 0 84.5 -9t96.5 -30q2 -30 6.5 -67.5t10.5 -67.5z
M145 831q-3 3 -3 9t5 12.5t17 11.5q32 -20 62 -38t60 -33q29 16 55.5 33t55.5 38q11 -5 16.5 -11.5t5.5 -12.5q0 -5 -3 -9l-109 -121q-27 0 -41 6t-31 22z" />
    <glyph glyph-name="scaron" unicode="&#x161;" horiz-adv-x="394" 
d="M316 307q-14 1 -16 11q-7 41 -32 60t-63 19q-34 0 -52 -17t-18 -40q0 -11 3 -20t12.5 -17t26.5 -15.5t46 -16.5q34 -10 60 -21.5t44 -27.5t27.5 -38.5t9.5 -53.5q0 -29 -9.5 -55t-30.5 -45.5t-53 -30.5t-77 -11q-32 0 -73.5 7t-75.5 25q-2 26 -3.5 55.5t-1.5 58.5h13
q11 0 19 -3.5t9 -11.5q4 -42 33 -64.5t80 -22.5q35 0 57 16t22 42q0 24 -19.5 41t-73.5 33q-73 21 -102.5 55.5t-29.5 82.5q0 63 42.5 101t110.5 38q39 0 75.5 -9.5t58.5 -20.5q1 -8 2 -21.5t2 -29t1.5 -30t0.5 -24.5zM79 641q-3 3 -3 10q0 6 4.5 12t17.5 11
q33 -30 62 -54.5t55 -39.5q24 16 48.5 38.5t57.5 55.5q22 -10 22 -24q0 -5 -3 -9l-104 -149q-30 0 -45.5 6.5t-26.5 21.5z" />
    <glyph glyph-name="uni0162" unicode="&#x162;" horiz-adv-x="666" 
d="M320 0q-28 0 -59.5 -1.5t-59.5 -3.5q-2 4 -2.5 10t-0.5 9q0 7 2.5 11.5t13.5 6.5q37 5 46.5 13.5t9.5 28.5v526h-88q-28 0 -47.5 -5.5t-34 -17t-26 -30t-23.5 -44.5q-4 -9 -15 -9q-6 0 -14 2.5t-12 4.5q7 24 12 42.5t8 36.5q4 23 6 41t5 26q4 9 16 9q11 0 43.5 -3
t78.5 -3h308q45 0 77.5 3t44.5 3q11 0 16 -9q3 -8 4.5 -26t6.5 -41q3 -18 7.5 -36.5t12.5 -42.5q-5 -2 -12.5 -4.5t-13.5 -2.5q-11 0 -16 9q-12 26 -23.5 44.5t-26 30t-34 17t-46.5 5.5h-88v-526q0 -10 1.5 -16.5t7.5 -11.5t17 -8.5t31 -6.5q15 -3 15 -17q0 -3 -0.5 -9
t-1.5 -10q-26 2 -54.5 3.5t-53.5 1.5q-5 -9 -9.5 -22t-4.5 -23q0 -8 3 -15.5t14 -18.5q14 -17 20.5 -30t6.5 -28q0 -32 -30 -58.5t-84 -42.5q-6 7 -8 12.5t-2 9.5q0 9 6 12q20 14 28 26t8 26q0 17 -19 37q-20 25 -20 37q0 18 10.5 33.5t42.5 44.5z" />
    <glyph glyph-name="uni0163" unicode="&#x163;" horiz-adv-x="339" 
d="M297 65q10 6 17 6q10 0 21 -21q-35 -32 -62 -45t-55 -16q-3 -8 -5.5 -17t-2.5 -17t3 -15.5t14 -18.5q14 -17 20.5 -30t6.5 -28q0 -32 -30 -58.5t-84 -42.5q-6 7 -8 12.5t-2 9.5q0 9 6 12q20 14 28 26t8 26q0 17 -19 37q-20 25 -20 37q0 17 8 30.5t33 36.5q-17 2 -32 9
t-26.5 20t-18.5 34t-7 52v275h-60v25q0 4 2 10t12 6q27 0 50 15.5t37 46.5q11 23 24.5 37t26.5 14h21v-104h117q0 -32 -4.5 -41t-16.5 -9h-96v-247q0 -30 2 -47.5t6.5 -26.5t12 -11.5t17.5 -2.5q11 0 26 5.5t30 15.5z" />
    <glyph glyph-name="Tcaron" unicode="&#x164;" horiz-adv-x="666" 
d="M396 600v-526q0 -10 1.5 -16.5t7.5 -11.5t17 -8.5t31 -6.5q15 -3 15 -17q0 -3 -0.5 -9t-1.5 -10q-32 2 -68.5 3.5t-64.5 1.5q-29 0 -64.5 -1.5t-67.5 -3.5q-2 4 -2.5 10t-0.5 9q0 7 2.5 11.5t13.5 6.5q37 5 46.5 13.5t9.5 28.5v526h-88q-28 0 -47.5 -5.5t-34 -17t-26 -30
t-23.5 -44.5q-4 -9 -15 -9q-6 0 -14 2.5t-12 4.5q7 24 12 42.5t8 36.5q4 23 6 41t5 26q4 9 16 9q11 0 43.5 -3t78.5 -3h308q45 0 77.5 3t44.5 3q11 0 16 -9q3 -8 4.5 -26t6.5 -41q3 -18 7.5 -36.5t12.5 -42.5q-5 -2 -12.5 -4.5t-13.5 -2.5q-11 0 -16 9q-12 26 -23.5 44.5
t-26 30t-34 17t-46.5 5.5h-88zM199 831q-3 3 -3 9t5 12.5t17 11.5q32 -20 62 -38t60 -33q29 16 55.5 33t55.5 38q11 -5 16.5 -11.5t5.5 -12.5q0 -5 -3 -9l-109 -121q-27 0 -41 6t-31 22z" />
    <glyph glyph-name="tcaron" unicode="&#x165;" horiz-adv-x="339" 
d="M297 65q10 6 17 6q10 0 21 -21q-42 -38 -73.5 -50t-66.5 -12q-20 0 -38.5 5t-33.5 18t-24 35.5t-9 57.5v275h-60v25q0 4 2 10t12 6q27 0 50 15.5t37 46.5q11 23 24.5 37t26.5 14h21v-104h117q0 -32 -4.5 -41t-16.5 -9h-96v-247q0 -30 2 -47.5t6.5 -26.5t12 -11.5
t17.5 -2.5q11 0 26 5.5t30 15.5zM255 694q14 9 27.5 13t26.5 4q16 0 29.5 -6.5t13.5 -26.5q0 -9 -4 -17q-8 -19 -14 -36.5t-11.5 -36.5t-11.5 -40.5t-13 -49.5q-8 -2 -15 -2q-19 0 -20 19z" />
    <glyph glyph-name="Tbar" unicode="&#x166;" horiz-adv-x="666" 
d="M396 600v-208h130q1 -7 1.5 -12.5t0.5 -10.5q0 -17 -4 -22.5t-13 -5.5h-115v-267q0 -10 1.5 -16.5t8 -11.5t19 -8.5t33.5 -6.5q10 -2 10 -17q0 -3 -0.5 -9t-1.5 -10q-32 2 -68.5 3.5t-64.5 1.5q-29 0 -65 -1.5t-68 -3.5q-2 4 -2 10v9q0 16 10 17q21 3 33.5 6.5t18.5 8.5
t8 11.5t2 16.5v267h-131q-2 8 -2 14v11q0 17 4.5 21.5t12.5 4.5h116v208h-91q-28 0 -47.5 -5t-34 -16.5t-26 -30t-23.5 -44.5q-4 -9 -15 -9q-6 0 -12.5 2t-10.5 4q7 24 12 42.5t8 36.5q4 23 6 41t5 26q4 9 16 9q11 0 43.5 -3t78.5 -3h308q45 0 77.5 3t44.5 3q11 0 16 -9
q3 -8 4.5 -26t6.5 -41q3 -18 7.5 -36.5t12.5 -42.5q-5 -2 -11 -4t-12 -2q-11 0 -16 9q-12 26 -23.5 44.5t-26 30t-34 16.5t-46.5 5h-91z" />
    <glyph glyph-name="tbar" unicode="&#x167;" horiz-adv-x="339" 
d="M297 65q10 6 17 6q10 0 21 -21q-42 -38 -73.5 -50t-66.5 -12q-20 0 -38.5 5t-33.5 18t-24 35.5t-9 57.5v125h-59q-3 15 -3 25q0 14 4.5 17t11.5 3h46v105h-60v25q0 4 2 10t12 6q27 0 50 15.5t37 46.5q11 23 24.5 37t26.5 14h21v-104h117q0 -32 -4.5 -41t-16.5 -9h-96
v-105h97q0 -24 -3 -34.5t-13 -10.5h-81v-97q0 -30 2 -47.5t6.5 -26.5t12 -11.5t17.5 -2.5q11 0 26 5.5t30 15.5z" />
    <glyph glyph-name="Utilde" unicode="&#x168;" horiz-adv-x="754" 
d="M644 247q0 -57 -12 -104.5t-41.5 -82t-79 -53.5t-124.5 -19q-89 0 -143.5 20t-84 54.5t-39.5 81t-10 99.5v332q0 21 -13 29.5t-53 13.5q-11 2 -11 19v8t2 10q29 -2 61.5 -3.5t77.5 -1.5q35 0 73 1.5t68 3.5q1 -5 1.5 -10t0.5 -8q0 -17 -11 -19q-41 -5 -55.5 -14
t-14.5 -29v-310q0 -104 38.5 -158t132.5 -54q96 0 136.5 50.5t40.5 164.5v307q0 20 -14 29t-53 14q-12 3 -12 19q0 3 0.5 8t1.5 10q29 -3 53.5 -4t52.5 -1q32 0 57 1t49 4q1 -5 1.5 -10t0.5 -8q0 -16 -12 -19q-37 -4 -51 -13.5t-14 -29.5v-328zM265 741q21 32 50.5 55
t56.5 23q9 0 22 -3t34 -14q16 -8 26.5 -10.5t18.5 -2.5q23 0 39 7.5t30 22.5q12 -5 16 -10.5t4 -10.5q0 -7 -4 -12q-23 -35 -48.5 -55.5t-53.5 -20.5q-11 0 -26 3.5t-31 11.5q-34 17 -51 17t-33 -7.5t-33 -24.5q-11 4 -15.5 10t-4.5 12q0 2 1 4.5t2 4.5z" />
    <glyph glyph-name="utilde" unicode="&#x169;" horiz-adv-x="576" 
d="M90 341q0 24 -7.5 35t-41.5 15q-14 3 -14 14v8t2 10q6 0 17 0.5t23 1t24.5 1.5t22.5 3q23 3 44 7.5t29 4.5q9 0 11.5 -4t2.5 -11v-256q0 -58 14.5 -80.5t46.5 -22.5q45 0 77 30t32 91v153q0 12 -1.5 20.5t-6.5 14.5t-14.5 9.5t-26.5 5.5q-6 2 -10.5 4t-4.5 10q0 3 0.5 8
t1.5 10q7 0 17.5 0.5t23 1t25 1.5t22.5 3q22 3 43.5 7.5t29.5 4.5q14 0 14 -15v-333q0 -12 1.5 -20.5t6.5 -14.5t15 -9.5t27 -5.5q13 -1 13 -13v-10t-2 -8q-13 0 -40.5 -1.5t-46.5 -4.5q-22 -3 -43.5 -7.5t-29.5 -4.5q-9 0 -11.5 3.5t-2.5 11.5v72q-32 -42 -71 -67.5
t-81 -25.5q-61 0 -96 33.5t-35 100.5v219zM151 563q21 31 49.5 54t55.5 23q12 0 25 -4t27 -11q17 -8 27.5 -11.5t20.5 -3.5q23 0 38 8t29 22q11 -4 15 -9.5t4 -11.5q0 -7 -3 -11q-24 -35 -49 -56t-52 -21q-15 0 -30 5t-35 14q-16 8 -25 10.5t-17 2.5q-17 0 -32 -7t-31 -25
q-12 5 -16 11t-4 11t3 10z" />
    <glyph glyph-name="Umacron" unicode="&#x16a;" horiz-adv-x="754" 
d="M644 247q0 -57 -12 -104.5t-41.5 -82t-79 -53.5t-124.5 -19q-89 0 -143.5 20t-84 54.5t-39.5 81t-10 99.5v332q0 21 -13 29.5t-53 13.5q-11 2 -11 19v8t2 10q29 -2 61.5 -3.5t77.5 -1.5q35 0 73 1.5t68 3.5q1 -5 1.5 -10t0.5 -8q0 -17 -11 -19q-41 -5 -55.5 -14
t-14.5 -29v-310q0 -104 38.5 -158t132.5 -54q96 0 136.5 50.5t40.5 164.5v307q0 20 -14 29t-53 14q-12 3 -12 19q0 3 0.5 8t1.5 10q29 -3 53.5 -4t52.5 -1q32 0 57 1t49 4q1 -5 1.5 -10t0.5 -8q0 -16 -12 -19q-37 -4 -51 -13.5t-14 -29.5v-328zM270 739q-6 27 -6 40
q0 17 6 21t18 4h251q2 -14 3.5 -23.5t1.5 -16.5q0 -17 -6 -21t-17 -4h-251z" />
    <glyph glyph-name="umacron" unicode="&#x16b;" horiz-adv-x="576" 
d="M90 341q0 24 -7.5 35t-41.5 15q-14 3 -14 14v8t2 10q6 0 17 0.5t23 1t24.5 1.5t22.5 3q23 3 44 7.5t29 4.5q9 0 11.5 -4t2.5 -11v-256q0 -58 14.5 -80.5t46.5 -22.5q45 0 77 30t32 91v153q0 12 -1.5 20.5t-6.5 14.5t-14.5 9.5t-26.5 5.5q-6 2 -10.5 4t-4.5 10q0 3 0.5 8
t1.5 10q7 0 17.5 0.5t23 1t25 1.5t22.5 3q22 3 43.5 7.5t29.5 4.5q14 0 14 -15v-333q0 -12 1.5 -20.5t6.5 -14.5t15 -9.5t27 -5.5q13 -1 13 -13v-10t-2 -8q-13 0 -40.5 -1.5t-46.5 -4.5q-22 -3 -43.5 -7.5t-29.5 -4.5q-9 0 -11.5 3.5t-2.5 11.5v72q-32 -42 -71 -67.5
t-81 -25.5q-61 0 -96 33.5t-35 100.5v219zM159 552q-6 25 -6 40q0 16 6 20t18 4h251q2 -13 3.5 -22.5t1.5 -17.5q0 -16 -6 -20t-17 -4h-251z" />
    <glyph glyph-name="Ubreve" unicode="&#x16c;" horiz-adv-x="754" 
d="M644 247q0 -57 -12 -104.5t-41.5 -82t-79 -53.5t-124.5 -19q-89 0 -143.5 20t-84 54.5t-39.5 81t-10 99.5v332q0 21 -13 29.5t-53 13.5q-11 2 -11 19v8t2 10q29 -2 61.5 -3.5t77.5 -1.5q35 0 73 1.5t68 3.5q1 -5 1.5 -10t0.5 -8q0 -17 -11 -19q-41 -5 -55.5 -14
t-14.5 -29v-310q0 -104 38.5 -158t132.5 -54q96 0 136.5 50.5t40.5 164.5v307q0 20 -14 29t-53 14q-12 3 -12 19q0 3 0.5 8t1.5 10q29 -3 53.5 -4t52.5 -1q32 0 57 1t49 4q1 -5 1.5 -10t0.5 -8q0 -16 -12 -19q-37 -4 -51 -13.5t-14 -29.5v-328zM414 786q30 0 58.5 17.5
t54.5 59.5q17 -3 22.5 -7.5t5.5 -10.5q0 -2 -2 -8q-8 -30 -23 -53.5t-34.5 -40t-42 -25t-44.5 -8.5q-23 0 -45 7.5t-41.5 23.5t-34.5 40t-23 56q0 2 -0.5 4t-0.5 3q0 6 5.5 11t21.5 8q26 -43 56.5 -60t66.5 -17z" />
    <glyph glyph-name="ubreve" unicode="&#x16d;" horiz-adv-x="576" 
d="M90 341q0 24 -7.5 35t-41.5 15q-14 3 -14 14v8t2 10q6 0 17 0.5t23 1t24.5 1.5t22.5 3q23 3 44 7.5t29 4.5q9 0 11.5 -4t2.5 -11v-256q0 -58 14.5 -80.5t46.5 -22.5q45 0 77 30t32 91v153q0 12 -1.5 20.5t-6.5 14.5t-14.5 9.5t-26.5 5.5q-6 2 -10.5 4t-4.5 10q0 3 0.5 8
t1.5 10q7 0 17.5 0.5t23 1t25 1.5t22.5 3q22 3 43.5 7.5t29.5 4.5q14 0 14 -15v-333q0 -12 1.5 -20.5t6.5 -14.5t15 -9.5t27 -5.5q13 -1 13 -13v-10t-2 -8q-13 0 -40.5 -1.5t-46.5 -4.5q-22 -3 -43.5 -7.5t-29.5 -4.5q-9 0 -11.5 3.5t-2.5 11.5v72q-32 -42 -71 -67.5
t-81 -25.5q-61 0 -96 33.5t-35 100.5v219zM286 585q30 0 58.5 17.5t54.5 59.5q17 -2 22 -6.5t5 -10.5t-1 -9q-9 -30 -24 -53.5t-34.5 -40t-41.5 -25t-44 -8.5q-23 0 -45 7.5t-41.5 23.5t-34.5 40t-23 56q-1 3 -1 8q0 7 5 11.5t22 6.5q26 -43 56.5 -60t66.5 -17z" />
    <glyph glyph-name="Uring" unicode="&#x16e;" horiz-adv-x="754" 
d="M644 247q0 -57 -12 -104.5t-41.5 -82t-79 -53.5t-124.5 -19q-89 0 -143.5 20t-84 54.5t-39.5 81t-10 99.5v332q0 21 -13 29.5t-53 13.5q-11 2 -11 19v8t2 10q29 -2 61.5 -3.5t77.5 -1.5q35 0 73 1.5t68 3.5q1 -5 1.5 -10t0.5 -8q0 -17 -11 -19q-41 -5 -55.5 -14
t-14.5 -29v-310q0 -104 38.5 -158t132.5 -54q96 0 136.5 50.5t40.5 164.5v307q0 20 -14 29t-53 14q-12 3 -12 19q0 3 0.5 8t1.5 10q29 -3 53.5 -4t52.5 -1q32 0 57 1t49 4q1 -5 1.5 -10t0.5 -8q0 -16 -12 -19q-37 -4 -51 -13.5t-14 -29.5v-328zM302 804q0 22 8.5 40t23 30.5
t33 19.5t39.5 7q19 0 37 -6.5t32 -19.5t23 -31t9 -40q0 -23 -9 -41t-23 -30.5t-32.5 -19.5t-37.5 -7q-20 0 -38.5 6.5t-33 19.5t-23 31t-8.5 41zM399 857q-13 0 -26 -12t-13 -36q0 -22 14 -40t32 -18q42 0 42 47q0 23 -11.5 41t-37.5 18z" />
    <glyph glyph-name="uring" unicode="&#x16f;" horiz-adv-x="576" 
d="M90 341q0 24 -7.5 35t-41.5 15q-14 3 -14 14v8t2 10q6 0 17 0.5t23 1t24.5 1.5t22.5 3q23 3 44 7.5t29 4.5q9 0 11.5 -4t2.5 -11v-256q0 -58 14.5 -80.5t46.5 -22.5q45 0 77 30t32 91v153q0 12 -1.5 20.5t-6.5 14.5t-14.5 9.5t-26.5 5.5q-6 2 -10.5 4t-4.5 10q0 3 0.5 8
t1.5 10q7 0 17.5 0.5t23 1t25 1.5t22.5 3q22 3 43.5 7.5t29.5 4.5q14 0 14 -15v-333q0 -12 1.5 -20.5t6.5 -14.5t15 -9.5t27 -5.5q13 -1 13 -13v-10t-2 -8q-13 0 -40.5 -1.5t-46.5 -4.5q-22 -3 -43.5 -7.5t-29.5 -4.5q-9 0 -11.5 3.5t-2.5 11.5v72q-32 -42 -71 -67.5
t-81 -25.5q-61 0 -96 33.5t-35 100.5v219zM181 588q0 22 8.5 40t23 30.5t33 19.5t39.5 7q19 0 37 -6.5t32 -19.5t23 -31t9 -40q0 -23 -9 -41t-23 -31t-32.5 -19.5t-37.5 -6.5q-20 0 -38.5 6.5t-33 19.5t-23 31t-8.5 41zM278 640q-13 0 -26 -11.5t-13 -35.5q0 -23 14 -41
t32 -18q20 0 31 12.5t11 35.5q0 22 -11.5 40t-37.5 18z" />
    <glyph glyph-name="Uhungarumlaut" unicode="&#x170;" horiz-adv-x="754" 
d="M644 247q0 -57 -12 -104.5t-41.5 -82t-79 -53.5t-124.5 -19q-89 0 -143.5 20t-84 54.5t-39.5 81t-10 99.5v332q0 21 -13 29.5t-53 13.5q-11 2 -11 19v8t2 10q29 -2 61.5 -3.5t77.5 -1.5q35 0 73 1.5t68 3.5q1 -5 1.5 -10t0.5 -8q0 -17 -11 -19q-41 -5 -55.5 -14
t-14.5 -29v-310q0 -104 38.5 -158t132.5 -54q96 0 136.5 50.5t40.5 164.5v307q0 20 -14 29t-53 14q-12 3 -12 19q0 3 0.5 8t1.5 10q29 -3 53.5 -4t52.5 -1q32 0 57 1t49 4q1 -5 1.5 -10t0.5 -8q0 -16 -12 -19q-37 -4 -51 -13.5t-14 -29.5v-328zM501 880q6 2 11 2h11
q32 0 48.5 -14t16.5 -31q0 -16 -13 -26q-16 -14 -27.5 -24t-22 -21t-22.5 -24t-29 -32q-15 4 -21 10.5t-6 13.5q0 1 0.5 2t0.5 3zM349 880q6 2 11.5 2h10.5q32 0 48.5 -14t16.5 -31q0 -16 -12 -26q-16 -14 -27.5 -24t-22.5 -21t-23 -24t-28 -32q-16 4 -21.5 10.5t-5.5 13.5
q0 3 1 5z" />
    <glyph glyph-name="uhungarumlaut" unicode="&#x171;" horiz-adv-x="576" 
d="M90 341q0 24 -7.5 35t-41.5 15q-14 3 -14 14v8t2 10q6 0 17 0.5t23 1t24.5 1.5t22.5 3q23 3 44 7.5t29 4.5q9 0 11.5 -4t2.5 -11v-256q0 -58 14.5 -80.5t46.5 -22.5q45 0 77 30t32 91v153q0 12 -1.5 20.5t-6.5 14.5t-14.5 9.5t-26.5 5.5q-6 2 -10.5 4t-4.5 10q0 3 0.5 8
t1.5 10q7 0 17.5 0.5t23 1t25 1.5t22.5 3q22 3 43.5 7.5t29.5 4.5q14 0 14 -15v-333q0 -12 1.5 -20.5t6.5 -14.5t15 -9.5t27 -5.5q13 -1 13 -13v-10t-2 -8q-13 0 -40.5 -1.5t-46.5 -4.5q-22 -3 -43.5 -7.5t-29.5 -4.5q-9 0 -11.5 3.5t-2.5 11.5v72q-32 -42 -71 -67.5
t-81 -25.5q-61 0 -96 33.5t-35 100.5v219zM349 659q21 6 37 6q27 0 41 -13t14 -28q0 -14 -8 -23q-14 -14 -24.5 -27t-21 -27t-21 -31t-23.5 -39q-20 1 -25.5 7t-5.5 13q0 1 0.5 3t0.5 4zM200 659q21 6 37 6q27 0 41 -13t14 -28q0 -13 -9 -23q-13 -16 -22.5 -28t-19 -25.5
t-19.5 -30t-24 -40.5q-20 1 -25.5 7t-5.5 13q0 1 0.5 3t0.5 4z" />
    <glyph glyph-name="Uogonek" unicode="&#x172;" horiz-adv-x="754" 
d="M644 247q0 -44 -7.5 -80t-23.5 -65.5t-42 -54t-63 -45.5q-41 -23 -62 -61t-21 -73q0 -21 7 -32t27 -11q17 0 26 4.5t17 4.5q5 0 9.5 -8t5.5 -20q-22 -16 -48 -24t-49 -8q-33 0 -54.5 16.5t-21.5 54.5q0 21 8 40.5t21 38t29.5 35.5t33.5 32q-24 -3 -49 -3q-89 0 -143.5 20
t-84 54.5t-39.5 81t-10 99.5v332q0 21 -13 29.5t-53 13.5q-11 2 -11 19v8t2 10q29 -2 61.5 -3.5t77.5 -1.5q35 0 73 1.5t68 3.5q1 -5 1.5 -10t0.5 -8q0 -17 -11 -19q-41 -5 -55.5 -14t-14.5 -29v-310q0 -104 38.5 -158t132.5 -54q96 0 136.5 50.5t40.5 164.5v307
q0 20 -14 29t-53 14q-12 3 -12 19q0 3 0.5 8t1.5 10q29 -3 53.5 -4t52.5 -1q32 0 57 1t49 4q1 -5 1.5 -10t0.5 -8q0 -16 -12 -19q-37 -4 -51 -13.5t-14 -29.5v-328z" />
    <glyph glyph-name="uogonek" unicode="&#x173;" horiz-adv-x="576" 
d="M90 341q0 24 -7.5 35t-41.5 15q-14 3 -14 14v8t2 10q6 0 17 0.5t23 1t24.5 1.5t22.5 3q23 3 44 7.5t29 4.5q9 0 11.5 -4t2.5 -11v-256q0 -58 14.5 -80.5t46.5 -22.5q45 0 77 30t32 91v153q0 12 -1.5 20.5t-6.5 14.5t-14.5 9.5t-26.5 5.5q-6 2 -10.5 4t-4.5 10q0 3 0.5 8
t1.5 10q7 0 17.5 0.5t23 1t25 1.5t22.5 3q22 3 43.5 7.5t29.5 4.5q14 0 14 -15v-333q0 -12 1.5 -20.5t6.5 -14.5t15 -9.5t27 -5.5q13 -1 13 -13v-10t-2 -8q-5 0 -13.5 -0.5t-19.5 -0.5q-33 -31 -53.5 -65.5t-20.5 -69.5q0 -21 7 -32t27 -11q17 0 26 4.5t17 4.5q5 0 9.5 -8
t5.5 -20q-22 -16 -48 -24t-49 -8q-33 0 -54.5 16.5t-21.5 54.5q0 22 9 43t23 40t32 36.5t36 33.5q-22 -3 -43 -7.5t-29 -4.5q-9 0 -11.5 3.5t-2.5 11.5v72q-32 -42 -71 -67.5t-81 -25.5q-61 0 -96 33.5t-35 100.5v219z" />
    <glyph glyph-name="Wcircumflex" unicode="&#x174;" horiz-adv-x="987" 
d="M515 660q5 1 9 1.5t7 0.5q8 0 11.5 -3.5t7.5 -13.5l164 -432l122 353q5 13 5 21q0 14 -13 20.5t-45 10.5q-12 1 -12 19q0 2 0.5 4.5t0.5 5.5l1 8q17 -2 48.5 -3.5t58.5 -1.5q29 0 55 1t46 4l1 -8q0 -3 0.5 -6t0.5 -5q0 -19 -13 -20q-31 -3 -45.5 -10t-21.5 -27l-211 -590
q-5 -1 -7 -1h-7q-7 0 -10.5 3t-8.5 14l-163 434l-159 -450q-5 -1 -7.5 -1h-6.5q-8 0 -11.5 3t-7.5 14l-219 579q-5 14 -17.5 21.5t-50.5 11.5q-13 1 -13 21v8.5t2 8.5q15 -1 34 -2t38.5 -1.5t38 -1t32.5 -0.5q33 0 72 1.5t70 3.5q1 -5 1.5 -10t0.5 -8q0 -18 -13 -19
q-32 -3 -45 -10t-13 -19q0 -4 1 -7.5t3 -8.5l131 -361zM671 743q3 -3 3 -9t-5 -12.5t-17 -11.5q-32 20 -62 38t-60 33q-29 -16 -55.5 -33t-55.5 -38q-11 5 -16.5 11.5t-5.5 12.5q0 4 3 9l109 121q27 0 41 -6t31 -22z" />
    <glyph glyph-name="wcircumflex" unicode="&#x175;" horiz-adv-x="736" 
d="M533 146q24 59 39 98t23.5 64t11.5 39.5t3 24.5q0 20 -32 28q-7 2 -10 4.5t-3 10.5q0 3 1 7.5t2 9.5q40 -3 87 -3q42 0 77 3q2 -5 2.5 -11t0.5 -8q0 -11 -13 -14q-14 -3 -22.5 -5.5t-15 -8t-11.5 -14t-11 -23.5l-145 -358q-4 -2 -9.5 -2h-11.5q-7 0 -13.5 8t-17.5 34
l-98 230l-112 -270q-4 -2 -9.5 -2h-11.5q-7 0 -13.5 8t-17.5 34l-131 318q-6 15 -11 23.5t-11 13.5t-14.5 7.5t-21.5 5.5t-13 17q0 6 3 17q24 -2 51 -2.5t66 -0.5q36 0 62 0.5t52 2.5q3 -11 3 -17q0 -13 -13 -15q-24 -3 -30.5 -8.5t-6.5 -13.5q0 -5 5 -21t20 -54l57 -152
l115 279q4 10 15 10q8 0 16 -4zM535 525q3 -3 3 -10q0 -6 -4.5 -12t-17.5 -11q-33 30 -62 54.5t-55 39.5q-24 -16 -48.5 -38.5t-57.5 -55.5q-22 10 -22 24q0 4 3 9l104 149q30 0 45.5 -6.5t26.5 -21.5z" />
    <glyph glyph-name="Ycircumflex" unicode="&#x176;" horiz-adv-x="626" 
d="M245 274l-159 303q-11 21 -27.5 29t-42.5 12q-12 1 -12 20v4.5t1 5.5l1 7q22 -2 56.5 -3.5t75.5 -1.5q14 0 33.5 0.5t39.5 1t37.5 1.5t28.5 2q2 -9 2 -12.5v-5.5q0 -17 -12 -19q-26 -3 -36 -8.5t-10 -14.5q0 -8 7 -21l117 -232l115 216q11 19 11 32q0 12 -11 17.5
t-38 10.5q-13 2 -13 19q0 4 3 18q21 -2 52.5 -3.5t55.5 -1.5q23 0 48.5 1t51.5 4q2 -7 2 -11.5v-6.5q0 -18 -12 -19q-36 -5 -50 -13t-24 -25l-165 -304v-199q0 -11 3 -18t11 -12t21.5 -8.5t35.5 -6.5q5 -1 8.5 -4.5t3.5 -14.5q0 -2 -0.5 -4.5t-0.5 -5.5l-1 -7q-16 0 -30 0.5
t-28 1.5q-24 2 -49.5 2.5t-42.5 0.5q-18 0 -41.5 -0.5t-45.5 -2.5q-13 -1 -25.5 -1.5t-25.5 -0.5l-1 7q-1 3 -1 5.5v4.5q0 11 3.5 14.5t8.5 4.5q21 4 35 7.5t22 8t11 11.5t3 18v197zM481 743q3 -3 3 -9t-5 -12.5t-17 -11.5q-32 20 -62 38t-60 33q-29 -16 -55.5 -33
t-55.5 -38q-11 5 -16.5 11.5t-5.5 12.5q0 4 3 9l109 121q27 0 41 -6t31 -22z" />
    <glyph glyph-name="ycircumflex" unicode="&#x177;" horiz-adv-x="496" 
d="M284 146q24 59 40.5 98t26.5 64t14.5 39.5t4.5 24.5q0 20 -32 28q-7 2 -10 4.5t-3 10.5q0 3 1 7.5t2 9.5q40 -3 87 -3q42 0 77 3q2 -5 2.5 -11t0.5 -8q0 -11 -13 -14q-14 -3 -22.5 -5.5t-14.5 -8t-11 -14t-12 -23.5l-210 -491q-23 -53 -64.5 -75t-89.5 -22q-9 0 -13 5
t-4 11q0 34 12 58.5t28 24.5q9 0 16 -2t20 -2q26 0 39.5 10.5t23.5 33.5l45 108l-153 341q-7 15 -12 23.5t-11 13.5t-14 7.5t-21 5.5t-13 17q0 6 3 17q24 -2 51 -2.5t66 -0.5q36 0 62 0.5t52 2.5q3 -11 3 -17q0 -13 -13 -15q-24 -3 -30.5 -8.5t-6.5 -13.5q0 -5 5 -21t22 -54
zM410 525q3 -3 3 -10q0 -6 -4.5 -12t-17.5 -11q-33 30 -62 54.5t-55 39.5q-24 -16 -48.5 -38.5t-57.5 -55.5q-22 10 -22 24q0 4 3 9l104 149q30 0 45.5 -6.5t26.5 -21.5z" />
    <glyph glyph-name="Ydieresis" unicode="&#x178;" horiz-adv-x="626" 
d="M245 274l-159 303q-11 21 -27.5 29t-42.5 12q-12 1 -12 20v4.5t1 5.5l1 7q22 -2 56.5 -3.5t75.5 -1.5q14 0 33.5 0.5t39.5 1t37.5 1.5t28.5 2q2 -9 2 -12.5v-5.5q0 -17 -12 -19q-26 -3 -36 -8.5t-10 -14.5q0 -8 7 -21l117 -232l115 216q11 19 11 32q0 12 -11 17.5
t-38 10.5q-13 2 -13 19q0 4 3 18q21 -2 52.5 -3.5t55.5 -1.5q23 0 48.5 1t51.5 4q2 -7 2 -11.5v-6.5q0 -18 -12 -19q-36 -5 -50 -13t-24 -25l-165 -304v-199q0 -11 3 -18t11 -12t21.5 -8.5t35.5 -6.5q5 -1 8.5 -4.5t3.5 -14.5q0 -2 -0.5 -4.5t-0.5 -5.5l-1 -7q-16 0 -30 0.5
t-28 1.5q-24 2 -49.5 2.5t-42.5 0.5q-18 0 -41.5 -0.5t-45.5 -2.5q-13 -1 -25.5 -1.5t-25.5 -0.5l-1 7q-1 3 -1 5.5v4.5q0 11 3.5 14.5t8.5 4.5q21 4 35 7.5t22 8t11 11.5t3 18v197zM512 776q0 -29 -18 -47.5t-44 -18.5q-29 0 -48.5 18.5t-19.5 47.5q0 26 19.5 46.5
t48.5 20.5q26 0 44 -20.5t18 -46.5zM311 776q0 -29 -18 -47.5t-44 -18.5q-29 0 -48.5 18.5t-19.5 47.5q0 26 19.5 46.5t48.5 20.5q26 0 44 -20.5t18 -46.5z" />
    <glyph glyph-name="Zacute" unicode="&#x179;" horiz-adv-x="606" 
d="M210 50h202q30 0 50.5 7t34.5 21t24.5 35t20.5 50q2 8 7.5 11.5t10.5 3.5q9 0 23 -6q-9 -44 -14 -87.5t-7 -69.5q-1 -12 -7 -16.5t-15 -4.5q-19 0 -46.5 3t-59.5 3h-397q0 9 4 17l356 583h-186q-31 0 -51.5 -3.5t-35 -14.5t-23 -30.5t-15.5 -52.5q-3 -15 -23 -15
q-5 0 -10.5 1.5t-9.5 4.5q7 44 10.5 82.5t5.5 62.5q3 20 21 20q20 0 43.5 -2.5t55.5 -2.5h390q0 -6 -0.5 -11t-3.5 -9zM375 865q32 -11 47.5 -30t15.5 -36q0 -12 -6.5 -21t-20.5 -13q-22 -6 -40 -11.5t-35.5 -11.5t-37 -14t-43.5 -18q-9 7 -12 13t-3 11q0 8 5 13z" />
    <glyph glyph-name="zacute" unicode="&#x17a;" horiz-adv-x="440" 
d="M139 385q-32 0 -46.5 -15t-21.5 -59q-1 -10 -15 -10q-2 0 -7.5 1t-8.5 2q2 26 2.5 53.5t2.5 45.5q1 13 4 19.5t14 6.5h337q1 -4 1 -7q0 -2 -1 -5.5t-5 -8.5l-211 -364h129q26 0 41 20.5t26 59.5q2 6 6.5 8t8.5 2q3 0 8 -1l10 -2l-11 -123q-2 -9 -5 -10.5t-10 -1.5h-16.5
t-20.5 2q-17 1 -34.5 1.5t-32.5 0.5h-247q-1 2 -1 5t1 5.5t6 10.5l217 364h-120zM261 674q39 0 59.5 -18t20.5 -38t-19 -30q-18 -11 -33.5 -20t-31 -20t-32.5 -24.5t-39 -31.5q-13 5 -17.5 11t-4.5 12t3 11z" />
    <glyph glyph-name="Zdotaccent" unicode="&#x17b;" horiz-adv-x="606" 
d="M210 50h202q30 0 50.5 7t34.5 21t24.5 35t20.5 50q2 8 7.5 11.5t10.5 3.5q9 0 23 -6q-9 -44 -14 -87.5t-7 -69.5q-1 -12 -7 -16.5t-15 -4.5q-19 0 -46.5 3t-59.5 3h-397q0 9 4 17l356 583h-186q-31 0 -51.5 -3.5t-35 -14.5t-23 -30.5t-15.5 -52.5q-3 -15 -23 -15
q-5 0 -10.5 1.5t-9.5 4.5q7 44 10.5 82.5t5.5 62.5q3 20 21 20q20 0 43.5 -2.5t55.5 -2.5h390q0 -6 -0.5 -11t-3.5 -9zM244 782q0 32 20.5 52.5t51.5 20.5q32 0 52 -20.5t20 -52.5t-20 -52.5t-52 -20.5q-31 0 -51.5 20.5t-20.5 52.5z" />
    <glyph glyph-name="zdotaccent" unicode="&#x17c;" horiz-adv-x="440" 
d="M139 385q-32 0 -46.5 -15t-21.5 -59q-1 -10 -15 -10q-2 0 -7.5 1t-8.5 2q2 26 2.5 53.5t2.5 45.5q1 13 4 19.5t14 6.5h337q1 -4 1 -7q0 -2 -1 -5.5t-5 -8.5l-211 -364h129q26 0 41 20.5t26 59.5q2 6 6.5 8t8.5 2q3 0 8 -1l10 -2l-11 -123q-2 -9 -5 -10.5t-10 -1.5h-16.5
t-20.5 2q-17 1 -34.5 1.5t-32.5 0.5h-247q-1 2 -1 5t1 5.5t6 10.5l217 364h-120zM158 587q0 32 20.5 52.5t51.5 20.5q32 0 52 -20.5t20 -52.5t-20 -52.5t-52 -20.5q-31 0 -51.5 20.5t-20.5 52.5z" />
    <glyph glyph-name="Zcaron" unicode="&#x17d;" horiz-adv-x="606" 
d="M210 50h202q30 0 50.5 7t34.5 21t24.5 35t20.5 50q2 8 7.5 11.5t10.5 3.5q9 0 23 -6q-9 -44 -14 -87.5t-7 -69.5q-1 -12 -7 -16.5t-15 -4.5q-19 0 -46.5 3t-59.5 3h-397q0 9 4 17l356 583h-186q-31 0 -51.5 -3.5t-35 -14.5t-23 -30.5t-15.5 -52.5q-3 -15 -23 -15
q-5 0 -10.5 1.5t-9.5 4.5q7 44 10.5 82.5t5.5 62.5q3 20 21 20q20 0 43.5 -2.5t55.5 -2.5h390q0 -6 -0.5 -11t-3.5 -9zM175 831q-3 3 -3 9t5 12.5t17 11.5q32 -20 62 -38t60 -33q29 16 55.5 33t55.5 38q11 -5 16.5 -11.5t5.5 -12.5q0 -5 -3 -9l-109 -121q-27 0 -41 6t-31 22
z" />
    <glyph glyph-name="zcaron" unicode="&#x17e;" horiz-adv-x="440" 
d="M139 385q-32 0 -46.5 -15t-21.5 -59q-1 -10 -15 -10q-2 0 -7.5 1t-8.5 2q2 26 2.5 53.5t2.5 45.5q1 13 4 19.5t14 6.5h337q1 -4 1 -7q0 -2 -1 -5.5t-5 -8.5l-211 -364h129q26 0 41 20.5t26 59.5q2 6 6.5 8t8.5 2q3 0 8 -1l10 -2l-11 -123q-2 -9 -5 -10.5t-10 -1.5h-16.5
t-20.5 2q-17 1 -34.5 1.5t-32.5 0.5h-247q-1 2 -1 5t1 5.5t6 10.5l217 364h-120zM95 641q-3 3 -3 10q0 6 4.5 12t17.5 11q33 -30 62 -54.5t55 -39.5q24 16 48.5 38.5t57.5 55.5q22 -10 22 -24q0 -5 -3 -9l-104 -149q-30 0 -45.5 6.5t-26.5 21.5z" />
    <glyph glyph-name="longs" unicode="&#x17f;" horiz-adv-x="330" 
d="M202 82q0 -12 2.5 -20.5t11.5 -14.5t28 -10.5t52 -8.5q13 -2 13 -14q0 -9 -2 -19q-25 2 -65.5 3.5t-79.5 1.5q-35 0 -67.5 -1.5t-58.5 -3.5q-2 4 -2 9v10q0 11 11 13q29 6 36.5 12.5t7.5 21.5v424q0 55 16.5 95.5t43.5 67t61 39.5t69 13q24 0 44.5 -3.5t40.5 -11.5
q15 -5 15 -20q0 -6 -3.5 -18t-9 -24t-13.5 -21t-17 -9q-14 0 -22 9q-24 27 -40.5 36.5t-33.5 9.5q-7 0 -13.5 -4t-12 -15.5t-9 -30.5t-3.5 -49v-467v0z" />
    <glyph glyph-name="florin" unicode="&#x192;" horiz-adv-x="477" 
d="M435 348q1 -5 1 -9.5v-8.5q0 -29 -17 -29h-119l-12 -74q-12 -73 -33 -129.5t-46 -97.5t-53 -68t-53 -42q-11 -6 -29.5 -12t-39.5 -6q-8 0 -18 1t-18 3.5t-13.5 7t-5.5 11.5q0 9 2.5 23t7 27t11 22t14.5 9t15 -7q14 -11 25 -15t23 -4q15 0 26.5 9t21 31t18 59.5t17.5 93.5
l26 158h-103q-1 5 -1 9.5v9.5q0 28 16 28h96l11 69q7 47 30.5 86.5t55 68.5t68.5 45.5t72 16.5q23 0 39 -5t16 -19q0 -5 -2 -16.5t-6.5 -23t-11 -20t-14.5 -8.5q-10 0 -15 5q-14 11 -25 16t-23 5t-21.5 -5.5t-18 -23t-16.5 -51t-17 -88.5l-8 -52h127z" />
    <glyph glyph-name="clickdental" unicode="&#x1c0;" horiz-adv-x="267" 
d="M167 -237q-21 -3 -34 -3q-19 0 -26 5t-7 13v919q21 3 34 3q20 0 26.5 -5t6.5 -13v-919z" />
    <glyph glyph-name="clicklateral" unicode="&#x1c1;" horiz-adv-x="534" 
d="M167 -237q-21 -3 -34 -3q-19 0 -26 5t-7 13v919q21 3 34 3q20 0 26.5 -5t6.5 -13v-919zM434 -237q-21 -3 -34 -3q-19 0 -26 5t-7 13v919q21 3 34 3q20 0 26.5 -5t6.5 -13v-919z" />
    <glyph glyph-name="clickretroflex" unicode="&#x1c3;" horiz-adv-x="267" 
d="M63 655q51 12 83 12q31 0 45.5 -9.5t14.5 -26.5q0 -2 -0.5 -6t-1.5 -6q-9 -44 -17 -96.5t-14.5 -108.5t-11.5 -114t-8 -112q-5 -1 -9.5 -1.5t-8.5 -0.5q-17 0 -20.5 5.5t-4.5 11.5zM60 63q0 32 21.5 54t52.5 22q30 0 51.5 -22t21.5 -54q0 -31 -21.5 -53t-51.5 -22
q-31 0 -52.5 22t-21.5 53z" />
    </font>
</defs>
</svg>
