<?xml version="1.0" standalone="no"?>
<!DOCTYPE svg PUBLIC "-//W3C//DTD SVG 1.1//EN" "http://www.w3.org/Graphics/SVG/1.1/DTD/svg11.dtd" >
<svg xmlns="http://www.w3.org/2000/svg" xmlns:xlink="http://www.w3.org/1999/xlink" version="1.1">
<metadata>
Created by FontForge 20170731 at Thu Jun  8 06:36:56 2017
 By Aleksey,,,
Copyright (c) 2008 by TypeTogether. All rights reserved.
</metadata>
<defs>
<font id="Athelas-Italic" horiz-adv-x="577" >
  <font-face 
    font-family="Athelas"
    font-weight="400"
    font-style="italic"
    font-stretch="normal"
    units-per-em="1000"
    panose-1="2 0 5 3 0 0 0 9 0 3"
    ascent="800"
    descent="-200"
    x-height="435"
    cap-height="656"
    bbox="-500 -411 1639 1110"
    underline-thickness="50"
    underline-position="-200"
    slope="-11"
    unicode-range="U+000D-FE48"
  />
<missing-glyph horiz-adv-x="500" 
 />
    <glyph glyph-name="ff" unicode="ff" horiz-adv-x="532" 
d="M190 430h164l15 89q4 20 11 39.5t17 36.5q-22 26 -48 38.5t-49 12.5q-20 0 -36 -7t-29 -27.5t-23 -58.5t-19 -101zM572 712q23 0 46 -13q-8 -16 -13 -32.5t-9 -38.5l-14 -4q-10 13 -26 23.5t-33 10.5q-13 0 -24 -6.5t-21 -26.5t-20 -57t-21 -98l-7 -40h107
q-8 -22 -10 -46q-25 4 -52 6t-50 3l-50 -290q-13 -73 -30.5 -128t-40.5 -96t-50.5 -69.5t-60.5 -47.5q-11 -6 -22 -10t-25 -4q-20 0 -39 7q6 18 10 39t6 44l15 6q11 -14 24.5 -23t29.5 -9q34 0 55 56t40 166l62 362h-165l-49 -293q-12 -73 -30 -128t-41 -96t-50.5 -69.5
t-60.5 -47.5q-11 -6 -22 -10t-25 -4q-20 0 -39 7q6 18 10 39t6 44l15 6q11 -14 24.5 -23t29.5 -9q34 0 55.5 56t39.5 166l60 362h-79q2 16 6.5 25t14.5 9h63l12 67q7 43 29 79.5t51 62t62.5 40t65.5 14.5q25 0 56 -10.5t57 -28.5q28 28 61.5 43t65.5 15z" />
    <glyph glyph-name="fi" unicode="fi" horiz-adv-x="480" 
d="M128 519q6 36 25 70.5t46.5 61.5t62 43.5t72.5 16.5q86 0 125 -53q-17 -11 -32 -23.5t-29 -31.5l-15 2q-8 25 -30.5 42.5t-50.5 17.5q-21 0 -36 -7.5t-27 -29t-22.5 -59.5t-20.5 -99l-7 -40h134q31 0 49 2t32 2q7 0 12 -3.5t5 -12.5q0 -6 -2 -16l-65 -320q-2 -8 -2 -13
v-8q0 -4 2 -7.5t9 -3.5t14.5 3.5t15 8t14 8t10.5 3.5q10 0 13 -20q-17 -13 -36.5 -24.5t-37.5 -20.5t-34 -14.5t-26 -5.5q-11 0 -20.5 4.5t-9.5 21.5q0 3 1 10.5t2 10.5q18 87 29.5 145.5t19 96.5t12 59t6.5 35q2 13 -10 14t-31 2.5t-40 2.5t-40.5 2t-30.5 1l-50 -290
q-13 -73 -30.5 -128t-40.5 -96t-50.5 -69.5t-60.5 -47.5q-11 -6 -22 -10t-25 -4q-20 0 -39 7q6 18 10 39t6 44l15 6q11 -14 24.5 -23t29.5 -9q34 0 55 56t40 166l62 362h-78q5 34 21 34h62z" />
    <glyph glyph-name="fl" unicode="fl" horiz-adv-x="484" 
d="M125 497q9 47 28.5 86.5t47 68t61 44t69.5 15.5q20 0 45 -7t45 -20q11 4 20 7.5t22 8.5q7 -5 9 -9.5t2 -9.5q0 -6 -2 -16l-113 -583q-3 -15 -3 -22q0 -10 11 -10q7 0 14.5 3.5t15 8t14 8t10.5 3.5q10 0 13 -20q-17 -13 -36.5 -24.5t-37.5 -20.5t-34 -14.5t-26 -5.5
q-11 0 -20.5 4.5t-9.5 21.5q0 3 1 10t2 11l94 483q6 32 9 60t3 44q-14 20 -36.5 31.5t-43.5 11.5q-20 0 -35 -7.5t-27 -28.5t-22 -59.5t-19 -99.5l-6 -40h103q-4 -10 -6.5 -21t-4.5 -25q-49 7 -98 9l-50 -290q-13 -74 -30.5 -129t-40.5 -95.5t-50.5 -69t-60.5 -47.5
q-11 -6 -22 -10t-25 -4q-20 0 -39 7q6 18 10 39t6 44l15 6q11 -14 24.5 -23t29.5 -9q34 0 55 56t40 166l62 362h-78q5 34 21 34h62z" />
    <glyph glyph-name=".notdef" horiz-adv-x="500" 
 />
    <glyph glyph-name=".null" horiz-adv-x="0" 
 />
    <glyph glyph-name="nonmarkingreturn" unicode="&#xd;" horiz-adv-x="500" 
 />
    <glyph glyph-name="space" unicode=" " horiz-adv-x="210" 
 />
    <glyph glyph-name="exclam" unicode="!" horiz-adv-x="251" 
d="M135 650q13 6 26.5 9t24.5 3q28 0 40.5 -14t5.5 -34q-31 -88 -63.5 -203t-55.5 -243q-24 -4 -29 2t-4 14zM19 46q0 29 16.5 48.5t42.5 19.5t40.5 -16.5t14.5 -41.5q0 -30 -17 -49t-41 -19q-29 0 -42.5 16t-13.5 42z" />
    <glyph glyph-name="quotedbl" unicode="&#x22;" horiz-adv-x="270" 
d="M78 635q17 9 31.5 12t25.5 3q33 0 33 -19q0 -5 -1 -9.5t-5 -12.5q-11 -21 -19.5 -39.5t-16.5 -38.5l-17 -42.5t-19 -51.5q-20 0 -27.5 5.5t-5.5 17.5zM208 635q17 9 31.5 12t25.5 3q33 0 33 -19q0 -5 -1 -9.5t-5 -12.5q-11 -21 -19.5 -39.5t-16.5 -38.5l-17 -42.5
t-19 -51.5q-20 0 -27.5 5.5t-5.5 17.5z" />
    <glyph glyph-name="numbersign" unicode="#" horiz-adv-x="542" 
d="M118 115h-85q-1 20 6 35t24 15h68l36 135h-98q-1 20 6 35t24 15h82l31 116q29 -2 38.5 -6.5t9.5 -14.5q0 -4 -1 -7l-24 -88h106l31 116q29 -2 38.5 -6.5t9.5 -14.5q0 -4 -1 -7l-24 -88h86q0 -20 -6.5 -35t-23.5 -15h-69l-36 -135h99q0 -20 -6.5 -35t-23.5 -15h-83
l-34 -128q-29 2 -38.5 7t-9.5 14q0 4 1 7l27 100h-106l-34 -128q-29 2 -38.5 7t-9.5 14q0 4 1 7zM186 165h105l36 135h-105z" />
    <glyph glyph-name="dollar" unicode="$" horiz-adv-x="514" 
d="M172 7q-48 3 -87 17t-63 31q9 79 6 155q13 3 20 3q14 0 17.5 -5t5.5 -18q5 -31 12 -55.5t19.5 -42.5t31 -28.5t46.5 -13.5l49 238q-22 17 -43 35t-38 39t-27.5 46t-10.5 55q0 27 10.5 57t33 55t58 42t85.5 19l13 67q24 -6 31 -14t5 -22l-6 -33q41 -5 73.5 -16t60.5 -28
q-4 -27 -5.5 -52.5t-0.5 -57.5q-3 -1 -8 -2t-11 -1t-13 2.5t-9 12.5q-8 47 -33.5 70.5t-61.5 30.5l-43 -220q27 -21 52 -40.5t43.5 -40.5t29.5 -46.5t11 -58.5q0 -35 -13.5 -66.5t-39.5 -55.5t-65.5 -39.5t-91.5 -18.5l-15 -77q-23 6 -31 13.5t-5 21.5zM337 151
q0 21 -5.5 36.5t-14.5 28t-21.5 24t-27.5 23.5l-45 -213q50 5 82 29t32 72zM185 505q0 -29 18.5 -55t47.5 -51l38 196q-46 -2 -75 -26.5t-29 -63.5z" />
    <glyph glyph-name="percent" unicode="%" horiz-adv-x="752" 
d="M134 -1q-10 -14 -25 -11.5t-32 13.5l489 639q10 14 23.5 11t31.5 -15zM25 405q0 56 15.5 101.5t41 77.5t58 49t67.5 17q56 0 84 -32.5t28 -91.5q0 -47 -13.5 -91t-38 -78t-58.5 -55t-74 -21q-54 0 -82 35.5t-28 88.5zM202 619q-23 0 -42 -19t-32.5 -50.5t-21 -72.5
t-7.5 -85q0 -38 9.5 -59.5t32.5 -21.5q25 0 44.5 21.5t32.5 55.5t20 75t7 79q0 77 -43 77zM389 112q0 56 15.5 101.5t41 77.5t58 49t67.5 17q56 0 84 -33t28 -91q0 -47 -13.5 -91t-38 -78t-58.5 -55t-74 -21q-54 0 -82 35.5t-28 88.5zM566 326q-23 0 -42 -19t-32.5 -50.5
t-21 -72.5t-7.5 -85q0 -38 9.5 -59.5t32.5 -21.5q25 0 44.5 21.5t32.5 55.5t20 75t7 79q0 77 -43 77z" />
    <glyph glyph-name="ampersand" unicode="&#x26;" horiz-adv-x="763" 
d="M332 242q6 28 22 49.5t36.5 36t42.5 22t41 7.5q28 0 50 -6t42.5 -13.5t41.5 -13.5t47 -6t33 11.5t7 25.5q0 11 -3 19.5t-3 16.5q0 10 8 15t19 5q26 0 49 -27q-17 -60 -51.5 -87.5t-82.5 -27.5q-32 0 -55 5q8 -15 13.5 -34.5t5.5 -43.5q0 -29 -13.5 -65t-47 -67.5
t-91.5 -53.5t-148 -22q-42 0 -87 9.5t-82.5 32t-62 60t-24.5 93.5q0 68 45.5 116.5t133.5 62.5v2q-51 19 -77.5 52t-26.5 75q0 43 19.5 73t50.5 49t68 27.5t72 8.5q62 0 110.5 -17.5t77.5 -39.5q10 -8 2.5 -24.5t-31.5 -30.5t-46 11q-26 29 -56 46t-68 17q-17 0 -35.5 -4.5
t-35 -18t-27 -37t-10.5 -60.5q0 -15 4 -33.5t17 -36t37.5 -32t66.5 -21.5l-8 -32q-13 2 -20 2h-13q-43 0 -72.5 -11.5t-47.5 -30t-25.5 -43t-7.5 -49.5q0 -44 15 -77t41 -55t62 -33t78 -11q48 0 89 12.5t70.5 35t46 53.5t16.5 69q0 19 -4 38.5t-16 35t-33.5 25.5t-56.5 10
q-22 0 -32.5 -9.5t-10.5 -32.5q0 -9 2 -14.5t2 -10.5q0 -12 -8.5 -17t-21.5 -5q-12 0 -24 6t-19 18z" />
    <glyph glyph-name="quotesingle" unicode="'" horiz-adv-x="140" 
d="M78 635q17 9 31.5 12t25.5 3q33 0 33 -19q0 -5 -1 -9.5t-5 -12.5q-11 -21 -19.5 -39.5t-16.5 -38.5l-17 -42.5t-19 -51.5q-20 0 -27.5 5.5t-5.5 17.5z" />
    <glyph glyph-name="parenleft" unicode="(" horiz-adv-x="310" 
d="M206 -133q5 -8 5 -15q0 -10 -12 -17q-155 151 -155 329q0 155 76.5 282t225.5 233q4 -3 7 -7t3 -11t-6 -13q-115 -98 -170.5 -218.5t-55.5 -249.5q0 -35 2.5 -71t10.5 -74t24.5 -79.5t44.5 -88.5z" />
    <glyph glyph-name="parenright" unicode=")" horiz-adv-x="310" 
d="M73 647q-5 8 -5 15q0 9 12 17q155 -151 155 -331q0 -155 -76.5 -281t-225.5 -232q-4 3 -7 7t-3 11t6 13q115 98 170.5 217.5t55.5 248.5q0 35 -2.5 71t-10.5 74.5t-24.5 80.5t-44.5 89z" />
    <glyph glyph-name="asterisk" unicode="*" horiz-adv-x="334" 
d="M202 547q-1 27 -4 52.5t-12 57.5l8 10l21 1h12.5t14.5 -2t12 -6.5t5 -12.5q0 -14 -11 -38.5t-29 -59.5q-3 -5 -8 -5t-9 3zM207 502q1 -27 4 -52.5t12 -57.5l-8 -10l-21 -1h-12.5t-14.5 2t-12 6.5t-5 12.5q0 14 11 38.5t29 59.5q3 5 8 5q4 0 9 -3zM223 515
q21 -11 46.5 -21.5t56.5 -18.5l4 -13l-7 -14q-3 -6 -11.5 -20t-21.5 -14q-23 0 -73 84q-2 3 -2 6q0 6 8 11zM187 533q-21 11 -46.5 21.5t-56.5 18.5l-4 13l7 14q3 6 11.5 20t21.5 14q23 0 73 -84q2 -3 2 -6q0 -6 -8 -11zM221 537q23 14 44 30t42 39l13 -3l9 -13
q7 -11 11 -19.5t4 -18.5q0 -11 -14.5 -17t-33.5 -8.5t-37.5 -3t-26.5 -0.5q-4 0 -7.5 3t-3.5 11zM188 512q-23 -14 -44 -30t-42 -39l-13 3l-9 13q-7 11 -11 19.5t-4 18.5q0 11 14.5 17t33.5 8.5t37.5 3t26.5 0.5q4 0 7.5 -3t3.5 -11z" />
    <glyph glyph-name="plus" unicode="+" horiz-adv-x="494" 
d="M11 198q4 32 12.5 43t27.5 11h146v148q0 15 10 23.5t45 12.5v-184h193q-4 -32 -13 -43t-28 -11h-152v-161q0 -17 -10 -24.5t-45 -11.5v197h-186z" />
    <glyph glyph-name="comma" unicode="," horiz-adv-x="206" 
d="M-21 -137q-15 9 -15 21q0 9 10 17q36 30 50.5 52.5t14.5 39.5q0 12 -7 20.5t-15 15.5t-15 13.5t-7 15.5q0 26 55 58q29 -15 47.5 -38.5t18.5 -53.5q0 -33 -30 -75t-107 -86z" />
    <glyph glyph-name="hyphen" unicode="-" horiz-adv-x="309" 
d="M263 265q-4 -32 -13 -42t-27 -10h-198q4 32 12.5 42t27.5 10h198z" />
    <glyph glyph-name="period" unicode="." horiz-adv-x="192" 
d="M-3 46q0 29 16.5 48.5t42.5 19.5t40.5 -16.5t14.5 -41.5q0 -30 -17 -49t-41 -19q-29 0 -42.5 16t-13.5 42z" />
    <glyph glyph-name="slash" unicode="/" horiz-adv-x="285" 
d="M27 -9q-5 -11 -10.5 -16t-19.5 -5q-7 0 -15.5 2t-20.5 5l309 695q5 10 10.5 15t17.5 5q16 0 37 -7z" />
    <glyph glyph-name="zero" unicode="0" horiz-adv-x="522" 
d="M197 -12q-93 0 -141 51.5t-48 137.5q0 60 22.5 114.5t61 95.5t90 65t109.5 24q87 0 136.5 -47.5t49.5 -135.5q0 -60 -21.5 -115.5t-59 -97.5t-88.5 -67t-111 -25zM283 434q-35 0 -66.5 -18.5t-56.5 -53t-39.5 -83.5t-14.5 -109q0 -70 27.5 -105t72.5 -35q39 0 71 23.5
t55 61.5t35.5 87.5t12.5 101.5q0 69 -27 99.5t-70 30.5z" />
    <glyph glyph-name="one" unicode="1" horiz-adv-x="336" 
d="M50 468q30 -3 66.5 -4.5t70.5 -1.5q11 0 28 0.5t35.5 1t36.5 1.5t31 2q2 -6 2 -10v-7q0 -5 -2.5 -10.5t-9.5 -6.5q-27 -3 -43 -6.5t-24.5 -9.5t-12 -14.5t-5.5 -21.5l-57 -304q-3 -15 1.5 -23.5t14.5 -13.5t24.5 -7.5t30.5 -5.5q14 -1 14 -15q0 -8 -2 -18
q-31 3 -68.5 4.5t-69.5 1.5q-11 0 -27.5 -0.5t-35.5 -1t-37 -2t-31 -2.5q-1 2 -2 6.5t-1 9.5q0 16 13 18q26 4 42 9t25 11t12.5 14t5.5 18l58 303q3 16 -3 25t-16.5 13.5t-23.5 6.5t-25 4q-7 1 -12 4.5t-5 12.5v7t2 12z" />
    <glyph glyph-name="two" unicode="2" horiz-adv-x="451" 
d="M26 364q52 58 103.5 85t111.5 27q37 0 64.5 -10t45.5 -26.5t26.5 -38t8.5 -44.5q0 -32 -14 -60.5t-46 -61t-83.5 -71.5t-127.5 -93h167q22 0 39 10.5t34 36.5q5 8 9 11.5t12 3.5q5 0 11.5 -1.5t11.5 -3.5q-14 -26 -26.5 -58.5t-20.5 -60.5q-3 -8 -6.5 -10.5t-11.5 -2.5
q-20 0 -49.5 2t-64.5 2h-234l3 22q72 55 122 96t83 72t51.5 53.5t27.5 39.5t11 30.5t2 27.5q0 31 -19.5 51.5t-59.5 20.5q-35 0 -67 -12.5t-71 -44.5q-4 -3 -9 -5.5t-10 -2.5q-13 0 -24 16z" />
    <glyph glyph-name="three" unicode="3" horiz-adv-x="418" 
d="M51 178q31 14 66.5 30t65.5 37.5t49.5 49.5t19.5 66q0 23 -14.5 37.5t-47.5 14.5q-28 0 -54.5 -10.5t-60.5 -33.5l-7.5 -5t-9.5 -3q-7 0 -13.5 3.5t-9.5 11.5q51 45 99 72.5t103 27.5q53 0 84 -24t31 -70q0 -28 -12 -50.5t-31 -41.5t-43 -34.5t-48 -28.5l-1 -2
q57 -14 84.5 -46t27.5 -74q0 -43 -17.5 -78t-46.5 -63.5t-67.5 -51t-80.5 -39t-85.5 -28.5t-82.5 -20q-5 10 -5 19q0 8 4 11.5t11 5.5q43 12 89 29.5t84 44t62.5 64t24.5 90.5q0 35 -20.5 55.5t-56.5 20.5q-18 0 -42 -5t-55 -18z" />
    <glyph glyph-name="four" unicode="4" horiz-adv-x="472" 
d="M293 344l-246 -280h192zM197 -159l30 159h-257q-2 10 -2 17q0 17 13 32l356 403q9 10 23 10h42l-74 -398h84l-11 -64h-84l-31 -159h-89z" />
    <glyph glyph-name="five" unicode="5" horiz-adv-x="403" 
d="M370 419q-2 -13 -10.5 -24.5t-28.5 -11.5h-200l-47 -148q55 19 108 19q67 0 104.5 -33.5t37.5 -88.5q0 -44 -18 -82t-48.5 -69.5t-71 -57t-84.5 -46t-89 -36t-85 -26.5q-7 10 -7 21t13 14q42 15 91.5 38t92 55.5t71 75t28.5 96.5q0 37 -20.5 59.5t-69.5 22.5
q-21 0 -51.5 -4.5t-60.5 -12.5l72 282h281z" />
    <glyph glyph-name="six" unicode="6" horiz-adv-x="473" 
d="M227 353q-49 0 -81 -41.5t-32 -128.5q0 -70 22 -114.5t62 -44.5q25 0 48 14t40.5 40t28 62.5t10.5 81.5q0 63 -26.5 97t-71.5 34zM455 615q-60 -21 -110 -45.5t-89.5 -55t-68 -69.5t-45.5 -89q53 47 125 47q28 0 55.5 -9.5t49 -30t35 -52.5t13.5 -77q0 -38 -16 -81
t-45.5 -80t-71 -61.5t-93.5 -24.5q-53 0 -87 18.5t-54 49.5t-27.5 71t-7.5 82q0 81 31.5 153t89.5 130t138 99t178 61q8 -10 8 -20q0 -9 -8 -16z" />
    <glyph glyph-name="seven" unicode="7" horiz-adv-x="421" 
d="M443 440q-68 -84 -119 -159t-89 -145t-65 -137.5t-46 -136.5q-6 -24 -6 -38q-10 -1 -23 -2t-26.5 -2.5t-26.5 -4t-23 -5.5q-9 6 -9 13q0 8 5 21q38 121 122.5 260.5t214.5 281.5h-227q-20 0 -33 -10t-30 -43q-2 -5 -8 -7.5t-13 -2.5q-11 0 -20 4q15 37 23.5 66.5
t13.5 57.5q2 10 6 12.5t12 2.5q18 0 44.5 -2t64.5 -2h258v-22z" />
    <glyph glyph-name="eight" unicode="8" horiz-adv-x="472" 
d="M282 635q69 0 110.5 -35t41.5 -89q0 -45 -38 -88t-105 -78q34 -27 57 -48t37.5 -39.5t20.5 -37t6 -40.5q0 -47 -22.5 -83t-57 -60t-75 -36.5t-76.5 -12.5q-39 0 -72 8.5t-57 26t-37.5 43.5t-13.5 61q0 53 39 102t128 93q-28 21 -45 40t-26 36.5t-11.5 35t-2.5 35.5
q0 28 13 57.5t38 53.5t62 39.5t86 15.5zM323 147q0 16 -4.5 30t-18 31.5t-38.5 39.5t-65 53q-57 -35 -84 -72t-27 -85q0 -33 9 -55.5t24 -36t33.5 -19.5t38.5 -6q25 0 49 8.5t42.5 24t29.5 37.5t11 50zM172 494q0 -18 4.5 -34t15 -31t27.5 -31t42 -34q58 37 79 71t21 71
q0 42 -23.5 66t-67.5 24t-71 -30t-27 -72z" />
    <glyph glyph-name="nine" unicode="9" horiz-adv-x="474" 
d="M211 111q48 0 81 41t33 129q0 70 -21.5 113.5t-69.5 43.5q-24 0 -46 -13.5t-38.5 -38.5t-26.5 -61t-10 -80q0 -64 26.5 -99t71.5 -35zM-9 -152q58 22 106.5 46.5t87 55t67 69t45.5 88.5q-28 -23 -58 -34.5t-67 -11.5q-29 0 -56.5 11t-49 33t-34.5 55.5t-13 78.5
q0 41 16 83.5t45.5 76.5t71 55.5t93.5 21.5t86.5 -18.5t54.5 -49.5t28 -70.5t8 -82.5q0 -81 -32 -152.5t-89 -129t-136 -99t-173 -62.5q-4 6 -6.5 11t-2.5 10q0 9 8 15z" />
    <glyph glyph-name="colon" unicode=":" horiz-adv-x="192" 
d="M-3 46q0 29 16.5 48.5t42.5 19.5t40.5 -16.5t14.5 -41.5q0 -30 -17 -49t-41 -19q-29 0 -42.5 16t-13.5 42zM49 366q0 29 16.5 48.5t42.5 19.5t40.5 -16.5t14.5 -41.5q0 -30 -17 -49t-41 -19q-29 0 -42.5 16t-13.5 42z" />
    <glyph glyph-name="semicolon" unicode=";" horiz-adv-x="204" 
d="M-21 -137q-15 9 -15 21q0 9 10 17q36 30 50.5 52.5t14.5 39.5q0 12 -7 20.5t-15 15.5t-15 13.5t-7 15.5q0 26 55 58q29 -15 47.5 -38.5t18.5 -53.5q0 -33 -30 -75t-107 -86zM51 366q0 29 16.5 48.5t42.5 19.5t40.5 -16.5t14.5 -41.5q0 -30 -17 -49t-41 -19
q-29 0 -42.5 16t-13.5 42z" />
    <glyph glyph-name="less" unicode="&#x3c;" horiz-adv-x="494" 
d="M449 34q-11 -24 -26.5 -32.5t-29.5 -0.5l-349 187q-3 13 -3 21q0 9 6 14t14 10l361 195q10 -20 12 -37.5t-12 -24.5l-298 -158z" />
    <glyph glyph-name="equal" unicode="=" horiz-adv-x="494" 
d="M25 300q4 32 13 43t27 11h394q-5 -32 -14 -43t-27 -11h-393zM5 109q4 32 13 43t27 11h394q-5 -32 -14.5 -43t-26.5 -11h-393z" />
    <glyph glyph-name="greater" unicode="&#x3e;" horiz-adv-x="494" 
d="M350 208l-298 158q-14 7 -12 24.5t12 37.5l361 -195q8 -5 14 -10t6 -14q0 -8 -3 -21l-349 -187q-14 -8 -29.5 0.5t-26.5 32.5z" />
    <glyph glyph-name="question" unicode="?" horiz-adv-x="359" 
d="M144 173q-22 26 -36 45.5t-22 35t-11 27.5t-3 23q0 44 33.5 75.5t85.5 64.5q20 13 39.5 25.5t35 25.5t25 27t9.5 30q0 28 -20.5 40t-44.5 12q-17 0 -36.5 -9t-42.5 -31q-9 -8 -14 -11t-12 -3q-8 0 -17 5t-16 11.5t-11.5 14t-4.5 13.5t4 11t10 10q11 9 25.5 17.5t30.5 15
t32 10.5t31 4q36 0 62 -12.5t43.5 -33t26 -45.5t8.5 -49q0 -21 -9 -39t-24.5 -34t-36 -30.5t-43.5 -29.5q-19 -12 -37.5 -24t-33 -24.5t-23.5 -26t-9 -28.5q0 -19 5 -36t18 -49q3 -8 1 -15.5t-18 -12.5zM61 46q0 29 16.5 48.5t42.5 19.5t40.5 -16.5t14.5 -41.5
q0 -30 -17 -49t-41 -19q-29 0 -42.5 16t-13.5 42z" />
    <glyph glyph-name="at" unicode="@" horiz-adv-x="803" 
d="M506 389q-14 5 -27.5 7.5t-27.5 2.5q-82 0 -124 -71.5t-42 -198.5q0 -37 11.5 -50.5t26.5 -13.5q19 0 40 17.5t41.5 45.5t38.5 63.5t32 71.5t22.5 69t8.5 57zM519 0q-33 0 -47 16t-16.5 41t2.5 55t10 58h-4q-21 -50 -44.5 -83.5t-48 -53t-49.5 -27.5t-49 -8
q-14 0 -27 3.5t-23 14t-16 28.5t-6 47q0 86 24.5 151.5t63 109.5t85.5 66.5t91 22.5q38 0 64.5 -3t61.5 -10l-66 -335q-4 -20 1 -37.5t27 -17.5q26 0 53.5 21.5t50.5 59t38 89.5t15 112q0 59 -23 107.5t-62 83.5t-90.5 54.5t-108.5 19.5q-75 0 -140.5 -29.5t-115 -82.5
t-78 -128.5t-28.5 -166.5q0 -73 27 -134t74 -104.5t109 -67.5t133 -24q65 0 120.5 12.5t105.5 36.5q8 4 14 4q13 0 25 -15q-50 -37 -121.5 -56.5t-146.5 -19.5q-86 0 -157.5 26t-123.5 74t-81 116.5t-29 154.5q0 92 33.5 172t91.5 139t135.5 93t166.5 34q70 0 129 -22
t101 -62t65.5 -95t23.5 -121q0 -33 -6 -69.5t-18 -72t-31 -67.5t-46 -56.5t-61.5 -39t-77.5 -14.5z" />
    <glyph glyph-name="A" unicode="A" 
d="M345 276l-39 233l-126 -233h165zM71 74q-7 -14 -7 -23q0 -12 13.5 -17.5t41.5 -9.5q18 -3 18 -15q0 -5 -2 -15q-30 3 -55.5 4.5t-53.5 1.5q-20 0 -41.5 -1t-47.5 -5l-2 8t-1 7q0 13 17 16q52 9 67 38l320 589q6 10 15 10q3 0 6 -1t5 -2l107 -593q3 -18 18 -27t39 -13
q13 -2 17 -6t4 -10q0 -5 -2 -15q-28 2 -53.5 3.5t-52.5 1.5q-59 0 -117 -6q-3 7 -3 15q0 13 19 16q13 2 28 9t15 22v6t-1 9l-30 167h-192z" />
    <glyph glyph-name="B" unicode="B" horiz-adv-x="556" 
d="M225 359q102 0 146 41.5t44 119.5q0 45 -27.5 68.5t-96.5 23.5h-19zM183 581q2 12 -1.5 18.5t-11.5 10.5t-19.5 5.5t-26.5 3.5q-5 1 -9.5 4.5t-4.5 11.5q0 3 0.5 6.5t1.5 8.5h219q48 0 82 -10t55.5 -27.5t31 -40.5t9.5 -50q0 -54 -39 -99.5t-99 -74.5q25 -4 50 -12.5
t45.5 -24t33 -38.5t12.5 -55q0 -49 -22 -89t-59 -68.5t-86 -44.5t-103 -16h-132q-21 0 -47 -1.5t-53 -4.5q-1 5 -1.5 8.5t-0.5 7.5q0 5 3 9t9 5q57 7 64 44zM168 65q-3 -15 2.5 -21t22.5 -6h16q43 0 81 8t66 27t44 51t16 80q0 57 -42 87t-122 30h-34z" />
    <glyph glyph-name="C" unicode="C" horiz-adv-x="613" 
d="M326 -12q-79 0 -134.5 21t-90.5 57.5t-51 85t-16 104.5q0 73 24 145.5t72 130.5t120.5 94t170.5 36q50 0 96.5 -8t89.5 -22q-3 -29 -3 -57q0 -20 1.5 -40t3.5 -40q-7 -5 -18 -5q-19 0 -20 15q-9 66 -49 92t-107 26q-66 0 -118 -28.5t-88.5 -77.5t-55.5 -114.5t-19 -138.5
q0 -54 14.5 -97.5t40.5 -74t63.5 -47.5t84.5 -17q68 0 107.5 28t68.5 90q7 16 24 16q6 0 12.5 -2.5t8.5 -4.5q-15 -32 -26.5 -67.5t-23.5 -79.5q-22 -4 -47 -7.5t-50 -6.5t-47 -4.5t-38 -1.5z" />
    <glyph glyph-name="D" unicode="D" horiz-adv-x="730" 
d="M588 366q0 66 -17.5 113t-51 76.5t-82.5 43t-112 13.5h-51l-103 -541q-3 -19 4.5 -26t26.5 -7h48q67 0 128.5 18.5t108 58t74 102t27.5 149.5zM183 582q4 21 -8.5 29t-44.5 13q-12 1 -12 15q0 3 0.5 7.5t1.5 9.5q30 -3 59 -4.5t55 -1.5h138q69 0 127 -17t100 -51
t65.5 -85.5t23.5 -119.5q0 -84 -32.5 -153.5t-88.5 -119t-132 -77t-164 -27.5h-151q-21 0 -54 -1.5t-60 -4.5q-2 10 -2 16q0 12 12 15q30 6 47 14.5t21 28.5z" />
    <glyph glyph-name="E" unicode="E" horiz-adv-x="555" 
d="M183 582q4 20 -11 29t-39 12q-14 3 -14 17q0 3 0.5 7t1.5 9q30 -3 61 -4.5t58 -1.5h189q43 0 60 3t28 3q13 0 16 -12q2 -17 5 -51.5t12 -78.5q-4 -2 -10 -4.5t-11 -2.5q-13 0 -17 12q-13 51 -38 72t-75 21h-125l-50 -261h137q22 0 32 15t18 41q2 5 5.5 8t11.5 3
q9 0 19 -4q-6 -24 -10.5 -43.5t-8 -39.5t-6 -42t-4.5 -50q-9 -3 -18 -3t-12.5 5t-2.5 11q2 23 -4 42t-28 19h-136l-47 -248q-3 -16 4.5 -21.5t24.5 -5.5h115q43 0 77 22t71 76q4 5 7.5 7.5t9.5 2.5t12 -3t11 -8q-5 -10 -10 -21q-5 -9 -10 -21l-10 -24q-8 -20 -13 -39
t-10 -27t-16 -8q-17 0 -34 2.5t-46 2.5h-236q-21 0 -51.5 -1.5t-57.5 -4.5q-1 5 -1.5 9t-0.5 7q0 5 3 10t11 6q31 5 46 15t18 27z" />
    <glyph glyph-name="F" unicode="F" horiz-adv-x="528" 
d="M170 67q-2 -11 4.5 -18t17 -11.5t23.5 -7t24 -3.5q6 -1 11 -4.5t5 -11.5q0 -3 -0.5 -7.5t-1.5 -9.5q-15 1 -33.5 2.5t-37 2t-35.5 1t-30 0.5q-21 0 -50.5 -1.5t-56.5 -4.5q-1 5 -1.5 9.5t-0.5 7.5q0 5 4 10t12 6q19 2 37.5 11t22.5 30l99 514q2 12 -2 19t-12 11.5
t-17.5 7t-18.5 3.5q-14 2 -14 17q0 3 0.5 7t1.5 9q30 -3 61.5 -4.5t57.5 -1.5h190q22 0 36 1t24 2t16.5 2t12.5 1q14 0 15 -12q2 -16 5 -50t12 -78q-3 -2 -8 -4.5t-13 -2.5q-12 0 -15 11q-8 25 -17 42.5t-22 28.5t-31 16t-44 5h-127l-52 -272h137q22 0 33 17t19 43
q2 4 6 7.5t11 3.5q4 0 9 -1l10 -2q-7 -22 -11.5 -40.5t-8 -38t-6 -43t-5.5 -54.5q-9 -3 -19 -3q-13 0 -13 14v19t-3 19t-10 15t-20 6h-136z" />
    <glyph glyph-name="G" unicode="G" horiz-adv-x="660" 
d="M476 205q2 10 -2.5 17.5t-12.5 12.5t-17.5 8t-17.5 5q-4 1 -8 3.5t-4 10.5q0 5 3 16q61 -6 114 -6q21 0 48.5 1.5t53.5 4.5q2 -10 2 -14q0 -14 -13 -17q-24 -4 -39.5 -14t-19.5 -29l-35 -181q-2 -11 -10 -17.5t-26 -8.5q-44 -5 -88 -7t-96 -2q-71 0 -122.5 21t-84.5 58
t-49 87t-16 107q0 69 23.5 140.5t70.5 129.5t119 94.5t169 36.5q50 0 96 -7.5t98 -21.5q-3 -41 -2.5 -70.5t4.5 -66.5q-6 -6 -18 -6q-17 0 -20 15q-9 63 -47.5 90.5t-109.5 27.5t-124 -29t-88.5 -78t-53.5 -114.5t-18 -137.5q0 -54 14 -97.5t40.5 -74t64 -47.5t84.5 -17
q30 0 59.5 1.5t46.5 5.5z" />
    <glyph glyph-name="H" unicode="H" horiz-adv-x="720" 
d="M553 581q4 20 -7 29.5t-42 14.5q-14 3 -14 14q0 3 1 7.5t2 8.5q30 -2 59.5 -4t53.5 -2q21 0 51 1.5t57 4.5q2 -8 2 -16q0 -12 -13 -13q-30 -5 -44.5 -15t-18.5 -30l-98 -513q-4 -20 8.5 -29t42.5 -14q13 -3 13 -15q0 -6 -2 -16q-29 3 -60.5 4.5t-56.5 1.5q-20 0 -51 -1.5
t-58 -4.5q-2 10 -2 16q0 13 12 15q35 6 48.5 14.5t17.5 28.5l47 245h-284l-47 -245q-4 -20 8 -29t45 -14q13 -1 13 -15q0 -6 -2 -16q-30 3 -62 4.5t-57 1.5q-20 0 -49 -1.5t-55 -4.5q-3 7 -3 16q0 13 13 14q32 5 45.5 14.5t17.5 29.5l99 513q4 20 -6.5 30.5t-42.5 15.5
q-14 1 -14 14q0 7 3 15q29 -3 57.5 -4.5t53.5 -1.5q20 0 52.5 1.5t59.5 4.5q3 -8 3 -15q0 -12 -14 -14q-32 -5 -47 -15.5t-19 -30.5l-45 -229h284z" />
    <glyph glyph-name="I" unicode="I" horiz-adv-x="348" 
d="M182 582q4 20 -6.5 29.5t-42.5 13.5q-14 3 -14 16q0 3 1 6.5t2 8.5q30 -3 59 -4.5t54 -1.5q21 0 51 1.5t57 4.5q2 -10 2 -15q0 -14 -14 -15q-32 -4 -45 -14t-17 -30l-99 -514q-4 -20 7 -29t45 -14q13 -3 13 -15q0 -6 -2 -16q-30 3 -61 4.5t-56 1.5q-21 0 -50.5 -1.5
t-56.5 -4.5q-2 10 -2 16q0 12 12 14q32 5 46 14.5t18 29.5z" />
    <glyph glyph-name="J" unicode="J" horiz-adv-x="348" 
d="M196 201q-14 -70 -29 -120.5t-40.5 -92t-65.5 -79t-103 -81.5q-10 9 -10 21q0 5 2.5 8t5.5 6q33 33 55.5 61.5t38 56.5t25.5 57.5t16 63.5l90 477q4 20 -7 31t-47 15q-8 1 -11.5 5.5t-3.5 10.5q0 5 2 15q30 -3 64 -4.5t59 -1.5q21 0 49.5 1.5t55.5 4.5q2 -10 2 -15
q0 -13 -15 -16q-29 -4 -42.5 -13.5t-17.5 -29.5z" />
    <glyph glyph-name="K" unicode="K" horiz-adv-x="612" 
d="M242 332l2 14l246 223q20 17 20 31q0 18 -36 24q-14 3 -14 15q0 7 2 17q29 -3 50 -4.5t47 -1.5q22 0 43 1.5t46 4.5q1 -5 1.5 -9t0.5 -7q0 -13 -13 -16q-23 -5 -39.5 -14.5t-30.5 -22.5l-246 -224l187 -301q9 -14 24.5 -24.5t37.5 -14.5q8 -2 10 -5t2 -7q0 -7 -5 -17
q-57 6 -95 6q-23 0 -37 13.5t-31 39.5zM182 582q2 12 -2 19.5t-11.5 12t-17 6.5t-18.5 3q-14 2 -14 16q0 3 1 7.5t2 9.5q30 -3 59 -4.5t54 -1.5q21 0 52.5 1.5t58.5 4.5q1 -5 1.5 -9t0.5 -8q0 -12 -14 -15q-26 -4 -43.5 -13t-21.5 -29l-99 -514q-2 -12 1 -19.5t10.5 -12.5
t17.5 -7.5t21 -3.5q12 -2 12 -15q0 -3 -0.5 -7t-1.5 -9q-30 3 -59.5 4.5t-54.5 1.5q-21 0 -52.5 -1.5t-58.5 -4.5q-1 5 -1.5 9t-0.5 7q0 13 12 15q27 4 45.5 13.5t22.5 29.5z" />
    <glyph glyph-name="L" unicode="L" horiz-adv-x="550" 
d="M117 0q-21 0 -50.5 -1.5t-56.5 -4.5q-1 5 -1.5 9t-0.5 8q0 5 3 9t9 5q26 4 43 13.5t21 29.5l99 514q4 20 -11.5 29t-40.5 13q-7 1 -10 5.5t-3 9.5q0 3 1 7.5t2 9.5q30 -3 62.5 -4.5t58.5 -1.5q14 0 31 0.5t34.5 1t34 1.5t29.5 3q3 -11 3 -17q0 -13 -14 -15t-29.5 -5.5
t-28.5 -9t-22.5 -14.5t-12.5 -23l-97 -507q-3 -14 5 -20.5t22 -6.5h116q45 0 78.5 24.5t71.5 75.5q8 10 18 10q6 0 11.5 -3.5t9.5 -7.5l-10 -22q-5 -10 -10 -22l-10 -24q-8 -20 -13 -39t-10 -27t-16 -8q-17 0 -34 2.5t-46 2.5h-236v0z" />
    <glyph glyph-name="M" unicode="M" horiz-adv-x="864" 
d="M741 650q41 0 95 6q1 -5 1.5 -9t0.5 -7q0 -14 -13 -17q-23 -4 -36.5 -11.5t-16.5 -24.5l-76 -518q-3 -20 11 -29.5t37 -12.5q14 -1 14 -17q0 -5 -2 -15q-29 2 -60 3.5t-56 1.5q-21 0 -49.5 -1.5t-54.5 -4.5q-3 9 -3 17q0 13 13 15q26 4 43.5 13t20.5 29l68 465l-294 -530
q-8 -15 -22 -15q-9 0 -13 3l-119 548l-112 -469q-5 -20 11 -30t41 -14q9 -1 12 -5t3 -11q0 -3 -0.5 -7t-1.5 -9q-30 3 -51 4.5t-41 1.5q-37 0 -88 -6q-3 9 -3 16q0 5 3 9.5t10 5.5q24 4 41 14.5t22 28.5l123 519q3 12 -6.5 22t-33.5 15q-14 3 -14 15q0 3 0.5 7.5t1.5 9.5
q30 -3 53 -4.5t50 -1.5q28 0 37 -5.5t11 -15.5l107 -506l277 504q3 6 6.5 10.5t9.5 7.5t16 4t27 1z" />
    <glyph glyph-name="N" unicode="N" horiz-adv-x="716" 
d="M530 -7q-5 -2 -9 -3.5t-10 -1.5q-12 0 -20 15l-274 543l-90 -476q-4 -20 13 -30.5t41 -13.5q13 -1 13 -16q0 -3 -0.5 -7t-1.5 -9q-30 3 -53.5 4.5t-43.5 1.5q-18 0 -38.5 -1.5t-46.5 -4.5q-1 5 -1.5 9t-0.5 7q0 5 3 9.5t10 5.5q26 4 42.5 14.5t20.5 28.5l100 518
q2 14 -7 24t-34 14q-7 1 -10 5.5t-3 9.5q0 6 3 17q26 -3 44 -4.5t41 -1.5q26 0 34.5 -2.5t13.5 -11.5l249 -501l86 444q3 20 -12 31t-40 14q-15 1 -15 16q0 3 0.5 7t1.5 9q30 -3 51 -4.5t41 -1.5q36 0 89 6q2 -10 2 -16q0 -5 -3 -9.5t-10 -5.5q-24 -4 -41.5 -14.5
t-21.5 -28.5z" />
    <glyph glyph-name="O" unicode="O" horiz-adv-x="674" 
d="M388 662q61 0 107.5 -20.5t77.5 -56t47 -83.5t16 -104q0 -91 -28 -166.5t-77 -129.5t-115.5 -84t-143.5 -30q-59 0 -103.5 22t-74.5 59t-45 85.5t-15 101.5q0 81 26.5 154.5t73.5 129.5t112 89t142 33zM297 31q63 0 108.5 32t75 82.5t43.5 113.5t14 126q0 52 -10.5 95
t-30.5 74t-49 48t-67 17q-65 0 -112 -31.5t-77.5 -82.5t-45.5 -116.5t-15 -133.5q0 -107 39.5 -165.5t126.5 -58.5z" />
    <glyph glyph-name="P" unicode="P" horiz-adv-x="526" 
d="M274 612l-102 -537q-5 -22 11 -31.5t55 -14.5q5 -1 10 -4.5t5 -13.5q0 -3 -0.5 -7.5t-1.5 -9.5q-30 3 -64 4.5t-66 1.5q-21 0 -54.5 -1.5t-60.5 -4.5q-1 5 -1.5 9t-0.5 7q0 13 14 16q29 5 45.5 14t20.5 28l99 514q4 20 -10.5 29t-37.5 12q-17 2 -17 16q0 6 3 17
q30 -3 60.5 -4.5t56.5 -1.5h88q49 0 86 -12t62.5 -33t38.5 -49.5t13 -61.5q0 -45 -17 -84t-49.5 -67.5t-79 -45t-104.5 -16.5h-43q3 20 10.5 29.5t22.5 9.5q78 2 120.5 42t42.5 128q0 24 -6.5 46t-21 39t-37.5 27t-56 10h-34z" />
    <glyph glyph-name="Q" unicode="Q" horiz-adv-x="674" 
d="M388 662q61 0 107.5 -20.5t77.5 -56t47 -83.5t16 -104q0 -79 -21 -146t-59 -119t-90 -87t-114 -49v-4q41 -13 68 -39.5t52.5 -52.5t57 -46t82.5 -20h10q2 -3 2 -7t-5 -8q-12 -9 -32.5 -15.5t-43.5 -6.5q-42 0 -73 12.5t-56.5 31.5t-46.5 42.5t-43 45t-46.5 39t-56.5 24.5
q-93 26 -140 96.5t-47 166.5q0 81 26.5 154.5t73.5 129.5t112 89t142 33zM297 31q63 0 108.5 32t75 82.5t43.5 113.5t14 126q0 52 -10 95t-30 74t-49.5 48t-67.5 17q-65 0 -112 -31.5t-77.5 -82.5t-45.5 -116.5t-15 -133.5q0 -107 39.5 -165.5t126.5 -58.5z" />
    <glyph glyph-name="R" unicode="R" horiz-adv-x="598" 
d="M170 68q-4 -20 13.5 -28.5t43.5 -12.5q14 -3 14 -17q0 -3 -0.5 -7t-1.5 -9q-60 6 -118 6q-24 0 -57.5 -1.5t-60.5 -4.5q-1 5 -1.5 8.5t-0.5 7.5q0 13 13 15q26 5 46 14t24 29l99 514q4 19 -9.5 28t-37.5 13q-15 3 -15 16q0 8 3 17q30 -3 61.5 -4.5t57.5 -1.5h80
q94 0 146.5 -40.5t52.5 -109.5q0 -31 -9 -60t-29.5 -54.5t-53.5 -46.5t-81 -34l145 -246q9 -16 25.5 -23.5t36.5 -12.5q8 -2 8 -12q0 -4 -1 -8t-3 -9q-28 3 -52.5 4.5t-42.5 1.5t-32.5 13t-29.5 39l-152 260l4 18q84 1 128 41.5t44 125.5q0 24 -6.5 44.5t-21.5 36.5
t-38.5 25t-57.5 9h-29z" />
    <glyph glyph-name="S" unicode="S" horiz-adv-x="520" 
d="M109 481q0 33 14 65t40 57.5t63 41.5t84 16q63 0 104 -13.5t73 -33.5q-5 -28 -6.5 -55t-0.5 -60q-5 -2 -10 -2.5t-8 -0.5q-13 0 -16.5 4.5t-5.5 12.5q-14 58 -49 82.5t-85 24.5q-24 0 -45.5 -7t-37.5 -19t-25.5 -29.5t-9.5 -38.5t10 -40.5t27 -38t38.5 -36.5t44.5 -37
q24 -20 47.5 -41t41.5 -44t29.5 -49.5t11.5 -57.5q0 -43 -17 -79t-48.5 -61.5t-77 -39.5t-101.5 -14q-61 0 -104.5 14.5t-70.5 33.5q5 42 7.5 82t0.5 78q5 2 10 3t10 1q13 0 16.5 -6t5.5 -18q6 -36 14.5 -63t24 -45t38.5 -27.5t58 -9.5q61 0 101.5 33t40.5 90q0 24 -8.5 44
t-22 38t-32 34t-37.5 31q-24 19 -48.5 38t-44 40.5t-32 46.5t-12.5 55z" />
    <glyph glyph-name="T" unicode="T" horiz-adv-x="639" 
d="M333 612h-83q-26 0 -45 -5.5t-34 -16.5t-29 -28.5t-30 -42.5q-4 -6 -9 -8t-10 -2q-8 0 -12 2t-6 4q10 21 16 39.5t11 35.5q4 13 6 22t3.5 15t3 10.5t4.5 9.5q6 9 18 9q7 0 17.5 -1.5t23.5 -2.5q14 -1 30 -1.5t30 -0.5h293q15 0 30 0.5t27 1.5q9 1 16.5 2.5t15.5 1.5
q5 0 10 -2t6 -7q2 -7 2 -21t4 -37q2 -16 6 -34t9 -39q-9 -7 -21 -7t-15 10q-14 51 -40 72t-79 21h-83l-101 -537q-2 -12 3 -20t14.5 -13.5t22 -8.5t24.5 -5q5 -1 10 -3.5t5 -13.5q0 -8 -3 -17q-29 3 -59.5 4.5t-68.5 1.5q-32 0 -66 -1.5t-60 -4.5q-1 5 -1.5 9t-0.5 8
q0 5 3 10.5t8 6.5q35 5 57 16t26 31z" />
    <glyph glyph-name="U" unicode="U" horiz-adv-x="725" 
d="M582 223q-9 -50 -31.5 -93t-57 -74.5t-80.5 -49.5t-104 -18q-57 0 -99 18.5t-68 50t-35 74.5t1 93l69 357q4 21 -11.5 30t-37.5 11q-15 2 -15 16q0 7 3 18q60 -6 110 -6q21 0 54.5 1.5t60.5 4.5q1 -5 1.5 -9t0.5 -7q0 -6 -3.5 -10.5t-11.5 -5.5q-26 -4 -43.5 -13.5
t-21.5 -28.5l-66 -341q-7 -38 -3.5 -74t19.5 -64.5t44.5 -46t71.5 -17.5q36 0 69.5 10.5t62 34t49.5 61.5t32 94l65 341q4 20 -10 30t-40 14q-12 1 -12 16q0 3 0.5 7t1.5 9q30 -3 49 -4.5t39 -1.5q18 0 39.5 1t47.5 4q1 -5 2 -9t1 -7q0 -13 -13 -15q-25 -4 -41 -14t-20 -28z
" />
    <glyph glyph-name="V" unicode="V" horiz-adv-x="598" 
d="M531 574q14 24 2 35.5t-38 14.5q-14 1 -14 15q0 8 3 17q57 -6 98 -6q18 0 39 1.5t47 4.5q3 -9 3 -17q0 -13 -13 -15q-51 -8 -70 -38l-340 -595q-8 -3 -14 -3q-11 0 -14 14l-107 584q-5 30 -51 37q-8 1 -11.5 5.5t-3.5 10.5q0 8 3 17q29 -3 60.5 -4.5t56.5 -1.5
q21 0 54.5 1.5t59.5 4.5q3 -9 3 -17q0 -5 -3 -9.5t-9 -5.5q-31 -3 -46 -12.5t-11 -32.5l70 -446z" />
    <glyph glyph-name="W" unicode="W" horiz-adv-x="950" 
d="M112 588q-3 16 -17 22.5t-36 10.5q-13 4 -13 18q0 8 3 17q29 -3 59.5 -4.5t55.5 -1.5q21 0 55 1.5t61 4.5q1 -5 1.5 -9t0.5 -8q0 -5 -3 -10t-9 -6q-31 -3 -45 -13t-10 -32l72 -422l265 503q6 3 14 3q13 0 14 -13l75 -497l225 423q13 24 3 35t-40 14q-13 1 -13 15
q0 3 0.5 7.5t1.5 9.5q29 -3 55 -4.5t46 -1.5q18 0 36.5 1.5t45.5 3.5q1 -5 1.5 -9t0.5 -7q0 -13 -15 -16q-50 -8 -65 -36l-323 -596q-6 -3 -13 -3q-14 0 -17 15l-76 482l-262 -494q-6 -3 -13 -3q-14 0 -17 15z" />
    <glyph glyph-name="X" unicode="X" horiz-adv-x="616" 
d="M114 89q-23 -26 -14.5 -42t43.5 -21q4 -1 7 -4t3 -12q0 -3 -0.5 -7t-1.5 -9q-30 3 -63 4.5t-53 1.5q-40 0 -86 -6q-3 9 -3 16q0 9 4 12.5t9 4.5q21 3 43.5 14t33.5 23l233 268l-122 249q-10 20 -27.5 32t-37.5 14q-11 1 -11 10q0 4 1.5 9t3.5 10q29 -3 60 -4.5t51 -1.5
q17 0 31 -11t25 -36l99 -216l145 165q12 13 19 25t6.5 21.5t-10 16t-31.5 8.5q-12 1 -12 16q0 6 3 17q30 -3 60 -4.5t50 -1.5q36 0 84 6q1 -5 1.5 -9t0.5 -7q0 -14 -13 -17q-26 -5 -44.5 -14.5t-29.5 -22.5l-210 -237l135 -278q12 -26 29 -35t39 -13q10 -2 8 -13
q0 -4 -1 -7.5t-3 -8.5q-27 2 -55 4t-46 2t-33 10.5t-29 39.5l-118 242z" />
    <glyph glyph-name="Y" unicode="Y" horiz-adv-x="548" 
d="M224 288l-113 302q-4 11 -16 19t-36 12q-13 3 -13 17q0 8 3 17q29 -3 58 -4.5t55 -1.5q10 0 24.5 0.5t30.5 1t31.5 1.5t28.5 3q1 -5 1.5 -9t0.5 -8q0 -5 -3 -9.5t-9 -5.5q-31 -2 -44 -15t-5 -36l84 -233l176 235q14 18 3.5 33t-38.5 17q-14 1 -14 15q0 8 3 17
q26 -3 53 -4.5t47 -1.5q18 0 39 1.5t47 4.5q3 -9 3 -16q0 -14 -16 -17q-24 -4 -39 -13t-26 -23l-219 -288l-44 -228q-4 -21 10.5 -31t39.5 -13q15 -2 15 -16q0 -8 -3 -17q-30 3 -63 4.5t-58 1.5q-11 0 -25.5 -0.5t-31 -1t-32.5 -2t-29 -2.5q-1 5 -1.5 9t-0.5 7q0 5 3 10
t10 6q26 4 46.5 14.5t25.5 30.5z" />
    <glyph glyph-name="Z" unicode="Z" horiz-adv-x="605" 
d="M-16 0q-1 5 -0.5 9.5t4.5 9.5l504 592h-236q-31 0 -53.5 -3.5t-39 -14t-30 -29.5t-26.5 -50q-7 -16 -22 -16q-7 0 -13 2t-8 5q15 41 25 73.5t16 55.5q3 12 8.5 16.5t16.5 4.5q21 0 43.5 -2.5t57.5 -2.5h391q1 -5 0.5 -11t-5.5 -11l-500 -589h239q30 0 52.5 7t40 21
t32.5 35t31 50q3 6 8 10.5t11 4.5q8 0 13.5 -2.5t8.5 -5.5q-17 -42 -28.5 -78t-19.5 -67q-3 -11 -9.5 -15.5t-14.5 -4.5q-20 0 -45.5 3t-58.5 3h-393z" />
    <glyph glyph-name="bracketleft" unicode="[" horiz-adv-x="295" 
d="M22 -181l170 873h154q1 -5 1 -8.5v-5.5q0 -12 -3.5 -16t-15.5 -5q-20 -1 -33 -3.5t-20.5 -7t-11 -11.5t-5.5 -17l-143 -726q-3 -13 -0.5 -19.5t10 -10.5t20 -5.5t30.5 -3.5q11 -2 14 -6t3 -12v-6t-1 -10h-169z" />
    <glyph glyph-name="backslash" unicode="\" horiz-adv-x="354" 
d="M54 687q8 1 15.5 2t14.5 1q14 0 22 -5.5t12 -19.5l186 -697q-18 -3 -32 -3t-20.5 6t-10.5 19z" />
    <glyph glyph-name="bracketright" unicode="]" horiz-adv-x="280" 
d="M240 692l-170 -873h-154q-1 5 -1 8.5v5.5q0 12 3.5 16t15.5 5q20 1 33 3.5t20.5 7t11 11.5t5.5 17l143 726q3 13 0.5 19.5t-10 10.5t-20 5.5t-30.5 3.5q-11 2 -14 6t-3 12v6t1 10h169z" />
    <glyph glyph-name="asciicircum" unicode="^" horiz-adv-x="492" 
d="M62 108q-26 10 -37 16.5t-11 16.5q0 5 2 8.5t5 8.5l182 345q2 5 6.5 7.5t13.5 2.5q8 0 25 -5l183 -348q2 -5 4 -8.5t2 -9.5q0 -9 -10.5 -17t-39.5 -17l-162 317z" />
    <glyph glyph-name="underscore" unicode="_" horiz-adv-x="369" 
d="M-68 -123q4 31 12.5 41t26.5 10h330q-4 -31 -12.5 -41t-27.5 -10h-329v0z" />
    <glyph glyph-name="grave" unicode="`" horiz-adv-x="500" 
d="M314 524q3 -8 3 -13q0 -12 -19 -19q-17 20 -30.5 36t-26 29t-25 25t-27.5 25q-13 12 -13 23q0 18 21 29t50 12z" />
    <glyph glyph-name="a" unicode="a" horiz-adv-x="469" 
d="M289 166h-4q-25 -49 -51 -83t-51.5 -55t-50 -30.5t-46.5 -9.5q-15 0 -28.5 4.5t-24 15.5t-16.5 30t-6 48q0 85 27.5 151t68.5 111.5t88.5 69.5t88.5 24q32 0 61.5 -3t66.5 -11l-69 -347q-2 -10 -2 -18q0 -13 11 -13q7 0 14.5 3.5t15 8t14 8t10.5 3.5q10 0 14 -20
q-18 -13 -37.5 -24.5t-37.5 -20.5t-34 -14.5t-26 -5.5q-11 0 -20 4.5t-9 19.5q0 5 1 11.5t3 13.5zM325 393q-12 4 -26.5 6.5t-27.5 2.5q-40 0 -72 -21t-55 -59t-35.5 -90t-12.5 -113q0 -36 9 -51.5t25 -15.5q20 0 43 18t44.5 47t41.5 65.5t34.5 74.5t23 73.5t8.5 62.5z" />
    <glyph glyph-name="b" unicode="b" horiz-adv-x="469" 
d="M152 -12q-38 0 -70.5 9.5t-51.5 19.5l97 501q5 29 8.5 57.5t3.5 44.5q0 13 -10 13q-11 0 -28 -3t-25 -3q-13 0 -13 21q45 12 83.5 24.5t76.5 27.5q8 -5 10 -9.5t2 -9.5q0 -8 -2 -16l-78 -391h4q30 51 57.5 84t52.5 51.5t46.5 25.5t40.5 7q16 0 30.5 -5t26 -16.5t18 -30.5
t6.5 -48q0 -85 -27.5 -151t-69.5 -111t-92 -68.5t-96 -23.5zM114 42q11 -6 25 -9.5t27 -3.5q41 0 75.5 21.5t59 59t38.5 89t14 111.5q0 36 -11 52t-28 16q-22 0 -45 -17.5t-45.5 -46.5t-42.5 -65.5t-34.5 -73.5t-23.5 -72t-9 -61z" />
    <glyph glyph-name="c" unicode="c" horiz-adv-x="383" 
d="M244 404q-35 0 -61.5 -20t-44 -53.5t-26.5 -78.5t-9 -95q0 -24 4.5 -45.5t15 -37.5t29 -25.5t45.5 -9.5q29 0 56 11.5t53 28.5q2 2 5 3.5t5 1.5q8 0 10.5 -7.5t3.5 -12.5q-15 -13 -34 -26.5t-41.5 -24.5t-47.5 -18t-52 -7q-38 0 -64 14t-42 36.5t-22.5 51t-6.5 58.5
q0 55 16.5 108t46.5 94.5t72.5 66.5t93.5 25q61 0 120 -28q-5 -15 -9 -42t-6 -48l-15 1q-15 1 -18 15q-10 36 -30.5 50t-46.5 14z" />
    <glyph glyph-name="d" unicode="d" horiz-adv-x="468" 
d="M351 518q2 12 4.5 26.5t4 28.5t2.5 26.5t1 20.5q0 5 -1.5 10t-8.5 5q-3 0 -10.5 -1.5t-16 -3t-16 -2.5t-10.5 -1q-13 0 -13 21q45 12 83 24.5t76 27.5q8 -5 10 -9t2 -8q0 -8 -2 -18l-114 -586q-1 -5 -2 -9.5t-1 -7.5q0 -12 12 -12q7 0 14.5 3.5t15 8t14 8t10.5 3.5
q10 0 13 -20q-17 -13 -36.5 -24.5t-37.5 -20.5t-34 -14.5t-26 -5.5q-11 0 -20 4.5t-9 21.5q0 8 3 23l30 129h-4q-47 -94 -94 -136t-96 -42q-15 0 -29.5 4.5t-26.5 16.5t-19.5 32.5t-7.5 52.5q0 85 25 150t64 109t86 66.5t91 22.5q32 0 58 -3zM324 393q-12 4 -29 6.5t-31 2.5
q-39 0 -70 -21.5t-52.5 -58.5t-33.5 -87t-12 -107q0 -42 10 -59t30 -17q19 0 40 18t42 47t40 66t33.5 75t23.5 73.5t9 61.5z" />
    <glyph glyph-name="e" unicode="e" horiz-adv-x="384" 
d="M105 233q95 8 135 39t40 78q0 28 -13.5 42.5t-36.5 14.5q-24 0 -44.5 -14.5t-37 -38.5t-27.5 -55.5t-16 -65.5zM102 203q-1 -10 -1.5 -20t-0.5 -21q0 -23 4 -45t14 -39t27.5 -27.5t44.5 -10.5q26 0 54 9.5t57 29.5q10 7 14 7q8 0 10.5 -8t2.5 -12q-15 -14 -34 -28
t-41 -25t-47 -18t-52 -7q-42 0 -68.5 15.5t-42 40t-21 53.5t-5.5 56q0 53 16.5 105t46.5 93t73 66t96 25q21 0 41 -5.5t35.5 -16.5t25 -29t9.5 -43q0 -37 -19.5 -63.5t-54 -44t-81.5 -26.5t-103 -11z" />
    <glyph glyph-name="f" unicode="f" horiz-adv-x="292" 
d="M108 396h-78q5 34 21 34h62l15 89q7 43 28 78.5t49.5 61t61.5 39.5t64 14q23 0 46 -13q-8 -16 -13 -32.5t-9 -38.5l-14 -4q-10 13 -26 23.5t-33 10.5q-14 0 -25 -6.5t-20.5 -26.5t-19.5 -57t-20 -98l-6 -40h106q-8 -22 -10 -46q-25 4 -52 6t-50 3l-50 -290
q-13 -74 -31 -129t-41 -95.5t-50.5 -69t-60.5 -47.5q-11 -6 -22 -10t-25 -4q-20 0 -39 7q6 18 10 39t6 44l15 6q11 -14 24.5 -23t29.5 -9q34 0 55 56t40 166z" />
    <glyph glyph-name="g" unicode="g" horiz-adv-x="443" 
d="M323 393q-12 4 -28 6.5t-30 2.5q-43 0 -75 -22t-53.5 -60t-32 -89t-10.5 -109q0 -37 10 -53.5t30 -16.5q18 0 39 18.5t42.5 48t41 66.5t34.5 75t23.5 73t8.5 60zM8 -142q14 -30 43 -50.5t63 -20.5q42 0 74 34.5t46 100.5l49 240h-4q-42 -88 -92.5 -131t-96.5 -43
q-15 0 -30 4.5t-26 16t-18 31t-7 50.5q0 81 24.5 146.5t63.5 111t86.5 70t92.5 24.5q35 0 64.5 -3t69.5 -11l-92 -470q-11 -57 -37 -96.5t-58 -65t-67.5 -37t-65.5 -11.5q-75 0 -117 20q7 22 11 38t7 42z" />
    <glyph glyph-name="h" unicode="h" horiz-adv-x="509" 
d="M139 620q0 5 -1.5 10t-8.5 5q-3 0 -10.5 -1.5t-15.5 -3t-15 -2.5t-10 -1q-14 0 -14 21q45 12 83.5 24.5t76.5 27.5q12 -8 12 -19q0 -4 -1 -8.5t-2 -7.5l-85 -429h3q27 44 54 82t55 65.5t57 43t58 15.5t46.5 -14t17.5 -46q0 -12 -2 -28t-5 -32l-51 -240q-1 -4 -2 -10
t-1 -9q0 -13 12 -13q6 0 14 3.5t15.5 8t13.5 8t10 3.5q10 0 14 -20q-18 -13 -37 -24.5t-37.5 -20.5t-34 -14.5t-25.5 -5.5q-11 0 -21 4.5t-10 21.5q0 3 1 10.5t2 10.5l56 267q6 28 6 45q0 29 -28 29q-14 0 -35 -15t-44.5 -40.5t-47.5 -59.5t-45 -71q-9 -17 -17.5 -37.5
t-14.5 -42.5t-9.5 -43t-3.5 -38q0 -14 3 -27q-38 -4 -79 -15q-9 5 -9 12q0 4 1 9.5t2 9.5l97 500q6 29 9 57.5t3 44.5z" />
    <glyph glyph-name="i" unicode="i" horiz-adv-x="247" 
d="M171 549q-19 0 -30 11.5t-11 30.5q0 27 18.5 48.5t44.5 21.5q20 0 28.5 -13t8.5 -33q0 -25 -17 -45.5t-42 -20.5zM120 82q-1 -4 -2 -10.5t-1 -9.5q0 -12 12 -12q7 0 14.5 3.5t15 8t13.5 8t10 3.5q10 0 14 -20q-17 -13 -36.5 -24.5t-37.5 -20.5t-34 -14.5t-26 -5.5
q-11 0 -21 4.5t-10 21.5q0 3 1 10.5t2 10.5q22 107 35 170.5t19.5 97t8.5 44.5t2 13q0 12 -9 12q-4 0 -12 -3.5t-17 -7t-16.5 -7t-11.5 -3.5q-6 0 -9 6t-5 14q18 10 42 22.5t46.5 23.5t40 18t23.5 7q17 0 17 -17q0 -7 -2 -15z" />
    <glyph glyph-name="j" unicode="j" horiz-adv-x="243" 
d="M-71 -228q23 19 37.5 36.5t24 35.5t15 38.5t10.5 45.5l81 410q1 4 2 11.5t1 12.5q0 10 -8 10q-4 0 -12 -3.5t-17 -7t-17 -7t-12 -3.5q-5 0 -8 6t-5 14q18 10 42.5 22.5t47 23.5t40 18t22.5 7q7 0 12 -3.5t5 -13.5q0 -7 -2 -15l-91 -459q-15 -75 -58 -122t-99 -81
q-15 6 -15 16q0 5 4 8zM172 549q-19 0 -30 11.5t-11 30.5q0 27 18.5 48.5t44.5 21.5q20 0 28.5 -13t8.5 -33q0 -25 -17 -45.5t-42 -20.5z" />
    <glyph glyph-name="k" unicode="k" horiz-adv-x="445" 
d="M130 518q5 29 8.5 57.5t3.5 44.5q0 13 -9 13q-10 0 -27.5 -3t-25.5 -3q-13 0 -13 21q45 12 83 24.5t76 27.5q8 -5 10 -9t2 -8t-1 -9t-2 -9l-83 -421h4q16 21 43 54.5t60.5 65t70 54.5t71.5 23q16 0 30 -3q-5 -14 -9.5 -32.5t-7.5 -40.5l-12 -4q-5 7 -14 11.5t-19 4.5
q-9 0 -23 -3.5t-32.5 -14.5t-42 -31t-52.5 -54q28 -61 52 -110.5t45 -84.5q22 -38 37 -38q7 0 14.5 3t14.5 6.5t13.5 6.5t10.5 3q6 0 9 -3.5t5 -14.5q-32 -23 -65 -38.5t-51 -15.5q-10 0 -20.5 5t-20.5 24q-7 13 -19.5 37t-26.5 52.5l-28 57t-24 51.5q-19 -22 -33 -78
q-8 -30 -13 -60t-5 -48q0 -14 3 -27q-38 -4 -79 -15q-8 5 -8 12q0 2 1 8.5t2 10.5z" />
    <glyph glyph-name="l" unicode="l" horiz-adv-x="248" 
d="M142 620q0 5 -1.5 10t-8.5 5q-3 0 -10.5 -1.5t-16 -3t-15.5 -2.5t-10 -1q-13 0 -13 21q45 12 83 24.5t76 27.5q8 -5 10 -9.5t2 -9.5q0 -8 -2 -16l-114 -583q-1 -5 -2 -11.5t-1 -8.5q0 -12 12 -12q7 0 14.5 3.5t15 8t13.5 8t10 3.5q10 0 14 -20q-17 -13 -36.5 -24.5
t-37.5 -20.5t-34 -14.5t-26 -5.5q-11 0 -21 4.5t-10 21.5q0 3 1 10.5t2 10.5l94 483q6 29 9 57.5t3 44.5z" />
    <glyph glyph-name="m" unicode="m" horiz-adv-x="751" 
d="M340 302q6 27 6 45q0 29 -22 29q-14 0 -34.5 -16.5t-43.5 -43t-46 -59.5t-41 -67q-9 -17 -17.5 -37.5t-15 -42t-10 -42.5t-3.5 -39q0 -14 3 -27q-38 -4 -79 -15q-8 5 -8 12q0 2 1 8.5t2 10.5q22 115 35 182.5t20 102t8.5 45t1.5 12.5q0 12 -8 12q-4 0 -12 -3.5t-16.5 -7
t-16.5 -7t-12 -3.5q-5 0 -8.5 6t-5.5 14q18 11 42 23.5t46.5 23t40 17.5t23.5 7q7 0 12 -3.5t5 -11.5q0 -2 -0.5 -7t-1.5 -10l-36 -174h4q26 44 53 82t54.5 65.5t55.5 43t57 15.5q22 0 38.5 -14.5t16.5 -46.5q0 -13 -2 -27.5t-6 -33.5l-16 -80h3q26 43 53 80t54.5 64
t55.5 42.5t56 15.5q22 0 38 -14t16 -46q0 -14 -2 -29.5t-5 -30.5l-51 -240q-1 -5 -2 -10.5t-1 -8.5q0 -13 12 -13q7 0 14.5 3.5t15 8t14 8t10.5 3.5q10 0 13 -20q-17 -13 -36.5 -24.5t-37.5 -20.5t-34 -14.5t-26 -5.5q-11 0 -21 4.5t-10 21.5q0 3 1 10.5t2 10.5l57 267
q5 25 5 45q0 29 -21 29q-14 0 -34.5 -16.5t-43.5 -43t-46.5 -59.5t-41.5 -67q-8 -14 -16 -34t-15 -41.5t-11 -44t-4 -41.5q0 -14 3 -27q-39 -5 -79 -15q-8 6 -8 12q0 2 1 8t2 11z" />
    <glyph glyph-name="n" unicode="n" horiz-adv-x="512" 
d="M353 302q6 27 6 45q0 29 -28 29q-15 0 -37 -16.5t-46 -43t-47.5 -59.5t-41.5 -67q-9 -17 -17.5 -37.5t-15 -42t-10 -42.5t-3.5 -39q0 -14 3 -27q-38 -4 -79 -15q-8 5 -8 12q0 2 1 8.5t2 10.5q23 116 36 183t19.5 101.5t8 45t1.5 12.5q0 12 -8 12q-4 0 -12 -3.5t-16.5 -7
t-16.5 -7t-12 -3.5q-5 0 -8.5 6t-5.5 14q18 11 42.5 23.5t47.5 23t40 17.5t22 7q7 0 12 -3.5t5 -11.5q0 -3 -0.5 -7.5t-1.5 -9.5l-36 -174h4q26 44 54 82t56.5 65.5t57.5 43t59 15.5q28 0 44.5 -14t16.5 -46q0 -12 -2 -28t-5 -32l-51 -240q-3 -14 -3 -19q0 -13 12 -13
q6 0 14 3.5t15.5 8t13.5 8t10 3.5q10 0 14 -20q-18 -13 -37 -24.5t-37.5 -20.5t-34.5 -14.5t-26 -5.5q-11 0 -20.5 4.5t-9.5 21.5q0 3 1 9.5t2 11.5z" />
    <glyph glyph-name="o" unicode="o" horiz-adv-x="429" 
d="M245 442q37 0 64.5 -12.5t44.5 -35t25.5 -53.5t8.5 -67q0 -72 -23 -126t-58.5 -89.5t-79.5 -53t-86 -17.5q-35 0 -59.5 11t-39.5 32t-21.5 51.5t-6.5 68.5q0 66 22.5 120t57 92t75 58.5t76.5 20.5zM166 27q30 0 55.5 18t44 50t28.5 75.5t10 95.5q0 63 -15 100t-53 37
q-33 0 -59 -22t-43.5 -57t-26.5 -78t-9 -85q0 -66 15.5 -100t52.5 -34z" />
    <glyph glyph-name="p" unicode="p" horiz-adv-x="475" 
d="M98 362q0 10 -8 10q-4 0 -12 -3.5t-17 -7t-16.5 -7t-11.5 -3.5q-6 0 -9 6t-5 14q18 11 42 23.5t46.5 23t40 17.5t23.5 7q7 0 12 -3.5t5 -13.5q0 -7 -2 -15l-30 -141h3q50 91 99 132t98 41q25 0 42 -10t27 -26.5t14 -38t4 -43.5q0 -79 -27.5 -141t-68.5 -105.5
t-90.5 -66.5t-92.5 -23q-13 0 -30 1.5t-29 4.5l-15 -80q-10 -56 -10 -83q0 -15 11 -15q8 0 26 2.5t27 2.5q6 0 8.5 -6t3.5 -13q-46 -13 -83.5 -25.5t-74.5 -28.5q-8 5 -11 9.5t-3 10.5q0 5 2 15l111 564q1 5 1 9v6zM116 42q11 -6 29 -9.5t31 -3.5q41 0 74 20.5t56.5 57
t36.5 85.5t13 106q0 45 -13 62.5t-33 17.5q-19 0 -41 -18t-43.5 -47t-41 -65.5t-35 -74t-24.5 -72t-9 -59.5z" />
    <glyph glyph-name="q" unicode="q" horiz-adv-x="446" 
d="M325 393q-13 4 -29.5 6.5t-30.5 2.5q-40 0 -71.5 -21.5t-53 -58.5t-33 -87t-11.5 -107q0 -45 10.5 -60.5t28.5 -15.5q19 0 40.5 18t43 47.5t41 66.5t34 75t23 73t8.5 61zM300 -143q-2 -10 -4 -26t-2 -24q0 -11 0.5 -23.5t2.5 -19.5q-19 -2 -40.5 -6.5t-41.5 -9.5
q-8 6 -8 12q0 4 1 12t3 19q6 34 16 82t20.5 99.5t20.5 101.5t18 88h-3q-41 -83 -90.5 -128.5t-100.5 -45.5q-15 0 -30 4.5t-26 16t-18 31.5t-7 52q0 82 26 147t65.5 110t87 69t91.5 24q35 0 66 -3t65 -11z" />
    <glyph glyph-name="r" unicode="r" horiz-adv-x="360" 
d="M298 347q-16 0 -36.5 -14t-41 -38t-40 -55.5t-34.5 -67t-24 -72.5t-9 -71q0 -14 3 -27q-20 -2 -40.5 -6t-40.5 -9q-9 5 -9 12q0 6 2 14t4 13t4 12t4 20l44 227q7 39 9 53t3 20q0 13 -9 13q-4 0 -11.5 -3t-16 -7t-16 -7t-11.5 -3q-5 0 -8.5 6t-5.5 14q18 11 42.5 23.5
t47 23t40 17.5t22.5 7q7 0 12 -3.5t5 -11.5q0 -2 -0.5 -7t-1.5 -10l-32 -150h4q54 96 98.5 139t87.5 43q9 0 16.5 -3t10.5 -6q-9 -23 -16 -48t-11 -56h-16q-10 18 -29 18z" />
    <glyph glyph-name="s" unicode="s" horiz-adv-x="351" 
d="M289 332q-11 1 -14 5.5t-4 10.5q-5 30 -23 46.5t-49 16.5q-32 0 -55 -15.5t-23 -44.5q0 -20 17.5 -40.5t41.5 -41.5q18 -16 38 -33t36 -34.5t26.5 -36.5t10.5 -39q0 -29 -13 -54t-35.5 -43.5t-53 -29.5t-64.5 -11q-35 0 -68 6t-62 19q8 30 12.5 55.5t6.5 57.5h10
q24 0 24 -17q-2 -42 19.5 -65t59.5 -23q39 0 64 20.5t25 53.5q0 15 -7.5 29t-19.5 26.5t-27 25t-31 25.5q-30 25 -54.5 52.5t-24.5 63.5q0 27 12.5 50t34 39.5t50 26t60.5 9.5q58 0 109 -27q-5 -15 -8.5 -38t-5.5 -46z" />
    <glyph glyph-name="t" unicode="t" horiz-adv-x="299" 
d="M118 447q8 38 8 61q0 13 -3 27q19 3 40 6t42 9q8 -6 8 -12q0 -2 -0.5 -8t-1.5 -10l-17 -90h103q-3 -9 -6 -22t-5 -24q-25 4 -51 6t-49 3l-55 -312q-3 -15 -3 -21q0 -24 29 -24q15 0 27.5 3.5t22.5 8.5q9 4 15.5 7.5t10.5 3.5q11 0 13 -19q-31 -24 -67.5 -38t-68.5 -14
q-36 0 -51 11.5t-15 34.5q0 11 2 21l63 341h-73q2 17 6.5 25.5t15.5 8.5h57z" />
    <glyph glyph-name="u" unicode="u" horiz-adv-x="511" 
d="M130 128q-6 -29 -6 -45t9.5 -23t24.5 -7q22 0 46 17.5t47.5 46.5t45 66t37.5 75.5t25.5 76t9.5 66.5q0 13 -3 27q39 5 79 15q8 -5 8 -12q0 -2 -1 -8.5t-2 -10.5l-68 -344q-3 -18 13 -18q6 0 13.5 3.5t14.5 7t13.5 7t10.5 3.5q9 0 12 -18q-18 -13 -38 -25t-38 -21
t-33.5 -14t-24.5 -5q-10 0 -19 4.5t-9 20.5q0 2 0.5 9t2.5 13l29 138h-4q-53 -98 -107 -141.5t-107 -43.5q-32 0 -50 16t-18 48q0 12 2 28t5 31l49 230q0 2 1 7t1 7q2 17 -9 17q-5 0 -13.5 -3.5t-17.5 -7t-16.5 -7t-11.5 -3.5q-5 0 -8 6t-5 13q17 10 40.5 23t46 23.5
t40.5 18t24 7.5q20 0 20 -17q0 -5 -1 -10l-2 -10z" />
    <glyph glyph-name="v" unicode="v" horiz-adv-x="471" 
d="M153 124q-2 -13 -3 -23.5t-1 -18.5q0 -17 5 -23t18 -6q19 0 41 14t43 36.5t40.5 52t34 61t23.5 61.5t9 55q0 22 -6.5 42.5t-23.5 37.5l11 16q28 2 50.5 5t48.5 9q4 -11 5.5 -24t1.5 -24q0 -28 -14.5 -69.5t-39 -86.5t-57.5 -90t-69 -81t-73 -58t-71 -22q-62 0 -62 62
q0 12 1 26.5t3 31.5l29 231q1 4 1.5 10t0.5 8q0 17 -12 17q-6 0 -14.5 -3.5t-16.5 -7t-15 -7t-11 -3.5q-10 0 -14 19q20 15 41.5 27.5t41 22t35.5 15t25 5.5q10 0 18.5 -4.5t8.5 -19.5v-11.5t-1 -12.5z" />
    <glyph glyph-name="w" unicode="w" horiz-adv-x="725" 
d="M329 93q2 14 4.5 35.5t4.5 36.5q-53 -80 -109 -128.5t-104 -48.5q-60 0 -60 62q0 12 1 26.5t3 31.5l28 231q1 4 1.5 10t0.5 8q0 17 -12 17q-6 0 -14.5 -3.5t-16.5 -7t-15 -7t-11 -3.5q-10 0 -14 19q20 15 41.5 27.5t41 22t35.5 15t25 5.5q10 0 19 -4.5t9 -21.5
q0 -3 -0.5 -10t-1.5 -12q-7 -69 -15.5 -135.5t-16.5 -134.5q-3 -26 -3 -41q0 -18 5.5 -24.5t19.5 -6.5q17 0 39 16.5t44 43t41.5 59.5t33.5 66q18 46 22.5 85t4.5 55t-2.5 27.5t-5.5 16.5l6 7q18 2 38 6t42 10q7 -10 7 -29q0 -3 -0.5 -12.5t-1.5 -15.5l-31 -260
q-2 -14 -3 -26t-1 -20q0 -16 5.5 -22t19.5 -6q27 0 58.5 29t59.5 72t46.5 92.5t18.5 90.5q0 23 -6 43.5t-20 34.5l10 14q27 2 49 5t48 9q4 -11 5.5 -24t1.5 -24q0 -27 -14 -67.5t-38 -85.5t-55.5 -90.5t-67 -82t-72 -59t-69.5 -22.5q-57 0 -61 55q-1 11 -0.5 23.5t2.5 26.5z
" />
    <glyph glyph-name="x" unicode="x" horiz-adv-x="472" 
d="M36 66q21 0 38 9t33.5 27t35.5 45t44 63l-60 150q-2 5 -6.5 12t-13.5 7q-13 0 -29 -9.5t-26 -9.5q-6 0 -8 5.5t-4 12.5q28 25 56.5 44.5t48.5 19.5q22 0 32.5 -12.5t18.5 -32.5l50 -126q65 92 113 131.5t89 39.5q16 0 27 -8q-8 -13 -14 -31t-9 -44l-15 -5q-5 5 -12.5 9.5
t-18.5 4.5q-19 0 -34 -6t-29.5 -19t-30.5 -33.5t-37 -50.5l-15 -21l65 -160q7 -17 13 -24t15 -7q12 0 26.5 9t23.5 9q7 0 9.5 -4t4.5 -14q-28 -25 -54.5 -42t-45.5 -17q-29 0 -42.5 19t-25.5 50l-48 120q-30 -52 -59 -88t-55 -58.5t-49.5 -32.5t-43.5 -10q-8 0 -16.5 2.5
t-12.5 5.5q8 13 14 33t9 46l14 5q5 -5 14 -9.5t20 -4.5z" />
    <glyph glyph-name="y" unicode="y" horiz-adv-x="507" 
d="M150 -213q47 0 79.5 34.5t46.5 100.5l52 251h-4q-54 -100 -106 -142.5t-104 -42.5q-33 0 -50.5 14t-17.5 46q0 12 2 28.5t5 31.5l49 233q1 3 2 9.5t1 9.5q0 12 -10 12q-5 0 -13.5 -3.5t-17.5 -7t-16.5 -7t-11.5 -3.5q-5 0 -8 6t-4 13q17 10 40 23t45.5 23.5t40.5 18
t25 7.5q19 0 19 -20q0 -9 -2 -17l-58 -277q-6 -27 -6 -45q0 -28 30 -28q23 0 48 18t48 47t43.5 66.5t36 75.5t24.5 74.5t9 64.5q0 14 -3 28q40 3 82 14q6 -6 6 -12q0 -2 -1 -8.5t-2 -10.5l-90 -454q-11 -54 -36 -93.5t-57 -65.5t-68.5 -38.5t-69.5 -12.5q-71 0 -114 20
q8 23 12 40.5t7 42.5l17 6q14 -29 40.5 -49.5t59.5 -20.5z" />
    <glyph glyph-name="z" unicode="z" horiz-adv-x="383" 
d="M71 64q23 8 40 11t37 3q28 0 52 -6.5t54 -6.5q14 0 24.5 12t18.5 30q2 6 6.5 11.5t13.5 4.5l18 -2q-9 -29 -15.5 -58.5t-9.5 -52.5l-8 -8q-12 -5 -24 -7t-26 -2q-23 0 -45.5 4.5t-45 9.5t-45.5 9.5t-45 4.5q-17 0 -33.5 -4.5t-30.5 -15.5h-21q-6 8 -5 12t7 11l291 340
q-28 -14 -65 -14q-20 0 -34.5 3t-27 6l-25 6t-28.5 3t-29 -29q-2 -6 -6.5 -12.5t-15.5 -4.5l-16 2q16 56 22 99l6 6q19 6 40 6t42 -4.5t42 -9.5t42 -9.5t42 -4.5q23 0 43 5t40 18h16q5 -6 5.5 -10.5t-6.5 -12.5z" />
    <glyph glyph-name="braceleft" unicode="{" horiz-adv-x="274" 
d="M109 258q32 -11 45 -30t13 -49q0 -28 -8 -65q-8 -35 -20.5 -79t-27.5 -96l-6 -20t-3 -19q0 -27 20.5 -38.5t49.5 -15.5q11 -1 11.5 -9t-2.5 -18q-29 0 -56 2.5t-48 11t-33.5 23.5t-12.5 40q0 11 2.5 23.5t6.5 23.5q18 57 32.5 105t20.5 83q2 11 3 20t1 17
q0 31 -17.5 49.5t-59.5 22.5l5 32q56 4 80.5 30.5t33.5 74.5q8 38 9 82.5t2 95.5q0 20 3 37q6 32 22.5 51.5t39 30.5t49.5 14.5t55 3.5q0 -3 -0.5 -7.5t-2.5 -7.5q-2 -6 -6.5 -9.5t-16.5 -5.5q-41 -5 -55.5 -29.5t-14.5 -61.5q0 -54 -1.5 -96.5t-7.5 -77.5q-9 -52 -32 -85
t-73 -52v-2z" />
    <glyph glyph-name="bar" unicode="|" horiz-adv-x="233" 
d="M156 699v-939h-62v939h62z" />
    <glyph glyph-name="braceright" unicode="}" horiz-adv-x="285" 
d="M150 253q-32 11 -45 30t-13 49q0 28 8 65q8 35 20.5 79t27.5 96l6 20t3 19q0 27 -20.5 38.5t-49.5 15.5q-11 1 -11.5 9t2.5 18q29 0 56 -2.5t48 -11t33.5 -23.5t12.5 -40q0 -11 -2.5 -23.5t-6.5 -23.5q-18 -57 -32.5 -105t-20.5 -83q-2 -11 -3 -20t-1 -17
q0 -31 17.5 -49.5t59.5 -22.5l-5 -32q-56 -5 -80.5 -31t-33.5 -74q-8 -38 -9 -82.5t-2 -95.5q0 -21 -3 -37q-6 -32 -22.5 -51.5t-39 -30.5t-49.5 -14.5t-55 -3.5q0 3 0.5 7.5t2.5 7.5q2 6 6.5 9.5t16.5 5.5q41 5 55.5 29.5t14.5 61.5q0 54 1.5 96.5t7.5 77.5q9 52 32 85
t73 52v2z" />
    <glyph glyph-name="asciitilde" unicode="~" horiz-adv-x="570" 
d="M397 223q20 0 43.5 14.5t53.5 51.5q17 -9 23.5 -17t6.5 -20q0 -11 -6 -17q-38 -43 -67 -56.5t-52 -13.5q-29 0 -63 10.5t-73 30.5q-29 14 -51 22t-40 8t-38.5 -12t-57.5 -53q-17 9 -23 17.5t-6 18.5q0 8 5 15q39 44 66.5 59t53.5 15q20 0 44 -6.5t56 -23.5
q43 -22 72.5 -32.5t52.5 -10.5z" />
    <glyph glyph-name="exclamdown" unicode="&#xa1;" horiz-adv-x="251" 
d="M97 -220q-13 -6 -26.5 -9t-24.5 -3q-28 0 -40.5 14t-5.5 34q31 88 63.5 203t55.5 243q24 4 29 -2t4 -14zM99 374q0 29 16.5 48.5t42.5 19.5t40.5 -16.5t14.5 -41.5q0 -30 -17 -49t-41 -19q-29 0 -42.5 16t-13.5 42z" />
    <glyph glyph-name="cent" unicode="&#xa2;" horiz-adv-x="430" 
d="M166 3q-34 3 -57 18t-37 37.5t-20 50t-6 56.5q0 55 15.5 105.5t43 89.5t65 64.5t82.5 30.5l14 72q24 -6 31.5 -13t4.5 -23l-7 -35q48 -3 102 -27q-4 -15 -8.5 -42t-6.5 -48l-15 1q-13 1 -18 15q-8 29 -24 43.5t-38 18.5l-69 -363h5q29 0 57.5 11.5t54.5 28.5q2 2 5 3.5
t5 1.5q8 0 10.5 -7.5t2.5 -12.5q-26 -23 -65 -45t-84 -29l-15 -77q-23 6 -30.5 13.5t-4.5 22.5zM129 174q0 -37 10 -67t39 -44l66 353q-54 -13 -84.5 -76t-30.5 -166z" />
    <glyph glyph-name="sterling" unicode="&#xa3;" horiz-adv-x="506" 
d="M40 316q2 25 9.5 34t24.5 9h57q0 59 15.5 109.5t44 87.5t68.5 58t88 21q26 0 55 -7.5t53 -21.5q12 -7 19.5 -14.5t7.5 -15.5q0 -7 -6.5 -13.5t-15.5 -12.5t-18.5 -10t-15.5 -6t-10 -2q-7 0 -13 8q-21 27 -42 40.5t-46 13.5q-20 0 -36.5 -9t-28.5 -31t-19 -58.5t-7 -91.5
v-45h159q-3 -24 -10 -33.5t-24 -9.5h-125q0 -64 -31 -118.5t-102 -105.5q8 2 15.5 3t14.5 1q25 0 46.5 -9t44.5 -21q21 -11 43.5 -21.5t46.5 -10.5q29 0 43 13.5t14 30.5q0 11 -4 24.5t-4 23.5q0 7 7.5 15.5t18 15t21.5 11t18 4.5q13 0 19.5 -10.5t6.5 -26.5
q0 -27 -17.5 -55t-45.5 -51.5t-63.5 -38.5t-72.5 -15q-33 0 -55.5 12.5t-40.5 28t-34.5 28t-37.5 12.5q-25 0 -54 -56q-18 0 -23.5 6t-5.5 14q0 10 7 21.5t17.5 24t23.5 26t25 28.5q17 21 29.5 38.5t20.5 37.5t12 44t4 57v19h-91z" />
    <glyph glyph-name="currency" unicode="&#xa4;" horiz-adv-x="581" 
d="M105 340q0 32 11 61t29 52l-55 56q22 28 33 28q5 0 11 -6l45 -45q23 18 51 28t59 10t58.5 -10t50.5 -27l58 57q14 -11 20 -19.5t6 -13.5t-5 -10l-45 -46q20 -23 30.5 -53t10.5 -62t-10.5 -60.5t-28.5 -52.5l57 -55q-22 -29 -34 -29q-5 0 -10 5l-46 46
q-23 -17 -51.5 -27.5t-60.5 -10.5t-61 10.5t-53 28.5l-57 -58q-16 11 -22 19.5t-6 15.5q0 6 4 10l48 48q-17 23 -27 51t-10 59zM275 480q-18 0 -37.5 -8t-35 -23.5t-25.5 -39.5t-10 -56q0 -31 9.5 -59t26.5 -49t40.5 -33.5t50.5 -12.5q52 0 85 34t33 93q0 31 -8 59t-25 49
t-43 33.5t-61 12.5z" />
    <glyph glyph-name="yen" unicode="&#xa5;" horiz-adv-x="575" 
d="M325 275l-12 -62h154q-2 -25 -9 -34.5t-24 -9.5h-130l-13 -71q-4 -21 -3 -33.5t7.5 -20t19 -11.5t33.5 -8q10 -2 11.5 -6.5t1.5 -7.5v-5.5t-2 -11.5q-31 3 -68.5 4.5t-62.5 1.5q-11 0 -25.5 -0.5t-31 -1t-33 -2t-29.5 -2.5q-1 5 -1.5 8t-0.5 8q0 4 3.5 9t11.5 6
q23 4 37.5 9t22.5 12t12 16t6 20l16 87h-144q1 17 5 26t9.5 13t12 4.5t11.5 0.5h114l12 62h-143q1 16 5 25t9.5 13t11 4.5t10.5 0.5h107l-92 217q-10 29 -21 43t-41 19q-10 1 -11.5 5.5t-1.5 8.5q0 6 4 18q38 -3 62.5 -4.5t43.5 -1.5q22 0 54 1.5t59 3.5q2 -8 2 -11.5v-5.5
q0 -4 -1.5 -8t-9.5 -6q-7 -2 -17.5 -3t-19.5 -5.5t-12.5 -14.5t2.5 -29l78 -189l132 180q18 25 16 40.5t-37 20.5q-9 2 -11 6.5t-2 9.5v5t2 10q10 -1 24.5 -2t29.5 -1.5t28.5 -1t21.5 -0.5q38 0 86 6q2 -8 2 -11.5v-5.5q0 -5 -3 -9t-8 -5q-29 -5 -50 -18.5t-46 -47.5
l-162 -214h151q-2 -24 -9 -33.5t-24 -9.5h-130z" />
    <glyph glyph-name="brokenbar" unicode="&#xa6;" horiz-adv-x="231" 
d="M154 369q0 -16 -10.5 -24.5t-49.5 -12.5v317q0 16 11 24t49 13v-317zM154 -145q0 -16 -10.5 -24.5t-49.5 -12.5v317q0 16 11 24t49 13v-317z" />
    <glyph glyph-name="section" unicode="&#xa7;" horiz-adv-x="466" 
d="M165 560q-17 -20 -31.5 -52t-14.5 -72q0 -41 12.5 -79t30.5 -74.5t39 -73t38.5 -73.5t27.5 -76t7 -81q20 25 32 55t12 61q0 63 -25 124t-54.5 119.5t-53 114t-20.5 107.5zM367 678q20 0 26 -17q2 -6 3.5 -15.5t1.5 -17.5q0 -10 -4 -19t-18 -9q-6 0 -11 2.5l-9 4.5
q-16 9 -34.5 16t-47.5 7q-22 0 -42.5 -14.5t-20.5 -43.5q0 -24 12 -55.5t30 -68.5t38.5 -78t38.5 -83t30 -83t12 -79q0 -51 -19.5 -99.5t-58 -86.5t-95.5 -61.5t-133 -23.5q-23 0 -28 15t-5 32q0 11 4 21t16 10q5 0 9 -2t9 -4q18 -10 38.5 -17.5t49.5 -7.5q11 0 23.5 4.5
t23 12.5t17.5 20t7 27q0 26 -7 51.5t-18.5 50.5t-25.5 50.5t-29 51.5q-16 28 -31 57.5t-26.5 60t-18.5 63.5t-7 68q0 52 21.5 99t60.5 83t94.5 57t123.5 21z" />
    <glyph glyph-name="dieresis" unicode="&#xa8;" horiz-adv-x="500" 
d="M126 568q0 25 15 40t33 15q21 0 32.5 -13t11.5 -34q0 -25 -14.5 -40t-33.5 -15q-20 0 -32 13t-12 34zM282 568q0 25 15 40t33 15q21 0 32.5 -13t11.5 -34q0 -25 -14.5 -40t-33.5 -15q-20 0 -32 13t-12 34z" />
    <glyph glyph-name="copyright" unicode="&#xa9;" horiz-adv-x="702" 
d="M353 150q-47 0 -82.5 14t-58.5 38.5t-34.5 58t-11.5 72.5q0 31 11.5 63.5t34.5 59t58.5 43t82.5 16.5q35 0 59.5 -3.5t52.5 -10.5q0 -15 3.5 -37t9.5 -44q-9 -4 -13 -4q-12 0 -15 9q-11 34 -34.5 46.5t-52.5 12.5q-59 0 -91 -37t-32 -106q0 -36 9.5 -65.5t27 -50
t40.5 -32t50 -11.5q38 0 58.5 13.5t33.5 45.5q4 10 14 10q7 0 17 -4q-7 -21 -14 -43.5t-12 -43.5q-26 -5 -52.5 -7.5t-58.5 -2.5zM351 53q55 0 104 21.5t85.5 59t57.5 88t21 107.5q0 58 -22 109t-59 88.5t-86.5 59.5t-104.5 22q-56 0 -104.5 -21.5t-84.5 -59t-57 -87
t-21 -106.5q0 -55 20.5 -106t56.5 -90t85.5 -62t108.5 -23zM37 331q0 65 24.5 122t66.5 99t99 66.5t122 24.5q64 0 121 -24.5t99.5 -66.5t67 -99t24.5 -122t-24.5 -122t-67 -99.5t-99.5 -67t-121 -24.5q-65 0 -122 24.5t-99 67t-66.5 99.5t-24.5 122z" />
    <glyph glyph-name="ordfeminine" unicode="&#xaa;" horiz-adv-x="351" 
d="M245 369h-3q-35 -63 -72.5 -89.5t-68.5 -26.5q-25 0 -44.5 14.5t-19.5 56.5q0 57 20 101.5t50.5 74.5t66 46t66.5 16q24 0 47 -2.5t53 -9.5l-45 -231q-2 -8 -2 -11q0 -6 8 -6q10 0 22.5 7.5t17.5 7.5q10 0 12 -16q-12 -8 -26.5 -16t-29.5 -15.5t-29 -12t-24 -4.5
q-11 0 -18 4t-7 16q0 7 3 18zM264 528q-17 5 -32 5q-27 0 -49 -14.5t-37.5 -40t-24 -59.5t-8.5 -74q0 -47 22 -47q20 0 43 25t42.5 60.5t32 75t11.5 69.5z" />
    <glyph glyph-name="guillemotleft" unicode="&#xab;" horiz-adv-x="415" 
d="M105 225q5 -22 10 -39.5t11 -35t13.5 -37.5t19.5 -47q-8 -11 -18.5 -15.5t-18.5 6.5l-114 163q0 5 2 9.5t10 11.5l173 147q6 6 13 6q8 0 13 -6t10 -14q-38 -41 -66.5 -75t-57.5 -74zM271 225q5 -22 10 -39.5t11 -35t13.5 -37.5t19.5 -47q-8 -11 -18.5 -15.5t-18.5 6.5
l-114 163q0 5 2 9.5t10 11.5l173 147q6 6 13 6q8 0 13 -6t10 -14q-38 -41 -66.5 -75t-57.5 -74z" />
    <glyph glyph-name="logicalnot" unicode="&#xac;" horiz-adv-x="494" 
d="M445 350v-243q-35 3 -45 11.5t-10 23.5v155h-380q4 32 13 42.5t28 10.5h394z" />
    <glyph glyph-name="uni00AD" unicode="&#xad;" horiz-adv-x="309" 
d="M263 265q-4 -32 -13 -42t-27 -10h-198q4 32 12.5 42t27.5 10h198z" />
    <glyph glyph-name="registered" unicode="&#xae;" horiz-adv-x="428" 
d="M59 479q0 38 13 71.5t37 58.5t58 39.5t76 14.5q43 0 77.5 -14.5t58.5 -39.5t36.5 -58.5t12.5 -71.5t-13.5 -72t-37.5 -59t-58 -39.5t-76 -14.5t-76 14.5t-58 39.5t-37 59t-13 72zM244 324q35 0 63 12t47.5 32.5t30 48.5t10.5 60q0 33 -11 61.5t-31.5 49.5t-48.5 33
t-62 12q-35 0 -62.5 -12t-47 -32.5t-30 -48.5t-10.5 -60q0 -31 9.5 -59t28.5 -49.5t47.5 -34.5t66.5 -13zM352 388q-2 -4 -7.5 -11t-8.5 -10h-8q-12 0 -21 6t-16 16l-53 78h-16v-68q0 -4 3.5 -7.5t16.5 -5.5q6 -2 6 -6t-2 -10q-9 1 -21.5 1h-23.5h-20.5t-22.5 -1q-1 2 -1 5
v5q0 5 5 6q20 3 20 13v166q0 5 -4 7.5t-15 3.5q-7 0 -7 6q0 4 2 10q10 -1 23.5 -1.5t23.5 -0.5h38q36 0 61.5 -13.5t25.5 -45.5q0 -20 -15.5 -36t-35.5 -21l44 -65q6 -9 14.5 -14t14.5 -7zM234 488q51 0 51 40q0 20 -11.5 30.5t-40.5 10.5h-11v-81h12z" />
    <glyph glyph-name="macron" unicode="&#xaf;" horiz-adv-x="500" 
d="M123 543q4 31 13 43t27 12h211q-4 -31 -13 -43t-26 -12h-212z" />
    <glyph glyph-name="degree" unicode="&#xb0;" horiz-adv-x="360" 
d="M50 522q0 30 11 53.5t29.5 40t43.5 25.5t53 9q25 0 49 -8.5t42.5 -25t30 -40.5t11.5 -54q0 -31 -11.5 -55t-30 -41t-43 -26t-49.5 -9q-27 0 -51.5 9t-43 25.5t-30 41t-11.5 55.5zM177 608q-23 0 -44 -20t-21 -58q0 -19 5.5 -36.5t15.5 -31t24 -21.5t30 -8q32 0 51.5 21.5
t19.5 56.5q0 39 -20 68t-61 29z" />
    <glyph glyph-name="plusminus" unicode="&#xb1;" horiz-adv-x="494" 
d="M39 0q4 32 13 42.5t28 10.5h393q-4 -32 -13 -42.5t-28 -10.5h-393zM39 301q4 32 12.5 43t27.5 11h146v148q0 15 10 23.5t45 12.5v-184h193q-4 -32 -13 -43t-28 -11h-152v-161q0 -17 -10 -24.5t-45 -11.5v197h-186z" />
    <glyph glyph-name="twosuperior" unicode="&#xb2;" horiz-adv-x="339" 
d="M329 459q-4 -7 -8 -18.5t-8 -24t-7.5 -24.5t-5.5 -21q-2 -8 -11 -8q-12 0 -27.5 1.5t-38.5 1.5h-164l2 27q68 57 111 97t67.5 69t33.5 49t9 37q0 28 -15.5 38t-34.5 10q-17 0 -39 -6t-48 -23q-5 -3 -10 -3q-10 0 -17 12q29 32 67.5 50t73.5 18q47 0 73 -22.5t26 -63.5
q0 -24 -11.5 -47.5t-36.5 -49.5t-65 -58t-96 -74h106q14 0 23.5 8t17.5 19q7 10 16 10q3 0 7.5 -1t9.5 -3z" />
    <glyph glyph-name="threesuperior" unicode="&#xb3;" horiz-adv-x="339" 
d="M141 565q65 25 91 47.5t26 51.5q0 37 -40 37q-15 0 -33.5 -5t-43.5 -22q-14 -8 -25 9q32 30 63 44t64 14q44 0 65 -19t21 -44q0 -27 -16 -47t-57 -41v-3q39 -8 56 -30.5t17 -54.5q0 -31 -17 -57t-43 -45t-59 -29.5t-64 -10.5q-22 0 -45.5 6.5t-37.5 20.5q-3 3 -3 7
q0 6 8 16t20 21q7 5 11 5q8 0 16 -7q14 -12 27.5 -20.5t26.5 -8.5q15 0 30.5 5.5t27.5 16t20 27t8 39.5q0 28 -14 46t-43 18q-10 0 -25 -3t-32 -11v27z" />
    <glyph glyph-name="acute" unicode="&#xb4;" horiz-adv-x="500" 
d="M282 663q26 -5 42.5 -17.5t16.5 -26.5q0 -16 -21 -29q-20 -12 -36.5 -23t-33 -22.5t-35 -25.5t-40.5 -32q-7 5 -11 9t-4 11q0 6 5 12z" />
    <glyph glyph-name="mu" unicode="&#xb5;" horiz-adv-x="461" 
d="M347 171q-5 -21 -10.5 -43.5t-8 -42t0 -32t13.5 -12.5q17 0 29.5 7.5t20.5 7.5q6 0 9 -6.5t3 -12.5q-8 -7 -22 -15.5t-28.5 -16t-27.5 -13t-20 -5.5q-29 0 -36.5 28.5t-4.5 79.5q-3 -3 -20 -20.5t-41 -37t-52.5 -35t-56.5 -15.5q-4 0 -9 1.5t-8 6.5q-6 -29 -10 -58.5
t-7 -57t-4.5 -51.5t-1.5 -41q0 -9 0.5 -14.5t1.5 -12.5q-39 -5 -79 -15q-8 4 -8 12q0 4 1 9.5t2 9.5l66 343q21 109 34.5 175t13.5 83q0 33 -6 44l7 7q18 2 38 6t42 10q7 -10 6 -29q0 -8 -6 -33.5t-14.5 -60.5t-18.5 -74.5t-19 -75.5q-14 -52 -11 -85t38 -33q21 0 42.5 8.5
t41 25t34 41t21.5 56.5q6 29 12.5 60t11.5 58t8.5 47.5t3.5 27.5q0 33 -6 44l7 7q18 2 38 6t42 10q7 -10 6 -29q0 -8 -6 -33.5t-14.5 -60.5t-18.5 -74.5t-19 -75.5z" />
    <glyph glyph-name="paragraph" unicode="&#xb6;" horiz-adv-x="415" 
d="M326 602q17 0 36.5 1t35.5 3l36 4v-7t-1 -9q-2 -12 -16 -15q-26 -4 -36.5 -11t-13.5 -23l-92 -508q-12 -65 -33 -106.5t-48 -65t-57.5 -32t-60.5 -8.5q-32 0 -41 5.5t-9 20.5q0 13 5 28t21 15q8 0 15 -4q16 -11 28.5 -17t29.5 -6q12 0 26 7.5t26.5 23.5t23.5 41t17 61
l31 187q-19 -4 -41 -4q-31 1 -57.5 11t-46 29t-30.5 48t-11 67q0 58 18 106.5t51.5 83.5t82.5 54.5t111 19.5z" />
    <glyph glyph-name="periodcentered" unicode="&#xb7;" horiz-adv-x="190" 
d="M26 230q0 29 16.5 48.5t42.5 19.5t40.5 -16.5t14.5 -41.5q0 -30 -17 -49t-41 -19q-29 0 -42.5 16t-13.5 42z" />
    <glyph glyph-name="cedilla" unicode="&#xb8;" horiz-adv-x="500" 
d="M313 2q-23 -27 -28.5 -37.5t-5.5 -20.5q0 -9 6 -18t12.5 -18.5t12.5 -19t6 -19.5q0 -15 -6.5 -28t-21 -26t-38.5 -26t-59 -28q-9 13 -7.5 20t12.5 13q31 17 41 29.5t10 26.5q0 9 -5 17.5t-11.5 16.5t-11.5 16t-5 17q0 6 2 12t8.5 15.5t19 23t32.5 34.5h37z" />
    <glyph glyph-name="onesuperior" unicode="&#xb9;" horiz-adv-x="339" 
d="M285 362q-20 2 -51.5 3t-51.5 1q-6 0 -17 -0.5t-23 -1l-24 -1t-20 -1.5q-1 8 -1 10v4q0 10 5.5 11.5t8.5 2.5q32 6 40 16t10 21l43 225q2 12 -1.5 19t-10.5 10t-16 3.5t-18 0.5q-11 0 -11 11q0 2 1 7t3 9q17 1 36.5 4t36.5 8q20 5 35 11t26 6q13 0 11 -11t-7.5 -30
t-10.5 -44l-43 -231q-3 -18 5.5 -24t34.5 -11q11 -1 11 -13q0 -3 -0.5 -7t-0.5 -8z" />
    <glyph glyph-name="ordmasculine" unicode="&#xba;" horiz-adv-x="322" 
d="M211 562q29 0 50 -9.5t35 -25.5t20.5 -37.5t6.5 -46.5q0 -48 -17 -83.5t-43.5 -59.5t-59 -35.5t-64.5 -11.5q-56 0 -78.5 31.5t-22.5 82.5q0 45 16.5 81t42 61.5t56 39t58.5 13.5zM158 281q20 0 36.5 12t28 32.5t18 49t6.5 61.5q0 43 -9 69.5t-36 26.5q-22 0 -38.5 -14.5
t-28 -37t-17.5 -50.5t-6 -56q0 -45 10 -69t36 -24z" />
    <glyph glyph-name="guillemotright" unicode="&#xbb;" horiz-adv-x="418" 
d="M280 214q-5 22 -10 39.5t-11 35t-13.5 37.5t-19.5 47q8 11 18.5 15.5t18.5 -6.5l114 -163q0 -5 -2 -9.5t-10 -11.5l-173 -147q-6 -6 -13 -6q-8 0 -13 6t-10 14q19 21 35 39t31 36t29 36t29 38zM114 214q-5 22 -10 39.5t-11 35t-13.5 37.5t-19.5 47q8 11 18.5 15.5
t18.5 -6.5l114 -163q0 -5 -2 -9.5t-10 -11.5l-173 -147q-6 -6 -13 -6q-8 0 -13 6t-10 14q19 21 35 39t31 36t29 36t29 38z" />
    <glyph glyph-name="onequarter" unicode="&#xbc;" horiz-adv-x="802" 
d="M255 255q-20 2 -51.5 3t-51.5 1q-6 0 -17 -0.5t-23 -1l-24 -1t-20 -1.5q-1 8 -1 10v4q0 10 5.5 11.5t8.5 2.5q32 6 40 16t10 21l43 225q2 12 -1.5 19t-10.5 10t-16 3.5t-18 0.5q-11 0 -11 11q0 2 1 7t3 9q17 1 36.5 4t36.5 8q20 5 35 11t26 6q13 0 11 -11t-7.5 -30
t-10.5 -44l-43 -231q-3 -18 5.5 -24t34.5 -11q11 -1 11 -13q0 -3 -0.5 -7t-0.5 -8zM188 -1q-10 -14 -25 -11.5t-32 13.5l492 643q11 14 23.5 11t31.5 -16zM624 294l-151 -162h118zM647 51q-3 -17 5 -19.5t36 -7.5q11 -1 11 -12v-4.5t-2 -10.5q-20 2 -49.5 3t-49.5 1
q-6 0 -17 -0.5t-23 -1l-24 -1t-20 -1.5q-1 8 -1 10v4q0 8 5.5 10.5t8.5 3.5q16 2 25.5 5t14.5 6t6.5 7.5t2.5 9.5l7 33h-156q-4 16 -4 27q0 12 8 20l213 225q4 5 8 7t14 2h42l-44 -235h47l-8 -46h-49z" />
    <glyph glyph-name="onehalf" unicode="&#xbd;" horiz-adv-x="802" 
d="M245 255q-20 2 -51.5 3t-51.5 1q-6 0 -17 -0.5t-23 -1l-24 -1t-20 -1.5q-1 8 -1 10v4q0 10 5.5 11.5t8.5 2.5q32 6 40 16t10 21l43 225q2 12 -1.5 19t-10.5 10t-16 3.5t-18 0.5q-11 0 -11 11q0 2 1 7t3 9q17 1 36.5 4t36.5 8q20 5 35 11t26 6q13 0 11 -11t-7.5 -30
t-10.5 -44l-43 -231q-3 -18 5.5 -24t34.5 -11q11 -1 11 -13q0 -3 -0.5 -7t-0.5 -8zM163 -1q-10 -14 -25 -11.5t-32 13.5l492 643q11 14 23.5 11t31.5 -16zM685 93q-4 -7 -8 -18.5t-8 -24t-7.5 -24.5t-5.5 -21q-2 -8 -11 -8q-12 0 -27.5 1.5t-38.5 1.5h-164l2 27
q68 57 111 97t67.5 69t33.5 49t9 37q0 28 -15.5 38t-34.5 10q-17 0 -39 -6t-48 -23q-5 -3 -10 -3q-10 0 -17 12q29 32 67.5 50t73.5 18q47 0 73 -22.5t26 -63.5q0 -24 -11.5 -47.5t-36.5 -49.5t-65 -58t-96 -74h106q14 0 23.5 8t17.5 19q7 10 16 10q3 0 7.5 -1t9.5 -3z" />
    <glyph glyph-name="threequarters" unicode="&#xbe;" horiz-adv-x="802" 
d="M111 458q65 25 91 47.5t26 51.5q0 37 -40 37q-15 0 -33.5 -5t-43.5 -22q-14 -8 -25 9q32 30 63 44t64 14q44 0 65 -19t21 -44q0 -27 -16 -47t-57 -41v-3q39 -8 56 -30.5t17 -54.5q0 -31 -17 -57t-43 -45t-59 -29.5t-64 -10.5q-22 0 -45.5 6.5t-37.5 20.5q-3 3 -3 7
q0 6 8 16t20 21q7 5 11 5q8 0 16 -7q14 -12 27.5 -20.5t26.5 -8.5q15 0 30.5 5.5t27.5 16t20 27t8 39.5q0 28 -14 46t-43 18q-10 0 -25 -3t-32 -11v27zM187 -1q-10 -14 -25 -11.5t-32 13.5l492 643q11 14 23.5 11t31.5 -16zM616 294l-151 -162h118zM639 51q-3 -17 5 -19.5
t36 -7.5q11 -1 11 -12v-4.5t-2 -10.5q-20 2 -49.5 3t-49.5 1q-6 0 -17 -0.5t-23 -1l-24 -1t-20 -1.5q-1 8 -1 10v4q0 8 5.5 10.5t8.5 3.5q16 2 25.5 5t14.5 6t6.5 7.5t2.5 9.5l7 33h-156q-4 16 -4 27q0 12 8 20l213 225q4 5 8 7t14 2h42l-44 -235h47l-8 -46h-49z" />
    <glyph glyph-name="questiondown" unicode="&#xbf;" horiz-adv-x="325" 
d="M171 256q22 -26 36 -45.5t22 -35t11 -27.5t3 -23q0 -44 -33.5 -75.5t-85.5 -64.5q-20 -13 -39.5 -25.5t-35 -25.5t-25 -27t-9.5 -30q0 -28 20.5 -40t44.5 -12q17 0 36.5 9t42.5 31q9 8 14 11t12 3q8 0 17 -5t16 -11.5t11.5 -14t4.5 -13.5t-4 -11t-10 -10
q-11 -9 -25.5 -17.5t-30.5 -15t-32 -10.5t-31 -4q-36 0 -62 12.5t-43.5 33t-26 45.5t-8.5 49q0 21 9 39t24.5 34t36 30.5t43.5 29.5q19 12 37.5 24t33 24.5t23.5 26t9 28.5q0 19 -5 36t-18 49q-3 8 -1 15.5t18 12.5zM254 383q0 -29 -16.5 -48.5t-42.5 -19.5t-40.5 16.5
t-14.5 41.5q0 30 17 49t41 19q29 0 42.5 -16t13.5 -42z" />
    <glyph glyph-name="Agrave" unicode="&#xc0;" 
d="M345 276l-39 233l-126 -233h165zM71 74q-7 -14 -7 -23q0 -12 13.5 -17.5t41.5 -9.5q18 -3 18 -15q0 -5 -2 -15q-30 3 -55.5 4.5t-53.5 1.5q-20 0 -41.5 -1t-47.5 -5l-2 8t-1 7q0 13 17 16q52 9 67 38l320 589q6 10 15 10q3 0 6 -1t5 -2l107 -593q3 -18 18 -27t39 -13
q13 -2 17 -6t4 -10q0 -5 -2 -15q-28 2 -53.5 3.5t-52.5 1.5q-59 0 -117 -6q-3 7 -3 15q0 13 19 16q13 2 28 9t15 22v6t-1 9l-30 167h-192zM410 744q6 -5 7.5 -8.5t1.5 -6.5q0 -5 -3.5 -10t-8.5 -9q-25 12 -44 21t-36.5 15.5t-35.5 12.5t-40 14q-10 3 -18.5 9t-8.5 18
q0 13 12 27t37 25z" />
    <glyph glyph-name="Aacute" unicode="&#xc1;" 
d="M345 276l-39 233l-126 -233h165zM71 74q-7 -14 -7 -23q0 -12 13.5 -17.5t41.5 -9.5q18 -3 18 -15q0 -5 -2 -15q-30 3 -55.5 4.5t-53.5 1.5q-20 0 -41.5 -1t-47.5 -5l-2 8t-1 7q0 13 17 16q52 9 67 38l320 589q6 10 15 10q3 0 6 -1t5 -2l107 -593q3 -18 18 -27t39 -13
q13 -2 17 -6t4 -10q0 -5 -2 -15q-28 2 -53.5 3.5t-52.5 1.5q-59 0 -117 -6q-3 7 -3 15q0 13 19 16q13 2 28 9t15 22v6t-1 9l-30 167h-192zM453 855q49 -22 49 -50q0 -12 -8.5 -18t-18.5 -9q-23 -8 -41.5 -14.5t-36.5 -14.5t-37.5 -17.5t-44.5 -21.5q-11 9 -11 17
q0 3 1.5 6.5t7.5 8.5z" />
    <glyph glyph-name="Acircumflex" unicode="&#xc2;" 
d="M345 276l-39 233l-126 -233h165zM71 74q-7 -14 -7 -23q0 -12 13.5 -17.5t41.5 -9.5q18 -3 18 -15q0 -5 -2 -15q-30 3 -55.5 4.5t-53.5 1.5q-20 0 -41.5 -1t-47.5 -5l-2 8t-1 7q0 13 17 16q52 9 67 38l320 589q6 10 15 10q3 0 6 -1t5 -2l107 -593q3 -18 18 -27t39 -13
q13 -2 17 -6t4 -10q0 -5 -2 -15q-28 2 -53.5 3.5t-52.5 1.5q-59 0 -117 -6q-3 7 -3 15q0 13 19 16q13 2 28 9t15 22v6t-1 9l-30 167h-192zM488 747q5 -6 5 -13q0 -14 -23 -24q-23 19 -45.5 35.5t-51.5 31.5q-32 -15 -61 -31t-65 -36q-17 8 -17 19q0 8 8 15l128 112
q26 0 37 -4.5t22 -20.5z" />
    <glyph glyph-name="Atilde" unicode="&#xc3;" 
d="M345 276l-39 233l-126 -233h165zM71 74q-7 -14 -7 -23q0 -12 13.5 -17.5t41.5 -9.5q18 -3 18 -15q0 -5 -2 -15q-30 3 -55.5 4.5t-53.5 1.5q-20 0 -41.5 -1t-47.5 -5l-2 8t-1 7q0 13 17 16q52 9 67 38l320 589q6 10 15 10q3 0 6 -1t5 -2l107 -593q3 -18 18 -27t39 -13
q13 -2 17 -6t4 -10q0 -5 -2 -15q-28 2 -53.5 3.5t-52.5 1.5q-59 0 -117 -6q-3 7 -3 15q0 13 19 16q13 2 28 9t15 22v6t-1 9l-30 167h-192zM253 736q37 37 59 50t42 13q10 0 20 -4t20 -9t19.5 -9t18.5 -4q11 0 26 6t38 23q6 -4 10.5 -8.5t4.5 -11.5t-5 -12
q-20 -21 -45.5 -40.5t-47.5 -19.5q-13 0 -24.5 4.5t-22 9.5t-20 9.5t-18.5 4.5q-12 0 -25 -5.5t-39 -25.5q-6 4 -11 9t-5 10t5 10z" />
    <glyph glyph-name="Adieresis" unicode="&#xc4;" 
d="M345 276l-39 233l-126 -233h165zM71 74q-7 -14 -7 -23q0 -12 13.5 -17.5t41.5 -9.5q18 -3 18 -15q0 -5 -2 -15q-30 3 -55.5 4.5t-53.5 1.5q-20 0 -41.5 -1t-47.5 -5l-2 8t-1 7q0 13 17 16q52 9 67 38l320 589q6 10 15 10q3 0 6 -1t5 -2l107 -593q3 -18 18 -27t39 -13
q13 -2 17 -6t4 -10q0 -5 -2 -15q-28 2 -53.5 3.5t-52.5 1.5q-59 0 -117 -6q-3 7 -3 15q0 13 19 16q13 2 28 9t15 22v6t-1 9l-30 167h-192zM242 756q0 25 15 40t33 15q21 0 32.5 -13t11.5 -34q0 -25 -14.5 -40t-33.5 -15q-20 0 -32 13t-12 34zM398 756q0 25 15 40t33 15
q21 0 32.5 -13t11.5 -34q0 -25 -14.5 -40t-33.5 -15q-20 0 -32 13t-12 34z" />
    <glyph glyph-name="Aring" unicode="&#xc5;" 
d="M345 276l-39 233l-126 -233h165zM71 74q-7 -14 -7 -23q0 -12 13.5 -17.5t41.5 -9.5q18 -3 18 -15q0 -5 -2 -15q-30 3 -55.5 4.5t-53.5 1.5q-20 0 -41.5 -1t-47.5 -5l-2 8t-1 7q0 13 17 16q52 9 67 38l320 589q6 10 15 10q3 0 6 -1t5 -2l107 -593q3 -18 18 -27t39 -13
q13 -2 17 -6t4 -10q0 -5 -2 -15q-28 2 -53.5 3.5t-52.5 1.5q-59 0 -117 -6q-3 7 -3 15q0 13 19 16q13 2 28 9t15 22v6t-1 9l-30 167h-192zM283 784q0 20 8 37.5t20.5 30t29 19.5t33.5 7q41 0 58 -22t17 -55q0 -21 -8 -38.5t-21 -30t-29 -19.5t-31 -7q-42 0 -59.5 22
t-17.5 56zM360 740q18 0 29 18t11 48q0 20 -9 29t-20 9q-19 0 -29 -20t-10 -46q0 -20 9 -29t19 -9z" />
    <glyph glyph-name="AE" unicode="&#xc6;" horiz-adv-x="847" 
d="M-60 -5q-2 7 -2 10v5q0 8 7.5 11.5t18.5 6.5q24 7 39.5 20.5t34.5 42.5l322 479q10 16 11.5 26.5t-4.5 17t-18 10t-28 5.5q-12 1 -12 11v5t2 10q30 -2 56 -3.5t50 -1.5h302q32 0 54.5 3t34.5 3q15 0 16 -12q2 -17 4.5 -52t13.5 -80q-11 -7 -22 -7q-14 0 -17 12
q-13 51 -38.5 72.5t-76.5 21.5h-127l-52 -276h139q22 0 32.5 15t18.5 41q3 12 17 12q9 0 19 -4q-6 -24 -11 -43.5t-8.5 -39.5t-6 -42t-4.5 -51q-10 -2 -18 -2t-10.5 5t-2.5 13q0 10 -0.5 20.5t-3.5 18.5t-10 13t-20 5h-139l-43 -223q-6 -34 34 -34h112q43 0 79 21.5t72 77.5
q6 10 17 10q5 0 11 -3t11 -8q-5 -10 -10 -21q-9 -20 -19 -46q-7 -17 -11 -30.5t-7.5 -23.5t-8.5 -15.5t-14 -5.5q-17 0 -34.5 2.5t-46.5 2.5h-245q-22 0 -49.5 -1.5t-54.5 -4.5q-2 8 -2 11v5q0 13 14 15q25 2 42.5 12.5t21.5 31.5l43 227h-186l-126 -191
q-26 -39 -21.5 -55.5t55.5 -23.5q16 -1 16 -16q0 -5 -0.5 -7.5t-2.5 -7.5q-10 1 -26 2t-33 1.5t-32.5 1t-24.5 0.5q-20 0 -42 -1t-50 -4zM421 335l54 276q-33 6 -53 -24l-169 -252h168z" />
    <glyph glyph-name="Ccedilla" unicode="&#xc7;" horiz-adv-x="613" 
d="M318 -56q0 -9 6 -18t12.5 -18.5t12.5 -19t6 -19.5q0 -15 -6.5 -28t-21 -26t-38.5 -26t-59 -28q-9 13 -7.5 20t12.5 13q31 17 41 29.5t10 26.5q0 9 -5 17.5t-11.5 16.5t-11.5 16t-5 17q0 6 1.5 11.5t7 13.5t15 19t25.5 28q-72 3 -123 25.5t-83 58.5t-47 83t-15 100
q0 73 24 145.5t72 130.5t120.5 94t170.5 36q50 0 96.5 -8t89.5 -22q-3 -29 -3 -57q0 -20 1.5 -40t3.5 -40q-7 -5 -18 -5q-19 0 -20 15q-9 66 -49 92t-107 26q-66 0 -118 -28.5t-88.5 -77.5t-55.5 -114.5t-19 -138.5q0 -54 14.5 -97.5t40.5 -74t63.5 -47.5t84.5 -17
q68 0 107.5 28t68.5 90q7 16 24 16q6 0 12.5 -2.5t8.5 -4.5q-15 -32 -26.5 -67.5t-23.5 -79.5q-20 -4 -42 -7t-44.5 -6t-43.5 -4.5t-38 -2.5q-15 -18 -18.5 -26.5t-3.5 -17.5z" />
    <glyph glyph-name="Egrave" unicode="&#xc8;" horiz-adv-x="555" 
d="M183 582q4 20 -11 29t-39 12q-14 3 -14 17q0 3 0.5 7t1.5 9q30 -3 61 -4.5t58 -1.5h189q43 0 60 3t28 3q13 0 16 -12q2 -17 5 -51.5t12 -78.5q-4 -2 -10 -4.5t-11 -2.5q-13 0 -17 12q-13 51 -38 72t-75 21h-125l-50 -261h137q22 0 32 15t18 41q2 5 5.5 8t11.5 3
q9 0 19 -4q-6 -24 -10.5 -43.5t-8 -39.5t-6 -42t-4.5 -50q-9 -3 -18 -3t-12.5 5t-2.5 11q2 23 -4 42t-28 19h-136l-47 -248q-3 -16 4.5 -21.5t24.5 -5.5h115q43 0 77 22t71 76q4 5 7.5 7.5t9.5 2.5t12 -3t11 -8q-5 -10 -10 -21q-5 -9 -10 -21l-10 -24q-8 -20 -13 -39
t-10 -27t-16 -8q-17 0 -34 2.5t-46 2.5h-236q-21 0 -51.5 -1.5t-57.5 -4.5q-1 5 -1.5 9t-0.5 7q0 5 3 10t11 6q31 5 46 15t18 27zM417 744q6 -5 7.5 -8.5t1.5 -6.5q0 -5 -3.5 -10t-8.5 -9q-25 12 -44 21t-36.5 15.5t-35.5 12.5t-40 14q-10 3 -18.5 9t-8.5 18q0 13 12 27
t37 25z" />
    <glyph glyph-name="Eacute" unicode="&#xc9;" horiz-adv-x="555" 
d="M183 582q4 20 -11 29t-39 12q-14 3 -14 17q0 3 0.5 7t1.5 9q30 -3 61 -4.5t58 -1.5h189q43 0 60 3t28 3q13 0 16 -12q2 -17 5 -51.5t12 -78.5q-4 -2 -10 -4.5t-11 -2.5q-13 0 -17 12q-13 51 -38 72t-75 21h-125l-50 -261h137q22 0 32 15t18 41q2 5 5.5 8t11.5 3
q9 0 19 -4q-6 -24 -10.5 -43.5t-8 -39.5t-6 -42t-4.5 -50q-9 -3 -18 -3t-12.5 5t-2.5 11q2 23 -4 42t-28 19h-136l-47 -248q-3 -16 4.5 -21.5t24.5 -5.5h115q43 0 77 22t71 76q4 5 7.5 7.5t9.5 2.5t12 -3t11 -8q-5 -10 -10 -21q-5 -9 -10 -21l-10 -24q-8 -20 -13 -39
t-10 -27t-16 -8q-17 0 -34 2.5t-46 2.5h-236q-21 0 -51.5 -1.5t-57.5 -4.5q-1 5 -1.5 9t-0.5 7q0 5 3 10t11 6q31 5 46 15t18 27zM435 855q49 -22 49 -50q0 -12 -8.5 -18t-18.5 -9q-23 -8 -41.5 -14.5t-36.5 -14.5t-37.5 -17.5t-44.5 -21.5q-11 9 -11 17q0 3 1.5 6.5
t7.5 8.5z" />
    <glyph glyph-name="Ecircumflex" unicode="&#xca;" horiz-adv-x="555" 
d="M183 582q4 20 -11 29t-39 12q-14 3 -14 17q0 3 0.5 7t1.5 9q30 -3 61 -4.5t58 -1.5h189q43 0 60 3t28 3q13 0 16 -12q2 -17 5 -51.5t12 -78.5q-4 -2 -10 -4.5t-11 -2.5q-13 0 -17 12q-13 51 -38 72t-75 21h-125l-50 -261h137q22 0 32 15t18 41q2 5 5.5 8t11.5 3
q9 0 19 -4q-6 -24 -10.5 -43.5t-8 -39.5t-6 -42t-4.5 -50q-9 -3 -18 -3t-12.5 5t-2.5 11q2 23 -4 42t-28 19h-136l-47 -248q-3 -16 4.5 -21.5t24.5 -5.5h115q43 0 77 22t71 76q4 5 7.5 7.5t9.5 2.5t12 -3t11 -8q-5 -10 -10 -21q-5 -9 -10 -21l-10 -24q-8 -20 -13 -39
t-10 -27t-16 -8q-17 0 -34 2.5t-46 2.5h-236q-21 0 -51.5 -1.5t-57.5 -4.5q-1 5 -1.5 9t-0.5 7q0 5 3 10t11 6q31 5 46 15t18 27zM482 747q5 -6 5 -13q0 -14 -23 -24q-23 19 -45.5 35.5t-51.5 31.5q-32 -15 -61 -31t-65 -36q-17 8 -17 19q0 8 8 15l128 112q26 0 37 -4.5
t22 -20.5z" />
    <glyph glyph-name="Edieresis" unicode="&#xcb;" horiz-adv-x="555" 
d="M183 582q4 20 -11 29t-39 12q-14 3 -14 17q0 3 0.5 7t1.5 9q30 -3 61 -4.5t58 -1.5h189q43 0 60 3t28 3q13 0 16 -12q2 -17 5 -51.5t12 -78.5q-4 -2 -10 -4.5t-11 -2.5q-13 0 -17 12q-13 51 -38 72t-75 21h-125l-50 -261h137q22 0 32 15t18 41q2 5 5.5 8t11.5 3
q9 0 19 -4q-6 -24 -10.5 -43.5t-8 -39.5t-6 -42t-4.5 -50q-9 -3 -18 -3t-12.5 5t-2.5 11q2 23 -4 42t-28 19h-136l-47 -248q-3 -16 4.5 -21.5t24.5 -5.5h115q43 0 77 22t71 76q4 5 7.5 7.5t9.5 2.5t12 -3t11 -8q-5 -10 -10 -21q-5 -9 -10 -21l-10 -24q-8 -20 -13 -39
t-10 -27t-16 -8q-17 0 -34 2.5t-46 2.5h-236q-21 0 -51.5 -1.5t-57.5 -4.5q-1 5 -1.5 9t-0.5 7q0 5 3 10t11 6q31 5 46 15t18 27zM233 756q0 25 15 40t33 15q21 0 32.5 -13t11.5 -34q0 -25 -14.5 -40t-33.5 -15q-20 0 -32 13t-12 34zM389 756q0 25 15 40t33 15
q21 0 32.5 -13t11.5 -34q0 -25 -14.5 -40t-33.5 -15q-20 0 -32 13t-12 34z" />
    <glyph glyph-name="Igrave" unicode="&#xcc;" horiz-adv-x="348" 
d="M182 582q4 20 -6.5 29.5t-42.5 13.5q-14 3 -14 16q0 3 1 6.5t2 8.5q30 -3 59 -4.5t54 -1.5q21 0 51 1.5t57 4.5q2 -10 2 -15q0 -14 -14 -15q-32 -4 -45 -14t-17 -30l-99 -514q-4 -20 7 -29t45 -14q13 -3 13 -15q0 -6 -2 -16q-30 3 -61 4.5t-56 1.5q-21 0 -50.5 -1.5
t-56.5 -4.5q-2 10 -2 16q0 12 12 14q32 5 46 14.5t18 29.5zM316 744q6 -5 7.5 -8.5t1.5 -6.5q0 -5 -3.5 -10t-8.5 -9q-25 12 -44 21t-36.5 15.5t-35.5 12.5t-40 14q-10 3 -18.5 9t-8.5 18q0 13 12 27t37 25z" />
    <glyph glyph-name="Iacute" unicode="&#xcd;" horiz-adv-x="348" 
d="M182 582q4 20 -6.5 29.5t-42.5 13.5q-14 3 -14 16q0 3 1 6.5t2 8.5q30 -3 59 -4.5t54 -1.5q21 0 51 1.5t57 4.5q2 -10 2 -15q0 -14 -14 -15q-32 -4 -45 -14t-17 -30l-99 -514q-4 -20 7 -29t45 -14q13 -3 13 -15q0 -6 -2 -16q-30 3 -61 4.5t-56 1.5q-21 0 -50.5 -1.5
t-56.5 -4.5q-2 10 -2 16q0 12 12 14q32 5 46 14.5t18 29.5zM313 855q49 -22 49 -50q0 -12 -8.5 -18t-18.5 -9q-23 -8 -41.5 -14.5t-36.5 -14.5t-37.5 -17.5t-44.5 -21.5q-11 9 -11 17q0 3 1.5 6.5t7.5 8.5z" />
    <glyph glyph-name="Icircumflex" unicode="&#xce;" horiz-adv-x="348" 
d="M182 582q4 20 -6.5 29.5t-42.5 13.5q-14 3 -14 16q0 3 1 6.5t2 8.5q30 -3 59 -4.5t54 -1.5q21 0 51 1.5t57 4.5q2 -10 2 -15q0 -14 -14 -15q-32 -4 -45 -14t-17 -30l-99 -514q-4 -20 7 -29t45 -14q13 -3 13 -15q0 -6 -2 -16q-30 3 -61 4.5t-56 1.5q-21 0 -50.5 -1.5
t-56.5 -4.5q-2 10 -2 16q0 12 12 14q32 5 46 14.5t18 29.5zM374 747q5 -6 5 -13q0 -14 -23 -24q-23 19 -45.5 35.5t-51.5 31.5q-32 -15 -61 -31t-65 -36q-17 8 -17 19q0 8 8 15l128 112q26 0 37 -4.5t22 -20.5z" />
    <glyph glyph-name="Idieresis" unicode="&#xcf;" horiz-adv-x="348" 
d="M182 582q4 20 -6.5 29.5t-42.5 13.5q-14 3 -14 16q0 3 1 6.5t2 8.5q30 -3 59 -4.5t54 -1.5q21 0 51 1.5t57 4.5q2 -10 2 -15q0 -14 -14 -15q-32 -4 -45 -14t-17 -30l-99 -514q-4 -20 7 -29t45 -14q13 -3 13 -15q0 -6 -2 -16q-30 3 -61 4.5t-56 1.5q-21 0 -50.5 -1.5
t-56.5 -4.5q-2 10 -2 16q0 12 12 14q32 5 46 14.5t18 29.5zM127 756q0 25 15 40t33 15q21 0 32.5 -13t11.5 -34q0 -25 -14.5 -40t-33.5 -15q-20 0 -32 13t-12 34zM283 756q0 25 15 40t33 15q21 0 32.5 -13t11.5 -34q0 -25 -14.5 -40t-33.5 -15q-20 0 -32 13t-12 34z" />
    <glyph glyph-name="Eth" unicode="&#xd0;" horiz-adv-x="722" 
d="M183 582q4 21 -8.5 29t-44.5 13q-12 1 -12 15q0 3 0.5 7.5t1.5 9.5q30 -3 59 -4.5t55 -1.5h138q69 0 127 -17t100 -51t65.5 -85.5t23.5 -119.5q0 -84 -32.5 -153.5t-88.5 -119t-132 -77t-164 -27.5h-151q-21 0 -54 -1.5t-60 -4.5q-2 10 -2 16q0 12 12 15q30 6 47 14.5
t21 28.5l47 244h-70q4 29 12.5 37t27.5 8h38zM407 357q-3 -29 -12.5 -37t-27.5 -8h-150l-46 -241q-3 -19 4.5 -26t26.5 -7h48q67 0 128.5 18.5t108 58t74 102t27.5 149.5q0 66 -17.5 113t-51 76.5t-82.5 43t-112 13.5h-51l-49 -255h182z" />
    <glyph glyph-name="Ntilde" unicode="&#xd1;" horiz-adv-x="716" 
d="M530 -7q-5 -2 -9 -3.5t-10 -1.5q-12 0 -20 15l-274 543l-90 -476q-4 -20 13 -30.5t41 -13.5q13 -1 13 -16q0 -3 -0.5 -7t-1.5 -9q-30 3 -53.5 4.5t-43.5 1.5q-18 0 -38.5 -1.5t-46.5 -4.5q-1 5 -1.5 9t-0.5 7q0 5 3 9.5t10 5.5q26 4 42.5 14.5t20.5 28.5l100 518
q2 14 -7 24t-34 14q-7 1 -10 5.5t-3 9.5q0 6 3 17q26 -3 44 -4.5t41 -1.5q26 0 34.5 -2.5t13.5 -11.5l249 -501l86 444q3 20 -12 31t-40 14q-15 1 -15 16q0 3 0.5 7t1.5 9q30 -3 51 -4.5t41 -1.5q36 0 89 6q2 -10 2 -16q0 -5 -3 -9.5t-10 -5.5q-24 -4 -41.5 -14.5
t-21.5 -28.5zM322 736q37 37 59 50t42 13q10 0 20 -4t20 -9t19.5 -9t18.5 -4q11 0 26 6t38 23q6 -4 10.5 -8.5t4.5 -11.5t-5 -12q-20 -21 -45.5 -40.5t-47.5 -19.5q-13 0 -24.5 4.5t-22 9.5t-20 9.5t-18.5 4.5q-12 0 -25 -5.5t-39 -25.5q-6 4 -11 9t-5 10t5 10z" />
    <glyph glyph-name="Ograve" unicode="&#xd2;" horiz-adv-x="674" 
d="M388 662q61 0 107.5 -20.5t77.5 -56t47 -83.5t16 -104q0 -91 -28 -166.5t-77 -129.5t-115.5 -84t-143.5 -30q-59 0 -103.5 22t-74.5 59t-45 85.5t-15 101.5q0 81 26.5 154.5t73.5 129.5t112 89t142 33zM297 31q63 0 108.5 32t75 82.5t43.5 113.5t14 126q0 52 -10.5 95
t-30.5 74t-49 48t-67 17q-65 0 -112 -31.5t-77.5 -82.5t-45.5 -116.5t-15 -133.5q0 -107 39.5 -165.5t126.5 -58.5zM465 744q6 -5 7.5 -8.5t1.5 -6.5q0 -5 -3.5 -10t-8.5 -9q-25 12 -44 21t-36.5 15.5t-35.5 12.5t-40 14q-10 3 -18.5 9t-8.5 18q0 13 12 27t37 25z" />
    <glyph glyph-name="Oacute" unicode="&#xd3;" horiz-adv-x="674" 
d="M388 662q61 0 107.5 -20.5t77.5 -56t47 -83.5t16 -104q0 -91 -28 -166.5t-77 -129.5t-115.5 -84t-143.5 -30q-59 0 -103.5 22t-74.5 59t-45 85.5t-15 101.5q0 81 26.5 154.5t73.5 129.5t112 89t142 33zM297 31q63 0 108.5 32t75 82.5t43.5 113.5t14 126q0 52 -10.5 95
t-30.5 74t-49 48t-67 17q-65 0 -112 -31.5t-77.5 -82.5t-45.5 -116.5t-15 -133.5q0 -107 39.5 -165.5t126.5 -58.5zM462 855q49 -22 49 -50q0 -12 -8.5 -18t-18.5 -9q-23 -8 -41.5 -14.5t-36.5 -14.5t-37.5 -17.5t-44.5 -21.5q-11 9 -11 17q0 3 1.5 6.5t7.5 8.5z" />
    <glyph glyph-name="Ocircumflex" unicode="&#xd4;" horiz-adv-x="674" 
d="M388 662q61 0 107.5 -20.5t77.5 -56t47 -83.5t16 -104q0 -91 -28 -166.5t-77 -129.5t-115.5 -84t-143.5 -30q-59 0 -103.5 22t-74.5 59t-45 85.5t-15 101.5q0 81 26.5 154.5t73.5 129.5t112 89t142 33zM297 31q63 0 108.5 32t75 82.5t43.5 113.5t14 126q0 52 -10.5 95
t-30.5 74t-49 48t-67 17q-65 0 -112 -31.5t-77.5 -82.5t-45.5 -116.5t-15 -133.5q0 -107 39.5 -165.5t126.5 -58.5zM524 747q5 -6 5 -13q0 -14 -23 -24q-23 19 -45.5 35.5t-51.5 31.5q-32 -15 -61 -31t-65 -36q-17 8 -17 19q0 8 8 15l128 112q26 0 37 -4.5t22 -20.5z" />
    <glyph glyph-name="Otilde" unicode="&#xd5;" horiz-adv-x="674" 
d="M388 662q61 0 107.5 -20.5t77.5 -56t47 -83.5t16 -104q0 -91 -28 -166.5t-77 -129.5t-115.5 -84t-143.5 -30q-59 0 -103.5 22t-74.5 59t-45 85.5t-15 101.5q0 81 26.5 154.5t73.5 129.5t112 89t142 33zM297 31q63 0 108.5 32t75 82.5t43.5 113.5t14 126q0 52 -10.5 95
t-30.5 74t-49 48t-67 17q-65 0 -112 -31.5t-77.5 -82.5t-45.5 -116.5t-15 -133.5q0 -107 39.5 -165.5t126.5 -58.5zM277 736q37 37 59 50t42 13q10 0 20 -4t20 -9t19.5 -9t18.5 -4q11 0 26 6t38 23q6 -4 10.5 -8.5t4.5 -11.5t-5 -12q-20 -21 -45.5 -40.5t-47.5 -19.5
q-13 0 -24.5 4.5t-22 9.5t-20 9.5t-18.5 4.5q-12 0 -25 -5.5t-39 -25.5q-6 4 -11 9t-5 10t5 10z" />
    <glyph glyph-name="Odieresis" unicode="&#xd6;" horiz-adv-x="674" 
d="M388 662q61 0 107.5 -20.5t77.5 -56t47 -83.5t16 -104q0 -91 -28 -166.5t-77 -129.5t-115.5 -84t-143.5 -30q-59 0 -103.5 22t-74.5 59t-45 85.5t-15 101.5q0 81 26.5 154.5t73.5 129.5t112 89t142 33zM297 31q63 0 108.5 32t75 82.5t43.5 113.5t14 126q0 52 -10.5 95
t-30.5 74t-49 48t-67 17q-65 0 -112 -31.5t-77.5 -82.5t-45.5 -116.5t-15 -133.5q0 -107 39.5 -165.5t126.5 -58.5zM281 756q0 25 15 40t33 15q21 0 32.5 -13t11.5 -34q0 -25 -14.5 -40t-33.5 -15q-20 0 -32 13t-12 34zM437 756q0 25 15 40t33 15q21 0 32.5 -13t11.5 -34
q0 -25 -14.5 -40t-33.5 -15q-20 0 -32 13t-12 34z" />
    <glyph glyph-name="multiply" unicode="&#xd7;" horiz-adv-x="494" 
d="M230 261l161 161q22 -29 23 -42.5t-9 -23.5l-136 -135l143 -142q11 -11 10 -23.5t-23 -40.5l-169 167l-167 -167q-21 28 -22.5 41t9.5 24l141 142l-133 133q-11 11 -10 24t24 41z" />
    <glyph glyph-name="Oslash" unicode="&#xd8;" horiz-adv-x="658" 
d="M380 662q34 0 62.5 -6.5t53.5 -18.5l41 67q23 -16 27 -27t-4 -23l-25 -41q46 -35 69.5 -91t23.5 -124q0 -91 -28 -166.5t-77 -129.5t-115.5 -84t-143.5 -30q-28 0 -52.5 5.5t-45.5 14.5l-45 -74q-23 16 -27 26t4 24l28 46q-50 37 -75 97t-25 129q0 81 26.5 154.5
t73.5 129.5t112 89t142 33zM123 255q0 -54 9.5 -95.5t29.5 -70.5l302 495q-38 35 -91 35q-65 0 -112 -31.5t-77.5 -82.5t-45.5 -116.5t-15 -133.5zM289 31q63 0 108.5 32t75 82.5t43.5 113.5t14 126q0 49 -9 90t-27 71l-299 -490q37 -25 94 -25z" />
    <glyph glyph-name="Ugrave" unicode="&#xd9;" horiz-adv-x="725" 
d="M582 223q-9 -50 -31.5 -93t-57 -74.5t-80.5 -49.5t-104 -18q-57 0 -99 18.5t-68 50t-35 74.5t1 93l69 357q4 21 -11.5 30t-37.5 11q-15 2 -15 16q0 7 3 18q60 -6 110 -6q21 0 54.5 1.5t60.5 4.5q1 -5 1.5 -9t0.5 -7q0 -6 -3.5 -10.5t-11.5 -5.5q-26 -4 -43.5 -13.5
t-21.5 -28.5l-66 -341q-7 -38 -3.5 -74t19.5 -64.5t44.5 -46t71.5 -17.5q36 0 69.5 10.5t62 34t49.5 61.5t32 94l65 341q4 20 -10 30t-40 14q-12 1 -12 16q0 3 0.5 7t1.5 9q30 -3 49 -4.5t39 -1.5q18 0 39.5 1t47.5 4q1 -5 2 -9t1 -7q0 -13 -13 -15q-25 -4 -41 -14t-20 -28z
M509 744q6 -5 7.5 -8.5t1.5 -6.5q0 -5 -3.5 -10t-8.5 -9q-25 12 -44 21t-36.5 15.5t-35.5 12.5t-40 14q-10 3 -18.5 9t-8.5 18q0 13 12 27t37 25z" />
    <glyph glyph-name="Uacute" unicode="&#xda;" horiz-adv-x="725" 
d="M582 223q-9 -50 -31.5 -93t-57 -74.5t-80.5 -49.5t-104 -18q-57 0 -99 18.5t-68 50t-35 74.5t1 93l69 357q4 21 -11.5 30t-37.5 11q-15 2 -15 16q0 7 3 18q60 -6 110 -6q21 0 54.5 1.5t60.5 4.5q1 -5 1.5 -9t0.5 -7q0 -6 -3.5 -10.5t-11.5 -5.5q-26 -4 -43.5 -13.5
t-21.5 -28.5l-66 -341q-7 -38 -3.5 -74t19.5 -64.5t44.5 -46t71.5 -17.5q36 0 69.5 10.5t62 34t49.5 61.5t32 94l65 341q4 20 -10 30t-40 14q-12 1 -12 16q0 3 0.5 7t1.5 9q30 -3 49 -4.5t39 -1.5q18 0 39.5 1t47.5 4q1 -5 2 -9t1 -7q0 -13 -13 -15q-25 -4 -41 -14t-20 -28z
M532 855q49 -22 49 -50q0 -12 -8.5 -18t-18.5 -9q-23 -8 -41.5 -14.5t-36.5 -14.5t-37.5 -17.5t-44.5 -21.5q-11 9 -11 17q0 3 1.5 6.5t7.5 8.5z" />
    <glyph glyph-name="Ucircumflex" unicode="&#xdb;" horiz-adv-x="725" 
d="M582 223q-9 -50 -31.5 -93t-57 -74.5t-80.5 -49.5t-104 -18q-57 0 -99 18.5t-68 50t-35 74.5t1 93l69 357q4 21 -11.5 30t-37.5 11q-15 2 -15 16q0 7 3 18q60 -6 110 -6q21 0 54.5 1.5t60.5 4.5q1 -5 1.5 -9t0.5 -7q0 -6 -3.5 -10.5t-11.5 -5.5q-26 -4 -43.5 -13.5
t-21.5 -28.5l-66 -341q-7 -38 -3.5 -74t19.5 -64.5t44.5 -46t71.5 -17.5q36 0 69.5 10.5t62 34t49.5 61.5t32 94l65 341q4 20 -10 30t-40 14q-12 1 -12 16q0 3 0.5 7t1.5 9q30 -3 49 -4.5t39 -1.5q18 0 39.5 1t47.5 4q1 -5 2 -9t1 -7q0 -13 -13 -15q-25 -4 -41 -14t-20 -28z
M582 747q5 -6 5 -13q0 -14 -23 -24q-23 19 -45.5 35.5t-51.5 31.5q-32 -15 -61 -31t-65 -36q-17 8 -17 19q0 8 8 15l128 112q26 0 37 -4.5t22 -20.5z" />
    <glyph glyph-name="Udieresis" unicode="&#xdc;" horiz-adv-x="725" 
d="M582 223q-9 -50 -31.5 -93t-57 -74.5t-80.5 -49.5t-104 -18q-57 0 -99 18.5t-68 50t-35 74.5t1 93l69 357q4 21 -11.5 30t-37.5 11q-15 2 -15 16q0 7 3 18q60 -6 110 -6q21 0 54.5 1.5t60.5 4.5q1 -5 1.5 -9t0.5 -7q0 -6 -3.5 -10.5t-11.5 -5.5q-26 -4 -43.5 -13.5
t-21.5 -28.5l-66 -341q-7 -38 -3.5 -74t19.5 -64.5t44.5 -46t71.5 -17.5q36 0 69.5 10.5t62 34t49.5 61.5t32 94l65 341q4 20 -10 30t-40 14q-12 1 -12 16q0 3 0.5 7t1.5 9q30 -3 49 -4.5t39 -1.5q18 0 39.5 1t47.5 4q1 -5 2 -9t1 -7q0 -13 -13 -15q-25 -4 -41 -14t-20 -28z
M333 756q0 25 15 40t33 15q21 0 32.5 -13t11.5 -34q0 -25 -14.5 -40t-33.5 -15q-20 0 -32 13t-12 34zM489 756q0 25 15 40t33 15q21 0 32.5 -13t11.5 -34q0 -25 -14.5 -40t-33.5 -15q-20 0 -32 13t-12 34z" />
    <glyph glyph-name="Yacute" unicode="&#xdd;" horiz-adv-x="548" 
d="M224 288l-113 302q-4 11 -16 19t-36 12q-13 3 -13 17q0 8 3 17q29 -3 58 -4.5t55 -1.5q10 0 24.5 0.5t30.5 1t31.5 1.5t28.5 3q1 -5 1.5 -9t0.5 -8q0 -5 -3 -9.5t-9 -5.5q-31 -2 -44 -15t-5 -36l84 -233l176 235q14 18 3.5 33t-38.5 17q-14 1 -14 15q0 8 3 17
q26 -3 53 -4.5t47 -1.5q18 0 39 1.5t47 4.5q3 -9 3 -16q0 -14 -16 -17q-24 -4 -39 -13t-26 -23l-219 -288l-44 -228q-4 -21 10.5 -31t39.5 -13q15 -2 15 -16q0 -8 -3 -17q-30 3 -63 4.5t-58 1.5q-11 0 -25.5 -0.5t-31 -1t-32.5 -2t-29 -2.5q-1 5 -1.5 9t-0.5 7q0 5 3 10
t10 6q26 4 46.5 14.5t25.5 30.5zM449 855q49 -22 49 -50q0 -12 -8.5 -18t-18.5 -9q-23 -8 -41.5 -14.5t-36.5 -14.5t-37.5 -17.5t-44.5 -21.5q-11 9 -11 17q0 3 1.5 6.5t7.5 8.5z" />
    <glyph glyph-name="Thorn" unicode="&#xde;" horiz-adv-x="518" 
d="M249 476l-56 -289h13q43 0 77.5 8.5t58.5 28.5t37 52.5t13 80.5q0 23 -6 44.5t-19.5 38t-36 26.5t-55.5 10h-26zM181 575q3 15 0.5 24.5t-9 15t-16.5 7.5t-21 4q-7 1 -11.5 3t-4.5 11q0 6 2 16q30 -3 60.5 -4.5t54.5 -1.5q21 0 51 1.5t56 4.5q2 -8 2 -11.5v-6.5
q0 -5 -3.5 -8t-7.5 -4q-22 -2 -41 -10.5t-24 -33.5l-13 -67h40q48 0 84 -12t60 -33t36 -49.5t12 -61.5q0 -44 -17 -82.5t-48.5 -67t-77 -45t-103.5 -16.5h-56l-14 -73q-3 -16 0 -25t10.5 -14.5t17.5 -7.5t22 -4q5 -1 9 -3t4 -11q0 -4 -3 -16q-29 3 -62 4.5t-56 1.5
q-21 0 -49 -1.5t-54 -4.5q-2 8 -2 11v6q0 5 3.5 9.5t12.5 5.5q52 4 59 42z" />
    <glyph glyph-name="germandbls" unicode="&#xdf;" horiz-adv-x="478" 
d="M120 519q8 48 28.5 84t49 60.5t63 36.5t70.5 12q28 0 55 -7.5t48.5 -22.5t34.5 -37.5t13 -52.5q0 -35 -22 -63t-48 -53.5t-48 -51t-22 -54.5q0 -28 13.5 -52t29 -47.5t29 -47t13.5 -50.5q0 -39 -17.5 -73t-46.5 -58.5t-66.5 -39t-78.5 -14.5q-8 0 -19 1t-20.5 3.5
t-16 6.5t-6.5 11q0 8 3.5 18t9 18.5t12.5 14.5t14 6q8 0 13 -4q13 -11 30 -20.5t34 -9.5q31 0 55 25.5t24 76.5q0 29 -13.5 54t-29.5 49t-29.5 48.5t-13.5 52.5q0 37 21 62t50 53q13 12 25.5 25t22 28t15.5 32.5t6 39.5q0 49 -28.5 73t-70.5 24q-21 0 -38.5 -8.5t-31.5 -31
t-26 -62t-22 -101.5l-62 -370q-12 -74 -30 -129.5t-40.5 -96t-50 -68.5t-59.5 -47q-11 -6 -22.5 -10t-25.5 -4q-8 0 -19.5 2t-19.5 5q6 18 10.5 39t6.5 44l15 6q11 -14 24.5 -22.5t28.5 -8.5q35 0 55.5 55t39.5 166z" />
    <glyph glyph-name="agrave" unicode="&#xe0;" horiz-adv-x="469" 
d="M289 166h-4q-25 -49 -51 -83t-51.5 -55t-50 -30.5t-46.5 -9.5q-15 0 -28.5 4.5t-24 15.5t-16.5 30t-6 48q0 85 27.5 151t68.5 111.5t88.5 69.5t88.5 24q32 0 61.5 -3t66.5 -11l-69 -347q-2 -10 -2 -18q0 -13 11 -13q7 0 14.5 3.5t15 8t14 8t10.5 3.5q10 0 14 -20
q-18 -13 -37.5 -24.5t-37.5 -20.5t-34 -14.5t-26 -5.5q-11 0 -20 4.5t-9 19.5q0 5 1 11.5t3 13.5zM325 393q-12 4 -26.5 6.5t-27.5 2.5q-40 0 -72 -21t-55 -59t-35.5 -90t-12.5 -113q0 -36 9 -51.5t25 -15.5q20 0 43 18t44.5 47t41.5 65.5t34.5 74.5t23 73.5t8.5 62.5z
M328 524q3 -8 3 -13q0 -12 -19 -19q-17 20 -30.5 36t-26 29t-25 25t-27.5 25q-13 12 -13 23q0 18 21 29t50 12z" />
    <glyph glyph-name="aacute" unicode="&#xe1;" horiz-adv-x="469" 
d="M289 166h-4q-25 -49 -51 -83t-51.5 -55t-50 -30.5t-46.5 -9.5q-15 0 -28.5 4.5t-24 15.5t-16.5 30t-6 48q0 85 27.5 151t68.5 111.5t88.5 69.5t88.5 24q32 0 61.5 -3t66.5 -11l-69 -347q-2 -10 -2 -18q0 -13 11 -13q7 0 14.5 3.5t15 8t14 8t10.5 3.5q10 0 14 -20
q-18 -13 -37.5 -24.5t-37.5 -20.5t-34 -14.5t-26 -5.5q-11 0 -20 4.5t-9 19.5q0 5 1 11.5t3 13.5zM325 393q-12 4 -26.5 6.5t-27.5 2.5q-40 0 -72 -21t-55 -59t-35.5 -90t-12.5 -113q0 -36 9 -51.5t25 -15.5q20 0 43 18t44.5 47t41.5 65.5t34.5 74.5t23 73.5t8.5 62.5z
M370 663q26 -5 42.5 -17.5t16.5 -26.5q0 -16 -21 -29q-20 -12 -36.5 -23t-33 -22.5t-35 -25.5t-40.5 -32q-7 5 -11 9t-4 11q0 6 5 12z" />
    <glyph glyph-name="acircumflex" unicode="&#xe2;" horiz-adv-x="469" 
d="M289 166h-4q-25 -49 -51 -83t-51.5 -55t-50 -30.5t-46.5 -9.5q-15 0 -28.5 4.5t-24 15.5t-16.5 30t-6 48q0 85 27.5 151t68.5 111.5t88.5 69.5t88.5 24q32 0 61.5 -3t66.5 -11l-69 -347q-2 -10 -2 -18q0 -13 11 -13q7 0 14.5 3.5t15 8t14 8t10.5 3.5q10 0 14 -20
q-18 -13 -37.5 -24.5t-37.5 -20.5t-34 -14.5t-26 -5.5q-11 0 -20 4.5t-9 19.5q0 5 1 11.5t3 13.5zM325 393q-12 4 -26.5 6.5t-27.5 2.5q-40 0 -72 -21t-55 -59t-35.5 -90t-12.5 -113q0 -36 9 -51.5t25 -15.5q20 0 43 18t44.5 47t41.5 65.5t34.5 74.5t23 73.5t8.5 62.5z
M414 520q3 -8 2 -15.5t-19 -15.5q-25 30 -43.5 52t-39.5 41q-31 -19 -62 -42.5t-66 -52.5q-16 11 -16 19t5 14l122 141q29 1 43.5 -2.5t20.5 -17.5z" />
    <glyph glyph-name="atilde" unicode="&#xe3;" horiz-adv-x="469" 
d="M289 166h-4q-25 -49 -51 -83t-51.5 -55t-50 -30.5t-46.5 -9.5q-15 0 -28.5 4.5t-24 15.5t-16.5 30t-6 48q0 85 27.5 151t68.5 111.5t88.5 69.5t88.5 24q32 0 61.5 -3t66.5 -11l-69 -347q-2 -10 -2 -18q0 -13 11 -13q7 0 14.5 3.5t15 8t14 8t10.5 3.5q10 0 14 -20
q-18 -13 -37.5 -24.5t-37.5 -20.5t-34 -14.5t-26 -5.5q-11 0 -20 4.5t-9 19.5q0 5 1 11.5t3 13.5zM325 393q-12 4 -26.5 6.5t-27.5 2.5q-40 0 -72 -21t-55 -59t-35.5 -90t-12.5 -113q0 -36 9 -51.5t25 -15.5q20 0 43 18t44.5 47t41.5 65.5t34.5 74.5t23 73.5t8.5 62.5z
M188 555q37 37 59 50t42 13q10 0 20 -4t20 -9t19.5 -9t18.5 -4q11 0 26 6t38 23q6 -4 10.5 -8.5t4.5 -11.5t-5 -12q-20 -21 -45.5 -40.5t-47.5 -19.5q-13 0 -24.5 4.5t-22 9.5t-20 9.5t-18.5 4.5q-12 0 -25 -5.5t-39 -25.5q-6 4 -11 9t-5 10t5 10z" />
    <glyph glyph-name="adieresis" unicode="&#xe4;" horiz-adv-x="469" 
d="M289 166h-4q-25 -49 -51 -83t-51.5 -55t-50 -30.5t-46.5 -9.5q-15 0 -28.5 4.5t-24 15.5t-16.5 30t-6 48q0 85 27.5 151t68.5 111.5t88.5 69.5t88.5 24q32 0 61.5 -3t66.5 -11l-69 -347q-2 -10 -2 -18q0 -13 11 -13q7 0 14.5 3.5t15 8t14 8t10.5 3.5q10 0 14 -20
q-18 -13 -37.5 -24.5t-37.5 -20.5t-34 -14.5t-26 -5.5q-11 0 -20 4.5t-9 19.5q0 5 1 11.5t3 13.5zM325 393q-12 4 -26.5 6.5t-27.5 2.5q-40 0 -72 -21t-55 -59t-35.5 -90t-12.5 -113q0 -36 9 -51.5t25 -15.5q20 0 43 18t44.5 47t41.5 65.5t34.5 74.5t23 73.5t8.5 62.5z
M188 568q0 25 15 40t33 15q21 0 32.5 -13t11.5 -34q0 -25 -14.5 -40t-33.5 -15q-20 0 -32 13t-12 34zM344 568q0 25 15 40t33 15q21 0 32.5 -13t11.5 -34q0 -25 -14.5 -40t-33.5 -15q-20 0 -32 13t-12 34z" />
    <glyph glyph-name="aring" unicode="&#xe5;" horiz-adv-x="469" 
d="M289 166h-4q-25 -49 -51 -83t-51.5 -55t-50 -30.5t-46.5 -9.5q-15 0 -28.5 4.5t-24 15.5t-16.5 30t-6 48q0 85 27.5 151t68.5 111.5t88.5 69.5t88.5 24q32 0 61.5 -3t66.5 -11l-69 -347q-2 -10 -2 -18q0 -13 11 -13q7 0 14.5 3.5t15 8t14 8t10.5 3.5q10 0 14 -20
q-18 -13 -37.5 -24.5t-37.5 -20.5t-34 -14.5t-26 -5.5q-11 0 -20 4.5t-9 19.5q0 5 1 11.5t3 13.5zM325 393q-12 4 -26.5 6.5t-27.5 2.5q-40 0 -72 -21t-55 -59t-35.5 -90t-12.5 -113q0 -36 9 -51.5t25 -15.5q20 0 43 18t44.5 47t41.5 65.5t34.5 74.5t23 73.5t8.5 62.5z
M221 565q0 20 8 37.5t20.5 30t29 19.5t33.5 7q41 0 58 -22t17 -55q0 -21 -8 -38.5t-21 -30t-29 -19.5t-31 -7q-42 0 -59.5 22t-17.5 56zM298 521q18 0 29 18t11 48q0 20 -9 29t-20 9q-19 0 -29 -20t-10 -46q0 -20 9 -29t19 -9z" />
    <glyph glyph-name="ae" unicode="&#xe6;" horiz-adv-x="671" 
d="M510 407q-23 0 -45.5 -14t-40.5 -39t-31 -59.5t-17 -74.5q97 16 144 49.5t47 80.5q0 57 -57 57zM329 392q-12 4 -26.5 6.5t-28.5 2.5q-41 0 -73.5 -20.5t-55 -57t-35 -88t-12.5 -114.5q0 -38 9.5 -53t27.5 -15q20 0 42.5 17.5t44 46t41 65t34.5 74t23.5 73.5t8.5 63z
M647 352q0 -37 -22 -64t-59.5 -46.5t-87 -31t-105.5 -17.5q-1 -9 -1 -18v-18q0 -23 5.5 -44.5t16.5 -38t29 -26.5t43 -10q30 0 61.5 11t60.5 32q9 7 14 7q7 0 9.5 -7.5t2.5 -11.5q-16 -15 -36.5 -30t-43.5 -26t-48.5 -18t-51.5 -7q-40 0 -67.5 13t-44.5 36t-24.5 55.5
t-7.5 71.5h-4q-25 -50 -50.5 -83.5t-50.5 -54.5t-49 -30t-45 -9q-16 0 -30.5 4.5t-25.5 16t-17.5 31t-6.5 49.5q0 86 27.5 152t69 111t90 68t89.5 23q32 0 60 -3t61 -9l-7 -35q28 22 60 34.5t70 12.5q21 0 41.5 -4t37 -14.5t27 -28t10.5 -43.5z" />
    <glyph glyph-name="ccedilla" unicode="&#xe7;" horiz-adv-x="383" 
d="M244 404q-35 0 -61.5 -20t-44 -53.5t-26.5 -78.5t-9 -95q0 -24 4.5 -45.5t15 -37.5t29 -25.5t45.5 -9.5q29 0 56 11.5t53 28.5q2 2 5 3.5t5 1.5q8 0 10.5 -7.5t3.5 -12.5q-24 -21 -58.5 -42t-76.5 -29q-17 -21 -21 -30t-4 -19q0 -9 6 -18t12.5 -18.5t12.5 -19t6 -19.5
q0 -15 -6.5 -28t-21 -26t-38.5 -26t-59 -28q-9 13 -7.5 20t12.5 13q31 17 41 29.5t10 26.5q0 9 -5 17.5t-11.5 16.5t-11.5 16t-5 17q0 6 1.5 11.5t6.5 13t14.5 18.5t25.5 28q-38 0 -63.5 14t-41 36.5t-22 51t-6.5 58.5q0 55 16.5 108t46.5 94.5t72.5 66.5t93.5 25
q61 0 120 -28q-5 -15 -9 -42t-6 -48l-15 1q-15 1 -18 15q-10 36 -30.5 50t-46.5 14z" />
    <glyph glyph-name="egrave" unicode="&#xe8;" horiz-adv-x="384" 
d="M105 233q95 8 135 39t40 78q0 28 -13.5 42.5t-36.5 14.5q-24 0 -44.5 -14.5t-37 -38.5t-27.5 -55.5t-16 -65.5zM102 203q-1 -10 -1.5 -20t-0.5 -21q0 -23 4 -45t14 -39t27.5 -27.5t44.5 -10.5q26 0 54 9.5t57 29.5q10 7 14 7q8 0 10.5 -8t2.5 -12q-15 -14 -34 -28
t-41 -25t-47 -18t-52 -7q-42 0 -68.5 15.5t-42 40t-21 53.5t-5.5 56q0 53 16.5 105t46.5 93t73 66t96 25q21 0 41 -5.5t35.5 -16.5t25 -29t9.5 -43q0 -37 -19.5 -63.5t-54 -44t-81.5 -26.5t-103 -11zM291 524q3 -8 3 -13q0 -12 -19 -19q-17 20 -30.5 36t-26 29t-25 25
t-27.5 25q-13 12 -13 23q0 18 21 29t50 12z" />
    <glyph glyph-name="eacute" unicode="&#xe9;" horiz-adv-x="384" 
d="M105 233q95 8 135 39t40 78q0 28 -13.5 42.5t-36.5 14.5q-24 0 -44.5 -14.5t-37 -38.5t-27.5 -55.5t-16 -65.5zM102 203q-1 -10 -1.5 -20t-0.5 -21q0 -23 4 -45t14 -39t27.5 -27.5t44.5 -10.5q26 0 54 9.5t57 29.5q10 7 14 7q8 0 10.5 -8t2.5 -12q-15 -14 -34 -28
t-41 -25t-47 -18t-52 -7q-42 0 -68.5 15.5t-42 40t-21 53.5t-5.5 56q0 53 16.5 105t46.5 93t73 66t96 25q21 0 41 -5.5t35.5 -16.5t25 -29t9.5 -43q0 -37 -19.5 -63.5t-54 -44t-81.5 -26.5t-103 -11zM319 663q26 -5 42.5 -17.5t16.5 -26.5q0 -16 -21 -29q-20 -12 -36.5 -23
t-33 -22.5t-35 -25.5t-40.5 -32q-7 5 -11 9t-4 11q0 6 5 12z" />
    <glyph glyph-name="ecircumflex" unicode="&#xea;" horiz-adv-x="384" 
d="M105 233q95 8 135 39t40 78q0 28 -13.5 42.5t-36.5 14.5q-24 0 -44.5 -14.5t-37 -38.5t-27.5 -55.5t-16 -65.5zM102 203q-1 -10 -1.5 -20t-0.5 -21q0 -23 4 -45t14 -39t27.5 -27.5t44.5 -10.5q26 0 54 9.5t57 29.5q10 7 14 7q8 0 10.5 -8t2.5 -12q-15 -14 -34 -28
t-41 -25t-47 -18t-52 -7q-42 0 -68.5 15.5t-42 40t-21 53.5t-5.5 56q0 53 16.5 105t46.5 93t73 66t96 25q21 0 41 -5.5t35.5 -16.5t25 -29t9.5 -43q0 -37 -19.5 -63.5t-54 -44t-81.5 -26.5t-103 -11zM375 520q3 -8 2 -15.5t-19 -15.5q-25 30 -43.5 52t-39.5 41
q-31 -19 -62 -42.5t-66 -52.5q-16 11 -16 19t5 14l122 141q29 1 43.5 -2.5t20.5 -17.5z" />
    <glyph glyph-name="edieresis" unicode="&#xeb;" horiz-adv-x="384" 
d="M105 233q95 8 135 39t40 78q0 28 -13.5 42.5t-36.5 14.5q-24 0 -44.5 -14.5t-37 -38.5t-27.5 -55.5t-16 -65.5zM102 203q-1 -10 -1.5 -20t-0.5 -21q0 -23 4 -45t14 -39t27.5 -27.5t44.5 -10.5q26 0 54 9.5t57 29.5q10 7 14 7q8 0 10.5 -8t2.5 -12q-15 -14 -34 -28
t-41 -25t-47 -18t-52 -7q-42 0 -68.5 15.5t-42 40t-21 53.5t-5.5 56q0 53 16.5 105t46.5 93t73 66t96 25q21 0 41 -5.5t35.5 -16.5t25 -29t9.5 -43q0 -37 -19.5 -63.5t-54 -44t-81.5 -26.5t-103 -11zM141 568q0 25 15 40t33 15q21 0 32.5 -13t11.5 -34q0 -25 -14.5 -40
t-33.5 -15q-20 0 -32 13t-12 34zM297 568q0 25 15 40t33 15q21 0 32.5 -13t11.5 -34q0 -25 -14.5 -40t-33.5 -15q-20 0 -32 13t-12 34z" />
    <glyph glyph-name="igrave" unicode="&#xec;" horiz-adv-x="247" 
d="M120 82q-1 -4 -2 -10.5t-1 -9.5q0 -12 12 -12q7 0 14.5 3.5t15 8t13.5 8t10 3.5q10 0 14 -20q-17 -13 -36.5 -24.5t-37.5 -20.5t-34 -14.5t-26 -5.5q-11 0 -21 4.5t-10 21.5q0 3 1 10.5t2 10.5q22 107 35 170.5t19.5 97t8.5 44.5t2 13q0 12 -9 12q-4 0 -12 -3.5t-17 -7
t-16.5 -7t-11.5 -3.5q-6 0 -9 6t-5 14q18 10 42 22.5t46.5 23.5t40 18t23.5 7q17 0 17 -17q0 -7 -2 -15zM213 524q3 -8 3 -13q0 -12 -19 -19q-17 20 -30.5 36t-26 29t-25 25t-27.5 25q-13 12 -13 23q0 18 21 29t50 12z" />
    <glyph glyph-name="iacute" unicode="&#xed;" horiz-adv-x="247" 
d="M120 82q-1 -4 -2 -10.5t-1 -9.5q0 -12 12 -12q7 0 14.5 3.5t15 8t13.5 8t10 3.5q10 0 14 -20q-17 -13 -36.5 -24.5t-37.5 -20.5t-34 -14.5t-26 -5.5q-11 0 -21 4.5t-10 21.5q0 3 1 10.5t2 10.5q22 107 35 170.5t19.5 97t8.5 44.5t2 13q0 12 -9 12q-4 0 -12 -3.5t-17 -7
t-16.5 -7t-11.5 -3.5q-6 0 -9 6t-5 14q18 10 42 22.5t46.5 23.5t40 18t23.5 7q17 0 17 -17q0 -7 -2 -15zM224 663q26 -5 42.5 -17.5t16.5 -26.5q0 -16 -21 -29q-20 -12 -36.5 -23t-33 -22.5t-35 -25.5t-40.5 -32q-7 5 -11 9t-4 11q0 6 5 12z" />
    <glyph glyph-name="icircumflex" unicode="&#xee;" horiz-adv-x="247" 
d="M120 82q-1 -4 -2 -10.5t-1 -9.5q0 -12 12 -12q7 0 14.5 3.5t15 8t13.5 8t10 3.5q10 0 14 -20q-17 -13 -36.5 -24.5t-37.5 -20.5t-34 -14.5t-26 -5.5q-11 0 -21 4.5t-10 21.5q0 3 1 10.5t2 10.5q22 107 35 170.5t19.5 97t8.5 44.5t2 13q0 12 -9 12q-4 0 -12 -3.5t-17 -7
t-16.5 -7t-11.5 -3.5q-6 0 -9 6t-5 14q18 10 42 22.5t46.5 23.5t40 18t23.5 7q17 0 17 -17q0 -7 -2 -15zM272 520q3 -8 2 -15.5t-19 -15.5q-25 30 -43.5 52t-39.5 41q-31 -19 -62 -42.5t-66 -52.5q-16 11 -16 19t5 14l122 141q29 1 43.5 -2.5t20.5 -17.5z" />
    <glyph glyph-name="idieresis" unicode="&#xef;" horiz-adv-x="247" 
d="M120 82q-1 -4 -2 -10.5t-1 -9.5q0 -12 12 -12q7 0 14.5 3.5t15 8t13.5 8t10 3.5q10 0 14 -20q-17 -13 -36.5 -24.5t-37.5 -20.5t-34 -14.5t-26 -5.5q-11 0 -21 4.5t-10 21.5q0 3 1 10.5t2 10.5q22 107 35 170.5t19.5 97t8.5 44.5t2 13q0 12 -9 12q-4 0 -12 -3.5t-17 -7
t-16.5 -7t-11.5 -3.5q-6 0 -9 6t-5 14q18 10 42 22.5t46.5 23.5t40 18t23.5 7q17 0 17 -17q0 -7 -2 -15zM50 568q0 25 15 40t33 15q21 0 32.5 -13t11.5 -34q0 -25 -14.5 -40t-33.5 -15q-20 0 -32 13t-12 34zM206 568q0 25 15 40t33 15q21 0 32.5 -13t11.5 -34
q0 -25 -14.5 -40t-33.5 -15q-20 0 -32 13t-12 34z" />
    <glyph glyph-name="eth" unicode="&#xf0;" horiz-adv-x="464" 
d="M171 687q-4 4 -4 8q0 11 12 23q88 -46 143 -102l112 62q5 -5 12 -12.5t7 -15.5q0 -9 -12 -16l-90 -49q43 -54 63 -115t20 -131q0 -54 -16.5 -115.5t-50 -114t-84 -87t-118.5 -34.5q-42 0 -71 13t-47 34.5t-25.5 50.5t-7.5 62q0 60 22.5 111.5t57 89.5t76.5 59.5t81 21.5
q20 0 42.5 -2.5t42.5 -8.5q-5 38 -17 71t-29 62l-111 -59q-18 18 -18 29q0 4 2 7t9 7l96 52q-22 29 -46 53t-51 46zM341 354q-14 15 -41 25.5t-56 10.5q-34 0 -59.5 -20t-42.5 -51.5t-25.5 -70t-8.5 -76.5q0 -79 23.5 -111t63.5 -32q30 0 56.5 22t46.5 60.5t32.5 90
t12.5 111.5q0 11 -0.5 21.5t-1.5 19.5z" />
    <glyph glyph-name="ntilde" unicode="&#xf1;" horiz-adv-x="512" 
d="M353 302q6 27 6 45q0 29 -28 29q-15 0 -37 -16.5t-46 -43t-47.5 -59.5t-41.5 -67q-9 -17 -17.5 -37.5t-15 -42t-10 -42.5t-3.5 -39q0 -14 3 -27q-38 -4 -79 -15q-8 5 -8 12q0 2 1 8.5t2 10.5q23 116 36 183t19.5 101.5t8 45t1.5 12.5q0 12 -8 12q-4 0 -12 -3.5t-16.5 -7
t-16.5 -7t-12 -3.5q-5 0 -8.5 6t-5.5 14q18 11 42.5 23.5t47.5 23t40 17.5t22 7q7 0 12 -3.5t5 -11.5q0 -3 -0.5 -7.5t-1.5 -9.5l-36 -174h4q26 44 54 82t56.5 65.5t57.5 43t59 15.5q28 0 44.5 -14t16.5 -46q0 -12 -2 -28t-5 -32l-51 -240q-3 -14 -3 -19q0 -13 12 -13
q6 0 14 3.5t15.5 8t13.5 8t10 3.5q10 0 14 -20q-18 -13 -37 -24.5t-37.5 -20.5t-34.5 -14.5t-26 -5.5q-11 0 -20.5 4.5t-9.5 21.5q0 3 1 9.5t2 11.5zM195 555q37 37 59 50t42 13q10 0 20 -4t20 -9t19.5 -9t18.5 -4q11 0 26 6t38 23q6 -4 10.5 -8.5t4.5 -11.5t-5 -12
q-20 -21 -45.5 -40.5t-47.5 -19.5q-13 0 -24.5 4.5t-22 9.5t-20 9.5t-18.5 4.5q-12 0 -25 -5.5t-39 -25.5q-6 4 -11 9t-5 10t5 10z" />
    <glyph glyph-name="ograve" unicode="&#xf2;" horiz-adv-x="429" 
d="M245 442q37 0 64.5 -12.5t44.5 -35t25.5 -53.5t8.5 -67q0 -72 -23 -126t-58.5 -89.5t-79.5 -53t-86 -17.5q-35 0 -59.5 11t-39.5 32t-21.5 51.5t-6.5 68.5q0 66 22.5 120t57 92t75 58.5t76.5 20.5zM166 27q30 0 55.5 18t44 50t28.5 75.5t10 95.5q0 63 -15 100t-53 37
q-33 0 -59 -22t-43.5 -57t-26.5 -78t-9 -85q0 -66 15.5 -100t52.5 -34zM306 524q3 -8 3 -13q0 -12 -19 -19q-17 20 -30.5 36t-26 29t-25 25t-27.5 25q-13 12 -13 23q0 18 21 29t50 12z" />
    <glyph glyph-name="oacute" unicode="&#xf3;" horiz-adv-x="429" 
d="M245 442q37 0 64.5 -12.5t44.5 -35t25.5 -53.5t8.5 -67q0 -72 -23 -126t-58.5 -89.5t-79.5 -53t-86 -17.5q-35 0 -59.5 11t-39.5 32t-21.5 51.5t-6.5 68.5q0 66 22.5 120t57 92t75 58.5t76.5 20.5zM166 27q30 0 55.5 18t44 50t28.5 75.5t10 95.5q0 63 -15 100t-53 37
q-33 0 -59 -22t-43.5 -57t-26.5 -78t-9 -85q0 -66 15.5 -100t52.5 -34zM324 663q26 -5 42.5 -17.5t16.5 -26.5q0 -16 -21 -29q-20 -12 -36.5 -23t-33 -22.5t-35 -25.5t-40.5 -32q-7 5 -11 9t-4 11q0 6 5 12z" />
    <glyph glyph-name="ocircumflex" unicode="&#xf4;" horiz-adv-x="429" 
d="M245 442q37 0 64.5 -12.5t44.5 -35t25.5 -53.5t8.5 -67q0 -72 -23 -126t-58.5 -89.5t-79.5 -53t-86 -17.5q-35 0 -59.5 11t-39.5 32t-21.5 51.5t-6.5 68.5q0 66 22.5 120t57 92t75 58.5t76.5 20.5zM166 27q30 0 55.5 18t44 50t28.5 75.5t10 95.5q0 63 -15 100t-53 37
q-33 0 -59 -22t-43.5 -57t-26.5 -78t-9 -85q0 -66 15.5 -100t52.5 -34zM384 520q3 -8 2 -15.5t-19 -15.5q-25 30 -43.5 52t-39.5 41q-31 -19 -62 -42.5t-66 -52.5q-16 11 -16 19t5 14l122 141q29 1 43.5 -2.5t20.5 -17.5z" />
    <glyph glyph-name="otilde" unicode="&#xf5;" horiz-adv-x="429" 
d="M245 442q37 0 64.5 -12.5t44.5 -35t25.5 -53.5t8.5 -67q0 -72 -23 -126t-58.5 -89.5t-79.5 -53t-86 -17.5q-35 0 -59.5 11t-39.5 32t-21.5 51.5t-6.5 68.5q0 66 22.5 120t57 92t75 58.5t76.5 20.5zM166 27q30 0 55.5 18t44 50t28.5 75.5t10 95.5q0 63 -15 100t-53 37
q-33 0 -59 -22t-43.5 -57t-26.5 -78t-9 -85q0 -66 15.5 -100t52.5 -34zM151 555q37 37 59 50t42 13q10 0 20 -4t20 -9t19.5 -9t18.5 -4q11 0 26 6t38 23q6 -4 10.5 -8.5t4.5 -11.5t-5 -12q-20 -21 -45.5 -40.5t-47.5 -19.5q-13 0 -24.5 4.5t-22 9.5t-20 9.5t-18.5 4.5
q-12 0 -25 -5.5t-39 -25.5q-6 4 -11 9t-5 10t5 10z" />
    <glyph glyph-name="odieresis" unicode="&#xf6;" horiz-adv-x="429" 
d="M245 442q37 0 64.5 -12.5t44.5 -35t25.5 -53.5t8.5 -67q0 -72 -23 -126t-58.5 -89.5t-79.5 -53t-86 -17.5q-35 0 -59.5 11t-39.5 32t-21.5 51.5t-6.5 68.5q0 66 22.5 120t57 92t75 58.5t76.5 20.5zM166 27q30 0 55.5 18t44 50t28.5 75.5t10 95.5q0 63 -15 100t-53 37
q-33 0 -59 -22t-43.5 -57t-26.5 -78t-9 -85q0 -66 15.5 -100t52.5 -34zM145 568q0 25 15 40t33 15q21 0 32.5 -13t11.5 -34q0 -25 -14.5 -40t-33.5 -15q-20 0 -32 13t-12 34zM301 568q0 25 15 40t33 15q21 0 32.5 -13t11.5 -34q0 -25 -14.5 -40t-33.5 -15q-20 0 -32 13
t-12 34z" />
    <glyph glyph-name="divide" unicode="&#xf7;" horiz-adv-x="494" 
d="M173 362q0 29 16.5 48.5t39.5 19.5t37.5 -16.5t14.5 -40.5q0 -29 -16 -48.5t-38 -19.5q-26 0 -40 15.5t-14 41.5zM13 198q4 32 13 43t27 11h394q-5 -32 -14 -43t-27 -11h-393zM173 76q0 29 16.5 48.5t39.5 19.5t37.5 -16.5t14.5 -40.5q0 -29 -16 -48.5t-38 -19.5
q-26 0 -40 15.5t-14 41.5z" />
    <glyph glyph-name="oslash" unicode="&#xf8;" horiz-adv-x="429" 
d="M245 442q41 0 70 -15l22 35q6 9 11 13.5t16 4.5q8 0 12.5 -2.5t12.5 -7.5l-42 -68q21 -23 31 -55.5t10 -72.5q0 -72 -23 -126t-58.5 -89.5t-79.5 -53t-86 -17.5q-28 0 -48 7l-20 -34q-6 -10 -11.5 -16t-16.5 -6q-8 0 -14.5 2t-14.5 6l42 67q-24 20 -34 54.5t-10 82.5
q0 66 22.5 120t57 92t75 58.5t76.5 20.5zM98 161q0 -43 6 -73l179 288q-17 27 -47 27q-33 0 -59 -22t-43.5 -57t-26.5 -78t-9 -85zM166 27q30 0 55.5 18t44 50t28.5 75.5t10 95.5q0 17 -1 32t-3 28l-176 -282q16 -17 42 -17z" />
    <glyph glyph-name="ugrave" unicode="&#xf9;" horiz-adv-x="511" 
d="M130 128q-6 -29 -6 -45t9.5 -23t24.5 -7q22 0 46 17.5t47.5 46.5t45 66t37.5 75.5t25.5 76t9.5 66.5q0 13 -3 27q39 5 79 15q8 -5 8 -12q0 -2 -1 -8.5t-2 -10.5l-68 -344q-3 -18 13 -18q6 0 13.5 3.5t14.5 7t13.5 7t10.5 3.5q9 0 12 -18q-18 -13 -38 -25t-38 -21
t-33.5 -14t-24.5 -5q-10 0 -19 4.5t-9 20.5q0 2 0.5 9t2.5 13l29 138h-4q-53 -98 -107 -141.5t-107 -43.5q-32 0 -50 16t-18 48q0 12 2 28t5 31l49 230q0 2 1 7t1 7q2 17 -9 17q-5 0 -13.5 -3.5t-17.5 -7t-16.5 -7t-11.5 -3.5q-5 0 -8 6t-5 13q17 10 40.5 23t46 23.5
t40.5 18t24 7.5q20 0 20 -17q0 -5 -1 -10l-2 -10zM339 524q3 -8 3 -13q0 -12 -19 -19q-17 20 -30.5 36t-26 29t-25 25t-27.5 25q-13 12 -13 23q0 18 21 29t50 12z" />
    <glyph glyph-name="uacute" unicode="&#xfa;" horiz-adv-x="511" 
d="M130 128q-6 -29 -6 -45t9.5 -23t24.5 -7q22 0 46 17.5t47.5 46.5t45 66t37.5 75.5t25.5 76t9.5 66.5q0 13 -3 27q39 5 79 15q8 -5 8 -12q0 -2 -1 -8.5t-2 -10.5l-68 -344q-3 -18 13 -18q6 0 13.5 3.5t14.5 7t13.5 7t10.5 3.5q9 0 12 -18q-18 -13 -38 -25t-38 -21
t-33.5 -14t-24.5 -5q-10 0 -19 4.5t-9 20.5q0 2 0.5 9t2.5 13l29 138h-4q-53 -98 -107 -141.5t-107 -43.5q-32 0 -50 16t-18 48q0 12 2 28t5 31l49 230q0 2 1 7t1 7q2 17 -9 17q-5 0 -13.5 -3.5t-17.5 -7t-16.5 -7t-11.5 -3.5q-5 0 -8 6t-5 13q17 10 40.5 23t46 23.5
t40.5 18t24 7.5q20 0 20 -17q0 -5 -1 -10l-2 -10zM364 663q26 -5 42.5 -17.5t16.5 -26.5q0 -16 -21 -29q-20 -12 -36.5 -23t-33 -22.5t-35 -25.5t-40.5 -32q-7 5 -11 9t-4 11q0 6 5 12z" />
    <glyph glyph-name="ucircumflex" unicode="&#xfb;" horiz-adv-x="511" 
d="M130 128q-6 -29 -6 -45t9.5 -23t24.5 -7q22 0 46 17.5t47.5 46.5t45 66t37.5 75.5t25.5 76t9.5 66.5q0 13 -3 27q39 5 79 15q8 -5 8 -12q0 -2 -1 -8.5t-2 -10.5l-68 -344q-3 -18 13 -18q6 0 13.5 3.5t14.5 7t13.5 7t10.5 3.5q9 0 12 -18q-18 -13 -38 -25t-38 -21
t-33.5 -14t-24.5 -5q-10 0 -19 4.5t-9 20.5q0 2 0.5 9t2.5 13l29 138h-4q-53 -98 -107 -141.5t-107 -43.5q-32 0 -50 16t-18 48q0 12 2 28t5 31l49 230q0 2 1 7t1 7q2 17 -9 17q-5 0 -13.5 -3.5t-17.5 -7t-16.5 -7t-11.5 -3.5q-5 0 -8 6t-5 13q17 10 40.5 23t46 23.5
t40.5 18t24 7.5q20 0 20 -17q0 -5 -1 -10l-2 -10zM413 520q3 -8 2 -15.5t-19 -15.5q-25 30 -43.5 52t-39.5 41q-31 -19 -62 -42.5t-66 -52.5q-16 11 -16 19t5 14l122 141q29 1 43.5 -2.5t20.5 -17.5z" />
    <glyph glyph-name="udieresis" unicode="&#xfc;" horiz-adv-x="511" 
d="M130 128q-6 -29 -6 -45t9.5 -23t24.5 -7q22 0 46 17.5t47.5 46.5t45 66t37.5 75.5t25.5 76t9.5 66.5q0 13 -3 27q39 5 79 15q8 -5 8 -12q0 -2 -1 -8.5t-2 -10.5l-68 -344q-3 -18 13 -18q6 0 13.5 3.5t14.5 7t13.5 7t10.5 3.5q9 0 12 -18q-18 -13 -38 -25t-38 -21
t-33.5 -14t-24.5 -5q-10 0 -19 4.5t-9 20.5q0 2 0.5 9t2.5 13l29 138h-4q-53 -98 -107 -141.5t-107 -43.5q-32 0 -50 16t-18 48q0 12 2 28t5 31l49 230q0 2 1 7t1 7q2 17 -9 17q-5 0 -13.5 -3.5t-17.5 -7t-16.5 -7t-11.5 -3.5q-5 0 -8 6t-5 13q17 10 40.5 23t46 23.5
t40.5 18t24 7.5q20 0 20 -17q0 -5 -1 -10l-2 -10zM183 568q0 25 15 40t33 15q21 0 32.5 -13t11.5 -34q0 -25 -14.5 -40t-33.5 -15q-20 0 -32 13t-12 34zM339 568q0 25 15 40t33 15q21 0 32.5 -13t11.5 -34q0 -25 -14.5 -40t-33.5 -15q-20 0 -32 13t-12 34z" />
    <glyph glyph-name="yacute" unicode="&#xfd;" horiz-adv-x="507" 
d="M150 -213q47 0 79.5 34.5t46.5 100.5l52 251h-4q-54 -100 -106 -142.5t-104 -42.5q-33 0 -50.5 14t-17.5 46q0 12 2 28.5t5 31.5l49 233q1 3 2 9.5t1 9.5q0 12 -10 12q-5 0 -13.5 -3.5t-17.5 -7t-16.5 -7t-11.5 -3.5q-5 0 -8 6t-4 13q17 10 40 23t45.5 23.5t40.5 18
t25 7.5q19 0 19 -20q0 -9 -2 -17l-58 -277q-6 -27 -6 -45q0 -28 30 -28q23 0 48 18t48 47t43.5 66.5t36 75.5t24.5 74.5t9 64.5q0 14 -3 28q40 3 82 14q6 -6 6 -12q0 -2 -1 -8.5t-2 -10.5l-90 -454q-11 -54 -36 -93.5t-57 -65.5t-68.5 -38.5t-69.5 -12.5q-71 0 -114 20
q8 23 12 40.5t7 42.5l17 6q14 -29 40.5 -49.5t59.5 -20.5zM366 663q26 -5 42.5 -17.5t16.5 -26.5q0 -16 -21 -29q-20 -12 -36.5 -23t-33 -22.5t-35 -25.5t-40.5 -32q-7 5 -11 9t-4 11q0 6 5 12z" />
    <glyph glyph-name="thorn" unicode="&#xfe;" horiz-adv-x="478" 
d="M162 269h4q49 91 98 132t98 41q25 0 42 -10t27.5 -26.5t14.5 -38t4 -43.5q0 -79 -27.5 -141t-69 -105.5t-90.5 -66.5t-93 -23q-13 0 -30 1.5t-28 4.5l-16 -80q-10 -56 -10 -83q0 -15 11 -15q9 0 27 2.5t26 2.5q6 0 8.5 -6t3.5 -13q-46 -13 -83.5 -25.5t-74.5 -28.5
q-14 10 -14 20q0 5 2 15l146 743q6 29 9.5 59t3.5 45q0 13 -11 13t-28 -2.5t-26 -2.5q-5 0 -8 6t-5 14q45 13 85 26t79 28q8 -5 10 -10t2 -10q0 -2 -0.5 -6.5t-1.5 -9.5zM122 42q11 -6 29.5 -9.5t30.5 -3.5q41 0 74 20.5t56.5 57t36.5 85.5t13 106q0 45 -12.5 62.5
t-32.5 17.5t-41.5 -18t-43.5 -47t-41.5 -65.5t-35 -74t-24.5 -72t-9 -59.5z" />
    <glyph glyph-name="ydieresis" unicode="&#xff;" horiz-adv-x="507" 
d="M150 -213q47 0 79.5 34.5t46.5 100.5l52 251h-4q-54 -100 -106 -142.5t-104 -42.5q-33 0 -50.5 14t-17.5 46q0 12 2 28.5t5 31.5l49 233q1 3 2 9.5t1 9.5q0 12 -10 12q-5 0 -13.5 -3.5t-17.5 -7t-16.5 -7t-11.5 -3.5q-5 0 -8 6t-4 13q17 10 40 23t45.5 23.5t40.5 18
t25 7.5q19 0 19 -20q0 -9 -2 -17l-58 -277q-6 -27 -6 -45q0 -28 30 -28q23 0 48 18t48 47t43.5 66.5t36 75.5t24.5 74.5t9 64.5q0 14 -3 28q40 3 82 14q6 -6 6 -12q0 -2 -1 -8.5t-2 -10.5l-90 -454q-11 -54 -36 -93.5t-57 -65.5t-68.5 -38.5t-69.5 -12.5q-71 0 -114 20
q8 23 12 40.5t7 42.5l17 6q14 -29 40.5 -49.5t59.5 -20.5zM183 568q0 25 15 40t33 15q21 0 32.5 -13t11.5 -34q0 -25 -14.5 -40t-33.5 -15q-20 0 -32 13t-12 34zM339 568q0 25 15 40t33 15q21 0 32.5 -13t11.5 -34q0 -25 -14.5 -40t-33.5 -15q-20 0 -32 13t-12 34z" />
    <glyph glyph-name="Amacron" unicode="&#x100;" 
d="M345 276l-39 233l-126 -233h165zM71 74q-7 -14 -7 -23q0 -12 13.5 -17.5t41.5 -9.5q18 -3 18 -15q0 -5 -2 -15q-30 3 -55.5 4.5t-53.5 1.5q-20 0 -41.5 -1t-47.5 -5l-2 8t-1 7q0 13 17 16q52 9 67 38l320 589q6 10 15 10q3 0 6 -1t5 -2l107 -593q3 -18 18 -27t39 -13
q13 -2 17 -6t4 -10q0 -5 -2 -15q-28 2 -53.5 3.5t-52.5 1.5q-59 0 -117 -6q-3 7 -3 15q0 13 19 16q13 2 28 9t15 22v6t-1 9l-30 167h-192zM247 739q4 31 13 43t27 12h211q-4 -31 -13 -43t-26 -12h-212z" />
    <glyph glyph-name="amacron" unicode="&#x101;" horiz-adv-x="469" 
d="M289 166h-4q-25 -49 -51 -83t-51.5 -55t-50 -30.5t-46.5 -9.5q-15 0 -28.5 4.5t-24 15.5t-16.5 30t-6 48q0 85 27.5 151t68.5 111.5t88.5 69.5t88.5 24q32 0 61.5 -3t66.5 -11l-69 -347q-2 -10 -2 -18q0 -13 11 -13q7 0 14.5 3.5t15 8t14 8t10.5 3.5q10 0 14 -20
q-18 -13 -37.5 -24.5t-37.5 -20.5t-34 -14.5t-26 -5.5q-11 0 -20 4.5t-9 19.5q0 5 1 11.5t3 13.5zM325 393q-12 4 -26.5 6.5t-27.5 2.5q-40 0 -72 -21t-55 -59t-35.5 -90t-12.5 -113q0 -36 9 -51.5t25 -15.5q20 0 43 18t44.5 47t41.5 65.5t34.5 74.5t23 73.5t8.5 62.5z
M189 543q4 31 13 43t27 12h211q-4 -31 -13 -43t-26 -12h-212z" />
    <glyph glyph-name="Abreve" unicode="&#x102;" 
d="M345 276l-39 233l-126 -233h165zM71 74q-7 -14 -7 -23q0 -12 13.5 -17.5t41.5 -9.5q18 -3 18 -15q0 -5 -2 -15q-30 3 -55.5 4.5t-53.5 1.5q-20 0 -41.5 -1t-47.5 -5l-2 8t-1 7q0 13 17 16q52 9 67 38l320 589q6 10 15 10q3 0 6 -1t5 -2l107 -593q3 -18 18 -27t39 -13
q13 -2 17 -6t4 -10q0 -5 -2 -15q-28 2 -53.5 3.5t-52.5 1.5q-59 0 -117 -6q-3 7 -3 15q0 13 19 16q13 2 28 9t15 22v6t-1 9l-30 167h-192zM381 772q24 0 47.5 15t50.5 54q28 -4 20 -22q-24 -55 -58 -81.5t-72 -26.5q-48 0 -70 30.5t-28 79.5q-1 9 3 14t19 6q16 -41 36.5 -55
t51.5 -14z" />
    <glyph glyph-name="abreve" unicode="&#x103;" horiz-adv-x="469" 
d="M289 166h-4q-25 -49 -51 -83t-51.5 -55t-50 -30.5t-46.5 -9.5q-15 0 -28.5 4.5t-24 15.5t-16.5 30t-6 48q0 85 27.5 151t68.5 111.5t88.5 69.5t88.5 24q32 0 61.5 -3t66.5 -11l-69 -347q-2 -10 -2 -18q0 -13 11 -13q7 0 14.5 3.5t15 8t14 8t10.5 3.5q10 0 14 -20
q-18 -13 -37.5 -24.5t-37.5 -20.5t-34 -14.5t-26 -5.5q-11 0 -20 4.5t-9 19.5q0 5 1 11.5t3 13.5zM325 393q-12 4 -26.5 6.5t-27.5 2.5q-40 0 -72 -21t-55 -59t-35.5 -90t-12.5 -113q0 -36 9 -51.5t25 -15.5q20 0 43 18t44.5 47t41.5 65.5t34.5 74.5t23 73.5t8.5 62.5z
M320 566q24 0 47.5 15t50.5 54q28 -4 20 -22q-24 -55 -58 -81.5t-72 -26.5q-48 0 -70 30.5t-28 79.5q-1 9 3 14t19 6q16 -41 36.5 -55t51.5 -14z" />
    <glyph glyph-name="Aogonek" unicode="&#x104;" 
d="M71 74q-7 -14 -7 -23q0 -12 13.5 -17.5t41.5 -9.5q18 -3 18 -15q0 -5 -2 -15q-30 3 -55.5 4.5t-53.5 1.5q-20 0 -41.5 -1t-47.5 -5l-2 8t-1 7q0 13 17 16q52 9 67 38l320 589q6 10 15 10q3 0 6 -1t5 -2l107 -593q3 -18 18 -27t39 -13q13 -2 17 -6t4 -10q0 -5 -2 -15
q-28 2 -53.5 3.5t-52.5 1.5q-33 0 -60 -12.5t-46.5 -32.5t-30.5 -44t-11 -47q0 -18 7.5 -28.5t21.5 -10.5q16 0 45 13q10 5 15 1.5t7 -19.5q-29 -17 -59.5 -31t-53.5 -14q-28 0 -43 18t-15 44q0 25 9.5 43.5t26.5 40.5q17 23 41.5 44.5t44.5 36.5q17 13 30 25.5t13 25.5v9
t-1 9l-30 167h-192zM345 276l-39 233l-126 -233h165z" />
    <glyph glyph-name="aogonek" unicode="&#x105;" horiz-adv-x="469" 
d="M289 166h-4q-25 -49 -51 -83t-51.5 -55t-50 -30.5t-46.5 -9.5q-15 0 -28.5 4.5t-24 15.5t-16.5 30t-6 48q0 85 27.5 151t68.5 111.5t88.5 69.5t88.5 24q32 0 61.5 -3t66.5 -11l-69 -347q-2 -10 -2 -18q0 -13 11 -13q7 0 14.5 3.5t15 8t14 8t10.5 3.5q10 0 14 -20
q-15 -11 -30 -21.5t-30 -21.5q-57 -39 -76.5 -76.5t-19.5 -69.5q0 -18 7.5 -28.5t21.5 -10.5q16 0 45 13q10 5 15 1.5t7 -19.5q-29 -17 -59.5 -31t-53.5 -14q-28 0 -43 18t-15 44q0 25 8.5 44t25.5 42q14 19 28 34.5t29 30.5q-9 1 -16.5 6t-7.5 18q0 5 1 11.5t3 13.5z
M325 393q-12 4 -26.5 6.5t-27.5 2.5q-40 0 -72 -21t-55 -59t-35.5 -90t-12.5 -113q0 -36 9 -51.5t25 -15.5q20 0 43 18t44.5 47t41.5 65.5t34.5 74.5t23 73.5t8.5 62.5z" />
    <glyph glyph-name="Cacute" unicode="&#x106;" horiz-adv-x="613" 
d="M326 -12q-79 0 -134.5 21t-90.5 57.5t-51 85t-16 104.5q0 73 24 145.5t72 130.5t120.5 94t170.5 36q50 0 96.5 -8t89.5 -22q-3 -29 -3 -57q0 -20 1.5 -40t3.5 -40q-7 -5 -18 -5q-19 0 -20 15q-9 66 -49 92t-107 26q-66 0 -118 -28.5t-88.5 -77.5t-55.5 -114.5t-19 -138.5
q0 -54 14.5 -97.5t40.5 -74t63.5 -47.5t84.5 -17q68 0 107.5 28t68.5 90q7 16 24 16q6 0 12.5 -2.5t8.5 -4.5q-15 -32 -26.5 -67.5t-23.5 -79.5q-22 -4 -47 -7.5t-50 -6.5t-47 -4.5t-38 -1.5zM511 855q49 -22 49 -50q0 -12 -8.5 -18t-18.5 -9q-23 -8 -41.5 -14.5
t-36.5 -14.5t-37.5 -17.5t-44.5 -21.5q-11 9 -11 17q0 3 1.5 6.5t7.5 8.5z" />
    <glyph glyph-name="cacute" unicode="&#x107;" horiz-adv-x="383" 
d="M244 404q-35 0 -61.5 -20t-44 -53.5t-26.5 -78.5t-9 -95q0 -24 4.5 -45.5t15 -37.5t29 -25.5t45.5 -9.5q29 0 56 11.5t53 28.5q2 2 5 3.5t5 1.5q8 0 10.5 -7.5t3.5 -12.5q-15 -13 -34 -26.5t-41.5 -24.5t-47.5 -18t-52 -7q-38 0 -64 14t-42 36.5t-22.5 51t-6.5 58.5
q0 55 16.5 108t46.5 94.5t72.5 66.5t93.5 25q61 0 120 -28q-5 -15 -9 -42t-6 -48l-15 1q-15 1 -18 15q-10 36 -30.5 50t-46.5 14zM337 663q26 -5 42.5 -17.5t16.5 -26.5q0 -16 -21 -29q-20 -12 -36.5 -23t-33 -22.5t-35 -25.5t-40.5 -32q-7 5 -11 9t-4 11q0 6 5 12z" />
    <glyph glyph-name="Ccircumflex" unicode="&#x108;" horiz-adv-x="613" 
d="M326 -12q-79 0 -134.5 21t-90.5 57.5t-51 85t-16 104.5q0 73 24 145.5t72 130.5t120.5 94t170.5 36q50 0 96.5 -8t89.5 -22q-3 -29 -3 -57q0 -20 1.5 -40t3.5 -40q-7 -5 -18 -5q-19 0 -20 15q-9 66 -49 92t-107 26q-66 0 -118 -28.5t-88.5 -77.5t-55.5 -114.5t-19 -138.5
q0 -54 14.5 -97.5t40.5 -74t63.5 -47.5t84.5 -17q68 0 107.5 28t68.5 90q7 16 24 16q6 0 12.5 -2.5t8.5 -4.5q-15 -32 -26.5 -67.5t-23.5 -79.5q-22 -4 -47 -7.5t-50 -6.5t-47 -4.5t-38 -1.5zM564 747q5 -6 5 -13q0 -14 -23 -24q-23 19 -45.5 35.5t-51.5 31.5
q-32 -15 -61 -31t-65 -36q-17 8 -17 19q0 8 8 15l128 112q26 0 37 -4.5t22 -20.5z" />
    <glyph glyph-name="ccircumflex" unicode="&#x109;" horiz-adv-x="383" 
d="M244 404q-35 0 -61.5 -20t-44 -53.5t-26.5 -78.5t-9 -95q0 -24 4.5 -45.5t15 -37.5t29 -25.5t45.5 -9.5q29 0 56 11.5t53 28.5q2 2 5 3.5t5 1.5q8 0 10.5 -7.5t3.5 -12.5q-15 -13 -34 -26.5t-41.5 -24.5t-47.5 -18t-52 -7q-38 0 -64 14t-42 36.5t-22.5 51t-6.5 58.5
q0 55 16.5 108t46.5 94.5t72.5 66.5t93.5 25q61 0 120 -28q-5 -15 -9 -42t-6 -48l-15 1q-15 1 -18 15q-10 36 -30.5 50t-46.5 14zM385 520q3 -8 2 -15.5t-19 -15.5q-25 30 -43.5 52t-39.5 41q-31 -19 -62 -42.5t-66 -52.5q-16 11 -16 19t5 14l122 141q29 1 43.5 -2.5
t20.5 -17.5z" />
    <glyph glyph-name="Cdotaccent" unicode="&#x10a;" horiz-adv-x="613" 
d="M326 -12q-79 0 -134.5 21t-90.5 57.5t-51 85t-16 104.5q0 73 24 145.5t72 130.5t120.5 94t170.5 36q50 0 96.5 -8t89.5 -22q-3 -29 -3 -57q0 -20 1.5 -40t3.5 -40q-7 -5 -18 -5q-19 0 -20 15q-9 66 -49 92t-107 26q-66 0 -118 -28.5t-88.5 -77.5t-55.5 -114.5t-19 -138.5
q0 -54 14.5 -97.5t40.5 -74t63.5 -47.5t84.5 -17q68 0 107.5 28t68.5 90q7 16 24 16q6 0 12.5 -2.5t8.5 -4.5q-15 -32 -26.5 -67.5t-23.5 -79.5q-22 -4 -47 -7.5t-50 -6.5t-47 -4.5t-38 -1.5zM384 761q0 28 16.5 43.5t36.5 15.5q23 0 35 -13.5t12 -37.5q0 -28 -16 -43.5
t-35 -15.5q-24 0 -36.5 13.5t-12.5 37.5z" />
    <glyph glyph-name="cdotaccent" unicode="&#x10b;" horiz-adv-x="383" 
d="M244 404q-35 0 -61.5 -20t-44 -53.5t-26.5 -78.5t-9 -95q0 -24 4.5 -45.5t15 -37.5t29 -25.5t45.5 -9.5q29 0 56 11.5t53 28.5q2 2 5 3.5t5 1.5q8 0 10.5 -7.5t3.5 -12.5q-15 -13 -34 -26.5t-41.5 -24.5t-47.5 -18t-52 -7q-38 0 -64 14t-42 36.5t-22.5 51t-6.5 58.5
q0 55 16.5 108t46.5 94.5t72.5 66.5t93.5 25q61 0 120 -28q-5 -15 -9 -42t-6 -48l-15 1q-15 1 -18 15q-10 36 -30.5 50t-46.5 14zM217 568q0 28 16.5 43.5t36.5 15.5q23 0 35 -13.5t12 -37.5q0 -28 -16 -43.5t-35 -15.5q-24 0 -36.5 13.5t-12.5 37.5z" />
    <glyph glyph-name="Ccaron" unicode="&#x10c;" horiz-adv-x="613" 
d="M326 -12q-79 0 -134.5 21t-90.5 57.5t-51 85t-16 104.5q0 73 24 145.5t72 130.5t120.5 94t170.5 36q50 0 96.5 -8t89.5 -22q-3 -29 -3 -57q0 -20 1.5 -40t3.5 -40q-7 -5 -18 -5q-19 0 -20 15q-9 66 -49 92t-107 26q-66 0 -118 -28.5t-88.5 -77.5t-55.5 -114.5t-19 -138.5
q0 -54 14.5 -97.5t40.5 -74t63.5 -47.5t84.5 -17q68 0 107.5 28t68.5 90q7 16 24 16q6 0 12.5 -2.5t8.5 -4.5q-15 -32 -26.5 -67.5t-23.5 -79.5q-22 -4 -47 -7.5t-50 -6.5t-47 -4.5t-38 -1.5zM314 816q-5 6 -5 13q0 14 23 24q23 -19 45.5 -35.5t51.5 -31.5q32 15 61 31
t65 36q17 -9 17 -19q0 -8 -8 -15l-128 -112q-26 0 -37 4.5t-22 20.5z" />
    <glyph glyph-name="ccaron" unicode="&#x10d;" horiz-adv-x="383" 
d="M244 404q-35 0 -61.5 -20t-44 -53.5t-26.5 -78.5t-9 -95q0 -24 4.5 -45.5t15 -37.5t29 -25.5t45.5 -9.5q29 0 56 11.5t53 28.5q2 2 5 3.5t5 1.5q8 0 10.5 -7.5t3.5 -12.5q-15 -13 -34 -26.5t-41.5 -24.5t-47.5 -18t-52 -7q-38 0 -64 14t-42 36.5t-22.5 51t-6.5 58.5
q0 55 16.5 108t46.5 94.5t72.5 66.5t93.5 25q61 0 120 -28q-5 -15 -9 -42t-6 -48l-15 1q-15 1 -18 15q-10 36 -30.5 50t-46.5 14zM177 629q-4 8 -2 16t19 16q23 -32 41.5 -53.5t40.5 -42.5q30 22 56 43.5t61 53.5q17 -10 16.5 -18.5t-5.5 -13.5l-117 -142q-29 -1 -41 4.5
t-18 19.5z" />
    <glyph glyph-name="Dcaron" unicode="&#x10e;" horiz-adv-x="722" 
d="M588 366q0 66 -17.5 113t-51 76.5t-82.5 43t-112 13.5h-51l-103 -541q-3 -19 4.5 -26t26.5 -7h48q67 0 128.5 18.5t108 58t74 102t27.5 149.5zM183 582q4 21 -8.5 29t-44.5 13q-12 1 -12 15q0 3 0.5 7.5t1.5 9.5q30 -3 59 -4.5t55 -1.5h138q69 0 127 -17t100 -51
t65.5 -85.5t23.5 -119.5q0 -84 -32.5 -153.5t-88.5 -119t-132 -77t-164 -27.5h-151q-21 0 -54 -1.5t-60 -4.5q-2 10 -2 16q0 12 12 15q30 6 47 14.5t21 28.5zM309 816q-5 6 -5 13q0 14 23 24q23 -19 45.5 -35.5t51.5 -31.5q32 15 61 31t65 36q17 -9 17 -19q0 -8 -8 -15
l-128 -112q-26 0 -37 4.5t-22 20.5z" />
    <glyph glyph-name="dcaron" unicode="&#x10f;" horiz-adv-x="521" 
d="M351 518q2 12 4.5 26.5t4 28.5t2.5 26.5t1 20.5q0 5 -1.5 10t-8.5 5q-3 0 -10.5 -1.5t-16 -3t-16 -2.5t-10.5 -1q-13 0 -13 21q45 12 83 24.5t76 27.5q8 -5 10 -9t2 -8q0 -8 -2 -18l-114 -586q-1 -5 -2 -9.5t-1 -7.5q0 -12 12 -12q7 0 14.5 3.5t15 8t14 8t10.5 3.5
q10 0 13 -20q-17 -13 -36.5 -24.5t-37.5 -20.5t-34 -14.5t-26 -5.5q-11 0 -20 4.5t-9 21.5q0 8 3 23l30 129h-4q-47 -94 -94 -136t-96 -42q-15 0 -29.5 4.5t-26.5 16.5t-19.5 32.5t-7.5 52.5q0 85 25 150t64 109t86 66.5t91 22.5q32 0 58 -3zM324 393q-12 4 -29 6.5t-31 2.5
q-39 0 -70 -21.5t-52.5 -58.5t-33.5 -87t-12 -107q0 -42 10 -59t30 -17q19 0 40 18t42 47t40 66t33.5 75t23.5 73.5t9 61.5zM530 694q13 8 27 13t27 5q22 0 31 -12t-2 -34q-11 -21 -20 -41t-17.5 -41t-17 -43.5t-18.5 -49.5q-5 -1 -8.5 -1.5t-7.5 -0.5q-20 0 -17 22z" />
    <glyph glyph-name="Dcroat" unicode="&#x110;" horiz-adv-x="722" 
d="M183 582q4 21 -8.5 29t-44.5 13q-12 1 -12 15q0 3 0.5 7.5t1.5 9.5q30 -3 59 -4.5t55 -1.5h138q69 0 127 -17t100 -51t65.5 -85.5t23.5 -119.5q0 -84 -32.5 -153.5t-88.5 -119t-132 -77t-164 -27.5h-151q-21 0 -54 -1.5t-60 -4.5q-2 10 -2 16q0 12 12 15q30 6 47 14.5
t21 28.5l47 244h-70q4 29 12.5 37t27.5 8h38zM407 357q-3 -29 -12.5 -37t-27.5 -8h-150l-46 -241q-3 -19 4.5 -26t26.5 -7h48q67 0 128.5 18.5t108 58t74 102t27.5 149.5q0 66 -17.5 113t-51 76.5t-82.5 43t-112 13.5h-51l-49 -255h182z" />
    <glyph glyph-name="dcroat" unicode="&#x111;" horiz-adv-x="468" 
d="M350 515h-130q2 16 5 25t7.5 13t11.5 4.5t16 0.5h97q3 18 4.5 35t1.5 27q0 5 -1.5 10t-8.5 5q-3 0 -10.5 -1.5t-16 -3t-16 -2.5t-10.5 -1q-13 0 -13 21q45 12 83 24.5t76 27.5q8 -5 10 -9t2 -8q0 -8 -2 -18l-21 -107h79q-2 -16 -5 -25t-8 -13t-11.5 -4.5t-15.5 -0.5h-48
l-84 -436q-1 -5 -2 -9.5t-1 -7.5q0 -12 12 -12q7 0 14.5 3.5t15 8t14 8t10.5 3.5q10 0 13 -20q-17 -13 -36.5 -24.5t-37.5 -20.5t-34 -14.5t-26 -5.5q-11 0 -20 4.5t-9 21.5q0 8 3 23l30 129h-4q-47 -94 -94 -136t-96 -42q-15 0 -29.5 4.5t-26.5 16.5t-19.5 32.5t-7.5 52.5
q0 85 25 150t64 109t86 66.5t91 22.5q32 0 58 -3zM324 393q-12 4 -29 6.5t-31 2.5q-39 0 -70 -21.5t-52.5 -58.5t-33.5 -87t-12 -107q0 -42 10 -59t30 -17q19 0 40 18t42 47t40 66t33.5 75t23.5 73.5t9 61.5z" />
    <glyph glyph-name="Emacron" unicode="&#x112;" horiz-adv-x="555" 
d="M183 582q4 20 -11 29t-39 12q-14 3 -14 17q0 3 0.5 7t1.5 9q30 -3 61 -4.5t58 -1.5h189q43 0 60 3t28 3q13 0 16 -12q2 -17 5 -51.5t12 -78.5q-4 -2 -10 -4.5t-11 -2.5q-13 0 -17 12q-13 51 -38 72t-75 21h-125l-50 -261h137q22 0 32 15t18 41q2 5 5.5 8t11.5 3
q9 0 19 -4q-6 -24 -10.5 -43.5t-8 -39.5t-6 -42t-4.5 -50q-9 -3 -18 -3t-12.5 5t-2.5 11q2 23 -4 42t-28 19h-136l-47 -248q-3 -16 4.5 -21.5t24.5 -5.5h115q43 0 77 22t71 76q4 5 7.5 7.5t9.5 2.5t12 -3t11 -8q-5 -10 -10 -21q-5 -9 -10 -21l-10 -24q-8 -20 -13 -39
t-10 -27t-16 -8q-17 0 -34 2.5t-46 2.5h-236q-21 0 -51.5 -1.5t-57.5 -4.5q-1 5 -1.5 9t-0.5 7q0 5 3 10t11 6q31 5 46 15t18 27zM246 739q4 31 13 43t27 12h211q-4 -31 -13 -43t-26 -12h-212z" />
    <glyph glyph-name="emacron" unicode="&#x113;" horiz-adv-x="384" 
d="M105 233q95 8 135 39t40 78q0 28 -13.5 42.5t-36.5 14.5q-24 0 -44.5 -14.5t-37 -38.5t-27.5 -55.5t-16 -65.5zM102 203q-1 -10 -1.5 -20t-0.5 -21q0 -23 4 -45t14 -39t27.5 -27.5t44.5 -10.5q26 0 54 9.5t57 29.5q10 7 14 7q8 0 10.5 -8t2.5 -12q-15 -14 -34 -28
t-41 -25t-47 -18t-52 -7q-42 0 -68.5 15.5t-42 40t-21 53.5t-5.5 56q0 53 16.5 105t46.5 93t73 66t96 25q21 0 41 -5.5t35.5 -16.5t25 -29t9.5 -43q0 -37 -19.5 -63.5t-54 -44t-81.5 -26.5t-103 -11zM134 543q4 31 13 43t27 12h211q-4 -31 -13 -43t-26 -12h-212z" />
    <glyph glyph-name="Ebreve" unicode="&#x114;" horiz-adv-x="555" 
d="M183 582q4 20 -11 29t-39 12q-14 3 -14 17q0 3 0.5 7t1.5 9q30 -3 61 -4.5t58 -1.5h189q43 0 60 3t28 3q13 0 16 -12q2 -17 5 -51.5t12 -78.5q-4 -2 -10 -4.5t-11 -2.5q-13 0 -17 12q-13 51 -38 72t-75 21h-125l-50 -261h137q22 0 32 15t18 41q2 5 5.5 8t11.5 3
q9 0 19 -4q-6 -24 -10.5 -43.5t-8 -39.5t-6 -42t-4.5 -50q-9 -3 -18 -3t-12.5 5t-2.5 11q2 23 -4 42t-28 19h-136l-47 -248q-3 -16 4.5 -21.5t24.5 -5.5h115q43 0 77 22t71 76q4 5 7.5 7.5t9.5 2.5t12 -3t11 -8q-5 -10 -10 -21q-5 -9 -10 -21l-10 -24q-8 -20 -13 -39
t-10 -27t-16 -8q-17 0 -34 2.5t-46 2.5h-236q-21 0 -51.5 -1.5t-57.5 -4.5q-1 5 -1.5 9t-0.5 7q0 5 3 10t11 6q31 5 46 15t18 27zM380 772q24 0 47.5 15t50.5 54q28 -4 20 -22q-24 -55 -58 -81.5t-72 -26.5q-48 0 -70 30.5t-28 79.5q-1 9 3 14t19 6q16 -41 36.5 -55
t51.5 -14z" />
    <glyph glyph-name="ebreve" unicode="&#x115;" horiz-adv-x="384" 
d="M105 233q95 8 135 39t40 78q0 28 -13.5 42.5t-36.5 14.5q-24 0 -44.5 -14.5t-37 -38.5t-27.5 -55.5t-16 -65.5zM102 203q-1 -10 -1.5 -20t-0.5 -21q0 -23 4 -45t14 -39t27.5 -27.5t44.5 -10.5q26 0 54 9.5t57 29.5q10 7 14 7q8 0 10.5 -8t2.5 -12q-15 -14 -34 -28
t-41 -25t-47 -18t-52 -7q-42 0 -68.5 15.5t-42 40t-21 53.5t-5.5 56q0 53 16.5 105t46.5 93t73 66t96 25q21 0 41 -5.5t35.5 -16.5t25 -29t9.5 -43q0 -37 -19.5 -63.5t-54 -44t-81.5 -26.5t-103 -11zM260 566q24 0 47.5 15t50.5 54q28 -4 20 -22q-24 -55 -58 -81.5
t-72 -26.5q-48 0 -70 30.5t-28 79.5q-1 9 3 14t19 6q16 -41 36.5 -55t51.5 -14z" />
    <glyph glyph-name="Edotaccent" unicode="&#x116;" horiz-adv-x="555" 
d="M183 582q4 20 -11 29t-39 12q-14 3 -14 17q0 3 0.5 7t1.5 9q30 -3 61 -4.5t58 -1.5h189q43 0 60 3t28 3q13 0 16 -12q2 -17 5 -51.5t12 -78.5q-4 -2 -10 -4.5t-11 -2.5q-13 0 -17 12q-13 51 -38 72t-75 21h-125l-50 -261h137q22 0 32 15t18 41q2 5 5.5 8t11.5 3
q9 0 19 -4q-6 -24 -10.5 -43.5t-8 -39.5t-6 -42t-4.5 -50q-9 -3 -18 -3t-12.5 5t-2.5 11q2 23 -4 42t-28 19h-136l-47 -248q-3 -16 4.5 -21.5t24.5 -5.5h115q43 0 77 22t71 76q4 5 7.5 7.5t9.5 2.5t12 -3t11 -8q-5 -10 -10 -21q-5 -9 -10 -21l-10 -24q-8 -20 -13 -39
t-10 -27t-16 -8q-17 0 -34 2.5t-46 2.5h-236q-21 0 -51.5 -1.5t-57.5 -4.5q-1 5 -1.5 9t-0.5 7q0 5 3 10t11 6q31 5 46 15t18 27zM322 761q0 28 16.5 43.5t36.5 15.5q23 0 35 -13.5t12 -37.5q0 -28 -16 -43.5t-35 -15.5q-24 0 -36.5 13.5t-12.5 37.5z" />
    <glyph glyph-name="edotaccent" unicode="&#x117;" horiz-adv-x="384" 
d="M105 233q95 8 135 39t40 78q0 28 -13.5 42.5t-36.5 14.5q-24 0 -44.5 -14.5t-37 -38.5t-27.5 -55.5t-16 -65.5zM102 203q-1 -10 -1.5 -20t-0.5 -21q0 -23 4 -45t14 -39t27.5 -27.5t44.5 -10.5q26 0 54 9.5t57 29.5q10 7 14 7q8 0 10.5 -8t2.5 -12q-15 -14 -34 -28
t-41 -25t-47 -18t-52 -7q-42 0 -68.5 15.5t-42 40t-21 53.5t-5.5 56q0 53 16.5 105t46.5 93t73 66t96 25q21 0 41 -5.5t35.5 -16.5t25 -29t9.5 -43q0 -37 -19.5 -63.5t-54 -44t-81.5 -26.5t-103 -11zM207 568q0 28 16.5 43.5t36.5 15.5q23 0 35 -13.5t12 -37.5
q0 -28 -16 -43.5t-35 -15.5q-24 0 -36.5 13.5t-12.5 37.5z" />
    <glyph glyph-name="Eogonek" unicode="&#x118;" horiz-adv-x="555" 
d="M183 582q4 20 -11 29t-39 12q-14 3 -14 17q0 3 0.5 7t1.5 9q30 -3 61 -4.5t58 -1.5h189q43 0 60 3t28 3q13 0 16 -12q2 -17 5 -51.5t12 -78.5q-4 -2 -10 -4.5t-11 -2.5q-13 0 -17 12q-13 51 -38 72t-75 21h-125l-50 -261h137q22 0 32 15t18 41q2 5 5.5 8t11.5 3
q9 0 19 -4q-6 -24 -10.5 -43.5t-8 -39.5t-6 -42t-4.5 -50q-9 -3 -18 -3t-12.5 5t-2.5 11q2 23 -4 42t-28 19h-136l-47 -248q-3 -16 4.5 -21.5t24.5 -5.5h115q43 0 77 22t71 76q4 5 7.5 7.5t9.5 2.5t12 -3t11 -8q-5 -10 -10 -21q-5 -9 -10 -21l-10 -24q-8 -20 -13 -39
t-10 -27q-7 -12 -23 -13q-18 -2 -35.5 -13.5t-31.5 -29.5t-23 -40t-9 -43q0 -18 7.5 -28.5t21.5 -10.5q16 0 45 13q10 5 15 1.5t7 -19.5q-29 -17 -59.5 -31t-53.5 -14q-28 0 -43 18t-15 44q0 25 9 45.5t27 41.5t36 39t39 37h-246q-21 0 -51.5 -1.5t-57.5 -4.5q-1 5 -1.5 9
t-0.5 7q0 5 3 10t11 6q31 5 46 15t18 27z" />
    <glyph glyph-name="eogonek" unicode="&#x119;" horiz-adv-x="384" 
d="M102 203q-1 -10 -1.5 -20t-0.5 -21q0 -23 4 -45t14 -39t27.5 -27.5t44.5 -10.5q26 0 54 9.5t57 29.5q10 7 14 7q8 0 10.5 -8t2.5 -12q-20 -19 -43.5 -34t-52.5 -33q-23 -15 -39.5 -32.5t-27 -35.5t-15.5 -35.5t-5 -31.5q0 -18 7.5 -28.5t21.5 -10.5q16 0 45 13
q10 5 15 1.5t7 -19.5q-29 -17 -59.5 -31t-53.5 -14q-28 0 -43 18t-15 44q0 25 8.5 44t25.5 42q11 16 27 33t31 32h-8q-42 0 -68.5 15.5t-42 40t-21 53.5t-5.5 56q0 53 16.5 105t46.5 93t73 66t96 25q21 0 41 -5.5t35.5 -16.5t25 -29t9.5 -43q0 -37 -19.5 -63.5t-54 -44
t-81.5 -26.5t-103 -11zM105 233q95 8 135 39t40 78q0 28 -13.5 42.5t-36.5 14.5q-24 0 -44.5 -14.5t-37 -38.5t-27.5 -55.5t-16 -65.5z" />
    <glyph glyph-name="Ecaron" unicode="&#x11a;" horiz-adv-x="555" 
d="M183 582q4 20 -11 29t-39 12q-14 3 -14 17q0 3 0.5 7t1.5 9q30 -3 61 -4.5t58 -1.5h189q43 0 60 3t28 3q13 0 16 -12q2 -17 5 -51.5t12 -78.5q-4 -2 -10 -4.5t-11 -2.5q-13 0 -17 12q-13 51 -38 72t-75 21h-125l-50 -261h137q22 0 32 15t18 41q2 5 5.5 8t11.5 3
q9 0 19 -4q-6 -24 -10.5 -43.5t-8 -39.5t-6 -42t-4.5 -50q-9 -3 -18 -3t-12.5 5t-2.5 11q2 23 -4 42t-28 19h-136l-47 -248q-3 -16 4.5 -21.5t24.5 -5.5h115q43 0 77 22t71 76q4 5 7.5 7.5t9.5 2.5t12 -3t11 -8q-5 -10 -10 -21q-5 -9 -10 -21l-10 -24q-8 -20 -13 -39
t-10 -27t-16 -8q-17 0 -34 2.5t-46 2.5h-236q-21 0 -51.5 -1.5t-57.5 -4.5q-1 5 -1.5 9t-0.5 7q0 5 3 10t11 6q31 5 46 15t18 27zM260 816q-5 6 -5 13q0 14 23 24q23 -19 45.5 -35.5t51.5 -31.5q32 15 61 31t65 36q17 -9 17 -19q0 -8 -8 -15l-128 -112q-26 0 -37 4.5
t-22 20.5z" />
    <glyph glyph-name="ecaron" unicode="&#x11b;" horiz-adv-x="384" 
d="M105 233q95 8 135 39t40 78q0 28 -13.5 42.5t-36.5 14.5q-24 0 -44.5 -14.5t-37 -38.5t-27.5 -55.5t-16 -65.5zM102 203q-1 -10 -1.5 -20t-0.5 -21q0 -23 4 -45t14 -39t27.5 -27.5t44.5 -10.5q26 0 54 9.5t57 29.5q10 7 14 7q8 0 10.5 -8t2.5 -12q-15 -14 -34 -28
t-41 -25t-47 -18t-52 -7q-42 0 -68.5 15.5t-42 40t-21 53.5t-5.5 56q0 53 16.5 105t46.5 93t73 66t96 25q21 0 41 -5.5t35.5 -16.5t25 -29t9.5 -43q0 -37 -19.5 -63.5t-54 -44t-81.5 -26.5t-103 -11zM156 629q-4 8 -2 16t19 16q23 -32 41.5 -53.5t40.5 -42.5q30 22 56 43.5
t61 53.5q17 -10 16.5 -18.5t-5.5 -13.5l-117 -142q-29 -1 -41 4.5t-18 19.5z" />
    <glyph glyph-name="Gcircumflex" unicode="&#x11c;" horiz-adv-x="660" 
d="M476 205q2 10 -2.5 17.5t-12.5 12.5t-17.5 8t-17.5 5q-4 1 -8 3.5t-4 10.5q0 5 3 16q61 -6 114 -6q21 0 48.5 1.5t53.5 4.5q2 -10 2 -14q0 -14 -13 -17q-24 -4 -39.5 -14t-19.5 -29l-35 -181q-2 -11 -10 -17.5t-26 -8.5q-44 -5 -88 -7t-96 -2q-71 0 -122.5 21t-84.5 58
t-49 87t-16 107q0 69 23.5 140.5t70.5 129.5t119 94.5t169 36.5q50 0 96 -7.5t98 -21.5q-3 -41 -2.5 -70.5t4.5 -66.5q-6 -6 -18 -6q-17 0 -20 15q-9 63 -47.5 90.5t-109.5 27.5t-124 -29t-88.5 -78t-53.5 -114.5t-18 -137.5q0 -54 14 -97.5t40.5 -74t64 -47.5t84.5 -17
q30 0 59.5 1.5t46.5 5.5zM552 747q5 -6 5 -13q0 -14 -23 -24q-23 19 -45.5 35.5t-51.5 31.5q-32 -15 -61 -31t-65 -36q-17 8 -17 19q0 8 8 15l128 112q26 0 37 -4.5t22 -20.5z" />
    <glyph glyph-name="gcircumflex" unicode="&#x11d;" horiz-adv-x="443" 
d="M323 393q-12 4 -28 6.5t-30 2.5q-43 0 -75 -22t-53.5 -60t-32 -89t-10.5 -109q0 -37 10 -53.5t30 -16.5q18 0 39 18.5t42.5 48t41 66.5t34.5 75t23.5 73t8.5 60zM8 -142q14 -30 43 -50.5t63 -20.5q42 0 74 34.5t46 100.5l49 240h-4q-42 -88 -92.5 -131t-96.5 -43
q-15 0 -30 4.5t-26 16t-18 31t-7 50.5q0 81 24.5 146.5t63.5 111t86.5 70t92.5 24.5q35 0 64.5 -3t69.5 -11l-92 -470q-11 -57 -37 -96.5t-58 -65t-67.5 -37t-65.5 -11.5q-75 0 -117 20q7 22 11 38t7 42zM399 520q3 -8 2 -15.5t-19 -15.5q-25 30 -43.5 52t-39.5 41
q-31 -19 -62 -42.5t-66 -52.5q-16 11 -16 19t5 14l122 141q29 1 43.5 -2.5t20.5 -17.5z" />
    <glyph glyph-name="Gbreve" unicode="&#x11e;" horiz-adv-x="660" 
d="M476 205q2 10 -2.5 17.5t-12.5 12.5t-17.5 8t-17.5 5q-4 1 -8 3.5t-4 10.5q0 5 3 16q61 -6 114 -6q21 0 48.5 1.5t53.5 4.5q2 -10 2 -14q0 -14 -13 -17q-24 -4 -39.5 -14t-19.5 -29l-35 -181q-2 -11 -10 -17.5t-26 -8.5q-44 -5 -88 -7t-96 -2q-71 0 -122.5 21t-84.5 58
t-49 87t-16 107q0 69 23.5 140.5t70.5 129.5t119 94.5t169 36.5q50 0 96 -7.5t98 -21.5q-3 -41 -2.5 -70.5t4.5 -66.5q-6 -6 -18 -6q-17 0 -20 15q-9 63 -47.5 90.5t-109.5 27.5t-124 -29t-88.5 -78t-53.5 -114.5t-18 -137.5q0 -54 14 -97.5t40.5 -74t64 -47.5t84.5 -17
q30 0 59.5 1.5t46.5 5.5zM437 772q24 0 47.5 15t50.5 54q28 -4 20 -22q-24 -55 -58 -81.5t-72 -26.5q-48 0 -70 30.5t-28 79.5q-1 9 3 14t19 6q16 -41 36.5 -55t51.5 -14z" />
    <glyph glyph-name="gbreve" unicode="&#x11f;" horiz-adv-x="443" 
d="M323 393q-12 4 -28 6.5t-30 2.5q-43 0 -75 -22t-53.5 -60t-32 -89t-10.5 -109q0 -37 10 -53.5t30 -16.5q18 0 39 18.5t42.5 48t41 66.5t34.5 75t23.5 73t8.5 60zM8 -142q14 -30 43 -50.5t63 -20.5q42 0 74 34.5t46 100.5l49 240h-4q-42 -88 -92.5 -131t-96.5 -43
q-15 0 -30 4.5t-26 16t-18 31t-7 50.5q0 81 24.5 146.5t63.5 111t86.5 70t92.5 24.5q35 0 64.5 -3t69.5 -11l-92 -470q-11 -57 -37 -96.5t-58 -65t-67.5 -37t-65.5 -11.5q-75 0 -117 20q7 22 11 38t7 42zM304 566q24 0 47.5 15t50.5 54q28 -4 20 -22q-24 -55 -58 -81.5
t-72 -26.5q-48 0 -70 30.5t-28 79.5q-1 9 3 14t19 6q16 -41 36.5 -55t51.5 -14z" />
    <glyph glyph-name="Gdotaccent" unicode="&#x120;" horiz-adv-x="660" 
d="M476 205q2 10 -2.5 17.5t-12.5 12.5t-17.5 8t-17.5 5q-4 1 -8 3.5t-4 10.5q0 5 3 16q61 -6 114 -6q21 0 48.5 1.5t53.5 4.5q2 -10 2 -14q0 -14 -13 -17q-24 -4 -39.5 -14t-19.5 -29l-35 -181q-2 -11 -10 -17.5t-26 -8.5q-44 -5 -88 -7t-96 -2q-71 0 -122.5 21t-84.5 58
t-49 87t-16 107q0 69 23.5 140.5t70.5 129.5t119 94.5t169 36.5q50 0 96 -7.5t98 -21.5q-3 -41 -2.5 -70.5t4.5 -66.5q-6 -6 -18 -6q-17 0 -20 15q-9 63 -47.5 90.5t-109.5 27.5t-124 -29t-88.5 -78t-53.5 -114.5t-18 -137.5q0 -54 14 -97.5t40.5 -74t64 -47.5t84.5 -17
q30 0 59.5 1.5t46.5 5.5zM375 761q0 28 16.5 43.5t36.5 15.5q23 0 35 -13.5t12 -37.5q0 -28 -16 -43.5t-35 -15.5q-24 0 -36.5 13.5t-12.5 37.5z" />
    <glyph glyph-name="gdotaccent" unicode="&#x121;" horiz-adv-x="443" 
d="M323 393q-12 4 -28 6.5t-30 2.5q-43 0 -75 -22t-53.5 -60t-32 -89t-10.5 -109q0 -37 10 -53.5t30 -16.5q18 0 39 18.5t42.5 48t41 66.5t34.5 75t23.5 73t8.5 60zM8 -142q14 -30 43 -50.5t63 -20.5q42 0 74 34.5t46 100.5l49 240h-4q-42 -88 -92.5 -131t-96.5 -43
q-15 0 -30 4.5t-26 16t-18 31t-7 50.5q0 81 24.5 146.5t63.5 111t86.5 70t92.5 24.5q35 0 64.5 -3t69.5 -11l-92 -470q-11 -57 -37 -96.5t-58 -65t-67.5 -37t-65.5 -11.5q-75 0 -117 20q7 22 11 38t7 42zM234 568q0 28 16.5 43.5t36.5 15.5q23 0 35 -13.5t12 -37.5
q0 -28 -16 -43.5t-35 -15.5q-24 0 -36.5 13.5t-12.5 37.5z" />
    <glyph glyph-name="Gcommaaccent" unicode="&#x122;" horiz-adv-x="660" 
d="M476 205q2 10 -2.5 17.5t-12.5 12.5t-17.5 8t-17.5 5q-4 1 -8 3.5t-4 10.5q0 5 3 16q61 -6 114 -6q21 0 48.5 1.5t53.5 4.5q2 -10 2 -14q0 -14 -13 -17q-24 -4 -39.5 -14t-19.5 -29l-35 -181q-2 -11 -10 -17.5t-26 -8.5q-44 -5 -88 -7t-96 -2q-71 0 -122.5 21t-84.5 58
t-49 87t-16 107q0 69 23.5 140.5t70.5 129.5t119 94.5t169 36.5q50 0 96 -7.5t98 -21.5q-3 -41 -2.5 -70.5t4.5 -66.5q-6 -6 -18 -6q-17 0 -20 15q-9 63 -47.5 90.5t-109.5 27.5t-124 -29t-88.5 -78t-53.5 -114.5t-18 -137.5q0 -54 14 -97.5t40.5 -74t64 -47.5t84.5 -17
q30 0 59.5 1.5t46.5 5.5zM235 -232q-10 7 -10 14.5t6 11.5q19 12 35.5 27.5t16.5 35.5q0 15 -15 27q-7 5 -13.5 10.5t-6.5 16.5t10.5 21.5t35.5 21.5q22 -13 36 -30t14 -41q0 -29 -23 -59.5t-86 -55.5z" />
    <glyph glyph-name="gcommaaccent" unicode="&#x123;" horiz-adv-x="443" 
d="M323 393q-12 4 -28 6.5t-30 2.5q-43 0 -75 -22t-53.5 -60t-32 -89t-10.5 -109q0 -37 10 -53.5t30 -16.5q18 0 39 18.5t42.5 48t41 66.5t34.5 75t23.5 73t8.5 60zM8 -142q14 -30 43 -50.5t63 -20.5q42 0 74 34.5t46 100.5l49 240h-4q-42 -88 -92.5 -131t-96.5 -43
q-15 0 -30 4.5t-26 16t-18 31t-7 50.5q0 81 24.5 146.5t63.5 111t86.5 70t92.5 24.5q35 0 64.5 -3t69.5 -11l-92 -470q-11 -57 -37 -96.5t-58 -65t-67.5 -37t-65.5 -11.5q-75 0 -117 20q7 22 11 38t7 42zM328 674q10 -7 9.5 -15t-5.5 -11q-19 -12 -35.5 -27.5t-16.5 -35.5
q0 -15 15 -27q7 -5 13.5 -10.5t6.5 -16.5t-9 -21t-34 -21q-23 14 -38 30t-15 40q0 29 23 59.5t86 55.5z" />
    <glyph glyph-name="Hcircumflex" unicode="&#x124;" horiz-adv-x="720" 
d="M553 581q4 20 -7 29.5t-42 14.5q-14 3 -14 14q0 3 1 7.5t2 8.5q30 -2 59.5 -4t53.5 -2q21 0 51 1.5t57 4.5q2 -8 2 -16q0 -12 -13 -13q-30 -5 -44.5 -15t-18.5 -30l-98 -513q-4 -20 8.5 -29t42.5 -14q13 -3 13 -15q0 -6 -2 -16q-29 3 -60.5 4.5t-56.5 1.5q-20 0 -51 -1.5
t-58 -4.5q-2 10 -2 16q0 13 12 15q35 6 48.5 14.5t17.5 28.5l47 245h-284l-47 -245q-4 -20 8 -29t45 -14q13 -1 13 -15q0 -6 -2 -16q-30 3 -62 4.5t-57 1.5q-20 0 -49 -1.5t-55 -4.5q-3 7 -3 16q0 13 13 14q32 5 45.5 14.5t17.5 29.5l99 513q4 20 -6.5 30.5t-42.5 15.5
q-14 1 -14 14q0 7 3 15q29 -3 57.5 -4.5t53.5 -1.5q20 0 52.5 1.5t59.5 4.5q3 -8 3 -15q0 -12 -14 -14q-32 -5 -47 -15.5t-19 -30.5l-45 -229h284zM567 747q5 -6 5 -13q0 -14 -23 -24q-23 19 -45.5 35.5t-51.5 31.5q-32 -15 -61 -31t-65 -36q-17 8 -17 19q0 8 8 15l128 112
q26 0 37 -4.5t22 -20.5z" />
    <glyph glyph-name="hcircumflex" unicode="&#x125;" horiz-adv-x="509" 
d="M139 620q0 5 -1.5 10t-8.5 5q-3 0 -10.5 -1.5t-15.5 -3t-15 -2.5t-10 -1q-14 0 -14 21q45 12 83.5 24.5t76.5 27.5q12 -8 12 -19q0 -4 -1 -8.5t-2 -7.5l-85 -429h3q27 44 54 82t55 65.5t57 43t58 15.5t46.5 -14t17.5 -46q0 -12 -2 -28t-5 -32l-51 -240q-1 -4 -2 -10
t-1 -9q0 -13 12 -13q6 0 14 3.5t15.5 8t13.5 8t10 3.5q10 0 14 -20q-18 -13 -37 -24.5t-37.5 -20.5t-34 -14.5t-25.5 -5.5q-11 0 -21 4.5t-10 21.5q0 3 1 10.5t2 10.5l56 267q6 28 6 45q0 29 -28 29q-14 0 -35 -15t-44.5 -40.5t-47.5 -59.5t-45 -71q-9 -17 -17.5 -37.5
t-14.5 -42.5t-9.5 -43t-3.5 -38q0 -14 3 -27q-38 -4 -79 -15q-9 5 -9 12q0 4 1 9.5t2 9.5l97 500q6 29 9 57.5t3 44.5zM341 747q5 -6 5 -13q0 -14 -23 -24q-23 19 -45.5 35.5t-51.5 31.5q-32 -15 -61 -31t-65 -36q-17 8 -17 19q0 8 8 15l128 112q26 0 37 -4.5t22 -20.5z" />
    <glyph glyph-name="Hbar" unicode="&#x126;" horiz-adv-x="720" 
d="M168 503l15 78q4 20 -6.5 30.5t-42.5 15.5q-14 1 -14 14q0 7 3 15q29 -3 57.5 -4.5t53.5 -1.5q20 0 52.5 1.5t59.5 4.5q3 -8 3 -15q0 -12 -14 -14q-32 -5 -47 -15.5t-19 -30.5l-16 -78h284l16 78q4 20 -7 29.5t-42 14.5q-14 3 -14 14q0 3 1 7.5t2 8.5q30 -2 59.5 -4
t53.5 -2q21 0 51 1.5t57 4.5q2 -8 2 -16q0 -12 -13 -13q-30 -5 -44.5 -15t-18.5 -30l-15 -78h78q-2 -27 -12 -34.5t-28 -7.5h-46l-75 -393q-4 -20 8.5 -29t42.5 -14q13 -3 13 -15q0 -6 -2 -16q-29 3 -60.5 4.5t-56.5 1.5q-20 0 -51 -1.5t-58 -4.5q-2 10 -2 16q0 13 12 15
q35 6 48.5 14.5t17.5 28.5l47 245h-284l-47 -245q-4 -20 8 -29t45 -14q13 -1 13 -15q0 -6 -2 -16q-30 3 -62 4.5t-57 1.5q-20 0 -49 -1.5t-55 -4.5q-3 7 -3 16q0 13 13 14q32 5 45.5 14.5t17.5 29.5l76 393h-73q5 25 13 33.5t27 8.5h41zM529 461h-284l-21 -109h284z" />
    <glyph glyph-name="hbar" unicode="&#x127;" horiz-adv-x="509" 
d="M139 620q0 5 -1.5 10t-8.5 5q-3 0 -10.5 -1.5t-15.5 -3t-15 -2.5t-10 -1q-14 0 -14 21q45 12 83.5 24.5t76.5 27.5q12 -8 12 -19q0 -4 -1 -8.5t-2 -7.5l-21 -107h138q-2 -16 -5 -25t-8 -13t-11.5 -4.5t-15.5 -0.5h-107l-55 -279h3q27 44 54 82t55 65.5t57 43t58 15.5
t46.5 -14t17.5 -46q0 -12 -2 -28t-5 -32l-51 -240q-1 -4 -2 -10t-1 -9q0 -13 12 -13q6 0 14 3.5t15.5 8t13.5 8t10 3.5q10 0 14 -20q-18 -13 -37 -24.5t-37.5 -20.5t-34 -14.5t-25.5 -5.5q-11 0 -21 4.5t-10 21.5q0 3 1 10.5t2 10.5l56 267q6 28 6 45q0 29 -28 29
q-14 0 -35 -15t-44.5 -40.5t-47.5 -59.5t-45 -71q-9 -17 -17.5 -37.5t-14.5 -42.5t-9.5 -43t-3.5 -38q0 -14 3 -27q-38 -4 -79 -15q-9 5 -9 12q0 4 1 9.5t2 9.5l96 497h-70q2 16 5 25t7.5 13t11.5 4.5t16 0.5h38q2 19 3.5 35t1.5 27z" />
    <glyph glyph-name="Itilde" unicode="&#x128;" horiz-adv-x="348" 
d="M182 582q4 20 -6.5 29.5t-42.5 13.5q-14 3 -14 16q0 3 1 6.5t2 8.5q30 -3 59 -4.5t54 -1.5q21 0 51 1.5t57 4.5q2 -10 2 -15q0 -14 -14 -15q-32 -4 -45 -14t-17 -30l-99 -514q-4 -20 7 -29t45 -14q13 -3 13 -15q0 -6 -2 -16q-30 3 -61 4.5t-56 1.5q-21 0 -50.5 -1.5
t-56.5 -4.5q-2 10 -2 16q0 12 12 14q32 5 46 14.5t18 29.5zM127 736q37 37 59 50t42 13q10 0 20 -4t20 -9t19.5 -9t18.5 -4q11 0 26 6t38 23q6 -4 10.5 -8.5t4.5 -11.5t-5 -12q-20 -21 -45.5 -40.5t-47.5 -19.5q-13 0 -24.5 4.5t-22 9.5t-20 9.5t-18.5 4.5q-12 0 -25 -5.5
t-39 -25.5q-6 4 -11 9t-5 10t5 10z" />
    <glyph glyph-name="itilde" unicode="&#x129;" horiz-adv-x="247" 
d="M120 82q-1 -4 -2 -10.5t-1 -9.5q0 -12 12 -12q7 0 14.5 3.5t15 8t13.5 8t10 3.5q10 0 14 -20q-17 -13 -36.5 -24.5t-37.5 -20.5t-34 -14.5t-26 -5.5q-11 0 -21 4.5t-10 21.5q0 3 1 10.5t2 10.5q22 107 35 170.5t19.5 97t8.5 44.5t2 13q0 12 -9 12q-4 0 -12 -3.5t-17 -7
t-16.5 -7t-11.5 -3.5q-6 0 -9 6t-5 14q18 10 42 22.5t46.5 23.5t40 18t23.5 7q17 0 17 -17q0 -7 -2 -15zM37 555q37 37 59 50t42 13q10 0 20 -4t20 -9t19.5 -9t18.5 -4q11 0 26 6t38 23q6 -4 10.5 -8.5t4.5 -11.5t-5 -12q-20 -21 -45.5 -40.5t-47.5 -19.5q-13 0 -24.5 4.5
t-22 9.5t-20 9.5t-18.5 4.5q-12 0 -25 -5.5t-39 -25.5q-6 4 -11 9t-5 10t5 10z" />
    <glyph glyph-name="Imacron" unicode="&#x12a;" horiz-adv-x="348" 
d="M182 582q4 20 -6.5 29.5t-42.5 13.5q-14 3 -14 16q0 3 1 6.5t2 8.5q30 -3 59 -4.5t54 -1.5q21 0 51 1.5t57 4.5q2 -10 2 -15q0 -14 -14 -15q-32 -4 -45 -14t-17 -30l-99 -514q-4 -20 7 -29t45 -14q13 -3 13 -15q0 -6 -2 -16q-30 3 -61 4.5t-56 1.5q-21 0 -50.5 -1.5
t-56.5 -4.5q-2 10 -2 16q0 12 12 14q32 5 46 14.5t18 29.5zM127 739q4 31 13 43t27 12h211q-4 -31 -13 -43t-26 -12h-212z" />
    <glyph glyph-name="imacron" unicode="&#x12b;" horiz-adv-x="247" 
d="M120 82q-1 -4 -2 -10.5t-1 -9.5q0 -12 12 -12q7 0 14.5 3.5t15 8t13.5 8t10 3.5q10 0 14 -20q-17 -13 -36.5 -24.5t-37.5 -20.5t-34 -14.5t-26 -5.5q-11 0 -21 4.5t-10 21.5q0 3 1 10.5t2 10.5q22 107 35 170.5t19.5 97t8.5 44.5t2 13q0 12 -9 12q-4 0 -12 -3.5t-17 -7
t-16.5 -7t-11.5 -3.5q-6 0 -9 6t-5 14q18 10 42 22.5t46.5 23.5t40 18t23.5 7q17 0 17 -17q0 -7 -2 -15zM41 543q4 31 13 43t27 12h211q-4 -31 -13 -43t-26 -12h-212z" />
    <glyph glyph-name="Ibreve" unicode="&#x12c;" horiz-adv-x="348" 
d="M182 582q4 20 -6.5 29.5t-42.5 13.5q-14 3 -14 16q0 3 1 6.5t2 8.5q30 -3 59 -4.5t54 -1.5q21 0 51 1.5t57 4.5q2 -10 2 -15q0 -14 -14 -15q-32 -4 -45 -14t-17 -30l-99 -514q-4 -20 7 -29t45 -14q13 -3 13 -15q0 -6 -2 -16q-30 3 -61 4.5t-56 1.5q-21 0 -50.5 -1.5
t-56.5 -4.5q-2 10 -2 16q0 12 12 14q32 5 46 14.5t18 29.5zM265 772q24 0 47.5 15t50.5 54q28 -4 20 -22q-24 -55 -58 -81.5t-72 -26.5q-48 0 -70 30.5t-28 79.5q-1 9 3 14t19 6q16 -41 36.5 -55t51.5 -14z" />
    <glyph glyph-name="ibreve" unicode="&#x12d;" horiz-adv-x="247" 
d="M120 82q-1 -4 -2 -10.5t-1 -9.5q0 -12 12 -12q7 0 14.5 3.5t15 8t13.5 8t10 3.5q10 0 14 -20q-17 -13 -36.5 -24.5t-37.5 -20.5t-34 -14.5t-26 -5.5q-11 0 -21 4.5t-10 21.5q0 3 1 10.5t2 10.5q22 107 35 170.5t19.5 97t8.5 44.5t2 13q0 12 -9 12q-4 0 -12 -3.5t-17 -7
t-16.5 -7t-11.5 -3.5q-6 0 -9 6t-5 14q18 10 42 22.5t46.5 23.5t40 18t23.5 7q17 0 17 -17q0 -7 -2 -15zM177 566q24 0 47.5 15t50.5 54q28 -4 20 -22q-24 -55 -58 -81.5t-72 -26.5q-48 0 -70 30.5t-28 79.5q-1 9 3 14t19 6q16 -41 36.5 -55t51.5 -14z" />
    <glyph glyph-name="Iogonek" unicode="&#x12e;" horiz-adv-x="348" 
d="M182 582q4 20 -6.5 29.5t-42.5 13.5q-14 3 -14 16q0 3 1 6.5t2 8.5q30 -3 59 -4.5t54 -1.5q21 0 51 1.5t57 4.5q2 -10 2 -15q0 -14 -14 -15q-32 -4 -45 -14t-17 -30l-99 -514q-4 -20 7 -29t45 -14q13 -3 13 -15q0 -6 -2 -16q-15 2 -30.5 3t-30.5 2q-41 -36 -58.5 -71.5
t-17.5 -63.5q0 -18 7.5 -28.5t21.5 -10.5q16 0 45 13q10 5 15 1.5t7 -19.5q-29 -17 -59.5 -31t-53.5 -14q-28 0 -43 18t-15 44q0 25 8.5 44t25.5 42q14 19 32 39.5t35 37.5h-6q-21 0 -50.5 -1.5t-56.5 -4.5q-2 10 -2 16q0 12 12 14q32 5 46 14.5t18 29.5z" />
    <glyph glyph-name="iogonek" unicode="&#x12f;" horiz-adv-x="247" 
d="M120 82q-1 -4 -2 -10.5t-1 -9.5q0 -12 12 -12q7 0 14.5 3.5t15 8t13.5 8t10 3.5q10 0 14 -20q-17 -12 -33.5 -23t-32.5 -22q-27 -18 -44.5 -37.5t-28.5 -38.5t-15.5 -36.5t-4.5 -31.5q0 -18 7.5 -28.5t21.5 -10.5q16 0 45 13q10 5 15 1.5t7 -19.5q-29 -17 -59.5 -31
t-53.5 -14q-28 0 -43 18t-15 44q0 25 8.5 44t25.5 42q11 16 27 34t29 32q-8 2 -14.5 7t-6.5 18q0 3 1 10.5t2 10.5q22 107 35 170.5t19.5 97t8.5 44.5t2 13q0 12 -9 12q-4 0 -12 -3.5t-17 -7t-16.5 -7t-11.5 -3.5q-6 0 -9 6t-5 14q18 10 42 22.5t46.5 23.5t40 18t23.5 7
q17 0 17 -17q0 -7 -2 -15zM171 549q-19 0 -30 11.5t-11 30.5q0 27 18.5 48.5t44.5 21.5q20 0 28.5 -13t8.5 -33q0 -25 -17 -45.5t-42 -20.5z" />
    <glyph glyph-name="Idotaccent" unicode="&#x130;" horiz-adv-x="348" 
d="M182 582q4 20 -6.5 29.5t-42.5 13.5q-14 3 -14 16q0 3 1 6.5t2 8.5q30 -3 59 -4.5t54 -1.5q21 0 51 1.5t57 4.5q2 -10 2 -15q0 -14 -14 -15q-32 -4 -45 -14t-17 -30l-99 -514q-4 -20 7 -29t45 -14q13 -3 13 -15q0 -6 -2 -16q-30 3 -61 4.5t-56 1.5q-21 0 -50.5 -1.5
t-56.5 -4.5q-2 10 -2 16q0 12 12 14q32 5 46 14.5t18 29.5zM207 761q0 28 16.5 43.5t36.5 15.5q23 0 35 -13.5t12 -37.5q0 -28 -16 -43.5t-35 -15.5q-24 0 -36.5 13.5t-12.5 37.5z" />
    <glyph glyph-name="dotlessi" unicode="&#x131;" horiz-adv-x="247" 
d="M120 82q-1 -4 -2 -10.5t-1 -9.5q0 -12 12 -12q7 0 14.5 3.5t15 8t13.5 8t10 3.5q10 0 14 -20q-17 -13 -36.5 -24.5t-37.5 -20.5t-34 -14.5t-26 -5.5q-11 0 -21 4.5t-10 21.5q0 3 1 10.5t2 10.5q22 107 35 170.5t19.5 97t8.5 44.5t2 13q0 12 -9 12q-4 0 -12 -3.5t-17 -7
t-16.5 -7t-11.5 -3.5q-6 0 -9 6t-5 14q18 10 42 22.5t46.5 23.5t40 18t23.5 7q17 0 17 -17q0 -7 -2 -15z" />
    <glyph glyph-name="IJ" unicode="&#x132;" horiz-adv-x="696" 
d="M182 582q4 20 -6.5 29.5t-42.5 13.5q-14 3 -14 16q0 3 1 6.5t2 8.5q30 -3 59 -4.5t54 -1.5q21 0 51 1.5t57 4.5q2 -10 2 -15q0 -14 -14 -15q-32 -4 -45 -14t-17 -30l-99 -514q-4 -20 7 -29t45 -14q13 -3 13 -15q0 -6 -2 -16q-30 3 -61 4.5t-56 1.5q-21 0 -50.5 -1.5
t-56.5 -4.5q-2 10 -2 16q0 12 12 14q32 5 46 14.5t18 29.5zM544 201q-14 -70 -29 -120.5t-40.5 -92t-65.5 -79t-103 -81.5q-10 9 -10 21q0 5 2.5 8t5.5 6q33 33 55.5 61.5t38 56.5t25.5 57.5t16 63.5l90 477q4 20 -7 31t-47 15q-8 1 -11.5 5.5t-3.5 10.5q0 5 2 15
q30 -3 64 -4.5t59 -1.5q21 0 49.5 1.5t55.5 4.5q2 -10 2 -15q0 -13 -15 -16q-29 -4 -42.5 -13.5t-17.5 -29.5z" />
    <glyph glyph-name="ij" unicode="&#x133;" horiz-adv-x="490" 
d="M171 549q-19 0 -30 11.5t-11 30.5q0 27 18.5 48.5t44.5 21.5q20 0 28.5 -13t8.5 -33q0 -25 -17 -45.5t-42 -20.5zM120 82q-1 -4 -2 -10.5t-1 -9.5q0 -12 12 -12q7 0 14.5 3.5t15 8t13.5 8t10 3.5q10 0 14 -20q-17 -13 -36.5 -24.5t-37.5 -20.5t-34 -14.5t-26 -5.5
q-11 0 -21 4.5t-10 21.5q0 3 1 10.5t2 10.5q22 107 35 170.5t19.5 97t8.5 44.5t2 13q0 12 -9 12q-4 0 -12 -3.5t-17 -7t-16.5 -7t-11.5 -3.5q-6 0 -9 6t-5 14q18 10 42 22.5t46.5 23.5t40 18t23.5 7q17 0 17 -17q0 -7 -2 -15zM176 -228q23 19 37.5 36.5t24 35.5t15 38.5
t10.5 45.5l81 410q1 4 2 11.5t1 12.5q0 10 -8 10q-4 0 -12 -3.5t-17 -7t-17 -7t-12 -3.5q-5 0 -8 6t-5 14q18 10 42.5 22.5t47 23.5t40 18t22.5 7q7 0 12 -3.5t5 -13.5q0 -7 -2 -15l-91 -459q-15 -75 -58 -122t-99 -81q-15 6 -15 16q0 5 4 8zM419 549q-19 0 -30 11.5
t-11 30.5q0 27 18.5 48.5t44.5 21.5q20 0 28.5 -13t8.5 -33q0 -25 -17 -45.5t-42 -20.5z" />
    <glyph glyph-name="Jcircumflex" unicode="&#x134;" horiz-adv-x="348" 
d="M196 201q-14 -70 -29 -120.5t-40.5 -92t-65.5 -79t-103 -81.5q-10 9 -10 21q0 5 2.5 8t5.5 6q33 33 55.5 61.5t38 56.5t25.5 57.5t16 63.5l90 477q4 20 -7 31t-47 15q-8 1 -11.5 5.5t-3.5 10.5q0 5 2 15q30 -3 64 -4.5t59 -1.5q21 0 49.5 1.5t55.5 4.5q2 -10 2 -15
q0 -13 -15 -16q-29 -4 -42.5 -13.5t-17.5 -29.5zM372 747q5 -6 5 -13q0 -14 -23 -24q-23 19 -45.5 35.5t-51.5 31.5q-32 -15 -61 -31t-65 -36q-17 8 -17 19q0 8 8 15l128 112q26 0 37 -4.5t22 -20.5z" />
    <glyph glyph-name="jcircumflex" unicode="&#x135;" horiz-adv-x="243" 
d="M-71 -228q23 19 37.5 36.5t24 35.5t15 38.5t10.5 45.5l81 410q1 4 2 11.5t1 12.5q0 10 -8 10q-4 0 -12 -3.5t-17 -7t-17 -7t-12 -3.5q-5 0 -8 6t-5 14q18 10 42.5 22.5t47 23.5t40 18t22.5 7q7 0 12 -3.5t5 -13.5q0 -7 -2 -15l-91 -459q-15 -75 -58 -122t-99 -81
q-15 6 -15 16q0 5 4 8zM270 520q3 -8 2 -15.5t-19 -15.5q-25 30 -43.5 52t-39.5 41q-31 -19 -62 -42.5t-66 -52.5q-16 11 -16 19t5 14l122 141q29 1 43.5 -2.5t20.5 -17.5z" />
    <glyph glyph-name="Kcommaaccent" unicode="&#x136;" horiz-adv-x="612" 
d="M242 332l2 14l246 223q20 17 20 31q0 18 -36 24q-14 3 -14 15q0 7 2 17q29 -3 50 -4.5t47 -1.5q22 0 43 1.5t46 4.5q1 -5 1.5 -9t0.5 -7q0 -13 -13 -16q-23 -5 -39.5 -14.5t-30.5 -22.5l-246 -224l187 -301q9 -14 24.5 -24.5t37.5 -14.5q8 -2 10 -5t2 -7q0 -7 -5 -17
q-57 6 -95 6q-23 0 -37 13.5t-31 39.5zM182 582q2 12 -2 19.5t-11.5 12t-17 6.5t-18.5 3q-14 2 -14 16q0 3 1 7.5t2 9.5q30 -3 59 -4.5t54 -1.5q21 0 52.5 1.5t58.5 4.5q1 -5 1.5 -9t0.5 -8q0 -12 -14 -15q-26 -4 -43.5 -13t-21.5 -29l-99 -514q-2 -12 1 -19.5t10.5 -12.5
t17.5 -7.5t21 -3.5q12 -2 12 -15q0 -3 -0.5 -7t-1.5 -9q-30 3 -59.5 4.5t-54.5 1.5q-21 0 -52.5 -1.5t-58.5 -4.5q-1 5 -1.5 9t-0.5 7q0 13 12 15q27 4 45.5 13.5t22.5 29.5zM229 -234q-10 7 -10 14.5t6 11.5q19 12 35.5 27.5t16.5 35.5q0 15 -15 27q-7 5 -13.5 10.5
t-6.5 16.5t10.5 21.5t35.5 21.5q22 -13 36 -30t14 -41q0 -29 -23 -59.5t-86 -55.5z" />
    <glyph glyph-name="kcommaaccent" unicode="&#x137;" horiz-adv-x="445" 
d="M130 518q5 29 8.5 57.5t3.5 44.5q0 13 -9 13q-10 0 -27.5 -3t-25.5 -3q-13 0 -13 21q45 12 83 24.5t76 27.5q8 -5 10 -9t2 -8t-1 -9t-2 -9l-83 -421h4q16 21 43 54.5t60.5 65t70 54.5t71.5 23q16 0 30 -3q-5 -14 -9.5 -32.5t-7.5 -40.5l-12 -4q-5 7 -14 11.5t-19 4.5
q-9 0 -23 -3.5t-32.5 -14.5t-42 -31t-52.5 -54q28 -61 52 -110.5t45 -84.5q22 -38 37 -38q7 0 14.5 3t14.5 6.5t13.5 6.5t10.5 3q6 0 9 -3.5t5 -14.5q-32 -23 -65 -38.5t-51 -15.5q-10 0 -20.5 5t-20.5 24q-7 13 -19.5 37t-26.5 52.5l-28 57t-24 51.5q-19 -22 -33 -78
q-8 -30 -13 -60t-5 -48q0 -14 3 -27q-38 -4 -79 -15q-8 5 -8 12q0 2 1 8.5t2 10.5zM116 -232q-10 7 -9.5 15t5.5 11q19 12 35.5 27.5t16.5 35.5q0 15 -15 27q-7 5 -13.5 10.5t-6.5 16.5t9 21t34 21q23 -14 38 -30t15 -40q0 -29 -23 -59.5t-86 -55.5z" />
    <glyph glyph-name="kgreenlandic" unicode="&#x138;" horiz-adv-x="445" 
d="M80 265q5 29 8.5 57.5t3.5 44.5q0 13 -9 13q-10 0 -27.5 -3t-25.5 -3q-13 0 -13 21q45 12 83 24.5t76 27.5q8 -5 10 -9t2 -8t-1 -9t-2 -9l-36 -188h4q17 23 44.5 60t61.5 72t70.5 60t71.5 25q16 0 30 -3q-5 -14 -9.5 -32.5t-7.5 -40.5l-12 -4q-5 7 -14 11.5t-19 4.5
q-19 0 -55 -26.5t-94 -93.5q28 -61 50.5 -102t43.5 -76q22 -38 39 -38q7 0 14.5 3t14.5 6.5t13.5 6.5t10.5 3q6 0 9 -3.5t5 -14.5q-32 -23 -65 -38.5t-51 -15.5q-10 0 -20 5.5t-21 23.5q-6 10 -18.5 30.5t-27.5 46t-29.5 52t-25.5 49.5q-19 -22 -33 -78q-8 -30 -11.5 -50
t-3.5 -38q0 -14 3 -27q-38 -4 -79 -15q-8 5 -8 12q0 2 1 8.5t2 10.5z" />
    <glyph glyph-name="Lacute" unicode="&#x139;" horiz-adv-x="550" 
d="M117 0q-21 0 -50.5 -1.5t-56.5 -4.5q-1 5 -1.5 9t-0.5 8q0 5 3 9t9 5q26 4 43 13.5t21 29.5l99 514q4 20 -11.5 29t-40.5 13q-7 1 -10 5.5t-3 9.5q0 3 1 7.5t2 9.5q30 -3 62.5 -4.5t58.5 -1.5q14 0 31 0.5t34.5 1t34 1.5t29.5 3q3 -11 3 -17q0 -13 -14 -15t-29.5 -5.5
t-28.5 -9t-22.5 -14.5t-12.5 -23l-97 -507q-3 -14 5 -20.5t22 -6.5h116q45 0 78.5 24.5t71.5 75.5q8 10 18 10q6 0 11.5 -3.5t9.5 -7.5l-10 -22q-5 -10 -10 -22l-10 -24q-8 -20 -13 -39t-10 -27t-16 -8q-17 0 -34 2.5t-46 2.5h-236zM348 855q49 -22 49 -50q0 -12 -8.5 -18
t-18.5 -9q-23 -8 -41.5 -14.5t-36.5 -14.5t-37.5 -17.5t-44.5 -21.5q-11 9 -11 17q0 3 1.5 6.5t7.5 8.5z" />
    <glyph glyph-name="lacute" unicode="&#x13a;" horiz-adv-x="248" 
d="M142 620q0 5 -1.5 10t-8.5 5q-3 0 -10.5 -1.5t-16 -3t-15.5 -2.5t-10 -1q-13 0 -13 21q45 12 83 24.5t76 27.5q8 -5 10 -9.5t2 -9.5q0 -8 -2 -16l-114 -583q-1 -5 -2 -11.5t-1 -8.5q0 -12 12 -12q7 0 14.5 3.5t15 8t13.5 8t10 3.5q10 0 14 -20q-17 -13 -36.5 -24.5
t-37.5 -20.5t-34 -14.5t-26 -5.5q-11 0 -21 4.5t-10 21.5q0 3 1 10.5t2 10.5l94 483q6 29 9 57.5t3 44.5zM274 855q49 -22 49 -50q0 -12 -8.5 -18t-18.5 -9q-23 -8 -41.5 -14.5t-36.5 -14.5t-37.5 -17.5t-44.5 -21.5q-11 9 -11 17q0 3 1.5 6.5t7.5 8.5z" />
    <glyph glyph-name="Lcommaaccent" unicode="&#x13b;" horiz-adv-x="550" 
d="M117 0q-21 0 -50.5 -1.5t-56.5 -4.5q-1 5 -1.5 9t-0.5 8q0 5 3 9t9 5q26 4 43 13.5t21 29.5l99 514q4 20 -11.5 29t-40.5 13q-7 1 -10 5.5t-3 9.5q0 3 1 7.5t2 9.5q30 -3 62.5 -4.5t58.5 -1.5q14 0 31 0.5t34.5 1t34 1.5t29.5 3q3 -11 3 -17q0 -13 -14 -15t-29.5 -5.5
t-28.5 -9t-22.5 -14.5t-12.5 -23l-97 -507q-3 -14 5 -20.5t22 -6.5h116q45 0 78.5 24.5t71.5 75.5q8 10 18 10q6 0 11.5 -3.5t9.5 -7.5l-10 -22q-5 -10 -10 -22l-10 -24q-8 -20 -13 -39t-10 -27t-16 -8q-17 0 -34 2.5t-46 2.5h-236zM177 -232q-10 7 -10 14.5t6 11.5
q19 12 35.5 27.5t16.5 35.5q0 15 -15 27q-7 5 -13.5 10.5t-6.5 16.5t10.5 21.5t35.5 21.5q22 -13 36 -30t14 -41q0 -29 -23 -59.5t-86 -55.5z" />
    <glyph glyph-name="lcommaaccent" unicode="&#x13c;" horiz-adv-x="248" 
d="M142 620q0 5 -1.5 10t-8.5 5q-3 0 -10.5 -1.5t-16 -3t-15.5 -2.5t-10 -1q-13 0 -13 21q45 12 83 24.5t76 27.5q8 -5 10 -9.5t2 -9.5q0 -8 -2 -16l-114 -583q-1 -5 -2 -11.5t-1 -8.5q0 -12 12 -12q7 0 14.5 3.5t15 8t13.5 8t10 3.5q10 0 14 -20q-17 -13 -36.5 -24.5
t-37.5 -20.5t-34 -14.5t-26 -5.5q-11 0 -21 4.5t-10 21.5q0 3 1 10.5t2 10.5l94 483q6 29 9 57.5t3 44.5zM26 -232q-10 7 -9.5 15t5.5 11q19 12 35.5 27.5t16.5 35.5q0 15 -15 27q-7 5 -13.5 10.5t-6.5 16.5t9 21t34 21q23 -14 38 -30t15 -40q0 -29 -23 -59.5t-86 -55.5z
" />
    <glyph glyph-name="Lcaron" unicode="&#x13d;" horiz-adv-x="550" 
d="M117 0q-21 0 -50.5 -1.5t-56.5 -4.5q-1 5 -1.5 9t-0.5 8q0 5 3 9t9 5q26 4 43 13.5t21 29.5l99 514q4 20 -11.5 29t-40.5 13q-7 1 -10 5.5t-3 9.5q0 3 1 7.5t2 9.5q30 -3 62.5 -4.5t58.5 -1.5q14 0 31 0.5t34.5 1t34 1.5t29.5 3q3 -11 3 -17q0 -13 -14 -15t-29.5 -5.5
t-28.5 -9t-22.5 -14.5t-12.5 -23l-97 -507q-3 -14 5 -20.5t22 -6.5h116q45 0 78.5 24.5t71.5 75.5q8 10 18 10q6 0 11.5 -3.5t9.5 -7.5l-10 -22q-5 -10 -10 -22l-10 -24q-8 -20 -13 -39t-10 -27t-16 -8q-17 0 -34 2.5t-46 2.5h-236zM444 638q13 8 27 13t27 5q22 0 31 -12
t-2 -34q-11 -21 -20 -41t-17.5 -41t-17 -43.5t-18.5 -49.5q-5 -1 -8.5 -1.5t-7.5 -0.5q-20 0 -17 22z" />
    <glyph glyph-name="lcaron" unicode="&#x13e;" horiz-adv-x="301" 
d="M142 620q0 5 -1.5 10t-8.5 5q-3 0 -10.5 -1.5t-16 -3t-15.5 -2.5t-10 -1q-13 0 -13 21q45 12 83 24.5t76 27.5q8 -5 10 -9.5t2 -9.5q0 -8 -2 -16l-114 -583q-1 -5 -2 -11.5t-1 -8.5q0 -12 12 -12q7 0 14.5 3.5t15 8t13.5 8t10 3.5q10 0 14 -20q-17 -13 -36.5 -24.5
t-37.5 -20.5t-34 -14.5t-26 -5.5q-11 0 -21 4.5t-10 21.5q0 3 1 10.5t2 10.5l94 483q6 29 9 57.5t3 44.5zM310 694q13 8 27 13t27 5q22 0 31 -12t-2 -34q-11 -21 -20 -41t-17.5 -41t-17 -43.5t-18.5 -49.5q-5 -1 -8.5 -1.5t-7.5 -0.5q-20 0 -17 22z" />
    <glyph glyph-name="Ldot" unicode="&#x13f;" horiz-adv-x="550" 
d="M117 0q-21 0 -50.5 -1.5t-56.5 -4.5q-1 5 -1.5 9t-0.5 8q0 5 3 9t9 5q26 4 43 13.5t21 29.5l99 514q4 20 -11.5 29t-40.5 13q-7 1 -10 5.5t-3 9.5q0 3 1 7.5t2 9.5q30 -3 62.5 -4.5t58.5 -1.5q14 0 31 0.5t34.5 1t34 1.5t29.5 3q3 -11 3 -17q0 -13 -14 -15t-29.5 -5.5
t-28.5 -9t-22.5 -14.5t-12.5 -23l-97 -507q-3 -14 5 -20.5t22 -6.5h116q45 0 78.5 24.5t71.5 75.5q8 10 18 10q6 0 11.5 -3.5t9.5 -7.5l-10 -22q-5 -10 -10 -22l-10 -24q-8 -20 -13 -39t-10 -27t-16 -8q-17 0 -34 2.5t-46 2.5h-236zM395 311q0 28 16.5 43.5t36.5 15.5
q23 0 35 -13.5t12 -37.5q0 -28 -16 -43.5t-35 -15.5q-24 0 -36.5 13.5t-12.5 37.5z" />
    <glyph glyph-name="ldot" unicode="&#x140;" horiz-adv-x="353" 
d="M142 620q0 5 -1.5 10t-8.5 5q-3 0 -10.5 -1.5t-16 -3t-15.5 -2.5t-10 -1q-13 0 -13 21q45 12 83 24.5t76 27.5q8 -5 10 -9.5t2 -9.5q0 -8 -2 -16l-114 -583q-1 -5 -2 -11.5t-1 -8.5q0 -12 12 -12q7 0 14.5 3.5t15 8t13.5 8t10 3.5q10 0 14 -20q-17 -13 -36.5 -24.5
t-37.5 -20.5t-34 -14.5t-26 -5.5q-11 0 -21 4.5t-10 21.5q0 3 1 10.5t2 10.5l94 483q6 29 9 57.5t3 44.5zM252 292q0 28 16.5 43.5t36.5 15.5q23 0 35 -13.5t12 -37.5q0 -28 -16 -43.5t-35 -15.5q-24 0 -36.5 13.5t-12.5 37.5z" />
    <glyph glyph-name="Lslash" unicode="&#x141;" horiz-adv-x="550" 
d="M34 244q-6 21 -2.5 36.5t20.5 22.5l83 32l48 247q4 20 -11.5 29t-40.5 13q-7 1 -10 5.5t-3 9.5q0 3 1 7.5t2 9.5q30 -3 62.5 -4.5t58.5 -1.5q14 0 31 0.5t34.5 1t34 1.5t29.5 3q3 -11 3 -17q0 -13 -14 -15t-29.5 -5.5t-28.5 -9t-22.5 -14.5t-12.5 -23l-42 -214l152 59
q7 -25 2.5 -36.5t-21.5 -18.5l-143 -58l-45 -239q-3 -14 5 -20.5t22 -6.5h116q45 0 78.5 24.5t71.5 75.5q8 10 18 10q6 0 11.5 -3.5t9.5 -7.5l-10 -22q-5 -10 -10 -22l-10 -24q-8 -20 -13 -39t-10 -27t-16 -8q-17 0 -34 2.5t-46 2.5h-236q-21 0 -50.5 -1.5t-56.5 -4.5
q-1 5 -1.5 9t-0.5 8q0 5 3 9t9 5q26 4 43 13.5t21 29.5l41 212l-91 -36v0z" />
    <glyph glyph-name="lslash" unicode="&#x142;" horiz-adv-x="276" 
d="M142 620q0 5 -1.5 10t-8.5 5q-3 0 -10.5 -1.5t-16 -3t-15.5 -2.5t-10 -1q-13 0 -13 21q45 12 83 24.5t76 27.5q8 -5 10 -9.5t2 -9.5q0 -8 -2 -16l-57 -285l79 42q10 -23 7.5 -36t-18.5 -23l-79 -43l-46 -238q-1 -5 -2 -11.5t-1 -8.5q0 -12 12 -12q7 0 14.5 3.5t15 8
t13.5 8t10 3.5q10 0 14 -20q-17 -13 -36.5 -24.5t-37.5 -20.5t-34 -14.5t-26 -5.5q-11 0 -21 4.5t-10 21.5q0 3 1 10.5t2 10.5l48 250l-69 -38q-9 20 -8 35.5t18 25.5l71 38l34 172q6 29 9 57.5t3 44.5z" />
    <glyph glyph-name="Nacute" unicode="&#x143;" horiz-adv-x="716" 
d="M530 -7q-5 -2 -9 -3.5t-10 -1.5q-12 0 -20 15l-274 543l-90 -476q-4 -20 13 -30.5t41 -13.5q13 -1 13 -16q0 -3 -0.5 -7t-1.5 -9q-30 3 -53.5 4.5t-43.5 1.5q-18 0 -38.5 -1.5t-46.5 -4.5q-1 5 -1.5 9t-0.5 7q0 5 3 9.5t10 5.5q26 4 42.5 14.5t20.5 28.5l100 518
q2 14 -7 24t-34 14q-7 1 -10 5.5t-3 9.5q0 6 3 17q26 -3 44 -4.5t41 -1.5q26 0 34.5 -2.5t13.5 -11.5l249 -501l86 444q3 20 -12 31t-40 14q-15 1 -15 16q0 3 0.5 7t1.5 9q30 -3 51 -4.5t41 -1.5q36 0 89 6q2 -10 2 -16q0 -5 -3 -9.5t-10 -5.5q-24 -4 -41.5 -14.5
t-21.5 -28.5zM536 855q49 -22 49 -50q0 -12 -8.5 -18t-18.5 -9q-23 -8 -41.5 -14.5t-36.5 -14.5t-37.5 -17.5t-44.5 -21.5q-11 9 -11 17q0 3 1.5 6.5t7.5 8.5z" />
    <glyph glyph-name="nacute" unicode="&#x144;" horiz-adv-x="512" 
d="M353 302q6 27 6 45q0 29 -28 29q-15 0 -37 -16.5t-46 -43t-47.5 -59.5t-41.5 -67q-9 -17 -17.5 -37.5t-15 -42t-10 -42.5t-3.5 -39q0 -14 3 -27q-38 -4 -79 -15q-8 5 -8 12q0 2 1 8.5t2 10.5q23 116 36 183t19.5 101.5t8 45t1.5 12.5q0 12 -8 12q-4 0 -12 -3.5t-16.5 -7
t-16.5 -7t-12 -3.5q-5 0 -8.5 6t-5.5 14q18 11 42.5 23.5t47.5 23t40 17.5t22 7q7 0 12 -3.5t5 -11.5q0 -3 -0.5 -7.5t-1.5 -9.5l-36 -174h4q26 44 54 82t56.5 65.5t57.5 43t59 15.5q28 0 44.5 -14t16.5 -46q0 -12 -2 -28t-5 -32l-51 -240q-3 -14 -3 -19q0 -13 12 -13
q6 0 14 3.5t15.5 8t13.5 8t10 3.5q10 0 14 -20q-18 -13 -37 -24.5t-37.5 -20.5t-34.5 -14.5t-26 -5.5q-11 0 -20.5 4.5t-9.5 21.5q0 3 1 9.5t2 11.5zM367 663q26 -5 42.5 -17.5t16.5 -26.5q0 -16 -21 -29q-20 -12 -36.5 -23t-33 -22.5t-35 -25.5t-40.5 -32q-7 5 -11 9t-4 11
q0 6 5 12z" />
    <glyph glyph-name="Ncommaaccent" unicode="&#x145;" horiz-adv-x="716" 
d="M530 -7q-5 -2 -9 -3.5t-10 -1.5q-12 0 -20 15l-274 543l-90 -476q-4 -20 13 -30.5t41 -13.5q13 -1 13 -16q0 -3 -0.5 -7t-1.5 -9q-30 3 -53.5 4.5t-43.5 1.5q-18 0 -38.5 -1.5t-46.5 -4.5q-1 5 -1.5 9t-0.5 7q0 5 3 9.5t10 5.5q26 4 42.5 14.5t20.5 28.5l100 518
q2 14 -7 24t-34 14q-7 1 -10 5.5t-3 9.5q0 6 3 17q26 -3 44 -4.5t41 -1.5q26 0 34.5 -2.5t13.5 -11.5l249 -501l86 444q3 20 -12 31t-40 14q-15 1 -15 16q0 3 0.5 7t1.5 9q30 -3 51 -4.5t41 -1.5q36 0 89 6q2 -10 2 -16q0 -5 -3 -9.5t-10 -5.5q-24 -4 -41.5 -14.5
t-21.5 -28.5zM243 -232q-10 7 -10 14.5t6 11.5q19 12 35.5 27.5t16.5 35.5q0 15 -15 27q-7 5 -13.5 10.5t-6.5 16.5t10.5 21.5t35.5 21.5q22 -13 36 -30t14 -41q0 -29 -23 -59.5t-86 -55.5z" />
    <glyph glyph-name="ncommaaccent" unicode="&#x146;" horiz-adv-x="512" 
d="M353 302q6 27 6 45q0 29 -28 29q-15 0 -37 -16.5t-46 -43t-47.5 -59.5t-41.5 -67q-9 -17 -17.5 -37.5t-15 -42t-10 -42.5t-3.5 -39q0 -14 3 -27q-38 -4 -79 -15q-8 5 -8 12q0 2 1 8.5t2 10.5q23 116 36 183t19.5 101.5t8 45t1.5 12.5q0 12 -8 12q-4 0 -12 -3.5t-16.5 -7
t-16.5 -7t-12 -3.5q-5 0 -8.5 6t-5.5 14q18 11 42.5 23.5t47.5 23t40 17.5t22 7q7 0 12 -3.5t5 -11.5q0 -3 -0.5 -7.5t-1.5 -9.5l-36 -174h4q26 44 54 82t56.5 65.5t57.5 43t59 15.5q28 0 44.5 -14t16.5 -46q0 -12 -2 -28t-5 -32l-51 -240q-3 -14 -3 -19q0 -13 12 -13
q6 0 14 3.5t15.5 8t13.5 8t10 3.5q10 0 14 -20q-18 -13 -37 -24.5t-37.5 -20.5t-34.5 -14.5t-26 -5.5q-11 0 -20.5 4.5t-9.5 21.5q0 3 1 9.5t2 11.5zM140 -232q-10 7 -9.5 15t5.5 11q19 12 35.5 27.5t16.5 35.5q0 15 -15 27q-7 5 -13.5 10.5t-6.5 16.5t9 21t34 21
q23 -14 38 -30t15 -40q0 -29 -23 -59.5t-86 -55.5z" />
    <glyph glyph-name="Ncaron" unicode="&#x147;" horiz-adv-x="716" 
d="M530 -7q-5 -2 -9 -3.5t-10 -1.5q-12 0 -20 15l-274 543l-90 -476q-4 -20 13 -30.5t41 -13.5q13 -1 13 -16q0 -3 -0.5 -7t-1.5 -9q-30 3 -53.5 4.5t-43.5 1.5q-18 0 -38.5 -1.5t-46.5 -4.5q-1 5 -1.5 9t-0.5 7q0 5 3 9.5t10 5.5q26 4 42.5 14.5t20.5 28.5l100 518
q2 14 -7 24t-34 14q-7 1 -10 5.5t-3 9.5q0 6 3 17q26 -3 44 -4.5t41 -1.5q26 0 34.5 -2.5t13.5 -11.5l249 -501l86 444q3 20 -12 31t-40 14q-15 1 -15 16q0 3 0.5 7t1.5 9q30 -3 51 -4.5t41 -1.5q36 0 89 6q2 -10 2 -16q0 -5 -3 -9.5t-10 -5.5q-24 -4 -41.5 -14.5
t-21.5 -28.5zM323 816q-5 6 -5 13q0 14 23 24q23 -19 45.5 -35.5t51.5 -31.5q32 15 61 31t65 36q17 -9 17 -19q0 -8 -8 -15l-128 -112q-26 0 -37 4.5t-22 20.5z" />
    <glyph glyph-name="ncaron" unicode="&#x148;" horiz-adv-x="512" 
d="M353 302q6 27 6 45q0 29 -28 29q-15 0 -37 -16.5t-46 -43t-47.5 -59.5t-41.5 -67q-9 -17 -17.5 -37.5t-15 -42t-10 -42.5t-3.5 -39q0 -14 3 -27q-38 -4 -79 -15q-8 5 -8 12q0 2 1 8.5t2 10.5q23 116 36 183t19.5 101.5t8 45t1.5 12.5q0 12 -8 12q-4 0 -12 -3.5t-16.5 -7
t-16.5 -7t-12 -3.5q-5 0 -8.5 6t-5.5 14q18 11 42.5 23.5t47.5 23t40 17.5t22 7q7 0 12 -3.5t5 -11.5q0 -3 -0.5 -7.5t-1.5 -9.5l-36 -174h4q26 44 54 82t56.5 65.5t57.5 43t59 15.5q28 0 44.5 -14t16.5 -46q0 -12 -2 -28t-5 -32l-51 -240q-3 -14 -3 -19q0 -13 12 -13
q6 0 14 3.5t15.5 8t13.5 8t10 3.5q10 0 14 -20q-18 -13 -37 -24.5t-37.5 -20.5t-34.5 -14.5t-26 -5.5q-11 0 -20.5 4.5t-9.5 21.5q0 3 1 9.5t2 11.5zM204 629q-4 8 -2 16t19 16q23 -32 41.5 -53.5t40.5 -42.5q30 22 56 43.5t61 53.5q17 -10 16.5 -18.5t-5.5 -13.5l-117 -142
q-29 -1 -41 4.5t-18 19.5z" />
    <glyph glyph-name="napostrophe" unicode="&#x149;" horiz-adv-x="512" 
d="M353 302q6 27 6 45q0 29 -28 29q-15 0 -37 -16.5t-46 -43t-47.5 -59.5t-41.5 -67q-9 -17 -17.5 -37.5t-15 -42t-10 -42.5t-3.5 -39q0 -14 3 -27q-38 -4 -79 -15q-8 5 -8 12q0 2 1 8.5t2 10.5q23 116 36 183t19.5 101.5t8 45t1.5 12.5q0 12 -8 12q-4 0 -12 -3.5t-16.5 -7
t-16.5 -7t-12 -3.5q-5 0 -8.5 6t-5.5 14q18 11 42.5 23.5t47.5 23t40 17.5t22 7q7 0 12 -3.5t5 -11.5q0 -3 -0.5 -7.5t-1.5 -9.5l-36 -174h4q26 44 54 82t56.5 65.5t57.5 43t59 15.5q28 0 44.5 -14t16.5 -46q0 -12 -2 -28t-5 -32l-51 -240q-3 -14 -3 -19q0 -13 12 -13
q6 0 14 3.5t15.5 8t13.5 8t10 3.5q10 0 14 -20q-18 -13 -37 -24.5t-37.5 -20.5t-34.5 -14.5t-26 -5.5q-11 0 -20.5 4.5t-9.5 21.5q0 3 1 9.5t2 11.5zM-1 446q-12 9 -12 16.5t7 12.5q21 14 37 33t16 41q0 17 -16 30q-8 6 -15.5 12.5t-7.5 18.5t11.5 24.5t39.5 25.5
q26 -15 41.5 -35t15.5 -47q0 -32 -24.5 -66t-92.5 -66z" />
    <glyph glyph-name="Eng" unicode="&#x14a;" horiz-adv-x="716" 
d="M519 -49q-8 -38 -23 -67.5t-35.5 -54t-46 -44.5t-53.5 -37q-15 6 -15 16q0 5 4 8q23 19 37.5 36.5t23.5 35.5t15 38.5t11 45.5l27 129l-247 489l-90 -476q-4 -20 13 -30.5t41 -13.5q13 -1 13 -16q0 -3 -0.5 -7t-1.5 -9q-30 3 -53.5 4.5t-43.5 1.5q-18 0 -38.5 -1.5
t-46.5 -4.5q-1 5 -1.5 9t-0.5 7q0 5 3 9.5t10 5.5q26 4 42.5 14.5t20.5 28.5l100 518q2 14 -7 24t-34 14q-7 1 -10 5.5t-3 9.5q0 6 3 17q26 -3 44 -4.5t41 -1.5q26 0 34.5 -2.5t13.5 -11.5l249 -501l86 444q3 20 -12 31t-40 14q-15 1 -15 16q0 3 0.5 7t1.5 9q30 -3 51 -4.5
t41 -1.5q36 0 89 6q2 -10 2 -16q0 -5 -3 -9.5t-10 -5.5q-24 -4 -41.5 -14.5t-21.5 -28.5z" />
    <glyph glyph-name="eng" unicode="&#x14b;" horiz-adv-x="512" 
d="M191 -228q23 19 37.5 36.5t24 35.5t15 38.5t10.5 45.5l75 374q6 27 6 45q0 29 -28 29q-15 0 -36.5 -16.5t-45.5 -43t-48 -60t-42 -66.5q-9 -17 -17.5 -37.5t-14.5 -42t-10 -42.5t-4 -39q0 -14 3 -27q-38 -4 -79 -15q-8 5 -8 12q0 2 1 8.5t2 10.5q23 116 36 183
t19.5 101.5t8 45t1.5 12.5q0 12 -8 12q-4 0 -12 -3.5t-16.5 -7t-16.5 -7t-12 -3.5q-5 0 -8.5 6t-5.5 14q18 11 42.5 23.5t47.5 23t40 17.5t22 7q7 0 12 -3.5t5 -11.5q0 -3 -0.5 -7.5t-1.5 -9.5l-36 -174h4q26 44 54 82t56.5 65.5t57.5 43t59 15.5q28 0 44.5 -14t16.5 -46
q0 -12 -2 -28t-5 -32l-75 -371q-15 -75 -58 -122t-99 -81q-15 6 -15 16q0 5 4 8z" />
    <glyph glyph-name="Omacron" unicode="&#x14c;" horiz-adv-x="674" 
d="M388 662q61 0 107.5 -20.5t77.5 -56t47 -83.5t16 -104q0 -91 -28 -166.5t-77 -129.5t-115.5 -84t-143.5 -30q-59 0 -103.5 22t-74.5 59t-45 85.5t-15 101.5q0 81 26.5 154.5t73.5 129.5t112 89t142 33zM297 31q63 0 108.5 32t75 82.5t43.5 113.5t14 126q0 52 -10.5 95
t-30.5 74t-49 48t-67 17q-65 0 -112 -31.5t-77.5 -82.5t-45.5 -116.5t-15 -133.5q0 -107 39.5 -165.5t126.5 -58.5zM282 739q4 31 13 43t27 12h211q-4 -31 -13 -43t-26 -12h-212z" />
    <glyph glyph-name="omacron" unicode="&#x14d;" horiz-adv-x="429" 
d="M245 442q37 0 64.5 -12.5t44.5 -35t25.5 -53.5t8.5 -67q0 -72 -23 -126t-58.5 -89.5t-79.5 -53t-86 -17.5q-35 0 -59.5 11t-39.5 32t-21.5 51.5t-6.5 68.5q0 66 22.5 120t57 92t75 58.5t76.5 20.5zM166 27q30 0 55.5 18t44 50t28.5 75.5t10 95.5q0 63 -15 100t-53 37
q-33 0 -59 -22t-43.5 -57t-26.5 -78t-9 -85q0 -66 15.5 -100t52.5 -34zM140 543q4 31 13 43t27 12h211q-4 -31 -13 -43t-26 -12h-212z" />
    <glyph glyph-name="Obreve" unicode="&#x14e;" horiz-adv-x="674" 
d="M388 662q61 0 107.5 -20.5t77.5 -56t47 -83.5t16 -104q0 -91 -28 -166.5t-77 -129.5t-115.5 -84t-143.5 -30q-59 0 -103.5 22t-74.5 59t-45 85.5t-15 101.5q0 81 26.5 154.5t73.5 129.5t112 89t142 33zM297 31q63 0 108.5 32t75 82.5t43.5 113.5t14 126q0 52 -10.5 95
t-30.5 74t-49 48t-67 17q-65 0 -112 -31.5t-77.5 -82.5t-45.5 -116.5t-15 -133.5q0 -107 39.5 -165.5t126.5 -58.5zM407 772q24 0 47.5 15t50.5 54q28 -4 20 -22q-24 -55 -58 -81.5t-72 -26.5q-48 0 -70 30.5t-28 79.5q-1 9 3 14t19 6q16 -41 36.5 -55t51.5 -14z" />
    <glyph glyph-name="obreve" unicode="&#x14f;" horiz-adv-x="429" 
d="M245 442q37 0 64.5 -12.5t44.5 -35t25.5 -53.5t8.5 -67q0 -72 -23 -126t-58.5 -89.5t-79.5 -53t-86 -17.5q-35 0 -59.5 11t-39.5 32t-21.5 51.5t-6.5 68.5q0 66 22.5 120t57 92t75 58.5t76.5 20.5zM166 27q30 0 55.5 18t44 50t28.5 75.5t10 95.5q0 63 -15 100t-53 37
q-33 0 -59 -22t-43.5 -57t-26.5 -78t-9 -85q0 -66 15.5 -100t52.5 -34zM272 566q24 0 47.5 15t50.5 54q28 -4 20 -22q-24 -55 -58 -81.5t-72 -26.5q-48 0 -70 30.5t-28 79.5q-1 9 3 14t19 6q16 -41 36.5 -55t51.5 -14z" />
    <glyph glyph-name="Ohungarumlaut" unicode="&#x150;" horiz-adv-x="674" 
d="M388 662q61 0 107.5 -20.5t77.5 -56t47 -83.5t16 -104q0 -91 -28 -166.5t-77 -129.5t-115.5 -84t-143.5 -30q-59 0 -103.5 22t-74.5 59t-45 85.5t-15 101.5q0 81 26.5 154.5t73.5 129.5t112 89t142 33zM297 31q63 0 108.5 32t75 82.5t43.5 113.5t14 126q0 52 -10.5 95
t-30.5 74t-49 48t-67 17q-65 0 -112 -31.5t-77.5 -82.5t-45.5 -116.5t-15 -133.5q0 -107 39.5 -165.5t126.5 -58.5zM382 874q29 -6 45.5 -18.5t16.5 -27.5q0 -9 -6 -15t-14 -11q-21 -13 -36.5 -23.5t-30 -21.5t-30 -24.5t-36.5 -31.5q-19 5 -19 16q0 3 1 6t5 8zM523 874
q29 -6 45.5 -18.5t16.5 -27.5q0 -9 -6 -15t-14 -11q-21 -13 -36.5 -23.5t-30 -21.5t-30 -24.5t-36.5 -31.5q-19 5 -19 16q0 3 1 6t5 8z" />
    <glyph glyph-name="ohungarumlaut" unicode="&#x151;" horiz-adv-x="429" 
d="M245 442q37 0 64.5 -12.5t44.5 -35t25.5 -53.5t8.5 -67q0 -72 -23 -126t-58.5 -89.5t-79.5 -53t-86 -17.5q-35 0 -59.5 11t-39.5 32t-21.5 51.5t-6.5 68.5q0 66 22.5 120t57 92t75 58.5t76.5 20.5zM166 27q30 0 55.5 18t44 50t28.5 75.5t10 95.5q0 63 -15 100t-53 37
q-33 0 -59 -22t-43.5 -57t-26.5 -78t-9 -85q0 -66 15.5 -100t52.5 -34zM235 662q25 -5 44 -14t19 -29q0 -14 -19 -29q-24 -20 -47.5 -44t-52.5 -59q-19 5 -19 18q0 3 1 6t3 7zM372 662q25 -5 44 -14t19 -29q0 -14 -19 -29q-24 -20 -47.5 -44t-52.5 -59q-19 5 -19 18q0 3 1 6
t3 7z" />
    <glyph glyph-name="OE" unicode="&#x152;" horiz-adv-x="842" 
d="M354 0q-22 -5 -46 -8.5t-52 -3.5q-55 0 -98 19t-72 52.5t-44.5 79.5t-15.5 99q0 84 26 161t71 135.5t107 93t134 34.5q22 0 49.5 -3.5t44.5 -8.5h258q43 0 60 3t28 3q15 0 16 -12q2 -17 5 -51.5t12 -78.5q-4 -2 -10 -4.5t-11 -2.5q-14 0 -17 12q-12 51 -37 72t-76 21
h-125l-49 -261h136q22 0 32 15t18 41q2 5 5.5 8t11.5 3q10 0 20 -4q-7 -24 -11.5 -43.5t-8 -39.5t-6 -42t-4.5 -50q-9 -2 -12.5 -2.5t-5.5 -0.5q-9 0 -12.5 5t-2.5 11q2 23 -4 42t-28 19h-136l-47 -248q-2 -16 5 -21.5t24 -5.5h116q42 0 76 22.5t72 75.5q3 5 6.5 7.5
t9.5 2.5t12 -3t11 -8q-5 -10 -10 -21q-5 -9 -9.5 -21t-9.5 -24q-8 -20 -13.5 -39t-10.5 -27t-16 -8q-17 0 -34 2.5t-46 2.5h-286zM463 548q4 19 -3 33t-21 22t-33.5 12t-40.5 4q-63 0 -108.5 -31.5t-75.5 -82.5t-44 -114.5t-14 -127.5q0 -120 39.5 -176t127.5 -56
q37 0 57.5 11t25.5 38z" />
    <glyph glyph-name="oe" unicode="&#x153;" horiz-adv-x="666" 
d="M511 407q-23 0 -45 -14t-40 -38.5t-30.5 -58.5t-16.5 -73q97 15 140 47.5t43 79.5q0 28 -14 42.5t-37 14.5zM166 27q30 0 55.5 18t44 50t28.5 75.5t10 95.5q0 63 -15 100t-53 37q-33 0 -59 -22t-43.5 -57t-26.5 -78t-9 -85q0 -66 15.5 -100t52.5 -34zM642 352
q0 -37 -20.5 -64t-56.5 -46.5t-84.5 -31t-104.5 -17.5q-1 -9 -1 -18v-18q0 -23 5.5 -44.5t16.5 -38t29 -26.5t43 -10q61 0 122 43q9 7 14 7q7 0 9.5 -7t2.5 -12q-16 -15 -36.5 -30t-43.5 -26t-48.5 -18t-51.5 -7q-56 0 -84.5 22.5t-39.5 61.5q-35 -43 -79 -63.5t-89 -20.5
q-72 0 -101.5 43t-29.5 120q0 66 22.5 120t57 92t75 58.5t76.5 20.5q51 0 80.5 -25t41.5 -63q28 38 70 63t96 25q21 0 40.5 -4.5t34.5 -15t24.5 -28t9.5 -42.5z" />
    <glyph glyph-name="Racute" unicode="&#x154;" horiz-adv-x="598" 
d="M170 68q-4 -20 13.5 -28.5t43.5 -12.5q14 -3 14 -17q0 -3 -0.5 -7t-1.5 -9q-60 6 -118 6q-24 0 -57.5 -1.5t-60.5 -4.5q-1 5 -1.5 8.5t-0.5 7.5q0 13 13 15q26 5 46 14t24 29l99 514q4 19 -9.5 28t-37.5 13q-15 3 -15 16q0 8 3 17q30 -3 61.5 -4.5t57.5 -1.5h80
q94 0 146.5 -40.5t52.5 -109.5q0 -31 -9 -60t-29.5 -54.5t-53.5 -46.5t-81 -34l145 -246q9 -16 25.5 -23.5t36.5 -12.5q8 -2 8 -12q0 -4 -1 -8t-3 -9q-28 3 -52.5 4.5t-42.5 1.5t-32.5 13t-29.5 39l-152 260l4 18q84 1 128 41.5t44 125.5q0 24 -6.5 44.5t-21.5 36.5
t-38.5 25t-57.5 9h-29zM425 855q49 -22 49 -50q0 -12 -8.5 -18t-18.5 -9q-23 -8 -41.5 -14.5t-36.5 -14.5t-37.5 -17.5t-44.5 -21.5q-11 9 -11 17q0 3 1.5 6.5t7.5 8.5z" />
    <glyph glyph-name="racute" unicode="&#x155;" horiz-adv-x="360" 
d="M298 347q-16 0 -36.5 -14t-41 -38t-40 -55.5t-34.5 -67t-24 -72.5t-9 -71q0 -14 3 -27q-20 -2 -40.5 -6t-40.5 -9q-9 5 -9 12q0 6 2 14t4 13t4 12t4 20l44 227q7 39 9 53t3 20q0 13 -9 13q-4 0 -11.5 -3t-16 -7t-16 -7t-11.5 -3q-5 0 -8.5 6t-5.5 14q18 11 42.5 23.5
t47 23t40 17.5t22.5 7q7 0 12 -3.5t5 -11.5q0 -2 -0.5 -7t-1.5 -10l-32 -150h4q54 96 98.5 139t87.5 43q9 0 16.5 -3t10.5 -6q-9 -23 -16 -48t-11 -56h-16q-10 18 -29 18zM310 663q26 -5 42.5 -17.5t16.5 -26.5q0 -16 -21 -29q-20 -12 -36.5 -23t-33 -22.5t-35 -25.5
t-40.5 -32q-7 5 -11 9t-4 11q0 6 5 12z" />
    <glyph glyph-name="Rcommaaccent" unicode="&#x156;" horiz-adv-x="598" 
d="M170 68q-4 -20 13.5 -28.5t43.5 -12.5q14 -3 14 -17q0 -3 -0.5 -7t-1.5 -9q-60 6 -118 6q-24 0 -57.5 -1.5t-60.5 -4.5q-1 5 -1.5 8.5t-0.5 7.5q0 13 13 15q26 5 46 14t24 29l99 514q4 19 -9.5 28t-37.5 13q-15 3 -15 16q0 8 3 17q30 -3 61.5 -4.5t57.5 -1.5h80
q94 0 146.5 -40.5t52.5 -109.5q0 -31 -9 -60t-29.5 -54.5t-53.5 -46.5t-81 -34l145 -246q9 -16 25.5 -23.5t36.5 -12.5q8 -2 8 -12q0 -4 -1 -8t-3 -9q-28 3 -52.5 4.5t-42.5 1.5t-32.5 13t-29.5 39l-152 260l4 18q84 1 128 41.5t44 125.5q0 24 -6.5 44.5t-21.5 36.5
t-38.5 25t-57.5 9h-29zM221 -232q-10 7 -10 14.5t6 11.5q19 12 35.5 27.5t16.5 35.5q0 15 -15 27q-7 5 -13.5 10.5t-6.5 16.5t10.5 21.5t35.5 21.5q22 -13 36 -30t14 -41q0 -29 -23 -59.5t-86 -55.5z" />
    <glyph glyph-name="rcommaaccent" unicode="&#x157;" horiz-adv-x="360" 
d="M298 347q-16 0 -36.5 -14t-41 -38t-40 -55.5t-34.5 -67t-24 -72.5t-9 -71q0 -14 3 -27q-20 -2 -40.5 -6t-40.5 -9q-9 5 -9 12q0 6 2 14t4 13t4 12t4 20l44 227q7 39 9 53t3 20q0 13 -9 13q-4 0 -11.5 -3t-16 -7t-16 -7t-11.5 -3q-5 0 -8.5 6t-5.5 14q18 11 42.5 23.5
t47 23t40 17.5t22.5 7q7 0 12 -3.5t5 -11.5q0 -2 -0.5 -7t-1.5 -10l-32 -150h4q54 96 98.5 139t87.5 43q9 0 16.5 -3t10.5 -6q-9 -23 -16 -48t-11 -56h-16q-10 18 -29 18zM13 -232q-10 7 -9.5 15t5.5 11q19 12 35.5 27.5t16.5 35.5q0 15 -15 27q-7 5 -13.5 10.5t-6.5 16.5
t9 21t34 21q23 -14 38 -30t15 -40q0 -29 -23 -59.5t-86 -55.5z" />
    <glyph glyph-name="Rcaron" unicode="&#x158;" horiz-adv-x="598" 
d="M170 68q-4 -20 13.5 -28.5t43.5 -12.5q14 -3 14 -17q0 -3 -0.5 -7t-1.5 -9q-60 6 -118 6q-24 0 -57.5 -1.5t-60.5 -4.5q-1 5 -1.5 8.5t-0.5 7.5q0 13 13 15q26 5 46 14t24 29l99 514q4 19 -9.5 28t-37.5 13q-15 3 -15 16q0 8 3 17q30 -3 61.5 -4.5t57.5 -1.5h80
q94 0 146.5 -40.5t52.5 -109.5q0 -31 -9 -60t-29.5 -54.5t-53.5 -46.5t-81 -34l145 -246q9 -16 25.5 -23.5t36.5 -12.5q8 -2 8 -12q0 -4 -1 -8t-3 -9q-28 3 -52.5 4.5t-42.5 1.5t-32.5 13t-29.5 39l-152 260l4 18q84 1 128 41.5t44 125.5q0 24 -6.5 44.5t-21.5 36.5
t-38.5 25t-57.5 9h-29zM241 816q-5 6 -5 13q0 14 23 24q23 -19 45.5 -35.5t51.5 -31.5q32 15 61 31t65 36q17 -9 17 -19q0 -8 -8 -15l-128 -112q-26 0 -37 4.5t-22 20.5z" />
    <glyph glyph-name="rcaron" unicode="&#x159;" horiz-adv-x="360" 
d="M298 347q-16 0 -36.5 -14t-41 -38t-40 -55.5t-34.5 -67t-24 -72.5t-9 -71q0 -14 3 -27q-20 -2 -40.5 -6t-40.5 -9q-9 5 -9 12q0 6 2 14t4 13t4 12t4 20l44 227q7 39 9 53t3 20q0 13 -9 13q-4 0 -11.5 -3t-16 -7t-16 -7t-11.5 -3q-5 0 -8.5 6t-5.5 14q18 11 42.5 23.5
t47 23t40 17.5t22.5 7q7 0 12 -3.5t5 -11.5q0 -2 -0.5 -7t-1.5 -10l-32 -150h4q54 96 98.5 139t87.5 43q9 0 16.5 -3t10.5 -6q-9 -23 -16 -48t-11 -56h-16q-10 18 -29 18zM148 629q-4 8 -2 16t19 16q23 -32 41.5 -53.5t40.5 -42.5q30 22 56 43.5t61 53.5q17 -10 16.5 -18.5
t-5.5 -13.5l-117 -142q-29 -1 -41 4.5t-18 19.5z" />
    <glyph glyph-name="Sacute" unicode="&#x15a;" horiz-adv-x="520" 
d="M109 481q0 33 14 65t40 57.5t63 41.5t84 16q63 0 104 -13.5t73 -33.5q-5 -28 -6.5 -55t-0.5 -60q-5 -2 -10 -2.5t-8 -0.5q-13 0 -16.5 4.5t-5.5 12.5q-14 58 -49 82.5t-85 24.5q-24 0 -45.5 -7t-37.5 -19t-25.5 -29.5t-9.5 -38.5t10 -40.5t27 -38t38.5 -36.5t44.5 -37
q24 -20 47.5 -41t41.5 -44t29.5 -49.5t11.5 -57.5q0 -43 -17 -79t-48.5 -61.5t-77 -39.5t-101.5 -14q-61 0 -104.5 14.5t-70.5 33.5q5 42 7.5 82t0.5 78q5 2 10 3t10 1q13 0 16.5 -6t5.5 -18q6 -36 14.5 -63t24 -45t38.5 -27.5t58 -9.5q61 0 101.5 33t40.5 90q0 24 -8.5 44
t-22 38t-32 34t-37.5 31q-24 19 -48.5 38t-44 40.5t-32 46.5t-12.5 55zM415 855q49 -22 49 -50q0 -12 -8.5 -18t-18.5 -9q-23 -8 -41.5 -14.5t-36.5 -14.5t-37.5 -17.5t-44.5 -21.5q-11 9 -11 17q0 3 1.5 6.5t7.5 8.5z" />
    <glyph glyph-name="sacute" unicode="&#x15b;" horiz-adv-x="351" 
d="M289 332q-11 1 -14 5.5t-4 10.5q-5 30 -23 46.5t-49 16.5q-32 0 -55 -15.5t-23 -44.5q0 -20 17.5 -40.5t41.5 -41.5q18 -16 38 -33t36 -34.5t26.5 -36.5t10.5 -39q0 -29 -13 -54t-35.5 -43.5t-53 -29.5t-64.5 -11q-35 0 -68 6t-62 19q8 30 12.5 55.5t6.5 57.5h10
q24 0 24 -17q-2 -42 19.5 -65t59.5 -23q39 0 64 20.5t25 53.5q0 15 -7.5 29t-19.5 26.5t-27 25t-31 25.5q-30 25 -54.5 52.5t-24.5 63.5q0 27 12.5 50t34 39.5t50 26t60.5 9.5q58 0 109 -27q-5 -15 -8.5 -38t-5.5 -46zM274 663q26 -5 42.5 -17.5t16.5 -26.5q0 -16 -21 -29
q-20 -12 -36.5 -23t-33 -22.5t-35 -25.5t-40.5 -32q-7 5 -11 9t-4 11q0 6 5 12z" />
    <glyph glyph-name="Scircumflex" unicode="&#x15c;" horiz-adv-x="520" 
d="M109 481q0 33 14 65t40 57.5t63 41.5t84 16q63 0 104 -13.5t73 -33.5q-5 -28 -6.5 -55t-0.5 -60q-5 -2 -10 -2.5t-8 -0.5q-13 0 -16.5 4.5t-5.5 12.5q-14 58 -49 82.5t-85 24.5q-24 0 -45.5 -7t-37.5 -19t-25.5 -29.5t-9.5 -38.5t10 -40.5t27 -38t38.5 -36.5t44.5 -37
q24 -20 47.5 -41t41.5 -44t29.5 -49.5t11.5 -57.5q0 -43 -17 -79t-48.5 -61.5t-77 -39.5t-101.5 -14q-61 0 -104.5 14.5t-70.5 33.5q5 42 7.5 82t0.5 78q5 2 10 3t10 1q13 0 16.5 -6t5.5 -18q6 -36 14.5 -63t24 -45t38.5 -27.5t58 -9.5q61 0 101.5 33t40.5 90q0 24 -8.5 44
t-22 38t-32 34t-37.5 31q-24 19 -48.5 38t-44 40.5t-32 46.5t-12.5 55zM470 747q5 -6 5 -13q0 -14 -23 -24q-23 19 -45.5 35.5t-51.5 31.5q-32 -15 -61 -31t-65 -36q-17 8 -17 19q0 8 8 15l128 112q26 0 37 -4.5t22 -20.5z" />
    <glyph glyph-name="scircumflex" unicode="&#x15d;" horiz-adv-x="351" 
d="M289 332q-11 1 -14 5.5t-4 10.5q-5 30 -23 46.5t-49 16.5q-32 0 -55 -15.5t-23 -44.5q0 -20 17.5 -40.5t41.5 -41.5q18 -16 38 -33t36 -34.5t26.5 -36.5t10.5 -39q0 -29 -13 -54t-35.5 -43.5t-53 -29.5t-64.5 -11q-35 0 -68 6t-62 19q8 30 12.5 55.5t6.5 57.5h10
q24 0 24 -17q-2 -42 19.5 -65t59.5 -23q39 0 64 20.5t25 53.5q0 15 -7.5 29t-19.5 26.5t-27 25t-31 25.5q-30 25 -54.5 52.5t-24.5 63.5q0 27 12.5 50t34 39.5t50 26t60.5 9.5q58 0 109 -27q-5 -15 -8.5 -38t-5.5 -46zM343 520q3 -8 2 -15.5t-19 -15.5q-25 30 -43.5 52
t-39.5 41q-31 -19 -62 -42.5t-66 -52.5q-16 11 -16 19t5 14l122 141q29 1 43.5 -2.5t20.5 -17.5z" />
    <glyph glyph-name="Scedilla" unicode="&#x15e;" horiz-adv-x="530" 
d="M112 481q0 33 14 65t40 57.5t63 41.5t84 16q63 0 104 -13.5t73 -33.5q-5 -28 -6.5 -55t-0.5 -60q-5 -2 -10 -2.5t-8 -0.5q-13 0 -16.5 4.5t-5.5 12.5q-14 58 -49 82.5t-85 24.5q-24 0 -45.5 -7t-37.5 -19t-25.5 -29.5t-9.5 -38.5q0 -20 9 -38.5t24 -36t34.5 -34.5
t40.5 -34q25 -21 50.5 -42.5t46 -46t33 -52t12.5 -60.5q0 -77 -52 -128.5t-144 -62.5q-17 -20 -20.5 -28.5t-3.5 -18.5q0 -9 6 -18t12.5 -18.5t12.5 -19t6 -19.5q0 -15 -6.5 -28t-21 -26t-38.5 -26t-59 -28q-9 13 -7.5 20t12.5 13q31 17 41 29.5t10 26.5q0 9 -5 17.5
t-11.5 16.5t-11.5 16t-5 17q0 6 1.5 11.5t6.5 13t14.5 18.5t25.5 28h-7q-61 0 -104.5 14.5t-70.5 33.5q9 66 9 128q0 8 -0.5 16t-0.5 16q5 2 10 3t10 1q13 0 16.5 -6t5.5 -18q6 -36 14.5 -63t24 -45t38.5 -27.5t58 -9.5q61 0 101.5 33t40.5 90q0 25 -9 46t-23.5 39.5
t-33.5 35t-40 32.5q-24 18 -47 36.5t-42 39.5t-30.5 45t-11.5 53z" />
    <glyph glyph-name="scedilla" unicode="&#x15f;" horiz-adv-x="351" 
d="M289 332q-11 1 -14 5.5t-4 10.5q-5 30 -23 46.5t-49 16.5q-32 0 -55 -15.5t-23 -44.5q0 -20 17.5 -40.5t41.5 -41.5q18 -16 38 -33t36 -34.5t26.5 -36.5t10.5 -39q0 -25 -10 -47t-27.5 -40t-42 -30.5t-52.5 -17.5q-17 -20 -20.5 -28.5t-3.5 -18.5q0 -9 6 -18t12.5 -18.5
t12.5 -19t6 -19.5q0 -15 -6.5 -28t-21 -26t-38.5 -26t-59 -28q-9 13 -7.5 20t12.5 13q31 17 41 29.5t10 26.5q0 9 -5 17.5t-11.5 16.5t-11.5 16t-5 17q0 6 1.5 11.5t6.5 13t14.5 18.5t25.5 28q-33 1 -64 7t-59 18q8 30 12.5 55.5t6.5 57.5h10q24 0 24 -17q-2 -42 19.5 -65
t59.5 -23q39 0 64 20.5t25 53.5q0 15 -7.5 29t-19.5 26.5t-27 25t-31 25.5q-30 25 -54.5 52.5t-24.5 63.5q0 27 12.5 50t34 39.5t50 26t60.5 9.5q58 0 109 -27q-5 -15 -8.5 -38t-5.5 -46z" />
    <glyph glyph-name="Scaron" unicode="&#x160;" horiz-adv-x="520" 
d="M109 481q0 33 14 65t40 57.5t63 41.5t84 16q63 0 104 -13.5t73 -33.5q-5 -28 -6.5 -55t-0.5 -60q-5 -2 -10 -2.5t-8 -0.5q-13 0 -16.5 4.5t-5.5 12.5q-14 58 -49 82.5t-85 24.5q-24 0 -45.5 -7t-37.5 -19t-25.5 -29.5t-9.5 -38.5t10 -40.5t27 -38t38.5 -36.5t44.5 -37
q24 -20 47.5 -41t41.5 -44t29.5 -49.5t11.5 -57.5q0 -43 -17 -79t-48.5 -61.5t-77 -39.5t-101.5 -14q-61 0 -104.5 14.5t-70.5 33.5q5 42 7.5 82t0.5 78q5 2 10 3t10 1q13 0 16.5 -6t5.5 -18q6 -36 14.5 -63t24 -45t38.5 -27.5t58 -9.5q61 0 101.5 33t40.5 90q0 24 -8.5 44
t-22 38t-32 34t-37.5 31q-24 19 -48.5 38t-44 40.5t-32 46.5t-12.5 55zM233 816q-5 6 -5 13q0 14 23 24q23 -19 45.5 -35.5t51.5 -31.5q32 15 61 31t65 36q17 -9 17 -19q0 -8 -8 -15l-128 -112q-26 0 -37 4.5t-22 20.5z" />
    <glyph glyph-name="scaron" unicode="&#x161;" horiz-adv-x="351" 
d="M289 332q-11 1 -14 5.5t-4 10.5q-5 30 -23 46.5t-49 16.5q-32 0 -55 -15.5t-23 -44.5q0 -20 17.5 -40.5t41.5 -41.5q18 -16 38 -33t36 -34.5t26.5 -36.5t10.5 -39q0 -29 -13 -54t-35.5 -43.5t-53 -29.5t-64.5 -11q-35 0 -68 6t-62 19q8 30 12.5 55.5t6.5 57.5h10
q24 0 24 -17q-2 -42 19.5 -65t59.5 -23q39 0 64 20.5t25 53.5q0 15 -7.5 29t-19.5 26.5t-27 25t-31 25.5q-30 25 -54.5 52.5t-24.5 63.5q0 27 12.5 50t34 39.5t50 26t60.5 9.5q58 0 109 -27q-5 -15 -8.5 -38t-5.5 -46zM135 629q-4 8 -2 16t19 16q23 -32 41.5 -53.5
t40.5 -42.5q30 22 56 43.5t61 53.5q17 -10 16.5 -18.5t-5.5 -13.5l-117 -142q-29 -1 -41 4.5t-18 19.5z" />
    <glyph glyph-name="uni0162" unicode="&#x162;" horiz-adv-x="639" 
d="M333 612h-83q-26 0 -45 -5.5t-34 -16.5t-29 -28.5t-30 -42.5q-4 -6 -9 -8t-10 -2q-8 0 -12 2t-6 4q10 21 16 39.5t11 35.5q4 13 6 22t3.5 15t3 10.5t4.5 9.5q6 9 18 9q7 0 17.5 -1.5t23.5 -2.5q14 -1 30 -1.5t30 -0.5h293q15 0 30 0.5t27 1.5q9 1 16.5 2.5t15.5 1.5
q5 0 10 -2t6 -7q2 -7 2 -21t4 -37q2 -16 6 -34t9 -39q-9 -7 -21 -7t-15 10q-14 51 -40 72t-79 21h-83l-101 -537q-2 -12 3 -20t14.5 -13.5t22 -8.5t24.5 -5q5 -1 10 -3.5t5 -13.5q0 -8 -3 -17q-48 6 -101 6q-11 -13 -17.5 -21.5t-9.5 -14.5t-4 -10.5t-1 -9.5q0 -9 6 -18
t12.5 -18.5t12.5 -19t6 -19.5q0 -15 -6.5 -28t-21 -26t-38.5 -26t-59 -28q-9 13 -7.5 20t12.5 13q31 17 41 29.5t10 26.5q0 9 -5 17.5t-11.5 16.5t-11.5 16t-5 17q0 6 2 12t8.5 15t18 22.5t31.5 33.5q-30 0 -61 -1.5t-55 -4.5q-1 5 -1.5 9t-0.5 8q0 5 3 10.5t8 6.5
q35 5 57 16t26 31z" />
    <glyph glyph-name="uni0163" unicode="&#x163;" horiz-adv-x="299" 
d="M118 447q8 38 8 61q0 13 -3 27q19 3 40 6t42 9q8 -6 8 -12q0 -2 -0.5 -8t-1.5 -10l-17 -90h103q-3 -9 -6 -22t-5 -24q-25 4 -51 6t-49 3l-55 -312q-3 -15 -3 -21q0 -24 29 -24q15 0 27.5 3.5t22.5 8.5q9 4 15.5 7.5t10.5 3.5q11 0 13 -19q-24 -19 -52 -31.5t-55 -17.5
q-17 -20 -20.5 -28.5t-3.5 -18.5q0 -9 6 -18t12.5 -18.5t12.5 -19t6 -19.5q0 -15 -6.5 -28t-21 -26t-38.5 -26t-59 -28q-9 13 -7.5 20t12.5 13q31 17 41 29.5t10 26.5q0 9 -5 17.5t-11.5 16.5t-11.5 16t-5 17q0 6 1.5 11.5t6.5 13t14.5 18.5t25.5 28q-29 2 -41.5 13
t-12.5 33q0 11 2 21l63 341h-73q2 17 6.5 25.5t15.5 8.5h57z" />
    <glyph glyph-name="Tcaron" unicode="&#x164;" horiz-adv-x="639" 
d="M333 612h-83q-26 0 -45 -5.5t-34 -16.5t-29 -28.5t-30 -42.5q-4 -6 -9 -8t-10 -2q-8 0 -12 2t-6 4q10 21 16 39.5t11 35.5q4 13 6 22t3.5 15t3 10.5t4.5 9.5q6 9 18 9q7 0 17.5 -1.5t23.5 -2.5q14 -1 30 -1.5t30 -0.5h293q15 0 30 0.5t27 1.5q9 1 16.5 2.5t15.5 1.5
q5 0 10 -2t6 -7q2 -7 2 -21t4 -37q2 -16 6 -34t9 -39q-9 -7 -21 -7t-15 10q-14 51 -40 72t-79 21h-83l-101 -537q-2 -12 3 -20t14.5 -13.5t22 -8.5t24.5 -5q5 -1 10 -3.5t5 -13.5q0 -8 -3 -17q-29 3 -59.5 4.5t-68.5 1.5q-32 0 -66 -1.5t-60 -4.5q-1 5 -1.5 9t-0.5 8
q0 5 3 10.5t8 6.5q35 5 57 16t26 31zM285 816q-5 6 -5 13q0 14 23 24q23 -19 45.5 -35.5t51.5 -31.5q32 15 61 31t65 36q17 -9 17 -19q0 -8 -8 -15l-128 -112q-26 0 -37 4.5t-22 20.5z" />
    <glyph glyph-name="tcaron" unicode="&#x165;" horiz-adv-x="299" 
d="M118 447q8 38 8 61q0 13 -3 27q19 3 40 6t42 9q8 -6 8 -12q0 -2 -0.5 -8t-1.5 -10l-17 -90h103q-3 -9 -6 -22t-5 -24q-25 4 -51 6t-49 3l-55 -312q-3 -15 -3 -21q0 -24 29 -24q15 0 27.5 3.5t22.5 8.5q9 4 15.5 7.5t10.5 3.5q11 0 13 -19q-31 -24 -67.5 -38t-68.5 -14
q-36 0 -51 11.5t-15 34.5q0 11 2 21l63 341h-73q2 17 6.5 25.5t15.5 8.5h57zM297 694q13 8 27 13t27 5q22 0 31 -12t-2 -34q-11 -21 -20 -41t-17.5 -41t-17 -43.5t-18.5 -49.5q-5 -1 -8.5 -1.5t-7.5 -0.5q-20 0 -17 22z" />
    <glyph glyph-name="Tbar" unicode="&#x166;" horiz-adv-x="639" 
d="M282 341h-127q5 25 13 33.5t27 8.5h95l43 229h-83q-26 0 -45 -5.5t-34 -16.5t-29 -28.5t-30 -42.5q-4 -6 -9 -8t-10 -2q-8 0 -12 2t-6 4q10 21 16 39.5t11 35.5q4 13 6 22t3.5 15t3 10.5t4.5 9.5q6 9 18 9q7 0 17.5 -1.5t23.5 -2.5q14 -1 30 -1.5t30 -0.5h293
q15 0 30 0.5t27 1.5q9 1 16.5 2.5t15.5 1.5q5 0 10 -2t6 -7q2 -7 2 -21t4 -37q2 -16 6 -34t9 -39q-9 -7 -21 -7t-15 10q-14 51 -40 72t-79 21h-83l-43 -229h142q-2 -27 -12 -34.5t-28 -7.5h-110l-50 -266q-2 -12 3 -20t14.5 -13.5t22 -8.5t24.5 -5q5 -1 10 -3.5t5 -13.5
q0 -8 -3 -17q-29 3 -59.5 4.5t-68.5 1.5q-32 0 -66 -1.5t-60 -4.5q-1 5 -1.5 9t-0.5 8q0 5 3 10.5t8 6.5q35 5 57 16t26 31z" />
    <glyph glyph-name="tbar" unicode="&#x167;" horiz-adv-x="299" 
d="M118 447q8 38 8 61q0 13 -3 27q19 3 40 6t42 9q8 -6 8 -12q0 -2 -0.5 -8t-1.5 -10l-17 -90h103q-3 -9 -6 -22t-5 -24q-25 4 -51 6t-49 3l-21 -116h110q-2 -27 -12 -34.5t-28 -7.5h-77l-27 -154q-3 -15 -3 -21q0 -24 29 -24q15 0 27.5 3.5t22.5 8.5q9 4 15.5 7.5t10.5 3.5
q11 0 13 -19q-31 -24 -67.5 -38t-68.5 -14q-36 0 -51 11.5t-15 34.5q0 11 2 21l33 180h-63q5 25 13 33.5t27 8.5h31l22 119h-73q2 17 6.5 25.5t15.5 8.5h57z" />
    <glyph glyph-name="Utilde" unicode="&#x168;" horiz-adv-x="725" 
d="M581 223q-9 -50 -31.5 -93t-57 -74.5t-80.5 -49.5t-104 -18q-57 0 -99 18.5t-68 50t-35 74.5t1 93l69 357q4 21 -11.5 30t-37.5 11q-15 2 -15 16q0 7 3 18q60 -6 110 -6q21 0 54.5 1.5t60.5 4.5q1 -5 1.5 -9t0.5 -7q0 -6 -3.5 -10.5t-11.5 -5.5q-26 -4 -43.5 -13.5
t-21.5 -28.5l-66 -341q-7 -38 -3.5 -74t19.5 -64.5t44.5 -46t71.5 -17.5q36 0 69.5 10.5t62 34t49.5 61.5t32 94l65 341q4 20 -10 30t-40 14q-12 1 -12 16q0 3 0.5 7t1.5 9q30 -3 49 -4.5t39 -1.5q18 0 39.5 1t47.5 4q1 -5 2 -9t1 -7q0 -13 -13 -15q-25 -4 -41 -14t-20 -28z
M330 736q37 37 59 50t42 13q10 0 20 -4t20 -9t19.5 -9t18.5 -4q11 0 26 6t38 23q6 -4 10.5 -8.5t4.5 -11.5t-5 -12q-20 -21 -45.5 -40.5t-47.5 -19.5q-13 0 -24.5 4.5t-22 9.5t-20 9.5t-18.5 4.5q-12 0 -25 -5.5t-39 -25.5q-6 4 -11 9t-5 10t5 10z" />
    <glyph glyph-name="utilde" unicode="&#x169;" horiz-adv-x="511" 
d="M130 128q-6 -29 -6 -45t9.5 -23t24.5 -7q22 0 46 17.5t47.5 46.5t45 66t37.5 75.5t25.5 76t9.5 66.5q0 13 -3 27q39 5 79 15q8 -5 8 -12q0 -2 -1 -8.5t-2 -10.5l-68 -344q-3 -18 13 -18q6 0 13.5 3.5t14.5 7t13.5 7t10.5 3.5q9 0 12 -18q-18 -13 -38 -25t-38 -21
t-33.5 -14t-24.5 -5q-10 0 -19 4.5t-9 20.5q0 2 0.5 9t2.5 13l29 138h-4q-53 -98 -107 -141.5t-107 -43.5q-32 0 -50 16t-18 48q0 12 2 28t5 31l49 230q0 2 1 7t1 7q2 17 -9 17q-5 0 -13.5 -3.5t-17.5 -7t-16.5 -7t-11.5 -3.5q-5 0 -8 6t-5 13q17 10 40.5 23t46 23.5
t40.5 18t24 7.5q20 0 20 -17q0 -5 -1 -10l-2 -10zM181 555q37 37 59 50t42 13q10 0 20 -4t20 -9t19.5 -9t18.5 -4q11 0 26 6t38 23q6 -4 10.5 -8.5t4.5 -11.5t-5 -12q-20 -21 -45.5 -40.5t-47.5 -19.5q-13 0 -24.5 4.5t-22 9.5t-20 9.5t-18.5 4.5q-12 0 -25 -5.5t-39 -25.5
q-6 4 -11 9t-5 10t5 10z" />
    <glyph glyph-name="Umacron" unicode="&#x16a;" horiz-adv-x="725" 
d="M582 223q-9 -50 -31.5 -93t-57 -74.5t-80.5 -49.5t-104 -18q-57 0 -99 18.5t-68 50t-35 74.5t1 93l69 357q4 21 -11.5 30t-37.5 11q-15 2 -15 16q0 7 3 18q60 -6 110 -6q21 0 54.5 1.5t60.5 4.5q1 -5 1.5 -9t0.5 -7q0 -6 -3.5 -10.5t-11.5 -5.5q-26 -4 -43.5 -13.5
t-21.5 -28.5l-66 -341q-7 -38 -3.5 -74t19.5 -64.5t44.5 -46t71.5 -17.5q36 0 69.5 10.5t62 34t49.5 61.5t32 94l65 341q4 20 -10 30t-40 14q-12 1 -12 16q0 3 0.5 7t1.5 9q30 -3 49 -4.5t39 -1.5q18 0 39.5 1t47.5 4q1 -5 2 -9t1 -7q0 -13 -13 -15q-25 -4 -41 -14t-20 -28z
M339 739q4 31 13 43t27 12h211q-4 -31 -13 -43t-26 -12h-212z" />
    <glyph glyph-name="umacron" unicode="&#x16b;" horiz-adv-x="511" 
d="M130 128q-6 -29 -6 -45t9.5 -23t24.5 -7q22 0 46 17.5t47.5 46.5t45 66t37.5 75.5t25.5 76t9.5 66.5q0 13 -3 27q39 5 79 15q8 -5 8 -12q0 -2 -1 -8.5t-2 -10.5l-68 -344q-3 -18 13 -18q6 0 13.5 3.5t14.5 7t13.5 7t10.5 3.5q9 0 12 -18q-18 -13 -38 -25t-38 -21
t-33.5 -14t-24.5 -5q-10 0 -19 4.5t-9 20.5q0 2 0.5 9t2.5 13l29 138h-4q-53 -98 -107 -141.5t-107 -43.5q-32 0 -50 16t-18 48q0 12 2 28t5 31l49 230q0 2 1 7t1 7q2 17 -9 17q-5 0 -13.5 -3.5t-17.5 -7t-16.5 -7t-11.5 -3.5q-5 0 -8 6t-5 13q17 10 40.5 23t46 23.5
t40.5 18t24 7.5q20 0 20 -17q0 -5 -1 -10l-2 -10zM185 543q4 31 13 43t27 12h211q-4 -31 -13 -43t-26 -12h-212z" />
    <glyph glyph-name="Ubreve" unicode="&#x16c;" horiz-adv-x="725" 
d="M582 223q-9 -50 -31.5 -93t-57 -74.5t-80.5 -49.5t-104 -18q-57 0 -99 18.5t-68 50t-35 74.5t1 93l69 357q4 21 -11.5 30t-37.5 11q-15 2 -15 16q0 7 3 18q60 -6 110 -6q21 0 54.5 1.5t60.5 4.5q1 -5 1.5 -9t0.5 -7q0 -6 -3.5 -10.5t-11.5 -5.5q-26 -4 -43.5 -13.5
t-21.5 -28.5l-66 -341q-7 -38 -3.5 -74t19.5 -64.5t44.5 -46t71.5 -17.5q36 0 69.5 10.5t62 34t49.5 61.5t32 94l65 341q4 20 -10 30t-40 14q-12 1 -12 16q0 3 0.5 7t1.5 9q30 -3 49 -4.5t39 -1.5q18 0 39.5 1t47.5 4q1 -5 2 -9t1 -7q0 -13 -13 -15q-25 -4 -41 -14t-20 -28z
M473 772q24 0 47.5 15t50.5 54q28 -4 20 -22q-24 -55 -58 -81.5t-72 -26.5q-48 0 -70 30.5t-28 79.5q-1 9 3 14t19 6q16 -41 36.5 -55t51.5 -14z" />
    <glyph glyph-name="ubreve" unicode="&#x16d;" horiz-adv-x="511" 
d="M130 128q-6 -29 -6 -45t9.5 -23t24.5 -7q22 0 46 17.5t47.5 46.5t45 66t37.5 75.5t25.5 76t9.5 66.5q0 13 -3 27q39 5 79 15q8 -5 8 -12q0 -2 -1 -8.5t-2 -10.5l-68 -344q-3 -18 13 -18q6 0 13.5 3.5t14.5 7t13.5 7t10.5 3.5q9 0 12 -18q-18 -13 -38 -25t-38 -21
t-33.5 -14t-24.5 -5q-10 0 -19 4.5t-9 20.5q0 2 0.5 9t2.5 13l29 138h-4q-53 -98 -107 -141.5t-107 -43.5q-32 0 -50 16t-18 48q0 12 2 28t5 31l49 230q0 2 1 7t1 7q2 17 -9 17q-5 0 -13.5 -3.5t-17.5 -7t-16.5 -7t-11.5 -3.5q-5 0 -8 6t-5 13q17 10 40.5 23t46 23.5
t40.5 18t24 7.5q20 0 20 -17q0 -5 -1 -10l-2 -10zM306 566q24 0 47.5 15t50.5 54q28 -4 20 -22q-24 -55 -58 -81.5t-72 -26.5q-48 0 -70 30.5t-28 79.5q-1 9 3 14t19 6q16 -41 36.5 -55t51.5 -14z" />
    <glyph glyph-name="Uring" unicode="&#x16e;" horiz-adv-x="725" 
d="M582 223q-9 -50 -31.5 -93t-57 -74.5t-80.5 -49.5t-104 -18q-57 0 -99 18.5t-68 50t-35 74.5t1 93l69 357q4 21 -11.5 30t-37.5 11q-15 2 -15 16q0 7 3 18q60 -6 110 -6q21 0 54.5 1.5t60.5 4.5q1 -5 1.5 -9t0.5 -7q0 -6 -3.5 -10.5t-11.5 -5.5q-26 -4 -43.5 -13.5
t-21.5 -28.5l-66 -341q-7 -38 -3.5 -74t19.5 -64.5t44.5 -46t71.5 -17.5q36 0 69.5 10.5t62 34t49.5 61.5t32 94l65 341q4 20 -10 30t-40 14q-12 1 -12 16q0 3 0.5 7t1.5 9q30 -3 49 -4.5t39 -1.5q18 0 39.5 1t47.5 4q1 -5 2 -9t1 -7q0 -13 -13 -15q-25 -4 -41 -14t-20 -28z
M383 783q0 20 8 37.5t20.5 30t29 19.5t33.5 7q41 0 58 -22t17 -55q0 -21 -8 -38.5t-21 -30t-29 -19.5t-31 -7q-42 0 -59.5 22t-17.5 56zM460 739q18 0 29 18t11 48q0 20 -9 29t-20 9q-19 0 -29 -20t-10 -46q0 -20 9 -29t19 -9z" />
    <glyph glyph-name="uring" unicode="&#x16f;" horiz-adv-x="511" 
d="M130 128q-6 -29 -6 -45t9.5 -23t24.5 -7q22 0 46 17.5t47.5 46.5t45 66t37.5 75.5t25.5 76t9.5 66.5q0 13 -3 27q39 5 79 15q8 -5 8 -12q0 -2 -1 -8.5t-2 -10.5l-68 -344q-3 -18 13 -18q6 0 13.5 3.5t14.5 7t13.5 7t10.5 3.5q9 0 12 -18q-18 -13 -38 -25t-38 -21
t-33.5 -14t-24.5 -5q-10 0 -19 4.5t-9 20.5q0 2 0.5 9t2.5 13l29 138h-4q-53 -98 -107 -141.5t-107 -43.5q-32 0 -50 16t-18 48q0 12 2 28t5 31l49 230q0 2 1 7t1 7q2 17 -9 17q-5 0 -13.5 -3.5t-17.5 -7t-16.5 -7t-11.5 -3.5q-5 0 -8 6t-5 13q17 10 40.5 23t46 23.5
t40.5 18t24 7.5q20 0 20 -17q0 -5 -1 -10l-2 -10zM217 565q0 20 8 37.5t20.5 30t29 19.5t33.5 7q41 0 58 -22t17 -55q0 -21 -8 -38.5t-21 -30t-29 -19.5t-31 -7q-42 0 -59.5 22t-17.5 56zM294 521q18 0 29 18t11 48q0 20 -9 29t-20 9q-19 0 -29 -20t-10 -46q0 -20 9 -29
t19 -9z" />
    <glyph glyph-name="Uhungarumlaut" unicode="&#x170;" horiz-adv-x="725" 
d="M582 223q-9 -50 -31.5 -93t-57 -74.5t-80.5 -49.5t-104 -18q-57 0 -99 18.5t-68 50t-35 74.5t1 93l69 357q4 21 -11.5 30t-37.5 11q-15 2 -15 16q0 7 3 18q60 -6 110 -6q21 0 54.5 1.5t60.5 4.5q1 -5 1.5 -9t0.5 -7q0 -6 -3.5 -10.5t-11.5 -5.5q-26 -4 -43.5 -13.5
t-21.5 -28.5l-66 -341q-7 -38 -3.5 -74t19.5 -64.5t44.5 -46t71.5 -17.5q36 0 69.5 10.5t62 34t49.5 61.5t32 94l65 341q4 20 -10 30t-40 14q-12 1 -12 16q0 3 0.5 7t1.5 9q30 -3 49 -4.5t39 -1.5q18 0 39.5 1t47.5 4q1 -5 2 -9t1 -7q0 -13 -13 -15q-25 -4 -41 -14t-20 -28z
M453 874q29 -6 45.5 -18.5t16.5 -27.5q0 -9 -6 -15t-14 -11q-21 -13 -36.5 -23.5t-30 -21.5t-30 -24.5t-36.5 -31.5q-19 5 -19 16q0 3 1 6t5 8zM594 874q29 -6 45.5 -18.5t16.5 -27.5q0 -9 -6 -15t-14 -11q-21 -13 -36.5 -23.5t-30 -21.5t-30 -24.5t-36.5 -31.5
q-19 5 -19 16q0 3 1 6t5 8z" />
    <glyph glyph-name="uhungarumlaut" unicode="&#x171;" horiz-adv-x="511" 
d="M130 128q-6 -29 -6 -45t9.5 -23t24.5 -7q22 0 46 17.5t47.5 46.5t45 66t37.5 75.5t25.5 76t9.5 66.5q0 13 -3 27q39 5 79 15q8 -5 8 -12q0 -2 -1 -8.5t-2 -10.5l-68 -344q-3 -18 13 -18q6 0 13.5 3.5t14.5 7t13.5 7t10.5 3.5q9 0 12 -18q-18 -13 -38 -25t-38 -21
t-33.5 -14t-24.5 -5q-10 0 -19 4.5t-9 20.5q0 2 0.5 9t2.5 13l29 138h-4q-53 -98 -107 -141.5t-107 -43.5q-32 0 -50 16t-18 48q0 12 2 28t5 31l49 230q0 2 1 7t1 7q2 17 -9 17q-5 0 -13.5 -3.5t-17.5 -7t-16.5 -7t-11.5 -3.5q-5 0 -8 6t-5 13q17 10 40.5 23t46 23.5
t40.5 18t24 7.5q20 0 20 -17q0 -5 -1 -10l-2 -10zM269 662q25 -5 44 -14t19 -29q0 -14 -19 -29q-24 -20 -47.5 -44t-52.5 -59q-19 5 -19 18q0 3 1 6t3 7zM406 662q25 -5 44 -14t19 -29q0 -14 -19 -29q-24 -20 -47.5 -44t-52.5 -59q-19 5 -19 18q0 3 1 6t3 7z" />
    <glyph glyph-name="Uogonek" unicode="&#x172;" horiz-adv-x="725" 
d="M582 223q-29 -148 -159 -222q-29 -16 -47 -34t-29 -36t-15 -35.5t-4 -31.5q0 -18 7.5 -28.5t21.5 -10.5q16 0 45 13q10 5 15 1.5t7 -19.5q-29 -17 -59.5 -31t-53.5 -14q-28 0 -43 18t-15 44q0 25 8.5 44t25.5 42q12 17 27 34t30 33q-8 -2 -17 -2h-18q-57 0 -99 18.5
t-68 50t-35 74.5t1 93l69 357q4 21 -11.5 30t-37.5 11q-15 2 -15 16q0 7 3 18q60 -6 110 -6q21 0 54.5 1.5t60.5 4.5q1 -5 1.5 -9t0.5 -7q0 -6 -3.5 -10.5t-11.5 -5.5q-26 -4 -43.5 -13.5t-21.5 -28.5l-66 -341q-7 -38 -3.5 -74t19.5 -64.5t44.5 -46t71.5 -17.5
q36 0 69.5 10.5t62 34t49.5 61.5t32 94l65 341q4 20 -10 30t-40 14q-12 1 -12 16q0 3 0.5 7t1.5 9q30 -3 49 -4.5t39 -1.5q18 0 39.5 1t47.5 4q1 -5 2 -9t1 -7q0 -13 -13 -15q-25 -4 -41 -14t-20 -28z" />
    <glyph glyph-name="uogonek" unicode="&#x173;" horiz-adv-x="511" 
d="M130 128q-6 -29 -6 -45t9.5 -23t24.5 -7q22 0 46 17.5t47.5 46.5t45 66t37.5 75.5t25.5 76t9.5 66.5q0 13 -3 27q39 5 79 15q8 -5 8 -12q0 -2 -1 -8.5t-2 -10.5l-68 -344q-3 -18 13 -18q6 0 13.5 3.5t14.5 7t13.5 7t10.5 3.5q9 0 12 -18q-35 -24 -66 -45
q-53 -35 -74.5 -74t-21.5 -70q0 -18 7.5 -28.5t21.5 -10.5q16 0 45 13q10 5 15 1.5t7 -19.5q-29 -17 -59.5 -31t-53.5 -14q-28 0 -43 18t-15 44q0 25 8.5 44t25.5 42q12 17 26.5 34t30.5 33q-16 4 -16 23q0 2 0.5 9t2.5 13l29 138h-4q-53 -98 -107 -141.5t-107 -43.5
q-32 0 -50 16t-18 48q0 12 2 28t5 31l49 230q0 2 1 7t1 7q2 17 -9 17q-5 0 -13.5 -3.5t-17.5 -7t-16.5 -7t-11.5 -3.5q-5 0 -8 6t-5 13q17 10 40.5 23t46 23.5t40.5 18t24 7.5q20 0 20 -17q0 -5 -1 -10l-2 -10z" />
    <glyph glyph-name="Wcircumflex" unicode="&#x174;" horiz-adv-x="950" 
d="M112 588q-3 16 -17 22.5t-36 10.5q-13 4 -13 18q0 8 3 17q29 -3 59.5 -4.5t55.5 -1.5q21 0 55 1.5t61 4.5q1 -5 1.5 -9t0.5 -8q0 -5 -3 -10t-9 -6q-31 -3 -45 -13t-10 -32l72 -422l265 503q6 3 14 3q13 0 14 -13l75 -497l225 423q13 24 3 35t-40 14q-13 1 -13 15
q0 3 0.5 7.5t1.5 9.5q29 -3 55 -4.5t46 -1.5q18 0 36.5 1.5t45.5 3.5q1 -5 1.5 -9t0.5 -7q0 -13 -15 -16q-50 -8 -65 -36l-323 -596q-6 -3 -13 -3q-14 0 -17 15l-76 482l-262 -494q-6 -3 -13 -3q-14 0 -17 15zM699 747q5 -6 5 -13q0 -14 -23 -24q-23 19 -45.5 35.5
t-51.5 31.5q-32 -15 -61 -31t-65 -36q-17 8 -17 19q0 8 8 15l128 112q26 0 37 -4.5t22 -20.5z" />
    <glyph glyph-name="wcircumflex" unicode="&#x175;" horiz-adv-x="725" 
d="M329 93q2 14 4.5 35.5t4.5 36.5q-53 -80 -109 -128.5t-104 -48.5q-60 0 -60 62q0 12 1 26.5t3 31.5l28 231q1 4 1.5 10t0.5 8q0 17 -12 17q-6 0 -14.5 -3.5t-16.5 -7t-15 -7t-11 -3.5q-10 0 -14 19q20 15 41.5 27.5t41 22t35.5 15t25 5.5q10 0 19 -4.5t9 -21.5
q0 -3 -0.5 -10t-1.5 -12q-7 -69 -15.5 -135.5t-16.5 -134.5q-3 -26 -3 -41q0 -18 5.5 -24.5t19.5 -6.5q17 0 39 16.5t44 43t41.5 59.5t33.5 66q18 46 22.5 85t4.5 55t-2.5 27.5t-5.5 16.5l6 7q18 2 38 6t42 10q7 -10 7 -29q0 -3 -0.5 -12.5t-1.5 -15.5l-31 -260
q-2 -14 -3 -26t-1 -20q0 -16 5.5 -22t19.5 -6q27 0 58.5 29t59.5 72t46.5 92.5t18.5 90.5q0 23 -6 43.5t-20 34.5l10 14q27 2 49 5t48 9q4 -11 5.5 -24t1.5 -24q0 -27 -14 -67.5t-38 -85.5t-55.5 -90.5t-67 -82t-72 -59t-69.5 -22.5q-57 0 -61 55q-1 11 -0.5 23.5t2.5 26.5z
M536 520q3 -8 2 -15.5t-19 -15.5q-25 30 -43.5 52t-39.5 41q-31 -19 -62 -42.5t-66 -52.5q-16 11 -16 19t5 14l122 141q29 1 43.5 -2.5t20.5 -17.5z" />
    <glyph glyph-name="Ycircumflex" unicode="&#x176;" horiz-adv-x="548" 
d="M224 288l-113 302q-4 11 -16 19t-36 12q-13 3 -13 17q0 8 3 17q29 -3 58 -4.5t55 -1.5q10 0 24.5 0.5t30.5 1t31.5 1.5t28.5 3q1 -5 1.5 -9t0.5 -8q0 -5 -3 -9.5t-9 -5.5q-31 -2 -44 -15t-5 -36l84 -233l176 235q14 18 3.5 33t-38.5 17q-14 1 -14 15q0 8 3 17
q26 -3 53 -4.5t47 -1.5q18 0 39 1.5t47 4.5q3 -9 3 -16q0 -14 -16 -17q-24 -4 -39 -13t-26 -23l-219 -288l-44 -228q-4 -21 10.5 -31t39.5 -13q15 -2 15 -16q0 -8 -3 -17q-30 3 -63 4.5t-58 1.5q-11 0 -25.5 -0.5t-31 -1t-32.5 -2t-29 -2.5q-1 5 -1.5 9t-0.5 7q0 5 3 10
t10 6q26 4 46.5 14.5t25.5 30.5zM494 747q5 -6 5 -13q0 -14 -23 -24q-23 19 -45.5 35.5t-51.5 31.5q-32 -15 -61 -31t-65 -36q-17 8 -17 19q0 8 8 15l128 112q26 0 37 -4.5t22 -20.5z" />
    <glyph glyph-name="ycircumflex" unicode="&#x177;" horiz-adv-x="507" 
d="M150 -213q47 0 79.5 34.5t46.5 100.5l52 251h-4q-54 -100 -106 -142.5t-104 -42.5q-33 0 -50.5 14t-17.5 46q0 12 2 28.5t5 31.5l49 233q1 3 2 9.5t1 9.5q0 12 -10 12q-5 0 -13.5 -3.5t-17.5 -7t-16.5 -7t-11.5 -3.5q-5 0 -8 6t-4 13q17 10 40 23t45.5 23.5t40.5 18
t25 7.5q19 0 19 -20q0 -9 -2 -17l-58 -277q-6 -27 -6 -45q0 -28 30 -28q23 0 48 18t48 47t43.5 66.5t36 75.5t24.5 74.5t9 64.5q0 14 -3 28q40 3 82 14q6 -6 6 -12q0 -2 -1 -8.5t-2 -10.5l-90 -454q-11 -54 -36 -93.5t-57 -65.5t-68.5 -38.5t-69.5 -12.5q-71 0 -114 20
q8 23 12 40.5t7 42.5l17 6q14 -29 40.5 -49.5t59.5 -20.5zM417 520q3 -8 2 -15.5t-19 -15.5q-25 30 -43.5 52t-39.5 41q-31 -19 -62 -42.5t-66 -52.5q-16 11 -16 19t5 14l122 141q29 1 43.5 -2.5t20.5 -17.5z" />
    <glyph glyph-name="Ydieresis" unicode="&#x178;" horiz-adv-x="548" 
d="M224 288l-113 302q-4 11 -16 19t-36 12q-13 3 -13 17q0 8 3 17q29 -3 58 -4.5t55 -1.5q10 0 24.5 0.5t30.5 1t31.5 1.5t28.5 3q1 -5 1.5 -9t0.5 -8q0 -5 -3 -9.5t-9 -5.5q-31 -2 -44 -15t-5 -36l84 -233l176 235q14 18 3.5 33t-38.5 17q-14 1 -14 15q0 8 3 17
q26 -3 53 -4.5t47 -1.5q18 0 39 1.5t47 4.5q3 -9 3 -16q0 -14 -16 -17q-24 -4 -39 -13t-26 -23l-219 -288l-44 -228q-4 -21 10.5 -31t39.5 -13q15 -2 15 -16q0 -8 -3 -17q-30 3 -63 4.5t-58 1.5q-11 0 -25.5 -0.5t-31 -1t-32.5 -2t-29 -2.5q-1 5 -1.5 9t-0.5 7q0 5 3 10
t10 6q26 4 46.5 14.5t25.5 30.5zM241 756q0 25 15 40t33 15q21 0 32.5 -13t11.5 -34q0 -25 -14.5 -40t-33.5 -15q-20 0 -32 13t-12 34zM397 756q0 25 15 40t33 15q21 0 32.5 -13t11.5 -34q0 -25 -14.5 -40t-33.5 -15q-20 0 -32 13t-12 34z" />
    <glyph glyph-name="Zacute" unicode="&#x179;" horiz-adv-x="605" 
d="M-16 0q-1 5 -0.5 9.5t4.5 9.5l504 592h-236q-31 0 -53.5 -3.5t-39 -14t-30 -29.5t-26.5 -50q-7 -16 -22 -16q-7 0 -13 2t-8 5q15 41 25 73.5t16 55.5q3 12 8.5 16.5t16.5 4.5q21 0 43.5 -2.5t57.5 -2.5h391q1 -5 0.5 -11t-5.5 -11l-500 -589h239q30 0 52.5 7t40 21
t32.5 35t31 50q3 6 8 10.5t11 4.5q8 0 13.5 -2.5t8.5 -5.5q-17 -42 -28.5 -78t-19.5 -67q-3 -11 -9.5 -15.5t-14.5 -4.5q-20 0 -45.5 3t-58.5 3h-393zM456 855q49 -22 49 -50q0 -12 -8.5 -18t-18.5 -9q-23 -8 -41.5 -14.5t-36.5 -14.5t-37.5 -17.5t-44.5 -21.5q-11 9 -11 17
q0 3 1.5 6.5t7.5 8.5z" />
    <glyph glyph-name="zacute" unicode="&#x17a;" horiz-adv-x="383" 
d="M71 64q23 8 40 11t37 3q28 0 52 -6.5t54 -6.5q14 0 24.5 12t18.5 30q2 6 6.5 11.5t13.5 4.5l18 -2q-9 -29 -15.5 -58.5t-9.5 -52.5l-8 -8q-12 -5 -24 -7t-26 -2q-23 0 -45.5 4.5t-45 9.5t-45.5 9.5t-45 4.5q-17 0 -33.5 -4.5t-30.5 -15.5h-21q-6 8 -5 12t7 11l291 340
q-28 -14 -65 -14q-20 0 -34.5 3t-27 6l-25 6t-28.5 3t-29 -29q-2 -6 -6.5 -12.5t-15.5 -4.5l-16 2q16 56 22 99l6 6q19 6 40 6t42 -4.5t42 -9.5t42 -9.5t42 -4.5q23 0 43 5t40 18h16q5 -6 5.5 -10.5t-6.5 -12.5zM293 663q26 -5 42.5 -17.5t16.5 -26.5q0 -16 -21 -29
q-20 -12 -36.5 -23t-33 -22.5t-35 -25.5t-40.5 -32q-7 5 -11 9t-4 11q0 6 5 12z" />
    <glyph glyph-name="Zdotaccent" unicode="&#x17b;" horiz-adv-x="605" 
d="M377 0h-393q-1 5 -0.5 9.5t4.5 9.5l504 592h-236q-31 0 -53.5 -3.5t-39 -14t-30 -29.5t-26.5 -50q-7 -16 -22 -16q-7 0 -13 2t-8 5q15 41 25 73.5t16 55.5q3 12 8.5 16.5t16.5 4.5q21 0 43.5 -2.5t57.5 -2.5h391q1 -5 0.5 -11t-5.5 -11l-500 -589h239q30 0 52.5 7t40 21
t32.5 35t31 50q3 6 8 10.5t11 4.5q8 0 13.5 -2.5t8.5 -5.5q-17 -42 -28.5 -78t-19.5 -67q-3 -11 -9.5 -15.5t-14.5 -4.5q-20 0 -45.5 3t-58.5 3zM325 761q0 28 16.5 43.5t36.5 15.5q23 0 35 -13.5t12 -37.5q0 -28 -16 -43.5t-35 -15.5q-24 0 -36.5 13.5t-12.5 37.5z" />
    <glyph glyph-name="zdotaccent" unicode="&#x17c;" horiz-adv-x="383" 
d="M71 64q23 8 40 11t37 3q28 0 52 -6.5t54 -6.5q14 0 24.5 12t18.5 30q2 6 6.5 11.5t13.5 4.5l18 -2q-9 -29 -15.5 -58.5t-9.5 -52.5l-8 -8q-12 -5 -24 -7t-26 -2q-23 0 -45.5 4.5t-45 9.5t-45.5 9.5t-45 4.5q-17 0 -33.5 -4.5t-30.5 -15.5h-21q-6 8 -5 12t7 11l291 340
q-28 -14 -65 -14q-20 0 -34.5 3t-27 6l-25 6t-28.5 3t-29 -29q-2 -6 -6.5 -12.5t-15.5 -4.5l-16 2q16 56 22 99l6 6q19 6 40 6t42 -4.5t42 -9.5t42 -9.5t42 -4.5q23 0 43 5t40 18h16q5 -6 5.5 -10.5t-6.5 -12.5zM182 568q0 28 16.5 43.5t36.5 15.5q23 0 35 -13.5t12 -37.5
q0 -28 -16 -43.5t-35 -15.5q-24 0 -36.5 13.5t-12.5 37.5z" />
    <glyph glyph-name="Zcaron" unicode="&#x17d;" horiz-adv-x="605" 
d="M-16 0q-1 5 -0.5 9.5t4.5 9.5l504 592h-236q-31 0 -53.5 -3.5t-39 -14t-30 -29.5t-26.5 -50q-7 -16 -22 -16q-7 0 -13 2t-8 5q15 41 25 73.5t16 55.5q3 12 8.5 16.5t16.5 4.5q21 0 43.5 -2.5t57.5 -2.5h391q1 -5 0.5 -11t-5.5 -11l-500 -589h239q30 0 52.5 7t40 21
t32.5 35t31 50q3 6 8 10.5t11 4.5q8 0 13.5 -2.5t8.5 -5.5q-17 -42 -28.5 -78t-19.5 -67q-3 -11 -9.5 -15.5t-14.5 -4.5q-20 0 -45.5 3t-58.5 3h-393zM264 816q-5 6 -5 13q0 14 23 24q23 -19 45.5 -35.5t51.5 -31.5q32 15 61 31t65 36q17 -9 17 -19q0 -8 -8 -15l-128 -112
q-26 0 -37 4.5t-22 20.5z" />
    <glyph glyph-name="zcaron" unicode="&#x17e;" horiz-adv-x="383" 
d="M71 64q23 8 40 11t37 3q28 0 52 -6.5t54 -6.5q14 0 24.5 12t18.5 30q2 6 6.5 11.5t13.5 4.5l18 -2q-9 -29 -15.5 -58.5t-9.5 -52.5l-8 -8q-12 -5 -24 -7t-26 -2q-23 0 -45.5 4.5t-45 9.5t-45.5 9.5t-45 4.5q-17 0 -33.5 -4.5t-30.5 -15.5h-21q-6 8 -5 12t7 11l291 340
q-28 -14 -65 -14q-20 0 -34.5 3t-27 6l-25 6t-28.5 3t-29 -29q-2 -6 -6.5 -12.5t-15.5 -4.5l-16 2q16 56 22 99l6 6q19 6 40 6t42 -4.5t42 -9.5t42 -9.5t42 -4.5q23 0 43 5t40 18h16q5 -6 5.5 -10.5t-6.5 -12.5zM135 629q-4 8 -2 16t19 16q23 -32 41.5 -53.5t40.5 -42.5
q30 22 56 43.5t61 53.5q17 -10 16.5 -18.5t-5.5 -13.5l-117 -142q-29 -1 -41 4.5t-18 19.5z" />
    <glyph glyph-name="longs" unicode="&#x17f;" horiz-adv-x="297" 
d="M132 519q7 43 28 78.5t49.5 61t61.5 39.5t64 14q23 0 46 -13q-8 -16 -13 -32.5t-9 -38.5l-14 -4q-10 13 -26 23.5t-33 10.5q-14 0 -25 -6.5t-20.5 -26.5t-19.5 -57t-20 -98l-62 -367q-13 -74 -31 -129t-41 -95.5t-50.5 -69t-60.5 -47.5q-11 -6 -22.5 -10t-24.5 -4
q-20 0 -39 7q6 18 10 39t6 44l15 6q11 -14 24.5 -23t29.5 -9q34 0 55 56t40 166z" />
    <glyph glyph-name="florin" unicode="&#x192;" horiz-adv-x="488" 
d="M27 -127q-18 0 -33 5t-15 20q0 6 2 18t6.5 23t11.5 19.5t18 8.5q5 0 10 -3q14 -10 26.5 -18.5t26.5 -8.5q30 0 51 56.5t39 168.5l24 146h-110q-1 8 -1 12v7q0 14 5 19t16 5h97l13 79q7 45 27.5 82.5t49.5 64.5t64.5 42.5t72.5 15.5q14 0 30.5 -5t16.5 -21
q0 -6 -1.5 -15.5t-5 -19.5t-10 -17t-15.5 -7q-10 0 -16 6q-11 9 -24.5 16t-28.5 7q-14 0 -24.5 -7t-19 -27.5t-16.5 -56.5t-17 -94l-7 -43h135q1 -6 1.5 -10.5t0.5 -9.5q0 -14 -6 -18.5t-17 -4.5h-120l-13 -76q-14 -78 -32.5 -135t-42 -97t-51.5 -67t-60 -45
q-11 -6 -26.5 -10.5t-31.5 -4.5z" />
    <glyph glyph-name="clickdental" unicode="&#x1c0;" horiz-adv-x="233" 
d="M156 699v-939h-62v939h62z" />
    <glyph glyph-name="clicklateral" unicode="&#x1c1;" horiz-adv-x="466" 
d="M156 699v-939h-62v939h62zM389 699v-939h-62v939h62z" />
    <glyph glyph-name="clickretroflex" unicode="&#x1c3;" horiz-adv-x="251" 
d="M135 650q13 6 26.5 9t24.5 3q28 0 40.5 -14t5.5 -34q-31 -88 -63.5 -203t-55.5 -243q-24 -4 -29 2t-4 14zM19 46q0 29 16.5 48.5t42.5 19.5t40.5 -16.5t14.5 -41.5q0 -30 -17 -49t-41 -19q-29 0 -42.5 16t-13.5 42z" />
    <glyph glyph-name="DZcaron" unicode="&#x1c4;" horiz-adv-x="1374" 
d="M588 366q0 66 -17.5 113t-51 76.5t-82.5 43t-112 13.5h-51l-103 -541q-3 -19 4.5 -26t26.5 -7h48q67 0 128.5 18.5t108 58t74 102t27.5 149.5zM183 582q4 21 -8.5 29t-44.5 13q-12 1 -12 15q0 3 0.5 7.5t1.5 9.5q30 -3 59 -4.5t55 -1.5h138q69 0 127 -17t100 -51
t65.5 -85.5t23.5 -119.5q0 -84 -32.5 -153.5t-88.5 -119t-132 -77t-164 -27.5h-151q-21 0 -54 -1.5t-60 -4.5q-2 10 -2 16q0 12 12 15q30 6 47 14.5t21 28.5zM714 0q-1 5 -0.5 9.5t4.5 9.5l504 592h-236q-31 0 -53.5 -3.5t-39 -14t-30 -29.5t-26.5 -50q-7 -16 -22 -16
q-7 0 -13 2t-8 5q15 41 25 73.5t16 55.5q3 12 8.5 16.5t16.5 4.5q21 0 43.5 -2.5t57.5 -2.5h391q1 -5 0.5 -11t-5.5 -11l-500 -589h239q30 0 52.5 7t40 21t32.5 35t31 50q3 6 8 10.5t11 4.5q8 0 13.5 -2.5t8.5 -5.5q-17 -42 -28.5 -78t-19.5 -67q-3 -11 -9.5 -15.5
t-14.5 -4.5q-20 0 -45.5 3t-58.5 3h-393zM1009 847q-4 8 -2 16t19 16q23 -32 41.5 -53.5t40.5 -42.5q30 22 56 43.5t61 53.5q17 -10 16.5 -18.5t-5.5 -13.5l-117 -142q-29 -1 -41 4.5t-18 19.5z" />
    <glyph glyph-name="Dzcaron" unicode="&#x1c5;" horiz-adv-x="1227" 
d="M588 366q0 66 -17.5 113t-51 76.5t-82.5 43t-112 13.5h-51l-103 -541q-3 -19 4.5 -26t26.5 -7h48q67 0 128.5 18.5t108 58t74 102t27.5 149.5zM183 582q4 21 -8.5 29t-44.5 13q-12 1 -12 15q0 3 0.5 7.5t1.5 9.5q30 -3 59 -4.5t55 -1.5h138q69 0 127 -17t100 -51
t65.5 -85.5t23.5 -119.5q0 -84 -32.5 -153.5t-88.5 -119t-132 -77t-164 -27.5h-151q-21 0 -54 -1.5t-60 -4.5q-2 10 -2 16q0 12 12 15q30 6 47 14.5t21 28.5zM801 64q23 8 40 11t37 3q28 0 52 -6.5t54 -6.5q14 0 24.5 12t18.5 30q2 6 6.5 11.5t13.5 4.5l18 -2
q-9 -29 -15.5 -58.5t-9.5 -52.5l-8 -8q-12 -5 -24 -7t-26 -2q-23 0 -45.5 4.5t-45 9.5t-45.5 9.5t-45 4.5q-17 0 -33.5 -4.5t-30.5 -15.5h-21q-6 8 -5 12t7 11l291 340q-28 -14 -65 -14q-20 0 -34.5 3t-27 6l-25 6t-28.5 3t-29 -29q-2 -6 -6.5 -12.5t-15.5 -4.5l-16 2
q16 56 22 99l6 6q19 6 40 6t42 -4.5t42 -9.5t42 -9.5t42 -4.5q23 0 43 5t40 18h16q5 -6 5.5 -10.5t-6.5 -12.5zM862 628q-4 8 -2 16t19 16q23 -32 41.5 -53.5t40.5 -42.5q30 22 56 43.5t61 53.5q17 -10 16.5 -18.5t-5.5 -13.5l-117 -142q-29 -1 -41 4.5t-18 19.5z" />
    <glyph glyph-name="dzcaron" unicode="&#x1c6;" horiz-adv-x="965" 
d="M351 518q2 12 4.5 26.5t4 28.5t2.5 26.5t1 20.5q0 5 -1.5 10t-8.5 5q-3 0 -10.5 -1.5t-16 -3t-16 -2.5t-10.5 -1q-13 0 -13 21q45 12 83 24.5t76 27.5q8 -5 10 -9t2 -8q0 -8 -2 -18l-114 -586q-1 -5 -2 -9.5t-1 -7.5q0 -12 12 -12q7 0 14.5 3.5t15 8t14 8t10.5 3.5
q10 0 13 -20q-17 -13 -36.5 -24.5t-37.5 -20.5t-34 -14.5t-26 -5.5q-11 0 -20 4.5t-9 21.5q0 8 3 23l30 129h-4q-47 -94 -94 -136t-96 -42q-15 0 -29.5 4.5t-26.5 16.5t-19.5 32.5t-7.5 52.5q0 85 25 150t64 109t86 66.5t91 22.5q32 0 58 -3zM324 393q-12 4 -29 6.5t-31 2.5
q-39 0 -70 -21.5t-52.5 -58.5t-33.5 -87t-12 -107q0 -42 10 -59t30 -17q19 0 40 18t42 47t40 66t33.5 75t23.5 73.5t9 61.5zM539 64q23 8 40 11t37 3q28 0 52 -6.5t54 -6.5q14 0 24.5 12t18.5 30q2 6 6.5 11.5t13.5 4.5l18 -2q-9 -29 -15.5 -58.5t-9.5 -52.5l-8 -8
q-12 -5 -24 -7t-26 -2q-23 0 -45.5 4.5t-45 9.5t-45.5 9.5t-45 4.5q-17 0 -33.5 -4.5t-30.5 -15.5h-21q-6 8 -5 12t7 11l291 340q-28 -14 -65 -14q-20 0 -34.5 3t-27 6l-25 6t-28.5 3t-29 -29q-2 -6 -6.5 -12.5t-15.5 -4.5l-16 2q16 56 22 99l6 6q19 6 40 6t42 -4.5t42 -9.5
t42 -9.5t42 -4.5q23 0 43 5t40 18h16q5 -6 5.5 -10.5t-6.5 -12.5zM600 628q-4 8 -2 16t19 16q23 -32 41.5 -53.5t40.5 -42.5q30 22 56 43.5t61 53.5q17 -10 16.5 -18.5t-5.5 -13.5l-117 -142q-29 -1 -41 4.5t-18 19.5z" />
    <glyph glyph-name="LJ" unicode="&#x1c7;" horiz-adv-x="898" 
d="M117 0q-21 0 -50.5 -1.5t-56.5 -4.5q-1 5 -1.5 9t-0.5 8q0 5 3 9t9 5q26 4 43 13.5t21 29.5l99 514q4 20 -11.5 29t-40.5 13q-7 1 -10 5.5t-3 9.5q0 3 1 7.5t2 9.5q30 -3 62.5 -4.5t58.5 -1.5q14 0 31 0.5t34.5 1t34 1.5t29.5 3q3 -11 3 -17q0 -13 -14 -15t-29.5 -5.5
t-28.5 -9t-22.5 -14.5t-12.5 -23l-97 -507q-3 -14 5 -20.5t22 -6.5h116q45 0 78.5 24.5t71.5 75.5q8 10 18 10q6 0 11.5 -3.5t9.5 -7.5l-10 -22q-5 -10 -10 -22l-10 -24q-8 -20 -13 -39t-10 -27t-16 -8q-17 0 -34 2.5t-46 2.5h-236v0zM746 201q-14 -70 -29 -120.5t-40.5 -92
t-65.5 -79t-103 -81.5q-10 9 -10 21q0 5 2.5 8t5.5 6q33 33 55.5 61.5t38 56.5t25.5 57.5t16 63.5l90 477q4 20 -7 31t-47 15q-8 1 -11.5 5.5t-3.5 10.5q0 5 2 15q30 -3 64 -4.5t59 -1.5q21 0 49.5 1.5t55.5 4.5q2 -10 2 -15q0 -13 -15 -16q-29 -4 -42.5 -13.5t-17.5 -29.5z
" />
    <glyph glyph-name="Lj" unicode="&#x1c8;" horiz-adv-x="793" 
d="M117 0q-21 0 -50.5 -1.5t-56.5 -4.5q-1 5 -1.5 9t-0.5 8q0 5 3 9t9 5q26 4 43 13.5t21 29.5l99 514q4 20 -11.5 29t-40.5 13q-7 1 -10 5.5t-3 9.5q0 3 1 7.5t2 9.5q30 -3 62.5 -4.5t58.5 -1.5q14 0 31 0.5t34.5 1t34 1.5t29.5 3q3 -11 3 -17q0 -13 -14 -15t-29.5 -5.5
t-28.5 -9t-22.5 -14.5t-12.5 -23l-97 -507q-3 -14 5 -20.5t22 -6.5h116q45 0 78.5 24.5t71.5 75.5q8 10 18 10q6 0 11.5 -3.5t9.5 -7.5l-10 -22q-5 -10 -10 -22l-10 -24q-8 -20 -13 -39t-10 -27t-16 -8q-17 0 -34 2.5t-46 2.5h-236v0zM479 -228q23 19 37.5 36.5t24 35.5
t15 38.5t10.5 45.5l81 410q1 4 2 11.5t1 12.5q0 10 -8 10q-4 0 -12 -3.5t-17 -7t-17 -7t-12 -3.5q-5 0 -8 6t-5 14q18 10 42.5 22.5t47 23.5t40 18t22.5 7q7 0 12 -3.5t5 -13.5q0 -7 -2 -15l-91 -459q-15 -75 -58 -122t-99 -81q-15 6 -15 16q0 5 4 8zM722 549
q-19 0 -30 11.5t-11 30.5q0 27 18.5 48.5t44.5 21.5q20 0 28.5 -13t8.5 -33q0 -25 -17 -45.5t-42 -20.5z" />
    <glyph glyph-name="lj" unicode="&#x1c9;" horiz-adv-x="491" 
d="M142 620q0 5 -1.5 10t-8.5 5q-3 0 -10.5 -1.5t-16 -3t-15.5 -2.5t-10 -1q-13 0 -13 21q45 12 83 24.5t76 27.5q8 -5 10 -9.5t2 -9.5q0 -8 -2 -16l-114 -583q-1 -5 -2 -11.5t-1 -8.5q0 -12 12 -12q7 0 14.5 3.5t15 8t13.5 8t10 3.5q10 0 14 -20q-17 -13 -36.5 -24.5
t-37.5 -20.5t-34 -14.5t-26 -5.5q-11 0 -21 4.5t-10 21.5q0 3 1 10.5t2 10.5l94 483q6 29 9 57.5t3 44.5zM177 -228q23 19 37.5 36.5t24 35.5t15 38.5t10.5 45.5l81 410q1 4 2 11.5t1 12.5q0 10 -8 10q-4 0 -12 -3.5t-17 -7t-17 -7t-12 -3.5q-5 0 -8 6t-5 14
q18 10 42.5 22.5t47 23.5t40 18t22.5 7q7 0 12 -3.5t5 -13.5q0 -7 -2 -15l-91 -459q-15 -75 -58 -122t-99 -81q-15 6 -15 16q0 5 4 8zM420 549q-19 0 -30 11.5t-11 30.5q0 27 18.5 48.5t44.5 21.5q20 0 28.5 -13t8.5 -33q0 -25 -17 -45.5t-42 -20.5z" />
    <glyph glyph-name="NJ" unicode="&#x1ca;" horiz-adv-x="1064" 
d="M530 -7q-5 -2 -9 -3.5t-10 -1.5q-12 0 -20 15l-274 543l-90 -476q-4 -20 13 -30.5t41 -13.5q13 -1 13 -16q0 -3 -0.5 -7t-1.5 -9q-30 3 -53.5 4.5t-43.5 1.5q-18 0 -38.5 -1.5t-46.5 -4.5q-1 5 -1.5 9t-0.5 7q0 5 3 9.5t10 5.5q26 4 42.5 14.5t20.5 28.5l100 518
q2 14 -7 24t-34 14q-7 1 -10 5.5t-3 9.5q0 6 3 17q26 -3 44 -4.5t41 -1.5q26 0 34.5 -2.5t13.5 -11.5l249 -501l86 444q3 20 -12 31t-40 14q-15 1 -15 16q0 3 0.5 7t1.5 9q30 -3 51 -4.5t41 -1.5q36 0 89 6q2 -10 2 -16q0 -5 -3 -9.5t-10 -5.5q-24 -4 -41.5 -14.5
t-21.5 -28.5zM912 201q-14 -70 -29 -120.5t-40.5 -92t-65.5 -79t-103 -81.5q-10 9 -10 21q0 5 2.5 8t5.5 6q33 33 55.5 61.5t38 56.5t25.5 57.5t16 63.5l90 477q4 20 -7 31t-47 15q-8 1 -11.5 5.5t-3.5 10.5q0 5 2 15q30 -3 64 -4.5t59 -1.5q21 0 49.5 1.5t55.5 4.5
q2 -10 2 -15q0 -13 -15 -16q-29 -4 -42.5 -13.5t-17.5 -29.5z" />
    </font>
</defs>
</svg>
